<svg xmlns="http://www.w3.org/2000/svg">
<!--
Copyright 2021 Huawei Device Co., Ltd. All Rights Reserved.
  -->

  <defs>
    <font name="HarmonyOS Sans SC Light"
      horiz-adv-x="1000" vert-adv-y="1000" >
    <font-face font-family="HarmonyOS Sans SC Light" font-weight="400"
      font-stretch="normal"
      units-per-em="1000"
      ascent="928"
      descent="-244"/>
    <glyph glyph-name=" " unicode="&#32;"
      horiz-adv-x="270" vert-adv-y="1172"
      d=""/>
    <glyph glyph-name="!" unicode="&#33;"
      horiz-adv-x="227" vert-adv-y="1172"
      d="M135 195L92 195L84 759L143 759L135 195ZM114-10C103-10 93-6 85 3C76 11 72 21 72 32L72 32C72 44 76 54 84 63C92 71 102 75 113 75L113 75C125 75 135 71 143 63C151 54 155 44 155 32L155 32C155 21 151 11 143 3C135-6 125-10 114-10L114-10Z"/>
    <glyph glyph-name=""" unicode="&#34;"
      horiz-adv-x="303" vert-adv-y="1172"
      d="M107 574L61 574L59 803L109 803L107 574ZM242 574L196 574L194 803L245 803L242 574Z"/>
    <glyph glyph-name="#" unicode="&#35;"
      horiz-adv-x="621" vert-adv-y="1172"
      d="M543 733L496 532L605 532L605 480L484 480L429 249L538 249L538 196L417 196L370-3L317-3L364 196L180 196L133-3L79-3L126 196L17 196L17 249L138 249L193 480L84 480L84 532L205 532L252 733L306 733L259 532L443 532L490 733L543 733ZM430 480L246 480L192 249L376 249L430 480Z"/>
    <glyph glyph-name="$" unicode="&#36;"
      horiz-adv-x="553" vert-adv-y="1172"
      d="M312 685L312 390C355 375 390 360 418 345C445 330 468 309 487 284C505 258 514 225 514 186L514 186C514 131 496 85 460 50C423 14 374-6 312-9L312-9L312-142L257-142L257-8C202-2 154 17 113 50C72 82 45 124 33 175L33 175L79 203C92 159 114 124 146 97C177 70 214 53 257 47L257 47L257 349C214 364 180 379 153 394C126 409 104 429 86 454C68 479 59 511 59 550L59 550C59 607 78 652 116 685C154 718 201 737 257 742L257 742L257 867L312 867L312 741C363 736 405 718 440 689C474 660 494 625 501 586L501 586L455 558C448 592 432 621 407 644C382 667 350 680 312 685L312 685ZM117 555C117 518 129 488 153 468C177 447 212 427 257 409L257 409L257 687C216 683 183 670 157 647C130 624 117 594 117 555L117 555ZM312 330L312 46C356 49 391 62 417 87C442 112 455 143 455 181L455 181C455 219 443 249 419 271C394 292 359 312 312 330L312 330Z"/>
    <glyph glyph-name="%" unicode="&#37;"
      horiz-adv-x="753" vert-adv-y="1172"
      d="M332 586C332 555 325 528 312 505C298 481 279 462 256 450C233 437 207 430 178 430L178 430C149 430 124 436 101 450C78 463 59 481 46 505C32 528 25 555 25 586L25 586C25 617 32 644 46 668C59 692 78 711 101 724C124 737 150 743 178 743L178 743C207 743 233 737 256 724C279 711 298 692 312 668C325 644 332 617 332 586L332 586ZM128 0L565 733L627 733L190 0L128 0ZM277 586C277 617 268 643 249 663C230 683 206 693 178 693L178 693C150 693 126 683 108 663C89 643 79 617 79 586L79 586C79 554 89 528 108 509C127 489 150 479 178 479L178 479C206 479 230 489 249 509C268 528 277 554 277 586L277 586ZM728 146C728 115 721 88 708 65C694 41 675 23 652 10C628-3 602-10 574-10L574-10C546-10 520-3 497 10C474 23 455 41 442 65C428 88 421 115 421 146L421 146C421 177 428 205 442 229C455 252 474 271 497 284C520 297 545 303 574 303L574 303C603 303 629 297 652 284C675 271 694 252 708 229C721 205 728 177 728 146L728 146ZM674 146C674 178 664 204 645 224C626 244 602 254 574 254L574 254C546 254 523 244 504 224C485 204 475 178 475 146L475 146C475 115 484 89 504 70C523 50 546 40 574 40L574 40C602 40 626 50 645 70C664 89 674 115 674 146L674 146Z"/>
    <glyph glyph-name="&" unicode="&#38;"
      horiz-adv-x="688" vert-adv-y="1172"
      d="M546 164L693 0L615 0L513 114C484 75 449 44 411 23C372 1 328-10 279-10L279-10C236-10 197-2 163 15C128 32 101 56 82 87C62 118 52 156 52 199L52 199C52 256 68 303 99 338C130 373 174 405 229 434L229 434C197 471 175 502 162 527C149 552 143 578 143 607L143 607C143 642 151 671 168 696C184 721 206 739 233 752C260 765 290 771 323 771L323 771C374 771 415 756 447 727C478 698 493 660 493 615L493 615C493 584 485 557 469 534C453 511 433 492 410 477C387 462 355 444 314 423L314 423L508 207C541 272 560 348 566 434L566 434L624 434C612 327 586 237 546 164L546 164ZM205 608C205 585 211 563 223 542C234 521 254 494 282 461L282 461C315 478 342 493 362 506C382 519 399 534 412 552C425 569 431 590 431 614L431 614C431 643 422 668 403 688C384 707 357 717 322 717L322 717C287 717 259 707 238 688C216 669 205 642 205 608L205 608ZM281 44C360 44 426 81 477 155L477 155L262 396C215 370 178 343 153 314C127 285 114 247 114 201L114 201C114 152 130 113 161 86C192 58 232 44 281 44L281 44Z"/>
    <glyph glyph-name="'" unicode="&#39;"
      horiz-adv-x="168" vert-adv-y="1172"
      d="M107 574L61 574L59 803L109 803L107 574Z"/>
    <glyph glyph-name="(" unicode="&#40;"
      horiz-adv-x="321" vert-adv-y="1172"
      d="M71 352C71 446 87 534 119 615C151 696 194 762 247 815L247 815L301 815C187 684 130 530 130 352L130 352C130 259 145 173 175 96C205 19 247-50 301-111L301-111L247-111C194-58 151 8 119 89C87 170 71 257 71 352L71 352Z"/>
    <glyph glyph-name=")" unicode="&#41;"
      horiz-adv-x="321" vert-adv-y="1172"
      d="M250 352C250 257 234 170 202 89C170 8 127-58 74-111L74-111L20-111C73-50 115 19 145 96C175 173 190 259 190 352L190 352C190 531 133 685 20 815L20 815L74 815C127 762 170 696 202 615C234 534 250 446 250 352L250 352Z"/>
    <glyph glyph-name="*" unicode="&#42;"
      horiz-adv-x="411" vert-adv-y="1172"
      d="M230 733L224 585L349 664L374 621L243 552L374 483L349 441L224 520L230 372L181 372L187 520L62 441L37 483L168 552L37 621L62 664L187 585L181 733L230 733Z"/>
    <glyph glyph-name="+" unicode="&#43;"
      horiz-adv-x="553" vert-adv-y="1172"
      d="M251 388L251 583L302 583L302 388L497 388L497 337L302 337L302 142L251 141L251 337L56 337L56 388L251 388Z"/>
    <glyph glyph-name="," unicode="&#44;"
      horiz-adv-x="227" vert-adv-y="1172"
      d="M118 74C132 74 143 68 152 57C161 46 165 28 165 4L165 4C165-33 156-64 138-90C119-116 94-133 61-140L61-140L61-107C103-94 125-61 127-10L127-10C125-11 122-11 117-11L117-11C105-11 95-7 88 1C81 9 77 19 77 31L77 31C77 43 81 53 89 62C96 70 106 74 118 74L118 74Z"/>
    <glyph glyph-name="-" unicode="&#45;"
      horiz-adv-x="494" vert-adv-y="1172"
      d="M426 278L68 278L68 327L426 327L426 278Z"/>
    <glyph glyph-name="." unicode="&#46;"
      horiz-adv-x="219" vert-adv-y="1172"
      d="M109-10C98-10 89-6 81 3C72 12 68 22 68 33L68 33C68 44 72 54 80 63C88 71 98 75 109 75L109 75C121 75 131 71 139 63C147 54 151 44 151 33L151 33C151 21 147 11 139 3C131-6 121-10 109-10L109-10Z"/>
    <glyph glyph-name="/" unicode="&#47;"
      horiz-adv-x="367" vert-adv-y="1172"
      d="M76 0L18 0L292 732L350 732L76 0Z"/>
    <glyph glyph-name="0" unicode="&#48;"
      horiz-adv-x="553" vert-adv-y="1172"
      d="M503 366C503 243 483 150 444 86C405 22 349-10 276-10L276-10C204-10 149 22 110 86C71 150 51 243 51 366L51 366C51 489 71 583 110 648C149 712 204 744 276 744L276 744C349 744 405 712 444 648C483 584 503 490 503 366L503 366ZM114 366C114 152 168 45 276 45L276 45C385 45 439 152 439 366L439 366C439 582 385 690 276 690L276 690C168 690 114 582 114 366L114 366Z"/>
    <glyph glyph-name="1" unicode="&#49;"
      horiz-adv-x="553" vert-adv-y="1172"
      d="M293 661L105 554L105 615L307 733L352 733L352 0L293 0L293 661Z"/>
    <glyph glyph-name="2" unicode="&#50;"
      horiz-adv-x="553" vert-adv-y="1172"
      d="M351 300L139 53L499 53L499 0L49 0L49 38L307 337C347 382 375 420 391 450C407 479 415 511 415 544L415 544C415 589 402 624 377 651C351 677 317 690 276 690L276 690C237 690 203 678 173 654C143 629 121 595 107 551L107 551L60 578C75 631 102 672 143 701C183 730 229 744 280 744L280 744C318 744 352 736 382 720C412 704 435 681 453 652C470 622 478 587 478 547L478 547C478 506 468 467 449 431C430 395 397 351 351 300L351 300Z"/>
    <glyph glyph-name="3" unicode="&#51;"
      horiz-adv-x="553" vert-adv-y="1172"
      d="M355 390C401 377 436 355 461 323C485 291 497 251 497 203L497 203C497 160 488 123 469 91C450 58 423 33 390 16C356-1 318-10 276-10L276-10C224-10 177 4 134 31C91 58 63 96 48 146L48 146L95 174C108 132 132 100 165 78C198 55 235 44 276 44L276 44C323 44 361 59 390 88C419 117 433 156 433 203L433 203C433 252 417 290 385 317C352 344 306 357 245 357L245 357L203 357L204 411L249 411C299 411 338 424 365 451C392 478 405 512 405 554L405 554C405 594 393 627 368 652C343 677 310 689 269 689L269 689C231 689 198 678 171 657C143 635 122 603 108 562L108 562L60 589C76 640 103 678 141 704C178 730 222 743 272 743L272 743C332 743 380 726 415 691C450 656 468 611 468 555L468 555C468 516 459 481 440 452C421 423 392 402 355 390L355 390Z"/>
    <glyph glyph-name="4" unicode="&#52;"
      horiz-adv-x="553" vert-adv-y="1172"
      d="M368 443L427 443L427 225L538 225L538 173L427 173L427 0L368 0L368 173L40 173L40 214L327 733L392 733L110 225L368 225L368 443Z"/>
    <glyph glyph-name="5" unicode="&#53;"
      horiz-adv-x="553" vert-adv-y="1172"
      d="M280 459C322 459 360 449 393 430C426 410 451 382 470 347C489 312 498 272 498 227L498 227C498 181 488 140 469 104C450 68 423 40 388 20C353 0 314-10 270-10L270-10C223-10 182 2 146 25C110 48 84 83 68 128L68 128L116 156C130 119 150 92 177 73C203 54 234 44 270 44L270 44C321 44 362 61 392 95C421 129 436 172 436 225L436 225C436 277 421 320 393 354C364 388 323 405 272 405L272 405C210 405 160 377 122 321L122 321L86 339L138 734L464 734L464 681L189 681L152 414C186 444 229 459 280 459L280 459Z"/>
    <glyph glyph-name="6" unicode="&#54;"
      horiz-adv-x="553" vert-adv-y="1172"
      d="M293 447C337 447 376 437 409 417C442 396 467 369 485 335C503 300 512 262 512 220L512 220C512 177 502 138 483 103C464 68 437 40 402 20C367 0 328-10 284-10L284-10C239-10 200 0 165 20C130 39 104 66 85 101C66 136 56 175 56 218L56 218C56 254 62 287 76 318C89 349 110 388 139 436L139 436L325 733L392 733L219 456L193 418C222 437 255 447 293 447L293 447ZM284 44C333 44 373 60 404 93C434 125 449 167 449 218L449 218C449 269 435 311 406 344C377 376 337 392 286 392L286 392C252 392 222 384 197 368C172 352 152 331 139 304C126 277 119 247 119 215L119 215C119 165 134 124 165 92C195 60 235 44 284 44L284 44Z"/>
    <glyph glyph-name="7" unicode="&#55;"
      horiz-adv-x="553" vert-adv-y="1172"
      d="M154 0L428 681L57 681L57 733L497 733L497 699L220 0L154 0Z"/>
    <glyph glyph-name="8" unicode="&#56;"
      horiz-adv-x="553" vert-adv-y="1172"
      d="M369 397C411 382 444 358 469 324C493 289 505 249 505 204L505 204C505 163 495 127 476 95C457 62 430 37 395 18C360-1 321-10 277-10L277-10C232-10 193-1 158 18C123 37 96 62 77 95C58 127 48 163 48 204L48 204C48 249 60 289 85 323C109 357 142 382 184 397L184 397C150 410 123 431 104 460C84 489 74 521 74 558L74 558C74 592 83 623 100 652C117 680 141 702 172 719C203 736 238 744 277 744L277 744C316 744 351 736 382 719C413 702 436 680 453 652C470 623 478 592 478 558L478 558C478 521 468 489 449 460C430 431 403 410 369 397L369 397ZM277 691C234 691 199 678 174 653C148 628 135 595 135 556L135 556C135 517 148 485 173 460C198 435 233 423 277 423L277 423C321 423 356 435 381 460C406 485 419 517 419 556L419 556C419 595 406 628 380 653C354 678 320 691 277 691L277 691ZM277 44C326 44 366 59 397 89C428 118 443 157 443 206L443 206C443 255 428 294 398 324C367 353 327 368 277 368L277 368C227 368 187 353 157 324C126 294 111 255 111 206L111 206C111 157 126 118 157 89C187 59 227 44 277 44L277 44Z"/>
    <glyph glyph-name="9" unicode="&#57;"
      horiz-adv-x="553" vert-adv-y="1172"
      d="M270 744C315 744 354 734 389 715C424 695 451 668 470 633C489 598 498 559 498 516L498 516C498 479 492 446 479 415C466 384 444 345 415 298L415 298L229 1L162 1L335 277L361 315C332 296 298 287 261 287L261 287C217 287 179 297 146 317C113 337 87 364 69 399C51 433 42 471 42 513L42 513C42 556 52 596 71 631C90 666 117 693 152 714C187 734 226 744 270 744L270 744ZM268 342C302 342 332 350 357 366C382 382 402 403 415 430C428 457 435 486 435 519L435 519C435 570 420 611 390 643C359 674 319 690 270 690L270 690C221 690 181 674 151 641C120 608 105 566 105 515L105 515C105 464 120 423 149 391C178 358 217 342 268 342L268 342Z"/>
    <glyph glyph-name=":" unicode="&#58;"
      horiz-adv-x="241" vert-adv-y="1172"
      d="M121 446C110 446 100 450 92 459C83 467 79 477 79 489L79 489C79 500 83 510 91 519C99 527 109 531 120 531L120 531C132 531 142 527 150 519C158 510 162 500 162 489L162 489C162 477 158 467 150 459C142 450 132 446 121 446L121 446ZM121-10C110-10 100-6 92 3C83 11 79 21 79 33L79 33C79 44 83 54 91 63C99 71 109 75 120 75L120 75C132 75 142 71 150 63C158 54 162 44 162 33L162 33C162 21 158 11 150 3C142-6 132-10 121-10L121-10Z"/>
    <glyph glyph-name=";" unicode="&#59;"
      horiz-adv-x="250" vert-adv-y="1172"
      d="M129 446C118 446 108 450 100 459C91 467 87 477 87 489L87 489C87 500 91 510 100 519C108 527 118 531 129 531L129 531C140 531 150 527 159 519C167 510 171 500 171 489L171 489C171 477 167 467 159 459C150 450 140 446 129 446L129 446ZM126 74C140 74 151 68 160 57C169 46 173 28 173 4L173 4C173-33 164-64 146-90C127-116 102-133 69-140L69-140L69-107C111-94 133-61 135-10L135-10C133-11 130-11 125-11L125-11C113-11 103-7 96 1C89 9 85 19 85 31L85 31C85 43 89 53 97 62C104 70 114 74 126 74L126 74Z"/>
    <glyph glyph-name="<" unicode="&#60;"
      horiz-adv-x="553" vert-adv-y="1172"
      d="M56 386L497 575L497 518L132 362L497 206L497 149L56 338L56 386Z"/>
    <glyph glyph-name="=" unicode="&#61;"
      horiz-adv-x="553" vert-adv-y="1172"
      d="M497 485L497 434L56 434L56 485L497 485ZM497 290L497 240L56 240L56 290L497 290Z"/>
    <glyph glyph-name=">" unicode="&#62;"
      horiz-adv-x="553" vert-adv-y="1172"
      d="M56 206L421 362L56 518L56 575L497 386L497 338L56 149L56 206Z"/>
    <glyph glyph-name="?" unicode="&#63;"
      horiz-adv-x="417" vert-adv-y="1172"
      d="M51 605L5 632C22 675 48 709 84 733C120 757 162 769 210 769L210 769C247 769 280 762 309 747C337 732 359 712 374 687C389 662 396 633 396 602L396 602C396 568 388 539 373 515C357 491 334 464 303 434L303 434C282 413 265 395 252 381C239 366 229 348 220 328C211 307 207 285 207 260L207 260C207 241 210 219 216 195L216 195L169 195C160 224 156 251 156 276L156 276C156 302 160 325 169 346C178 367 188 385 201 400C213 415 229 432 250 453L250 453C278 480 299 504 313 525C326 546 333 570 333 598L333 598C333 633 322 661 299 683C276 704 244 715 205 715L205 715C134 715 83 678 51 605L51 605ZM200-10C189-10 180-6 172 3C163 11 159 21 159 32L159 32C159 44 163 54 171 63C179 71 189 75 200 75L200 75C211 75 221 71 230 63C238 54 242 44 242 32L242 32C242 21 238 11 230 3C222-6 212-10 200-10L200-10Z"/>
    <glyph glyph-name="@" unicode="&#64;"
      horiz-adv-x="988" vert-adv-y="1172"
      d="M512 771C595 771 670 753 735 718C800 683 850 632 887 566C924 499 942 422 942 333L942 333C942 258 928 197 901 150C873 102 832 78 778 78L778 78C745 78 717 88 696 107C674 126 660 155 654 194L654 194C640 156 618 127 588 108C558 88 525 78 488 78L488 78C452 78 419 88 388 107C357 126 333 153 314 189C295 225 286 268 286 317L286 317C286 366 295 408 314 444C333 480 357 508 388 527C419 546 452 555 488 555L488 555C523 555 555 546 584 528C613 510 634 484 649 449L649 449C651 478 652 510 652 545L652 545L700 545L700 248C700 208 707 178 721 158C734 138 754 128 781 128L781 128C819 128 847 147 864 185C881 223 889 271 889 329L889 329C889 410 873 480 841 539C809 598 765 643 708 674C651 705 585 720 511 720L511 720C434 720 365 703 304 670C243 637 195 590 161 529C127 468 110 399 110 320L110 320C110 242 127 173 161 113C194 52 241 5 301-28C361-61 429-78 505-78L505-78C548-78 588-73 625-62C662-51 693-36 719-17L719-17L743-58C716-81 682-98 641-110C600-123 554-129 505-129L505-129C418-129 341-110 274-72C206-35 153 18 115 86C77 154 58 232 58 320L58 320C58 408 77 486 116 555C155 624 209 677 278 715C347 752 425 771 512 771L512 771ZM493 131C534 131 570 146 600 176C630 206 645 253 645 317L645 317C645 380 630 427 600 457C570 487 534 502 493 502L493 502C449 502 413 486 386 454C359 421 345 376 345 317L345 317C345 258 359 213 386 180C413 147 449 131 493 131L493 131Z"/>
    <glyph glyph-name="A" unicode="&#65;"
      horiz-adv-x="649" vert-adv-y="1172"
      d="M295 732L345 732L636 0L569 0L480 230L160 230L74 0L13 0L295 732ZM180 284L460 284L318 651L180 284Z"/>
    <glyph glyph-name="B" unicode="&#66;"
      horiz-adv-x="629" vert-adv-y="1172"
      d="M433 383C482 372 520 351 547 320C574 289 587 250 587 201L587 201C587 138 565 89 522 54C479 18 414 0 329 0L329 0L93 0L93 732L304 732C353 732 396 724 433 708C470 691 498 669 517 640C536 611 546 577 546 539L546 539C546 502 536 470 517 443C498 416 470 396 433 383L433 383ZM293 679L153 679L153 402L295 402C355 402 401 415 434 440C467 465 483 498 483 539L483 539C483 581 466 615 433 641C400 666 353 679 293 679L293 679ZM153 52L317 52C387 52 439 66 474 93C508 120 525 156 525 201L525 201C525 248 508 285 473 312C438 339 387 352 322 352L322 352L153 352L153 52Z"/>
    <glyph glyph-name="C" unicode="&#67;"
      horiz-adv-x="640" vert-adv-y="1172"
      d="M377 45C422 45 460 56 492 78C523 99 546 128 563 165L563 165L611 137C593 92 564 57 523 30C482 3 433-10 378-10L378-10C317-10 263 6 214 38C165 69 126 114 98 171C70 228 56 294 56 367L56 367C56 440 70 506 98 563C126 620 165 664 214 696C263 727 317 743 378 743L378 743C433 743 482 730 523 703C564 676 593 641 611 596L611 596L563 568C546 605 523 634 492 656C461 677 422 688 377 688L377 688C326 688 282 675 243 648C204 621 173 583 152 534C130 485 119 430 119 367L119 367C119 304 130 249 152 200C173 151 204 113 243 86C282 59 326 45 377 45L377 45Z"/>
    <glyph glyph-name="D" unicode="&#68;"
      horiz-adv-x="707" vert-adv-y="1172"
      d="M93 732L281 732C352 732 416 718 472 689C527 660 571 619 603 564C634 509 650 443 650 367L650 367C650 290 634 224 603 169C572 114 528 72 473 43C417 14 353 0 281 0L281 0L93 0L93 732ZM153 53L273 53C336 53 392 65 439 90C486 115 523 151 549 198C575 245 588 301 588 367L588 367C588 432 575 489 549 536C523 583 486 618 439 643C392 668 336 680 273 680L273 680L153 680L153 53Z"/>
    <glyph glyph-name="E" unicode="&#69;"
      horiz-adv-x="579" vert-adv-y="1172"
      d="M479 406L479 353L153 353L153 53L526 53L526 0L93 0L93 733L515 733L515 680L153 680L153 406L479 406Z"/>
    <glyph glyph-name="F" unicode="&#70;"
      horiz-adv-x="553" vert-adv-y="1172"
      d="M93 0L93 732L515 732L515 679L153 679L153 391L479 391L479 338L153 338L153 0L93 0Z"/>
    <glyph glyph-name="G" unicode="&#71;"
      horiz-adv-x="687" vert-adv-y="1172"
      d="M578 319L409 319L409 372L636 372L636 104C615 70 584 42 542 22C499 1 451-10 398-10L398-10C333-10 274 6 222 38C170 69 129 114 100 171C71 228 56 294 56 368L56 368C56 441 71 506 101 563C130 620 171 664 222 696C273 727 330 743 393 743L393 743C449 743 498 731 541 706C584 681 614 648 633 606L633 606L585 578C570 611 545 638 511 658C476 678 436 688 390 688L390 688C338 688 291 675 250 648C209 621 177 583 154 534C131 485 119 430 119 368L119 368C119 305 131 249 155 200C178 151 211 113 254 86C297 59 346 45 402 45L402 45C439 45 473 51 504 64C535 77 559 96 578 121L578 121L578 319Z"/>
    <glyph glyph-name="H" unicode="&#72;"
      horiz-adv-x="728" vert-adv-y="1172"
      d="M153 732L153 407L576 407L576 732L635 732L635 0L576 0L576 354L153 354L153 0L93 0L93 732L153 732Z"/>
    <glyph glyph-name="I" unicode="&#73;"
      horiz-adv-x="246" vert-adv-y="1172"
      d="M153 732L153 0L93 0L93 732L153 732Z"/>
    <glyph glyph-name="J" unicode="&#74;"
      horiz-adv-x="432" vert-adv-y="1172"
      d="M172-10C133-10 100 0 71 20C42 39 21 69 10 108L10 108L57 136C66 105 81 83 101 68C121 53 145 45 173 45L173 45C251 45 290 100 290 211L290 211L290 732L349 732L349 205C349 132 333 78 301 43C268 8 225-10 172-10L172-10Z"/>
    <glyph glyph-name="K" unicode="&#75;"
      horiz-adv-x="650" vert-adv-y="1172"
      d="M618 732L321 423L640 0L564 0L280 379L153 247L153 0L93 0L93 732L153 732L153 321L540 732L618 732Z"/>
    <glyph glyph-name="L" unicode="&#76;"
      horiz-adv-x="551" vert-adv-y="1172"
      d="M93 0L93 732L153 732L153 54L516 54L516 0L93 0Z"/>
    <glyph glyph-name="M" unicode="&#77;"
      horiz-adv-x="852" vert-adv-y="1172"
      d="M428 284L709 732L758 732L758 0L701 0L701 616L444 211L409 211L150 617L150 0L93 0L93 732L145 732L428 284Z"/>
    <glyph glyph-name="N" unicode="&#78;"
      horiz-adv-x="725" vert-adv-y="1172"
      d="M93 732L144 732L575 107L575 732L631 732L631 0L581 0L149 626L149 0L93 0L93 732Z"/>
    <glyph glyph-name="O" unicode="&#79;"
      horiz-adv-x="753" vert-adv-y="1172"
      d="M56 367C56 442 70 508 98 565C125 622 163 666 212 697C261 728 315 743 376 743L376 743C437 743 492 728 541 697C590 666 628 622 656 565C683 508 697 442 697 367L697 367C697 292 683 225 656 169C628 112 590 68 541 37C492 6 437-10 376-10L376-10C315-10 261 6 212 37C163 68 125 112 98 169C70 226 56 292 56 367L56 367ZM119 367C119 304 130 248 151 199C172 150 202 113 241 86C280 59 325 45 376 45L376 45C427 45 473 59 512 86C551 113 582 150 603 199C624 248 635 304 635 367L635 367C635 430 624 486 603 535C581 584 551 622 512 649C473 676 427 689 376 689L376 689C325 689 281 676 242 649C203 622 172 584 151 535C130 486 119 430 119 367L119 367Z"/>
    <glyph glyph-name="P" unicode="&#80;"
      horiz-adv-x="573" vert-adv-y="1172"
      d="M93 732L289 732C338 732 382 723 421 705C459 687 489 662 511 629C532 596 543 557 543 514L543 514C543 471 532 433 511 400C490 367 460 341 421 323C382 305 338 296 289 296L289 296L153 296L153 0L93 0L93 732ZM153 349L282 349C343 349 392 364 427 394C462 423 480 463 480 514L480 514C480 564 462 604 427 635C392 665 343 680 282 680L282 680L153 680L153 349Z"/>
    <glyph glyph-name="Q" unicode="&#81;"
      horiz-adv-x="753" vert-adv-y="1172"
      d="M519 24L739-147L650-147L456 1C430-6 403-10 376-10L376-10C315-10 261 6 212 37C163 68 125 112 98 169C70 226 56 292 56 367L56 367C56 442 70 508 98 565C125 622 163 666 212 697C261 728 315 743 376 743L376 743C437 743 492 728 541 697C590 666 628 622 656 565C683 508 697 442 697 367L697 367C697 286 681 216 649 157C617 97 574 53 519 24L519 24ZM119 367C119 304 130 248 151 199C172 150 202 113 241 86C280 59 325 45 376 45L376 45C427 45 473 59 512 86C551 113 582 150 603 199C624 248 635 304 635 367L635 367C635 430 624 486 603 535C581 584 551 622 512 649C473 676 427 689 376 689L376 689C325 689 281 676 242 649C203 622 172 584 151 535C130 486 119 430 119 367L119 367Z"/>
    <glyph glyph-name="R" unicode="&#82;"
      horiz-adv-x="611" vert-adv-y="1172"
      d="M376 326L608 0L535 0L313 316C301 315 292 314 286 314L286 314L153 314L153 0L93 0L93 732L286 732C335 732 379 724 418 707C457 690 487 665 508 634C529 602 540 565 540 523L540 523C540 474 525 432 496 398C467 363 427 339 376 326L376 326ZM279 680L153 680L153 367L279 367C340 367 389 381 424 409C459 437 477 475 477 523L477 523C477 571 459 609 424 638C389 666 340 680 279 680L279 680Z"/>
    <glyph glyph-name="S" unicode="&#83;"
      horiz-adv-x="550" vert-adv-y="1172"
      d="M518 195C518 132 498 83 457 46C416 9 360-10 289-10L289-10C224-10 167 6 119 37C71 68 39 109 24 162L24 162L72 190C88 145 115 109 154 84C192 58 237 45 289 45L289 45C341 45 382 58 412 84C441 109 456 144 456 189L456 189C456 223 447 251 430 272C413 293 391 310 366 322C340 334 305 347 262 360L262 360C216 375 179 389 152 402C125 415 102 433 83 458C64 482 54 513 54 552L54 552C54 593 64 627 85 656C105 685 133 706 168 721C203 736 241 743 283 743L283 743C343 743 393 729 432 702C471 674 495 639 505 598L505 598L457 570C446 606 425 635 396 657C366 678 328 689 281 689L281 689C233 689 194 677 163 654C132 631 117 598 117 557L117 557C117 528 125 505 141 487C156 469 176 455 199 445C222 434 254 423 294 410L294 410C342 395 381 381 411 367C441 352 466 331 487 304C508 277 518 240 518 195L518 195Z"/>
    <glyph glyph-name="T" unicode="&#84;"
      horiz-adv-x="548" vert-adv-y="1172"
      d="M15 679L15 732L533 732L533 679L303 679L303 0L244 0L244 679L15 679Z"/>
    <glyph glyph-name="U" unicode="&#85;"
      horiz-adv-x="708" vert-adv-y="1172"
      d="M565 296L565 732L625 732L625 286C625 226 614 174 593 130C572 85 541 51 500 27C459 2 410-10 354-10L354-10C298-10 250 2 209 27C168 51 136 85 115 130C94 174 83 226 83 286L83 286L83 732L142 732L142 296C142 217 160 155 197 111C234 67 286 45 354 45L354 45C421 45 473 67 510 111C547 155 565 217 565 296L565 296Z"/>
    <glyph glyph-name="V" unicode="&#86;"
      horiz-adv-x="640" vert-adv-y="1172"
      d="M13 732L79 732L327 81L567 732L627 732L350 0L300 0L13 732Z"/>
    <glyph glyph-name="W" unicode="&#87;"
      horiz-adv-x="954" vert-adv-y="1172"
      d="M454 733L505 733L699 99L882 732L940 732L720 0L671 0L478 621L291 0L243 0L14 732L78 732L270 99L454 733Z"/>
    <glyph glyph-name="X" unicode="&#88;"
      horiz-adv-x="638" vert-adv-y="1172"
      d="M546 732L616 732L353 371L623 0L550 0L316 324L84 0L15 0L285 371L22 732L96 732L322 418L546 732Z"/>
    <glyph glyph-name="Y" unicode="&#89;"
      horiz-adv-x="596" vert-adv-y="1172"
      d="M84 733L308 376L518 733L583 733L335 316L335 0L275 0L275 318L13 733L84 733Z"/>
    <glyph glyph-name="Z" unicode="&#90;"
      horiz-adv-x="570" vert-adv-y="1172"
      d="M59 732L532 732L532 703L112 54L545 54L545 0L29 0L29 30L448 679L59 679L59 732Z"/>
    <glyph glyph-name="[" unicode="&#91;"
      horiz-adv-x="314" vert-adv-y="1172"
      d="M91-111L91 815L294 815L294 763L147 763L147-59L294-59L294-111L91-111Z"/>
    <glyph glyph-name="\" unicode="&#92;"
      horiz-adv-x="367" vert-adv-y="1172"
      d="M292 0L18 732L76 732L350 0L292 0Z"/>
    <glyph glyph-name="]" unicode="&#93;"
      horiz-adv-x="314" vert-adv-y="1172"
      d="M167 763L20 763L20 815L223 815L223-111L20-111L20-59L167-59L167 763Z"/>
    <glyph glyph-name="^" unicode="&#94;"
      horiz-adv-x="447" vert-adv-y="1172"
      d="M224 661L93 372L36 372L199 733L248 733L412 372L354 372L224 661Z"/>
    <glyph glyph-name="_" unicode="&#95;"
      horiz-adv-x="400" vert-adv-y="1172"
      d="M400-136L0-136L0-88L400-88L400-136Z"/>
    <glyph glyph-name="`" unicode="&#96;"
      horiz-adv-x="262" vert-adv-y="1172"
      d="M153 596L59 744L123 744L203 596L153 596Z"/>
    <glyph glyph-name="a" unicode="&#97;"
      horiz-adv-x="540" vert-adv-y="1172"
      d="M276 531C331 531 376 514 411 481C446 447 464 397 464 332L464 332L464 0L414 0C414 21 413 48 412 81L412 81C397 52 375 30 346 14C317-2 283-10 245-10L245-10C212-10 181-4 153 9C125 21 103 39 86 63C69 86 60 115 60 148L60 148C60 199 81 238 122 268C163 297 217 311 283 311L283 311C322 311 363 305 407 294L407 294L407 322C407 375 395 415 372 441C348 466 315 479 273 479L273 479C240 479 211 472 187 457C163 442 144 421 130 394L130 394L86 419C101 453 125 480 160 501C194 521 233 531 276 531L276 531ZM407 185L407 246C362 258 320 264 283 264L283 264C233 264 193 254 164 234C134 214 119 186 119 149L119 149C119 114 132 87 157 68C182 49 212 39 249 39L249 39C293 39 330 52 361 78C392 104 407 140 407 185L407 185Z"/>
    <glyph glyph-name="b" unicode="&#98;"
      horiz-adv-x="601" vert-adv-y="1172"
      d="M323 531C363 531 400 520 434 499C468 478 495 447 516 406C536 365 546 316 546 261L546 261C546 205 536 157 516 116C495 75 468 43 434 22C400 1 363-10 323-10L323-10C283-10 246 1 213 23C180 44 155 75 139 116L139 116C138 97 136 58 135 0L135 0L86 0L86 760L142 760L142 411C159 450 183 480 216 501C248 521 284 531 323 531L323 531ZM316 44C349 44 378 52 404 69C430 86 450 110 465 143C480 176 487 215 487 261L487 261C487 306 480 345 465 378C450 411 430 435 404 452C378 469 349 477 316 477L316 477C287 477 259 470 233 456C206 441 185 418 168 386C151 353 142 312 142 261L142 261C142 210 151 169 168 136C185 103 206 80 233 66C259 51 287 44 316 44L316 44Z"/>
    <glyph glyph-name="c" unicode="&#99;"
      horiz-adv-x="488" vert-adv-y="1172"
      d="M293 44C354 44 398 70 425 122L425 122L470 96C453 61 429 34 399 17C368-1 333-10 294-10L294-10C249-10 209 1 173 24C136 47 107 79 87 120C66 161 55 208 55 261L55 261C55 314 66 362 87 403C108 444 136 475 173 498C209 520 249 531 294 531L294 531C333 531 368 522 399 505C430 487 454 460 470 425L470 425L425 399C398 451 354 477 293 477L293 477C258 477 228 468 201 451C174 434 152 409 137 376C122 343 114 305 114 261L114 261C114 217 122 179 137 146C152 113 174 88 201 71C228 53 258 44 293 44L293 44Z"/>
    <glyph glyph-name="d" unicode="&#100;"
      horiz-adv-x="601" vert-adv-y="1172"
      d="M459 411L459 760L516 760L516 0L466 0C465 60 463 99 462 116L462 116C446 75 421 43 388 22C355 1 318-10 279-10L279-10C239-10 202 1 168 22C133 43 106 75 86 116C65 157 55 205 55 261L55 261C55 316 65 364 86 405C106 446 133 477 168 499C202 520 239 531 279 531L279 531C318 531 354 521 386 501C418 480 442 450 459 411L459 411ZM285 44C314 44 342 51 369 66C395 80 417 103 434 136C451 168 459 210 459 261L459 261C459 312 451 353 434 386C417 418 395 441 369 456C342 470 314 477 285 477L285 477C252 477 223 469 197 452C171 435 151 411 136 378C121 345 114 306 114 261L114 261C114 215 122 176 137 143C152 110 172 86 198 69C223 52 252 44 285 44L285 44Z"/>
    <glyph glyph-name="e" unicode="&#101;"
      horiz-adv-x="537" vert-adv-y="1172"
      d="M289 531C332 531 369 521 401 500C432 479 456 451 474 417C491 382 499 343 499 300L499 300C499 286 498 271 496 256L496 256L114 256C117 187 135 135 169 98C202 61 246 43 300 43L300 43C330 43 357 49 381 62C404 75 423 94 436 119L436 119L480 94C466 61 442 35 409 17C375-1 338-10 297-10L297-10C252-10 212 1 175 23C138 44 109 76 88 117C66 158 55 207 55 264L55 264C55 319 66 366 87 407C108 447 136 478 172 499C207 520 246 531 289 531L289 531ZM287 479C242 479 204 464 173 433C142 402 123 359 117 303L117 303L438 303C438 356 425 398 398 431C371 463 334 479 287 479L287 479Z"/>
    <glyph glyph-name="f" unicode="&#102;"
      horiz-adv-x="327" vert-adv-y="1172"
      d="M268 718C238 718 215 707 199 686C182 665 174 629 174 579L174 579L174 521L313 521L313 472L174 472L174 0L117 0L117 472L28 472L28 521L117 521L117 581C117 646 131 694 159 725C186 756 222 771 266 771L266 771C285 771 302 769 317 764C332 759 345 752 354 745L354 745L332 699C313 712 292 718 268 718L268 718Z"/>
    <glyph glyph-name="g" unicode="&#103;"
      horiz-adv-x="601" vert-adv-y="1172"
      d="M466 521L515 521L515 21C515-73 493-141 448-182C403-223 349-244 284-244L284-244C236-244 193-234 156-213C118-193 91-164 75-126L75-126L121-99C151-160 206-191 285-191L285-191C401-191 459-120 459 23L459 23L459 109C442 70 418 40 387 20C355 0 319-10 280-10L280-10C240-10 203 1 169 23C134 44 107 76 86 117C65 158 55 206 55 261L55 261C55 316 65 365 86 406C107 447 134 478 169 499C203 520 240 531 280 531L280 531C319 531 355 520 388 499C421 478 445 447 462 406L462 406C463 425 465 463 466 521L466 521ZM286 44C315 44 343 51 370 66C396 80 417 103 434 136C451 168 459 210 459 261L459 261C459 312 451 353 434 386C417 418 396 441 370 456C343 470 315 477 286 477L286 477C253 477 224 469 198 452C172 435 152 411 137 378C122 345 114 306 114 261L114 261C114 215 122 176 137 143C152 110 172 86 198 69C224 52 253 44 286 44L286 44Z"/>
    <glyph glyph-name="h" unicode="&#104;"
      horiz-adv-x="569" vert-adv-y="1172"
      d="M314 531C367 531 410 513 443 478C476 443 493 392 493 326L493 326L493 0L436 0L436 311C436 364 424 405 401 434C377 463 344 477 302 477L302 477C274 477 248 471 224 458C199 445 180 425 165 399C150 373 142 342 142 305L142 305L142 0L86 0L86 761L142 761L142 426C158 459 181 485 212 504C242 522 276 531 314 531L314 531Z"/>
    <glyph glyph-name="i" unicode="&#105;"
      horiz-adv-x="229" vert-adv-y="1172"
      d="M114 635C103 635 93 639 85 648C77 656 73 666 73 677L73 677C73 688 77 698 86 707C94 716 103 720 114 720L114 720C126 720 136 716 144 708C152 699 156 689 156 677L156 677C156 666 152 656 144 648C135 639 125 635 114 635L114 635ZM142 520L142 0L86 0L86 520L142 520Z"/>
    <glyph glyph-name="j" unicode="&#106;"
      horiz-adv-x="229" vert-adv-y="1172"
      d="M114 635C103 635 93 639 85 648C77 656 73 666 73 677L73 677C73 688 77 698 85 707C93 716 103 720 114 720L114 720C125 720 135 716 144 707C152 698 156 688 156 677L156 677C156 666 152 656 144 648C136 639 126 635 114 635L114 635ZM-7-244C-26-244-45-241-62-234C-79-227-93-218-104-205L-104-205L-70-164C-53-182-33-191-8-191L-8-191C55-191 86-144 86-51L86-51L86 520L143 520L143-54C143-119 129-166 101-197C72-228 36-244-7-244L-7-244Z"/>
    <glyph glyph-name="k" unicode="&#107;"
      horiz-adv-x="501" vert-adv-y="1172"
      d="M476 520L275 301L498 0L426 0L235 258L142 156L142 0L86 0L86 761L142 761L142 230L406 520L476 520Z"/>
    <glyph glyph-name="l" unicode="&#108;"
      horiz-adv-x="228" vert-adv-y="1172"
      d="M142 761L142 0L86 0L86 761L142 761Z"/>
    <glyph glyph-name="m" unicode="&#109;"
      horiz-adv-x="842" vert-adv-y="1172"
      d="M605 531C652 531 691 514 721 479C750 444 765 394 765 329L765 329L765 0L710 0L710 311C710 365 700 406 679 435C658 463 629 477 592 477L592 477C567 477 545 471 524 458C503 445 486 425 473 399C460 373 454 342 454 305L454 305L454 0L398 0L398 311C398 365 388 406 367 435C346 463 317 477 281 477L281 477C256 477 233 471 212 458C191 445 174 425 161 399C148 373 142 342 142 305L142 305L142 0L86 0L86 520L135 520C137 467 138 435 139 424L139 424C154 458 175 484 202 503C229 522 260 531 294 531L294 531C330 531 361 521 388 500C415 479 433 449 443 409L443 409C457 448 479 479 508 500C537 521 569 531 605 531L605 531Z"/>
    <glyph glyph-name="n" unicode="&#110;"
      horiz-adv-x="569" vert-adv-y="1172"
      d="M314 531C367 531 410 513 444 478C477 443 493 392 493 326L493 326L493 0L436 0L436 311C436 364 424 405 401 434C377 463 344 477 302 477L302 477C274 477 248 471 224 458C199 445 180 425 165 399C150 373 142 342 142 305L142 305L142 0L86 0L86 520L135 520C137 465 138 432 139 420L139 420C154 455 178 483 209 502C240 521 275 531 314 531L314 531Z"/>
    <glyph glyph-name="o" unicode="&#111;"
      horiz-adv-x="588" vert-adv-y="1172"
      d="M55 260C55 312 66 359 88 400C109 441 138 474 175 497C212 520 251 531 294 531L294 531C337 531 376 520 413 497C449 474 478 442 500 401C522 360 533 313 533 260L533 260C533 208 522 162 500 121C478 80 449 47 413 25C376 2 337-10 294-10L294-10C251-10 212 1 175 24C138 47 109 79 88 120C66 161 55 208 55 260L55 260ZM114 260C114 217 122 179 138 146C154 113 176 88 204 71C231 53 261 44 294 44L294 44C327 44 358 53 385 71C412 88 433 113 449 146C465 179 473 217 473 260L473 260C473 303 465 342 449 375C433 408 412 433 385 451C358 468 327 477 294 477L294 477C261 477 231 468 204 451C176 433 154 407 138 375C122 342 114 303 114 260L114 260Z"/>
    <glyph glyph-name="p" unicode="&#112;"
      horiz-adv-x="601" vert-adv-y="1172"
      d="M323 531C363 531 400 520 434 499C468 478 495 447 516 406C536 365 546 316 546 260L546 260C546 205 536 157 516 116C495 75 468 43 434 22C400 1 363-10 323-10L323-10C284-10 249 0 216 21C183 42 159 71 142 110L142 110L142-232L86-232L86 520L135 520C136 460 138 422 139 405L139 405C155 446 180 478 213 499C246 520 283 531 323 531L323 531ZM316 44C349 44 378 52 404 69C430 86 450 110 465 143C480 176 487 215 487 260L487 260C487 306 480 345 465 378C450 411 430 435 404 452C378 469 349 477 316 477L316 477C287 477 259 470 233 456C206 441 185 418 168 385C151 352 142 311 142 260L142 260C142 209 151 168 168 136C185 103 206 80 233 66C259 51 287 44 316 44L316 44Z"/>
    <glyph glyph-name="q" unicode="&#113;"
      horiz-adv-x="601" vert-adv-y="1172"
      d="M466 520L516 520L516-232L459-232L459 110C442 71 418 41 386 21C353 0 318-10 279-10L279-10C239-10 202 1 168 22C133 43 106 75 86 116C65 157 55 205 55 260L55 260C55 315 65 364 86 405C106 446 133 477 168 499C202 520 239 531 279 531L279 531C318 531 355 520 388 499C421 478 445 447 462 406L462 406C463 425 465 463 466 520L466 520ZM285 44C314 44 342 51 369 66C395 80 417 103 434 136C451 168 459 209 459 260L459 260C459 311 451 352 434 385C417 418 395 441 369 456C342 470 314 477 285 477L285 477C252 477 223 469 197 452C171 435 151 411 136 378C121 345 114 306 114 260L114 260C114 215 122 176 137 143C152 110 172 86 198 69C223 52 252 44 285 44L285 44Z"/>
    <glyph glyph-name="r" unicode="&#114;"
      horiz-adv-x="354" vert-adv-y="1172"
      d="M281 531C310 531 332 525 348 512L348 512L326 466C315 473 299 477 280 477L280 477C241 477 208 461 182 428C155 395 142 348 142 287L142 287L142 0L86 0L86 520L135 520C137 467 138 435 139 423L139 423C152 458 171 484 196 503C221 522 249 531 281 531L281 531Z"/>
    <glyph glyph-name="s" unicode="&#115;"
      horiz-adv-x="447" vert-adv-y="1172"
      d="M410 141C410 96 393 59 360 32C327 4 284-10 231-10L231-10C184-10 143 1 108 23C73 44 49 75 38 114L38 114L82 139C93 107 112 83 139 67C165 50 196 42 231 42L231 42C267 42 296 51 318 68C340 85 351 107 351 136L351 136C351 158 345 176 333 190C320 204 305 215 287 223C268 230 244 239 213 248L213 248C178 259 151 269 130 279C109 288 92 302 78 320C63 337 56 360 56 388L56 388C56 431 73 466 106 492C139 518 181 531 230 531L230 531C272 531 308 522 339 503C370 484 391 458 402 425L402 425L358 399C349 424 332 443 309 458C286 472 259 479 228 479L228 479C195 479 169 471 148 456C127 441 116 420 116 393L116 393C116 374 122 359 133 347C144 334 159 325 176 318C193 311 215 303 244 294L244 294C279 283 308 273 330 263C352 252 371 237 387 218C402 198 410 172 410 141L410 141Z"/>
    <glyph glyph-name="t" unicode="&#116;"
      horiz-adv-x="346" vert-adv-y="1172"
      d="M313 62L332 16C307-1 276-10 240-10L240-10C199-10 166 2 141 26C116 49 104 90 104 149L104 149L104 472L18 472L18 521L104 521L104 665L161 665L161 521L308 521L308 472L161 472L161 156C161 115 168 87 183 70C198 53 218 44 245 44L245 44C268 44 291 50 313 62L313 62Z"/>
    <glyph glyph-name="u" unicode="&#117;"
      horiz-adv-x="570" vert-adv-y="1172"
      d="M428 217L428 521L484 521L484 0L435 0C435 9 435 15 434 20L434 20C434 53 433 79 431 100L431 100C416 65 392 38 361 19C330 0 295-10 256-10L256-10C203-10 161 8 128 43C95 78 78 129 78 194L78 194L78 521L134 521L134 209C134 156 146 115 170 87C194 58 227 44 268 44L268 44C296 44 322 51 347 64C371 77 391 96 406 123C421 149 428 180 428 217L428 217Z"/>
    <glyph glyph-name="v" unicode="&#118;"
      horiz-adv-x="494" vert-adv-y="1172"
      d="M11 520L76 520L256 77L424 520L483 520L275 0L229 0L11 520Z"/>
    <glyph glyph-name="w" unicode="&#119;"
      horiz-adv-x="760" vert-adv-y="1172"
      d="M360 520L405 520L555 89L695 520L749 520L571 0L533 0L381 425L238 0L199 0L11 520L71 520L221 89L360 520Z"/>
    <glyph glyph-name="x" unicode="&#120;"
      horiz-adv-x="476" vert-adv-y="1172"
      d="M87 520L241 306L395 520L461 520L272 262L461 0L391 0L237 215L82 0L15 0L206 259L15 520L87 520Z"/>
    <glyph glyph-name="y" unicode="&#121;"
      horiz-adv-x="495" vert-adv-y="1172"
      d="M251 66L425 520L485 520L234-108C215-156 195-191 174-212C153-233 123-244 85-244L85-244C50-244 23-236 3-219L3-219L26-172C33-177 42-182 53-185C64-189 74-191 85-191L85-191C108-191 127-183 142-168C157-153 173-126 188-87L188-87L221-7L8 520L74 520L251 66Z"/>
    <glyph glyph-name="z" unicode="&#122;"
      horiz-adv-x="464" vert-adv-y="1172"
      d="M57 520L416 520L416 490L116 49L427 49L427 0L37 0L37 32L338 472L57 472L57 520Z"/>
    <glyph glyph-name="{" unicode="&#123;"
      horiz-adv-x="338" vert-adv-y="1172"
      d="M205 648L205 503C205 455 198 419 183 396C168 373 146 358 117 352L117 352C146 346 168 331 183 308C198 285 205 249 205 201L205 201L205 56C205 14 212-16 225-33C238-50 260-59 290-59L290-59L317-59L317-111L294-111C244-111 207-99 183-74C158-50 146-9 146 49L146 49L146 196C146 229 143 255 136 273C129 291 117 304 102 311C87 318 65 321 38 321L38 321L38 383C66 383 88 387 103 394C118 401 129 414 136 432C143 449 146 475 146 508L146 508L146 655C146 713 158 754 183 779C207 803 244 815 294 815L294 815L317 815L317 763L290 763C260 763 238 754 225 737C212 720 205 690 205 648L205 648Z"/>
    <glyph glyph-name="|" unicode="&#124;"
      horiz-adv-x="156" vert-adv-y="1172"
      d="M105-111L51-111L51 815L105 815L105-111Z"/>
    <glyph glyph-name="}" unicode="&#125;"
      horiz-adv-x="338" vert-adv-y="1172"
      d="M134 503L134 648C134 690 127 720 114 737C101 754 79 763 49 763L49 763L21 763L21 815L45 815C95 815 132 803 156 779C180 755 192 714 192 655L192 655L192 508C192 475 195 449 202 432C209 414 220 401 236 394C251 387 273 383 301 383L301 383L301 321C273 321 251 318 236 311C221 304 210 291 203 273C196 255 192 229 192 196L192 196L192 49C192-10 180-51 156-75C132-99 95-111 45-111L45-111L21-111L21-59L49-59C79-59 101-50 114-33C127-16 134 14 134 56L134 56L134 201C134 249 142 285 157 308C172 331 193 346 221 352L221 352C193 358 172 373 157 396C142 419 134 455 134 503L134 503Z"/>
    <glyph glyph-name="~" unicode="&#126;"
      horiz-adv-x="553" vert-adv-y="1172"
      d="M119 296L69 296C71 337 83 372 104 399C125 426 154 440 189 440L189 440C210 440 228 435 243 426C257 417 272 403 289 385L289 385C302 370 315 359 326 352C337 344 349 340 363 340L363 340C401 340 425 371 434 433L434 433L484 433C481 391 470 356 449 329C428 302 400 288 364 288L364 288C343 288 325 293 311 302C296 311 280 325 263 343L263 343C250 358 238 369 228 377C217 384 205 388 190 388L190 388C151 388 128 357 119 296L119 296Z"/>
    <glyph glyph-name=" " unicode="&#160;"
      horiz-adv-x="270" vert-adv-y="1172"
      d=""/>
    <glyph glyph-name="¡" unicode="&#161;"
      horiz-adv-x="227" vert-adv-y="1172"
      d="M113 537C124 537 134 533 143 525C151 516 155 506 155 495L155 495C155 483 151 473 143 465C135 456 125 452 114 452L114 452C102 452 92 456 84 465C76 473 72 483 72 495L72 495C72 506 76 516 84 525C92 533 102 537 113 537L113 537ZM92 332L135 332L143-232L84-232L92 332Z"/>
    <glyph glyph-name="¢" unicode="&#162;"
      horiz-adv-x="553" vert-adv-y="1172"
      d="M337 573L337 159C367 160 394 168 417 181C440 194 457 212 468 236L468 236L513 210C499 177 476 151 445 134C413 116 377 106 337 105L337 105L337 0L283 0L283 108C243 114 207 128 174 151C141 173 114 203 96 240C77 277 67 319 67 366L67 366C67 413 77 456 96 493C115 530 141 559 174 582C207 604 243 618 283 624L283 624L283 733L337 733L337 626C376 625 412 615 444 598C475 580 498 554 513 521L513 521L468 495C457 520 440 539 417 552C393 565 366 572 337 573L337 573ZM127 366C127 310 142 264 171 229C200 193 238 171 283 163L283 163L283 569C238 561 200 539 171 504C142 468 127 422 127 366L127 366Z"/>
    <glyph glyph-name="£" unicode="&#163;"
      horiz-adv-x="553" vert-adv-y="1172"
      d="M157 52L538 52L538 0L58 0L58 43C105 70 139 98 160 125C181 152 191 184 191 223L191 223C191 252 183 288 168 330L168 330L58 330L58 379L147 379C136 404 127 428 121 451C115 473 112 497 112 522L112 522C112 564 121 602 140 636C159 669 185 696 218 715C251 734 289 743 332 743L332 743C385 743 429 729 464 700C499 671 521 636 531 594L531 594L483 567C472 605 453 635 429 656C404 677 371 688 330 688L330 688C282 688 244 673 216 644C188 614 174 574 174 525L174 525C174 501 177 478 184 457C190 436 199 410 211 379L211 379L415 379L415 330L231 330C246 291 254 256 254 224L254 224C254 187 245 155 228 126C211 97 187 73 157 52L157 52Z"/>
    <glyph glyph-name="¤" unicode="&#164;"
      horiz-adv-x="561" vert-adv-y="1172"
      d="M486 366C486 319 472 277 443 241L443 241L524 160L486 124L405 204C370 176 328 162 281 162L281 162C236 162 194 176 156 204L156 204L75 123L38 160L119 241C90 277 76 319 76 366L76 366C76 414 90 456 119 492L119 492L39 571L75 609L156 528C194 556 236 570 281 570L281 570C327 570 369 556 407 528L407 528L487 609L524 571L443 491C472 455 486 413 486 366L486 366ZM281 214C309 214 334 221 357 234C380 247 398 266 411 289C424 312 431 338 431 366L431 366C431 393 424 419 411 442C398 465 380 484 357 498C334 511 309 518 281 518L281 518C254 518 228 511 205 498C182 484 163 465 150 442C137 419 130 393 130 366L130 366C130 338 137 312 150 289C163 266 182 247 205 234C228 221 254 214 281 214L281 214Z"/>
    <glyph glyph-name="¥" unicode="&#165;"
      horiz-adv-x="553" vert-adv-y="1172"
      d="M74 732L287 405L486 732L552 732L330 374L495 374L495 325L313 325L313 237L495 237L495 188L313 188L313 0L254 0L254 188L79 188L79 237L254 237L254 325L79 325L79 374L237 374L2 732L74 732Z"/>
    <glyph glyph-name="¦" unicode="&#166;"
      horiz-adv-x="156" vert-adv-y="1172"
      d="M105 448L51 448L51 815L105 815L105 448ZM105-111L51-111L51 256L105 256L105-111Z"/>
    <glyph glyph-name="§" unicode="&#167;"
      horiz-adv-x="567" vert-adv-y="1172"
      d="M532 235C532 194 520 159 495 130C470 101 436 82 393 71L393 71C420 55 440 36 455 13C470-10 477-38 477-71L477-71C477-128 456-171 415-200C373-229 322-244 261-244L261-244C223-244 189-237 159-224C128-211 104-194 85-172C66-150 55-126 50-99L50-99L97-69C105-105 123-134 152-156C181-178 217-189 262-189L262-189C307-189 343-179 372-160C401-141 415-113 415-75L415-75C415-47 407-24 392-5C376 13 356 28 333 39C310 50 278 62 239 75L239 75C194 90 159 105 132 118C105 131 82 149 63 173C44 197 35 227 35 264L35 264C35 305 47 340 72 369C97 398 131 417 174 428L174 428C147 444 127 463 112 486C97 508 90 536 90 569L90 569C90 626 111 669 153 699C194 728 245 743 306 743L306 743C344 743 378 736 409 723C439 710 463 692 482 670C501 648 512 624 517 597L517 597L470 568C462 604 444 633 415 655C386 677 350 688 305 688L305 688C261 688 225 679 196 660C167 641 153 612 153 574L153 574C153 546 161 523 177 505C192 486 212 472 235 461C258 450 290 437 329 424L329 424C374 408 409 393 436 381C463 368 485 349 504 326C523 302 532 272 532 235L532 235ZM318 106C363 106 400 117 427 139C454 161 468 191 468 229L468 229C468 256 460 279 445 297C430 315 411 330 388 341C365 352 333 364 294 377L294 377L253 392L249 392C204 392 167 381 140 360C113 338 99 308 99 270L99 270C99 242 107 219 123 201C138 183 157 169 180 158C203 147 234 135 274 121L274 121L316 106L318 106Z"/>
    <glyph glyph-name="¨" unicode="&#168;"
      horiz-adv-x="141" vert-adv-y="1172"
      d="M-28 631C-39 631-49 635-57 643C-65 651-69 661-69 673L-69 673C-69 685-65 695-57 704C-49 712-39 716-28 716L-28 716C-17 716-7 712 2 704C10 695 14 685 14 673L14 673C14 661 10 651 2 643C-6 635-16 631-28 631L-28 631ZM169 631C158 631 148 635 140 643C131 651 127 661 127 673L127 673C127 685 131 695 139 704C147 712 157 716 168 716L168 716C180 716 190 712 198 704C206 695 210 685 210 673L210 673C210 661 206 651 198 643C190 635 180 631 169 631L169 631Z"/>
    <glyph glyph-name="©" unicode="&#169;"
      horiz-adv-x="865" vert-adv-y="1172"
      d="M431 743C502 743 566 727 623 694C680 661 726 615 759 558C792 501 808 437 808 366L808 366C808 295 792 231 759 175C726 118 680 73 623 40C566 7 502-10 431-10L431-10C361-10 297 7 240 40C183 73 138 118 105 175C72 232 56 296 56 366L56 366C56 437 72 501 105 558C138 615 183 661 240 694C297 727 361 743 431 743L431 743ZM431 38C492 38 548 52 599 81C649 110 688 149 717 199C746 249 760 305 760 366L760 366C760 427 746 483 717 534C688 584 649 623 599 652C548 681 492 695 431 695L431 695C370 695 314 681 264 652C214 623 175 584 146 534C117 483 103 427 103 366L103 366C103 305 117 249 146 199C175 149 214 110 264 81C314 52 370 38 431 38L431 38ZM442 531C401 531 368 516 341 487C314 457 300 417 300 366L300 366C300 316 314 276 341 247C368 217 401 202 442 202L442 202C463 202 483 207 501 217C519 226 533 241 543 261L543 261L584 236C571 208 552 187 527 173C502 159 473 152 442 152L442 152C407 152 374 161 344 179C314 197 290 222 273 255C255 287 246 324 246 366L246 366C246 408 255 445 273 478C290 511 314 536 344 554C374 572 407 581 442 581L442 581C473 581 502 574 527 560C552 546 571 525 584 497L584 497L543 472C533 492 519 507 501 517C483 526 463 531 442 531L442 531Z"/>
    <glyph glyph-name="ª" unicode="&#170;"
      horiz-adv-x="383" vert-adv-y="1172"
      d="M191 739C230 739 263 726 288 701C313 676 326 640 326 594L326 594L326 364L284 364C284 388 284 405 283 416L283 416C273 398 258 384 239 374C219 363 196 358 171 358L171 358C135 358 104 368 79 388C54 407 41 434 41 469L41 469C41 505 56 533 85 554C114 574 151 584 196 584L196 584C221 584 248 580 279 573L279 573L279 587C279 661 249 698 189 698L189 698C147 698 116 678 95 639L95 639L60 659C71 684 88 703 112 718C135 732 162 739 191 739L191 739ZM174 397C203 397 228 405 249 423C269 440 279 464 279 495L279 495L279 536C246 543 219 547 197 547L197 547C164 547 138 540 120 527C101 514 92 494 92 469L92 469C92 445 100 427 115 415C130 403 150 397 174 397L174 397Z"/>
    <glyph glyph-name="«" unicode="&#171;"
      horiz-adv-x="513" vert-adv-y="1172"
      d="M288 46L221 46L33 262L221 477L288 477L100 262L288 46ZM481 46L413 46L225 262L413 477L481 477L293 262L481 46Z"/>
    <glyph glyph-name="¬" unicode="&#172;"
      horiz-adv-x="553" vert-adv-y="1172"
      d="M497 174L447 174L447 370L56 370L56 420L497 420L497 174Z"/>
    <glyph glyph-name="­" unicode="&#173;"
      horiz-adv-x="494" vert-adv-y="1172"
      d="M426 338L68 338L68 387L426 387L426 338Z"/>
    <glyph glyph-name="®" unicode="&#174;"
      horiz-adv-x="460" vert-adv-y="1172"
      d="M39 550C39 585 48 617 65 647C82 676 105 700 134 717C163 734 194 743 229 743L229 743C264 743 297 734 326 717C355 700 379 676 396 647C413 617 422 585 422 550L422 550C422 515 414 483 397 454C380 425 356 402 327 385C297 368 264 359 229 359L229 359C194 359 163 368 134 385C105 402 82 425 65 454C48 483 39 515 39 550L39 550ZM73 550C73 521 80 495 94 471C108 446 127 427 151 413C175 399 201 392 229 392L229 392C258 392 285 399 309 413C333 427 352 446 366 471C380 495 387 521 387 550L387 550C387 579 380 606 366 631C352 655 333 674 309 688C285 702 258 709 229 709L229 709C201 709 175 702 151 688C127 674 108 655 94 631C80 606 73 579 73 550L73 550ZM197 444L164 444L164 660L242 660C265 660 282 654 295 643C307 631 313 615 313 596L313 596C313 581 309 568 301 557C293 546 282 538 268 535L268 535L328 444L290 444L233 532L197 532L197 444ZM197 560L236 560C250 560 261 563 269 570C276 577 280 585 280 596L280 596C280 607 276 616 269 623C261 629 250 632 236 632L236 632L197 632L197 560Z"/>
    <glyph glyph-name="¯" unicode="&#175;"
      horiz-adv-x="377" vert-adv-y="1172"
      d="M335 647L42 647L42 698L335 698L335 647Z"/>
    <glyph glyph-name="°" unicode="&#176;"
      horiz-adv-x="276" vert-adv-y="1172"
      d="M10 692C10 730 23 762 48 787C73 812 103 824 138 824L138 824C174 824 204 811 229 787C254 762 266 730 266 692L266 692C266 655 254 624 230 599C205 574 175 562 138 562L138 562C103 562 73 574 48 599C23 624 10 655 10 692L10 692ZM56 692C56 667 64 646 80 630C95 613 115 605 138 605L138 605C162 605 182 613 198 629C213 645 221 666 221 692L221 692C221 719 213 740 198 757C182 773 162 781 138 781L138 781C115 781 95 773 80 757C64 740 56 719 56 692L56 692Z"/>
    <glyph glyph-name="±" unicode="&#177;"
      horiz-adv-x="553" vert-adv-y="1172"
      d="M56 446L251 446L251 609L302 609L302 446L497 446L497 395L302 395L302 230L251 230L251 395L56 395L56 446ZM56 120L56 171L497 171L497 120L56 120Z"/>
    <glyph glyph-name="²" unicode="&#178;"
      horiz-adv-x="297" vert-adv-y="1172"
      d="M199 657L88 534L272 534L272 494L24 494L24 524L161 677C178 696 190 713 197 726C204 739 208 753 208 767L208 767C208 784 203 799 192 810C181 821 166 827 147 827L147 827C128 827 112 822 97 811C82 800 70 784 63 762L63 762L29 783C38 810 53 831 75 847C97 862 122 869 149 869L149 869C182 869 208 859 227 840C246 820 255 797 255 770L255 770C255 751 251 733 242 716C233 698 218 678 199 657L199 657Z"/>
    <glyph glyph-name="³" unicode="&#179;"
      horiz-adv-x="299" vert-adv-y="1172"
      d="M199 687C221 681 239 670 252 655C265 640 271 620 271 597L271 597C271 565 259 539 235 518C211 497 181 486 145 486L145 486C116 486 90 493 68 508C45 522 30 542 21 568L21 568L56 589C63 569 75 554 91 543C106 532 124 526 145 526L145 526C168 526 187 533 202 547C217 560 224 577 224 597L224 597C224 620 215 637 198 650C181 662 159 668 132 668L132 668L106 668L106 703L134 703C156 703 174 710 189 723C204 736 211 751 211 769L211 769C211 786 205 800 193 812C180 823 164 829 143 829L143 829C126 829 109 824 94 814C78 804 66 790 59 771L59 771L26 790C35 815 50 835 72 849C93 863 118 870 146 870L146 870C178 870 205 861 227 842C248 823 259 800 259 771L259 771C259 752 254 735 243 720C232 705 217 694 199 687L199 687Z"/>
    <glyph glyph-name="´" unicode="&#180;"
      horiz-adv-x="262" vert-adv-y="1172"
      d="M110 596L59 596L140 744L203 744L110 596Z"/>
    <glyph glyph-name="µ" unicode="&#181;"
      horiz-adv-x="579" vert-adv-y="1172"
      d="M564 49L573 1C560-6 545-10 526-10L526-10C496-10 474-1 461 16C447 33 440 60 439 96L439 96C423 62 400 36 371 18C342-1 309-10 272-10L272-10C243-10 218-4 196 8C173 19 155 36 142 59L142 59L142-232L86-232L86 521L142 521L142 209C142 156 154 115 178 87C202 58 234 44 275 44L275 44C303 44 329 51 354 64C379 77 398 96 414 123C429 149 436 180 436 217L436 217L436 520L492 520L492 110C492 86 496 69 503 59C510 49 522 44 538 44L538 44C548 44 557 46 564 49L564 49Z"/>
    <glyph glyph-name="¶" unicode="&#182;"
      horiz-adv-x="543" vert-adv-y="1172"
      d="M70 589C70 685 133 733 259 733L259 733L311 733L311 0L259 0L259 447C133 447 70 494 70 589L70 589ZM450 733L450 0L397 0L397 733L450 733Z"/>
    <glyph glyph-name="·" unicode="&#183;"
      horiz-adv-x="500" vert-adv-y="1172"
      d="M255 321C244 321 234 325 226 334C217 343 213 353 213 364L213 364C213 376 217 386 225 394C233 402 243 406 254 406L254 406C266 406 276 402 284 394C292 386 296 376 296 364L296 364C296 353 292 343 284 334C276 325 266 321 255 321L255 321Z"/>
    <glyph glyph-name="¸" unicode="&#184;"
      horiz-adv-x="293" vert-adv-y="1172"
      d="M70-87L109 16L160 16L125-73C159-71 187-77 208-90C229-104 240-125 240-153L240-153C240-182 229-205 206-220C183-236 155-244 120-244L120-244C100-244 78-241 53-234L53-234L53-191C75-198 96-201 116-201L116-201C139-201 157-197 170-190C183-183 190-171 190-155L190-155C190-141 184-130 171-122C158-115 140-111 118-111L118-111C103-111 88-112 75-115L75-115L70-87Z"/>
    <glyph glyph-name="¹" unicode="&#185;"
      horiz-adv-x="223" vert-adv-y="1172"
      d="M114 815L27 767L27 809L124 862L159 862L159 494L114 494L114 815Z"/>
    <glyph glyph-name="º" unicode="&#186;"
      horiz-adv-x="409" vert-adv-y="1172"
      d="M36 548C36 586 44 620 59 649C74 678 95 700 121 716C147 731 175 739 205 739L205 739C235 739 263 731 289 716C314 700 335 678 350 649C365 620 373 586 373 548L373 548C373 510 365 477 350 448C335 419 314 397 289 382C263 366 235 358 205 358L205 358C175 358 147 366 121 382C95 397 74 419 59 448C44 477 36 510 36 548L36 548ZM87 548C87 503 98 467 121 440C144 413 172 399 205 399L205 399C239 399 267 413 290 440C312 467 323 503 323 548L323 548C323 593 312 629 289 657C266 684 238 698 205 698L205 698C172 698 144 684 121 657C98 630 87 593 87 548L87 548Z"/>
    <glyph glyph-name="»" unicode="&#187;"
      horiz-adv-x="513" vert-adv-y="1172"
      d="M33 477L100 477L288 262L100 46L33 46L221 262L33 477ZM225 477L293 477L481 262L293 46L225 46L413 262L225 477Z"/>
    <glyph glyph-name="¼" unicode="&#188;"
      horiz-adv-x="655" vert-adv-y="1172"
      d="M542 733L590 733L98 0L50 0L542 733ZM114 685L27 637L27 679L124 732L159 732L159 364L114 364L114 685ZM539 225L582 225L582 127L639 127L639 87L582 87L582 3L539 3L539 87L365 87L365 117L514 371L561 371L417 127L539 127L539 225Z"/>
    <glyph glyph-name="½" unicode="&#189;"
      horiz-adv-x="688" vert-adv-y="1172"
      d="M542 733L590 733L98 0L50 0L542 733ZM114 685L27 637L27 679L124 732L159 732L159 364L114 364L114 685ZM589 166L478 43L663 43L663 3L414 3L414 33L551 186C568 205 580 222 587 235C594 248 598 262 598 276L598 276C598 293 593 308 582 319C571 330 556 336 537 336L537 336C519 336 503 331 488 320C473 309 461 293 453 271L453 271L419 292C428 319 443 341 466 356C488 371 513 378 540 378L540 378C573 378 599 368 618 349C637 329 646 306 646 279L646 279C646 260 642 242 633 225C624 207 609 187 589 166L589 166Z"/>
    <glyph glyph-name="¾" unicode="&#190;"
      horiz-adv-x="711" vert-adv-y="1172"
      d="M199 557C221 551 239 540 252 525C265 510 271 490 271 467L271 467C271 435 259 409 235 388C211 367 181 356 145 356L145 356C116 356 90 363 68 378C45 392 30 412 21 438L21 438L56 459C63 439 75 424 91 413C106 402 124 396 145 396L145 396C168 396 187 403 202 417C217 430 224 447 224 467L224 467C224 490 215 507 198 520C181 532 159 538 132 538L132 538L106 538L106 573L134 573C156 573 174 580 189 593C204 606 211 621 211 639L211 639C211 656 205 670 193 682C180 693 164 699 143 699L143 699C126 699 109 694 94 684C78 674 66 660 59 641L59 641L26 660C35 685 50 705 72 719C93 733 118 740 146 740L146 740C178 740 205 731 227 712C248 693 259 670 259 641L259 641C259 622 254 605 243 590C232 575 217 564 199 557L199 557ZM598 733L646 733L154 0L106 0L598 733ZM595 225L638 225L638 127L695 127L695 87L638 87L638 3L595 3L595 87L421 87L421 117L570 371L617 371L473 127L595 127L595 225Z"/>
    <glyph glyph-name="¿" unicode="&#191;"
      horiz-adv-x="417" vert-adv-y="1172"
      d="M217 534C228 534 238 530 246 522C254 513 258 503 258 492L258 492C258 481 254 471 246 463C238 454 228 450 217 450L217 450C206 450 196 454 188 463C179 471 175 481 175 492L175 492C175 503 179 513 187 522C195 530 205 534 217 534L217 534ZM366-80L412-107C395-150 369-184 333-208C296-232 254-244 206-244L206-244C169-244 136-237 108-222C80-207 59-187 44-162C29-137 21-108 21-77L21-77C21-43 29-14 45 10C60 34 83 61 114 91L114 91C135 112 152 130 165 145C178 160 188 177 197 198C206 218 210 240 210 265L210 265C210 284 207 306 201 330L201 330L248 330C257 301 261 274 261 249L261 249C261 223 257 200 248 179C239 158 229 141 217 126C204 111 188 93 167 72L167 72C139 45 118 21 105 0C91-21 84-45 84-73L84-73C84-108 95-136 118-157C141-179 172-190 212-190L212-190C283-190 334-153 366-80L366-80Z"/>
    <glyph glyph-name="À" unicode="&#192;"
      horiz-adv-x="649" vert-adv-y="1172"
      d="M294 808L199 928L262 928L345 808L294 808ZM295 732L345 732L636 0L569 0L480 230L160 230L74 0L13 0L295 732ZM180 284L460 284L318 651L180 284Z"/>
    <glyph glyph-name="Á" unicode="&#193;"
      horiz-adv-x="649" vert-adv-y="1172"
      d="M356 808L306 808L389 928L452 928L356 808ZM295 732L345 732L636 0L569 0L480 230L160 230L74 0L13 0L295 732ZM180 284L460 284L318 651L180 284Z"/>
    <glyph glyph-name="Â" unicode="&#194;"
      horiz-adv-x="649" vert-adv-y="1172"
      d="M182 808L298 928L351 928L468 808L407 808L325 896L242 808L182 808ZM295 732L345 732L636 0L569 0L480 230L160 230L74 0L13 0L295 732ZM180 284L460 284L318 651L180 284Z"/>
    <glyph glyph-name="Ã" unicode="&#195;"
      horiz-adv-x="649" vert-adv-y="1172"
      d="M221 825L173 825C174 854 183 877 200 896C216 914 237 923 263 923L263 923C280 923 293 920 304 914C315 907 326 898 339 885L339 885C348 876 356 869 363 865C369 860 376 858 385 858L385 858C410 858 425 877 430 914L430 914L477 914C476 885 467 862 451 844C435 825 414 816 387 816L387 816C370 816 357 819 346 826C335 833 323 842 312 854L312 854C303 863 295 870 288 875C281 879 274 881 265 881L265 881C240 881 226 862 221 825L221 825ZM295 732L345 732L636 0L569 0L480 230L160 230L74 0L13 0L295 732ZM180 284L460 284L318 651L180 284Z"/>
    <glyph glyph-name="Ä" unicode="&#196;"
      horiz-adv-x="649" vert-adv-y="1172"
      d="M227 832C216 832 206 836 198 845C189 853 185 863 185 875L185 875C185 886 189 896 197 905C205 913 215 917 226 917L226 917C238 917 248 913 257 905C265 896 269 886 269 875L269 875C269 863 265 853 257 845C248 836 238 832 227 832L227 832ZM423 832C412 832 402 836 394 845C386 853 382 863 382 875L382 875C382 886 386 896 394 905C402 913 412 917 423 917L423 917C434 917 444 913 453 905C461 896 465 886 465 875L465 875C465 863 461 853 453 845C445 836 435 832 423 832L423 832ZM295 732L345 732L636 0L569 0L480 230L160 230L74 0L13 0L295 732ZM180 284L460 284L318 651L180 284Z"/>
    <glyph glyph-name="Å" unicode="&#197;"
      horiz-adv-x="649" vert-adv-y="1172"
      d="M231 867C231 884 240 899 259 911C277 922 299 928 325 928L325 928C350 928 372 922 390 911C407 899 416 884 416 867L416 867C416 849 407 834 390 823C373 811 351 805 325 805L325 805C299 805 277 811 259 823C240 834 231 849 231 867L231 867ZM271 867C271 856 276 847 286 840C296 833 309 829 325 829L325 829C340 829 353 833 363 840C372 847 377 856 377 867L377 867C377 878 372 887 363 894C353 901 340 904 325 904L325 904C309 904 296 901 286 894C276 887 271 878 271 867L271 867ZM295 732L345 732L636 0L569 0L480 230L160 230L74 0L13 0L295 732ZM180 284L460 284L318 651L180 284Z"/>
    <glyph glyph-name="Æ" unicode="&#198;"
      horiz-adv-x="982" vert-adv-y="1172"
      d="M883 406L883 353L556 353L556 53L930 53L930 0L497 0L497 236L223 236L70 0L5 0L482 733L919 733L919 680L556 680L556 406L883 406ZM257 289L497 289L497 659L257 289Z"/>
    <glyph glyph-name="Ç" unicode="&#199;"
      horiz-adv-x="640" vert-adv-y="1172"
      d="M377 45C422 45 460 56 492 78C523 99 546 128 563 165L563 165L611 137C594 94 566 59 527 33C488 6 443-8 390-9L390-9L365-72C398-71 426-77 448-91C469-105 480-126 480-153L480-153C480-182 468-204 444-220C420-236 391-244 357-244L357-244C338-244 316-241 293-234L293-234L293-192C312-199 333-202 356-202L356-202C378-202 396-198 410-190C423-183 430-171 430-155L430-155C430-140 423-129 409-122C395-115 375-111 350-111L350-111C344-111 332-112 315-113L315-113L310-86L341-7C286-1 238 18 195 52C152 85 118 128 93 183C68 238 56 299 56 367L56 367C56 440 70 506 98 563C126 620 165 664 214 696C263 727 317 743 378 743L378 743C433 743 482 730 523 703C564 676 593 641 611 596L611 596L563 568C546 605 523 634 492 656C461 677 422 688 377 688L377 688C326 688 282 675 243 648C204 621 173 583 152 534C130 485 119 430 119 367L119 367C119 304 130 249 152 200C173 151 204 113 243 86C282 59 326 45 377 45L377 45Z"/>
    <glyph glyph-name="È" unicode="&#200;"
      horiz-adv-x="579" vert-adv-y="1172"
      d="M273 808L177 928L240 928L323 808L273 808ZM479 406L479 353L153 353L153 53L526 53L526 0L93 0L93 733L515 733L515 680L153 680L153 406L479 406Z"/>
    <glyph glyph-name="É" unicode="&#201;"
      horiz-adv-x="579" vert-adv-y="1172"
      d="M334 808L284 808L367 928L430 928L334 808ZM479 406L479 353L153 353L153 53L526 53L526 0L93 0L93 733L515 733L515 680L153 680L153 406L479 406Z"/>
    <glyph glyph-name="Ê" unicode="&#202;"
      horiz-adv-x="579" vert-adv-y="1172"
      d="M160 808L276 928L330 928L446 808L385 808L304 895L221 808L160 808ZM479 406L479 353L153 353L153 53L526 53L526 0L93 0L93 733L515 733L515 680L153 680L153 406L479 406Z"/>
    <glyph glyph-name="Ë" unicode="&#203;"
      horiz-adv-x="579" vert-adv-y="1172"
      d="M205 842C194 842 184 846 176 853C168 860 164 869 164 880L164 880C164 890 168 899 176 906C184 913 194 917 205 917L205 917C216 917 226 913 235 906C243 899 247 890 247 880L247 880C247 869 243 860 235 853C227 846 217 842 205 842L205 842ZM402 842C391 842 381 846 373 853C364 860 360 869 360 880L360 880C360 890 364 899 372 906C380 913 390 917 401 917L401 917C413 917 423 913 431 906C439 899 443 890 443 880L443 880C443 869 439 860 431 853C423 846 413 842 402 842L402 842ZM479 406L479 353L153 353L153 53L526 53L526 0L93 0L93 733L515 733L515 680L153 680L153 406L479 406Z"/>
    <glyph glyph-name="Ì" unicode="&#204;"
      horiz-adv-x="246" vert-adv-y="1172"
      d="M93 808L-3 928L60 928L143 808L93 808ZM153 732L153 0L93 0L93 732L153 732Z"/>
    <glyph glyph-name="Í" unicode="&#205;"
      horiz-adv-x="246" vert-adv-y="1172"
      d="M154 808L104 808L187 928L250 928L154 808ZM153 732L153 0L93 0L93 732L153 732Z"/>
    <glyph glyph-name="Î" unicode="&#206;"
      horiz-adv-x="246" vert-adv-y="1172"
      d="M-20 808L96 928L150 928L266 808L205 808L124 895L41 808L-20 808ZM153 732L153 0L93 0L93 732L153 732Z"/>
    <glyph glyph-name="Ï" unicode="&#207;"
      horiz-adv-x="246" vert-adv-y="1172"
      d="M25 842C14 842 4 846-4 853C-12 860-16 869-16 880L-16 880C-16 890-12 899-4 906C4 913 14 917 25 917L25 917C36 917 46 913 55 906C63 899 67 890 67 880L67 880C67 869 63 860 55 853C47 846 37 842 25 842L25 842ZM222 842C211 842 201 846 193 853C184 860 180 869 180 880L180 880C180 890 184 899 192 906C200 913 210 917 221 917L221 917C233 917 243 913 251 906C259 899 263 890 263 880L263 880C263 869 259 860 251 853C243 846 233 842 222 842L222 842ZM153 732L153 0L93 0L93 732L153 732Z"/>
    <glyph glyph-name="Ð" unicode="&#208;"
      horiz-adv-x="719" vert-adv-y="1172"
      d="M106 732L293 732C364 732 428 718 484 689C539 660 583 619 615 564C646 509 662 443 662 367L662 367C662 290 646 224 615 169C584 114 540 72 485 43C429 14 365 0 293 0L293 0L106 0L106 350L21 350L21 403L106 403L106 732ZM165 53L286 53C349 53 405 65 452 90C499 115 536 151 562 198C587 245 600 301 600 367L600 367C600 432 587 489 561 536C535 583 499 618 452 643C405 668 349 680 286 680L286 680L165 680L165 403L314 403L314 350L165 350L165 53Z"/>
    <glyph glyph-name="Ñ" unicode="&#209;"
      horiz-adv-x="725" vert-adv-y="1172"
      d="M258 825L211 825C212 854 221 877 237 896C253 914 274 923 300 923L300 923C317 923 331 920 342 913C353 906 364 897 376 885L376 885C385 876 393 869 400 865C406 860 413 858 422 858L422 858C447 858 462 877 467 914L467 914L514 914C513 885 504 862 488 844C472 825 451 816 424 816L424 816C407 816 394 819 383 826C372 833 360 842 349 854L349 854C340 863 332 870 325 875C318 879 311 881 302 881L302 881C277 881 263 862 258 825L258 825ZM93 732L144 732L575 107L575 732L631 732L631 0L581 0L149 626L149 0L93 0L93 732Z"/>
    <glyph glyph-name="Ò" unicode="&#210;"
      horiz-adv-x="753" vert-adv-y="1172"
      d="M346 808L250 928L313 928L396 808L346 808ZM56 367C56 442 70 508 98 565C125 622 163 666 212 697C261 728 315 743 376 743L376 743C437 743 492 728 541 697C590 666 628 622 656 565C683 508 697 442 697 367L697 367C697 292 683 225 656 169C628 112 590 68 541 37C492 6 437-10 376-10L376-10C315-10 261 6 212 37C163 68 125 112 98 169C70 226 56 292 56 367L56 367ZM119 367C119 304 130 248 151 199C172 150 202 113 241 86C280 59 325 45 376 45L376 45C427 45 473 59 512 86C551 113 582 150 603 199C624 248 635 304 635 367L635 367C635 430 624 486 603 535C581 584 551 622 512 649C473 676 427 689 376 689L376 689C325 689 281 676 242 649C203 622 172 584 151 535C130 486 119 430 119 367L119 367Z"/>
    <glyph glyph-name="Ó" unicode="&#211;"
      horiz-adv-x="753" vert-adv-y="1172"
      d="M407 808L357 808L440 928L503 928L407 808ZM56 367C56 442 70 508 98 565C125 622 163 666 212 697C261 728 315 743 376 743L376 743C437 743 492 728 541 697C590 666 628 622 656 565C683 508 697 442 697 367L697 367C697 292 683 225 656 169C628 112 590 68 541 37C492 6 437-10 376-10L376-10C315-10 261 6 212 37C163 68 125 112 98 169C70 226 56 292 56 367L56 367ZM119 367C119 304 130 248 151 199C172 150 202 113 241 86C280 59 325 45 376 45L376 45C427 45 473 59 512 86C551 113 582 150 603 199C624 248 635 304 635 367L635 367C635 430 624 486 603 535C581 584 551 622 512 649C473 676 427 689 376 689L376 689C325 689 281 676 242 649C203 622 172 584 151 535C130 486 119 430 119 367L119 367Z"/>
    <glyph glyph-name="Ô" unicode="&#212;"
      horiz-adv-x="753" vert-adv-y="1172"
      d="M233 808L349 926L402 926L519 808L458 808L376 893L294 808L233 808ZM56 367C56 442 70 508 98 565C125 622 163 666 212 697C261 728 315 743 376 743L376 743C437 743 492 728 541 697C590 666 628 622 656 565C683 508 697 442 697 367L697 367C697 292 683 225 656 169C628 112 590 68 541 37C492 6 437-10 376-10L376-10C315-10 261 6 212 37C163 68 125 112 98 169C70 226 56 292 56 367L56 367ZM119 367C119 304 130 248 151 199C172 150 202 113 241 86C280 59 325 45 376 45L376 45C427 45 473 59 512 86C551 113 582 150 603 199C624 248 635 304 635 367L635 367C635 430 624 486 603 535C581 584 551 622 512 649C473 676 427 689 376 689L376 689C325 689 281 676 242 649C203 622 172 584 151 535C130 486 119 430 119 367L119 367Z"/>
    <glyph glyph-name="Õ" unicode="&#213;"
      horiz-adv-x="753" vert-adv-y="1172"
      d="M272 825L225 825C226 854 235 877 251 896C267 914 288 923 314 923L314 923C331 923 345 920 356 913C367 906 378 897 390 884L390 884C399 875 407 868 414 864C420 859 427 857 436 857L436 857C460 857 475 876 481 914L481 914L528 914C527 885 518 862 502 844C486 825 465 816 438 816L438 816C421 816 408 819 397 826C386 833 374 842 363 854L363 854C354 863 346 870 339 875C332 879 325 881 316 881L316 881C291 881 277 862 272 825L272 825ZM56 367C56 442 70 508 98 565C125 622 163 666 212 697C261 728 315 743 376 743L376 743C437 743 492 728 541 697C590 666 628 622 656 565C683 508 697 442 697 367L697 367C697 292 683 225 656 169C628 112 590 68 541 37C492 6 437-10 376-10L376-10C315-10 261 6 212 37C163 68 125 112 98 169C70 226 56 292 56 367L56 367ZM119 367C119 304 130 248 151 199C172 150 202 113 241 86C280 59 325 45 376 45L376 45C427 45 473 59 512 86C551 113 582 150 603 199C624 248 635 304 635 367L635 367C635 430 624 486 603 535C581 584 551 622 512 649C473 676 427 689 376 689L376 689C325 689 281 676 242 649C203 622 172 584 151 535C130 486 119 430 119 367L119 367Z"/>
    <glyph glyph-name="Ö" unicode="&#214;"
      horiz-adv-x="753" vert-adv-y="1172"
      d="M278 842C267 842 257 846 249 853C240 860 236 869 236 880L236 880C236 890 240 899 249 906C257 913 267 917 278 917L278 917C289 917 299 913 308 906C316 899 320 890 320 880L320 880C320 869 316 860 308 853C300 846 290 842 278 842L278 842ZM475 842C464 842 454 846 446 853C437 860 433 869 433 880L433 880C433 890 437 899 445 906C453 913 463 917 474 917L474 917C486 917 496 913 504 906C512 899 516 890 516 880L516 880C516 869 512 860 504 853C496 846 486 842 475 842L475 842ZM56 367C56 442 70 508 98 565C125 622 163 666 212 697C261 728 315 743 376 743L376 743C437 743 492 728 541 697C590 666 628 622 656 565C683 508 697 442 697 367L697 367C697 292 683 225 656 169C628 112 590 68 541 37C492 6 437-10 376-10L376-10C315-10 261 6 212 37C163 68 125 112 98 169C70 226 56 292 56 367L56 367ZM119 367C119 304 130 248 151 199C172 150 202 113 241 86C280 59 325 45 376 45L376 45C427 45 473 59 512 86C551 113 582 150 603 199C624 248 635 304 635 367L635 367C635 430 624 486 603 535C581 584 551 622 512 649C473 676 427 689 376 689L376 689C325 689 281 676 242 649C203 622 172 584 151 535C130 486 119 430 119 367L119 367Z"/>
    <glyph glyph-name="×" unicode="&#215;"
      horiz-adv-x="553" vert-adv-y="1172"
      d="M88 514L124 550L277 398L429 550L465 514L313 362L465 210L429 174L277 326L124 174L88 210L240 362L88 514Z"/>
    <glyph glyph-name="Ø" unicode="&#216;"
      horiz-adv-x="756" vert-adv-y="1172"
      d="M570 674L636 766L700 766L607 639C636 605 659 565 675 519C691 472 699 422 699 367L699 367C699 294 685 228 658 171C630 114 592 69 543 38C494 6 440-10 379-10L379-10C306-10 242 13 187 59L187 59L120-33L57-33L149 95C120 129 97 169 82 215C66 261 58 312 58 367L58 367C58 440 72 506 100 563C127 620 166 664 215 696C264 727 318 743 379 743L379 743C451 743 515 720 570 674L570 674ZM121 367C121 322 126 281 138 244C149 206 164 173 184 144L184 144L537 629C493 669 440 689 379 689L379 689C328 689 283 676 244 649C205 622 174 584 153 535C132 486 121 430 121 367L121 367ZM636 367C636 412 631 453 620 491C609 528 593 561 572 589L572 589L220 105C264 65 317 45 379 45L379 45C430 45 475 59 514 86C553 113 583 151 604 200C625 249 636 304 636 367L636 367Z"/>
    <glyph glyph-name="Ù" unicode="&#217;"
      horiz-adv-x="708" vert-adv-y="1172"
      d="M323 808L228 928L291 928L373 808L323 808ZM565 296L565 732L625 732L625 286C625 226 614 174 593 130C572 85 541 51 500 27C459 2 410-10 354-10L354-10C298-10 250 2 209 27C168 51 136 85 115 130C94 174 83 226 83 286L83 286L83 732L142 732L142 296C142 217 160 155 197 111C234 67 286 45 354 45L354 45C421 45 473 67 510 111C547 155 565 217 565 296L565 296Z"/>
    <glyph glyph-name="Ú" unicode="&#218;"
      horiz-adv-x="708" vert-adv-y="1172"
      d="M385 808L334 808L417 928L480 928L385 808ZM565 296L565 732L625 732L625 286C625 226 614 174 593 130C572 85 541 51 500 27C459 2 410-10 354-10L354-10C298-10 250 2 209 27C168 51 136 85 115 130C94 174 83 226 83 286L83 286L83 732L142 732L142 296C142 217 160 155 197 111C234 67 286 45 354 45L354 45C421 45 473 67 510 111C547 155 565 217 565 296L565 296Z"/>
    <glyph glyph-name="Û" unicode="&#219;"
      horiz-adv-x="708" vert-adv-y="1172"
      d="M210 808L327 928L380 928L497 808L436 808L354 895L271 808L210 808ZM565 296L565 732L625 732L625 286C625 226 614 174 593 130C572 85 541 51 500 27C459 2 410-10 354-10L354-10C298-10 250 2 209 27C168 51 136 85 115 130C94 174 83 226 83 286L83 286L83 732L142 732L142 296C142 217 160 155 197 111C234 67 286 45 354 45L354 45C421 45 473 67 510 111C547 155 565 217 565 296L565 296Z"/>
    <glyph glyph-name="Ü" unicode="&#220;"
      horiz-adv-x="708" vert-adv-y="1172"
      d="M256 842C245 842 235 846 227 853C218 860 214 869 214 880L214 880C214 890 218 899 226 906C234 913 244 917 255 917L255 917C267 917 277 913 285 906C293 899 297 890 297 880L297 880C297 869 293 860 285 853C277 846 267 842 256 842L256 842ZM452 842C441 842 431 846 423 853C415 860 411 869 411 880L411 880C411 890 415 899 423 906C431 913 441 917 452 917L452 917C463 917 473 913 482 906C490 899 494 890 494 880L494 880C494 869 490 860 482 853C474 846 464 842 452 842L452 842ZM565 296L565 732L625 732L625 286C625 226 614 174 593 130C572 85 541 51 500 27C459 2 410-10 354-10L354-10C298-10 250 2 209 27C168 51 136 85 115 130C94 174 83 226 83 286L83 286L83 732L142 732L142 296C142 217 160 155 197 111C234 67 286 45 354 45L354 45C421 45 473 67 510 111C547 155 565 217 565 296L565 296Z"/>
    <glyph glyph-name="Ý" unicode="&#221;"
      horiz-adv-x="596" vert-adv-y="1172"
      d="M333 808L283 808L365 928L428 928L333 808ZM84 733L308 376L518 733L583 733L335 316L335 0L275 0L275 318L13 733L84 733Z"/>
    <glyph glyph-name="Þ" unicode="&#222;"
      horiz-adv-x="573" vert-adv-y="1172"
      d="M153 586L289 586C338 586 381 577 420 559C459 541 489 515 511 482C532 449 543 411 543 368L543 368C543 325 532 287 511 254C490 221 460 195 421 177C382 159 338 150 289 150L289 150L153 150L153 0L93 0L93 732L153 732L153 586ZM153 202L281 202C342 202 391 217 426 247C461 277 479 317 479 368L479 368C479 418 461 458 426 488C391 518 342 533 281 533L281 533L153 533L153 202Z"/>
    <glyph glyph-name="ß" unicode="&#223;"
      horiz-adv-x="577" vert-adv-y="1172"
      d="M380 403C429 392 467 370 494 336C521 301 535 258 535 207L535 207C535 165 526 128 509 95C491 62 466 36 433 18C400-1 362-10 317-10L317-10C288-10 261-6 236 3L236 3L236 59C261 48 286 43 312 43L312 43C362 43 402 58 431 88C460 117 475 157 475 207L475 207C475 258 459 299 428 329C396 359 351 374 292 374L292 374L253 374L253 422L270 422C325 422 366 436 393 464C420 492 434 528 434 573L434 573C434 614 422 649 399 676C376 703 342 716 299 716L299 716C250 716 211 699 184 665C156 630 142 582 142 521L142 521L142 0L86 0L86 522C86 573 95 618 113 655C131 692 156 721 189 741C221 760 258 770 299 770L299 770C338 770 373 761 402 744C431 727 454 703 470 673C486 643 494 610 494 573L494 573C494 532 484 497 465 468C446 439 417 417 380 403L380 403Z"/>
    <glyph glyph-name="à" unicode="&#224;"
      horiz-adv-x="540" vert-adv-y="1172"
      d="M160 743L224 743L304 595L254 595L160 743ZM276 531C331 531 376 514 411 481C446 447 464 397 464 332L464 332L464 0L414 0C414 21 413 48 412 81L412 81C397 52 375 30 346 14C317-2 283-10 245-10L245-10C212-10 181-4 153 9C125 21 103 39 86 63C69 86 60 115 60 148L60 148C60 199 81 238 122 268C163 297 217 311 283 311L283 311C322 311 363 305 407 294L407 294L407 322C407 375 395 415 372 441C348 466 315 479 273 479L273 479C240 479 211 472 187 457C163 442 144 421 130 394L130 394L86 419C101 453 125 480 160 501C194 521 233 531 276 531L276 531ZM407 185L407 246C362 258 320 264 283 264L283 264C233 264 193 254 164 234C134 214 119 186 119 149L119 149C119 114 132 87 157 68C182 49 212 39 249 39L249 39C293 39 330 52 361 78C392 104 407 140 407 185L407 185Z"/>
    <glyph glyph-name="á" unicode="&#225;"
      horiz-adv-x="540" vert-adv-y="1172"
      d="M243 595L324 743L388 743L294 595L243 595ZM276 531C331 531 376 514 411 481C446 447 464 397 464 332L464 332L464 0L414 0C414 21 413 48 412 81L412 81C397 52 375 30 346 14C317-2 283-10 245-10L245-10C212-10 181-4 153 9C125 21 103 39 86 63C69 86 60 115 60 148L60 148C60 199 81 238 122 268C163 297 217 311 283 311L283 311C322 311 363 305 407 294L407 294L407 322C407 375 395 415 372 441C348 466 315 479 273 479L273 479C240 479 211 472 187 457C163 442 144 421 130 394L130 394L86 419C101 453 125 480 160 501C194 521 233 531 276 531L276 531ZM407 185L407 246C362 258 320 264 283 264L283 264C233 264 193 254 164 234C134 214 119 186 119 149L119 149C119 114 132 87 157 68C182 49 212 39 249 39L249 39C293 39 330 52 361 78C392 104 407 140 407 185L407 185Z"/>
    <glyph glyph-name="â" unicode="&#226;"
      horiz-adv-x="540" vert-adv-y="1172"
      d="M409 595L351 595L273 700L195 595L137 595L247 743L299 743L409 595ZM276 531C331 531 376 514 411 481C446 447 464 397 464 332L464 332L464 0L414 0C414 21 413 48 412 81L412 81C397 52 375 30 346 14C317-2 283-10 245-10L245-10C212-10 181-4 153 9C125 21 103 39 86 63C69 86 60 115 60 148L60 148C60 199 81 238 122 268C163 297 217 311 283 311L283 311C322 311 363 305 407 294L407 294L407 322C407 375 395 415 372 441C348 466 315 479 273 479L273 479C240 479 211 472 187 457C163 442 144 421 130 394L130 394L86 419C101 453 125 480 160 501C194 521 233 531 276 531L276 531ZM407 185L407 246C362 258 320 264 283 264L283 264C233 264 193 254 164 234C134 214 119 186 119 149L119 149C119 114 132 87 157 68C182 49 212 39 249 39L249 39C293 39 330 52 361 78C392 104 407 140 407 185L407 185Z"/>
    <glyph glyph-name="ã" unicode="&#227;"
      horiz-adv-x="540" vert-adv-y="1172"
      d="M214 681C189 681 175 660 170 617L170 617L122 617C123 650 132 677 148 698C164 719 185 730 212 730L212 730C229 730 243 726 254 719C265 712 276 701 287 687L287 687C296 676 304 668 311 663C318 658 325 655 334 655L334 655C347 655 357 661 364 672C371 683 376 699 378 718L378 718L426 718C425 685 416 658 400 637C383 616 362 605 336 605L336 605C319 605 306 609 295 617C284 624 272 635 260 649L260 649C251 660 243 669 237 674C230 679 223 681 214 681L214 681ZM276 531C331 531 376 514 411 481C446 447 464 397 464 332L464 332L464 0L414 0C414 21 413 48 412 81L412 81C397 52 375 30 346 14C317-2 283-10 245-10L245-10C212-10 181-4 153 9C125 21 103 39 86 63C69 86 60 115 60 148L60 148C60 199 81 238 122 268C163 297 217 311 283 311L283 311C322 311 363 305 407 294L407 294L407 322C407 375 395 415 372 441C348 466 315 479 273 479L273 479C240 479 211 472 187 457C163 442 144 421 130 394L130 394L86 419C101 453 125 480 160 501C194 521 233 531 276 531L276 531ZM407 185L407 246C362 258 320 264 283 264L283 264C233 264 193 254 164 234C134 214 119 186 119 149L119 149C119 114 132 87 157 68C182 49 212 39 249 39L249 39C293 39 330 52 361 78C392 104 407 140 407 185L407 185Z"/>
    <glyph glyph-name="ä" unicode="&#228;"
      horiz-adv-x="540" vert-adv-y="1172"
      d="M176 630C165 630 155 634 147 643C138 651 134 661 134 673L134 673C134 684 138 694 146 703C154 711 164 715 175 715L175 715C187 715 197 711 205 703C213 694 217 684 217 673L217 673C217 661 213 651 205 643C197 634 187 630 176 630L176 630ZM372 630C361 630 351 634 343 643C335 651 331 661 331 673L331 673C331 684 335 694 343 703C351 711 361 715 372 715L372 715C383 715 393 711 402 703C410 694 414 684 414 673L414 673C414 661 410 651 402 643C394 634 384 630 372 630L372 630ZM276 531C331 531 376 514 411 481C446 447 464 397 464 332L464 332L464 0L414 0C414 21 413 48 412 81L412 81C397 52 375 30 346 14C317-2 283-10 245-10L245-10C212-10 181-4 153 9C125 21 103 39 86 63C69 86 60 115 60 148L60 148C60 199 81 238 122 268C163 297 217 311 283 311L283 311C322 311 363 305 407 294L407 294L407 322C407 375 395 415 372 441C348 466 315 479 273 479L273 479C240 479 211 472 187 457C163 442 144 421 130 394L130 394L86 419C101 453 125 480 160 501C194 521 233 531 276 531L276 531ZM407 185L407 246C362 258 320 264 283 264L283 264C233 264 193 254 164 234C134 214 119 186 119 149L119 149C119 114 132 87 157 68C182 49 212 39 249 39L249 39C293 39 330 52 361 78C392 104 407 140 407 185L407 185Z"/>
    <glyph glyph-name="å" unicode="&#229;"
      horiz-adv-x="540" vert-adv-y="1172"
      d="M274 592C247 592 225 601 207 619C189 636 180 659 180 686L180 686C180 713 189 735 207 753C225 770 247 779 274 779L274 779C300 779 322 770 339 753C356 735 365 713 365 686L365 686C365 659 356 636 339 619C322 601 300 592 274 592L274 592ZM274 742C258 742 245 737 235 727C225 716 220 703 220 686L220 686C220 669 225 656 235 645C245 634 258 629 274 629L274 629C289 629 302 634 312 645C321 656 326 669 326 686L326 686C326 703 321 716 312 727C302 737 289 742 274 742L274 742ZM276 531C331 531 376 514 411 481C446 447 464 397 464 332L464 332L464 0L414 0C414 21 413 48 412 81L412 81C397 52 375 30 346 14C317-2 283-10 245-10L245-10C212-10 181-4 153 9C125 21 103 39 86 63C69 86 60 115 60 148L60 148C60 199 81 238 122 268C163 297 217 311 283 311L283 311C322 311 363 305 407 294L407 294L407 322C407 375 395 415 372 441C348 466 315 479 273 479L273 479C240 479 211 472 187 457C163 442 144 421 130 394L130 394L86 419C101 453 125 480 160 501C194 521 233 531 276 531L276 531ZM407 185L407 246C362 258 320 264 283 264L283 264C233 264 193 254 164 234C134 214 119 186 119 149L119 149C119 114 132 87 157 68C182 49 212 39 249 39L249 39C293 39 330 52 361 78C392 104 407 140 407 185L407 185Z"/>
    <glyph glyph-name="æ" unicode="&#230;"
      horiz-adv-x="892" vert-adv-y="1172"
      d="M644 531C687 531 724 521 756 501C787 480 811 453 829 418C846 383 854 344 854 301L854 301C854 286 853 271 851 256L851 256L470 256C472 187 490 135 524 98C558 61 602 43 655 43L655 43C685 43 712 49 736 62C759 75 778 94 791 119L791 119L835 94C821 61 797 35 764 17C730-1 693-10 652-10L652-10C606-10 565 2 528 26C491 50 464 84 445 127L445 127C435 83 412 49 378 26C343 2 300-10 251-10L251-10C197-10 152 4 115 31C78 58 60 96 60 147L60 147C60 198 80 238 120 267C159 296 213 311 280 311L280 311C323 311 367 305 412 294L412 294L412 316C412 369 400 410 376 438C352 465 317 479 272 479L272 479C239 479 210 472 187 457C163 442 144 421 130 393L130 393L86 418C101 453 125 480 159 501C192 521 231 531 275 531L275 531C318 531 356 520 387 498C418 476 438 444 448 402L448 402C466 443 492 475 527 498C562 520 601 531 644 531L644 531ZM472 303L793 303C794 355 780 397 753 430C726 463 689 479 642 479L642 479C597 479 559 464 528 433C497 402 478 359 472 303L472 303ZM412 193L412 246C363 259 319 265 279 265L279 265C228 265 188 255 161 234C133 213 119 185 119 148L119 148C119 113 132 86 157 67C182 48 214 39 253 39L253 39C298 39 336 52 367 79C397 106 412 144 412 193L412 193Z"/>
    <glyph glyph-name="ç" unicode="&#231;"
      horiz-adv-x="488" vert-adv-y="1172"
      d="M293 44C354 44 398 70 425 122L425 122L470 96C455 63 433 38 405 21C377 3 346-7 311-9L311-9L286-72C319-71 347-77 368-91C389-105 400-126 400-153L400-153C400-182 389-205 366-220C343-236 315-244 280-244L280-244C260-244 238-241 213-234L213-234L213-191C235-198 256-201 276-201L276-201C299-201 317-197 330-190C343-183 350-171 350-155L350-155C350-140 344-129 331-122C318-115 300-111 277-111L277-111C265-111 251-112 236-114L236-114L231-86L261-7C222-2 186 13 155 37C124 60 99 91 82 130C64 169 55 212 55 261L55 261C55 314 66 362 87 403C108 444 136 475 173 498C209 520 249 531 294 531L294 531C333 531 368 522 399 505C430 487 454 460 470 425L470 425L425 399C398 451 354 477 293 477L293 477C258 477 228 468 201 451C174 434 152 409 137 376C122 343 114 305 114 261L114 261C114 217 122 179 137 146C152 113 174 88 201 71C228 53 258 44 293 44L293 44Z"/>
    <glyph glyph-name="è" unicode="&#232;"
      horiz-adv-x="537" vert-adv-y="1172"
      d="M266 595L173 743L236 743L317 595L266 595ZM289 531C332 531 369 521 401 500C432 479 456 451 474 417C491 382 499 343 499 300L499 300C499 286 498 271 496 256L496 256L114 256C117 187 135 135 169 98C202 61 246 43 300 43L300 43C330 43 357 49 381 62C404 75 423 94 436 119L436 119L480 94C466 61 442 35 409 17C375-1 338-10 297-10L297-10C252-10 212 1 175 23C138 44 109 76 88 117C66 158 55 207 55 264L55 264C55 319 66 366 87 407C108 447 136 478 172 499C207 520 246 531 289 531L289 531ZM287 479C242 479 204 464 173 433C142 402 123 359 117 303L117 303L438 303C438 356 425 398 398 431C371 463 334 479 287 479L287 479Z"/>
    <glyph glyph-name="é" unicode="&#233;"
      horiz-adv-x="537" vert-adv-y="1172"
      d="M307 595L256 595L337 743L400 743L307 595ZM289 531C332 531 369 521 401 500C432 479 456 451 474 417C491 382 499 343 499 300L499 300C499 286 498 271 496 256L496 256L114 256C117 187 135 135 169 98C202 61 246 43 300 43L300 43C330 43 357 49 381 62C404 75 423 94 436 119L436 119L480 94C466 61 442 35 409 17C375-1 338-10 297-10L297-10C252-10 212 1 175 23C138 44 109 76 88 117C66 158 55 207 55 264L55 264C55 319 66 366 87 407C108 447 136 478 172 499C207 520 246 531 289 531L289 531ZM287 479C242 479 204 464 173 433C142 402 123 359 117 303L117 303L438 303C438 356 425 398 398 431C371 463 334 479 287 479L287 479Z"/>
    <glyph glyph-name="ê" unicode="&#234;"
      horiz-adv-x="537" vert-adv-y="1172"
      d="M150 595L260 743L312 743L422 595L364 595L286 700L208 595L150 595ZM289 531C332 531 369 521 401 500C432 479 456 451 474 417C491 382 499 343 499 300L499 300C499 286 498 271 496 256L496 256L114 256C117 187 135 135 169 98C202 61 246 43 300 43L300 43C330 43 357 49 381 62C404 75 423 94 436 119L436 119L480 94C466 61 442 35 409 17C375-1 338-10 297-10L297-10C252-10 212 1 175 23C138 44 109 76 88 117C66 158 55 207 55 264L55 264C55 319 66 366 87 407C108 447 136 478 172 499C207 520 246 531 289 531L289 531ZM287 479C242 479 204 464 173 433C142 402 123 359 117 303L117 303L438 303C438 356 425 398 398 431C371 463 334 479 287 479L287 479Z"/>
    <glyph glyph-name="ë" unicode="&#235;"
      horiz-adv-x="537" vert-adv-y="1172"
      d="M188 630C177 630 167 634 159 643C151 651 147 661 147 673L147 673C147 684 151 694 159 703C167 711 177 715 188 715L188 715C199 715 209 711 218 703C226 694 230 684 230 673L230 673C230 661 226 651 218 643C210 634 200 630 188 630L188 630ZM385 630C374 630 364 634 356 643C347 651 343 661 343 673L343 673C343 684 347 694 355 703C363 711 373 715 384 715L384 715C396 715 406 711 415 703C423 694 427 684 427 673L427 673C427 661 423 651 415 643C406 634 396 630 385 630L385 630ZM289 531C332 531 369 521 401 500C432 479 456 451 474 417C491 382 499 343 499 300L499 300C499 286 498 271 496 256L496 256L114 256C117 187 135 135 169 98C202 61 246 43 300 43L300 43C330 43 357 49 381 62C404 75 423 94 436 119L436 119L480 94C466 61 442 35 409 17C375-1 338-10 297-10L297-10C252-10 212 1 175 23C138 44 109 76 88 117C66 158 55 207 55 264L55 264C55 319 66 366 87 407C108 447 136 478 172 499C207 520 246 531 289 531L289 531ZM287 479C242 479 204 464 173 433C142 402 123 359 117 303L117 303L438 303C438 356 425 398 398 431C371 463 334 479 287 479L287 479Z"/>
    <glyph glyph-name="ì" unicode="&#236;"
      horiz-adv-x="227" vert-adv-y="1172"
      d="M94 596L0 744L64 744L144 596L94 596ZM142 0L86 0L86 520L142 520L142 0Z"/>
    <glyph glyph-name="í" unicode="&#237;"
      horiz-adv-x="227" vert-adv-y="1172"
      d="M134 596L84 596L164 744L228 744L134 596ZM142 0L86 0L86 520L142 520L142 0Z"/>
    <glyph glyph-name="î" unicode="&#238;"
      horiz-adv-x="227" vert-adv-y="1172"
      d="M-23 596L88 744L139 744L249 596L191 596L113 701L35 596L-23 596ZM142 0L86 0L86 520L142 520L142 0Z"/>
    <glyph glyph-name="ï" unicode="&#239;"
      horiz-adv-x="227" vert-adv-y="1172"
      d="M16 631C5 631-5 635-13 643C-22 651-26 661-26 673L-26 673C-26 685-22 695-14 704C-6 712 4 716 15 716L15 716C27 716 37 712 45 704C53 695 57 685 57 673L57 673C57 661 53 651 45 643C37 635 27 631 16 631L16 631ZM212 631C201 631 191 635 183 643C175 651 171 661 171 673L171 673C171 685 175 695 183 704C191 712 201 716 212 716L212 716C223 716 233 712 242 704C250 695 254 685 254 673L254 673C254 661 250 651 242 643C234 635 224 631 212 631L212 631ZM142 0L86 0L86 520L142 520L142 0Z"/>
    <glyph glyph-name="ð" unicode="&#240;"
      horiz-adv-x="588" vert-adv-y="1172"
      d="M467 727L359 665C417 612 461 552 490 483C519 414 533 346 533 281L533 281C533 224 523 173 502 129C481 85 452 51 415 27C378 2 338-10 294-10L294-10C249-10 209 2 173 25C136 48 107 80 87 121C66 162 55 209 55 261L55 261C55 313 66 360 88 401C109 442 138 474 175 498C211 521 250 532 292 532L292 532C322 532 350 526 375 513C400 500 421 481 438 456L438 456C411 527 368 587 309 637L309 637L172 558L149 602L264 669C231 692 195 712 156 727L156 727L185 771C230 754 274 730 317 699L317 699L443 771L467 727ZM294 44C328 44 359 53 386 71C413 89 434 114 450 147C465 180 473 218 473 261L473 261C473 304 465 342 450 375C434 408 413 433 386 451C359 469 328 478 294 478L294 478C261 478 230 469 203 451C175 433 153 407 138 375C122 342 114 304 114 261L114 261C114 218 122 180 138 147C153 114 175 89 203 71C230 53 261 44 294 44L294 44Z"/>
    <glyph glyph-name="ñ" unicode="&#241;"
      horiz-adv-x="569" vert-adv-y="1172"
      d="M179 618L131 618C132 651 141 678 158 699C174 720 195 731 221 731L221 731C238 731 252 727 263 720C274 712 285 701 297 687L297 687C306 676 314 668 321 663C327 658 334 655 343 655L343 655C356 655 366 661 373 673C380 684 385 700 387 719L387 719L435 719C434 686 425 659 409 638C393 617 372 606 345 606L345 606C328 606 315 610 304 617C293 624 281 635 270 649L270 649C261 660 253 668 247 673C240 678 232 681 223 681L223 681C198 681 184 660 179 618L179 618ZM314 531C367 531 410 513 444 478C477 443 493 392 493 326L493 326L493 0L436 0L436 311C436 364 424 405 401 434C377 463 344 477 302 477L302 477C274 477 248 471 224 458C199 445 180 425 165 399C150 373 142 342 142 305L142 305L142 0L86 0L86 520L135 520C137 465 138 432 139 420L139 420C154 455 178 483 209 502C240 521 275 531 314 531L314 531Z"/>
    <glyph glyph-name="ò" unicode="&#242;"
      horiz-adv-x="588" vert-adv-y="1172"
      d="M274 595L180 743L244 743L324 595L274 595ZM55 260C55 312 66 359 88 400C109 441 138 474 175 497C212 520 251 531 294 531L294 531C337 531 376 520 413 497C449 474 478 442 500 401C522 360 533 313 533 260L533 260C533 208 522 162 500 121C478 80 449 47 413 25C376 2 337-10 294-10L294-10C251-10 212 1 175 24C138 47 109 79 88 120C66 161 55 208 55 260L55 260ZM114 260C114 217 122 179 138 146C154 113 176 88 204 71C231 53 261 44 294 44L294 44C327 44 358 53 385 71C412 88 433 113 449 146C465 179 473 217 473 260L473 260C473 303 465 342 449 375C433 408 412 433 385 451C358 468 327 477 294 477L294 477C261 477 231 468 204 451C176 433 154 407 138 375C122 342 114 303 114 260L114 260Z"/>
    <glyph glyph-name="ó" unicode="&#243;"
      horiz-adv-x="588" vert-adv-y="1172"
      d="M314 595L263 595L344 743L408 743L314 595ZM55 260C55 312 66 359 88 400C109 441 138 474 175 497C212 520 251 531 294 531L294 531C337 531 376 520 413 497C449 474 478 442 500 401C522 360 533 313 533 260L533 260C533 208 522 162 500 121C478 80 449 47 413 25C376 2 337-10 294-10L294-10C251-10 212 1 175 24C138 47 109 79 88 120C66 161 55 208 55 260L55 260ZM114 260C114 217 122 179 138 146C154 113 176 88 204 71C231 53 261 44 294 44L294 44C327 44 358 53 385 71C412 88 433 113 449 146C465 179 473 217 473 260L473 260C473 303 465 342 449 375C433 408 412 433 385 451C358 468 327 477 294 477L294 477C261 477 231 468 204 451C176 433 154 407 138 375C122 342 114 303 114 260L114 260Z"/>
    <glyph glyph-name="ô" unicode="&#244;"
      horiz-adv-x="588" vert-adv-y="1172"
      d="M157 595L267 743L319 743L429 595L371 595L293 700L215 595L157 595ZM55 260C55 312 66 359 88 400C109 441 138 474 175 497C212 520 251 531 294 531L294 531C337 531 376 520 413 497C449 474 478 442 500 401C522 360 533 313 533 260L533 260C533 208 522 162 500 121C478 80 449 47 413 25C376 2 337-10 294-10L294-10C251-10 212 1 175 24C138 47 109 79 88 120C66 161 55 208 55 260L55 260ZM114 260C114 217 122 179 138 146C154 113 176 88 204 71C231 53 261 44 294 44L294 44C327 44 358 53 385 71C412 88 433 113 449 146C465 179 473 217 473 260L473 260C473 303 465 342 449 375C433 408 412 433 385 451C358 468 327 477 294 477L294 477C261 477 231 468 204 451C176 433 154 407 138 375C122 342 114 303 114 260L114 260Z"/>
    <glyph glyph-name="õ" unicode="&#245;"
      horiz-adv-x="588" vert-adv-y="1172"
      d="M190 617L142 617C143 650 152 677 168 698C184 719 205 730 232 730L232 730C249 730 263 726 274 719C285 712 296 701 307 687L307 687C316 676 324 668 331 663C338 658 345 655 354 655L354 655C367 655 377 661 384 672C391 683 396 699 398 718L398 718L446 718C445 685 436 658 420 637C403 616 382 605 356 605L356 605C339 605 326 609 315 617C304 624 292 635 280 649L280 649C271 660 263 669 257 674C250 679 243 681 234 681L234 681C209 681 195 660 190 617L190 617ZM55 260C55 312 66 359 88 400C109 441 138 474 175 497C212 520 251 531 294 531L294 531C337 531 376 520 413 497C449 474 478 442 500 401C522 360 533 313 533 260L533 260C533 208 522 162 500 121C478 80 449 47 413 25C376 2 337-10 294-10L294-10C251-10 212 1 175 24C138 47 109 79 88 120C66 161 55 208 55 260L55 260ZM114 260C114 217 122 179 138 146C154 113 176 88 204 71C231 53 261 44 294 44L294 44C327 44 358 53 385 71C412 88 433 113 449 146C465 179 473 217 473 260L473 260C473 303 465 342 449 375C433 408 412 433 385 451C358 468 327 477 294 477L294 477C261 477 231 468 204 451C176 433 154 407 138 375C122 342 114 303 114 260L114 260Z"/>
    <glyph glyph-name="ö" unicode="&#246;"
      horiz-adv-x="588" vert-adv-y="1172"
      d="M196 630C185 630 175 634 167 643C158 651 154 661 154 673L154 673C154 684 158 694 166 703C174 711 184 715 195 715L195 715C207 715 217 711 225 703C233 694 237 684 237 673L237 673C237 661 233 651 225 643C217 634 207 630 196 630L196 630ZM392 630C381 630 371 634 363 643C355 651 351 661 351 673L351 673C351 684 355 694 363 703C371 711 381 715 392 715L392 715C403 715 413 711 422 703C430 694 434 684 434 673L434 673C434 661 430 651 422 643C414 634 404 630 392 630L392 630ZM55 260C55 312 66 359 88 400C109 441 138 474 175 497C212 520 251 531 294 531L294 531C337 531 376 520 413 497C449 474 478 442 500 401C522 360 533 313 533 260L533 260C533 208 522 162 500 121C478 80 449 47 413 25C376 2 337-10 294-10L294-10C251-10 212 1 175 24C138 47 109 79 88 120C66 161 55 208 55 260L55 260ZM114 260C114 217 122 179 138 146C154 113 176 88 204 71C231 53 261 44 294 44L294 44C327 44 358 53 385 71C412 88 433 113 449 146C465 179 473 217 473 260L473 260C473 303 465 342 449 375C433 408 412 433 385 451C358 468 327 477 294 477L294 477C261 477 231 468 204 451C176 433 154 407 138 375C122 342 114 303 114 260L114 260Z"/>
    <glyph glyph-name="÷" unicode="&#247;"
      horiz-adv-x="553" vert-adv-y="1172"
      d="M277 502C266 502 256 506 248 515C239 524 235 534 235 545L235 545C235 556 239 566 248 575C256 583 266 587 277 587L277 587C288 587 298 583 307 575C315 566 319 556 319 545L319 545C319 534 315 524 307 515C298 506 288 502 277 502L277 502ZM497 388L497 337L56 337L56 388L497 388ZM277 137C266 137 256 141 248 150C239 159 235 169 235 180L235 180C235 191 239 201 248 210C256 218 266 222 277 222L277 222C288 222 298 218 307 210C315 201 319 191 319 180L319 180C319 169 315 159 307 150C298 141 288 137 277 137L277 137Z"/>
    <glyph glyph-name="ø" unicode="&#248;"
      horiz-adv-x="595" vert-adv-y="1172"
      d="M425 487L473 554L533 554L462 455C484 431 501 402 514 369C527 336 533 299 533 260L533 260C533 208 522 162 500 121C478 80 449 47 413 25C376 2 337-10 294-10L294-10C247-10 203 5 163 34L163 34L115-33L55-33L125 66C103 90 86 119 74 152C61 185 55 221 55 260L55 260C55 312 66 359 88 400C109 441 138 474 175 497C212 520 251 531 294 531L294 531C341 531 385 516 425 487L425 487ZM114 260C114 201 129 153 159 114L159 114L394 443C365 466 332 477 294 477L294 477C261 477 231 468 204 451C176 433 154 407 138 375C122 342 114 303 114 260L114 260ZM473 260C473 320 458 369 429 408L429 408L194 79C223 56 256 44 294 44L294 44C327 44 358 53 385 71C412 88 433 113 449 146C465 179 473 217 473 260L473 260Z"/>
    <glyph glyph-name="ù" unicode="&#249;"
      horiz-adv-x="570" vert-adv-y="1172"
      d="M262 596L169 744L232 744L313 596L262 596ZM428 217L428 521L484 521L484 0L435 0C435 9 435 15 434 20L434 20C434 53 433 79 431 100L431 100C416 65 392 38 361 19C330 0 295-10 256-10L256-10C203-10 161 8 128 43C95 78 78 129 78 194L78 194L78 521L134 521L134 209C134 156 146 115 170 87C194 58 227 44 268 44L268 44C296 44 322 51 347 64C371 77 391 96 406 123C421 149 428 180 428 217L428 217Z"/>
    <glyph glyph-name="ú" unicode="&#250;"
      horiz-adv-x="570" vert-adv-y="1172"
      d="M303 596L252 596L333 744L396 744L303 596ZM428 217L428 521L484 521L484 0L435 0C435 9 435 15 434 20L434 20C434 53 433 79 431 100L431 100C416 65 392 38 361 19C330 0 295-10 256-10L256-10C203-10 161 8 128 43C95 78 78 129 78 194L78 194L78 521L134 521L134 209C134 156 146 115 170 87C194 58 227 44 268 44L268 44C296 44 322 51 347 64C371 77 391 96 406 123C421 149 428 180 428 217L428 217Z"/>
    <glyph glyph-name="û" unicode="&#251;"
      horiz-adv-x="570" vert-adv-y="1172"
      d="M145 596L256 744L307 744L418 596L360 596L282 701L203 596L145 596ZM428 217L428 521L484 521L484 0L435 0C435 9 435 15 434 20L434 20C434 53 433 79 431 100L431 100C416 65 392 38 361 19C330 0 295-10 256-10L256-10C203-10 161 8 128 43C95 78 78 129 78 194L78 194L78 521L134 521L134 209C134 156 146 115 170 87C194 58 227 44 268 44L268 44C296 44 322 51 347 64C371 77 391 96 406 123C421 149 428 180 428 217L428 217Z"/>
    <glyph glyph-name="ü" unicode="&#252;"
      horiz-adv-x="570" vert-adv-y="1172"
      d="M184 631C173 631 163 635 155 643C146 651 142 661 142 673L142 673C142 685 146 695 155 704C163 712 173 716 184 716L184 716C195 716 205 712 214 704C222 695 226 685 226 673L226 673C226 661 222 651 214 643C206 635 196 631 184 631L184 631ZM381 631C370 631 360 635 352 643C343 651 339 661 339 673L339 673C339 685 343 695 351 704C359 712 369 716 380 716L380 716C392 716 402 712 410 704C418 695 422 685 422 673L422 673C422 661 418 651 410 643C402 635 392 631 381 631L381 631ZM428 217L428 521L484 521L484 0L435 0C435 9 435 15 434 20L434 20C434 53 433 79 431 100L431 100C416 65 392 38 361 19C330 0 295-10 256-10L256-10C203-10 161 8 128 43C95 78 78 129 78 194L78 194L78 521L134 521L134 209C134 156 146 115 170 87C194 58 227 44 268 44L268 44C296 44 322 51 347 64C371 77 391 96 406 123C421 149 428 180 428 217L428 217Z"/>
    <glyph glyph-name="ý" unicode="&#253;"
      horiz-adv-x="495" vert-adv-y="1172"
      d="M220 595L301 743L364 743L271 595L220 595ZM251 66L425 520L485 520L234-108C215-156 195-191 174-212C153-233 123-244 85-244L85-244C50-244 23-236 3-219L3-219L26-172C33-177 42-182 53-185C64-189 74-191 85-191L85-191C108-191 127-183 142-168C157-153 173-126 188-87L188-87L221-7L8 520L74 520L251 66Z"/>
    <glyph glyph-name="þ" unicode="&#254;"
      horiz-adv-x="601" vert-adv-y="1172"
      d="M322 531C362 531 399 520 433 499C467 478 494 447 515 406C536 365 546 316 546 260L546 260C546 204 536 156 515 115C494 74 467 43 433 22C399 1 362-10 322-10L322-10C283-10 248 0 216 21C183 42 159 71 142 110L142 110L142-232L86-232L86 761L142 761L142 411C159 450 183 480 215 501C247 521 283 531 322 531L322 531ZM315 44C348 44 377 52 403 69C429 86 449 110 465 143C480 176 487 215 487 260L487 260C487 305 479 344 465 377C450 410 429 435 403 452C377 469 348 477 315 477L315 477C286 477 258 470 232 456C205 441 184 418 167 385C150 352 142 311 142 260L142 260C142 209 150 168 167 136C184 103 205 80 231 66C257 51 285 44 315 44L315 44Z"/>
    <glyph glyph-name="ÿ" unicode="&#255;"
      horiz-adv-x="495" vert-adv-y="1172"
      d="M152 630C141 630 131 634 123 643C115 651 111 661 111 673L111 673C111 684 115 694 123 703C131 711 141 715 152 715L152 715C163 715 173 711 182 703C190 694 194 684 194 673L194 673C194 661 190 651 182 643C174 634 164 630 152 630L152 630ZM349 630C338 630 328 634 320 643C311 651 307 661 307 673L307 673C307 684 311 694 319 703C327 711 337 715 348 715L348 715C360 715 370 711 379 703C387 694 391 684 391 673L391 673C391 661 387 651 379 643C370 634 360 630 349 630L349 630ZM251 66L425 520L485 520L234-108C215-156 195-191 174-212C153-233 123-244 85-244L85-244C50-244 23-236 3-219L3-219L26-172C33-177 42-182 53-185C64-189 74-191 85-191L85-191C108-191 127-183 142-168C157-153 173-126 188-87L188-87L221-7L8 520L74 520L251 66Z"/>
    <glyph glyph-name="1" unicode="&#305;"
      horiz-adv-x="227" vert-adv-y="1172"
      d="M142 0L86 0L86 520L142 520L142 0Z"/>
    <glyph glyph-name="R" unicode="&#338;"
      horiz-adv-x="1119" vert-adv-y="1172"
      d="M1020 353L693 353L693 53L1067 53L1067 0L634 0L634 166C611 111 577 68 532 37C487 6 435-10 376-10L376-10C315-10 261 6 212 38C163 69 125 114 98 171C70 228 56 293 56 367L56 367C56 440 70 506 98 563C125 620 163 664 212 696C261 727 315 743 376 743L376 743C435 743 487 728 532 697C577 666 611 622 634 567L634 567L634 733L1056 733L1056 680L693 680L693 406L1020 406L1020 353ZM376 45C427 45 473 59 512 86C551 113 581 151 602 200C623 249 634 304 634 367L634 367C634 430 623 486 602 535C581 584 550 622 511 649C472 676 427 689 376 689L376 689C325 689 281 675 242 648C203 621 172 583 151 534C130 485 119 430 119 367L119 367C119 304 130 249 151 200C172 151 202 113 241 86C280 59 325 45 376 45L376 45Z"/>
    </font>
</defs>
</svg>
