<svg xmlns="http://www.w3.org/2000/svg">
<!--
Copyright 2021 Huawei Device Co., Ltd. All Rights Reserved.
  -->

  <defs>
    <font name="HarmonyOS Sans SC Light"
      horiz-adv-x="1000" vert-adv-y="1000" >
    <font-face font-family="HarmonyOS Sans SC Light" font-weight="400"
      font-stretch="normal"
      units-per-em="1000"
      ascent="928"
      descent="-244"/>
    <glyph glyph-name="0" unicode="&#24368;"
      horiz-adv-x="1000" vert-adv-y="1172"
      d="M640 825L689 825L689 530L899 530L899 37C899-3 891-31 876-47C861-63 833-71 793-71L793-71C762-71 727-68 688-63L688-63L679-14C716-21 749-25 779-25L779-25C805-25 823-19 834-6C845 7 850 27 850 54L850 54L850 125L481 125L481-80L432-80L432 530L640 530L640 825ZM574 615L536 581C495 636 449 692 398 749L398 749L433 782C465 746 512 690 574 615L574 615ZM897 779L935 749C878 675 831 618 795 578L795 578L759 611C782 636 806 664 832 695C857 726 879 754 897 779L897 779ZM301 716L74 716L74 765L352 765L352 497L170 497L156 329L345 329C344 298 342 254 340 195C337 136 335 97 333 78L333 78C328 36 315 5 294-15C273-36 240-46 196-46L196-46C177-46 160-45 145-43C129-42 112-40 94-37L94-37L84 14C101 10 117 7 132 6C147 4 163 3 180 2L180 2C214 1 238 7 253 21C267 35 277 61 282 98L282 98C284 111 286 139 289 180C291 221 292 254 293 280L293 280L104 280L124 543L301 543L301 716ZM481 482L481 351L850 351L850 482L481 482ZM850 305L481 305L481 171L850 171L850 305Z"/>
    <glyph glyph-name="2" unicode="&#24370;"
      horiz-adv-x="1000" vert-adv-y="1172"
      d="M453 565L453 788L857 788L857 565L453 565ZM298 719L70 719L70 768L348 768L348 500L166 500L153 332L341 332C340 301 339 257 336 199C333 140 331 101 329 82L329 82C325 39 312 8 291-12C269-33 235-43 189-43L189-43C154-42 121-39 90-33L90-33L80 17C101 12 119 9 134 8C149 7 167 6 188 6L188 6C217 6 239 13 252 27C265 41 273 66 278 101L278 101C280 115 282 143 285 184C287 225 288 258 289 283L289 283L100 283L120 546L298 546L298 719ZM500 744L500 609L811 609L811 744L500 744ZM422-58L422 471L889 471L889 49C889 11 881-17 865-34C848-51 819-60 776-60L776-60C740-60 703-57 665-51L665-51L657-7C694-14 731-18 768-18L768-18C796-18 815-12 826 1C837 14 842 33 842 58L842 58L842 121L468 121L468-58L422-58ZM468 314L842 314L842 427L468 427L468 314ZM842 271L468 271L468 163L842 163L842 271Z"/>
    <glyph glyph-name="3" unicode="&#24371;"
      horiz-adv-x="1000" vert-adv-y="1172"
      d="M278 724L68 724L68 775L328 775L328 502L147 502L133 337L318 337C318 308 317 264 315 204C313 144 311 100 308 72L308 72C306 30 297 1 281-16C264-33 237-43 200-44L200-44C165-45 128-43 87-39L87-39L77 11C112 6 149 4 189 4L189 4C213 4 230 10 241 23C252 36 258 57 260 87L260 87C264 144 267 210 268 286L268 286L84 286L102 552L278 552L278 724ZM382 724L382 771L926 771L926 724L382 724ZM534 336L491 312C462 365 424 428 376 501L376 501C393 526 412 557 432 593C452 629 468 661 480 689L480 689L528 672C515 645 499 615 480 581C461 547 444 520 431 501L431 501C457 464 491 409 534 336L534 336ZM668 689L715 672C702 645 686 614 667 580C648 546 632 520 619 502L619 502C632 483 649 457 670 424C690 391 707 361 722 336L722 336L679 313C635 387 596 450 562 501L562 501C580 526 599 557 620 594C641 631 657 662 668 689L668 689ZM856 688L903 671C891 646 876 617 857 583C838 549 821 522 807 501L807 501C824 476 842 448 863 415C884 382 899 356 910 336L910 336L866 313C851 340 833 372 810 409C787 446 766 476 749 501L749 501C766 526 786 556 807 593C828 630 844 661 856 688L856 688ZM907 213L676 213L676 15L951 15L951-34L337-34L337 15L623 15L623 213L394 213L394 261L907 261L907 213Z"/>
    <glyph glyph-name="4" unicode="&#24372;"
      horiz-adv-x="1000" vert-adv-y="1172"
      d="M708 730L942 730L942 685L395 685L395 730L653 730C643 754 627 789 604 834L604 834L651 851C660 835 669 816 680 794C690 771 699 750 708 730L708 730ZM289 715L62 715L62 765L340 765L340 496L158 496L144 328L332 328C331 297 330 253 328 195C325 137 323 98 321 78L321 78C316 36 303 5 282-15C260-36 226-46 180-46L180-46C147-46 115-43 82-37L82-37L72 13C91 8 108 5 123 4C138 3 155 2 176 2L176 2C207 2 230 9 243 23C256 36 265 61 270 97L270 97C272 110 274 138 276 179C278 220 279 254 280 279L280 279L91 279L112 543L289 543L289 715ZM447 605L867 605L867 427L447 427L447 605ZM820 468L820 562L494 562L494 468L820 468ZM681 178L954 178L954 134L681 134L681 40C681 4 673-22 656-37C639-53 611-61 571-61L571-61C538-61 505-58 474-52L474-52L464-4C491-11 524-15 563-15L563-15C590-15 609-9 620 2C630 13 635 31 635 54L635 54L635 134L370 134L370 178L635 178L635 217L800 306L408 306L408 347L890 347L890 308L681 195L681 178Z"/>
    <glyph glyph-name="5" unicode="&#24373;"
      horiz-adv-x="1000" vert-adv-y="1172"
      d="M963 349L963 303L654 303C675 247 697 201 720 166L720 166C778 199 829 233 874 267L874 267L901 230C856 198 804 165 745 130L745 130C770 99 800 74 835 53C870 32 912 15 963 1L963 1L944-43C880-23 828 1 787 30C746 59 712 94 685 137C658 180 631 235 605 303L605 303L506 303L506 3C537 16 571 30 606 46L606 46L682 78L688 28C669 21 637 9 593-10C548-29 512-44 484-57L484-57C469-66 459-72 454-75L454-75L433-30C443-23 450-17 453-12C456-8 458-2 458 5L458 5L458 303L364 303L364 349L461 349L461 784L906 784L906 736L511 736L511 638L878 638L878 593L511 593L511 493L878 493L878 447L511 447L511 349L963 349ZM289 727L69 727L69 778L339 778L339 511L156 511L142 343L333 343C331 230 324 134 313 55L313 55C308 18 297-9 280-26C263-43 235-51 198-51L198-51C158-51 125-49 98-45L98-45L88 5C115 1 147-1 186-1L186-1C211-1 230 5 241 17C252 28 260 48 264 75L264 75C275 146 280 219 280 294L280 294L90 294L110 559L289 559L289 727Z"/>
    <glyph glyph-name="6" unicode="&#24374;"
      horiz-adv-x="1000" vert-adv-y="1172"
      d="M710 719L936 719L936 673L393 673L393 719L656 719C646 751 632 789 614 832L614 832L664 847C670 831 685 788 710 719L710 719ZM343 500L166 500L153 333L335 333C334 302 333 258 331 200C328 142 326 103 324 82L324 82C319 40 306 9 285-11C264-31 230-41 184-42L184-42C167-42 151-41 136-40C121-39 106-36 90-33L90-33L80 18C97 13 113 10 128 9C142 8 159 7 180 7L180 7C211 7 233 14 246 28C259 41 268 66 273 102L273 102C275 126 277 156 279 192C281 227 282 258 283 283L283 283L100 283L120 547L292 547L292 719L76 719L76 769L343 769L343 500ZM868 555L868 290L686 290L686 36C686 1 679-24 666-39C652-54 627-62 592-62L592-62C564-62 538-59 514-52L514-52L506-5C527-12 551-15 579-15L579-15C602-15 617-10 626 1C634 11 638 27 638 50L638 50L638 290L450 290L450 555L868 555ZM820 337L820 507L498 507L498 337L820 337ZM501 224L544 202C522 161 496 121 468 81C439 40 409 4 379-28L379-28L341 3C370 33 398 68 427 107C455 146 480 185 501 224L501 224ZM762 196L803 220C826 188 864 132 915 51L915 51L947 1L904-24C850 63 803 136 762 196L762 196Z"/>
    <glyph glyph-name="7" unicode="&#24375;"
      horiz-adv-x="1000" vert-adv-y="1172"
      d="M936-56L894-75L861 5L840 4C758-1 660-7 545-14C430-21 362-24 341-25L341-25L337 25C393 27 486 32 616 39L616 39L616 196L400 196L400 443L616 443L616 576C537 573 485 570 461 568L461 568C428 566 405 563 391 560L391 560L381 611C389 614 396 617 403 620C409 623 414 626 418 630L418 630C446 662 476 699 509 741C541 783 568 821 589 856L589 856L633 830C592 761 537 690 470 617L470 617L805 631L712 744L749 775C824 688 883 616 926 560L926 560L889 526L865 556L842 585L663 578L663 443L877 443L877 196L663 196L663 41L842 51L828 83C811 122 800 145 796 154L796 154L838 172C879 79 912 3 936-56L936-56ZM274 729L67 729L67 776L321 776L321 497L149 497L137 327L314 327C309 192 305 110 302 79L302 79C298 48 291 24 281 6C271-13 256-26 236-35C216-44 189-48 154-48L154-48C131-48 105-44 76-37L76-37L67 12C94 5 128 2 167 2L167 2C196 2 217 9 229 24C241 39 250 62 255 95L255 95C257 109 259 136 262 177C264 218 265 252 266 279L266 279L84 279L105 544L274 544L274 729ZM616 395L448 395L448 244L616 244L616 395ZM663 244L829 244L829 395L663 395L663 244Z"/>
    <glyph glyph-name="8" unicode="&#24376;"
      horiz-adv-x="1000" vert-adv-y="1172"
      d="M375 781L590 781L590 42C590 10 584-13 573-27C562-41 541-48 510-48L510-48C485-48 462-45 440-39L440-39L432 6C453-1 474-4 497-4L497-4C516-4 530 1 537 11C544 20 547 35 547 55L547 55L547 245L414 245C409 181 399 126 384 80C368 33 342-16 305-69L305-69L266-47C298-2 322 38 337 75C352 111 362 152 367 197C372 242 375 303 375 380L375 380L375 431L375 781ZM667 428L667 781L896 781L896 39C896 4 890-22 879-37C867-52 845-60 812-60L812-60C789-60 764-57 737-50L737-50L729-4C756-11 778-15 795-15L795-15C817-15 832-10 841 1C849 12 853 29 853 53L853 53L853 245L708 245C705 170 698 111 686 69C673 26 651-20 620-70L620-70L579-50C606-7 626 31 638 65C650 98 658 141 662 192C665 243 667 321 667 428L667 428ZM125 333L281 333L279 292C274 167 270 91 267 64L267 64C262 20 251-10 234-27C217-44 188-52 148-53L148-53C114-52 84-48 59-43L59-43L50 6C76-2 109-6 148-6L148-6C171-6 188 1 199 14C209 27 217 49 222 80L222 80C224 95 226 126 229 172C232 217 233 255 234 286L234 286L78 286L94 548L244 548L244 724L52 724L52 771L288 771L288 503L138 503L125 333ZM417 533L547 533L547 736L417 736L417 533ZM710 530L853 530L853 736L710 736L710 530ZM416 290L547 290L547 488L417 488L417 374C417 335 417 307 416 290L416 290ZM709 290L853 290L853 485L710 485L710 371C710 334 710 307 709 290L709 290Z"/>
    <glyph glyph-name=";" unicode="&#24379;"
      horiz-adv-x="1000" vert-adv-y="1172"
      d="M476 608L476 735L332 735L332 780L661 780L661 735L516 735L516 608L646 608L646-52L604-52L604 24L387 24L387-52L345-52L345 608L476 608ZM230 723L53 723L53 770L274 770L274 502L145 502L132 332L270 332C269 297 267 250 264 192C261 134 259 95 257 74L257 74C253 31 242 0 226-17C209-35 180-44 141-44L141-44C114-44 88-41 64-35L64-35L56 13C81 6 108 3 136 3L136 3C161 3 179 10 191 24C202 37 210 60 213 91L213 91C216 120 218 154 221 195C223 235 224 265 223 285L223 285L85 285L102 548L230 548L230 723ZM920 769L920 500L786 500L772 331L912 331C908 186 904 99 901 72L901 72C898 42 893 19 886 3C879-13 868-25 853-33C838-42 815-46 786-46L786-46C758-46 732-42 708-35L708-35L699 13C728 6 755 2 780 2L780 2C808 2 827 9 837 22C847 35 853 57 856 88L856 88C858 113 860 147 863 191C865 235 866 266 866 284L866 284L725 284L742 546L877 546L877 722L702 722L702 769L920 769ZM476 478L476 563L387 563L387 219C412 246 431 274 444 301C457 328 465 354 469 381C473 407 475 439 476 478L476 478ZM604 228L604 563L516 563L516 478C516 447 515 419 512 395L512 395C561 307 592 251 604 228L604 228ZM387 217L387 67L604 67L604 218L574 200C562 224 538 269 501 336L501 336C486 279 456 229 412 185L412 185L387 217Z"/>
    <glyph glyph-name="=" unicode="&#24381;"
      horiz-adv-x="1000" vert-adv-y="1172"
      d="M931 213L683 213C718 175 759 139 808 105C857 70 907 42 958 21L958 21L935-21C880 5 828 35 781 70C734 104 693 141 660 181L660 181L660-70L616-70L616 180C581 139 542 101 499 67C456 32 404 0 345-29L345-29L320 15C425 62 515 128 590 213L590 213L355 213L355 257L616 257L616 365L427 365L427 657L350 657L350 702L427 702L427 819L471 819L471 702L593 702L593 838L637 838L637 702L782 702L782 837L825 837L825 702L939 702L939 657L825 657L825 505L593 505L593 657L471 657L471 408L915 408L915 365L660 365L660 257L931 257L931 213ZM269 732L67 732L67 780L316 780L316 500L145 500L133 330L308 330C308 299 306 253 303 192C299 131 296 90 293 69L293 69C287 25 275-7 258-26C240-45 212-55 174-55L174-55C135-55 101-51 71-43L71-43L62 6C89-2 122-6 162-6L162-6C182-6 198-3 209 4C220 11 228 20 233 32C238 44 243 61 247 83L247 83C250 109 252 143 256 185C259 227 260 260 261 283L261 283L80 283L100 547L269 547L269 732ZM637 548L782 548L782 657L637 657L637 548Z"/>
    <glyph glyph-name=">" unicode="&#24382;"
      horiz-adv-x="1000" vert-adv-y="1172"
      d="M701 710L658 693C651 710 641 734 627 764C612 794 601 816 593 831L593 831L635 849C645 830 656 807 669 781C681 755 692 731 701 710L701 710ZM673 149L951 149L951 104L673 104L673-77L626-77L626 104L358 104L358 149L626 149L626 270L414 270L414 647L732 647C779 718 816 782 842 837L842 837L887 819C866 778 832 720 784 647L784 647L885 647L885 270L673 270L673 149ZM531 693L490 671C482 686 469 707 452 736C435 765 420 789 407 808L407 808L448 830C457 818 470 797 488 768C506 738 520 713 531 693L531 693ZM272 733L70 733L70 781L319 781L319 501L148 501L136 331L311 331C310 298 307 251 304 189C301 126 298 87 295 70L295 70C290 25 277-7 257-25C236-43 202-52 155-52L155-52C128-52 101-49 73-43L73-43L64 6C93-1 124-4 157-3L157-3C190-3 212 3 225 16C238 29 246 51 249 83L249 83C252 109 255 141 258 179C261 217 263 252 264 284L264 284L83 284L103 548L272 548L272 733ZM458 478L626 478L626 605L458 605L458 478ZM673 605L673 478L839 478L839 605L673 605ZM626 438L458 438L458 311L626 311L626 438ZM839 438L673 438L673 311L839 311L839 438Z"/>
    <glyph glyph-name="?" unicode="&#24383;"
      horiz-adv-x="1000" vert-adv-y="1172"
      d="M743 307L743 195L253 195L240 129L811 129C810 114 807 94 804 69C800 44 796 27 793 18L793 18C783-13 766-34 742-46C718-59 682-65 633-66L633-66C612-66 581-65 540-62C499-59 469-57 450-54L450-54L442-13C461-16 490-19 530-21C569-24 601-25 624-25L624-25C661-25 687-20 703-11C719-2 730 12 737 31L737 31C740 39 744 49 747 61C750 72 751 82 752 91L752 91L183 91L207 231L696 231L696 298L273 298L273 317C208 272 135 237 55 210L55 210L38 253C96 272 150 295 199 323C248 351 288 380 318 410L318 410L58 410L58 444L337 444L337 506L151 506L151 541L337 541L337 602L142 602L142 622L100 622L100 757L493 757C474 795 461 820 453 832L453 832L500 849C514 826 531 795 550 757L550 757L897 757L897 627L858 627L858 602L661 602L661 541L849 541L849 506L661 506L661 444L941 444L941 410L676 410C707 380 748 352 797 327C846 301 901 279 962 261L962 261L947 219C874 240 806 270 743 307L743 307ZM850 720L147 720L147 637L337 637L337 686L384 686L384 637L615 637L615 686L661 686L661 637L850 637L850 720ZM615 541L615 602L384 602L384 541L615 541ZM615 444L615 506L384 506L384 444L615 444ZM300 336L699 336C666 360 639 385 617 410L617 410L379 410C358 385 332 361 300 336L300 336Z"/>
    <glyph glyph-name="A" unicode="&#24385;"
      horiz-adv-x="1000" vert-adv-y="1172"
      d="M850 738L850 434L803 434L803 738L369 738L369 783L933 783L933 738L850 738ZM273 732L72 732L72 780L321 780L321 500L149 500L137 330L312 330C312 292 311 247 308 194C305 141 301 99 297 69L297 69C291 24 279-7 260-26C241-45 211-55 169-55L169-55C135-55 104-51 75-43L75-43L66 6C90-2 123-6 166-6L166-6C195-6 216 1 227 15C238 29 246 52 251 83L251 83C254 110 257 144 260 185C263 225 264 258 265 283L265 283L84 283L104 547L273 547L273 732ZM428 651L686 651L686 485L428 485L428 651ZM643 524L643 612L472 612L472 524L643 524ZM357 397L949 397L949 352L851 352L851 57C851 29 848 7 841-8C834-23 823-35 807-42C790-50 767-55 736-56L736-56C703-56 670-53 639-47L639-47L631-1C657-8 689-11 726-11L726-11C757-10 778-4 789 8C799 19 804 40 804 70L804 70L804 352L357 352L357 397ZM424 65L424 260L685 260L685 65L424 65ZM468 221L468 104L641 104L641 221L468 221Z"/>
    <glyph glyph-name="B" unicode="&#24386;"
      horiz-adv-x="1000" vert-adv-y="1172"
      d="M623 846L623 634L943 634L943 590L56 590L56 634L376 634L376 846L424 846L424 634L574 634L574 846L623 846ZM304 680L268 650C240 685 205 726 164 773L164 773L150 790L184 817C239 755 279 709 304 680L304 680ZM812 816L849 790C836 773 818 751 795 724C771 696 749 671 730 650L730 650L695 679C751 742 790 787 812 816L812 816ZM930 207L708 207C746 103 829 28 958-18L958-18L932-63C870-38 818-7 777 30C735 67 703 110 680 160L680 160C663 111 632 68 588 31C544-6 483-40 404-72L404-72L380-29C461 2 523 36 565 74C607 111 634 156 645 207L645 207L409 207L409 250L651 250C652 253 652 258 652 265L652 265C653 292 654 341 654 412L654 412L521 412C504 377 482 340 456 301L456 301L417 327C442 362 464 399 483 437C501 475 518 517 533 564L533 564L577 551C566 518 554 486 541 454L541 454L899 454L899 412L702 412L701 351C700 337 700 323 700 309C700 294 700 282 699 271L699 271L698 250L930 250L930 207ZM313 464L83 464L83 506L361 506L361 315L160 315L148 206L361 206C360 183 359 156 357 124C355 91 353 64 351 41L351 41C347 6 336-20 318-36C299-53 269-62 228-63L228-63C185-63 146-60 113-54L113-54L105-10C121-13 139-16 160-17C180-19 198-20 214-19L214-19C244-19 265-13 278-2C290 9 298 28 302 54L302 54C304 68 306 85 308 106C310 126 311 145 312 162L312 162L98 162L117 357L313 357L313 464Z"/>
    <glyph glyph-name="C" unicode="&#24387;"
      horiz-adv-x="1000" vert-adv-y="1172"
      d="M661 194L661 92L960 92L960 51L661 51L661-77L617-77L617 51L342 51L342 92L617 92L617 194L357 194L357 234L447 234L447 344L338 344L338 384L447 384L447 493L398 493L398 782L882 782L882 493L832 493L832 384L952 384L952 344L832 344L832 234L922 234L922 194L661 194ZM266 732L65 732L65 780L314 780L314 500L142 500L130 330L305 330C304 297 301 250 298 188C295 126 292 86 290 69L290 69C284 25 272-7 254-26C236-46 206-56 165-56L165-56C135-56 103-52 68-43L68-43L59 6C74 2 91-1 111-3C130-6 148-7 163-7L163-7C190-7 209 0 220 15C231 29 239 52 244 83L244 83C250 125 255 192 258 283L258 283L77 283L97 547L266 547L266 732ZM443 657L617 657L617 742L443 742L443 657ZM661 742L661 657L837 657L837 742L661 742ZM617 534L617 619L443 619L443 534L617 534ZM837 619L661 619L661 534L837 534L837 619ZM617 384L617 493L492 493L492 384L617 384ZM661 493L661 384L788 384L788 493L661 493ZM617 344L492 344L492 234L617 234L617 344ZM661 344L661 234L788 234L788 344L661 344Z"/>
    <glyph glyph-name="D" unicode="&#24388;"
      horiz-adv-x="1000" vert-adv-y="1172"
      d="M60 724L60 771L296 771L296 503L146 503L133 333L284 333C283 297 281 247 278 184C275 121 272 81 270 64L270 64C265 20 254-10 238-26C221-43 192-51 151-51L151-51C122-51 93-48 63-43L63-43L54 6C68 3 85 1 104-1C123-3 139-4 153-4L153-4C176-4 193 2 203 15C213 28 221 49 226 80L226 80C228 95 230 126 233 172C236 217 237 255 238 286L238 286L86 286L103 548L252 548L252 724L60 724ZM957-23L381-23L381 770L938 770L938 724L426 724L426 21L957 21L957-23ZM854 443L545 443L545 636L854 636L854 443ZM812 482L812 597L587 597L587 482L812 482ZM673 116L498 116L498 354L673 354L673 116ZM906 116L731 116L731 354L906 354L906 116ZM635 156L635 315L536 315L536 156L635 156ZM869 156L869 315L769 315L769 156L869 156Z"/>
    <glyph glyph-name="E" unicode="&#24389;"
      horiz-adv-x="1000" vert-adv-y="1172"
      d="M745 721L947 721L947 678L340 678L340 721L532 721C522 735 509 752 495 773C480 793 467 810 456 823L456 823L495 846C542 785 568 751 573 742L573 742L535 721L692 721C726 766 755 807 778 844L778 844L819 826C800 796 776 761 745 721L745 721ZM254 724L66 724L66 771L298 771L298 503L152 503L139 333L290 333C289 297 287 247 284 184C281 121 278 81 276 64L276 64C271 21 261-9 244-26C227-43 201-51 166-51L166-51C137-51 106-48 73-43L73-43L64 6C95-1 126-4 156-4L156-4C178-4 195 2 207 16C219 29 227 50 232 80L232 80C234 96 236 127 239 172C242 217 243 255 244 286L244 286L92 286L108 548L254 548L254 724ZM844 361L844 625L885 625L885 355C885 318 879 292 866 277C853 262 828 254 792 253L792 253C767 253 743 256 721 261L721 261L714 302C737 296 761 293 785 293L785 293C810 293 826 298 833 308C840 318 844 336 844 361L844 361ZM540 289C558 289 570 293 577 301C583 308 586 321 586 338L586 338L586 370L426 370L426 252L386 252L386 606L626 606L626 339C626 308 620 285 609 272C597 259 576 252 545 252L545 252C523 252 503 254 486 257L486 257L479 295C492 291 513 289 540 289L540 289ZM710 356L710 605L749 605L749 356L710 356ZM426 504L586 504L586 570L426 570L426 504ZM586 469L426 469L426 404L586 404L586 469ZM533 157L359 157L359 200L881 200C880 183 877 159 874 130C870 101 866 75 863 54L863 54C858 27 851 5 843-10C834-26 821-38 805-45C788-53 764-57 734-57L734-57C699-57 666-54 637-47L637-47L629-3C660-10 694-14 730-14L730-14C758-14 778-8 790 4C802 15 812 35 819 62L819 62C822 73 827 105 832 157L832 157L579 157C572 114 561 80 546 53C531 26 507 3 475-17C442-37 396-57 335-77L335-77L316-35C371-18 413-2 442 15C471 31 492 50 505 72C518 94 528 122 533 157L533 157Z"/>
    <glyph glyph-name="F" unicode="&#24390;"
      horiz-adv-x="1000" vert-adv-y="1172"
      d="M772 512C819 478 878 448 951 423L951 423L929 381C848 412 784 446 739 484L739 484C698 453 640 421 567 390L567 390L548 430C618 459 671 486 708 511L708 511C669 548 639 593 616 647L616 647C601 626 585 606 566 587L566 587L539 620C565 648 592 683 620 726C647 768 668 809 683 848L683 848L723 839C710 804 694 769 674 734L674 734L948 734L948 694L876 694C864 654 850 620 834 591C817 562 797 535 772 512L772 512ZM339 638L339 408L299 408L299 638L151 638L151 388L108 388L108 677L299 677L299 845L339 845L339 677L528 677L528 395L485 395L485 638L339 638ZM502 832L534 808C499 765 464 724 429 685L429 685L400 712C433 747 467 787 502 832L502 832ZM133 829L233 714L203 686L103 804L133 829ZM642 684C665 626 698 577 741 538L741 538C762 558 780 580 795 605C809 630 821 659 832 694L832 694L649 694C647 690 645 687 642 684L642 684ZM465 451L432 436C428 447 417 472 400 509C383 546 371 571 365 582L365 582L398 598C408 578 420 554 433 526C446 497 456 472 465 451L465 451ZM206 432L173 449C183 467 194 490 206 519C217 547 227 573 234 596L234 596L268 584C261 563 252 537 239 507C226 476 215 451 206 432L206 432ZM811 202L229 202L217 129L842 129C839 90 835 59 830 37L830 37C824 3 810-22 788-38C765-55 731-63 686-63L686-63C655-63 619-62 580-60C541-58 509-55 484-52L484-52L477-11C502-15 534-18 575-20C616-22 652-23 685-23L685-23C716-23 739-18 754-9C768 0 777 14 782 34L782 34C784 41 786 50 787 61C788 71 789 81 790 90L790 90L165 90L188 240L765 240L765 309L160 309L160 348L811 348L811 202Z"/>
    <glyph glyph-name="G" unicode="&#24391;"
      horiz-adv-x="1000" vert-adv-y="1172"
      d="M650 492L650 258L847 258L847 332L720 332L720 464L756 464L756 368L847 368L847 454L890 454L890-66L847-66L847 106L757 106L757-34L721-34L721 144L847 144L847 220L650 220L650-57L607-57L607 220L415 220C414 193 412 167 409 144L409 144L537 144L537-34L501-34L501 106L402 106C394 73 382 43 367 15C351-13 329-44 301-77L301-77L264-53C297-15 321 19 336 50C351 80 361 113 366 149C371 184 373 233 373 295L373 295L373 457L416 457L416 368L503 368L503 464L539 464L539 332L416 332L416 285L416 258L607 258L607 492L355 492L355 528L607 528L607 600L330 600L330 635L607 635L607 708L367 708L367 744L607 744L607 842L650 842L650 744L882 744L882 635L957 635L957 600L882 600L882 492L650 492ZM135 333L289 333C288 300 286 254 283 195C280 136 276 93 273 64L273 64C268 20 257-10 240-26C223-42 195-50 156-51L156-51C128-51 99-48 69-43L69-43L60 6C91-1 123-4 155-4L155-4C177-4 194 2 206 15C217 28 225 49 228 79L228 79C232 108 235 143 238 185C241 227 242 261 243 286L243 286L88 286L105 548L242 548L242 724L62 724L62 771L286 771L286 503L148 503L135 333ZM839 635L839 708L650 708L650 635L839 635ZM839 528L839 600L650 600L650 528L839 528Z"/>
    <glyph glyph-name="H" unicode="&#24392;"
      horiz-adv-x="1000" vert-adv-y="1172"
      d="M380 590L380 792L617 792L617 590L380 590ZM682 590L682 792L921 792L921 590L682 590ZM247 731L67 731L67 781L296 781L296 509L143 509L132 342L291 342C291 255 287 162 279 65L279 65C277 36 273 15 266 0C259-15 249-26 234-32C219-39 198-42 170-42L170-42C152-42 126-41 91-38L91-38L82 13C111 10 138 8 163 8L163 8C181 8 195 10 204 15C213 19 219 26 223 36C226 45 229 60 231 79L231 79C238 142 241 213 241 292L241 292L81 292L98 559L247 559L247 731ZM426 750L426 632L570 632L570 750L426 750ZM728 750L728 632L875 632L875 750L728 750ZM675 199L675 109L961 109L961 65L675 65L675-76L625-76L625 65L337 65L337 109L625 109L625 199L410 199L410 516L891 516L891 199L675 199ZM458 373L625 373L625 474L458 474L458 373ZM675 474L675 373L842 373L842 474L675 474ZM625 334L458 334L458 240L625 240L625 334ZM842 334L675 334L675 240L842 240L842 334Z"/>
    <glyph glyph-name="I" unicode="&#24393;"
      horiz-adv-x="1000" vert-adv-y="1172"
      d="M931 692L782 692L782 580L958 580L958 537L668 537L668 439L879 439L879 119L410 119L410 439L622 439L622 537L352 537L352 580L508 580L508 692L376 692L376 735L508 735L508 838L554 838L554 735L737 735L737 838L782 838L782 735L931 735L931 692ZM254 724L57 724L57 771L299 771L299 503L148 503L135 333L291 333C290 297 288 247 285 184C282 121 279 81 277 64L277 64C274 34 268 11 260-5C251-22 239-33 223-40C207-47 185-50 157-51L157-51C124-51 93-48 64-43L64-43L55 6C68 3 85 1 105-1C124-3 141-4 155-4L155-4C181-4 199 2 211 15C222 27 229 49 233 80L233 80C235 96 237 127 240 172C243 217 244 255 245 286L245 286L83 286L99 548L254 548L254 724ZM737 580L737 692L554 692L554 580L737 580ZM457 299L622 299L622 397L457 397L457 299ZM668 299L833 299L833 397L668 397L668 299ZM622 161L622 259L457 259L457 161L622 161ZM833 259L668 259L668 161L833 161L833 259ZM340-77L319-33C358-18 402 2 452 26C502 50 542 71 573 90L573 90L595 51C557 29 514 6 465-19C416-44 375-63 340-77L340-77ZM698 50L720 90C813 45 891 5 956-30L956-30L934-71C825-13 747 27 698 50L698 50Z"/>
    <glyph glyph-name="J" unicode="&#24394;"
      horiz-adv-x="1000" vert-adv-y="1172"
      d="M337 755L337 794L929 794L929 755L337 755ZM286 503L148 503L135 333L287 333L285 292C280 167 276 91 273 64L273 64C268 21 258-9 242-26C225-43 197-51 158-51L158-51C129-51 99-48 69-43L69-43L60 6C91-1 122-4 151-4L151-4C176-4 195 3 207 17C218 31 225 52 228 80L228 80C230 96 232 127 235 172C238 217 239 255 240 286L240 286L88 286L105 548L242 548L242 724L62 724L62 771L286 771L286 503ZM381 694L884 694L884 460L381 460L381 694ZM426 596L612 596L612 658L426 658L426 596ZM656 658L656 596L839 596L839 658L656 658ZM612 498L612 560L426 560L426 498L612 498ZM839 560L656 560L656 498L839 498L839 560ZM324 366L324 403L953 403L953 366L324 366ZM380 307L887 307L887 68L380 68L380 307ZM425 206L614 206L614 271L425 271L425 206ZM657 271L657 206L841 206L841 271L657 271ZM614 105L614 169L425 169L425 105L614 105ZM841 169L657 169L657 105L841 105L841 169ZM958-30L313-30L313 10L958 10L958-30Z"/>
    <glyph glyph-name="K" unicode="&#24395;"
      horiz-adv-x="1000" vert-adv-y="1172"
      d="M369 592L369 790L895 790L895 592L369 592ZM282 503L145 503L132 333L283 333C282 297 280 247 277 184C274 121 271 81 269 64L269 64C266 34 260 11 253-5C245-21 234-32 219-39C204-46 183-49 157-50L157-50C122-50 92-48 66-43L66-43L57 6C85 0 118-3 155-3L155-3C176-3 192 3 202 16C212 28 220 49 225 80L225 80C227 96 229 127 232 172C235 217 236 255 237 286L237 286L85 286L101 548L238 548L238 724L59 724L59 771L282 771L282 503ZM536 630L536 753L411 753L411 630L536 630ZM575 630L695 630L695 753L575 753L575 630ZM734 753L734 630L852 630L852 753L734 753ZM325 482L325 520L943 520L943 482L325 482ZM760 91C807 53 870 22 951-1L951-1L931-47C848-17 783 18 734 59C685 100 643 153 607 220L607 220C575 187 543 159 511 137L511 137L511-18L662 46L668 4C605-20 557-39 524-53L524-53C503-61 485-70 470-80L470-80L451-48C458-41 462-36 465-31C468-27 469-23 469-18L469-18L469 108C421 77 365 49 302 23L302 23L284 66C407 113 502 171 571 242L571 242L386 242L386 411L870 411L870 242L641 242C671 189 700 148 729 119L729 119C791 154 843 188 886 219L886 219L910 182C859 148 809 118 760 91L760 91ZM827 280L827 373L429 373L429 280L827 280Z"/>
    <glyph glyph-name="L" unicode="&#24396;"
      horiz-adv-x="1000" vert-adv-y="1172"
      d="M225 726L63 726L63 776L273 776L273 506L135 506L123 335L270 335C270 305 269 263 267 208C265 153 263 108 260 71L260 71C257 37 253 12 248-3C242-19 232-30 220-36C207-42 186-45 159-45L159-45C127-45 100-43 79-40L79-40L69 10C94 5 121 3 149 3L149 3C166 3 178 5 187 10C195 14 201 22 205 33C208 44 211 62 214 85L214 85C219 144 222 211 222 287L222 287L75 287L90 553L225 553L225 726ZM958 572L936 534L895 560L895 36C895 12 893-7 889-20C885-33 877-43 865-49C853-55 835-58 812-58L812-58C780-58 752-56 729-53L729-53L721-10C746-14 771-16 796-16L796-16C819-16 833-11 841-2C848 7 851 24 851 49L851 49L851 523L645 523L645-44L599-44L599 523L393 523L393-55L349-55L349 557L314 540L295 581C330 596 368 616 410 640C452 664 488 687 519 710L519 710L544 676C499 643 440 606 367 567L367 567L598 567L598 727L325 727L325 773L923 773L923 727L646 727L646 567L884 567C821 606 761 641 704 673L704 673L727 708C831 649 908 603 958 572L958 572ZM425 273L400 297C423 320 449 351 478 390L478 390L415 473L441 492C453 477 472 453 499 418L499 418C519 445 536 470 549 493L549 493L579 476C559 443 540 414 521 389L521 389L551 348C560 336 568 326 574 317C580 308 585 301 589 296L589 296L562 275C551 291 530 320 500 361L500 361C473 325 448 296 425 273L425 273ZM678 273L653 297C680 326 706 357 731 390L731 390C719 407 698 434 667 473L667 473L693 493L752 418C775 451 792 476 802 493L802 493L831 477C815 449 796 420 774 389L774 389L844 295L815 274C809 283 788 312 753 361L753 361C726 325 701 296 678 273L678 273ZM542 271L571 253C555 224 538 195 519 168L519 168C558 113 582 79 591 65L591 65L563 43C551 62 529 93 498 138L498 138C471 99 446 67 423 41L423 41L398 65C421 91 447 125 477 167L477 167L419 248L446 267L497 197C518 229 533 254 542 271L542 271ZM842 67L812 47L751 137C726 100 701 68 677 41L677 41L649 65C678 96 705 130 730 167L730 167L673 248L700 268L751 198C765 219 780 243 795 271L795 271L824 254C815 237 797 208 772 168L772 168L842 67Z"/>
    <glyph glyph-name="M" unicode="&#24397;"
      horiz-adv-x="1000" vert-adv-y="1172"
      d="M807 558L807 470L957 470L957 430L712 430L712 360L886 360L886 92L493 92L493 360L667 360L667 430L426 430C426 336 424 263 420 210C416 157 407 108 394 65C380 21 359-26 330-75L330-75L290-50C317-2 337 43 350 85C363 126 371 172 375 223C379 274 381 343 381 432L381 432L381 735L661 735C645 774 630 806 616 832L616 832L662 849C677 820 695 782 714 735L714 735L946 735L946 692L807 692L807 598L927 598L927 558L807 558ZM287 503L150 503L137 333L288 333C287 297 285 247 282 184C279 121 276 81 274 64L274 64C271 34 265 11 258-5C250-21 238-32 223-39C208-46 187-49 161-50L161-50C127-50 97-48 71-43L71-43L62 6C89 0 121-3 156-3L156-3C179-3 197 3 208 16C219 28 226 49 230 80L230 80C232 96 234 127 237 172C240 217 241 255 242 286L242 286L90 286L106 548L243 548L243 724L64 724L64 771L287 771L287 503ZM454 598L570 598L570 692L426 692L426 470L570 470L570 558L454 558L454 598ZM613 692L613 598L764 598L764 692L613 692ZM613 558L613 470L764 470L764 558L613 558ZM537 246L667 246L667 321L537 321L537 246ZM712 246L841 246L841 321L712 321L712 246ZM667 131L667 207L537 207L537 131L667 131ZM841 207L712 207L712 131L841 131L841 207ZM432-74L413-32C444-20 481-4 524 16C566 35 600 52 626 67L626 67L647 29C618 12 582-6 540-26C498-46 462-62 432-74L432-74ZM731 27L750 65C843 24 912-7 956-29L956-29L936-70C933-69 930-67 927-65C923-64 919-62 914-60L914-60C836-21 775 8 731 27L731 27Z"/>
    <glyph glyph-name="N" unicode="&#24398;"
      horiz-adv-x="1000" vert-adv-y="1172"
      d="M536 754L653 754L653 719L352 719L352 754L490 754C481 785 471 810 462 831L462 831L505 842C512 826 522 797 536 754L536 754ZM368 524L330 507L315 539L140 513C111 508 96 505 95 505L95 505L86 543C99 545 110 549 118 555L118 555C130 564 161 598 211 655L211 655L121 646L79 640L71 677C81 679 88 681 92 684C96 687 99 688 100 689L100 689C112 700 131 722 157 756C183 789 204 818 219 841L219 841L253 818C203 749 167 703 144 681L144 681C188 686 221 691 243 694L243 694C271 726 291 751 304 770L304 770L336 744C318 719 290 685 251 640C212 595 184 565 167 551L167 551L299 572C298 575 296 578 295 581C293 584 291 588 288 592L288 592L267 630L302 648C311 633 319 618 327 602C335 586 343 572 350 559L350 559L368 524ZM657 642L649 679C662 682 672 686 678 692L678 692C691 702 709 722 734 753C759 784 779 812 796 839L796 839L833 813C788 754 752 709 723 680L723 680L819 693C853 733 874 759 882 771L882 771L915 745C893 716 864 680 829 639C793 597 764 567 743 549L743 549C808 560 852 568 877 572L877 572C870 590 861 610 851 631L851 631L887 646C907 605 926 562 943 517L943 517L904 502C902 509 898 521 891 538L891 538C874 536 859 534 846 532C833 529 822 527 813 526L813 526C804 525 789 522 768 519C747 516 728 513 713 512L713 512C704 511 695 509 688 508C681 507 675 506 670 505L670 505L661 543C674 546 685 550 692 555L692 555C713 573 745 607 789 658L789 658C748 654 718 651 699 648L699 648L657 642ZM386 641L386 675L620 675L620 641L386 641ZM386 563L386 596L620 596L620 563L386 563ZM391 520L614 520L614 377L391 377L391 520ZM283 481L319 492C330 465 343 424 359 370L359 370L321 359C308 406 296 446 283 481L283 481ZM575 408L575 488L430 488L430 408L575 408ZM870 472L904 485C913 464 923 440 933 412C943 383 949 366 951 360L951 360L913 347C900 393 885 435 870 472L870 472ZM244 355L204 352C199 400 194 442 187 478L187 478L224 484C233 437 239 394 244 355L244 355ZM828 355L787 352C783 399 778 441 771 478L771 478L808 482C817 439 823 397 828 355L828 355ZM677 336L638 347C653 383 667 428 679 481L679 481L717 474C713 453 707 429 700 404C693 378 685 355 677 336L677 336ZM97 336L56 346C72 389 84 433 91 479L91 479L130 472C121 418 110 373 97 336L97 336ZM826 177L233 177L220 115L855 115C854 84 850 51 845 15L845 15C841-9 835-27 827-39C818-51 805-59 786-64C767-69 739-72 702-72L702-72C638-72 569-69 496-64L496-64L488-25C559-30 630-33 701-34L701-34C724-34 742-32 754-29C765-26 774-22 779-15C784-8 788 2 791 15L791 15C796 34 798 54 798 73L798 73L161 73L191 217L777 217L777 280L161 280L161 318L826 318L826 177Z"/>
    <glyph glyph-name="O" unicode="&#24399;"
      horiz-adv-x="1000" vert-adv-y="1172"
      d="M360 538L360 809L588 809L588 538L360 538ZM664 538L664 808L898 808L898 538L664 538ZM401 727L547 727L547 777L401 777L401 727ZM705 727L856 727L856 776L705 776L705 727ZM149 502L135 330L278 330C277 296 275 248 272 187C269 125 267 86 265 71L265 71C262 40 257 17 250 1C243-16 231-27 216-34C201-41 179-45 150-46L150-46C121-46 96-44 75-39L75-39L67 10C77 7 90 5 106 4C122 3 136 2 148 2L148 2C172 2 189 8 199 21C209 33 216 55 221 87L221 87C223 112 225 146 228 190C230 233 231 264 231 283L231 283L88 283L105 548L238 548L238 723L60 723L60 770L282 770L282 502L149 502ZM705 647L856 647L856 697L705 697L705 647ZM401 647L547 647L547 696L401 696L401 647ZM547 618L401 618L401 568L547 568L547 618ZM856 618L705 618L705 568L856 568L856 618ZM386 193L386 383C362 352 336 322 307 294L307 294L284 332C316 363 343 395 365 426C387 457 406 493 423 532L423 532L464 521L444 478L637 478L607 544L647 558C666 521 678 494 685 478L685 478L925 478L925 446L678 446L678 394L891 394L891 364L678 364L678 310L891 310L891 280L678 280L678 224L932 224L932 193L386 193ZM429 446L429 394L635 394L635 446L429 446ZM429 364L429 310L635 310L635 364L429 364ZM429 280L429 224L635 224L635 280L429 280ZM957-26L946-67C811-48 702-24 618 5L618 5C529-25 416-50 281-70L281-70L269-31C396-12 494 7 564 28L564 28C512 51 462 82 415 122L415 122L331 122L331 155L857 155L857 121C804 85 745 54 679 28L679 28C714 18 753 9 796 1C839-8 892-17 957-26L957-26ZM790 122L479 122C522 91 570 66 623 46L623 46C686 69 742 94 790 122L790 122Z"/>
    <glyph glyph-name="Q" unicode="&#24401;"
      horiz-adv-x="1000" vert-adv-y="1172"
      d="M285 624L794 624L744 41L955 41L955-8L44-8L44 41L692 41L711 262L180 262L262 827L314 820L285 624ZM737 574L278 574L240 313L715 313L737 574Z"/>
    <glyph glyph-name="T" unicode="&#24404;"
      horiz-adv-x="1000" vert-adv-y="1172"
      d="M952 413L524 413L524 388C553 326 588 273 630 229L630 229C667 253 705 279 745 308C784 336 816 360 841 381L841 381L875 340C824 299 755 250 668 193L668 193C734 136 827 84 946 39L946 39L922-8C819 34 737 78 676 124C615 169 565 226 524 294L524 294L524 56C524 15 515-14 497-31C479-49 447-58 401-58L401-58C362-57 325-52 292-45L292-45L283 4C297 1 314-2 334-4C354-7 371-8 385-8L385-8C421-8 445-2 457 11C469 24 475 45 475 75L475 75L475 222C433 197 370 161 287 114C203 67 140 32 99 9L99 9L72 54C95 65 160 100 268 161C376 222 445 262 475 281L475 281L475 413L59 413L59 458L688 458L704 566L202 566L260 838L309 835L295 766L781 766L738 458L952 458L952 413ZM726 720L285 720L262 611L710 611L726 720ZM133 346L163 384C213 347 241 326 246 322L246 322C259 312 273 302 287 291C301 280 315 270 328 259L328 259L297 220C224 278 169 320 133 346L133 346Z"/>
    <glyph glyph-name="Y" unicode="&#24409;"
      horiz-adv-x="1000" vert-adv-y="1172"
      d="M773 801L744 627L909 627L909 595L89 595L89 627L695 627L705 682L196 682L243 851L291 848L278 801L773 801ZM721 769L268 769L253 715L711 715L721 769ZM92 532L908 532L908 396L864 396L864 496L136 496L136 397L92 397L92 532ZM940-13L932-53C845-35 769-14 703 10C637 34 577 62 523 94L523 94L523-84L479-84L479 94C426 63 367 35 302 12C237-11 159-33 70-53L70-53L60-12C215 18 343 60 442 113L442 113L70 113L70 149L479 149L479 212L195 212L195 436L806 436L806 212L523 212L523 149L931 149L931 113L555 113C654 60 783 18 940-13L940-13ZM242 341L479 341L479 402L242 402L242 341ZM523 402L523 341L760 341L760 402L523 402ZM479 308L242 308L242 245L479 245L479 308ZM760 308L523 308L523 245L760 245L760 308Z"/>
    <glyph glyph-name="Z" unicode="&#24410;"
      horiz-adv-x="1000" vert-adv-y="1172"
      d="M787 807L787 627L892 627L892 591L110 591L110 627L739 627L739 680L208 680L208 715L739 715L739 770L183 770L183 807L787 807ZM864 397L864 496L136 496L136 398L92 398L92 533L908 533L908 397L864 397ZM941-13L929-51C844-33 769-11 704 14C638 39 578 69 523 103L523 103L523-83L481-83L481 99C428 66 369 38 303 13C237-12 159-33 70-52L70-52L57-13C219 18 346 60 437 113L437 113L70 113L70 150L481 150L481 213L195 213L195 437L806 437L806 213L523 213L523 150L931 150L931 113L567 113C675 54 800 12 941-13L941-13ZM242 342L481 342L481 403L242 403L242 342ZM523 403L523 342L760 342L760 403L523 403ZM481 310L242 310L242 246L481 246L481 310ZM760 310L523 310L523 246L760 246L760 310Z"/>
    <glyph glyph-name="[" unicode="&#24411;"
      horiz-adv-x="1000" vert-adv-y="1172"
      d="M796 793L796 591L944 591L944 552L54 552L54 591L749 591L749 655L169 655L169 693L749 693L749 755L144 755L144 793L796 793ZM465 389L465 352L307 352L307 350L344 325C399 288 431 266 442 257L442 257L421 227C405 240 376 260 334 288L334 288C329 292 324 296 320 299C315 302 311 304 307 307L307 307L307 192L265 192L265 310C228 267 171 224 96 181L96 181L76 218C153 257 213 302 255 352L255 352L90 352L90 389L265 389L265 527L307 527L307 389L465 389ZM734 236C752 237 765 241 772 249C779 257 784 271 788 291L788 291C792 312 794 331 795 348L795 348L656 348C653 316 648 291 640 272C631 253 618 235 599 220C580 204 551 186 513 165L513 165L491 194C526 211 552 227 569 241C586 254 598 269 605 285C612 301 617 322 619 348L619 348L564 348L564 379C546 362 523 344 495 327L495 327L472 357C507 380 536 403 557 428C578 452 600 483 621 520L621 520L653 499C628 452 600 413 569 383L569 383L826 383C787 416 754 457 729 506L729 506L759 527C782 483 807 449 835 426C862 402 898 379 943 356L943 356L924 320C889 339 860 357 835 376L835 376C833 345 829 313 824 279L824 279C820 248 812 228 801 217C789 206 768 201 738 201L738 201C723 201 708 203 691 206L691 206L684 242C694 239 704 238 715 237C725 236 731 236 734 236L734 236ZM432 524L458 499C425 462 394 431 365 406L365 406L340 431C380 470 411 501 432 524L432 524ZM114 498L139 522C160 501 190 472 227 433L227 433L200 407C183 428 154 458 114 498L114 498ZM709 113L952 113L952 70L709 70L709-73L661-73L661 70L347 70C340 37 325 9 300-14C275-37 234-61 179-85L179-85L153-46C203-25 238-6 259 11C280 27 293 47 299 70L299 70L45 70L45 113L305 113C306 129 307 151 307 180L307 180L355 180C355 151 354 129 353 113L353 113L661 113L661 178L709 178L709 113Z"/>
    <glyph glyph-name="\" unicode="&#24412;"
      horiz-adv-x="1000" vert-adv-y="1172"
      d="M789 782L759 587L945 587L945 551L54 551L54 587L710 587L720 651L208 651L253 846L300 843L286 782L789 782ZM735 748L278 748L264 685L725 685L735 748ZM307 388L465 388L465 352L333 352C365 330 402 303 444 272L444 272L422 242L307 327L307 192L265 192L265 310C228 267 172 223 96 180L96 180L76 217C154 256 214 301 256 352L256 352L90 352L90 388L265 388L265 526L307 526L307 388ZM734 240C751 241 764 245 771 254C778 262 784 276 788 296L788 296C792 317 794 336 795 353L795 353L657 353C656 352 656 351 656 349L656 349C653 317 648 291 640 272C632 253 619 235 600 220C581 204 552 185 513 164L513 164L491 193C526 211 553 227 570 241C587 254 599 269 606 286C613 303 617 325 619 352L619 352L619 353L564 353L564 378C546 361 523 343 495 326L495 326L472 356C507 379 536 403 558 427C579 451 600 482 621 519L621 519L653 498C628 453 602 416 574 388L574 388L820 388C785 419 754 458 729 505L729 505L759 526C782 482 807 448 834 425C861 402 897 379 943 356L943 356L924 320C889 339 859 358 834 377L834 377C831 340 828 309 824 284L824 284C820 255 812 234 802 223C791 212 772 206 747 205L747 205C728 205 709 207 691 211L691 211L684 247C700 242 717 240 734 240L734 240ZM432 524L458 497L441 479C405 443 380 419 365 406L365 406L340 431C353 442 369 458 388 478C407 497 422 513 432 524L432 524ZM114 497L139 522C153 509 182 479 227 432L227 432L200 407C181 428 153 458 114 497L114 497ZM708 112L952 112L952 69L708 69L708-74L661-74L661 69L347 69C340 37 325 10 300-13C275-36 234-61 179-86L179-86L153-47C202-26 237-8 259 9C280 25 293 45 299 69L299 69L45 69L45 112L304 112C306 131 307 153 307 180L307 180L355 180L354 157C354 146 353 131 352 112L352 112L661 112L661 178L708 178L708 112Z"/>
    <glyph glyph-name="^" unicode="&#24414;"
      horiz-adv-x="1000" vert-adv-y="1172"
      d="M796 591L944 591L944 552L54 552L54 591L749 591L749 655L169 655L169 693L749 693L749 755L144 755L144 793L796 793L796 591ZM488 406L481 437C491 438 503 441 518 445L518 445C541 457 584 493 649 552L649 552L674 525C661 511 645 496 626 480C607 463 592 451 579 442L579 442L724 458C759 483 792 506 821 529L821 529L845 500C749 426 666 372 596 337L596 337L823 355L772 399L797 426C850 380 892 342 924 313L924 313L898 286L860 321C791 317 741 314 709 312L709 312L709 200L666 200L666 309L605 305L573 303L542 300C523 299 505 298 486 295L486 295L481 332C494 333 504 335 513 336C521 337 528 339 533 341L533 341C570 358 617 386 673 423L673 423C606 417 566 414 553 413L553 413C549 412 527 410 488 406L488 406ZM302 388L460 388L460 352L305 352C347 325 387 297 425 268L425 268L402 238C373 261 340 286 302 311L302 311L302 193L260 193L260 310C221 266 165 223 92 181L92 181L71 218C149 257 209 302 250 352L250 352L86 352L86 388L260 388L260 527L302 527L302 388ZM427 524L453 498C436 478 405 447 360 406L360 406L336 431C371 464 401 495 427 524L427 524ZM110 497L135 523C168 490 197 460 222 432L222 432L196 407C177 429 148 459 110 497L110 497ZM592 294L614 262C579 237 529 205 463 168L463 168L443 203C467 215 493 230 522 247C550 264 573 280 592 294L592 294ZM760 262L779 294C850 254 901 224 933 204L933 204L913 173C836 219 785 249 760 262L760 262ZM708 116L952 116L952 73L708 73L708-71L661-71L661 73L349 73C342 38 324 9 297-15C269-39 223-64 160-89L160-89L135-48C193-27 234-7 258 10C281 27 296 48 302 73L302 73L47 73L47 116L307 116C308 133 309 156 309 183L309 183L356 183C356 168 355 145 354 116L354 116L661 116L661 177L708 177L708 116Z"/>
    <glyph glyph-name="_" unicode="&#24415;"
      horiz-adv-x="1000" vert-adv-y="1172"
      d="M572 710L572 650L530 650L530 710L388 710L388 750L530 750L530 836L572 836L572 750L753 750L753 836L796 836L796 750L945 750L945 710L796 710L796 650L753 650L753 710L572 710ZM87 733L87 776L351 776L351 416L79 416L79 458L308 458L308 574L105 574L105 617L308 617L308 733L87 733ZM455 245L455 496C438 469 418 443 397 417L397 417L368 448C395 480 419 513 439 546C458 579 476 616 492 658L492 658L531 644C524 626 517 609 508 592L508 592L695 592C680 629 669 656 660 671L660 671L698 684C703 675 709 662 718 644C726 625 733 608 739 592L739 592L929 592L929 555L722 555L722 488L908 488L908 453L722 453L722 387L908 387L908 351L722 351L722 282L943 282L943 245L455 245ZM496 555L496 488L681 488L681 555L496 555ZM496 453L496 387L681 387L681 453L496 453ZM400 289L400 245L308 245L308 51C308 25 305 5 299-9C293-24 282-34 267-41C252-48 229-52 199-52L199-52C174-52 150-50 127-45L127-45L119-2C142-8 166-11 191-11L191-11C212-11 228-8 239-3C249 2 256 9 260 19C263 29 265 43 265 62L265 62L265 245L55 245L55 289L265 289L265 380L308 380L308 289L400 289ZM496 351L496 282L681 282L681 351L496 351ZM209 99L179 68C150 103 118 139 81 176L81 176L110 205C149 166 182 130 209 99L209 99ZM957-21L946-65C826-44 730-16 657 17L657 17C588-12 490-38 362-63L362-63L348-21C465 1 552 22 609 42L609 42C556 73 509 111 470 156L470 156L411 156L411 196L868 196L868 158C816 108 762 69 707 40L707 40C768 15 852-5 957-21L957-21ZM799 156L528 156C565 118 608 87 658 62L658 62C683 73 707 87 729 102C751 117 774 135 799 156L799 156Z"/>
    <glyph glyph-name="`" unicode="&#24416;"
      horiz-adv-x="1000" vert-adv-y="1172"
      d="M617 722L617 669L576 669L576 722L449 722L449 761L576 761L576 849L617 849L617 761L772 761L772 849L813 849L813 761L950 761L950 722L813 722L813 666L772 666L772 722L617 722ZM76 756L76 794L402 794L402 540L68 540L68 578L360 578L360 647L92 647L92 686L360 686L360 756L76 756ZM519 253L519 525C502 498 482 471 461 446L461 446L435 482C459 509 481 540 502 573C522 606 538 637 550 668L550 668L588 654C581 637 572 618 562 599L562 599L717 599C710 616 699 635 686 657L686 657L723 675C734 657 747 632 762 599L762 599L934 599L934 564L757 564L757 496L915 496L915 461L757 461L757 393L915 393L915 357L757 357L757 289L949 289L949 253L519 253ZM559 564L559 496L716 496L716 564L559 564ZM426 468L426 292L263 292L263 468L426 468ZM44 276L40 314L123 325L123 430L51 430L51 467L230 467L230 430L161 430L161 330L237 340L236 319L236 302L44 276ZM559 461L559 393L716 393L716 461L559 461ZM389 330L389 431L300 431L300 330L389 330ZM559 357L559 289L716 289L716 357L559 357ZM449 200L449 160L365 160L365 47C365 6 360-23 349-39C338-55 317-63 285-64L285-64C245-64 208-60 174-53L174-53L166-13C197-20 231-23 268-23L268-23C289-23 304-17 312-4C319 8 323 28 323 56L323 56L323 160L44 160L44 200L323 200L323 263L365 263L365 200L449 200ZM963-13L951-55C848-39 763-13 694 23L694 23C659 6 620-10 577-23C534-36 483-49 425-62L425-62L411-20C511 0 591 23 650 48L650 48C600 81 555 119 514 163L514 163L474 163L474 201L884 201L884 163C831 112 783 74 738 47L738 47C796 22 871 2 963-13L963-13ZM821 163L570 163C609 126 650 94 694 69L694 69C742 95 784 126 821 163L821 163ZM224 45L194 20C162 55 129 90 96 123L96 123L124 149C149 126 183 92 224 45L224 45Z"/>
    <glyph glyph-name="c" unicode="&#24419;"
      horiz-adv-x="1000" vert-adv-y="1172"
      d="M681 19C712 17 757 15 816 14C875 12 919 11 949 12L949 12L941-38C884-38 791-35 663-30L663-30C501-21 376 36 287 141L287 141C235 70 167 4 83-59L83-59L48-19C137 43 207 110 257 181L257 181C186 285 140 432 121 621L121 621L51 621L51 670L275 670C266 698 256 728 245 759C234 790 225 814 218 831L218 831L265 846C274 825 285 795 299 756C312 717 322 688 327 670L327 670L533 670L533 621L451 621C439 529 422 448 402 378C381 308 353 245 318 188L318 188C401 85 522 28 681 19L681 19ZM860 817L894 782C865 749 820 711 761 669C701 627 647 593 598 567L598 567L572 611C620 636 673 668 731 708C788 748 831 784 860 817L860 817ZM401 621L169 621C187 454 226 324 287 230L287 230C316 280 339 336 357 399C375 462 390 536 401 621L401 621ZM877 597L910 564C875 526 825 484 760 439C695 393 637 358 585 334L585 334L559 376C610 401 668 435 731 479C794 522 843 562 877 597L877 597ZM547 89L519 132C585 160 656 199 733 250C809 300 868 348 909 393L909 393L941 360C900 313 842 264 765 212C688 160 615 119 547 89L547 89Z"/>
    <glyph glyph-name="e" unicode="&#24421;"
      horiz-adv-x="1000" vert-adv-y="1172"
      d="M565 745L947 745L947 701L84 701L84 745L507 745C488 787 473 816 464 832L464 832L511 852C526 825 544 789 565 745L565 745ZM209 497L195 537C300 552 395 571 479 594L479 594C378 622 304 641 255 652L255 652L272 689C345 672 439 647 552 615L552 615C626 637 695 664 759 695L759 695L782 659C735 637 682 616 622 595L622 595C722 566 791 544 830 529L830 529L812 491C750 514 663 541 552 573L552 573C444 541 330 516 209 497L209 497ZM152 338L152 468L929 468L929 425L200 425L200 325C200 239 191 167 174 108C157 49 127-10 84-70L84-70L41-46C70-6 92 32 108 68C124 104 135 143 142 185C149 227 152 278 152 338L152 338ZM775 401L790 360C725 338 646 317 553 296C460 275 367 258 275 244L275 244L262 288C351 300 445 317 543 339C640 360 718 381 775 401L775 401ZM267 97L254 140C349 154 450 174 557 200C664 225 752 250 823 274L823 274L840 234C770 209 682 183 575 158C468 132 366 112 267 97L267 97ZM211-66L198-21C322-3 446 21 570 52C693 82 800 114 889 148L889 148L910 106C823 73 716 40 590 9C464-22 338-47 211-66L211-66Z"/>
    <glyph glyph-name="g" unicode="&#24423;"
      horiz-adv-x="1000" vert-adv-y="1172"
      d="M875 736L842 699C796 739 751 776 707 811L707 811L738 846C771 821 817 784 875 736L875 736ZM946 673L946 624L635 624L647 477C699 512 748 548 793 587L793 587L822 550C769 506 713 464 652 424L652 424C657 384 662 344 667 305L667 305C729 345 791 391 852 444L852 444L882 410C821 355 752 303 676 254L676 254C683 215 692 179 703 146L703 146C780 197 850 254 913 318L913 318L944 287C883 222 809 160 720 101L720 101C723 92 729 81 737 66L737 66C751 43 764 26 777 17C789 7 801 2 813 2L813 2C826 2 838 9 848 22C857 35 865 58 872 89L872 89C878 117 883 147 888 180L888 180L937 159L932 134C928 109 923 84 917 60L917 60C907 17 893-13 876-31C859-49 838-58 814-58L814-58C791-58 769-50 750-34C730-18 710 8 689 45L689 45C686 51 681 60 676 72L676 72C601 25 518-18 427-59L427-59L405-15C497 24 582 68 659 117L659 117C647 150 637 187 630 226L630 226C586 201 543 178 500 157L500 157L477 200C528 224 575 249 620 276L620 276C617 295 612 325 607 364L607 364L603 393C560 366 522 345 490 329L490 329L467 372C509 393 553 417 598 445L598 445C594 482 590 531 585 591L585 591C585 598 584 609 583 624L583 624L62 624L62 673L580 673L571 839L624 839C625 801 628 746 633 673L633 673L946 673ZM431 220L136 220L136 503L431 503L431 220ZM184 454L184 269L382 269L382 454L184 454ZM459 125L465 75L237 38L68 10L62 61C218 84 350 106 459 125L459 125Z"/>
    <glyph glyph-name="h" unicode="&#24424;"
      horiz-adv-x="1000" vert-adv-y="1172"
      d="M651 498L620 536C667 577 711 622 754 671C797 720 835 769 868 819L868 819L906 790C871 739 832 688 788 637C744 586 698 540 651 498L651 498ZM620 726L66 726L66 774L620 774L620 726ZM98-40L98 599L297 599L297 28C297 1 292-17 282-27C271-37 252-42 224-42L224-42C209-42 195-41 184-38L184-38L174 12C181 10 187 9 194 8C201 7 208 7 217 7L217 7C232 7 243 11 249 18C255 25 258 36 258 52L258 52L258 553L140 553L140-40L98-40ZM374-40L374 599L576 599L576 28C576 3 571-15 560-26C549-37 531-42 504-42L504-42C485-42 470-40 458-36L458-36L449 13C463 8 477 6 492 6L492 6C509 6 521 10 527 17C532 24 535 36 535 52L535 52L535 553L414 553L414-40L374-40ZM639 221L608 262C659 301 708 346 757 398C806 449 849 502 888 557L888 557L925 526C885 470 840 415 790 361C740 307 690 260 639 221L639 221ZM146 424L181 437L254 233L218 218C197 282 173 351 146 424L146 424ZM418 424L453 437C480 369 505 301 528 233L528 233L494 218C464 296 439 365 418 424L418 424ZM612-74L581-34C716 53 829 164 920 301L920 301L957 272C915 207 865 145 807 86C748 27 683-26 612-74L612-74Z"/>
    <glyph glyph-name="k" unicode="&#24427;"
      horiz-adv-x="1000" vert-adv-y="1172"
      d="M870 822L904 788C870 743 830 697 783 650C736 603 692 564 650 533L650 533L623 575C664 604 707 642 753 688C798 733 837 778 870 822L870 822ZM126 775L584 775L584 48C584 13 577-14 564-31C550-48 526-57 491-57L491-57C472-57 456-56 443-55C430-54 416-51 400-47L400-47L392 0C405-4 417-6 430-7C442-8 457-9 476-9L476-9C501-9 517-3 526 8C535 19 539 36 539 60L539 60L539 728L170 728L170 429C170 330 168 253 164 198C159 143 152 97 141 59C130 21 112-22 89-70L89-70L47-51C70-3 87 40 98 77C109 114 116 158 120 211C124 263 126 339 126 438L126 438L126 775ZM500 396L212 396L212 439L333 439L333 556L230 556L230 598L333 598L333 699L375 699L375 598L478 598L478 556L375 556L375 439L500 439L500 396ZM888 551L922 519C885 468 844 418 797 371C750 323 701 280 650 242L650 242L622 284C673 321 721 362 767 409C813 455 853 502 888 551L888 551ZM240 81L240 308L463 308L463 81L240 81ZM926 297L961 266C918 201 869 141 813 85C756 29 688-24 609-75L609-75L583-33C660 14 725 64 779 119C833 173 882 232 926 297L926 297ZM283 268L283 122L421 122L421 268L283 268Z"/>
    <glyph glyph-name="n" unicode="&#24430;"
      horiz-adv-x="1000" vert-adv-y="1172"
      d="M527 683L135 683L135 567L87 567L87 730L318 730C306 761 292 796 276 835L276 835L322 850C343 803 360 763 372 730L372 730L575 730L575 566L527 566L527 683ZM864 820L902 788C867 741 827 695 782 650C737 605 693 566 651 535L651 535L620 577C660 606 702 643 746 687C790 731 829 775 864 820L864 820ZM370 582L400 617C441 587 504 534 589 459L589 459L559 422C497 480 434 533 370 582L370 582ZM256 615L285 579C214 515 145 461 76 416L76 416L50 458C111 495 180 548 256 615L256 615ZM882 566L920 531C881 484 837 437 788 390C739 343 689 303 639 268L639 268L609 311C658 344 706 383 755 429C804 474 846 520 882 566L882 566ZM318 437C261 356 177 279 66 206L66 206L41 248C102 289 158 334 208 383C257 432 295 482 320 532L320 532L364 514C358 501 351 488 343 475L343 475C384 441 428 404 474 365C519 326 559 291 593 260L593 260L561 221C528 252 447 324 318 437L318 437ZM911 311L951 277C903 212 850 153 792 98C733 43 665-9 586-56L586-56L555-12C632 33 699 83 756 136C812 189 864 247 911 311L911 311ZM497 236L497-34L151-34L151 236L497 236ZM449 11L449 190L199 190L199 11L449 11Z"/>
    <glyph glyph-name="o" unicode="&#24431;"
      horiz-adv-x="1000" vert-adv-y="1172"
      d="M865 818L902 789C869 742 830 696 787 651C743 606 701 568 660 537L660 537L630 574C669 604 710 641 753 685C796 729 833 773 865 818L865 818ZM99 435L99 639L243 639L243 739L63 739L63 781L609 781L609 739L424 739L424 639L570 639L570 435L99 435ZM284 739L284 639L383 639L383 739L284 739ZM243 475L243 598L141 598L141 475L243 475ZM383 475L383 598L284 598L284 475L383 475ZM424 598L424 475L527 475L527 598L424 598ZM878 549L915 518C880 472 839 426 792 379C745 332 697 289 648 252L648 252L618 292C665 325 711 365 758 411C804 457 844 503 878 549L878 549ZM108 350L561 350L561 310L108 310L108 350ZM910 289L949 259C862 134 746 24 600-71L600-71L570-31C645 17 709 67 764 120C819 172 867 228 910 289L910 289ZM615 229L615 188L367 188L367 41C367 5 360-21 346-37C332-53 307-61 271-61L271-61C245-61 218-58 191-52L191-52L183-9C204-16 230-20 262-20L262-20C286-20 302-14 311-3C320 8 324 27 324 53L324 53L324 188L48 188L48 229L615 229ZM182 157L219 131C202 106 179 78 152 47C125 16 96-14 67-42L67-42L35-11C62 12 88 39 115 70C141 101 163 130 182 157L182 157ZM437 124L470 154L492 132C524 98 559 62 596 25L596 25L562-6C523 36 482 79 437 124L437 124Z"/>
    <glyph glyph-name="r" unicode="&#24434;"
      horiz-adv-x="1000" vert-adv-y="1172"
      d="M882 812L921 787C890 740 854 692 813 643C772 594 729 550 685 509L685 509L652 542C696 583 738 626 778 673C818 720 853 766 882 812L882 812ZM71 740L71 779L337 779L337 740L71 740ZM378 740L378 779L651 779L651 740L378 740ZM112 686L325 686L325 527L286 527L286 649L152 649L152 523L112 523L112 686ZM399 686L612 686L612 527L572 527L572 649L438 649L438 525L399 525L399 686ZM264 546L232 531C215 562 197 590 179 617L179 617L211 631C236 594 253 565 264 546L264 546ZM546 545L515 531C506 549 488 578 463 618L463 618L494 631C507 612 525 583 546 545L546 545ZM600 109L639 100C639 79 638 58 635 37L635 37C632 8 625-11 612-22C599-33 576-39 544-41L544-41C539-42 532-42 523-42L523-42C485-42 459-37 444-26C429-15 422 6 422 37L422 37L422 206L265 206L265 133L394 133L394 97L265 97L265 5L393 40L398 5L269-31C250-37 236-43 226-49L226-49L210-13C222-6 228 1 228 9L228 9L228 206L155 206C152 149 144 99 132 58C119 17 100-26 74-70L74-70L34-47C57-10 74 24 85 56C96 88 104 123 108 161C112 199 114 248 114 309L114 309L114 483L356 483C342 512 332 533 326 544L326 544L366 556C378 533 390 509 401 483L401 483L647 483L647 446L463 446L463 365L613 365L613 206L460 206L460 114C517 133 568 154 613 177L613 177L628 145C587 125 531 102 460 77L460 77L460 48C460 29 463 16 470 9C476 2 488-3 506-4L506-4C517-5 529-5 540-4L540-4C562-2 577 2 584 9C591 15 596 28 597 48L597 48C599 64 600 84 600 109L600 109ZM674 229L644 266C690 304 735 348 780 398C825 447 864 497 899 548L899 548L937 521C900 468 859 416 813 365C766 313 720 268 674 229L674 229ZM157 365L273 365L273 446L157 446L157 365ZM313 446L313 365L423 365L423 446L313 446ZM157 329L157 299C157 273 157 254 156 242L156 242L273 242L273 329L157 329ZM313 329L313 242L423 242L423 329L313 329ZM463 242L572 242L572 329L463 329L463 242ZM929 290L966 263C890 140 790 29 666-71L666-71L635-34C748 53 846 161 929 290L929 290Z"/>
    <glyph glyph-name="t" unicode="&#24436;"
      horiz-adv-x="1000" vert-adv-y="1172"
      d="M271 849L316 827C293 784 261 737 219 685C176 633 133 587 90 546L90 546L57 582C98 621 139 665 180 715C220 764 250 809 271 849L271 849ZM519 668L886 668C885 602 882 502 877 368C872 233 868 138 865 83L865 83C862 35 850 1 827-18C804-37 767-47 716-47L716-47C662-47 608-43 554-35L554-35L545 14C586 5 638 1 703 1L703 1C742 1 769 8 786 22C802 35 811 60 814 96L814 96C818 157 822 253 827 383C831 512 833 591 832 619L832 619L496 619C455 537 416 471 380 421L380 421L338 451C377 504 414 568 450 642C486 715 514 782 534 841L534 841L583 830C566 778 545 724 519 668L519 668ZM285 603L328 579C305 533 274 484 235 432L235 432L235-67L187-67L187 369C142 314 100 268 60 232L60 232L39 282C81 319 126 368 173 431C220 493 258 550 285 603L285 603ZM677 242L632 211C611 242 583 282 548 331C513 380 485 417 465 442L465 442L505 472C526 446 555 409 591 361C627 313 656 273 677 242L677 242Z"/>
    <glyph glyph-name="u" unicode="&#24437;"
      horiz-adv-x="1000" vert-adv-y="1172"
      d="M897 206L945 195C945 182 945 161 944 133C943 104 941 82 940 67L940 67C939 39 933 18 924 5C914-9 900-19 882-24C863-29 836-33 800-36L800-36C743-39 703-41 678-41L678-41C655-41 616-39 563-36L563-36C528-33 501-28 482-20C463-13 449 0 440 17C431 34 427 59 427 90L427 90L427 438L323 400L309 448L427 491L427 736L476 736L476 509L622 562L622 835L671 835L671 579L885 657C884 612 882 552 879 478C876 404 873 349 870 312L870 312C868 286 864 266 858 253C851 239 840 229 825 223C810 217 787 214 758 214L758 214C735 214 716 217 700 222L700 222L690 267C709 262 733 259 761 259L761 259C783 259 798 264 806 275C814 285 820 303 823 330L823 330C825 349 827 391 830 457C833 523 834 567 834 588L834 588L671 528L671 112L622 112L622 510L476 456L476 102C476 77 479 59 485 48C490 36 500 28 513 23C526 18 547 15 575 13L575 13C624 10 660 8 683 8L683 8C706 8 742 10 790 13L790 13C819 14 840 17 854 21C868 25 878 32 885 43C891 53 894 69 895 91L895 91C897 158 898 197 897 206L897 206ZM283 833L323 802C295 759 259 713 215 664C171 615 126 571 81 532L81 532L53 577C96 612 138 654 180 701C222 748 256 792 283 833L283 833ZM290 603L330 576C307 529 274 476 231 417L231 417L231-70L183-70L183 354C144 305 103 259 58 218L58 218L33 262C80 305 127 359 176 424C225 489 263 548 290 603L290 603Z"/>
    <glyph glyph-name="v" unicode="&#24438;"
      horiz-adv-x="1000" vert-adv-y="1172"
      d="M300 830L340 806C315 764 278 716 231 663C183 609 136 563 91 526L91 526L65 567C106 601 150 644 196 695C242 746 277 791 300 830L300 830ZM731 161C788 98 862 40 955-13L955-13L925-59C832-1 757 60 698 124L698 124C665 89 628 55 586 25C543-6 494-37 439-68L439-68L409-29C520 30 606 92 668 158L668 158C600 241 549 339 516 454L516 454C511 381 502 317 489 262C476 207 457 153 430 102C403 50 367-4 320-60L320-60L282-31C332 29 370 87 397 143C424 199 443 257 454 318C465 378 471 451 474 536L474 536L481 724L401 724L401 770L831 770L831 722L757 513L887 513L887 467C867 404 844 347 820 298C795 248 765 202 731 161L731 161ZM524 599C541 514 564 438 593 373C622 307 657 248 700 196L700 196C757 265 803 355 839 467L839 467L705 467L705 510L781 724L527 724C527 712 526 687 525 650L525 650L524 599ZM300 604L342 579C316 534 282 484 241 430L241 430L241-69L193-69L193 371C150 319 106 274 63 237L63 237L42 284C85 320 132 369 183 432C233 495 272 552 300 604L300 604Z"/>
    <glyph glyph-name="x" unicode="&#24440;"
      horiz-adv-x="1000" vert-adv-y="1172"
      d="M679 831L725 842C750 740 780 654 817 584C853 513 900 447 959 386L959 386L922 354C861 417 812 485 775 559C738 633 706 724 679 831L679 831ZM298 827L339 801C308 756 271 710 227 663C182 615 137 573 91 536L91 536L63 581C108 617 152 657 194 701C236 744 271 786 298 827L298 827ZM543 800L591 790C570 715 539 640 500 563C461 486 419 421 374 368L374 368L334 400C379 451 420 513 458 585C495 657 524 729 543 800L543 800ZM318 609L362 583C335 536 295 481 242 416L242 416L242-73L194-73L194 361C151 315 111 275 72 240L72 240L42 281C93 326 145 379 196 440C247 501 288 558 318 609L318 609ZM697 260L741 278C784 193 836 85 898-48L898-48L850-67C842-49 829-20 810 21L810 21L738 14C614 3 522-5 461-12L461-12C426-17 402-21 388-25L388-25L373 25C385 29 393 33 399 37C404 41 408 46 412 53L412 53C442 100 473 162 507 239C540 316 569 395 596 476L596 476L644 461C619 382 590 304 557 227C523 149 491 85 460 34L460 34L789 67L697 260Z"/>
    <glyph glyph-name="z" unicode="&#24442;"
      horiz-adv-x="1000" vert-adv-y="1172"
      d="M309 834L347 806C320 764 281 717 232 665C182 612 134 569 88 534L88 534L60 576C101 607 147 648 196 699C245 750 282 795 309 834L309 834ZM893 365L672 365L672 31L948 31L948-16L345-16L345 31L624 31L624 365L403 365L403 414L624 414L624 720L392 720L392 768L908 768L908 720L672 720L672 414L893 414L893 365ZM309 587L348 561C319 511 282 459 237 404L237 404L237-68L189-68L189 347C148 301 107 261 66 226L66 226L39 268C82 302 130 351 184 415C237 479 279 536 309 587L309 587Z"/>
    <glyph glyph-name="}" unicode="&#24445;"
      horiz-adv-x="1000" vert-adv-y="1172"
      d="M290 827L330 799C304 758 269 713 224 663C179 613 134 570 91 533L91 533L61 575C102 609 144 650 187 697C230 744 264 788 290 827L290 827ZM909 192L952 175C939 100 931 55 926 40L926 40C919 12 910-9 898-22C886-35 871-42 852-43L852-43C835-43 817-33 798-13C778 7 761 35 747 70L747 70C712 154 687 267 671 408L671 408L453 408L453 73L634 207L652 160C623 140 598 122 577 106L577 106C612 68 645 32 676-3L676-3L706-36L669-65C656-49 637-27 611 2C585 31 561 56 540 79L540 79L488 41L461 21C440 5 423-9 410-22L410-22L380 19C388 26 394 33 399 40C403 47 405 54 405 62L405 62L405 730C472 735 552 744 646 759C739 774 822 790 893 808L893 808L905 759C846 745 779 732 702 719L702 719C704 628 709 540 716 455L716 455L944 455L944 408L720 408C737 261 761 151 794 76L794 76C803 55 813 40 824 30C834 19 843 14 851 14L851 14C868 14 881 35 889 76L889 76C891 85 894 102 899 127C903 152 906 173 909 192L909 192ZM453 686L453 455L666 455C659 537 654 622 652 711L652 711C571 698 505 690 453 686L453 686ZM294 593L337 569C312 523 278 471 235 414L235 414L235-74L187-74L187 354C148 307 107 264 65 225L65 225L38 269C84 310 131 362 179 423C226 484 265 540 294 593L294 593Z"/>
    <glyph glyph-name="~" unicode="&#24446;"
      horiz-adv-x="1000" vert-adv-y="1172"
      d="M613 831L662 831C696 756 738 689 787 630C836 571 895 520 964 475L964 475L935 432C869 475 812 525 764 582C715 639 674 703 639 776L639 776C574 645 482 531 363 436L363 436L331 476C396 527 451 581 497 640C542 698 581 762 613 831L613 831ZM291 829L331 799C300 752 262 702 216 650C170 597 125 553 80 516L80 516L52 561C95 596 138 638 182 688C226 737 262 784 291 829L291 829ZM300 614L343 592C316 539 278 480 231 417L231 417L231-67L183-67L183 356C142 307 103 265 64 229L64 229L38 274C87 319 137 374 186 438C235 501 273 560 300 614L300 614ZM554 546L591 574C632 522 670 473 703 427L703 427L665 397C616 465 579 515 554 546L554 546ZM798 305L402 305L402 353L860 353L860 304C834 268 803 227 766 182C729 137 695 96 664 61L664 61L792-35L761-75C658 4 547 85 430 170L430 170L458 212L623 91C648 119 678 155 713 198C748 241 777 277 798 305L798 305Z"/>
    <glyph glyph-name="" unicode="&#24447;"
      horiz-adv-x="1000" vert-adv-y="1172"
      d="M716 309L910 309C911 288 909 256 907 214C904 171 900 141 896 124L896 124C889 92 879 70 864 58C849 45 828 40 801 41L801 41C786 40 771 42 757 47L757 47L748 88C759 84 774 82 793 82L793 82C812 82 825 86 833 95C840 103 846 118 851 139L851 139C860 180 863 221 860 262L860 262L716 262L716-72L671-72L671 262L532 262C529 207 520 160 506 122C492 84 471 50 443 19C414-12 375-43 324-76L324-76L292-35C339-5 377 24 404 53C431 82 450 112 463 145C475 178 483 217 486 262L486 262L325 262L345 506L488 506L488 656L322 656L322 704L488 704L488 838L534 838L534 704L671 704L671 840L716 840L716 704L879 704L879 459L716 459L716 309ZM260 826L300 800C275 758 241 710 198 657C155 604 113 558 73 520L73 520L42 559C80 595 120 639 162 690C204 741 237 787 260 826L260 826ZM671 506L671 656L534 656L534 506L671 506ZM716 506L831 506L831 656L716 656L716 506ZM248 571L288 547C265 500 239 456 210 414L210 414L210-83L163-83L163 348C128 301 92 260 56 224L56 224L27 263C67 303 108 352 149 409C190 466 223 520 248 571L248 571ZM488 459L389 459L377 309L488 309L488 342L488 459ZM534 340L534 309L671 309L671 459L534 459L534 340Z"/>
    <glyph glyph-name="" unicode="&#24451;"
      horiz-adv-x="1000" vert-adv-y="1172"
      d="M691 294L691 32L955 32L955-15L360-15L360 32L643 32L643 294L404 294L404 341L643 341L643 573L456 573C439 522 417 463 389 398L389 398L344 422C395 535 434 653 459 774L459 774L505 764C494 709 482 662 470 622L470 622L643 622L643 834L691 834L691 622L938 622L938 573L691 573L691 341L915 341L915 294L691 294ZM276 826L317 799C292 758 257 712 212 661C167 609 123 565 82 529L82 529L52 571C91 604 132 646 176 697C220 747 253 790 276 826L276 826ZM292 606L333 579C304 526 269 472 227 417L227 417L227-64L181-64L181 358C140 307 98 262 57 225L57 225L34 272C77 310 123 362 173 427C223 492 263 551 292 606L292 606Z"/>
    <glyph glyph-name="" unicode="&#24454;"
      horiz-adv-x="1000" vert-adv-y="1172"
      d="M83 544L55 587C96 621 138 661 180 707C222 752 255 794 279 833L279 833L320 805C293 764 258 719 214 670C169 621 126 579 83 544L83 544ZM341 781L935 781L935 733L733 733L733 561L891 561L891-64L846-64L846 15L422 15L422-65L378-65L378 561L536 561L536 733L341 733L341 781ZM580 733L580 561L690 561L690 733L580 733ZM277 594L319 568C297 526 267 477 228 422L228 422L228-69L180-69L180 359C137 305 96 261 59 226L59 226L38 276C79 313 122 361 167 422C212 483 249 540 277 594L277 594ZM422 514L422 59L846 59L846 238L771 238C750 238 733 241 722 246C711 251 703 260 698 273C693 286 690 305 690 331L690 331L690 514L580 514L580 495C580 438 577 391 570 356C563 320 552 289 537 262C521 235 498 206 468 174L468 174L434 205C463 235 485 262 499 286C513 310 523 338 528 369C533 400 536 443 536 498L536 498L536 514L422 514ZM787 284L846 284L846 514L733 514L733 352C733 333 734 318 737 309C740 300 745 293 752 290C759 286 771 284 787 284L787 284Z"/>
    <glyph glyph-name="" unicode="&#24461;"
      horiz-adv-x="1000" vert-adv-y="1172"
      d="M902 643L668 643L668 476L941 476L941 428L362 428L362 476L621 476L621 643L389 643L389 689L621 689L621 836L668 836L668 689L902 689L902 643ZM98 544L68 585C105 616 145 656 188 706C231 755 264 798 287 834L287 834L325 805C302 768 268 724 223 673C178 622 137 579 98 544L98 544ZM275 602L316 576C296 535 269 490 236 440L236 440L236-57L188-57L188 373C149 320 112 278 77 245L77 245L51 289C88 324 128 372 172 433C215 494 250 550 275 602L275 602ZM899 257L899 209L664 209L664 32L938 32L938-16L342-16L342 32L617 32L617 209L385 209L385 257L617 257L617 376L664 376L664 257L899 257Z"/>
    <glyph glyph-name="" unicode="&#24462;"
      horiz-adv-x="1000" vert-adv-y="1172"
      d="M288 833L328 803C297 760 260 714 217 666C174 617 130 574 87 536L87 536L57 580C98 613 140 654 184 703C228 751 263 794 288 833L288 833ZM412 522L412 775L869 775L869 522L412 522ZM461 728L461 568L820 568L820 728L461 728ZM289 591L331 565C306 518 272 466 231 409L231 409L231-73L183-73L183 346C138 289 96 244 59 210L59 210L32 255C74 292 120 344 171 411C222 477 261 537 289 591L289 591ZM898 173L670 173L670 29L953 29L953-16L323-16L323 29L621 29L621 173L383 173L383 219L621 219L621 358L367 358L367 406L922 406L922 358L670 358L670 219L898 219L898 173Z"/>
    <glyph glyph-name="" unicode="&#24463;"
      horiz-adv-x="1000" vert-adv-y="1172"
      d="M894 645L682 645L682 487L946 487L946 439L334 439L334 487L439 487L439 746L486 746L486 487L635 487L635 836L682 836L682 692L894 692L894 645ZM273 828L311 799C288 762 253 718 208 667C163 615 121 572 82 538L82 538L52 578C89 609 129 649 173 699C216 749 250 792 273 828L273 828ZM275 598L314 572C291 526 261 476 223 423L223 423L223-73L176-73L176 360C140 313 106 275 73 244L73 244L49 288C86 325 126 373 170 433C214 492 249 547 275 598L275 598ZM683 148L636 148L636 409L683 409L683 148ZM495 357L537 333C518 296 494 255 464 211C433 166 403 127 373 92L373 92L335 124C366 160 397 199 426 241C455 283 478 322 495 357L495 357ZM340-77L319-30C422-5 509 23 578 54C647 85 705 122 753 166C801 210 843 265 879 330L879 330L922 305C882 235 836 177 785 130C734 83 673 44 603 12C532-20 445-50 340-77L340-77Z"/>
    <glyph glyph-name="" unicode="&#24465;"
      horiz-adv-x="1000" vert-adv-y="1172"
      d="M289 837L332 806C303 763 265 716 220 665C174 613 129 567 86 528L86 528L55 574C95 607 138 650 185 702C231 754 266 799 289 837L289 837ZM364 723L364 771L928 771L928 723L364 723ZM517 335L470 311C443 361 403 424 351 501L351 501C370 528 389 558 409 593C429 628 446 660 459 689L459 689L509 671C496 645 480 615 460 581C439 546 422 520 409 501L409 501C424 480 442 453 465 418C488 383 505 356 517 335L517 335ZM655 689L705 670C691 643 674 612 654 579C634 546 617 520 604 501L604 501C619 481 637 455 658 422C679 389 698 360 713 335L713 335L666 311C634 366 594 429 545 501L545 501C565 528 585 560 606 595C626 630 642 661 655 689L655 689ZM852 689L901 670C889 645 873 616 853 583C833 549 816 522 801 501L801 501C818 476 837 448 857 418C876 387 894 360 909 335L909 335L862 311C827 372 786 436 740 501L740 501C759 527 779 558 800 593C821 628 838 660 852 689L852 689ZM288 596L331 570C306 521 273 468 232 410L232 410L232-73L180-73L180 340C135 283 94 237 58 204L58 204L36 257C75 292 120 344 170 411C220 478 259 540 288 596L288 596ZM909 223L663 223L663 22L956 22L956-26L306-26L306 22L610 22L610 223L363 223L363 271L909 271L909 223Z"/>
    <glyph glyph-name="" unicode="&#24467;"
      horiz-adv-x="1000" vert-adv-y="1172"
      d="M714 21C765 14 824 11 890 11L890 11C909 11 932 12 957 13L957 13L948-34C937-35 918-35 891-35L891-35C824-35 765-32 714-26L714-26C647-19 591-1 547 27C502 54 466 94 439 147L439 147C414 66 372-4 315-64L315-64L279-27C330 28 367 86 389 146C410 206 424 282 431 373L431 373L478 368C474 313 467 262 457 215L457 215C475 169 498 132 526 104C553 75 587 54 628 40L628 40L628 518L370 518L370 565L701 565C718 597 739 643 765 702C791 761 810 807 823 840L823 840L870 818C859 789 842 749 819 696C796 643 777 600 760 565L760 565L945 565L945 518L674 518L674 301L908 301L908 253L674 253L674 28C684 26 697 24 714 21L714 21ZM601 631L552 606C544 624 527 659 501 711C475 763 457 798 447 817L447 817L493 840C508 812 528 774 553 727C578 680 594 648 601 631L601 631ZM299 830L338 801C311 759 273 712 225 659C177 606 131 562 86 527L86 527L56 572C99 605 144 646 190 695C235 744 272 789 299 830L299 830ZM295 579L337 552C310 503 275 452 233 398L233 398L233-74L186-74L186 339C144 290 106 250 71 220L71 220L43 270C86 305 131 352 179 412C227 471 266 527 295 579L295 579Z"/>
    <glyph glyph-name="" unicode="&#24468;"
      horiz-adv-x="1000" vert-adv-y="1172"
      d="M299 830L337 797C310 756 273 709 226 658C178 606 131 563 86 528L86 528L56 572C100 605 145 646 191 695C236 744 272 789 299 830L299 830ZM527 663L527 562L480 562L480 663L347 663L347 710L480 710L480 829L527 829L527 710L752 710L752 829L799 829L799 710L940 710L940 663L799 663L799 562L752 562L752 663L527 663ZM705 20C746 17 805 15 882 15L882 15C918 15 942 15 953 16L953 16L945-32C932-33 906-33 869-33L869-33C793-33 738-32 703-29L703-29C647-24 604-17 573-8C542 1 516 18 495 43L495 43C480 64 467 74 456 74L456 74C448 74 435 64 417 45L417 45C406 32 393 17 380 0C366-17 354-33 344-46L344-46L305-13C318 4 348 40 397 96L397 96C412 112 423 123 432 128C440 133 448 135 457 135L457 135C468 135 478 131 487 124L487 124C550 159 611 202 670 252C728 301 773 350 805 397L805 397L388 397L388 444L640 444C626 485 609 527 590 572L590 572L634 591C653 548 671 499 690 444L690 444L874 444L874 396C833 338 781 282 720 229C659 175 592 127 520 85L520 85C539 62 562 47 588 39C613 31 652 25 705 20L705 20ZM295 579L334 549C307 502 274 452 235 400L235 400L235-74L187-74L187 340C145 291 106 251 71 220L71 220L43 270C85 305 130 352 178 412C226 471 265 527 295 579L295 579Z"/>
    <glyph glyph-name="" unicode="&#24470;"
      horiz-adv-x="1000" vert-adv-y="1172"
      d="M877 667L418 667L418 544L371 544L371 714L631 714C611 759 594 795 580 823L580 823L626 842C633 829 642 810 653 785C664 760 675 736 685 714L685 714L924 714L924 544L877 544L877 667ZM273 831L312 805C288 764 255 718 212 666C169 613 127 567 86 528L86 528L53 566C91 601 132 645 175 696C218 747 250 792 273 831L273 831ZM275 579L313 554C295 519 267 476 229 423L229 423L229-61L181-61L181 361C136 306 97 264 64 234L64 234L37 279C76 313 119 360 166 420C213 479 250 532 275 579L275 579ZM430 513L862 513L862 465L430 465L430 513ZM943 324L943 277L675 277L675 33C675-4 668-31 653-46C638-62 612-70 575-70L575-70C552-70 533-69 517-68C501-67 486-65 471-61L471-61L462-15C486-22 518-25 558-25L558-25C584-25 602-19 612-8C622 3 627 23 627 52L627 52L627 277L346 277L346 324L943 324ZM484 226L524 197C501 162 473 123 441 81C408 38 375 1 344-30L344-30L308 5C340 37 372 73 403 113C434 152 461 190 484 226L484 226ZM760 193L799 222C830 181 875 121 932 42L932 42L957 8L917-24C852 71 799 143 760 193L760 193Z"/>
    <glyph glyph-name="" unicode="&#24474;"
      horiz-adv-x="1000" vert-adv-y="1172"
      d="M887 273L680 273C715 222 755 177 801 136C847 95 901 59 962 26L962 26L938-16C876 18 822 55 777 96C732 137 692 182 657 232L657 232L657-71L612-71L612 230C575 179 533 133 485 92C437 51 380 12 314-24L314-24L289 20C355 55 412 93 461 134C510 175 553 222 590 273L590 273L384 273L384 578L612 578L612 681L348 681L348 728L612 728L612 839L657 839L657 728L936 728L936 681L657 681L657 578L887 578L887 273ZM284 820L322 794C295 752 258 705 211 653C163 600 117 558 74 526L74 526L50 568C90 597 133 637 179 687C224 737 259 781 284 820L284 820ZM282 580L321 556C297 513 266 465 227 413L227 413L227-70L182-70L182 356C141 307 104 267 71 236L71 236L45 279C84 314 128 361 175 420C222 479 257 533 282 580L282 580ZM612 316L612 535L428 535L428 316L612 316ZM657 316L843 316L843 535L657 535L657 316ZM466 484L502 504C532 455 557 411 578 371L578 371L542 350C521 391 496 435 466 484L466 484ZM729 347L693 367C705 386 718 408 733 434C747 459 758 482 767 502L767 502L805 485C782 438 756 392 729 347L729 347Z"/>
    <glyph glyph-name="" unicode="&#24475;"
      horiz-adv-x="1000" vert-adv-y="1172"
      d="M389 473L366 516C439 540 492 564 526 589C560 613 583 644 594 683L594 683L366 683L366 728L602 728C603 737 604 744 604 749L604 749C606 797 607 827 607 838L607 838L659 838C659 808 658 777 655 744L655 744L654 728L912 728L912 683L647 683C645 672 642 662 638 652L638 652C676 632 721 608 773 580C824 551 862 530 886 516L886 516L859 475C826 495 786 518 742 544C697 569 655 592 618 613L618 613C599 586 572 561 536 540C500 518 451 496 389 473L389 473ZM287 833L329 805C300 762 264 717 221 670C177 622 133 580 88 544L88 544L60 588C103 623 146 662 187 707C228 751 261 793 287 833L287 833ZM293 606L336 582C312 535 280 485 241 432L241 432L241-64L194-64L194 371C153 320 111 275 69 237L69 237L47 288C89 325 134 375 182 437C230 499 267 555 293 606L293 606ZM332 451L951 451L951 405L855 405L855 55C855 16 847-13 831-30C815-48 785-57 742-57L742-57C713-57 681-54 646-47L646-47L638-1C665-9 695-13 726-13L726-13C758-13 780-7 791 5C802 17 807 38 807 67L807 67L807 405L332 405L332 451ZM390 64L390 297L670 297L670 64L390 64ZM433 252L433 108L628 108L628 252L433 252Z"/>
    <glyph glyph-name="" unicode="&#24477;"
      horiz-adv-x="1000" vert-adv-y="1172"
      d="M663 585L868 585L868 24L956 24L956-21L311-21L311 24L412 24L412 585L615 585L615 693L358 693L358 738L615 738L615 833L663 833L663 738L927 738L927 693L663 693L663 585ZM289 828L330 801C305 760 269 712 221 657C173 602 127 554 84 514L84 514L53 556C93 592 137 637 184 691C231 744 266 790 289 828L289 828ZM296 591L338 567C311 515 276 460 233 403L233 403L233-72L185-72L185 342C148 297 108 255 65 216L65 216L40 261C85 301 132 352 181 415C230 478 268 536 296 591L296 591ZM460 444L820 444L820 540L460 540L460 444ZM460 401L460 304L820 304L820 401L460 401ZM460 163L820 163L820 260L460 260L460 163ZM820 24L820 119L460 119L460 24L820 24Z"/>
    <glyph glyph-name="" unicode="&#24478;"
      horiz-adv-x="1000" vert-adv-y="1172"
      d="M280 825L324 796C299 753 262 703 214 646C166 588 120 539 76 498L76 498L50 549C89 584 131 629 177 684C223 739 257 786 280 825L280 825ZM661 468L622 498C684 585 727 694 752 825L752 825L803 818C793 765 780 717 764 672L764 672C789 646 817 616 849 581C880 546 906 516 926 492L926 492L894 450C887 457 881 465 876 472C870 479 864 485 859 491L859 491C848 504 831 524 808 552C784 580 763 603 746 622L746 622C720 561 692 510 661 468L661 468ZM365 416L332 455C377 504 415 561 448 626C481 690 503 756 515 824L515 824L563 819C555 774 542 726 523 675L523 675C560 639 595 604 627 569L627 569L594 533C569 562 539 593 503 628L503 628C466 547 420 476 365 416L365 416ZM288 587L332 563C305 511 272 459 234 406L234 406L234-78L184-78L184 339C141 284 98 237 57 198L57 198L39 250C80 287 124 339 173 405C222 470 260 531 288 587L288 587ZM717 24C770 21 810 20 837 20L837 20C864 20 904 21 957 24L957 24L948-25C914-28 876-29 834-29L834-29C792-29 754-28 719-25L719-25C649-21 591-4 546 27C500 57 464 103 437 164L437 164C426 123 413 85 397 49C381 12 361-27 336-69L336-69L293-34C333 28 363 90 382 152C401 213 412 293 417 391L417 391L468 389C465 340 461 293 454 248L454 248C485 141 541 72 621 43L621 43L621 438L674 438L674 301L909 301L909 250L674 250L674 29C683 27 698 25 717 24L717 24Z"/>
    <glyph glyph-name="" unicode="&#24479;"
      horiz-adv-x="1000" vert-adv-y="1172"
      d="M267 838L308 808C282 767 247 719 202 665C157 610 115 564 76 526L76 526L48 570C85 605 124 648 168 701C211 753 244 799 267 838L267 838ZM374 425L374 775L892 775L892 50C892 11 883-17 866-35C849-54 819-63 776-63L776-63C747-63 716-59 685-52L685-52L676-5C699-12 730-16 771-16L771-16C800-16 819-10 830 2C841 13 846 33 846 61L846 61L846 729L420 729L420 415C420 322 417 249 412 196C406 143 396 97 382 58C367 19 345-25 314-73L314-73L270-49C301-2 323 41 337 78C351 115 361 159 366 210C371 261 374 332 374 425L374 425ZM812 394L459 394L459 436L608 436L608 554L476 554L476 597L608 597L608 699L653 699L653 597L785 597L785 554L653 554L653 436L812 436L812 394ZM265 596L307 571C280 518 249 466 216 417L216 417L216-69L168-69L168 351C134 306 97 264 58 223L58 223L38 273C87 324 129 374 164 425C199 476 233 533 265 596L265 596ZM510 65L510 297L747 297L747 65L510 65ZM552 254L552 108L705 108L705 254L552 254Z"/>
    <glyph glyph-name="" unicode="&#24480;"
      horiz-adv-x="1000" vert-adv-y="1172"
      d="M647 648L647 375C681 308 725 247 779 191C833 134 894 84 962 41L962 41L932-6C813 71 718 170 647 291L647 291L647-75L598-75L598 283C529 173 430 75 301-12L301-12L270 33C421 128 531 243 598 378L598 378L598 648L346 648L346 699L598 699L598 838L647 838L647 699L935 699L935 648L647 648ZM284 832L327 803C302 764 266 717 220 664C174 611 131 566 91 530L91 530L62 576C99 609 139 651 183 702C227 753 261 796 284 832L284 832ZM793 604L838 592C828 555 817 522 804 492L804 492C837 453 881 397 936 325L936 325L901 293C876 328 836 379 782 446L782 446C763 406 739 367 712 329L712 329L677 362C703 398 726 437 746 479C766 521 782 563 793 604L793 604ZM444 602L490 593C482 557 471 520 457 482L457 482C500 435 535 397 561 368L561 368L531 331C517 348 486 383 438 436L438 436C413 381 383 330 350 281L350 281L309 306C376 404 421 503 444 602L444 602ZM281 596L323 568C302 527 271 480 232 425L232 425L232-69L182-69L182 360C139 307 99 262 62 227L62 227L37 275C76 311 119 361 167 424C214 487 252 544 281 596L281 596Z"/>
    <glyph glyph-name="" unicode="&#24482;"
      horiz-adv-x="1000" vert-adv-y="1172"
      d="M713 14C753 11 815 9 899 9L899 9C928 9 946 9 955 10L955 10L947-34L900-35C825-35 761-34 709-31L709-31C635-26 576-14 533 5C489 24 452 56 421 99L421 99C397 38 355-18 296-68L296-68L258-35C307 4 342 45 364 88C385 131 398 184 401 247L401 247L450 243C448 210 444 180 437 155L437 155C456 122 478 96 504 76C529 56 561 41 599 31L599 31L599 279L359 279L359 321L599 321L599 418L338 418L338 460L599 460L599 557L365 557L365 599L599 599L599 697L351 697L351 740L599 740L599 842L645 842L645 740L925 740L925 697L645 697L645 599L866 599L866 460L953 460L953 418L866 418L866 279L645 279L645 180L913 180L913 137L645 137L645 21C673 17 696 15 713 14L713 14ZM279 832L321 805C292 761 255 713 210 661C165 609 121 564 80 527L80 527L50 566C91 601 132 644 175 694C218 743 252 789 279 832L279 832ZM274 576L312 553C289 510 262 465 230 419L230 419L230-67L183-67L183 355C146 307 106 262 63 220L63 220L41 266C82 305 124 353 168 411C211 468 247 523 274 576L274 576ZM821 460L821 557L645 557L645 460L821 460ZM821 321L821 418L645 418L645 321L821 321Z"/>
    <glyph glyph-name="" unicode="&#24483;"
      horiz-adv-x="1000" vert-adv-y="1172"
      d="M286 832L328 805C300 762 264 717 220 669C176 621 131 579 86 543L86 543L58 587C101 621 143 661 185 706C226 751 260 793 286 832L286 832ZM917 653L788 653L788 504L953 504L953 457L337 457L337 504L497 504L497 653L378 653L378 699L497 699L497 830L545 830L545 699L740 699L740 830L788 830L788 699L917 699L917 653ZM740 504L740 653L545 653L545 504L740 504ZM286 591L329 568C304 522 272 472 232 418L232 418L232-68L184-68L184 358C143 308 101 265 60 228L60 228L39 276C82 313 127 362 174 422C221 482 259 538 286 591L286 591ZM466-12L466-69L418-69L418 354L868 354L868-66L820-66L820-12L466-12ZM466 190L820 190L820 309L466 309L466 190ZM820 146L466 146L466 31L820 31L820 146Z"/>
    <glyph glyph-name="" unicode="&#24484;"
      horiz-adv-x="1000" vert-adv-y="1172"
      d="M732 743L883 743L883 604L952 604L952 564L883 564L883 425L732 425L732 326L906 326L906 287L732 287L732 191L935 191L935 150L732 150L732 53L690 53L690 150L504 150L504 191L690 191L690 287L537 287L537 326L690 326L690 425L550 425L550 464L690 464L690 564L522 564L522 604L690 604L690 704L551 704L551 743L690 743L690 844L732 844L732 743ZM236 830L273 808C252 766 222 719 183 666C144 613 106 567 69 530L69 530L49 578C84 613 119 654 154 701C189 748 216 791 236 830L236 830ZM629 26C683 21 753 19 840 19L840 19C869 19 904 20 944 21L944 21L936-21C900-22 869-23 842-23L842-23C767-23 694-21 624-16L624-16C527-9 450 26 391 89L391 89C364 40 330-9 289-59L289-59L252-29C299 23 335 74 361 125L361 125C321 181 291 254 272 344L272 344L312 354C329 281 352 220 383 171L383 171C413 245 432 334 440 438L440 438L312 438L312 480L435 714L292 714L292 759L483 759L483 713L360 480L481 480L481 435C475 370 466 314 456 266C445 217 430 173 412 132L412 132C467 68 539 33 629 26L629 26ZM841 604L841 704L732 704L732 604L841 604ZM231 592L271 571C252 528 228 479 197 424L197 424L197-73L154-73L154 353C120 300 88 257 57 223L57 223L38 271C70 308 105 358 142 419C179 480 208 538 231 592L231 592ZM732 564L732 464L841 464L841 564L732 564Z"/>
    <glyph glyph-name="" unicode="&#24485;"
      horiz-adv-x="1000" vert-adv-y="1172"
      d="M266 832L308 805C281 762 247 715 205 664C163 612 122 566 81 525L81 525L51 564C90 602 129 646 170 697C211 747 243 792 266 832L266 832ZM428 464L428 789L849 789L849 464L428 464ZM475 649L803 649L803 744L475 744L475 649ZM803 606L475 606L475 509L803 509L803 606ZM264 581L304 560C280 513 253 468 224 425L224 425L224-65L178-65L178 361C140 311 104 269 69 234L69 234L41 273C80 312 121 362 164 422C207 481 241 534 264 581L264 581ZM682 14C722 10 780 8 856 8L856 8C885 8 915 9 946 10L946 10L937-38C816-38 731-36 682-32L682-32C622-27 574-12 538 11C501 34 470 70 443 119L443 119C432 90 417 62 398 35C379 8 355-22 324-55L324-55L285-25C320 10 347 42 366 71C385 100 399 130 409 163C419 196 427 237 432 287L432 287L479 281C472 234 466 198 459 171L459 171C481 129 504 97 529 74C554 51 584 35 621 25L621 25L621 323L337 323L337 367L935 367L935 323L668 323L668 195L889 195L889 149L668 149L668 16C675 15 679 14 682 14L682 14Z"/>
    <glyph glyph-name="" unicode="&#24486;"
      horiz-adv-x="1000" vert-adv-y="1172"
      d="M83 532L58 575C95 606 133 645 172 691C211 737 242 780 266 820L266 820L304 792C279 748 245 702 205 655C164 607 123 566 83 532L83 532ZM386 188L596 188L596 141L386 141L386-66L340-66L340 778L586 778L586 519L386 519L386 380L576 380L576 333L386 333L386 188ZM640 729L640 777L883 777L883 521L636 521L636 569L836 569L836 729L640 729ZM386 565L540 565L540 730L386 730L386 565ZM247 556L286 533C265 490 241 451 216 414L216 414L216-71L169-71L169 348C131 298 92 254 53 216L53 216L32 263C72 304 111 350 150 403C189 455 221 506 247 556L247 556ZM776 113C820 66 880 24 957-14L957-14L932-60C853-19 790 28 744 79L744 79C692 28 620-22 528-69L528-69L500-27C591 19 662 67 713 116L713 116C666 181 633 261 614 356L614 356L594 356L594 403L895 403L895 355C871 258 831 178 776 113L776 113ZM849 356L660 356C676 274 704 205 745 150L745 150C793 206 828 275 849 356L849 356Z"/>
    <glyph glyph-name="" unicode="&#24487;"
      horiz-adv-x="1000" vert-adv-y="1172"
      d="M883 729L883 518L423 518L423 511C423 398 413 294 392 198C371 101 339 20 296-47L296-47L255-21C298 44 330 120 349 207C368 294 378 399 378 523L378 523L378 729L624 729L573 829L618 847L679 729L883 729ZM279 832L321 805C292 760 255 712 210 660C165 607 121 563 80 526L80 526L50 566C91 601 132 644 175 694C218 743 252 789 279 832L279 832ZM423 561L837 561L837 686L423 686L423 561ZM274 575L312 553C289 510 262 465 230 419L230 419L230-68L183-68L183 355C146 307 106 262 63 220L63 220L43 268C84 307 126 354 169 411C212 468 247 522 274 575L274 575ZM442-65L442 404L896 404L896 34C896 3 891-18 880-31C869-44 851-51 824-52L824-52C809-52 796-50 784-47L784-47L775-4C784-8 796-10 811-10L811-10C827-10 838-6 845 3C851 12 854 25 854 43L854 43L854 163L758 163L758-19L717-19L717 163L621 163L621-19L582-19L582 163L484 163L484-65L442-65ZM582 361L484 361L484 205L582 205L582 361ZM717 361L621 361L621 205L717 205L717 361ZM854 361L758 361L758 205L854 205L854 361Z"/>
    <glyph glyph-name="" unicode="&#24489;"
      horiz-adv-x="1000" vert-adv-y="1172"
      d="M957-28L944-75C820-45 718-10 639 29L639 29C554-12 446-48 315-77L315-77L301-33C416-8 513 21 590 56L590 56C531 90 482 130 441 175L441 175C402 134 362 98 319 69L319 69L293 108C332 134 369 166 405 203C440 240 471 279 498 320L498 320L416 320L416 608C397 579 376 551 352 524L352 524L319 562C350 597 382 640 413 693C444 746 469 796 487 845L487 845L536 830C527 805 513 776 496 741L496 741L935 741L935 696L471 696C451 661 433 632 417 609L417 609L866 609L866 320L552 320C540 300 524 276 503 248L503 248L866 248L866 207C821 148 762 97 688 55L688 55C766 20 856-7 957-28L957-28ZM280 835L324 808C297 764 260 714 213 659C166 604 121 556 78 517L78 517L46 558C88 595 131 640 176 693C221 746 255 793 280 835L280 835ZM272 584L314 560C289 511 261 464 231 419L231 419L231-66L183-66L183 352C140 295 100 247 61 210L61 210L37 257C78 297 121 348 166 410C211 472 246 530 272 584L272 584ZM465 486L818 486L818 568L465 568L465 486ZM818 361L818 445L465 445L465 361L818 361ZM807 206L472 206C515 158 571 116 639 79L639 79C710 116 766 159 807 206L807 206Z"/>
    <glyph glyph-name="" unicode="&#24491;"
      horiz-adv-x="1000" vert-adv-y="1172"
      d="M578 741L831 741L831 598L955 598L955 558L343 558L343 598L495 598L519 700L398 700L398 741L528 741L552 845L601 837L578 741ZM280 832L321 805C294 762 258 714 213 663C168 611 124 566 81 527L81 527L53 570C94 606 136 648 178 697C220 745 254 790 280 832L280 832ZM784 598L784 700L568 700L544 598L784 598ZM274 576L316 553C293 511 264 464 229 413L229 413L229-73L182-73L182 351C147 307 107 263 64 220L64 220L39 264C80 303 123 352 168 411C212 469 247 524 274 576L274 576ZM928 241L928 201L673 201L673 94L941 94L941 54L673 54L673-71L627-71L627 54L377 54L377 94L406 181L452 174L428 94L627 94L627 201L320 201L320 241L627 241L627 320L408 320L408 489L863 489L863 320L673 320L673 241L928 241ZM815 361L815 447L455 447L455 361L815 361Z"/>
    <glyph glyph-name="" unicode="&#24492;"
      horiz-adv-x="1000" vert-adv-y="1172"
      d="M351 538L501 538C496 579 487 627 475 684L475 684L340 684L340 729L619 729C600 781 585 816 576 835L576 835L625 850C644 805 660 764 673 729L673 729L913 729L913 684L772 684C768 649 759 601 745 538L745 538L905 538L905 401L861 401L861 494L395 494L395 401L351 401L351 538ZM279 832L321 805C292 761 255 713 210 661C165 609 121 564 80 527L80 527L50 566C91 601 132 644 175 694C218 743 252 789 279 832L279 832ZM549 538L699 538C714 609 723 658 726 684L726 684L521 684C530 643 539 594 549 538L549 538ZM273 575L311 553C284 503 256 458 228 418L228 418L228-67L182-67L182 355C141 304 101 259 62 220L62 220L42 268C83 307 124 354 168 411C211 468 246 522 273 575L273 575ZM935 307L523 307C522 276 519 249 515 225L515 225L513 208L835 208C834 158 828 105 819 48L819 48C812 9 801-19 785-36C768-53 740-61 700-61L700-61C681-61 659-60 635-57C610-55 590-52 575-48L575-48L566-3C604-11 645-15 689-15L689-15C717-15 737-9 748 2C759 13 767 32 773 59L773 59C781 96 785 130 785 162L785 162L505 162C493 111 471 67 440 31C408-6 359-43 293-82L293-82L266-40C315-14 353 11 380 36C407 60 428 87 442 118C455 148 464 186 469 232L469 232C472 255 475 280 476 307L476 307L326 307L326 351L623 351C618 362 615 371 613 376L613 376C592 425 580 451 578 454L578 454L624 469L675 351L935 351L935 307Z"/>
    <glyph glyph-name="" unicode="&#24495;"
      horiz-adv-x="1000" vert-adv-y="1172"
      d="M282 834L323 808C296 764 260 715 213 660C166 605 122 558 79 519L79 519L48 557C90 594 133 639 178 692C223 745 257 792 282 834L282 834ZM915 810L922 767C853 758 761 748 647 738C532 728 435 721 354 718L354 718L350 762C433 766 532 773 645 782C758 791 848 801 915 810L915 810ZM789 553L754 582C801 637 837 685 862 726L862 726L900 700C887 679 869 655 847 626C825 597 806 573 789 553L789 553ZM694 583L654 563C613 646 588 694 581 705L581 705L620 724C629 707 644 681 663 645C682 608 692 588 694 583L694 583ZM507 575L469 550C465 557 435 601 380 681L380 681L415 706C426 691 442 669 462 641C481 613 496 591 507 575L507 575ZM939 134L655 134C679 93 716 58 765 31C814 4 877-17 955-32L955-32L940-76C787-45 680 16 621 109L621 109C601 66 567 30 518 1C469-28 397-54 303-78L303-78L285-36C348-21 400-5 439 11C478 26 509 44 532 64C554 83 570 107 581 134L581 134L319 134L319 174L593 174C597 189 601 212 606 245L606 245L609 268L465 256L368 245L361 287C387 290 407 295 422 303L422 303C477 332 546 373 628 428L628 428C571 425 511 420 448 414L448 414C419 411 397 408 383 405L383 405L375 445C394 448 408 451 419 456L419 456C443 470 471 490 504 515C536 540 565 566 590 591L590 591L621 560C567 511 522 475 486 452L486 452L687 469C723 494 757 520 790 547L790 547L820 514C711 427 602 353 492 294L492 294L828 320L759 396L790 424C851 362 899 309 935 265L935 265L902 236L886 254L861 283L831 281C792 280 734 276 657 271L657 271C652 232 647 200 642 174L642 174L939 174L939 134ZM274 583L314 563C295 523 267 475 231 420L231 420L231-63L185-63L185 355C146 302 105 254 62 211L62 211L39 256C80 295 122 346 168 408C213 470 248 528 274 583L274 583Z"/>
    <glyph glyph-name="" unicode="&#24496;"
      horiz-adv-x="1000" vert-adv-y="1172"
      d="M273 835L313 808C286 765 252 718 211 666C169 614 128 568 88 529L88 529L58 568C96 606 135 650 176 701C217 751 249 796 273 835L273 835ZM674 588L674 475L938 475L938 430L336 430L336 475L429 475L429 664L476 664L476 475L627 475L627 743L368 743L368 788L919 788L919 743L674 743L674 631L890 631L890 588L674 588ZM264 580L302 555C283 517 257 473 223 422L223 422L223-73L176-73L176 357C141 310 105 269 68 232L68 232L41 272C80 311 121 361 164 420C207 479 240 533 264 580L264 580ZM890 129L674 129L674 17L945 17L945-28L301-28L301 17L429 17L429 204L476 204L476 17L627 17L627 284L369 284L369 328L919 328L919 284L674 284L674 170L890 170L890 129Z"/>
    <glyph glyph-name="" unicode="&#24497;"
      horiz-adv-x="1000" vert-adv-y="1172"
      d="M268 830L309 806C283 763 249 716 207 665C165 614 124 568 84 528L84 528L54 566C93 605 133 649 173 698C213 747 245 791 268 830L268 830ZM371 431L371 638L532 638L532 742L339 742L339 784L925 784L925 742L731 742L731 638L894 638L894 431L371 431ZM574 742L574 638L689 638L689 742L574 742ZM532 472L532 597L413 597L413 472L532 472ZM689 472L689 597L574 597L574 472L689 472ZM731 597L731 472L850 472L850 597L731 597ZM259 573L298 553C279 514 253 470 220 421L220 421L220-73L174-73L174 357C138 310 101 267 64 230L64 230L37 270C76 311 117 360 160 418C203 475 236 527 259 573L259 573ZM380 343L886 343L886 303L380 303L380 343ZM944 219L944 177L662 177L662 39C662 4 655-21 640-37C625-54 598-62 561-62L561-62C530-62 499-58 470-51L470-51L462-9C484-16 513-20 548-20L548-20C575-20 593-14 603-3C613 8 618 26 618 51L618 51L618 177L332 177L332 219L944 219ZM464 145L497 115C476 91 448 64 413 33C378 2 343-26 308-51L308-51L277-18C310 5 343 31 378 62C413 93 441 120 464 145L464 145ZM746 106L778 137C857 68 914 17 947-16L947-16L915-48C898-31 855 8 784 71L784 71C781 74 768 86 746 106L746 106Z"/>
    <glyph glyph-name="" unicode="&#24498;"
      horiz-adv-x="1000" vert-adv-y="1172"
      d="M267 815L305 787C282 746 250 702 208 653C165 604 123 562 81 525L81 525L57 569C96 603 135 643 175 690C215 737 246 778 267 815L267 815ZM899 781L899 592L417 592L417 515C417 410 414 328 409 269C404 210 393 156 377 106C361 56 335-2 300-69L300-69L256-47C292 16 318 72 334 120C350 167 360 219 365 274C370 329 372 410 372 515L372 515L372 781L899 781ZM417 635L854 635L854 738L417 738L417 635ZM677 554L720 554L720 337L677 337L677 554ZM246 553L285 529C263 485 240 445 216 409L216 409L216-71L171-71L171 346C131 294 91 249 50 210L50 210L30 259C71 300 111 346 149 397C186 448 219 500 246 553L246 553ZM763 452L749 490C809 513 860 534 903 553L903 553L918 513C899 504 874 494 843 482C812 469 785 459 763 452L763 452ZM473 511L487 547C530 532 580 512 637 487L637 487L622 447C576 468 526 490 473 511L473 511ZM750 392L763 429C823 406 882 383 939 360L939 360L924 320C890 335 832 359 750 392L750 392ZM468 321L453 361C476 370 505 381 540 394C574 407 602 419 625 428L625 428L632 405L639 389C548 354 491 332 468 321L468 321ZM719 97L950 97L950 53L719 53L719-75L676-75L676 53L425 53L425 97L676 97L676 197L539 197C525 168 510 141 493 114L493 114L454 138C492 197 520 255 539 314L539 314L578 296C573 277 566 258 557 238L557 238L676 238L676 317L719 317L719 238L905 238L905 197L719 197L719 97Z"/>
    <glyph glyph-name="" unicode="&#24499;"
      horiz-adv-x="1000" vert-adv-y="1172"
      d="M335 326L335 603L588 603L588 700L311 700L311 745L588 745L588 844L636 844L636 745L931 745L931 700L636 700L636 603L888 603L888 326L335 326ZM259 836L301 809C274 765 240 717 199 664C157 611 116 565 75 524L75 524L44 565C83 604 122 649 163 700C204 751 236 796 259 836L259 836ZM247 590L288 565C267 521 242 475 212 428L212 428L212-69L163-69L163 356C129 309 93 266 55 227L55 227L25 267C64 308 105 360 148 422C191 484 224 540 247 590L247 590ZM504 370L504 557L382 557L382 370L504 370ZM550 370L672 370L672 557L550 557L550 370ZM716 557L716 370L840 370L840 557L716 557ZM690 146L653 121C600 197 568 242 558 256L558 256L594 282C601 272 628 234 675 168L675 168L690 146ZM287-3L244 18C263 51 281 87 300 128C318 169 333 207 345 242L345 242L390 229C378 192 363 153 344 111C325 68 306 30 287-3L287-3ZM802 218L844 238C864 201 901 129 954 20L954 20L909-2C878 68 842 141 802 218L802 218ZM735 61L738 121L739 154L783 145L780 48C779 26 775 9 768-2C761-14 751-23 737-28C722-33 702-37 676-38L676-38C645-39 622-40 607-40L607-40C592-40 569-39 538-38L538-38C503-37 479-30 466-17C452-4 445 19 445 54L445 54L445 235L493 235L493 64C493 43 497 28 505 21C513 13 527 8 548 7L548 7L611 6L675 7C698 8 713 13 722 20C730 27 734 41 735 61L735 61Z"/>
    <glyph glyph-name="" unicode="&#24500;"
      horiz-adv-x="1000" vert-adv-y="1172"
      d="M560 577L560 774L603 774L603 534L295 534L295 774L339 774L339 577L428 577L428 846L473 846L473 577L560 577ZM964-25L931-60C871 3 823 67 788 132L788 132C752 67 704 1 644-66L644-66L611-30C646 7 675 43 700 77C725 110 746 145 763 180L763 180C723 266 696 368 682 487L682 487C669 457 656 430 642 406L642 406L613 446C640 493 664 554 687 628C709 701 725 772 736 841L736 841L780 834C771 776 759 723 746 675L746 675L960 675L960 628L902 628C895 529 885 444 871 374C857 303 837 239 812 182L812 182C849 111 899 42 964-25L964-25ZM229 828L268 804C245 761 216 715 181 667C146 618 110 576 75 540L75 540L48 580C81 614 115 654 148 699C181 744 208 787 229 828L229 828ZM715 571C721 503 730 442 742 388C753 333 768 283 787 236L787 236C806 286 821 342 832 405C843 467 851 541 856 628L856 628L733 628C728 609 722 590 715 571L715 571ZM226 588L264 570C247 529 224 483 195 433L195 433L195-68L149-68L149 361C121 319 91 281 58 248L58 248L39 295C70 327 103 372 140 430C177 487 205 540 226 588L226 588ZM472 210L472 63L632 63L632 18L252 18L252 63L425 63L425 210L285 210L285 255L425 255L425 383L278 383L278 429L615 429L615 383L472 383L472 255L608 255L608 210L472 210Z"/>
    <glyph glyph-name="" unicode="&#24502;"
      horiz-adv-x="1000" vert-adv-y="1172"
      d="M67 558L46 602C81 633 115 669 149 710C182 751 211 792 235 832L235 832L272 808C247 766 217 723 180 678C143 633 106 593 67 558L67 558ZM966-18L934-56C879 7 835 69 802 131L802 131C769 66 722 3 662-59L662-59L630-23C665 12 694 46 718 79C742 112 762 146 779 181L779 181C742 264 716 365 702 483L702 483C695 465 685 444 673 420L673 420L643 458C667 505 690 563 711 634C732 705 747 770 756 830L756 830L800 824C793 773 780 718 763 658L763 658L956 658L956 611L904 611C897 512 889 429 878 363C867 297 849 237 826 182L826 182C858 115 905 49 966-18L966-18ZM484 548L637 548L637 38C637 11 631-8 620-20C609-33 590-39 564-39L564-39C547-39 534-37 523-34L523-34L514 9C525 6 536 4 545 4L545 4C566 4 580 7 587 14C594 21 598 32 598 49L598 49L598 504L484 504L484-24L445-24L445 504L331 504L331-41L291-41L291 548L445 548L445 828L484 828L484 548ZM617 795L653 776C642 752 626 722 607 685C587 648 569 618 554 593L554 593L518 610C533 634 550 664 569 700C588 736 604 768 617 795L617 795ZM411 611L373 594C370 602 357 629 334 674C311 719 293 753 282 775L282 775L318 792C329 770 345 740 365 702C385 663 400 633 411 611L411 611ZM734 566C740 497 749 436 760 383C771 330 785 281 802 236L802 236C819 283 833 335 842 394C851 453 858 525 864 611L864 611L749 611C748 606 746 600 744 593C741 585 738 576 734 566L734 566ZM223 590L264 568C241 521 218 478 195 441L195 441L195-68L153-68L153 376C118 324 84 281 53 247L53 247L31 292C66 331 101 379 138 434C174 489 202 541 223 590L223 590ZM375 137L340 144C365 249 384 336 395 405L395 405L430 399C424 363 416 319 405 268C394 216 384 172 375 137L375 137ZM589 151L554 143C552 155 538 216 513 325L513 325C507 348 503 365 501 376C498 387 497 394 496 397L496 397L531 404C538 375 548 333 561 279C573 225 582 182 589 151L589 151Z"/>
    <glyph glyph-name="" unicode="&#24504;"
      horiz-adv-x="1000" vert-adv-y="1172"
      d="M758 587L948 587L948 543L325 543L325 587L496 587L474 697L352 697L352 741L622 741C603 786 589 814 582 827L582 827L631 845C642 822 658 787 678 741L678 741L909 741L909 697L780 697C775 661 767 624 758 587L758 587ZM261 834L301 808C274 762 241 713 201 661C160 608 120 561 79 519L79 519L48 557C86 596 125 641 165 693C204 744 236 791 261 834L261 834ZM732 697L521 697L544 587L711 587C722 640 729 677 732 697L732 697ZM251 582L291 558C274 521 250 477 219 428L219 428L219-75L174-75L174 361C137 309 99 262 59 220L59 220L30 259C69 300 110 352 153 414C195 475 228 531 251 582L251 582ZM897 119L897 78L650 78L650 3L948 3L948-38L297-38L297 3L605 3L605 78L356 78L356 119L605 119L605 202L379 202L379 468L874 468L874 202L650 202L650 119L897 119ZM425 354L605 354L605 428L425 428L425 354ZM650 428L650 354L828 354L828 428L650 428ZM605 315L425 315L425 241L605 241L605 315ZM828 315L650 315L650 241L828 241L828 315Z"/>
    <glyph glyph-name="" unicode="&#24505;"
      horiz-adv-x="1000" vert-adv-y="1172"
      d="M567 512L370 489C358 488 337 484 308 479L308 479L297 523C305 526 311 528 315 531C319 534 323 538 327 544L327 544C338 558 350 579 365 606C380 633 394 660 407 688L407 688L291 688L291 731L451 731C439 770 427 807 414 840L414 840L459 852C472 818 486 778 499 731L499 731L645 731L645 688L457 688C436 647 420 614 407 589C394 564 382 544 370 528L370 528L469 543C489 545 515 549 548 554L548 554L535 580C520 612 510 633 504 643L504 643L542 661L580 581C594 550 608 520 623 491L623 491L584 472L567 512ZM968-28L936-67C868 3 817 68 784 127L784 127C749 63 701-3 638-72L638-72L603-36C669 33 720 104 757 177L757 177C720 254 695 345 682 449L682 449C670 416 657 383 643 350L643 350L613 388C640 457 665 533 688 615C711 697 728 772 741 839L741 839L787 835C774 766 760 706 746 655L746 655L960 655L960 609L897 609C890 513 880 431 867 363C853 294 833 232 808 177L808 177C844 111 897 43 968-28L968-28ZM64 519L42 569C79 606 117 649 156 699C195 749 225 794 247 833L247 833L286 809C263 766 231 717 188 661C145 605 103 558 64 519L64 519ZM712 538C721 420 744 318 781 232L781 232C801 281 817 336 829 397C840 458 849 528 855 609L855 609L734 609C723 570 715 547 712 538L712 538ZM237 597L280 576C261 529 236 479 205 426L205 426L205-72L156-72L156 346C120 291 86 245 55 210L55 210L35 261C69 300 106 352 145 417C184 482 214 542 237 597L237 597ZM372-62L328-62L328 429L589 429L589 23C589-8 584-30 575-41C566-52 547-58 519-58L519-58C504-58 481-57 450-54L450-54L443-10C471-13 492-14 507-14L507-14C522-14 532-11 537-4C542 3 544 16 544 35L544 35L544 121L372 121L372-62ZM372 293L544 293L544 387L372 387L372 293ZM544 253L372 253L372 161L544 161L544 253Z"/>
    </font>
</defs>
</svg>
