<svg xmlns="http://www.w3.org/2000/svg">
<!--
Copyright 2021 Huawei Device Co., Ltd. All Rights Reserved.
  -->

  <defs>
    <font name="HarmonyOS Sans SC"
      horiz-adv-x="1000" vert-adv-y="1000" >
    <font-face font-family="HarmonyOS Sans SC" font-weight="400"
      font-stretch="normal"
      units-per-em="1000"
      ascent="928"
      descent="-244"/>
    <glyph glyph-name="Ï" unicode="&#24271;"
      horiz-adv-x="1000" vert-adv-y="1172"
      d="M585 743L936 743L936 673L192 673L192 409C192 322 189 251 183 197C177 143 167 96 154 55C140 14 119-30 92-79L92-79L22-44C49 4 70 47 84 86C97 124 107 167 112 214C117 261 120 323 120 399L120 399L120 743L499 743C482 776 465 803 450 824L450 824L523 856C554 801 575 763 585 743L585 743ZM408 575L534 575L534 270L246 270L246 575L332 575C347 604 359 632 370 659L370 659L439 646C433 628 423 604 408 575L408 575ZM945 389L872 389C849 389 833 396 823 410C812 424 807 446 807 477L807 477L807 562L686 562L686 528C686 499 679 469 666 440C652 411 631 385 603 363L603 363L555 409C579 426 597 447 609 472C620 496 626 524 626 557L626 557L626 628L869 628L869 501C869 482 871 470 877 464C882 458 891 455 906 455L906 455L956 455L945 389ZM307 451L473 451L473 520L307 520L307 451ZM473 395L307 395L307 326L473 326L473 395ZM966-10L937-73C866-52 802-14 745 39L745 39C690-8 627-47 554-78L554-78L524-16C596 13 655 47 700 86L700 86C654 141 621 201 600 267L600 267L585 267L585 331L911 331L911 265C882 200 842 140 793 85L793 85C846 38 904 6 966-10L966-10ZM839 267L667 267C685 219 712 174 747 132L747 132C780 169 811 214 839 267L839 267ZM477 118L541 101C540 76 538 56 535 41L535 41C532 18 527 1 518-9C509-20 497-28 482-31C467-35 446-38 417-39L417-39C410-40 400-40 386-40L386-40C371-40 361-40 354-39L354-39C327-38 306-35 292-31C278-27 267-19 260-8C252 3 248 19 248 41L248 41L248 238L311 238L311 144C346 157 382 172 419 189C455 206 484 221 506 235L506 235L534 177C509 163 474 146 431 127C387 107 347 90 311 75L311 75L311 67C311 49 315 38 323 33C331 28 346 24 369 23L369 23C375 22 384 22 397 22L397 22C424 22 443 25 454 32C464 38 470 52 473 73L473 73C474 84 476 99 477 118L477 118Z"/>
    <glyph glyph-name="Ð" unicode="&#24272;"
      horiz-adv-x="1000" vert-adv-y="1172"
      d="M584 741L938 741L938 672L195 672L195 407C195 320 192 249 186 195C180 141 170 94 156 54C142 13 121-32 94-81L94-81L24-46C51 2 72 45 86 84C99 122 109 165 114 212C119 259 122 321 122 397L122 397L122 741L501 741C490 764 475 792 455 826L455 826L528 854C552 809 571 772 584 741L584 741ZM566 63L515 33L495 71C441 47 390 23 343 0L343 0C312-17 293-28 287-32L287-32L251 26C261 32 268 38 272 43C276 48 278 54 278 62L278 62L278 612L524 612L524 247L344 247L344 70C351 75 391 95 463 130L463 130C441 168 427 192 421 201L421 201L472 232C506 173 537 117 566 63L566 63ZM883 153L942 140C942 125 942 106 941 84C940 61 939 43 938 29L938 29C937 2 930-15 919-24C907-33 885-39 853-42L853-42C846-43 839-43 830-43C821-43 814-43 807-42L807-42C777-39 756-32 745-22C734-12 728 6 728 33L728 33L728 158C687 76 622 0 534-71L534-71L488-18C555 34 605 84 639 132C672 179 696 231 710 288L710 288L582 288L582 357L597 508L668 502L651 362L724 362L730 426L732 453C733 466 734 479 735 495C736 510 736 525 737 542L737 542L580 542L580 606L925 606L925 542L802 542L794 429C793 406 791 384 788 362L788 362L934 362L934 288L775 288C771 271 766 253 760 236L760 236L790 236L790 50C790 39 792 32 797 29C802 25 811 23 824 23L824 23L843 23C856 23 865 25 870 29C875 33 878 40 879 51L879 51L883 153ZM344 459L460 459L460 553L344 553L344 459ZM460 400L344 400L344 308L460 308L460 400Z"/>
    <glyph glyph-name="Ô" unicode="&#24276;"
      horiz-adv-x="1000" vert-adv-y="1172"
      d="M946 135L791 135C764 96 731 64 692 39L692 39C789 16 866-4 925-20L925-20L902-77C830-56 735-29 617 2L617 2C574-15 521-30 458-42C395-55 317-66 226-76L226-76L209-15C337-5 438 10 512 29L512 29C469 40 411 54 336 71L336 71C359 94 379 116 396 135L396 135L212 135L212 186L438 186C451 203 464 220 477 239L477 239L288 239L288 374L547 374L547 414L294 414L294 500L226 500L226 546L294 546L294 636L547 636L547 704L195 704L195 420C195 308 189 217 176 147C163 77 139 5 102-68L102-68L33-39C68 33 92 103 105 170C118 237 125 325 125 436L125 436L125 765L502 765C489 788 476 810 461 833L461 833L539 852C553 830 570 801 589 765L589 765L942 765L942 704L615 704L615 636L867 636L867 546L937 546L937 500L867 500L867 414L615 414L615 374L875 374L875 239L512 239L548 228L521 186L946 186L946 135ZM361 546L547 546L547 589L361 589L361 546ZM615 546L799 546L799 589L615 589L615 546ZM547 501L361 501L361 459L547 459L547 501ZM799 501L615 501L615 459L799 459L799 501ZM547 285L547 326L355 326L355 285L547 285ZM615 285L806 285L806 326L615 326L615 285ZM605 60C649 79 684 104 709 135L709 135L484 135C469 118 458 105 450 96L450 96L605 60Z"/>
    <glyph glyph-name="Õ" unicode="&#24277;"
      horiz-adv-x="1000" vert-adv-y="1172"
      d="M593 755L953 755L953 688L193 688L193 423C193 335 190 264 185 209C179 154 169 106 156 63C143 20 123-26 96-75L96-75L31-35C58 12 79 56 92 96C105 135 113 179 118 226C123 273 125 337 125 417L125 417L125 755L513 755C494 804 482 835 475 848L475 848L553 862C562 839 576 803 593 755L593 755ZM972 455L939 397C830 459 751 528 700 604L700 604C675 564 645 529 612 498C579 467 536 435 484 404L484 404L446 460C498 491 542 522 578 555C613 587 643 624 668 666L668 666L730 666C783 581 864 511 972 455L972 455ZM469 632L469 572L407 375C448 308 469 244 469 185L469 185C469 138 462 106 449 89C436 72 413 63 382 63L382 63C368 63 351 65 331 68L331 68L318 132C331 127 348 125 369 125L369 125C384 125 395 131 400 142C405 153 407 172 407 201L407 201C407 246 385 300 342 362L342 362L408 572L305 572L305-72L243-72L243 632L469 632ZM509 229L509 284L720 284C737 303 754 322 771 343L771 343C774 346 779 351 784 358L784 358L535 358L535 412L701 412C688 439 670 467 649 498L649 498L696 525C720 493 739 463 754 435L754 435L713 412L856 412L856 358L791 284L901 284L901 229L509 229ZM943 117L815 117C836 96 860 71 887 43C913 15 935-10 952-32L952-32L906-72L867-25C744-27 649-30 581-35L581-35C550-37 520-40 493-43L493-43L480 14C493 16 502 18 508 21C514 24 520 27 526 32L526 32C554 53 583 81 613 117L613 117L486 117L486 174L943 174L943 117ZM594 19L819 28C792 57 774 75 765 83L765 83L801 117L693 117C658 75 625 42 594 19L594 19Z"/>
    <glyph glyph-name="×" unicode="&#24279;"
      horiz-adv-x="1000" vert-adv-y="1172"
      d="M601 765L944 765L944 704L198 704L198 431C198 344 195 273 190 220C185 167 175 118 161 75C147 31 126-16 97-67L97-67L31-27C58 20 79 64 93 105C106 146 115 193 120 244C125 295 127 364 127 450L127 450L127 765L520 765C505 800 495 825 488 840L488 840L564 856L601 765ZM738 667L797 667L797 580L934 580L934 522L797 522L797 466C797 452 799 443 804 439C809 434 818 432 832 432L832 432L840 432C853 432 862 434 868 439C873 444 875 453 875 467L875 467L875 504L931 492C931 470 931 452 930 439L930 439C929 416 923 400 912 392C901 384 881 380 852 380L852 380L817 380C787 380 766 384 755 393C744 402 738 418 738 443L738 443L738 522L667 522L667 388L462 388L462 522L390 522C389 483 380 449 363 422C346 394 318 367 279 341L279 341L910 341L910 206L838 206L838 284L313 284L313 206L241 206L241 341L274 341L228 385C263 407 289 427 304 446C319 465 328 490 330 522L330 522L227 522L227 580L330 580L330 666L390 666L390 580L462 580L462 672L524 672L524 580L606 580L606 672L667 672L667 580L738 580L738 667ZM524 522L524 442L606 442L606 522L524 522ZM531 266L599 266L599 196L838 196L838 50C838 21 830 0 815-13C799-26 769-33 726-33L726-33C709-33 688-31 661-26L661-26L649 33C668 28 689 25 713 25L713 25C735 25 750 28 759 36C767 43 771 53 771 68L771 68L771 138L599 138L599-76L531-76L531 138L376 138L376-20L308-20L308 196L531 196L531 266Z"/>
    <glyph glyph-name="Ø" unicode="&#24280;"
      horiz-adv-x="1000" vert-adv-y="1172"
      d="M902 134L965 115C964 95 962 73 959 49L959 49C956 24 953 6 949-7C944-20 936-29 925-36C914-43 897-47 874-48L874-48C845-49 822-50 805-50L805-50C792-50 773-49 749-48L749-48C723-46 703-42 689-37C675-32 664-24 657-12C650 0 646 17 646 40L646 40L646 263L455 263L455 179L611 179L611 118L455 118L455 28L618 66L619 4C548-11 493-24 452-35L452-35C427-42 403-49 382-58L382-58L356 2C368 8 376 14 381 20C386 25 388 32 388 39L388 39L388 263L330 263C329 192 321 131 307 80C292 29 268-23 233-76L233-76L173-38C209 17 233 70 246 121C259 171 265 237 265 318L265 318L265 613L557 613L529 665L572 679L191 679L191 413C191 324 188 252 183 199C178 146 169 99 156 58C143 17 123-27 96-75L96-75L31-37C58 10 77 53 90 91C103 128 111 170 116 216C120 262 122 324 122 403L122 403L122 747L496 747C484 778 471 807 456 834L456 834L530 860C545 830 561 792 579 747L579 747L952 747L952 679L600 679C615 654 627 632 636 613L636 613L940 613L940 549L727 549L727 460L912 460L912 263L714 263L714 161C783 179 847 199 906 221L906 221L926 157C858 134 787 114 714 95L714 95L714 67C714 52 715 41 717 35C718 28 722 23 729 21C735 18 745 15 759 14L759 14C776 12 790 11 801 11L801 11C812 11 824 12 838 14L838 14C860 17 875 22 883 29C890 36 895 49 897 70L897 70C900 105 902 127 902 134L902 134ZM331 460L463 460L463 549L331 549L331 460ZM531 549L531 460L661 460L661 549L531 549ZM463 321L463 403L331 403L331 321L463 321ZM661 321L661 403L531 403L531 321L661 321ZM727 321L844 321L844 403L727 403L727 321Z"/>
    <glyph glyph-name="Ù" unicode="&#24281;"
      horiz-adv-x="1000" vert-adv-y="1172"
      d="M585 781L935 781L935 715L191 715L191 408C191 321 188 251 182 198C176 144 166 97 153 56C139 15 118-30 91-79L91-79L21-44C48 5 69 48 83 86C96 124 106 167 112 214C117 261 120 323 120 399L120 399L120 781L504 781C495 806 487 827 478 843L478 843L553 863C564 842 575 815 585 781L585 781ZM948 79L219 79L219 143L405 143L405 199L255 199L255 264L405 264L405 342L279 342L279 652L892 652L892 342L749 342L749 264L908 264L908 199L749 199L749 143L948 143L948 79ZM347 525L545 525L545 592L347 592L347 525ZM614 592L614 525L825 525L825 592L614 592ZM545 405L545 465L347 465L347 405L545 405ZM825 465L614 465L614 405L825 405L825 465ZM682 264L682 342L471 342L471 264L682 264ZM682 143L682 199L471 199L471 143L682 143ZM215-84L197-17C308 9 406 38 490 69L490 69L516 12C393-34 292-66 215-84L215-84ZM617 12L635 68C733 45 841 16 960-21L960-21L941-86C817-47 709-14 617 12L617 12Z"/>
    <glyph glyph-name="Ú" unicode="&#24282;"
      horiz-adv-x="1000" vert-adv-y="1172"
      d="M597 748L945 748L945 680L200 680L200 427C200 340 197 268 191 213C185 157 175 108 162 65C148 22 128-24 102-71L102-71L36-40C64 13 85 58 98 96C111 133 119 176 124 223C129 270 131 335 131 418L131 418L131 748L512 748C497 778 483 804 470 825L470 825L546 850C559 827 576 793 597 748L597 748ZM457 591L607 591L607 532L457 532L457 463L587 463L587 404L262 404L262 463L391 463L391 532L236 532L236 591L391 591L391 651L457 651L457 591ZM872 507L959 507L959 440L872 440L872 52C872 9 864-22 847-40C830-58 800-67 755-67L755-67C728-67 696-63 657-55L657-55L644 13C684 5 713 1 732 1L732 1C759 1 778 7 788 19C798 31 803 49 803 72L803 72L803 440L624 440L624 507L803 507L803 648L872 648L872 507ZM772 181L711 156C697 187 681 222 662 262C643 301 627 334 614 359L614 359L673 388C688 360 705 325 726 283C746 240 761 206 772 181L772 181ZM275 357L573 357L573 176L275 176L275 357ZM510 233L510 303L338 303L338 233L510 233ZM488 165L546 136C533 108 518 78 500 46L500 46L624 58L624-6C575-11 497-19 390-30C283-41 223-46 210-47L210-47L203 19L341 31C337 38 331 51 323 68L323 68C312 91 300 114 288 137L288 137L341 163C365 122 384 87 398 56L398 56L352 32C366 34 390 36 424 39L424 39C443 72 464 114 488 165L488 165Z"/>
    <glyph glyph-name="Ü" unicode="&#24284;"
      horiz-adv-x="1000" vert-adv-y="1172"
      d="M596 760L941 760L941 695L208 695L208 430C208 343 205 273 200 220C194 167 183 118 168 73C153 28 129-22 98-76L98-76L33-34C64 17 87 62 102 100C116 138 126 180 131 227C136 274 138 338 138 421L138 421L138 760L510 760L478 843L558 853C565 838 577 807 596 760L596 760ZM857 448L897 409C855 368 817 335 782 310L782 310L936 310L936 258L705 258C671 237 639 220 608 205L608 205L869 205L869-73L803-73L803-37L507-37L507-73L441-73L441 131L348 95L336 135C323 68 300-1 265-73L265-73L198-45C222 1 240 42 253 79C265 116 274 159 280 208C285 257 288 321 288 399L288 399L288 648L891 648L891 481L355 481L355 393C355 294 350 215 340 155L340 155C447 191 532 225 596 258L596 258L367 258L367 310L553 310L553 365L414 365L414 417L553 417L553 457L620 457L620 417L767 417L767 368C795 391 825 417 857 448L857 448ZM355 533L824 533L824 597L355 597L355 533ZM620 365L620 310L687 310C714 327 740 346 763 365L763 365L620 365ZM507 155L507 108L803 108L803 155L507 155ZM803 58L507 58L507 15L803 15L803 58Z"/>
    <glyph glyph-name="Ý" unicode="&#24285;"
      horiz-adv-x="1000" vert-adv-y="1172"
      d="M574 757L939 757L939 689L192 689L192 419C192 331 189 260 184 207C178 153 168 106 155 65C142 24 122-20 96-69L96-69L25-34C52 14 73 57 87 96C100 134 110 177 116 224C121 271 124 333 124 409L124 409L124 757L494 757C483 784 471 810 458 835L458 835L533 860C551 820 565 786 574 757L574 757ZM605 125L211 125L211 187L277 187L277 508L224 508L224 570L277 570L277 641L343 641L343 570L483 570L483 641L549 641L549 570L598 570L598 508L549 508L549 187L605 187L605 125ZM709 389L949 389L949 325L867 325L867-57L801-57L801 325L709 325C708 234 701 160 688 101C675 42 651-13 616-66L616-66L558-30C583 6 601 42 613 77C625 112 633 150 637 192C641 234 643 289 643 356L643 356L643 577C689 581 737 588 786 598C835 607 879 618 920 631L920 631L939 569C877 547 800 530 709 517L709 517L709 389ZM343 439L483 439L483 508L343 508L343 439ZM483 314L483 382L343 382L343 314L483 314ZM483 187L483 255L343 255L343 187L483 187ZM254-66L205-17C255 28 296 74 327 119L327 119L379 80C348 35 306-14 254-66L254-66ZM430 73L472 116L542 52L571 24L527-26C516-11 504 3 490 17C475 31 455 50 430 73L430 73Z"/>
    <glyph glyph-name="Þ" unicode="&#24286;"
      horiz-adv-x="1000" vert-adv-y="1172"
      d="M544 82L546 46L548 13C502 6 446-3 379-14C312-25 255-35 206-44L206-44L197 28C217 29 267 36 348 49L348 49L348 246L211 246L211 310L348 310L348 390L273 390L273 447C260 436 244 422 224 406L224 406L198 443L198 425C198 340 195 272 190 220C184 168 174 121 160 79C146 37 125-12 96-68L96-68L25-32C54 22 75 70 90 112C104 153 114 199 120 250C125 300 128 366 128 448L128 448L128 758L516 758C503 796 494 821 489 834L489 834L556 857C568 827 579 794 590 758L590 758L944 758L944 688L198 688L198 474C273 534 335 605 384 687L384 687L443 650L430 630C500 563 549 514 577 484L577 484L524 433C497 464 453 511 391 573L391 573C356 526 319 487 281 454L281 454L503 454L503 390L411 390L411 310L552 310L552 246L411 246L411 59C473 69 517 77 544 82L544 82ZM883 346L821 372C837 405 853 444 868 490L868 490L697 490C682 452 655 396 617 321L617 321L556 355C585 410 610 462 631 511C651 560 667 610 680 663L680 663L749 650C741 617 732 586 722 557L722 557L937 557L937 490C920 440 902 392 883 346L883 346ZM776 292C784 226 803 169 833 120C863 71 907 28 966-8L966-8L931-75C843-16 782 55 748 140L748 140C735 97 715 59 689 24C662-11 626-47 581-82L581-82L535-19C576 10 607 39 630 69C653 98 669 129 680 161C690 193 699 233 706 280L706 280C711 313 715 355 717 404L717 404L784 404C783 370 780 333 776 292L776 292ZM491 88L437 108C453 148 467 189 480 231L480 231L540 214C533 187 522 157 506 122L506 122C501 111 496 99 491 88L491 88ZM221 205L275 227C286 202 300 158 318 95L318 95L264 73C255 109 240 153 221 205L221 205Z"/>
    <glyph glyph-name="ß" unicode="&#24287;"
      horiz-adv-x="1000" vert-adv-y="1172"
      d="M605 750L944 750L944 679L203 679L203 427C203 342 200 272 196 219C191 165 181 116 168 71C154 26 133-22 106-73L106-73L35-40C63 13 83 58 96 96C109 133 117 175 122 222C127 269 129 334 129 418L129 418L129 750L514 750L466 836L547 857C555 844 574 809 605 750L605 750ZM447 115L590 115L590 55L447 55L447-68L379-68L379 55L210 55L210 115L379 115L379 183L267 183L267 459L380 459L380 527L241 527L241 586L380 586L380 657L448 657L448 586L591 586L591 527L448 527L448 459L561 459L561 183L447 183L447 115ZM641 332L641 613L910 613L910 35C910 10 908-9 904-22C899-35 891-45 878-51C865-57 846-60 820-60L820-60C795-60 771-59 747-57L747-57L733 10C764 7 787 6 802 6L802 6C819 6 829 9 835 16C840 23 842 35 842 54L842 54L842 175L704 175C699 127 691 84 678 48C665 11 646-31 619-76L619-76L561-36C586 5 603 40 614 69C625 98 632 131 636 169C639 206 641 261 641 332L641 332ZM709 426L842 426L842 547L709 547L709 426ZM327 347L500 347L500 403L327 403L327 347ZM708 239L842 239L842 361L709 361L709 309C709 277 709 254 708 239L708 239ZM500 238L500 292L327 292L327 238L500 238Z"/>
    <glyph glyph-name="à" unicode="&#24288;"
      horiz-adv-x="1000" vert-adv-y="1172"
      d="M605 752L948 752L948 684L199 684L199 443C199 350 196 275 191 218C186 161 176 111 163 68C149 25 129-23 102-74L102-74L33-38C60 14 81 60 94 101C107 141 116 186 121 237C126 287 128 355 128 441L128 441L128 752L514 752L493 789C490 795 486 802 482 809C478 816 474 824 469 832L469 832L552 852L605 752ZM827 145C863 89 911 37 970-12L970-12L923-70C870-23 825 26 788 78L788 78C758 32 717-18 665-71L665-71L622-10C676 42 718 93 749 143L749 143C715 204 691 270 676 343L676 343C668 326 658 307 647 287L647 287L618 335L618 37C618 12 616-8 611-21C606-35 597-45 584-51C571-57 553-60 528-60L528-60C505-60 483-59 461-57L461-57L449 5C476 2 496 1 510 1L510 1C529 1 542 5 547 12C552 19 555 33 555 53L555 53L555 390L308 390L308-60L245-60L245 452L400 452L400 655L467 655L467 452L618 452L618 371C642 420 663 472 682 525C700 578 713 627 722 671L722 671L789 659C782 629 773 593 760 550L760 550L957 550L957 483L905 483C898 407 889 343 878 291C866 238 849 190 827 145L827 145ZM539 478L491 513C529 560 560 605 585 646L585 646L636 612C605 564 572 519 539 478L539 478ZM377 514L329 478C294 533 264 575 240 604L240 604L287 639C313 608 343 566 377 514L377 514ZM721 441C731 358 753 283 786 215L786 215C801 251 813 291 823 334C832 377 838 426 842 483L842 483L737 483C730 464 725 450 721 441L721 441ZM353 66L353 317L510 317L510 66L353 66ZM404 258L404 125L460 125L460 258L404 258Z"/>
    <glyph glyph-name="á" unicode="&#24289;"
      horiz-adv-x="1000" vert-adv-y="1172"
      d="M831 339L831 218L949 218L949 150L220 150L220 218L333 218L333 339L252 339L252 406L333 406L333 504C319 485 297 460 266 428L266 428L221 481C248 508 273 537 294 568C315 598 335 634 354 677L354 677L213 677L213 433C213 341 210 267 204 212C198 156 187 106 172 63C157 19 133-28 102-79L102-79L32-41C62 6 85 51 100 93C115 135 125 182 130 234C135 286 138 354 138 438L138 438L138 746L512 746C498 776 483 805 468 832L468 832L539 862C552 838 572 799 599 746L599 746L945 746L945 677L430 677C419 650 406 623 392 596L392 596L927 596L927 527L831 527L831 406L924 406L924 339L831 339ZM478 406L478 527L399 527L399 406L478 406ZM623 527L542 527L542 406L623 406L623 527ZM687 527L687 406L768 406L768 527L687 527ZM478 218L478 339L399 339L399 218L478 218ZM542 218L623 218L623 339L542 339L542 218ZM687 339L687 218L768 218L768 339L687 339ZM787 103L849 135C888 66 918 7 940-40L940-40L873-70C846-10 817 48 787 103L787 103ZM613 111L681 128C700 81 719 27 738-35L738-35L666-57C648 10 630 66 613 111L613 111ZM293-83L224-57C239-30 254 1 269 35C284 68 297 99 308 127L308 127L376 106C356 51 328-12 293-83L293-83ZM443 101L512 114C528 51 540-5 549-54L549-54L475-67C466-11 456 45 443 101L443 101Z"/>
    <glyph glyph-name="â" unicode="&#24290;"
      horiz-adv-x="1000" vert-adv-y="1172"
      d="M486 248L335 248L326 188L475 188C474 137 471 84 466 29L466 29C463-4 455-27 444-41C432-55 410-62 377-62L377-62C352-62 315-60 267-56L267-56L254 7C261 6 275 5 296 3C317 1 336 0 353 0L353 0C372 0 384 4 390 12C396 20 400 33 402 52L402 52C405 80 407 105 408 126L408 126L256 126L275 309L419 309L419 369L316 369C284 354 254 342 226 331L226 331L203 381C201 276 193 190 179 125C165 59 140-9 105-79L105-79L32-48C60 4 81 51 95 93C108 134 118 182 123 237C128 291 131 364 131 455L131 455L131 758L517 758C506 779 493 802 478 829L478 829L552 857C570 824 587 791 603 758L603 758L950 758L950 690L203 690L203 445L203 390C262 411 310 432 349 454L349 454C317 480 287 503 258 524L258 524L297 567L405 491C434 513 457 539 476 569L476 569L242 569L242 631L554 631L554 568C521 514 475 467 416 426L416 426L486 426L486 248ZM970 406L941 346C891 363 846 380 807 399L807 399L807 350C807 336 810 326 817 321C823 316 833 313 848 313L848 313L924 313L912 253L812 253C788 253 771 258 760 268C749 278 744 295 744 318L744 318L744 367L632 367L632 346C632 305 605 267 551 231L551 231L501 268C524 282 541 297 551 314C561 330 566 350 566 375L566 375L566 429L753 429C708 456 670 488 641 525C612 562 586 607 563 661L563 661L624 675C637 646 651 620 666 598L666 598C715 627 757 654 793 679L793 679L830 632C789 604 746 577 702 552L702 552C714 537 729 522 747 509L747 509C820 552 867 581 888 594L888 594L923 548C874 518 834 493 801 474L801 474C845 450 901 427 970 406L970 406ZM860 230L860 169C830 128 797 91 761 59L761 59L921-22L884-82C835-55 775-22 704 16L704 16C647-21 581-51 508-73L508-73L482-12C541 5 593 26 638 51L638 51L528 108L559 161L699 91C729 114 755 140 776 169L776 169L526 169L526 230L860 230Z"/>
    <glyph glyph-name="ã" unicode="&#24291;"
      horiz-adv-x="1000" vert-adv-y="1172"
      d="M413 685L210 685L210 439C210 348 207 274 201 217C195 160 185 109 171 65C157 21 137-26 110-76L110-76L40-39C66 10 86 54 99 95C112 136 122 182 127 233C132 284 135 350 135 431L135 431L135 754L515 754L469 837L550 860C561 842 581 807 608 754L608 754L935 754L935 685L757 685L757 607L918 607L918 549L757 549L757 485L945 485L945 428L621 428L621 373L865 373L865 92L304 92L304 373L549 373L549 428L236 428L236 485L413 485L413 549L267 549L267 607L413 607L413 685ZM488 685L488 607L680 607L680 685L488 685ZM488 549L488 485L680 485L680 549L488 549ZM374 261L549 261L549 317L374 317L374 261ZM621 261L793 261L793 317L621 317L621 261ZM549 149L549 204L374 204L374 149L549 149ZM793 204L621 204L621 149L793 149L793 204ZM229-84L203-16C268 1 368 35 501 87L501 87L529 22C490 5 442-13 386-32C329-52 277-69 229-84L229-84ZM639 21L666 83C762 52 857 20 950-14L950-14L921-79C820-41 726-8 639 21L639 21Z"/>
    <glyph glyph-name="ä" unicode="&#24292;"
      horiz-adv-x="1000" vert-adv-y="1172"
      d="M593 777L948 777L948 709L185 709L185 407C185 319 182 248 177 195C172 141 162 94 149 54C136 13 116-31 89-80L89-80L24-44C51 3 71 46 84 85C97 123 105 165 111 212C116 259 118 321 118 398L118 398L118 777L519 777C507 808 496 833 487 852L487 852L555 874C570 839 583 807 593 777L593 777ZM876 556L876 332L609 332L609 289L939 289L939 236L609 236L609 198L545 198L545 236L221 236L221 289L545 289L545 332L278 332L278 556L545 556L545 598L233 598L233 648L545 648L545 684L609 684L609 648L931 648L931 598L609 598L609 556L876 556ZM344 466L545 466L545 510L344 510L344 466ZM609 466L812 466L812 510L609 510L609 466ZM545 422L344 422L344 379L545 379L545 422ZM812 422L609 422L609 379L812 379L812 422ZM868 42C870 63 871 85 871 106L871 106L936 93C935 66 932 43 929 22L929 22C926-1 921-19 915-30C908-42 899-51 886-56C873-61 855-65 832-67L832-67C811-69 791-70 771-70L771-70C746-70 720-69 693-67L693-67C662-66 642-58 632-44C621-31 616-7 616 26L616 26L616 199L678 199L678 124C794 156 870 181 907 198L907 198L929 137C904 127 867 115 817 101C767 86 721 74 678 63L678 63L678 40C678 27 680 18 683 13C686 7 691 3 698 2C705 0 716-2 731-3L731-3C747-4 762-5 775-5L775-5C782-5 791-4 802-3L802-3C825 0 841 5 850 11C859 16 865 27 868 42L868 42ZM514 173L514-26L236-26L236 173L514 173ZM455 30L455 114L296 114L296 30L455 30Z"/>
    <glyph glyph-name="å" unicode="&#24293;"
      horiz-adv-x="1000" vert-adv-y="1172"
      d="M601 765L953 765L953 706L203 706L203 437C203 347 200 274 195 219C190 163 180 113 166 68C151 23 130-27 101-80L101-80L32-45C61 7 83 54 97 97C111 140 120 185 125 234C130 283 132 348 132 429L132 429L132 765L520 765L486 839L559 861C572 832 586 800 601 765L601 765ZM536 700L614 700C649 667 696 637 753 608C810 579 873 557 940 540L940 540L918 482C844 505 778 532 720 561L720 561L720 515L433 515L433 562C367 526 301 499 234 482L234 482L211 536C337 570 445 625 536 700L536 700ZM442 567L707 567C654 594 610 622 574 650L574 650C531 619 487 592 442 567L442 567ZM873 466L873 255L269 255L269 466L873 466ZM418 417L331 417L331 307L541 307L541 417L425 417L494 339L447 309C436 323 424 338 411 354C397 370 386 382 377 390L377 390L418 417ZM601 307L812 307L812 417L722 417L763 391C739 360 715 332 692 309L692 309L648 340C674 367 696 393 715 417L715 417L601 417L601 307ZM384-42L384-75L318-75L318 211L824 211L824-75L756-75L756-42L384-42ZM384 110L756 110L756 158L384 158L384 110ZM756 58L384 58L384 15L756 15L756 58Z"/>
    <glyph glyph-name="æ" unicode="&#24294;"
      horiz-adv-x="1000" vert-adv-y="1172"
      d="M593 755L947 755L947 689L192 689L192 435C192 344 190 273 185 221C180 168 171 121 158 80C145 38 125-13 98-74L98-74L34-42C61 11 80 59 93 100C106 141 114 187 119 236C123 285 125 351 125 434L125 434L125 755L511 755C506 771 498 792 487 819L487 819C482 832 480 839 479 841L479 841L559 849L593 755ZM913 493L858 493C851 456 841 405 826 341L826 341L926 341L926 279L766 279L766 163L923 163L923 99L766 99L766-80L700-80L700 99L558 99L558 163L700 163L700 279L546 279L546 341L639 341C630 398 620 448 611 493L611 493L562 493L562 556L714 556C697 595 686 621 681 632L681 632L745 652C757 631 771 599 787 556L787 556L913 556L913 493ZM522 368L318 368C317 332 314 297 309 263L309 263L524 263L524-18L288-18L288 159C272 102 247 45 214-13L214-13L155 25C194 85 221 144 234 201C247 258 254 333 254 426L254 426L254 614L522 614L522 368ZM318 432L459 432L459 550L318 550L318 432ZM797 493L669 493L698 341L768 341C776 378 786 429 797 493L797 493ZM463 41L463 201L349 201L349 41L463 41Z"/>
    <glyph glyph-name="ç" unicode="&#24295;"
      horiz-adv-x="1000" vert-adv-y="1172"
      d="M605 765L953 765L953 706L200 706L200 437C200 347 197 274 192 219C187 163 177 113 162 68C147 23 125-27 96-80L96-80L32-45C61 7 83 54 97 97C111 140 120 185 125 234C130 283 132 348 132 429L132 429L132 765L522 765C507 802 497 829 490 844L490 844L568 859C577 837 590 806 605 765L605 765ZM762 502C736 466 708 436 679 413L679 413L947 413L947 356L213 356L213 413L295 413L261 450C311 487 349 529 374 574L374 574L250 574L250 631L546 631L546 683L615 683L615 631L911 631L911 574L806 574L790 545C843 510 879 482 900 463L900 463L867 419C842 444 807 471 762 502L762 502ZM393 503C369 470 340 440 306 413L306 413L546 413L546 574L437 574L422 546C458 518 491 491 522 464L522 464L485 421L393 503ZM739 574L615 574L615 413L668 413L633 450C680 488 715 529 739 574L739 574ZM347-37L347-78L280-78L280 303L881 303L881-78L814-78L814-37L347-37ZM347 16L814 16L814 251L347 251L347 16ZM434 62L434 203L724 203L724 62L434 62ZM497 155L497 110L662 110L662 155L497 155Z"/>
    <glyph glyph-name="é" unicode="&#24297;"
      horiz-adv-x="1000" vert-adv-y="1172"
      d="M587 706L201 706L201 437C201 346 198 273 193 218C188 163 178 112 164 67C149 22 127-27 98-80L98-80L32-45C61 7 83 54 97 97C111 140 120 185 125 234C130 283 132 348 132 429L132 429L132 765L517 765C504 793 492 815 483 832L483 832L561 855L602 765L953 765L953 706L594 706C599 700 605 690 613 676C621 661 628 648 634 636L634 636L927 636L927 583L230 583L230 636L549 636C532 666 523 682 522 684L522 684L587 706ZM282 547L872 547L872 275L282 275L282 547ZM808 323L808 500L347 500L347 323L808 323ZM719 470L719 353L435 353L435 470L719 470ZM662 392L662 432L492 432L492 392L662 392ZM965-9L946-68C866-48 799-27 746-6C692 15 644 40 602 69L602 69L602-72L535-72L535 60C493 32 445 8 392-11C339-30 272-49 193-67L193-67L171-7C234 6 289 19 336 33C383 47 424 63 459 82L459 82L224 82L224 135L535 135L535 180C445 177 358 175 273 174L273 174L271 231C372 232 477 234 588 237C698 240 786 244 852 249L852 249L856 194C787 190 702 186 602 183L602 183L602 135L919 135L919 82L678 82C713 64 753 48 798 34C843 20 899 6 965-9L965-9Z"/>
    <glyph glyph-name="ë" unicode="&#24299;"
      horiz-adv-x="1000" vert-adv-y="1172"
      d="M945 705L189 705L189 429C189 342 187 272 183 220C178 167 170 119 157 74C144 29 123-18 96-68L96-68L34-33C61 19 81 64 93 101C104 138 112 180 116 225C119 270 121 335 121 422L121 422L121 769L502 769C495 787 484 816 467 857L467 857L548 866C557 844 569 812 584 769L584 769L945 769L945 705ZM741 385C765 359 796 335 834 314C871 292 913 274 960 259L960 259L936 197C829 240 751 289 700 344L700 344C671 317 639 293 604 272C568 251 523 229 469 207L469 207L449 255L449 32C449 3 443-19 432-33C421-48 401-55 373-55L373-55C360-55 339-52 311-47L311-47L300 19C317 12 335 9 352 9L352 9C367 9 377 13 381 21C385 28 387 41 387 59L387 59L387 198L303 198C301 139 295 91 286 53C277 14 261-26 240-68L240-68L184-32C201 1 214 30 222 58C230 85 236 118 239 159C242 199 243 257 243 332L243 332L243 644L449 644L449 266C540 298 610 339 659 389L659 389L621 389L621 427C537 385 491 363 484 360L484 360L461 415C524 442 578 465 621 485L621 485L621 582L473 582L473 641L682 641L682 396L720 396L706 429C713 431 731 439 762 453C793 466 821 479 846 491L846 491L846 581L708 581L708 640L908 640L908 363L846 363L846 436L741 385ZM304 444L387 444L387 578L304 578L304 444ZM818 504L781 467C747 503 722 528 706 541L706 541L743 577L818 504ZM481 540L520 575C555 543 581 519 597 503L597 503L559 465C527 497 501 522 481 540L481 540ZM387 386L304 386L304 257L387 257L387 386ZM731 297L762 249C729 228 690 207 647 187C604 167 560 150 517 137L517 137L495 188C588 218 666 254 731 297L731 297ZM504 37L485 92C550 109 608 128 659 149C710 170 760 195 811 224L811 224L839 174C789 144 737 118 684 97C631 75 571 55 504 37L504 37ZM481-73L459-16C552 5 630 28 695 53C760 77 824 109 888 148L888 148L919 96C857 57 791 25 722-2C653-29 572-52 481-73L481-73Z"/>
    <glyph glyph-name="ì" unicode="&#24300;"
      horiz-adv-x="1000" vert-adv-y="1172"
      d="M935 705L209 705L209 431C209 316 202 222 188 150C173 78 146 2 106-78L106-78L38-42C65 12 86 60 99 102C112 144 122 189 127 238C132 286 135 348 135 423L135 423L135 766L505 766C502 771 498 776 495 783C492 789 488 795 483 802L483 802L461 839L545 857L595 766L935 766L935 705ZM520 536L349 536L349 355C349 260 343 182 330 121C317 60 294-6 259-77L259-77L194-46C218 1 236 43 249 80C261 117 270 157 275 202C280 246 282 302 282 370L282 370L282 590L523 590L523 684L588 684L588 656L853 656L853 612L588 612L588 590L919 590L919 536L890 471L834 488L855 536L583 536L583 494L780 509L781 462L584 447C585 438 588 432 594 429C600 426 609 424 622 423L622 423C638 422 662 422 694 422L694 422C725 422 749 422 765 423L765 423C780 424 791 426 796 429C801 432 805 439 806 448L806 448L809 474L873 457L868 429C866 416 862 406 857 400C852 393 843 389 831 386C819 383 801 381 778 380L778 380C759 379 729 379 690 379L690 379C651 379 622 379 602 380L602 380C573 381 553 386 540 395C527 403 521 419 520 442L520 442L373 430L369 478L520 489L520 536ZM855 352L855 153L418 153L418 352L855 352ZM478 275L603 275L603 307L478 307L478 275ZM669 307L669 275L795 275L795 307L669 307ZM603 198L603 232L478 232L478 198L603 198ZM795 232L669 232L669 198L795 198L795 232ZM394 120L878 120L878-2L945-2L945-52L323-52L323-2L394-2L394 120ZM536-2L536 71L454 71L454-2L536-2ZM595 71L595-2L676-2L676 71L595 71ZM735 71L735-2L817-2L817 71L735 71Z"/>
    <glyph glyph-name="í" unicode="&#24301;"
      horiz-adv-x="1000" vert-adv-y="1172"
      d="M947 691L195 691L195 435C195 344 192 272 187 218C182 164 172 116 159 73C146 30 125-19 98-75L98-75L34-40C61 14 81 62 94 103C107 144 115 188 120 237C124 286 126 351 126 434L126 434L126 755L517 755C506 782 493 811 478 842L478 842L552 861L597 755L947 755L947 691ZM746 475L746 431L942 431L942 379L489 379L489 431L680 431L680 475L536 475L536 523L680 523L680 567L508 567L508 619L680 619L680 667L746 667L746 619L921 619L921 567L746 567L746 523L891 523L891 475L746 475ZM504 199L458 157C418 206 394 235 386 244L386 244L386-74L324-74L324 248C295 183 263 122 226 65L226 65L190 130C213 161 237 200 260 245C283 290 303 335 318 380L318 380L218 380L218 442L324 442L324 540C285 532 258 527 243 525L243 525L231 589C324 605 398 622 452 640L452 640L467 577L386 554L386 442L469 442L469 380L386 380L386 332C403 313 423 291 446 266C469 240 488 218 504 199L504 199ZM524 342L896 342L896 58L524 58L524 342ZM584 261L835 261L835 291L584 291L584 261ZM835 216L584 216L584 185L835 185L835 216ZM835 139L584 139L584 109L835 109L835 139ZM454-81L432-24C489-8 559 17 642 52L642 52L670-1C632-19 560-46 454-81L454-81ZM739 0L759 51C845 24 914 1 965-18L965-18L943-75C912-62 877-49 840-35C803-22 769-10 739 0L739 0Z"/>
    <glyph glyph-name="î" unicode="&#24302;"
      horiz-adv-x="1000" vert-adv-y="1172"
      d="M594 756L947 756L947 695L196 695L196 435C196 344 193 272 188 218C183 164 173 116 160 73C146 30 125-19 97-75L97-75L32-40C59 15 80 62 93 103C106 144 114 189 119 238C124 287 126 352 126 434L126 434L126 756L512 756C505 773 494 801 477 839L477 839L558 849L594 756ZM553 652L553 368L285 368L285 652L553 652ZM620 368L620 652L895 652L895 368L620 368ZM342 571L498 571L498 608L342 608L342 571ZM676 571L840 571L840 608L676 608L676 571ZM498 530L342 530L342 491L498 491L498 530ZM676 491L840 491L840 528L676 528L676 491ZM498 449L342 449L342 412L498 412L498 449ZM840 449L676 449L676 412L840 412L840 449ZM782 317L812 360C843 343 888 316 946 278L946 278L916 229C853 273 809 302 782 317L782 317ZM443 319L471 359C522 331 560 310 585 295L585 295L557 250C505 283 467 306 443 319L443 319ZM266 231L239 280C258 289 281 301 307 316C332 331 354 345 372 358L372 358L404 317C386 303 364 288 338 272C312 255 288 242 266 231L266 231ZM614 242L589 289C608 297 629 308 653 322C677 335 697 347 712 358L712 358L743 317C726 305 706 292 681 278C656 263 633 251 614 242L614 242ZM475 270L539 247L519 213L938 213L938 157L806 157C775 112 738 76 693 48L693 48C791 19 866-5 917-24L917-24L889-79C830-58 746-30 639 5L639 5L619 11C577-7 527-23 468-36C409-49 336-63 248-77L248-77L226-15C359 3 458 21 521 40L521 40C459 59 399 76 340 91L340 91C367 120 386 142 397 157L397 157L240 157L240 213L439 213C453 233 465 252 475 270L475 270ZM723 157L480 157C469 143 457 130 446 117L446 117C498 104 552 89 609 73L609 73C656 95 694 123 723 157L723 157Z"/>
    <glyph glyph-name="ï" unicode="&#24303;"
      horiz-adv-x="1000" vert-adv-y="1172"
      d="M237 419L201 462L201 427C201 342 199 272 194 219C189 166 179 116 166 72C152 27 131-21 104-72L104-72L36-40C64 13 84 58 97 96C110 133 118 175 123 222C128 269 130 334 130 418L130 418L130 748L513 748L472 841L552 858L596 748L945 748L945 680L365 680L409 665C400 645 392 630 387 621L387 621L540 621L540 571L486 491L568 491L568 153L268 153L268 452L237 419ZM345 680L201 680L201 475C234 510 262 544 285 577C308 610 328 644 345 680L345 680ZM798 182L958 182L958 120L798 120L798-74L735-74L735 120L597 120L597 182L735 182L735 295L617 295L617 356L735 356L735 468L605 468L605 531L681 531L655 578C636 611 625 631 621 637L621 637L676 665C685 650 697 630 712 604C727 577 736 559 741 549L741 549L698 531L777 531C788 551 801 575 816 603C830 630 840 651 846 665L846 665L907 637C892 606 873 570 850 531L850 531L940 531L940 468L798 468L798 356L922 356L922 295L798 295L798 182ZM463 566L355 566C339 540 321 515 301 491L301 491L411 491L463 566ZM390 434L324 434L324 349L390 349L390 434ZM445 434L445 349L512 349L512 434L445 434ZM390 210L390 294L324 294L324 210L390 210ZM512 294L445 294L445 210L512 210L512 294ZM511 125L564 140C591 75 609 28 619-3L619-3L560-23C550 14 534 63 511 125L511 125ZM243-56L181-41C209 32 228 91 238 138L238 138L296 129C285 82 268 20 243-56L243-56ZM420 126L475 134C492 59 502 7 507-24L507-24L451-35C447-11 442 16 437 45C432 74 426 101 420 126L420 126ZM324 127L379 130C386 83 391 26 396-39L396-39L336-44C335 3 331 60 324 127L324 127Z"/>
    <glyph glyph-name="ð" unicode="&#24304;"
      horiz-adv-x="1000" vert-adv-y="1172"
      d="M592 761L950 761L950 701L189 701L189 441C189 352 186 280 180 224C174 167 164 117 150 73C136 28 115-21 88-76L88-76L32-44C59 10 79 58 92 101C105 144 115 191 120 242C125 293 128 358 128 438L128 438L128 761L511 761C500 792 489 817 480 838L480 838L560 846L592 761ZM754 597L940 597L940 536L754 536L754 465L918 465L918 242L529 242L529 465L695 465L695 536L529 536L529 597L695 597L695 661L754 661L754 597ZM505 118L506 90L468 85L468-76L412-76L412 76L346 65L209 41L203 103L251 110L251 579L211 579L211 639L508 639L508 579L468 579L468 147C483 149 495 151 502 153L502 153L505 118ZM309 467L412 467L412 579L309 579L309 467ZM643 299L643 410L583 410L583 299L643 299ZM694 299L752 299L752 410L694 410L694 299ZM804 410L804 299L863 299L863 410L804 410ZM412 298L412 408L309 408L309 298L412 298ZM309 238L309 120C342 125 377 130 412 137L412 137L412 238L309 238ZM792 105L744 73C733 93 722 114 709 136C696 157 684 176 673 193L673 193L720 220C737 194 761 156 792 105L792 105ZM830 161L881 187C917 115 947 53 971 1L971 1L919-24C906 5 891 37 874 74C857 111 842 140 830 161L830 161ZM526-37L473-10C485 14 497 43 510 78C523 113 534 145 543 176L543 176L594 159C574 93 551 28 526-37L526-37ZM799 41L801 106L854 92C853 53 852 29 851 22L851 22C850-6 845-25 834-35C823-45 804-51 776-53L776-53C749-54 729-55 714-55L714-55C705-55 691-54 674-53L674-53C649-50 631-43 622-31C612-19 607 0 607 26L607 26L607 175L665 175L665 43C665 31 667 23 672 19C676 14 684 11 696 9L696 9C702 8 711 7 723 7L723 7C730 7 743 8 760 9L760 9C775 10 786 13 791 17C796 20 798 28 799 41L799 41Z"/>
    <glyph glyph-name="ñ" unicode="&#24305;"
      horiz-adv-x="1000" vert-adv-y="1172"
      d="M601 754L947 754L947 692L194 692L194 426C194 338 191 267 186 212C180 157 170 109 157 66C144 23 123-24 96-76L96-76L32-41C59 10 78 56 91 97C104 138 113 183 118 232C123 281 125 345 125 425L125 425L125 754L517 754C504 785 491 810 479 830L479 830L553 853C575 809 591 776 601 754L601 754ZM219 579C243 610 265 645 286 682L286 682L336 662C323 639 306 612 283 579L283 579C305 547 323 520 338 497L338 497L294 470C270 508 245 544 219 579L219 579ZM334 579C355 607 378 641 402 682L402 682L449 661C434 634 417 607 396 579L396 579C416 554 435 527 454 498L454 498L408 470C396 489 371 526 334 579L334 579ZM516 682L565 661C546 629 528 602 509 579L509 579C535 546 555 519 568 498L568 498L522 469C501 504 476 540 448 579L448 579C472 613 495 647 516 682L516 682ZM924 169L833 169L833 46L941 46L941-10L675-10L675-71L622-71L622 408C609 381 596 359 585 340L585 340L540 382C597 467 635 565 655 675L655 675L711 666C703 630 694 595 684 560L684 560L794 560C781 595 768 624 755 645L755 645L802 667C818 642 835 606 853 560L853 560L933 560L933 499L833 499L833 391L924 391L924 332L833 332L833 228L924 228L924 169ZM675 499L675 391L780 391L780 499L675 499ZM538 459L538 316L260 316L260 459L538 459ZM478 362L478 413L318 413L318 362L478 362ZM675 332L675 228L780 228L780 332L675 332ZM530 56C530 73 530 85 531 92L531 92L588 80C588 63 587 48 586 37L586 37C583 12 579-6 572-17C565-28 554-36 541-39C528-43 507-46 479-48L479-48C451-49 429-50 414-50L414-50C395-50 369-49 334-48L334-48C309-46 291-42 278-36C265-31 255-22 250-9C244 4 241 22 241 46L241 46L241 277L559 277L559 104L301 104L301 57C301 38 304 26 311 20C317 14 330 10 349 9L349 9C373 7 394 6 413 6L413 6C430 6 449 7 469 9L469 9C492 10 508 14 516 19C524 24 529 37 530 56L530 56ZM301 150L374 150L374 231L301 231L301 150ZM428 231L428 150L501 150L501 231L428 231ZM780 46L780 169L675 169L675 46L780 46Z"/>
    <glyph glyph-name="ò" unicode="&#24306;"
      horiz-adv-x="1000" vert-adv-y="1172"
      d="M599 765L937 765L937 708L195 708L195 437C195 345 193 273 188 220C183 167 173 118 159 75C145 32 123-17 94-70L94-70L27-35C57 18 79 65 93 106C106 147 115 190 120 237C124 283 126 347 126 429L126 429L126 765L512 765C507 775 495 796 476 829L476 829L550 855C566 828 582 798 599 765L599 765ZM235 609L235 661L554 661L554 609L235 609ZM594 609L594 661L912 661L912 609L594 609ZM866 22C867 38 868 53 868 67L868 67L924 53C924 36 923 22 921 10L921 10C918-15 910-32 895-41C880-50 856-57 821-61L821-61C798-62 781-63 768-63L768-63C758-63 744-62 725-61L725-61C701-58 683-55 671-51C659-48 650-41 643-31C636-22 633-7 633 13L633 13L633 141L451 141L451 99L607 99L607 49L451 49L451-7L608 24L610-28C555-35 501-45 448-58L448-58C425-63 403-68 383-75L383-75L366-23C375-20 382-16 386-13C389-10 391-5 390 1L390 1L390 141L326 141C322 101 314 64 302 31C289-2 271-40 247-81L247-81L185-45C214 0 235 41 247 79C259 116 265 166 265 229L265 229L265 390L554 390L536 422L478 422L478 525L333 525L333 419L269 419L269 569L539 569L539 439L592 454L608 426L608 569L880 569L880 422L817 422L817 525L668 525L668 419L612 419C614 415 616 411 619 406C622 401 624 395 627 390L627 390L916 390L916 341L702 341L702 288L878 288L878 141L694 141L694 83C777 101 837 115 875 125L875 125L886 78C832 63 768 49 694 35L694 35L694 29C694 12 696 2 701-3C705-8 715-11 732-12L732-12C748-14 762-15 774-15L774-15C786-15 798-14 811-12L811-12C829-10 843-7 852-2C861 3 865 11 866 22L866 22ZM357 494L396 519C405 508 414 496 426 481C437 466 445 453 451 442L451 442L412 420L399 439C378 467 364 485 357 494L357 494ZM791 445L749 420C728 451 710 476 695 496L695 496L735 519C746 506 764 482 791 445L791 445ZM330 288L458 288L458 341L330 341L330 288ZM518 341L518 288L642 288L642 341L518 341ZM458 241L330 241L330 220L330 190L458 190L458 241ZM642 241L518 241L518 190L642 190L642 241ZM702 190L813 190L813 241L702 241L702 190Z"/>
    <glyph glyph-name="ó" unicode="&#24307;"
      horiz-adv-x="1000" vert-adv-y="1172"
      d="M591 762L949 762L949 702L185 702L185 441C185 352 183 279 178 223C173 166 165 116 154 73C142 29 125-19 102-72L102-72L42-40C63 11 80 58 91 101C102 143 109 190 113 241C117 292 119 358 119 439L119 439L119 762L508 762C493 787 481 810 471 831L471 831L547 846L591 762ZM755 628L938 628L938 573L755 573L755 515L915 515L915 315L533 315L533 515L695 515L695 573L528 573L528 628L695 628L695 683L755 683L755 628ZM216 657L511 657L511 603L479 603L479-73L424-73L424 292L203 292L203 346L257 346L257 603L216 603L216 657ZM316 603L316 552L424 552L424 603L316 603ZM424 448L424 501L316 501L316 448L424 448ZM644 369L644 463L586 463L586 369L644 369ZM695 369L753 369L753 463L695 463L695 369ZM804 463L804 369L861 369L861 463L804 463ZM424 396L316 396L316 346L424 346L424 396ZM519 215L519 271L938 271L938 215L519 215ZM325 93L325 42L399 51L400 4C273-13 205-22 194-25L194-25L190 28C198 28 226 31 274 37L274 37L274 93L215 93L215 145L274 145L274 193L208 193L208 246L391 246L391 193L325 193L325 145L385 145L385 93L325 93ZM788 107L740 71C721 106 698 141 673 176L673 176L721 208C745 173 767 140 788 107L788 107ZM832 152L882 179C904 138 933 80 970 4L970 4L919-25C908 0 894 31 877 66C859 101 844 130 832 152L832 152ZM533-27L481-9C499 34 518 93 537 170L537 170L589 159C578 103 560 41 533-27L533-27ZM792 40C794 56 795 76 795 100L795 100L847 86C847 75 846 53 844 21L844 21C843-6 836-25 826-35C815-46 795-51 766-52L766-52C756-53 741-53 721-53L721-53C701-53 686-53 676-52L676-52C652-51 634-44 623-33C612-22 606-3 606 24L606 24L606 165L661 165L661 42C661 29 663 20 668 16C672 12 681 10 694 9L694 9L725 8L755 9C768 10 778 12 783 17C788 21 791 29 792 40L792 40Z"/>
    <glyph glyph-name="õ" unicode="&#24309;"
      horiz-adv-x="1000" vert-adv-y="1172"
      d="M573 114L500 91C481 144 457 204 430 270C403 336 376 396 350 450L350 450C377 502 404 560 429 625C454 689 475 750 491 809L491 809L565 788C550 737 530 679 504 616C478 552 453 497 430 450L430 450C453 401 480 341 510 271C540 201 561 149 573 114L573 114ZM764 116L687 94C670 143 647 202 619 269C590 336 563 397 538 450L538 450C563 496 588 552 613 618C638 684 658 746 673 804L673 804L743 785C726 728 706 670 683 609C660 548 637 495 614 450L614 450C641 395 669 334 698 269C727 204 749 153 764 116L764 116ZM937 124L865 100C847 148 823 206 794 274C764 342 736 401 710 452L710 452C735 497 760 552 785 617C810 682 830 743 845 801L845 801L918 782C905 733 886 676 861 611C836 546 812 494 791 453L791 453C814 406 840 349 871 280C901 211 923 159 937 124L937 124ZM584 37C639 31 716 28 817 28L817 28C881 28 926 29 952 30L952 30L936-41C881-42 835-43 798-43L798-43C691-43 611-40 558-33L558-33C421-17 311 25 226 94L226 94C198 51 153 2 92-54L92-54L42 7C100 56 143 103 171 146L171 146C126 197 91 258 67 329L67 329L131 349C150 297 174 251 205 211L205 211C216 238 226 268 233 301C240 333 246 374 253 425L253 425L82 425L82 495L263 712L65 712L65 782L358 782L358 712L180 495L324 495L324 425C315 360 306 307 297 266C288 225 275 188 260 155L260 155C298 123 344 97 397 78C450 59 513 45 584 37L584 37Z"/>
    <glyph glyph-name="ø" unicode="&#24312;"
      horiz-adv-x="1000" vert-adv-y="1172"
      d="M675 842L675 708L903 708L903 143L373 143L373 708L602 708L602 842L675 842ZM584 37C687 32 780 29 865 29L865 29C906 29 935 29 952 30L952 30L936-41C897-42 866-43 841-43L841-43C754-43 659-40 558-33L558-33C417-22 304 22 217 97L217 97C185 42 139-16 78-79L78-79L26-22C86 32 133 89 166 149L166 149C123 200 90 260 67 329L67 329L131 349C149 299 172 255 200 217L200 217C224 276 243 344 256 421L256 421L73 421L73 485L245 702L58 702L58 768L329 768L329 701L159 487L325 487L325 424C316 370 306 322 294 279C282 236 267 197 250 160L250 160C328 88 439 47 584 37L584 37ZM445 463L602 463L602 636L445 636L445 463ZM675 463L832 463L832 636L675 636L675 463ZM602 216L602 393L445 393L445 216L602 216ZM832 393L675 393L675 216L832 216L832 393Z"/>
    <glyph glyph-name="ù" unicode="&#24313;"
      horiz-adv-x="1000" vert-adv-y="1172"
      d="M670 717L884 717L884 138L441 138L441 717L582 717C605 782 620 827 626 850L626 850L708 835C701 810 689 771 670 717L670 717ZM584 37C664 32 768 30 897 30L897 30L952 30L936-41L862-42C741-42 639-39 558-33L558-33C428-24 320 14 234 83L234 83C197 32 146-22 81-79L81-79L31-16C92 34 142 84 179 134L179 134C131 186 94 251 67 329L67 329L131 349C153 288 182 236 218 193L218 193C237 226 252 260 264 297C276 334 287 375 296 422L296 422L81 422L81 485L277 696L76 696L76 766L372 766L372 696L181 488L367 488L367 424C356 366 343 314 328 269C313 224 294 181 272 141L272 141C347 80 451 46 584 37L584 37ZM515 467L810 467L810 645L515 645L515 467ZM810 396L515 396L515 210L810 210L810 396Z"/>
    <glyph glyph-name="û" unicode="&#24315;"
      horiz-adv-x="1000" vert-adv-y="1172"
      d="M386 123L386 789L899 789L899 123L386 123ZM584 29C648 23 739 20 857 20L857 20C902 20 933 20 952 21L952 21L936-50C915-51 880-51 831-51L831-51C722-51 631-48 558-42L558-42C414-29 298 17 210 96L210 96C180 47 136-10 77-73L77-73L25-16C80 34 126 88 161 147L161 147C120 197 89 255 67 320L67 320L131 340C148 291 170 250 195 215L195 215C220 273 239 343 254 425L254 425L73 425L73 490L242 705L57 705L57 771L327 771L327 704L158 492L322 492L322 428C313 371 302 322 290 279C277 236 262 195 244 158L244 158C283 121 331 91 387 70C442 49 508 35 584 29L584 29ZM454 717L454 195L830 195L830 717L454 717ZM534 300L534 593L751 593L751 300L534 300ZM594 531L594 365L690 365L690 531L594 531Z"/>
    <glyph glyph-name="ü" unicode="&#24316;"
      horiz-adv-x="1000" vert-adv-y="1172"
      d="M384 125L384 608L550 608L550 724L372 724L372 793L939 793L939 724L765 724L765 608L922 608L922 125L384 125ZM584 37C689 32 798 30 909 30L909 30L952 30L936-41L872-42C763-42 659-39 558-33L558-33C418-24 304 20 215 99L215 99C182 47 136-10 77-73L77-73L25-16C84 36 131 92 164 151L164 151C123 200 90 259 67 329L67 329L131 349C150 298 172 255 198 218L198 218C224 279 244 348 257 426L257 426L73 426L73 490L246 706L58 706L58 771L331 771L331 704L160 492L327 492L327 429C318 374 307 325 295 282C282 239 267 198 249 161L249 161C327 86 439 45 584 37L584 37ZM613 724L613 608L702 608L702 724L613 724ZM452 539L452 193L854 193L854 317L788 317C756 317 734 324 721 337C708 350 702 377 702 416L702 416L702 539L612 539C611 493 606 455 599 424C591 393 580 365 565 341C550 316 529 290 502 261L502 261L453 313C479 341 498 365 511 384C524 403 533 424 539 448C545 471 549 502 550 539L550 539L452 539ZM812 382L854 382L854 539L765 539L765 446C765 419 768 402 774 394C779 386 792 382 812 382L812 382Z"/>
    <glyph glyph-name="ý" unicode="&#24317;"
      horiz-adv-x="1000" vert-adv-y="1172"
      d="M375 125L375 789L910 789L910 125L375 125ZM584 28C680 23 789 20 910 20L910 20L952 20L936-51L872-52C763-52 659-49 558-43L558-43C414-34 298 11 209 93L209 93C178 42 134-13 77-73L77-73L25-16C82 37 127 91 160 146L160 146C120 195 89 252 67 319L67 319L131 339C148 291 170 249 195 213L195 213C220 270 239 341 254 424L254 424L73 424L73 488L242 701L57 701L57 767L327 767L327 701L158 489L322 489L322 427C313 370 302 320 290 277C277 234 262 193 243 155L243 155C323 77 437 35 584 28L584 28ZM527 187L527 724L442 724L442 187L527 187ZM589 724L589 587L697 587L697 724L589 724ZM758 724L758 187L844 187L844 724L758 724ZM589 525L589 396L697 396L697 525L589 525ZM697 187L697 333L589 333L589 187L697 187Z"/>
    <glyph glyph-name="" unicode="&#24325;"
      horiz-adv-x="1000" vert-adv-y="1172"
      d="M226 556L226 599C182 570 135 542 85 517L85 517L46 582C114 611 176 648 232 693C287 737 335 785 374 836L374 836L435 798C388 733 330 675 261 624L261 624L728 624C664 673 605 735 552 812L552 812L614 845C663 778 712 725 763 686C814 647 878 612 955 583L955 583L917 517C864 540 817 565 776 591L776 591C771 535 765 491 760 458L760 458C754 427 746 403 736 387C726 370 711 357 692 349C672 341 644 337 609 337L609 337C564 337 519 340 476 346L476 346L463 414C491 408 528 404 575 402L575 402C602 401 623 402 637 406C651 410 661 417 668 427C674 437 679 452 683 472L683 472C686 484 688 498 691 515C693 531 695 545 696 556L696 556L413 556C408 512 395 475 375 445C355 415 324 388 282 365C240 341 182 317 108 294L108 294L76 361C143 380 193 398 228 415C263 432 287 452 302 473C317 494 327 521 333 556L333 556L226 556ZM627 313L700 313L700 210L927 210L927 143L700 143L700-66L627-66L627 143L358 143C347 87 322 42 284 9C246-24 193-55 124-82L124-82L89-18C146-1 190 21 221 46C252 71 273 103 283 143L283 143L73 143L73 210L291 210L295 310L370 310C370 289 368 255 365 210L365 210L627 210L627 313Z"/>
    <glyph glyph-name="" unicode="&#24326;"
      horiz-adv-x="1000" vert-adv-y="1172"
      d="M173 412C210 430 266 472 341 539L341 539L55 539L55 607L464 607L464 690L136 690L136 756L464 756L464 838L537 838L537 756L866 756L866 690L537 690L537 607L942 607L942 539L453 539C390 478 333 431 282 398L282 398L684 423L605 485L652 537C690 509 732 478 777 443C822 408 863 376 902 345L902 345L856 289L770 355C601 352 436 345 273 334L273 334C209 330 162 326 132 322L132 322L111 391C130 394 151 401 173 412L173 412ZM714 222L944 222L944 149L714 149L714-66L643-66L643 149L361 149C350 102 326 60 289 24C251-13 193-48 114-82L114-82L68-18C133 8 182 34 215 60C248 86 270 116 281 149L281 149L62 149L62 222L294 222L294 244L294 317L370 317L370 238L370 222L643 222L643 313L714 313L714 222Z"/>
    <glyph glyph-name="" unicode="&#24327;"
      horiz-adv-x="1000" vert-adv-y="1172"
      d="M456 841L533 841C632 744 774 667 959 608L959 608L930 533C859 558 791 587 726 620L726 620L726 574L264 574L264 622C194 587 125 557 58 533L58 533L28 607C117 636 199 671 273 712C346 752 407 795 456 841L456 841ZM294 638L693 638C608 685 543 732 496 781L496 781C449 734 382 686 294 638L294 638ZM187 308L187 517L803 517L803 308L187 308ZM261 450L261 372L730 372L730 450L261 450ZM630 263L705 263L705 203L919 203L919 137L705 137L705-66L630-66L630 137L363 137C356 97 344 64 325 38C306 11 282-12 252-31C221-50 180-72 129-95L129-95L91-27C134-9 169 7 194 21C219 34 239 50 255 69C270 87 281 110 287 137L287 137L57 137L57 203L293 203L293 266L370 266C371 251 370 230 369 203L369 203L630 203L630 263Z"/>
    <glyph glyph-name="	" unicode="&#24329;"
      horiz-adv-x="1000" vert-adv-y="1172"
      d="M104 323L61 374C92 389 115 407 129 429C143 450 152 474 155 503L155 503L49 503L49 568L341 568L341 637L117 637L117 807L183 807L183 704L341 704L341 830L408 830L408 374L341 374L341 503L227 503C224 462 213 426 195 395C176 364 146 340 104 323L104 323ZM483 386L483 454L661 454L661 624L454 624L454 692L661 692L661 830L730 830L730 692L934 692L934 624L730 624L730 454L902 454L902 386L483 386ZM711 227L943 227L943 158L711 158L711-59L641-59L641 158L370 158C365 121 353 90 336 63C318 36 292 12 258-10C223-33 177-56 119-80L119-80L73-19C126 0 167 18 197 35C227 52 250 70 265 89C280 108 291 131 297 158L297 158L59 158L59 227L303 227C304 238 304 255 304 280L304 280C304 306 304 324 303 335L303 335L376 335C376 293 375 257 374 227L374 227L641 227L641 335L711 335L711 227Z"/>
    <glyph glyph-name="" unicode="&#24332;"
      horiz-adv-x="1000" vert-adv-y="1172"
      d="M869 205L939 181C930 126 922 80 913 43L913 43C902-2 888-32 871-49C853-66 830-75 803-75L803-75C778-75 754-67 733-50C712-34 689-6 666 34L666 34C642 79 621 144 603 229C584 313 570 413 561 528L561 528L77 528L77 604L556 604L554 638C553 685 550 753 546 844L546 844L627 844C627 814 630 744 635 635L635 635L637 604L926 604L926 528L642 528C659 297 693 140 743 56L743 56C760 30 779 17 798 17L798 17C810 17 820 22 827 31C834 40 841 60 848 91L848 91C859 136 866 174 869 205L869 205ZM873 675L817 628C780 676 742 723 703 768L703 768L758 813C808 756 846 710 873 675L873 675ZM553 183L553 106L62 106L62 183L553 183Z"/>
    <glyph glyph-name="" unicode="&#24333;"
      horiz-adv-x="1000" vert-adv-y="1172"
      d="M868 221L935 198C927 145 918 99 909 61L909 61C898 15 884-16 868-33C851-50 830-59 803-59L803-59C777-59 753-51 732-34C710-18 688 10 667 50L667 50C640 100 617 170 598 260C579 349 565 457 557 583L557 583L73 583L73 658L553 658C552 715 549 777 546 843L546 843L627 843C627 807 629 745 634 658L634 658L929 658L929 583L638 583C646 456 659 351 676 268C693 185 716 120 743 73L743 73C760 46 779 33 799 33L799 33C810 33 819 38 827 47C834 56 841 75 848 106L848 106C855 141 862 180 868 221L868 221ZM878 720L830 665C801 693 765 726 722 764L722 764C715 771 706 779 697 787L697 787L744 837C765 820 800 789 850 745L850 745L878 720ZM510 331L97 331L97 405L510 405L510 331ZM553 152L556 107L559 73C498 66 405 54 278 38C151 22 77 12 56 8L56 8L43 86C62 87 137 97 266 114C395 131 491 143 553 152L553 152Z"/>
    <glyph glyph-name="" unicode="&#24334;"
      horiz-adv-x="1000" vert-adv-y="1172"
      d="M643 663L938 663L938 588L647 588C656 460 669 354 686 270C703 186 724 120 751 72L751 72C760 57 767 46 774 41C781 35 788 32 796 32L796 32C805 32 813 34 819 37C824 40 829 46 834 57C839 68 843 84 848 107L848 107C856 144 863 182 869 221L869 221L937 198C929 145 920 99 911 61L911 61C900 15 887-16 870-33C853-50 832-59 805-59L805-59C780-59 759-51 740-35C721-20 699 9 676 50L676 50C649 98 626 167 607 258C588 348 574 458 566 588L566 588L75 588L75 663L562 663L560 726L556 843L637 843C637 796 639 736 643 663L643 663ZM877 720L829 665C800 693 764 726 721 764L721 764C714 771 705 779 696 787L696 787L743 837C764 820 799 789 849 745L849 745L877 720ZM81 404L81 476L517 476L517 404L81 404ZM118 296L487 296L487 224L118 224L118 296ZM556 140L557 96L558 63C497 56 404 44 277 28C150 11 76 1 55-2L55-2L45 72C65 74 140 84 269 101C398 118 494 131 556 140L556 140Z"/>
    <glyph glyph-name="" unicode="&#24336;"
      horiz-adv-x="1000" vert-adv-y="1172"
      d="M651 560L939 560L939 485L658 485C677 290 709 152 752 72L752 72C768 43 785 29 802 29L802 29C823 29 839 55 849 107L849 107C855 132 862 170 870 221L870 221L938 198C930 145 921 99 912 61L912 61C901 15 887-17 871-34C854-51 832-60 806-60L806-60C786-60 765-51 744-34C722-17 701 11 680 50L680 50C658 93 638 152 621 225C603 298 589 385 579 485L579 485L50 485L50 560L573 560C570 593 569 619 568 638L568 638C567 671 566 707 565 748C563 789 562 820 561 843L561 843L638 843C638 777 641 708 646 635L646 635C649 600 650 575 651 560L651 560ZM897 644L846 595C793 653 745 704 702 748L702 748L754 795C775 773 801 747 831 716C860 685 882 661 897 644L897 644ZM102 678L102 751L507 751L507 678L102 678ZM510 280L97 280L97 353L510 353L510 280ZM554 141L557 101L559 63C498 56 405 44 278 28C151 11 77 1 56-2L56-2L44 73C64 75 139 85 268 102C397 119 492 132 554 141L554 141Z"/>
    <glyph glyph-name="" unicode="&#24338;"
      horiz-adv-x="1000" vert-adv-y="1172"
      d="M892 199L960 177C951 120 941 70 929 29L929 29C923 3 913-18 900-33C887-49 872-57 856-58L856-58C837-58 819-51 802-36C785-21 770 1 758 30L758 30C741 73 727 137 717 221C707 304 699 422 692 575L692 575L440 575L440 647L690 647C687 722 685 787 685 844L685 844L756 844C758 798 760 732 761 647L761 647L945 647L945 575L762 575C767 442 774 336 783 258C792 180 803 120 818 78L818 78C824 63 830 51 836 43C841 35 846 31 850 31L850 31C853 31 858 37 863 48C868 59 873 75 877 96L877 96C884 129 889 164 892 199L892 199ZM92 484L52 547C100 574 153 610 210 656L210 656C153 707 107 746 73 774L73 774L117 829C152 801 201 759 265 703L265 703C322 754 363 796 390 831L390 831L446 787C417 750 374 707 319 657L319 657C388 596 434 555 456 535L456 535L405 480C380 503 333 546 264 609L264 609C199 556 141 514 92 484L92 484ZM930 714L882 667C840 715 805 753 776 782L776 782L822 825C870 777 906 740 930 714L930 714ZM275 335L275 305C315 270 364 224 423 165L423 165L379 116L355 140L275 219L275-72L209-72L209 196C184 145 148 91 99 34L99 34L49 87C90 133 122 175 146 214C170 253 189 293 204 335L204 335L58 335L58 400L209 400L209 533L275 533L275 400L362 400C352 411 339 425 323 442C306 458 293 471 282 480L282 480L324 523C349 499 378 471 409 438L409 438L370 400L417 400L417 335L275 335ZM701 121L704 86L709 50C673 45 616 37 538 26C459 14 414 7 403 4L403 4L393 73C411 74 453 80 518 90L518 90L518 368L438 368L438 436L670 436L670 368L586 368L586 101C645 110 683 116 701 121L701 121Z"/>
    <glyph glyph-name="" unicode="&#24340;"
      horiz-adv-x="1000" vert-adv-y="1172"
      d="M524 477L524 314L912 314C911 223 905 153 894 102L894 102C887 69 875 45 859 31C843 16 819 9 786 9L786 9C737 9 698 11 670 16L670 16L657 85C693 79 723 76 748 76L748 76C773 76 792 81 803 91C814 101 822 119 825 144L825 144L828 165L837 244L524 244L524-76L452-76L452 244L106 244L128 543L452 543L452 705L104 705L104 774L871 774L871 477L524 477ZM800 543L800 705L524 705L524 543L800 543ZM452 477L196 477L181 314L452 314L452 477Z"/>
    <glyph glyph-name="" unicode="&#24342;"
      horiz-adv-x="1000" vert-adv-y="1172"
      d="M781 362L132 362L160 610L752 610L752 715L139 715L139 785L822 785L822 538L235 538L223 433L864 433C862 411 859 383 855 349C850 315 846 288 841 268L841 268C832 228 821 197 808 174C795 151 776 135 753 125C730 115 699 111 661 113L661 113C570 118 504 124 462 132L462 132L447 201C475 196 511 191 556 188C600 184 636 182 665 182L665 182C694 182 716 188 732 201C747 214 758 234 765 263L765 263C774 300 779 333 781 362L781 362ZM925-30L73-30L73 39L925 39L925-30Z"/>
    <glyph glyph-name="" unicode="&#24345;"
      horiz-adv-x="1000" vert-adv-y="1172"
      d="M295 705L64 705L64 779L372 779L372 488L177 488L165 345L365 345C364 311 363 262 360 199C357 135 355 95 353 79L353 79C348 34 334 1 309-20C284-42 249-53 204-53L204-53C170-53 129-50 81-44L81-44L65 33C102 24 145 20 194 20L194 20C223 20 243 26 254 39C265 51 272 74 276 108L276 108C278 129 280 156 282 189C284 222 286 249 287 271L287 271L86 271L108 557L295 557L295 705ZM739 447L958 447L958 372L739 372L739 75C739 28 728-6 707-27C686-48 651-58 602-58L602-58C564-58 524-54 482-46L482-46L465 29C482 25 502 22 527 20C552 17 572 16 587 16L587 16C614 16 634 22 647 35C659 48 665 68 665 96L665 96L665 372L416 372L416 447L665 447L665 692L467 692L467 766L918 766L918 692L739 692L739 447Z"/>
    <glyph glyph-name="" unicode="&#24346;"
      horiz-adv-x="1000" vert-adv-y="1172"
      d="M537 304L910 304C911 281 910 250 908 213C905 176 902 139 897 102L897 102C893 70 886 46 877 29C867 12 854 1 839-5C823-11 802-14 775-14L775-14C744-14 718-13 697-12C676-11 655-9 634-4L634-4L621 66C665 59 707 56 748 56L748 56C771 56 787 61 799 72C810 82 818 101 823 128L823 128C827 150 830 169 832 184C833 199 834 215 833 232L833 232L537 232L537-73L463-73L463 232L108 232L139 501L463 501L463 631L100 631L100 703L335 703C300 751 273 787 254 812L254 812L317 854C356 805 387 764 410 731L410 731L362 703L567 703C604 752 640 802 675 853L675 853L744 821C724 791 695 752 657 703L657 703L860 703L860 430L537 430L537 304ZM786 501L786 631L537 631L537 501L786 501ZM463 430L205 430L189 304L463 304L463 430Z"/>
    <glyph glyph-name="" unicode="&#24348;"
      horiz-adv-x="1000" vert-adv-y="1172"
      d="M815 264L504 264L522 557L810 557L810 713L482 713L482 782L881 782L881 488L591 488L580 334L895 334C888 204 881 121 876 86L876 86C871 49 862 21 851 0C839-21 822-35 801-44C779-53 749-58 712-58L712-58C675-57 622-53 555-46L555-46C550-46 543-45 534-44L534-44L521 26C594 15 655 10 702 10L702 10C734 10 757 17 772 31C786 44 796 68 801 103L801 103C804 120 808 174 815 264L815 264ZM351 273L84 273L106 557L357 557L357 711L74 711L74 780L428 780L428 488L172 488L159 343L426 343C426 324 424 280 420 210C415 140 412 94 410 73L410 73C405 28 391-3 369-22C346-41 311-52 264-53L264-53C206-53 152-50 101-43L101-43L88 27C139 19 193 15 249 15L249 15C275 15 295 21 309 34C323 46 332 65 337 92L337 92C340 107 343 137 346 182C349 227 351 257 351 273L351 273Z"/>
    <glyph glyph-name="" unicode="&#24349;"
      horiz-adv-x="1000" vert-adv-y="1172"
      d="M863 235L936 219C937 182 935 135 931 77L931 77C930 47 924 24 915 8C906-8 892-19 873-25C854-32 828-36 795-39L795-39C750-42 708-44 667-44L667-44C633-44 597-42 559-39L559-39C511-34 478-22 459-2C440 18 431 52 431 99L431 99L431 780L893 780L893 352L502 352L502 124C502 91 508 69 519 57C530 45 552 37 585 34L585 34C626 31 658 29 680 29L680 29C703 29 735 31 775 34L775 34C798 36 814 39 826 43C837 47 845 54 850 64C855 73 858 88 859 109L859 109C862 160 863 202 863 235L863 235ZM302 705L71 705L71 779L379 779L379 488L184 488L172 345L372 345C371 313 370 265 367 202C364 138 362 97 360 79L360 79C355 34 341 0 316-21C291-42 256-53 209-53L209-53C167-52 127-49 88-44L88-44L72 33C107 24 150 20 199 20L199 20C220 20 235 23 246 28C257 33 265 42 270 54C275 66 279 84 283 108L283 108C284 116 286 139 289 177C292 215 293 246 294 271L294 271L93 271L115 557L302 557L302 705ZM502 426L631 426L631 708L502 708L502 426ZM700 708L700 426L823 426L823 708L700 708Z"/>
    <glyph glyph-name="" unicode="&#24350;"
      horiz-adv-x="1000" vert-adv-y="1172"
      d="M852 632L549 632C522 567 487 500 444 431L444 431L379 472C416 531 448 589 474 648C500 706 523 771 543 842L543 842L617 830C604 783 590 742 577 705L577 705L928 705L928 632C921 614 909 584 892 542C875 500 859 465 846 436L846 436L777 467C788 491 802 521 818 556C834 591 845 616 852 632L852 632ZM295 705L64 705L64 779L372 779L372 488L177 488L165 345L365 345C364 313 363 265 360 202C357 138 355 97 353 79L353 79C348 36 334 3 311-18C288-40 254-51 208-51L208-51C170-51 131-49 92-44L92-44L76 33C106 26 144 22 189 22L189 22C210 22 226 24 237 29C248 34 256 42 262 55C268 68 273 86 276 111L276 111C278 129 280 154 282 186C284 218 286 246 287 271L287 271L86 271L108 557L295 557L295 705ZM686 403C698 320 726 246 771 181C815 116 875 58 951 7L951 7L899-60C780 27 700 133 659 256L659 256C640 198 612 143 574 91C536 39 486-14 424-67L424-67L373-1C460 66 522 136 559 208C596 280 615 364 615 459L615 459L615 569L688 569L688 461C688 448 687 428 686 403L686 403Z"/>
    <glyph glyph-name="!" unicode="&#24353;"
      horiz-adv-x="1000" vert-adv-y="1172"
      d="M877 213L508 213L508 38L937 38L937-31L438-31L438 780L926 780L926 708L508 708L508 554L877 554L877 213ZM305 705L74 705L74 779L382 779L382 488L187 488L175 345L375 345C374 313 373 265 370 202C367 138 365 97 363 79L363 79C358 35 343 2 320-20C296-42 260-53 212-53L212-53C169-52 129-49 91-44L91-44L75 33C110 24 153 20 203 20L203 20C222 20 236 23 246 28C255 33 263 41 269 53C274 64 280 83 286 108L286 108C288 115 290 138 293 177C295 215 296 246 297 271L297 271L96 271L118 557L305 557L305 705ZM508 284L806 284L806 485L508 485L508 284Z"/>
    <glyph glyph-name=""" unicode="&#24354;"
      horiz-adv-x="1000" vert-adv-y="1172"
      d="M955-4L927-81C826-50 735-3 656 59L656 59C583 7 495-41 391-85L391-85L352-10C453 26 535 66 600 109L600 109C525 180 470 263 435 356L435 356L397 356L397 430L629 430L629 550L411 550L411 781L480 781L480 622L629 622L629 841L699 841L699 622L846 622L846 781L916 781L916 550L699 550L699 430L890 430L890 356C860 265 803 183 719 109L719 109C788 60 866 22 955-4L955-4ZM177 488L165 345L355 345C354 313 353 265 350 202C347 138 345 97 343 79L343 79C338 35 323 2 300-20C276-42 240-53 192-53L192-53C167-52 133-49 91-44L91-44L75 33C96 28 114 25 131 23C147 21 165 20 186 20L186 20C211 20 229 26 241 38C252 50 260 73 266 108L266 108C267 116 269 139 272 177C275 215 276 246 277 271L277 271L86 271L108 557L285 557L285 705L64 705L64 779L362 779L362 488L177 488ZM811 356L513 356C546 280 595 213 662 154L662 154C734 213 784 280 811 356L811 356Z"/>
    <glyph glyph-name="#" unicode="&#24355;"
      horiz-adv-x="1000" vert-adv-y="1172"
      d="M511 838L584 822C565 749 543 683 520 623L520 623L520-66L449-66L449 465C430 430 408 393 383 353L383 353L334 417C368 467 401 531 434 609C467 686 492 763 511 838L511 838ZM850 631L956 631L956 559L850 559L850 51C850 10 841-20 824-38C806-56 775-65 730-65L730-65C693-65 657-62 623-56L623-56L609 18C639 11 674 7 715 7L715 7C740 7 758 13 767 25C776 36 780 55 780 81L780 81L780 559L556 559L556 631L780 631L780 826L850 826L850 631ZM362 488L187 488L175 345L355 345C354 311 353 262 350 199C347 135 345 95 343 79L343 79C338 35 323 2 300-19C276-40 240-51 192-52L192-52C162-52 132-49 101-44L101-44L85 33C102 28 118 25 133 24C147 22 164 21 183 21L183 21C210 21 230 27 242 39C253 50 261 73 266 108L266 108C268 119 270 143 273 181C275 219 276 249 277 271L277 271L96 271L118 557L285 557L285 705L84 705L84 779L362 779L362 488ZM741 240L671 211C660 242 646 281 627 330C608 379 590 421 575 458L575 458L644 487C687 384 720 302 741 240L741 240Z"/>
    <glyph glyph-name="$" unicode="&#24356;"
      horiz-adv-x="1000" vert-adv-y="1172"
      d="M896 202L961 179C958 162 954 139 949 109C943 78 938 55 935 40L935 40C928 9 918-12 905-25C891-38 874-45 854-45L854-45C835-45 817-34 798-12C779 10 761 45 745 94L745 94C722 170 704 270 691 395L691 395L508 395L508 127L656 239L686 170C660 152 635 134 611 116L611 116C651 59 683 10 708-31L708-31L648-67C646-64 644-60 641-56C638-52 635-48 632-43L632-43C609-7 583 32 554 75L554 75L516 46C499 33 479 17 455-2L455-2L408 52C418 61 425 71 430 81C434 90 436 102 436 115L436 115L436 749C511 754 590 763 673 775C756 787 831 801 900 816L900 816L915 744C863 733 807 722 747 713L747 713C749 628 753 546 759 469L759 469L945 469L945 395L765 395C779 258 797 161 820 102L820 102C828 81 835 66 841 59C846 51 852 47 857 47L857 47C867 47 874 63 879 95L879 95C886 127 891 163 896 202L896 202ZM285 705L64 705L64 779L362 779L362 488L177 488L165 345L355 345C354 313 353 265 350 202C347 138 345 97 343 79L343 79C338 35 323 2 300-19C276-40 240-51 192-52L192-52C166-52 132-49 91-44L91-44L75 33C94 28 111 25 126 24C141 22 159 21 179 21L179 21C198 21 213 23 224 28C235 33 243 41 250 54C256 66 261 84 266 108L266 108C267 116 269 139 272 177C275 215 276 246 277 271L277 271L86 271L108 557L285 557L285 705ZM508 683L508 469L685 469C680 534 677 612 675 703L675 703C611 694 555 688 508 683L508 683Z"/>
    <glyph glyph-name="(" unicode="&#24360;"
      horiz-adv-x="1000" vert-adv-y="1172"
      d="M412 707L412 781L908 781C904 673 898 594 890 545L890 545C882 497 869 463 853 443C836 422 807 412 767 412L767 412C721 412 683 415 652 421L652 421L638 495C658 490 678 487 698 486C718 485 730 484 733 484L733 484C758 483 775 488 787 500C798 512 808 535 817 569L817 569C820 582 824 604 827 637C830 670 832 693 832 707L832 707L623 707C622 701 619 681 614 646L614 646C605 583 587 529 558 484C529 439 481 394 415 348L415 348L366 411C408 438 441 465 465 491C488 517 506 544 517 573C528 601 538 636 546 677L546 677L552 707L412 707ZM285 705L64 705L64 779L362 779L362 488L177 488L165 345L355 345C354 313 353 265 350 202C347 138 345 97 343 79L343 79C338 35 323 2 300-19C276-41 240-52 192-52L192-52C163-51 129-49 91-45L91-45L75 32C96 27 114 24 130 23C146 22 165 21 186 21L186 21C211 21 229 27 241 39C252 51 260 74 266 108L266 108C267 116 269 139 272 177C275 215 276 246 277 271L277 271L86 271L108 557L285 557L285 705ZM519-14L519-73L449-73L449 335L890 335L890-73L820-73L820-14L519-14ZM519 56L820 56L820 265L519 265L519 56Z"/>
    <glyph glyph-name="+" unicode="&#24363;"
      horiz-adv-x="1000" vert-adv-y="1172"
      d="M884 231L732 231L732 39L940 39L940-30L417-30L417 787L927 787L927 716L732 716L732 550L884 550L884 231ZM285 705L64 705L64 779L362 779L362 488L177 488L165 345L355 345C354 313 353 265 350 202C347 138 345 97 343 79L343 79C338 35 323 2 300-20C277-42 242-53 195-53L195-53C172-53 151-52 131-49C110-46 97-45 91-44L91-44L75 33C102 26 135 22 173 20L173 20C194 19 210 20 222 25C233 29 242 38 249 51C256 64 261 83 266 108L266 108C267 116 269 139 272 177C275 215 276 246 277 271L277 271L86 271L108 557L285 557L285 705ZM486 550L662 550L662 716L486 716L486 550ZM486 482L486 299L814 299L814 482L486 482ZM662 39L662 231L486 231L486 39L662 39Z"/>
    <glyph glyph-name="," unicode="&#24364;"
      horiz-adv-x="1000" vert-adv-y="1172"
      d="M881 223L749 223L749 39L948 39L948-28L414-28L414 780L935 780L935 710L749 710L749 548L881 548L881 223ZM285 705L64 705L64 779L362 779L362 488L177 488L165 345L355 345C354 313 353 265 350 202C347 138 345 97 343 79L343 79C338 35 323 2 300-19C276-40 240-51 192-52L192-52C166-52 132-49 91-44L91-44L75 33C95 28 113 25 129 24C144 22 162 21 183 21L183 21C210 21 229 27 240 39C251 50 260 73 266 108L266 108C267 116 269 139 272 177C275 215 276 246 277 271L277 271L86 271L108 557L285 557L285 705ZM684 482L684 710L483 710L483 39L684 39L684 290L816 290L816 482L684 482ZM612 186L549 186L549 584L612 584L612 186Z"/>
    <glyph glyph-name="." unicode="&#24366;"
      horiz-adv-x="1000" vert-adv-y="1172"
      d="M754 372L754 243L264 243L253 180L827 180C826 162 823 138 819 109C814 80 810 59 806 46L806 46C791 1 770-29 745-44C720-60 685-68 642-68L642-68C577-67 513-63 452-56L452-56L440 6C466 3 499 0 538-3C577-6 609-7 634-7L634-7C659-7 678-2 690 8C702 17 713 32 722 51L722 51C730 67 736 89 739 118L739 118L169 118L196 305L684 305L684 366L273 366L273 391C218 350 148 311 63 274L63 274L34 338C146 387 234 442 299 503L299 503L61 503L61 565L355 565C374 591 390 615 402 638L402 638L96 638L96 700L275 700C256 723 225 755 182 798L182 798L231 840C265 808 302 769 342 724L342 724L314 700L430 700C446 746 459 794 468 845L468 845L540 835C531 789 519 744 504 700L504 700L675 700L652 721C685 751 722 791 765 841L765 841L817 799C799 778 768 745 723 700L723 700L902 700L902 638L479 638C467 611 454 586 440 565L440 565L939 565L939 503L690 503C725 469 766 439 811 414C856 389 908 366 967 345L967 345L938 278C871 304 809 335 754 372L754 372ZM603 503L395 503C371 475 346 450 321 428L321 428L679 428C651 451 626 476 603 503L603 503Z"/>
    <glyph glyph-name="0" unicode="&#24368;"
      horiz-adv-x="1000" vert-adv-y="1172"
      d="M628 823L702 823L702 541L911 541L911 34C911 5 907-18 901-34C894-50 882-61 865-68C848-75 825-78 795-78L795-78C759-78 724-76 691-73L691-73L676 0C698-5 729-8 770-10L770-10C795-11 813-6 823 5C832 16 837 34 837 60L837 60L837 115L494 115L494-77L420-77L420 541L628 541L628 823ZM583 623L527 571C485 627 439 683 389 739L389 739L442 788C472 755 519 700 583 623L583 623ZM888 784L944 739C889 670 843 613 804 568L804 568L750 619C773 643 797 670 823 701C848 732 870 759 888 784L888 784ZM295 705L74 705L74 779L372 779L372 488L187 488L175 345L365 345C364 313 363 265 360 202C357 138 355 97 353 79L353 79C348 35 333 2 310-19C286-41 250-52 202-52L202-52C170-51 136-49 101-44L101-44L85 33C106 28 124 25 140 24C155 22 174 21 196 21L196 21C221 21 240 27 251 39C262 51 270 74 276 108L276 108C277 116 279 139 282 177C285 215 286 246 287 271L287 271L96 271L118 557L295 557L295 705ZM494 470L494 362L837 362L837 470L494 470ZM837 294L494 294L494 184L837 184L837 294Z"/>
    <glyph glyph-name="2" unicode="&#24370;"
      horiz-adv-x="1000" vert-adv-y="1172"
      d="M441 560L441 796L871 796L871 560L441 560ZM285 705L64 705L64 779L362 779L362 488L177 488L165 345L355 345C354 313 353 265 350 202C347 138 345 97 343 79L343 79C338 35 323 2 300-19C276-40 240-51 192-52L192-52C166-52 132-49 91-44L91-44L75 33C95 28 113 25 129 24C144 22 162 21 183 21L183 21C210 21 229 27 240 39C251 50 260 73 266 108L266 108C267 116 269 139 272 177C275 215 276 246 277 271L277 271L86 271L108 557L285 557L285 705ZM511 731L511 626L801 626L801 731L511 731ZM412-61L412 481L899 481L899 52C899 10 890-20 872-38C854-56 821-65 774-65L774-65C733-64 696-61 664-56L664-56L651 10C689 2 727-2 765-2L765-2C790-2 807 4 816 16C825 27 829 45 829 68L829 68L829 113L482 113L482-61L412-61ZM482 326L829 326L829 416L482 416L482 326ZM829 263L482 263L482 175L829 175L829 263Z"/>
    <glyph glyph-name="3" unicode="&#24371;"
      horiz-adv-x="1000" vert-adv-y="1172"
      d="M262 708L67 708L67 784L339 784L339 487L162 487L149 348L327 348C326 314 325 269 324 213C322 156 320 109 319 72L319 72C318 40 313 15 304-2C294-20 279-32 260-39C241-46 214-50 180-50L180-50C161-50 132-49 95-46L95-46L79 29C112 25 146 23 179 23L179 23C202 23 219 29 230 41C240 52 245 71 246 98L246 98L252 271L75 271L93 561L262 561L262 708ZM384 711L384 782L924 782L924 711L384 711ZM548 342L482 306C460 349 423 412 371 496L371 496C388 522 406 553 425 589C444 625 460 657 473 686L473 686L545 661C532 634 516 604 499 573C481 542 466 516 453 496L453 496C472 470 503 419 548 342L548 342ZM659 686L730 661C716 632 701 602 684 571C667 540 652 515 639 498L639 498C652 479 667 454 686 424C704 394 720 367 733 342L733 342L668 307C632 371 594 434 554 496L554 496C572 522 591 554 611 591C631 628 647 659 659 686L659 686ZM846 685L917 660C904 635 889 607 872 576C855 545 839 518 825 496L825 496C839 477 856 452 875 421C894 390 909 363 920 342L920 342L854 308C839 336 820 368 799 404C777 439 757 470 740 496L740 496C757 522 777 554 798 591C819 628 835 659 846 685L846 685ZM906 199L691 199L691 29L946 29L946-44L347-44L347 29L611 29L611 199L400 199L400 271L906 271L906 199Z"/>
    <glyph glyph-name="4" unicode="&#24372;"
      horiz-adv-x="1000" vert-adv-y="1172"
      d="M718 742L945 742L945 675L392 675L392 742L631 742C616 771 599 802 580 834L580 834L651 861C669 832 691 793 718 742L718 742ZM273 705L52 705L52 779L350 779L350 488L165 488L153 345L343 345C342 313 341 265 338 202C335 138 333 97 331 79L331 79C326 35 311 2 288-19C264-40 228-51 180-52L180-52C154-52 120-49 79-44L79-44L63 33C83 28 101 25 117 24C132 22 150 21 171 21L171 21C198 21 217 27 228 39C239 50 248 73 254 108L254 108C255 116 257 139 260 177C263 215 264 246 265 271L265 271L74 271L96 557L273 557L273 705ZM430 613L875 613L875 422L430 422L430 613ZM805 483L805 550L501 550L501 483L805 483ZM688 192L951 192L951 126L688 126L688 42C688 3 678-24 659-40C640-57 606-65 559-65L559-65C521-64 490-61 465-57L465-57L450 15C463 12 479 9 498 8C517 6 533 5 547 5L547 5C574 5 593 10 603 21C613 31 618 46 618 67L618 67L618 126L360 126L360 192L618 192L618 227L760 301L401 301L401 361L892 361L892 305L688 197L688 192Z"/>
    <glyph glyph-name="5" unicode="&#24373;"
      horiz-adv-x="1000" vert-adv-y="1172"
      d="M764 124C787 99 815 78 848 60C880 41 919 25 965 12L965 12L934-54C871-32 819-6 778 24C737 53 703 89 676 132C649 174 623 228 598 293L598 293L520 293L520 31L684 94L688 17C590-16 521-42 481-60L481-60C466-67 455-73 446-78L446-78L417-9C429-2 437 5 442 11C446 17 448 25 448 36L448 36L448 293L370 293L370 361L450 361L450 792L900 792L900 721L524 721L524 648L875 648L875 582L524 582L524 505L875 505L875 438L524 438L524 361L953 361L953 293L669 293C686 248 705 209 725 176L725 176C784 212 832 244 869 273L869 273L909 218C859 184 811 153 764 124L764 124ZM270 708L68 708L68 785L347 785L347 492L173 492L161 351L344 351C342 223 336 124 325 53L325 53C319 15 307-13 290-30C272-48 244-57 205-57L205-57C164-57 128-55 99-52L99-52L84 24C111 21 145 19 184 19L184 19C205 19 221 24 230 35C239 46 246 63 250 87L250 87C259 147 264 210 264 277L264 277L81 277L103 565L270 565L270 708Z"/>
    <glyph glyph-name="6" unicode="&#24374;"
      horiz-adv-x="1000" vert-adv-y="1172"
      d="M720 732L936 732L936 662L392 662L392 732L638 732C626 769 613 803 600 833L600 833L675 855C687 824 702 783 720 732L720 732ZM168 345L348 345C347 313 346 265 343 202C340 138 338 97 336 79L336 79C331 35 316 3 293-18C269-39 233-50 185-51L185-51C155-51 125-49 94-44L94-44L78 33C109 26 141 22 172 22L172 22C191 22 206 24 217 29C228 33 236 41 243 54C249 66 254 84 259 108L259 108C260 116 262 139 265 177C268 215 269 246 270 271L270 271L89 271L111 557L278 557L278 705L77 705L77 779L355 779L355 488L180 488L168 345ZM880 565L880 281L699 281L699 41C699 2 691-25 676-41C661-57 633-65 592-66L592-66C569-66 543-63 516-57L516-57L503 14C521 8 543 5 570 5L570 5C593 5 608 10 616 19C623 28 627 44 627 66L627 66L627 281L438 281L438 565L880 565ZM807 352L807 493L511 493L511 352L807 352ZM485 230L550 197C510 116 458 38 395-37L395-37L336 8C400 81 450 155 485 230L485 230ZM759 193L822 229C840 201 879 135 940 31L940 31L955 4L890-34C875-5 854 33 827 80C800 126 777 164 759 193L759 193Z"/>
    <glyph glyph-name="7" unicode="&#24375;"
      horiz-adv-x="1000" vert-adv-y="1172"
      d="M947-49L883-78C880-70 877-63 874-56C871-49 869-43 866-37L866-37L854-7L669-18C476-29 367-35 343-36L343-36L336 38C366 38 455 42 604 51L604 51L604 185L388 185L388 454L604 454L604 563L490 557C439 554 405 550 388 546L388 546L374 623C387 628 396 632 402 635C408 638 414 643 420 650L420 650C447 680 475 714 505 752C535 790 561 826 583 859L583 859L649 820C608 755 558 692 498 629L498 629L780 640C769 653 760 665 752 676C743 686 736 695 729 703L729 703L703 734L758 781C839 686 897 615 934 568L934 568L880 517C858 544 844 562 837 570L837 570C796 569 742 568 675 565L675 565L675 454L888 454L888 185L675 185L675 55L766 60L824 64C809 97 796 126 785 150L785 150L848 177C893 79 926 4 947-49L947-49ZM251 721L65 721L65 792L322 792L322 482L155 482L145 335L315 335C314 304 313 257 310 195C307 132 305 92 302 74L302 74C297 43 291 18 282-1C273-20 259-34 242-43C224-53 199-59 168-61L168-61C139-63 108-60 74-51L74-51L60 23C83 16 115 13 155 13L155 13C173 13 187 16 197 23C206 29 213 38 218 49C223 60 228 76 233 97L233 97C235 105 237 129 240 169C243 209 244 241 245 264L245 264L65 264L88 552L251 552L251 721ZM604 382L460 382L460 256L604 256L604 382ZM675 256L817 256L817 382L675 382L675 256Z"/>
    <glyph glyph-name="8" unicode="&#24376;"
      horiz-adv-x="1000" vert-adv-y="1172"
      d="M360 789L593 789L593 41C593 8 587-16 575-31C563-46 541-53 508-53L508-53C489-53 467-50 440-45L440-45L426 23C445 16 465 13 486 13L486 13C502 13 513 17 520 26C526 35 529 47 529 63L529 63L529 237L419 237C415 179 405 126 390 78C374 29 350-21 317-72L317-72L258-40C287 3 309 42 323 77C337 112 347 152 352 195C357 238 360 294 360 365L360 365L360 430L360 789ZM659 428L659 789L905 789L905 39C905 2 899-25 888-40C877-55 854-63 820-63L820-63C794-63 768-60 743-53L743-53L730 14C751 7 771 3 790 3L790 3C809 3 823 8 831 18C838 27 842 42 842 62L842 62L842 237L720 237C717 168 710 112 698 68C685 23 665-24 636-73L636-73L574-44C601-1 620 37 631 71C642 105 650 147 654 198C657 248 659 325 659 428L659 428ZM144 340L281 340C280 303 279 252 277 187C274 122 272 82 270 65L270 65C266 32 260 7 253-10C246-27 234-40 220-47C205-55 183-59 156-60L156-60C123-60 93-57 67-50L67-50L53 23C66 19 83 16 102 14C121 12 138 11 153 11L153 11C167 11 177 17 184 29C191 40 197 61 204 92L204 92C206 100 208 125 210 167C211 209 212 243 212 270L212 270L74 270L91 554L221 554L221 706L51 706L51 777L286 777L286 486L156 486L144 340ZM422 541L529 541L529 722L422 722L422 541ZM722 539L842 539L842 722L722 722L722 539ZM422 331L422 304L529 304L529 476L422 476L422 331ZM722 329L722 304L842 304L842 473L722 473L722 329Z"/>
    <glyph glyph-name=";" unicode="&#24379;"
      horiz-adv-x="1000" vert-adv-y="1172"
      d="M466 618L466 723L332 723L332 789L661 789L661 723L525 723L525 618L656 618L656-51L594-51L594 16L397 16L397-51L335-51L335 618L466 618ZM937 780L937 489L807 489L795 343L932 343C929 189 925 97 921 68L921 68C918 37 912 13 905-4C898-22 886-35 870-44C853-53 830-57 801-58L801-58C772-58 745-54 718-46L718-46L704 27C731 18 758 14 787 14L787 14C810 14 826 21 837 35C847 48 853 68 855 95L855 95C857 115 859 146 861 187C863 228 864 257 863 273L863 273L725 273L742 557L872 557L872 709L702 709L702 780L937 780ZM221 706L51 706L51 777L286 777L286 486L156 486L144 340L282 340C282 313 281 267 278 202C275 137 273 91 270 65L270 65C266 18 255-15 237-34C219-53 190-62 149-61L149-61C145-61 134-60 116-59C98-58 82-55 67-50L67-50L53 23C66 19 81 16 98 14C115 11 130 10 145 10L145 10C162 10 175 17 185 30C194 43 201 63 204 92L204 92C207 118 209 149 211 185C213 220 214 249 213 270L213 270L74 270L91 554L221 554L221 706ZM466 477L466 552L397 552L397 250C417 275 432 299 442 322C451 345 458 367 461 390C464 413 465 442 466 477L466 477ZM594 265L594 552L525 552L525 477C525 447 524 420 521 396L521 396C538 366 563 322 594 265L594 265ZM397 209L397 78L594 78L594 211L566 194C555 217 538 248 517 287L517 287L503 313C486 262 457 218 418 179L418 179L397 209Z"/>
    <glyph glyph-name="=" unicode="&#24381;"
      horiz-adv-x="1000" vert-adv-y="1172"
      d="M931 203L710 203C744 169 784 137 829 107C874 77 920 52 967 33L967 33L933-29C824 22 736 86 671 162L671 162L671-68L605-68L605 157C572 118 536 83 497 52C457 21 409-9 352-37L352-37L314 29C365 51 410 77 450 106C489 135 526 167 561 203L561 203L355 203L355 268L605 268L605 354L416 354L416 645L350 645L350 711L416 711L416 817L482 817L482 711L582 711L582 835L647 835L647 711L771 711L771 834L836 834L836 711L939 711L939 645L836 645L836 494L582 494L582 645L482 645L482 419L915 419L915 354L671 354L671 268L931 268L931 203ZM150 335L321 335C322 294 320 245 317 190C314 135 310 96 307 74L307 74C300 26 288-9 270-31C252-54 224-65 185-65L185-65C149-65 114-60 79-51L79-51L65 23C80 18 96 15 115 13C133 10 150 9 165 9L165 9C182 9 195 13 204 20C213 27 219 36 224 48C228 59 233 76 238 97L238 97C240 106 243 130 246 170C249 210 250 241 251 264L251 264L70 264L93 552L256 552L256 721L70 721L70 792L327 792L327 482L160 482L150 335ZM647 557L771 557L771 645L647 645L647 557Z"/>
    <glyph glyph-name=">" unicode="&#24382;"
      horiz-adv-x="1000" vert-adv-y="1172"
      d="M711 713L647 687C640 705 629 729 615 759C601 788 590 810 582 825L582 825L645 851C653 837 664 816 677 788C690 759 702 734 711 713L711 713ZM684 161L951 161L951 94L684 94L684-74L614-74L614 94L358 94L358 161L614 161L614 261L403 261L403 655L725 655C777 737 812 798 831 839L831 839L897 813C877 772 845 719 802 655L802 655L896 655L896 261L684 261L684 161ZM541 698L480 664C472 679 459 700 442 729C425 757 410 781 397 800L397 800L458 833C474 811 502 766 541 698L541 698ZM261 721L75 721L75 792L332 792L332 482L165 482L155 335L325 335C324 304 323 257 320 195C317 132 315 92 312 74L312 74C307 41 300 15 290-4C280-23 265-38 245-47C225-56 198-61 164-61L164-61C137-61 111-58 84-51L84-51L70 23C91 16 123 13 166 13L166 13C192 13 210 19 221 32C232 45 239 66 243 97L243 97C245 115 247 143 250 180C253 217 254 245 255 264L255 264L75 264L98 552L261 552L261 721ZM469 488L614 488L614 595L469 595L469 488ZM684 595L684 488L827 488L827 595L684 595ZM614 429L469 429L469 321L614 321L614 429ZM827 429L684 429L684 321L827 321L827 429Z"/>
    <glyph glyph-name="?" unicode="&#24383;"
      horiz-adv-x="1000" vert-adv-y="1172"
      d="M754 295L754 187L264 187L254 137L826 137C824 120 821 97 817 68C813 39 809 19 806 10L806 10C795-22 777-43 752-54C726-65 687-71 636-72L636-72C613-72 581-71 540-68C498-66 469-63 452-60L452-60L440-1C456-4 482-7 517-9C552-11 582-12 608-12L608-12C649-12 677-9 692-2C707 5 718 17 723 34L723 34C724 37 727 45 731 57C735 68 737 77 738 83L738 83L169 83L196 239L684 239L684 290L273 290L273 307C208 267 136 237 59 216L59 216L34 280C89 294 139 312 184 333C229 354 266 376 297 401L297 401L58 401L58 450L326 450L326 497L151 497L151 546L326 546L326 592L142 592L142 615L90 615L90 765L478 765C461 796 449 817 440 830L440 830L511 855L564 765L908 765L908 623L858 623L858 592L672 592L672 546L849 546L849 497L672 497L672 450L941 450L941 401L701 401C766 352 855 313 968 284L968 284L946 222C875 241 811 265 754 295L754 295ZM837 711L161 711L161 642L326 642L326 684L395 684L395 642L603 642L603 684L672 684L672 642L837 642L837 711ZM603 546L603 592L395 592L395 546L603 546ZM603 450L603 497L395 497L395 450L603 450ZM609 401L392 401C375 384 354 365 329 345L329 345L672 345C649 362 628 381 609 401L609 401Z"/>
    <glyph glyph-name="A" unicode="&#24385;"
      horiz-adv-x="1000" vert-adv-y="1172"
      d="M861 726L861 434L791 434L791 726L369 726L369 793L933 793L933 726L861 726ZM261 721L75 721L75 792L332 792L332 482L165 482L155 335L325 335C326 295 325 247 322 192C319 136 315 97 312 74L312 74C305 25 292-10 273-32C254-54 223-65 178-65L178-65C146-65 115-60 84-50L84-50L70 24C97 14 130 9 170 9L170 9C194 9 211 16 221 31C231 45 238 67 243 97L243 97C250 148 254 204 255 264L255 264L75 264L98 552L261 552L261 721ZM417 658L697 658L697 475L417 475L417 658ZM633 531L633 601L482 601L482 531L633 531ZM357 408L949 408L949 341L862 341L862 55C862 26 859 3 852-13C845-29 832-41 815-49C798-57 772-62 739-64L739-64C706-65 674-63 642-56L642-56L628 13C651 6 678 3 708 3L708 3C733 3 751 5 763 9C774 13 782 20 786 30C790 39 792 54 792 74L792 74L792 341L357 341L357 408ZM413 57L413 268L696 268L696 57L413 57ZM479 212L479 114L630 114L630 212L479 212Z"/>
    <glyph glyph-name="B" unicode="&#24386;"
      horiz-adv-x="1000" vert-adv-y="1172"
      d="M636 844L636 643L943 643L943 579L56 579L56 643L364 643L364 844L436 844L436 643L562 643L562 844L636 844ZM305 697L250 652C231 678 195 724 140 790L140 790L191 830C225 792 263 748 305 697L305 697ZM803 827L858 788C842 765 805 719 746 652L746 652L693 694C742 750 779 794 803 827L803 827ZM930 198L725 198C767 103 845 35 959-4L959-4L918-71C861-48 814-19 775 14C736 47 705 87 681 133L681 133C662 90 632 51 590 19C547-14 489-47 415-78L415-78L377-14C454 15 512 46 552 80C591 113 618 153 631 198L631 198L409 198L409 261L641 261L641 273C642 286 642 329 642 402L642 402L531 402C510 361 491 326 472 298L472 298L414 335C455 394 491 471 522 565L522 565L588 545C579 517 569 490 558 464L558 464L899 464L899 402L713 402L712 341C712 310 712 291 711 283L711 283L710 261L930 261L930 198ZM301 453L83 453L83 514L373 514L373 305L171 305L160 217L373 217C372 194 371 163 369 123C367 82 365 55 363 41L363 41C358 3 345-25 326-42C306-59 274-68 231-69L231-69C188-69 149-66 116-60L116-60L103 6C116 3 133 0 154-2C174-4 192-5 208-5L208-5C235-5 255 0 267 11C279 21 287 37 291 60L291 60C292 67 294 80 296 100C298 119 299 137 300 153L300 153L85 153L106 367L301 367L301 453Z"/>
    <glyph glyph-name="C" unicode="&#24387;"
      horiz-adv-x="1000" vert-adv-y="1172"
      d="M251 721L65 721L65 792L322 792L322 482L155 482L145 335L315 335C314 304 313 257 310 195C307 132 305 92 302 74L302 74C295 25 282-10 263-32C244-54 213-65 168-65L168-65C138-65 107-60 74-50L74-50L60 24C74 19 90 15 109 13C128 10 145 9 160 9L160 9C184 9 201 16 210 30C219 44 227 66 233 97L233 97C239 131 243 187 245 264L245 264L65 264L88 552L251 552L251 721ZM843 393L955 393L955 335L843 335L843 244L928 244L928 186L672 186L672 103L952 103L952 44L672 44L672-71L606-71L606 44L352 44L352 103L606 103L606 186L348 186L348 244L435 244L435 335L338 335L338 393L435 393L435 484L385 484L385 790L892 790L892 484L843 484L843 393ZM452 665L606 665L606 732L452 732L452 665ZM672 732L672 665L825 665L825 732L672 732ZM606 609L452 609L452 542L606 542L606 609ZM825 542L825 609L672 609L672 542L825 542ZM606 393L606 484L501 484L501 393L606 393ZM672 484L672 393L777 393L777 484L672 484ZM606 335L501 335L501 244L606 244L606 335ZM672 335L672 244L777 244L777 335L672 335Z"/>
    <glyph glyph-name="D" unicode="&#24388;"
      horiz-adv-x="1000" vert-adv-y="1172"
      d="M957-31L356-31L356 781L940 781L940 713L424 713L424 35L957 35L957-31ZM57 706L57 777L292 777L292 486L162 486L150 340L287 340C286 303 285 252 283 187C280 122 278 82 276 65L276 65C272 33 266 9 259-8C251-25 239-37 224-44C209-51 187-56 159-57L159-57C126-57 97-55 73-50L73-50L59 23C72 20 87 18 106 17C125 15 141 14 155 14L155 14C170 14 182 20 190 31C197 42 204 63 210 92L210 92C212 100 214 125 216 167C217 209 218 243 218 270L218 270L80 270L97 554L227 554L227 706L57 706ZM860 433L531 433L531 638L860 638L860 433ZM798 489L798 581L593 581L593 489L798 489ZM676 116L485 116L485 362L676 362L676 116ZM916 116L726 116L726 362L916 362L916 116ZM621 173L621 305L540 305L540 173L621 173ZM862 173L862 305L780 305L780 173L862 173Z"/>
    <glyph glyph-name="E" unicode="&#24389;"
      horiz-adv-x="1000" vert-adv-y="1172"
      d="M769 737L948 737L948 675L341 675L341 737L512 737C486 774 466 800 453 816L453 816L512 848C523 834 536 818 550 800C563 781 573 767 580 756L580 756L543 737L692 737C719 773 744 809 767 845L767 845L828 820C811 793 791 766 769 737L769 737ZM237 706L67 706L67 777L302 777L302 486L172 486L160 340L297 340C296 303 295 252 293 187C290 122 288 82 286 65L286 65C282 33 276 8 269-9C261-26 249-39 234-46C219-53 197-57 170-57L170-57C128-56 99-53 83-50L83-50L69 23C82 20 97 18 116 17C134 15 150 14 164 14L164 14C180 14 192 20 199 31C206 42 213 62 220 92L220 92C222 100 224 125 226 167C227 209 228 243 228 270L228 270L90 270L107 554L237 554L237 706ZM836 375L836 628L896 628L896 366C896 325 889 297 876 281C862 265 836 257 799 256L799 256C768 256 743 258 723 263L723 263L712 323C732 317 757 314 787 314L787 314C807 314 820 319 827 329C833 338 836 354 836 375L836 375ZM538 306C553 306 564 309 569 316C574 323 577 334 577 349L577 349L577 371L440 371L440 256L381 256L381 617L636 617L636 350C636 315 630 291 618 276C606 261 584 253 552 253L552 253C531 253 511 254 492 257L492 257L482 312C491 309 500 308 510 307C519 306 528 306 538 306L538 306ZM704 359L704 609L762 609L762 359L704 359ZM440 517L577 517L577 567L440 567L440 517ZM577 467L440 467L440 420L577 420L577 467ZM526 151L348 151L348 213L892 213C891 193 888 165 885 129C881 92 878 69 876 58L876 58C869 28 862 5 853-11C844-27 832-39 815-47C798-56 773-60 741-60L741-60C705-60 671-57 639-51L639-51L627 14C660 7 696 3 733 3L733 3C756 3 773 8 782 18C791 27 801 45 810 70L810 70C815 82 818 109 820 151L820 151L594 151C587 109 575 75 560 49C544 23 520 0 487-19C454-38 407-57 346-76L346-76L316-13C369 0 409 14 438 28C466 42 487 59 500 78C513 97 521 121 526 151L526 151Z"/>
    <glyph glyph-name="F" unicode="&#24390;"
      horiz-adv-x="1000" vert-adv-y="1172"
      d="M792 513C836 483 892 457 960 434L960 434L927 371C851 398 789 431 742 470L742 470C700 439 644 408 575 379L575 379L546 439C611 464 661 488 696 512L696 512C665 543 639 581 618 626L618 626C607 611 593 594 576 577L576 577L541 620L541 393L477 393L477 628L349 628L349 407L290 407L290 628L160 628L160 389L97 389L97 685L191 685C133 752 100 789 93 796L93 796L138 832C143 828 158 812 184 784C209 755 228 734 240 720L240 720L201 685L290 685L290 843L349 843L349 685L429 685L394 717C415 739 450 779 499 837L499 837L546 802C513 761 479 722 445 685L445 685L541 685L541 632C566 661 591 695 616 735C641 774 660 813 674 850L674 850L736 837C722 798 708 767 695 743L695 743L952 743L952 685L886 685C866 615 835 558 792 513L792 513ZM657 679C678 630 707 588 745 551L745 551C762 568 777 588 790 610C802 631 813 656 822 685L822 685L661 685L657 679ZM359 576L406 599C443 525 467 476 476 453L476 453L428 431C420 449 408 475 392 510C376 544 365 566 359 576L359 576ZM228 597L277 580C269 559 259 533 246 502C233 471 222 447 213 428L213 428L164 452C175 471 186 494 199 522C211 549 221 574 228 597L228 597ZM822 193L239 193L229 139L855 139C852 100 848 66 842 37L842 37C835 0 820-27 795-44C770-61 732-70 683-70L683-70C589-68 523-65 486-61L486-61L475-1C501-4 535-7 576-9C617-11 654-12 686-12L686-12C713-12 732-9 745-2C758 5 766 16 770 32L770 32C771 38 773 46 775 56C776 65 777 74 778 82L778 82L152 82L178 250L754 250L754 300L160 300L160 357L822 357L822 193Z"/>
    <glyph glyph-name="G" unicode="&#24391;"
      horiz-adv-x="1000" vert-adv-y="1172"
      d="M660 488L660 266L836 266L836 326L716 326L716 463L767 463L767 378L836 378L836 457L899 457L899-64L836-64L836 94L769 94L769-33L717-33L717 148L836 148L836 211L660 211L660-56L596-56L596 211L426 211C425 188 423 167 420 148L420 148L538 148L538-33L487-33L487 94L410 94C403 64 392 36 377 9C362-18 343-46 318-77L318-77L261-43C291-8 313 25 328 55C342 84 351 116 356 151C361 185 363 230 363 287L363 287L363 459L427 459L427 378L490 378L490 463L542 463L542 326L427 326L427 271L427 266L596 266L596 488L353 488L353 539L596 539L596 599L324 599L324 649L596 649L596 708L362 708L362 760L596 760L596 845L661 845L661 760L889 760L889 649L959 649L959 599L889 599L889 488L660 488ZM162 340L303 340C300 214 295 122 288 65L288 65C284 34 278 10 269-7C260-24 248-37 232-44C216-51 194-56 166-57L166-57C141-58 114-55 85-50L85-50L71 23C98 17 128 14 161 14L161 14C178 14 191 20 201 31C211 42 218 62 222 90L222 90C226 120 229 152 231 186C233 219 234 247 234 270L234 270L92 270L109 554L239 554L239 706L69 706L69 777L304 777L304 486L174 486L162 340ZM825 649L825 708L661 708L661 649L825 649ZM825 539L825 599L661 599L661 539L825 539Z"/>
    <glyph glyph-name="H" unicode="&#24392;"
      horiz-adv-x="1000" vert-adv-y="1172"
      d="M374 584L374 800L623 800L623 584L374 584ZM671 584L671 800L924 800L924 584L671 584ZM232 714L65 714L65 789L305 789L305 493L159 493L148 352L302 352C302 262 299 168 293 71L293 71C291 39 286 15 279-2C272-19 260-31 243-38C226-45 201-49 168-49L168-49C150-49 122-48 85-45L85-45L70 31C103 28 133 26 158 26L158 26C175 26 188 28 197 33C205 38 210 44 214 53C217 62 219 75 221 94L221 94C226 143 228 204 228 277L228 277L72 277L90 567L232 567L232 714ZM444 739L444 644L554 644L554 739L444 739ZM740 739L740 644L854 644L854 739L740 739ZM687 195L687 121L959 121L959 56L687 56L687-76L611-76L611 56L339 56L339 121L611 121L611 195L402 195L402 524L896 524L896 195L687 195ZM475 383L611 383L611 464L475 464L475 383ZM687 464L687 383L823 383L823 464L687 464ZM611 326L475 326L475 255L611 255L611 326ZM823 326L687 326L687 255L823 255L823 326Z"/>
    <glyph glyph-name="I" unicode="&#24393;"
      horiz-adv-x="1000" vert-adv-y="1172"
      d="M933 681L792 681L792 591L959 591L959 528L675 528L675 448L886 448L886 117L397 117L397 448L607 448L607 528L350 528L350 591L493 591L493 681L373 681L373 745L493 745L493 838L560 838L560 745L724 745L724 838L792 838L792 745L933 745L933 681ZM237 706L57 706L57 777L302 777L302 486L172 486L160 340L297 340C296 303 295 252 293 187C290 122 288 82 286 65L286 65C282 33 276 9 268-8C260-25 248-37 232-44C216-51 194-56 165-57L165-57C128-57 97-55 73-50L73-50L59 23C72 20 88 18 109 17C130 15 147 14 162 14L162 14C179 14 191 20 200 32C209 43 215 63 220 92L220 92C221 101 223 126 225 168C227 209 228 243 228 270L228 270L80 270L97 554L237 554L237 706ZM724 591L724 681L560 681L560 591L724 591ZM467 312L607 312L607 387L467 387L467 312ZM675 312L817 312L817 387L675 387L675 312ZM607 178L607 253L467 253L467 178L607 178ZM817 253L675 253L675 178L817 178L817 253ZM345-80L312-15C351 0 395 19 445 42C495 65 535 85 566 103L566 103L599 46C559 23 515 0 468-23C421-47 380-66 345-80L345-80ZM684 44L717 102C751 87 793 68 842 45C891 21 929 1 958-15L958-15L925-75C804-13 724 27 684 44L684 44Z"/>
    <glyph glyph-name="J" unicode="&#24394;"
      horiz-adv-x="1000" vert-adv-y="1172"
      d="M333 742L333 799L929 799L929 742L333 742ZM233 706L63 706L63 777L298 777L298 486L168 486L156 340L293 340C292 303 291 252 289 187C286 122 284 82 282 65L282 65C279 34 273 11 266-6C259-23 247-35 232-43C217-52 194-56 165-57L165-57C132-57 103-55 79-50L79-50L65 23C92 17 121 14 150 14L150 14C171 14 187 21 197 34C207 47 213 67 216 92L216 92C217 112 219 142 221 183C223 224 224 253 224 270L224 270L86 270L103 554L233 554L233 706ZM371 694L890 694L890 451L371 451L371 694ZM438 599L598 599L598 642L438 642L438 599ZM664 642L664 599L823 599L823 642L664 642ZM598 504L598 548L438 548L438 504L598 504ZM823 548L664 548L664 504L823 504L823 548ZM318 354L318 408L953 408L953 354L318 354ZM368 310L894 310L894 63L368 63L368 310ZM434 212L600 212L600 258L434 258L434 212ZM664 258L664 212L826 212L826 258L664 258ZM600 116L600 160L434 160L434 116L600 116ZM826 160L664 160L664 116L826 116L826 160ZM959-38L304-38L304 20L959 20L959-38Z"/>
    <glyph glyph-name="K" unicode="&#24395;"
      horiz-adv-x="1000" vert-adv-y="1172"
      d="M356 585L356 796L904 796L904 585L356 585ZM168 486L156 340L293 340C292 303 291 252 289 187C286 122 284 82 282 65L282 65C278 33 272 9 265-8C258-25 246-36 232-43C217-50 195-55 167-56L167-56C129-56 100-54 79-50L79-50L65 23C89 18 122 15 163 15L163 15C178 15 189 21 196 32C203 43 210 63 216 92L216 92C218 100 220 125 222 167C223 209 224 243 224 270L224 270L86 270L103 554L233 554L233 706L63 706L63 777L298 777L298 486L168 486ZM530 640L530 742L419 742L419 640L530 640ZM586 640L689 640L689 742L586 742L586 640ZM746 742L746 640L841 640L841 742L746 742ZM329 473L329 529L940 529L940 473L329 473ZM787 89C832 57 888 33 955 16L955 16L924-53C844-22 780 13 733 53C685 92 643 144 608 208L608 208C577 178 550 155 527 138L527 138L527-1L657 54L662-10C609-27 570-41 546-50L546-50C512-63 486-74 467-84L467-84L442-37C451-28 458-21 461-16C464-11 465-5 465 2L465 2L465 96C425 71 377 47 321 23L321 23L293 87C400 127 486 177 551 238L551 238L372 238L372 416L883 416L883 238L660 238C687 192 713 156 740 129L740 129C789 159 836 191 879 226L879 226L916 171C875 144 832 116 787 89L787 89ZM820 292L820 360L436 360L436 292L820 292Z"/>
    <glyph glyph-name="L" unicode="&#24396;"
      horiz-adv-x="1000" vert-adv-y="1172"
      d="M211 711L60 711L60 786L282 786L282 494L155 494L144 345L281 345C280 315 279 270 277 211C275 151 272 104 269 71L269 71C266 37 262 12 257-4C252-21 242-33 229-40C215-47 194-51 167-51L167-51C134-51 106-49 83-46L83-46L68 29C97 24 123 22 144 22L144 22C163 22 177 27 184 38C191 49 197 68 200 95L200 95C205 136 208 196 210 274L210 274L72 274L88 564L211 564L211 711ZM967 575L934 519L905 540L905 33C905 10 903-9 899-22C895-36 887-46 876-53C864-60 847-63 824-63L824-63C798-63 769-61 738-58L738-58L726 5C758 1 782-1 798-1L798-1C815-1 826 3 832 12C837 21 839 36 839 57L839 57L839 72L797 45C791 56 776 81 751 121L751 121C732 94 712 67 691 40L691 40L660 66L660-46L593-46L593 68L556 39C547 55 530 82 504 121L504 121C485 92 464 64 443 39L443 39L413 67L413-59L347-59L347 541L322 529L294 589C326 602 362 621 402 644C442 667 478 690 509 713L509 713L545 663C504 633 460 604 412 576L412 576L591 576L591 716L331 716L331 784L929 784L929 716L662 716L662 576L850 576C786 616 740 644 712 659L712 659L747 711C847 652 920 607 967 575L967 575ZM533 165L593 75L593 513L413 513L413 308C431 327 452 354 477 387L477 387L423 463L460 489L506 427C513 438 526 458 545 489L545 489L586 465C568 434 551 408 536 386L536 386C560 352 579 324 593 302L593 302L555 271L506 344C488 320 468 295 445 270L445 270L413 299L413 82C435 109 456 136 475 165L475 165L423 243L461 269C471 256 485 235 503 208L503 208C517 230 529 251 539 271L539 271L580 247C567 221 551 194 533 165L533 165ZM839 306L839 513L660 513L660 307C679 328 700 355 724 387L724 387C699 422 681 448 669 463L669 463L705 490L753 427C767 447 780 468 792 489L792 489L832 466C819 441 802 414 783 385L783 385L839 306ZM780 166C797 139 813 115 827 94L827 94L839 75L839 295L804 269C797 280 781 306 754 345L754 345C731 314 710 289 692 270L692 270L660 299L660 82C677 101 698 128 723 165L723 165L672 243L711 270C722 255 736 235 751 210L751 210C764 231 775 251 786 271L786 271L827 248C814 222 798 195 780 166L780 166Z"/>
    <glyph glyph-name="M" unicode="&#24397;"
      horiz-adv-x="1000" vert-adv-y="1172"
      d="M661 371L661 421L436 421C436 330 434 259 430 207C426 155 417 107 405 63C392 18 371-29 343-80L343-80L282-41C308 8 327 53 340 94C352 135 360 180 364 229C368 278 370 345 370 429L370 429L370 747L643 747L601 831L670 855C681 837 695 810 712 773L712 773L725 747L949 747L949 683L822 683L822 604L931 604L931 545L822 545L822 480L958 480L958 421L727 421L727 371L896 371L896 93L493 93L493 371L661 371ZM158 340L295 340C294 303 293 252 291 187C288 122 286 82 284 65L284 65C280 33 274 9 267-7C259-24 247-35 232-42C217-49 195-54 167-56L167-56C136-57 108-55 81-50L81-50L67 23C80 20 95 18 113 17C130 15 146 14 159 15L159 15C176 15 189 21 198 32C207 43 213 63 218 92L218 92C219 101 221 126 223 168C225 209 226 243 226 270L226 270L88 270L105 554L235 554L235 706L65 706L65 777L300 777L300 486L170 486L158 340ZM460 604L563 604L563 683L436 683L436 480L563 480L563 545L460 545L460 604ZM627 683L627 604L758 604L758 683L627 683ZM627 545L627 480L758 480L758 545L627 545ZM558 260L661 260L661 314L558 314L558 260ZM727 260L830 260L830 314L727 314L727 260ZM661 151L661 204L558 204L558 151L661 151ZM830 204L727 204L727 151L830 151L830 204ZM443-75L415-13C447-2 484 13 526 33C567 52 602 69 629 84L629 84L660 28C630 11 594-7 553-26C512-46 475-62 443-75L443-75ZM725 26L753 81C760 78 768 75 775 72C782 69 790 65 797 62L797 62C874 29 928 5 960-11L960-11L931-73C831-24 762 9 725 26L725 26Z"/>
    </font>
</defs>
</svg>
