<svg xmlns="http://www.w3.org/2000/svg">
<!--
Copyright 2021 Huawei Device Co., Ltd. All Rights Reserved.
  -->

  <defs>
    <font name="HarmonyOS Sans SC"
      horiz-adv-x="1000" vert-adv-y="1000" >
    <font-face font-family="HarmonyOS Sans SC" font-weight="400"
      font-stretch="normal"
      units-per-em="1000"
      ascent="928"
      descent="-244"/>
    <glyph glyph-name="¢" unicode="&#20130;"
      horiz-adv-x="1000" vert-adv-y="1172"
      d="M568 698L923 698L923 619L86 619L86 698L472 698C447 752 427 795 411 826L411 826L501 846C514 821 536 772 568 698L568 698ZM860 228L939 213C938 192 937 164 935 130C933 95 931 72 930 61L930 61C927 23 918-5 904-22C889-40 867-50 840-52L840-52C827-53 806-54 779-54L779-54C752-54 732-53 718-52L718-52C681-49 655-39 640-21C625-3 617 27 617 68L617 68L617 419L351 419L351 326C351 252 345 193 333 150C321 106 299 67 267 34C235 0 186-37 121-78L121-78L59-8C124 29 171 62 200 90C228 118 246 150 256 185C265 220 269 271 269 339L269 339L269 499L700 499L700 93C700 70 703 54 709 45C715 36 727 30 744 27L744 27C760 26 772 25 780 25L780 25C787 25 799 26 815 27L815 27C829 28 839 33 845 42C850 50 854 65 855 87L855 87C856 106 857 129 859 158C860 186 860 209 860 228L860 228Z"/>
    <glyph glyph-name="¥" unicode="&#20133;"
      horiz-adv-x="1000" vert-adv-y="1172"
      d="M564 707L936 707L936 631L467 631C439 592 409 553 378 516C347 478 319 448 294 427L294 427L546 453C590 499 633 551 674 609L674 609L742 562C667 455 581 365 482 292C383 219 255 149 96 82L96 82L57 155C149 190 228 226 294 262C359 297 418 337 469 380L469 380L203 351C192 350 175 349 152 346L152 346L131 420C152 425 166 430 175 433C183 436 190 439 197 444L197 444C218 461 245 487 278 524C310 560 338 596 363 631L363 631L62 631L62 707L473 707C452 752 432 793 412 830L412 830L496 859C521 808 544 757 564 707L564 707ZM785 437L847 388C778 299 702 221 619 156L619 156C662 135 714 108 775 75C836 41 883 13 917-8L917-8L869-84C833-59 782-27 718 13C653 52 598 84 553 108L553 108C449 37 317-30 157-91L157-91L113-15C272 42 405 106 510 177C615 248 707 334 785 437L785 437Z"/>
    <glyph glyph-name="Ã" unicode="&#20163;"
      horiz-adv-x="1000" vert-adv-y="1172"
      d="M270 841L353 811C328 737 300 668 269 604L269 604L269-68L187-68L187 455C154 403 116 350 72 297L72 297L34 384C80 442 124 511 165 591C206 670 241 754 270 841L270 841ZM391 765L952 765L952 679L741 679L741 76C741 28 731-6 711-26C691-47 657-57 609-57L609-57C566-57 523-55 480-51L480-51L463 32C514 26 556 23 591 23L591 23C616 23 634 29 643 40C652 51 656 72 656 101L656 101L656 679L391 679L391 765Z"/>
    <glyph glyph-name="6" unicode="&#20278;"
      horiz-adv-x="1000" vert-adv-y="1172"
      d="M255 847L333 823C308 745 281 674 251 610L251 610L251-68L174-68L174 464C139 405 102 351 63 303L63 303L28 384C71 443 114 514 155 597C196 680 229 764 255 847L255 847ZM572 841L650 841C715 708 821 596 968 504L968 504L918 435C851 477 792 525 741 580C689 634 646 692 612 755L612 755C550 644 452 538 317 437L317 437L262 501C334 552 395 605 446 661C496 716 538 776 572 841L572 841ZM512 541L570 592C588 573 608 550 631 524C654 497 672 474 687 454L687 454L628 402C600 441 561 487 512 541L512 541ZM763 298L329 298L329 372L868 372L868 295C795 210 727 136 665 74L665 74C716 42 756 15 787-6L787-6L741-77C693-44 632-3 558 45C483 92 421 131 370 161L370 161L417 226C450 207 509 171 596 118L596 118C627 149 659 182 693 219C726 255 750 281 763 298L763 298Z"/>
    <glyph glyph-name="" unicode="&#20356;"
      horiz-adv-x="1000" vert-adv-y="1172"
      d="M244 833L325 809C298 726 270 654 241 592L241 592L241-77L164-77L164 448C131 395 95 344 55 293L55 293L23 389C68 446 109 513 147 589C185 664 217 746 244 833L244 833ZM670 193L670 35L944 35L944-39L305-39L305 35L591 35L591 193L360 193L360 268L591 268L591 404C558 401 512 397 455 390L455 390L361 380L338 448C357 453 371 459 378 466L378 466C439 534 494 611 544 697L544 697L348 697L348 773L927 773L927 697L640 697C589 614 534 534 474 458L474 458L786 491C756 540 731 577 712 602L712 602L778 640C801 607 829 566 860 517C891 468 917 426 937 391L937 391L868 351C858 370 844 396 825 427L825 427L670 412L670 268L899 268L899 193L670 193Z"/>
    <glyph glyph-name="" unicode="&#20365;"
      horiz-adv-x="1000" vert-adv-y="1172"
      d="M951 515L951 438L807 438L807 337L939 337L939 261L807 261L807 60C807 29 803 4 795-13C787-30 774-43 755-50C736-58 708-62 673-62L673-62C631-62 595-60 565-57L565-57L552 19C591 13 625 10 652 10L652 10C681 10 700 15 709 26C718 36 723 56 723 86L723 86L723 261L320 261L320 337L723 337L723 438L297 438L297 515L581 515L581 635L352 635L352 711L581 711L581 839L663 839L663 711L904 711L904 635L663 635L663 515L951 515ZM252 837L330 811C306 743 278 676 246 609L246 609L246-69L167-69L167 463C137 414 104 366 68 319L68 319L25 402C69 457 111 522 150 597C189 672 223 752 252 837L252 837ZM387 176L446 229C484 195 527 152 576 101L576 101L516 41C477 87 434 132 387 176L387 176Z"/>
    <glyph glyph-name="£" unicode="&#20387;"
      horiz-adv-x="1000" vert-adv-y="1172"
      d="M245 851L325 827C299 747 269 671 235 599L235 599L235-56L156-56L156 453C126 404 94 357 59 314L59 314L16 399C59 454 100 521 141 602C182 682 216 765 245 851L245 851ZM392 467L392 796L863 796L863 467L392 467ZM471 720L471 543L787 543L787 720L471 720ZM441-57L363-57L363 353L894 353L894-58L816-58L816-8L441-8L441-57ZM816 274L441 274L441 69L816 69L816 274Z"/>
    <glyph glyph-name="®" unicode="&#20398;"
      horiz-adv-x="1000" vert-adv-y="1172"
      d="M955 368L955 296L863 296C859 229 856 179 853 146L853 146L933 146L933 73L848 73L847 55C844 10 833-21 816-39C798-58 769-68 728-69L728-69L695-70C656-70 615-67 570-62L570-62L556 9C605 2 654-1 703 0L703 0C724 1 740 7 751 19C761 30 767 48 769 73L769 73L325 73L349 296L271 296L271 368L357 368L377 552C363 535 348 517 333 499L333 499L275 553C313 595 349 643 384 696C418 749 445 799 466 848L466 848L539 826C529 800 517 774 503 748L503 748L931 748L931 675L463 675C442 642 422 612 402 585L402 585L875 585C873 512 870 439 866 368L866 368L955 368ZM226 840L304 819C280 741 256 674 233 619L233 619L233-72L156-72L156 460C133 419 105 374 71 327L71 327L29 407C66 462 102 529 138 606C173 683 203 761 226 840L226 840ZM564 513L448 513L433 368L791 368L797 513L579 513C613 488 653 458 698 422L698 422L655 368L634 385C581 428 546 456 529 468L529 468L564 513ZM775 146C780 213 784 263 786 296L786 296L557 296C597 268 639 236 682 201L682 201L640 146C625 159 605 177 578 198C551 219 528 235 511 248L511 248L546 296L425 296L409 146L775 146Z"/>
    <glyph glyph-name="Ø" unicode="&#20440;"
      horiz-adv-x="1000" vert-adv-y="1172"
      d="M226 837L304 815C281 741 257 674 231 613L231 613L231-68L152-68L152 449C125 398 95 351 63 306L63 306L19 387C59 443 98 512 135 593C172 674 202 756 226 837L226 837ZM901 821L916 748C838 734 744 722 633 711C522 700 422 693 332 689L332 689L324 762C419 767 519 774 626 785C733 795 824 807 901 821L901 821ZM791 491L727 529C744 555 762 585 783 619C803 653 819 682 831 705L831 705L896 669C884 646 867 617 847 581C826 545 807 515 791 491L791 491ZM686 546L619 511C612 530 588 578 547 657L547 657L613 690C623 670 631 654 638 642L638 642C665 589 681 557 686 546L686 546ZM492 537L428 498C422 509 400 548 362 615L362 615L350 636L414 674L435 637C463 590 482 557 492 537L492 537ZM662 261L949 261L949 188L662 188L662 56C662 15 654-14 639-31C623-48 596-57 558-57L558-57C519-57 481-55 443-51L443-51L427 25C468 18 505 15 538 15L538 15C555 15 566 19 572 28C577 37 580 53 580 76L580 76L580 188L287 188L287 261L580 261L580 301L751 402L355 402L355 473L884 473L884 405L662 271L662 261Z"/>
    <glyph glyph-name="" unicode="&#20506;"
      horiz-adv-x="1000" vert-adv-y="1172"
      d="M230 836L310 818C293 754 269 686 238 613L238 613L238-73L161-73L161 452C132 400 103 353 72 310L72 310L24 379C62 430 101 500 140 587C179 674 209 757 230 836L230 836ZM369 470L336 534C407 556 459 576 491 595C522 614 544 638 557 669L557 669L347 669L347 740L572 740L573 749L577 836L657 836C657 805 656 773 653 740L653 740L910 740L910 669L643 669L638 652L689 628C703 621 734 607 781 585C828 562 863 545 884 533L884 533L845 472C810 493 730 534 606 596L606 596C586 572 557 550 520 531C483 511 432 491 369 470L369 470ZM294 464L955 464L955 391L861 391L861 58C861 12 853-20 837-38C820-57 791-66 750-66L750-66C719-66 683-64 641-59L641-59L627 14C666 8 699 5 726 5L726 5C748 5 763 10 771 21C779 32 783 51 783 79L783 79L783 391L294 391L294 464ZM353 58L353 313L665 313L665 58L353 58ZM420 251L420 122L600 122L600 251L420 251Z"/>
    <glyph glyph-name=")" unicode="&#20521;"
      horiz-adv-x="1000" vert-adv-y="1172"
      d="M899 569L658 569L658 509L956 509L956 447L291 447L291 509L582 509L582 569L347 569L347 630L582 630L582 688L327 688L327 752L582 752L582 835L658 835L658 752L923 752L923 688L658 688L658 630L899 630L899 569ZM231 833L307 818C286 744 262 674 235 607L235 607L235-73L162-73L162 454C139 410 111 366 79 321L79 321L27 385C66 436 104 504 143 589C181 673 210 754 231 833L231 833ZM440-64L366-64L366 386L869 386L869 34C869-2 862-28 849-43C835-59 812-67 780-67L780-67C743-67 705-65 667-61L667-61L655 1C696-4 727-7 748-7L748-7C779-7 794 12 794 50L794 50L794 77L440 77L440-64ZM440 263L794 263L794 323L440 323L440 263ZM794 200L440 200L440 140L794 140L794 200Z"/>
    <glyph glyph-name="£" unicode="&#20643;"
      horiz-adv-x="1000" vert-adv-y="1172"
      d="M305 170L267 235C346 288 405 342 445 397L445 397L286 397L286 463L484 463C495 485 505 510 515 538L515 538L338 538L338 605L534 605C539 623 544 648 550 680L550 680L314 680L314 748L562 748L573 841L654 839L650 812C648 800 645 779 640 748L640 748L897 748L897 680L629 680C623 648 618 623 613 605L613 605L871 605L871 538L595 538C586 510 577 485 567 463L567 463L922 463L922 397L751 397C776 364 805 334 838 307C871 280 910 256 955 233L955 233L920 164C875 189 834 219 795 252L795 252C776 228 751 201 719 172L719 172L671 214C699 239 725 266 749 296L749 296C718 327 692 361 669 397L669 397L533 397C510 360 484 326 453 294L453 294C494 260 523 233 540 213L540 213L492 167C469 192 441 219 406 249L406 249C380 226 346 199 305 170L305 170ZM214 833L288 816C265 732 240 658 214 594L214 594L214-75L141-75L141 439C118 396 91 353 62 311L62 311L24 393C62 450 97 517 130 592C163 667 191 747 214 833L214 833ZM569 178L569 347L641 347L641 38C641-1 633-27 618-42C602-57 574-64 534-64L534-64C519-64 499-63 472-60L472-60L457 12C480 8 503 6 526 6L526 6C541 6 552 10 559 18C566 26 569 40 569 60L569 60L569 98C505 63 422 21 319-28L319-28L286 39C410 96 504 142 569 178L569 178ZM654 116L688 175C714 162 751 141 799 112C846 83 888 57 923 34L923 34L884-27C854-5 815 21 768 51C720 80 682 102 654 116L654 116Z"/>
    <glyph glyph-name="n" unicode="&#20846;"
      horiz-adv-x="1000" vert-adv-y="1172"
      d="M773 510L773 465L357 465L330 322L781 322C776 241 768 162 755 83L755 83C748 41 739 10 727-10C715-31 696-45 671-52C645-59 607-63 556-63L556-63C507-63 453-61 392-56L392-56L377 25C445 18 506 15 559 15L559 15C586 15 606 17 620 22C633 27 643 35 650 46C656 57 661 73 665 95L665 95C674 146 680 197 683 247L683 247L230 247L270 465L216 465L216 513C172 474 125 439 75 408L75 408L30 479C102 522 166 574 223 635C279 696 325 762 362 833L362 833L436 799C390 705 327 619 247 541L247 541L739 541C661 616 596 706 544 811L544 811L620 842C659 763 706 695 761 638C816 581 884 528 966 479L966 479L916 406C861 440 813 475 773 510L773 510Z"/>
    <glyph glyph-name="" unicode="&#20873;"
      horiz-adv-x="1000" vert-adv-y="1172"
      d="M857 270L955 270L955 193L857 193L857 63C857 30 854 5 848-13C841-32 830-45 814-53C797-61 774-65 744-65L744-65C703-65 663-63 623-59L623-59L607 22C648 17 686 14 722 14L722 14C743 14 757 20 766 32C774 43 778 62 778 88L778 88L778 193L220 193L220-69L142-69L142 193L44 193L44 270L142 270L142 717L460 717L460 837L539 837L539 717L857 717L857 270ZM220 492L460 492L460 640L220 640L220 492ZM539 492L778 492L778 640L539 640L539 492ZM460 270L460 419L220 419L220 270L460 270ZM778 419L539 419L539 270L778 270L778 419Z"/>
    <glyph glyph-name="" unicode="&#20885;"
      horiz-adv-x="1000" vert-adv-y="1172"
      d="M800 519L800 740L197 740L197 520L121 520L121 804L876 804L876 519L800 519ZM271 639L271 695L726 695L726 639L271 639ZM726 596L726 539L271 539L271 596L726 596ZM865 119L938 101C937 90 935 69 932 37L932 37C930 13 925-5 919-16C912-28 900-36 885-41C869-46 845-49 814-50L814-50C794-51 764-52 723-52L723-52C682-52 652-51 631-50L631-50C603-49 581-45 566-39C550-34 538-24 531-10C524 3 520 23 520 48L520 48L520 158L517 158C500 121 476 88 443 61C410 34 365 9 309-14C252-37 179-59 90-80L90-80L61-9C171 14 254 39 310 64C365 89 405 121 428 158L428 158L165 158L165 309C134 291 114 280 105 275L105 275L68 341C181 401 269 466 331 536L331 536L399 506C383 488 375 479 376 480L376 480L752 480L752 430L668 363L860 363L860 158L592 158L592 73C592 52 596 37 605 30C614 22 630 17 653 16L653 16C684 15 706 14 721 14L721 14C737 14 760 15 789 16L789 16C810 17 825 20 835 23C845 26 852 31 856 38C859 45 861 57 862 72L862 72L865 119ZM646 425L323 425C294 398 269 378 248 363L248 363L564 363L646 425ZM238 302L238 219L455 219C461 241 466 269 469 302L469 302L238 302ZM537 219L788 219L788 302L551 302C548 268 543 240 537 219L537 219Z"/>
    <glyph glyph-name="¥" unicode="&#20901;"
      horiz-adv-x="1000" vert-adv-y="1172"
      d="M830 625L830 717L169 717L169 625L93 625L93 787L905 787L905 625L830 625ZM563 230L943 230L943 161L55 161L55 230L476 230C468 257 458 285 447 315L447 315L195 315L195 629L803 629L803 315L534 315C548 278 558 250 563 230L563 230ZM269 504L729 504L729 564L269 564L269 504ZM729 380L729 440L269 440L269 380L729 380ZM108-82L77-7C122 8 177 30 240 59C303 88 354 113 395 136L395 136L433 67C387 43 333 17 271-12C208-41 154-64 108-82L108-82ZM570 65L600 135C707 88 813 41 917-8L917-8L884-80C835-55 780-29 719 0C658 28 608 50 570 65L570 65Z"/>
    <glyph glyph-name="Ä" unicode="&#20932;"
      horiz-adv-x="1000" vert-adv-y="1172"
      d="M875 452L875 331L580 331C573 317 559 293 539 260L539 260L954 260L954 200L807 200C792 171 777 147 763 126C748 105 730 86 711 69L711 69C741 59 773 49 806 38C839 27 872 15 906 4L906 4L943-9L915-74C833-41 743-8 646 25L646 25C608 5 560-13 502-29C443-45 369-61 278-76L278-76L252-5C383 12 483 33 552 57L552 57C481 80 415 101 356 118L356 118C374 141 394 169 415 200L415 200L248 200L248 260L454 260C476 297 490 320 495 331L495 331L327 331L327 390L556 390L556 452L265 452L265 509L556 509L556 573L331 573L331 631L556 631L556 695L296 695L296 756L556 756L556 843L631 843L631 756L927 756L927 695L631 695L631 631L875 631L875 509L959 509L959 452L875 452ZM64 785L132 808C147 777 165 733 187 676C209 619 225 574 236 539L236 539L165 514C154 548 138 595 116 655C93 715 76 758 64 785L64 785ZM804 509L804 573L631 573L631 509L804 509ZM804 390L804 452L631 452L631 390L804 390ZM114-21L42 0C85 138 123 278 156 420L156 420L230 403C193 249 155 108 114-21L114-21ZM724 200L501 200L464 145C508 134 564 118 632 95L632 95C653 108 670 123 685 140C699 157 712 177 724 200L724 200Z"/>
    <glyph glyph-name="Û" unicode="&#20955;"
      horiz-adv-x="1000" vert-adv-y="1172"
      d="M646 765L938 765L938 703L258 703L258 765L560 765C547 795 537 817 530 832L530 832L607 851C617 833 630 804 646 765L646 765ZM246 542L175 516C163 550 145 595 122 651C98 707 79 749 65 777L65 777L133 803C149 770 169 728 192 675C215 622 233 577 246 542L246 542ZM308 353L308 655L884 655L884 353L308 353ZM382 604L382 402L808 402L808 604L382 604ZM455 439L455 569L738 569L738 439L455 439ZM513 531L513 480L679 480L679 531L513 531ZM171 407L244 389C213 258 173 127 124-3L124-3L49 21C69 74 91 138 114 211C137 284 156 349 171 407L171 407ZM312 305L883 305L883 248L312 248L312 305ZM950 195L950 135L645 135L645 35C645 9 642-11 636-25C629-39 619-49 605-54C590-60 570-63 543-64L543-64C509-64 480-63 456-60L456-60L444 9C471 4 494 2 515 2L515 2C536 2 550 6 557 13C563 20 566 36 566 60L566 60L566 135L239 135L239 195L950 195ZM423 123L463 68C432 46 396 23 355-2C314-27 273-49 232-69L232-69L198-8C283 32 358 76 423 123L423 123ZM703 63L734 120C765 105 803 84 848 59C893 34 929 12 958-6L958-6L922-65C892-46 855-23 812 3C768 28 732 48 703 63L703 63Z"/>
    <glyph glyph-name="ø" unicode="&#20984;"
      horiz-adv-x="1000" vert-adv-y="1172"
      d="M294 795L707 795L707 496L895 496L895-69L814-69L814-7L187-7L187-69L105-69L105 496L294 496L294 795ZM376 414L187 414L187 72L814 72L814 414L624 414L624 712L376 712L376 414Z"/>
    <glyph glyph-name="" unicode="&#20993;"
      horiz-adv-x="1000" vert-adv-y="1172"
      d="M104 774L876 774C876 682 873 576 868 455C863 334 856 225 847 130L847 130C843 85 835 51 823 27C811 2 793-15 768-26C743-37 708-42 663-43L663-43C604-44 544-42 485-37L485-37L467 44C527 38 577 35 618 35L618 35C657 35 686 38 704 43C721 48 734 58 742 75C750 92 756 119 761 158L761 158C778 312 787 489 787 690L787 690L104 690L104 774ZM95 161L60 247C157 286 259 334 368 389C476 444 572 499 656 552L656 552L682 467C594 415 498 362 394 308C289 253 190 204 95 161L95 161Z"/>
    <glyph glyph-name=" " unicode="&#21024;"
      horiz-adv-x="1000" vert-adv-y="1172"
      d="M833 79L833 825L904 825L904 61C904-24 870-66 801-66L801-66C766-66 728-63 687-58L687-58L674 11C721 4 756 1 779 1L779 1C798 1 812 7 821 20C829 33 833 52 833 79L833 79ZM388 787L604 787L604 443L656 443L656 371L604 371L604 39C604 6 598-17 586-31C574-45 554-52 527-52L527-52C502-52 481-50 462-47L462-47L449 25C473 21 492 19 505 19L505 19C517 19 525 23 530 32C535 40 537 53 537 71L537 71L537 371L455 371C454 295 451 232 447 182C442 132 434 88 425 51C416 14 402-27 385-72L385-72L321-44C338-1 352 37 361 70C370 103 376 143 380 189C384 234 387 295 388 371L388 371L323 371L323 51C323 17 318-7 307-21C296-35 275-42 245-42L245-42C222-42 203-40 186-37L186-37L172 34C196 30 214 28 226 28L226 28C237 28 245 33 250 42C255 51 258 63 258 78L258 78L258 371L182 371C181 290 179 225 174 177C169 128 160 86 149 51C138 15 121-25 98-69L98-69L34-37C56 4 72 41 83 73C94 104 101 142 106 186C110 230 113 292 114 371L114 371L47 371L47 443L114 443L114 454L114 787L323 787L323 443L388 443L388 454L388 787ZM686 138L686 745L753 745L753 138L686 138ZM258 715L182 715L182 443L258 443L258 715ZM537 715L455 715L455 443L537 443L537 715Z"/>
    <glyph glyph-name="(" unicode="&#21032;"
      horiz-adv-x="1000" vert-adv-y="1172"
      d="M515 87L519 146L592 129C591 105 588 79 584 50L584 50C580 24 574 4 566-9C558-23 547-33 532-38C517-44 497-48 471-49L471-49C434-52 392-53 345-53L345-53C298-53 256-52 219-49L219-49C179-47 150-37 132-20C114-3 105 29 105 75L105 75L105 499C103 496 91 481 70 452L70 452L27 510C96 602 154 713 200 844L200 844L276 826C268 804 255 772 238 731L238 731L545 731L546 636C546 490 542 363 534 256L534 256C531 210 521 178 504 161C487 144 459 135 420 135L420 135C407 135 387 136 360 139L360 139L346 208C369 204 391 202 414 202L414 202C430 202 441 207 448 218C455 229 459 248 461 276L461 276C468 363 471 466 471 585L471 585L471 656L202 656C179 611 154 570 128 532L128 532L375 532L375 234L177 234L177 96C177 77 179 62 183 53C187 44 193 37 202 33C211 29 223 26 239 25L239 25C281 22 318 20 351 20L351 20C384 20 422 22 463 25L463 25C477 26 487 29 494 32C501 35 506 41 509 49C512 57 514 70 515 87L515 87ZM826 80L826 826L896 826L896 57C896 14 889-16 874-34C859-53 834-62 798-62L798-62C758-62 723-60 694-57L694-57L681 18C720 13 753 11 780 11L780 11C797 11 809 16 816 27C823 37 826 55 826 80L826 80ZM651 158L651 743L722 743L722 158L651 158ZM177 301L304 301L304 463L177 463L177 301Z"/>
    <glyph glyph-name="" unicode="&#21119;"
      horiz-adv-x="1000" vert-adv-y="1172"
      d="M596 642L543 600C492 647 445 687 404 721L404 721C451 756 496 795 539 840L539 840L594 801C564 772 533 744 501 719L501 719C507 714 513 710 519 705C525 700 531 695 537 690L537 690C564 668 583 652 596 642L596 642ZM233 641L178 601C139 638 95 678 46 721L46 721C85 750 130 789 180 839L180 839L235 800C208 772 179 746 148 721L148 721C168 703 196 676 233 641L233 641ZM415 640L362 601C343 619 320 639 295 662C269 684 251 699 241 707L241 707L225 721C284 766 330 805 363 838L363 838L416 799C383 766 351 739 321 718L321 718C338 705 370 679 415 640L415 640ZM833 83L833 826L905 826L905 60C905 17 897-15 880-35C863-55 836-65 797-65L797-65C765-65 727-63 682-58L682-58L668 18C713 12 750 9 779 9L779 9C798 9 811 15 820 27C829 39 833 58 833 83L833 83ZM671 162L671 742L738 742L738 162L671 162ZM574 289L369 289L369 228L621 228L621 164L402 164C475 119 546 71 615 22L615 22L583-44C505 18 434 72 369 117L369 117L369-75L306-75L306 144C251 79 171 12 65-57L65-57L30 14C73 38 111 62 146 86C180 110 212 136 241 164L241 164L51 164L51 228L306 228L306 289L99 289L99 593L574 593L574 289ZM167 470L306 470L306 532L167 532L167 470ZM369 532L369 470L509 470L509 532L369 532ZM306 412L167 412L167 348L306 348L306 412ZM509 412L369 412L369 348L509 348L509 412Z"/>
    <glyph glyph-name="" unicode="&#21128;"
      horiz-adv-x="1000" vert-adv-y="1172"
      d="M937 577L937 515L747 515L747 436L917 436L917 374L747 374L747 301L670 301L670 374L506 374L506 436L670 436L670 515L488 515L488 577L596 577C585 628 576 669 568 700L568 700L509 700L509 761L680 761C671 784 661 808 650 832L650 832L722 850C737 817 749 788 758 761L758 761L921 761L921 700L852 700C843 655 834 614 825 577L825 577L937 577ZM176 319L176 491C167 466 155 442 140 419C125 396 106 371 83 345L83 345L33 396C67 430 92 466 107 505C122 544 130 593 130 653L130 653L130 792L456 792L456 588L197 588C195 564 191 541 185 520L185 520L455 520L455 319L176 319ZM199 646L387 646L387 735L199 735L199 646ZM785 700L636 700C647 651 656 610 662 577L662 577L758 577C769 624 778 665 785 700L785 700ZM392 375L392 464L241 464L241 375L392 375ZM366 191L89 191L89 257L849 257C846 194 840 127 829 57L829 57C823 16 812-11 797-26C782-41 756-49 719-50L719-50C670-51 619-48 567-43L567-43L553 25C608 20 648 17 675 17L675 17C701 17 719 20 728 27C737 34 743 49 747 72L747 72C754 118 759 158 761 191L761 191L450 191C441 146 423 109 398 78C373 47 335 20 284-4C233-29 163-53 74-76L74-76L48-3C124 14 184 32 228 51C271 70 303 90 324 112C345 134 359 160 366 191L366 191Z"/>
    <glyph glyph-name="ÿ" unicode="&#21247;"
      horiz-adv-x="1000" vert-adv-y="1172"
      d="M317 706L899 706C898 619 893 515 886 396C878 276 869 181 858 111L858 111C851 68 843 35 833 12C822-11 807-28 787-38C767-49 739-54 702-55L702-55C657-56 612-54 567-49L567-49L550 33C600 24 646 20 688 20L688 20C708 20 723 23 733 29C743 34 751 46 758 63C764 80 770 108 776 145L776 145C797 288 809 448 811 625L811 625L689 625C670 512 645 416 614 338C583 259 540 188 487 124C434 59 362-7 273-75L273-75L205-14C293 49 363 111 416 170C468 229 509 294 538 365C567 436 591 522 608 625L608 625L480 625C447 502 402 399 345 315C287 230 207 150 106 75L106 75L42 134C139 199 216 271 271 348C326 425 368 518 397 625L397 625L274 625C223 536 167 460 106 398L106 398L42 454C95 507 143 569 186 638C229 707 263 777 289 847L289 847L368 824C355 786 338 747 317 706L317 706Z"/>
    <glyph glyph-name="!" unicode="&#21281;"
      horiz-adv-x="1000" vert-adv-y="1172"
      d="M919 710L192 710L192 42L928 42L928-37L110-37L110 790L919 790L919 710ZM883 143L245 143L245 216L523 216L523 346L289 346L289 417L523 417L523 540L263 540L263 612L863 612L863 540L604 540L604 417L837 417L837 346L604 346L604 216L883 216L883 143Z"/>
    <glyph glyph-name="." unicode="&#21294;"
      horiz-adv-x="1000" vert-adv-y="1172"
      d="M520 728L170 728L170 27L931 27L931-41L97-41L97 796L921 796L921 728L592 728L592 666L839 666L839 499L592 499L592 456L920 456L920 398L208 398L208 456L520 456L520 499L275 499L275 666L520 666L520 728ZM520 612L348 612L348 553L520 553L520 612ZM592 553L766 553L766 612L592 612L592 553ZM296 360L814 360L814 177L742 177L742 306L369 306L369 174L296 174L296 360ZM244 42L230 105C307 118 366 131 407 144C448 157 476 172 492 188C507 204 516 223 518 246L518 246C520 258 521 272 521 288L521 288L593 288C593 267 592 249 591 236L591 236C590 226 588 216 585 206L585 206C688 172 785 138 878 103L878 103L852 41C791 65 721 91 643 120L643 120C624 127 607 133 593 139C578 144 565 149 554 153L554 153C530 127 493 105 442 87C391 68 325 53 244 42L244 42Z"/>
    <glyph glyph-name="?" unicode="&#21311;"
      horiz-adv-x="1000" vert-adv-y="1172"
      d="M932 726L194 726L194 28L945 28L945-42L115-42L115 798L932 798L932 726ZM244 635L397 635L397 702L470 702L470 635L683 635L683 702L755 702L755 635L914 635L914 573L755 573L755 515L683 515L683 573L470 573L470 514L397 514L397 573L244 573L244 635ZM917 464L917 401L497 401C477 373 456 347 434 324L434 324L832 324L832 100L367 100L367 262C326 231 284 202 241 175L241 175L206 237C289 284 357 339 409 401L409 401L247 401L247 464L454 464C470 489 484 517 495 547L495 547L565 526C557 507 547 486 535 464L535 464L917 464ZM757 159L757 264L441 264L441 159L757 159Z"/>
    <glyph glyph-name="R" unicode="&#21330;"
      horiz-adv-x="1000" vert-adv-y="1172"
      d="M137 273L81 334C136 383 181 431 215 478C248 525 278 584 305 655L305 655L86 655L86 729L465 729C450 764 434 799 417 834L417 834L495 859C514 818 534 775 553 729L553 729L919 729L919 655L742 655C727 608 711 565 694 527L694 527C780 455 852 393 911 342L911 342L861 280C788 346 721 406 660 459L660 459C635 417 602 373 563 328L563 328L505 382C540 421 570 462 594 503C618 544 640 594 660 655L660 655L391 655C376 612 359 573 342 538L342 538C393 487 438 439 478 394L478 394L422 341C379 390 340 432 305 469L305 469C284 434 261 401 234 371C207 340 175 308 137 273L137 273ZM539 313L539 216L946 216L946 139L539 139L539-75L460-75L460 139L52 139L52 216L460 216L460 313L539 313Z"/>
    <glyph glyph-name="f" unicode="&#21350;"
      horiz-adv-x="1000" vert-adv-y="1172"
      d="M343 640L343 513L561 513L561 436L47 436L47 513L264 513L264 640L75 640L75 716L264 716L264 841L343 841L343 716L535 716L535 640L343 640ZM971 355L928 276C879 320 810 380 719 456L719 456L719-74L640-74L640 839L719 839L719 560C810 489 894 421 971 355L971 355ZM536 220L343 220L343 80L564 101L564 21C501 16 415 8 308-1C200-11 114-19 50-25L50-25L41 53C60 54 135 60 264 73L264 73L264 220L77 220L77 296L264 296L264 399L343 399L343 296L536 296L536 220Z"/>
    <glyph glyph-name="Û" unicode="&#21467;"
      horiz-adv-x="1000" vert-adv-y="1172"
      d="M442 301L442 224L279 224C274 177 265 136 253 102C240 67 223 35 202 4C181-27 151-62 114-101L114-101L57-40C90-7 115 21 134 45C152 69 167 95 178 123C189 151 198 185 203 224L203 224L42 224L42 301L210 301C212 334 213 372 213 414L213 414L67 414L67 488L213 488L213 838L287 838L287 488L421 488L421 414L287 414C287 384 286 346 285 301L285 301L442 301ZM777 153C824 92 887 37 966-13L966-13L927-85C847-30 782 30 731 95L731 95C680 35 608-27 517-91L517-91L467-24C516 9 559 40 594 70C629 99 660 129 686 160L686 160C633 246 593 352 567 477L567 477L554 477C554 387 549 309 538 244C527 178 510 119 487 67C463 14 431-37 391-86L391-86L327-33C365 13 395 59 417 105C439 151 455 204 465 264C475 324 480 397 480 484L480 484L480 752C545 756 616 764 692 775C768 786 840 799 907 814L907 814L924 738C795 710 672 690 554 679L554 679L554 553L907 553L907 476C893 409 876 349 855 297C834 244 808 196 777 153L777 153ZM391 768L456 740C446 711 432 676 413 634C394 591 378 556 363 528L363 528L303 562C318 592 335 627 352 667C369 707 382 741 391 768L391 768ZM192 563L130 534C109 589 80 657 44 737L44 737L103 767L128 711C161 639 182 590 192 563L192 563ZM831 477L637 477C662 372 693 286 731 220L731 220C754 255 774 294 790 336C806 377 820 424 831 477L831 477Z"/>
    <glyph glyph-name="é" unicode="&#21481;"
      horiz-adv-x="1000" vert-adv-y="1172"
      d="M897 780L897 220C897 186 894 159 887 140C880 121 870 107 855 99C840 91 820 87 795 86L795 86C763 85 725 87 680 90L680 90L663 172C697 168 731 166 765 166L765 166C784 166 798 173 806 186C813 199 817 223 817 258L817 258L817 698L600 698L600-75L520-75L520 780L897 780ZM407 760L407 75L104 75L104 760L407 760ZM330 677L182 677L182 157L330 157L330 677Z"/>
    <glyph glyph-name="<" unicode="&#21564;"
      horiz-adv-x="1000" vert-adv-y="1172"
      d="M882 200L955 185L952 134C951 123 951 111 950 98C949 85 948 73 947 61L947 61C944 31 940 8 934-7C927-22 917-33 904-40C890-47 869-52 842-55L842-55C829-56 818-57 811-57L811-57C805-57 794-56 778-55L778-55C745-52 722-43 707-26C692-9 685 20 685 61L685 61L685 826L760 826L760 78C760 59 763 45 768 37C773 28 782 23 794 22L794 22C801 21 809 21 819 21L819 21C834 21 845 23 852 26C859 29 865 34 869 43C872 52 875 66 876 85L876 85C879 119 881 157 882 200L882 200ZM637 443L644 370C640 369 635 368 630 367C624 365 617 363 610 361L610 361C577 352 551 344 530 339L530 339L530 65C530 28 527 1 522-16C516-33 506-45 492-51C477-58 455-61 426-61L426-61C403-61 377-59 348-56L348-56L334 19C365 14 392 12 414 12L414 12C431 12 442 17 448 27C453 36 456 55 456 82L456 82L456 318L354 291L341 365L456 395L456 528L559 700L368 700L368 774L640 774L640 696L530 517L530 414L637 443ZM309 748L309 41L74 41L74 748L309 748ZM237 116L237 674L146 674L146 116L237 116Z"/>
    <glyph glyph-name="P" unicode="&#21584;"
      horiz-adv-x="1000" vert-adv-y="1172"
      d="M696 835L696 684L912 684L912 51C912 21 909-2 903-17C896-33 885-44 869-51C853-58 829-62 798-62L798-62C780-62 753-61 717-58L717-58L702 17C741 13 769 11 788 11L788 11C809 11 823 16 830 27C836 37 839 57 839 88L839 88L839 205L780 168C755 219 717 288 668 376L668 376C655 335 638 296 617 261C596 225 568 186 534 144L534 144L484 211C522 254 551 294 570 331C589 368 603 407 611 449C618 490 622 543 623 607L623 607L478 607L478-67L405-67L405 684L623 684L623 835L696 835ZM333 723L333 50L95 50L95 723L333 723ZM262 126L262 647L166 647L166 126L262 126ZM687 469C711 431 738 386 769 334C800 281 823 239 839 208L839 208L839 607L696 607C696 556 693 510 687 469L687 469Z"/>
    <glyph glyph-name="\" unicode="&#21596;"
      horiz-adv-x="1000" vert-adv-y="1172"
      d="M523 374L916 374C917 286 912 195 902 101L902 101C897 57 889 24 880 3C871-18 855-34 833-43C810-52 776-57 731-57L731-57C697-57 657-55 610-50L610-50L596 27C641 21 688 18 735 18L735 18C757 18 774 21 786 27C798 32 807 42 812 55C817 68 821 86 824 110L824 110C831 169 835 234 835 304L835 304L450 304L450 743L568 743C583 784 595 820 604 853L604 853L686 838L662 763C659 757 657 750 655 743L655 743L862 743C862 680 860 622 855 568L855 568C852 537 847 513 841 496C834 479 822 466 806 458C789 449 766 445 737 445L737 445C697 445 662 447 633 450L633 450L620 521C657 516 690 514 719 514L719 514C741 514 756 519 764 529C771 539 776 557 779 583L779 583C782 615 784 644 784 670L784 670L523 670L523 374ZM367 748L367 73L100 73L100 748L367 748ZM295 147L295 674L172 674L172 147L295 147ZM411 135L411 207L773 207L773 135L411 135Z"/>
    <glyph glyph-name="" unicode="&#21632;"
      horiz-adv-x="1000" vert-adv-y="1172"
      d="M450 799L874 799L874 39L955 39L955-36L356-36L356 39L450 39L450 799ZM341 746L341 53L77 53L77 746L341 746ZM525 546L799 546L799 722L525 722L525 546ZM267 132L267 670L151 670L151 132L267 132ZM525 470L525 296L799 296L799 470L525 470ZM799 39L799 218L525 218L525 39L799 39Z"/>
    <glyph glyph-name="" unicode="&#21636;"
      horiz-adv-x="1000" vert-adv-y="1172"
      d="M698 52L835 52L835 330L907 330L907-66L835-66L835-23L414-23L414 328L487 328L487 52L623 52L623 395L431 395L431 751L503 751L503 471L623 471L623 843L698 843L698 471L820 471L820 751L892 751L892 395L698 395L698 52ZM340 738L340 44L90 44L90 738L340 738ZM267 120L267 661L163 661L163 120L267 120Z"/>
    <glyph glyph-name="" unicode="&#21648;"
      horiz-adv-x="1000" vert-adv-y="1172"
      d="M510 840L585 821C564 744 543 679 522 624L522 624L522-71L446-71L446 457C425 418 405 382 384 351L384 351L338 424C370 473 402 536 434 612C465 688 491 764 510 840L510 840ZM863 633L954 633L954 554L863 554L863 49C863 8 854-20 838-37C821-54 790-63 747-64L747-64C708-65 674-64 643-59L643-59L630 18C667 13 702 10 735 10L735 10C757 10 771 15 778 25C785 34 788 53 788 82L788 82L788 554L577 554L577 633L788 633L788 826L863 826L863 633ZM329 740L329 46L82 46L82 740L329 740ZM254 125L254 661L157 661L157 125L254 125ZM752 236L680 206C666 244 650 286 633 331C616 376 600 416 585 451L585 451L654 482C669 445 686 405 704 360C722 315 738 274 752 236L752 236Z"/>
    <glyph glyph-name="" unicode="&#21653;"
      horiz-adv-x="1000" vert-adv-y="1172"
      d="M709 652L949 652L949 578L709 578L709 375L889 375L889-76L811-76L811-13L529-13L529-76L451-76L451 375L630 375L630 578L411 578L411 652L630 652L630 835L709 835L709 652ZM362 723L362 37L89 37L89 723L362 723ZM288 119L288 642L162 642L162 119L288 119ZM529 301L529 59L811 59L811 301L529 301Z"/>
    <glyph glyph-name="³" unicode="&#21683;"
      horiz-adv-x="1000" vert-adv-y="1172"
      d="M434 144L394 210C449 241 497 271 538 299C578 326 614 356 647 387L647 387L498 363L431 353L409 426C420 430 429 434 436 438C443 441 448 446 453 451L453 451C468 468 487 493 509 527C530 560 550 594 568 628L568 628L395 628L395 703L637 703C622 742 606 782 587 822L587 822L665 849C683 807 701 758 720 703L720 703L948 703L948 628L656 628C637 590 616 553 595 518C573 482 553 454 536 433L536 433L717 463C746 498 774 540 801 589L801 589L865 547C805 453 742 375 677 313C612 250 531 194 434 144L434 144ZM353 736L353 54L95 54L95 736L353 736ZM277 137L277 654L169 654L169 137L277 137ZM953-13L903-82C853-37 785 22 698 94L698 94C621 31 526-27 413-79L413-79L370-8C484 43 579 99 656 161C733 223 800 298 859 385L859 385L916 344C865 264 810 196 751 141L751 141C832 83 899 32 953-13L953-13Z"/>
    <glyph glyph-name="Ç" unicode="&#21703;"
      horiz-adv-x="1000" vert-adv-y="1172"
      d="M698 625L698 488L950 488L950 409L370 409L370 488L617 488L617 625L409 625L409 700L617 700L617 834L698 834L698 700L905 700L905 625L698 625ZM326 728L326 24L79 24L79 728L326 728ZM252 102L252 652L154 652L154 102L252 102ZM905 199L698 199L698 34L951 34L951-41L359-41L359 34L617 34L617 199L409 199L409 275L617 275L617 378L698 378L698 275L905 275L905 199Z"/>
    <glyph glyph-name="É" unicode="&#21705;"
      horiz-adv-x="1000" vert-adv-y="1172"
      d="M946 531L946 456L674 456C684 370 698 293 715 224L715 224C761 281 801 346 834 420L834 420L902 385C851 286 797 204 740 139L740 139C748 115 756 93 765 74L765 74C774 53 783 39 791 30C799 21 808 17 817 17L817 17C826 17 834 23 839 35C844 47 849 68 853 97L853 97C854 109 856 119 857 126L857 126C861 155 864 178 865 195L865 195L937 173C933 138 927 98 920 55L920 55C913 8 901-25 884-44C867-63 845-72 819-72L819-72C795-72 774-64 755-49C736-34 717-8 698 28L698 28C691 42 684 58 677 76L677 76C624 27 559-21 481-69L481-69L431-3C522 48 595 101 651 156L651 156C628 242 610 342 597 456L597 456L52 456L52 531L272 531L272 653L90 653L90 725L272 725L272 838L349 838L349 725L529 725L529 653L349 653L349 531L590 531C586 576 583 612 582 639L582 639L580 676C577 750 575 806 574 845L574 845L653 845C654 789 656 741 658 702L658 702L661 624L667 531L946 531ZM897 628L836 583C815 614 792 647 767 684C742 720 722 747 707 766L707 766L767 808C786 783 809 753 835 718C861 682 882 652 897 628L897 628ZM127 40L127 365L489 365L489 40L127 40ZM203 287L203 115L414 115L414 287L203 287Z"/>
    <glyph glyph-name="é" unicode="&#21737;"
      horiz-adv-x="1000" vert-adv-y="1172"
      d="M918 144L698 144L698 36L957 36L957-36L359-36L359 36L627 36L627 144L406 144L406 218L627 218L627 325L424 325L424 784L901 784L901 325L698 325L698 218L918 218L918 144ZM338 753L338 33L92 33L92 753L338 753ZM495 590L627 590L627 711L495 711L495 590ZM698 711L698 590L830 590L830 711L698 711ZM266 111L266 676L164 676L164 111L266 111ZM627 519L495 519L495 397L627 397L627 519ZM830 519L698 519L698 397L830 397L830 519Z"/>
    <glyph glyph-name="" unicode="&#21761;"
      horiz-adv-x="1000" vert-adv-y="1172"
      d="M719 723L956 723L956 649L384 649L384 723L640 723C625 758 609 792 592 825L592 825L667 848C686 808 703 766 719 723L719 723ZM339 736L339 53L91 53L91 736L339 736ZM267 132L267 659L165 659L165 132L267 132ZM426 494L426 563L882 563L882 494L426 494ZM882 413L882 346L426 346L426 413L882 413ZM504-14L504-70L425-70L425 266L885 266L885-69L805-69L805-14L504-14ZM504 58L805 58L805 192L504 192L504 58Z"/>
    <glyph glyph-name="2" unicode="&#22066;"
      horiz-adv-x="1000" vert-adv-y="1172"
      d="M512 155L631 155L631 82L512 82L512-71L447-71L447 82L316 82L316 155L447 155L447 239L343 239L343 584L447 584L447 663L322 663L322 735L447 735L447 839L512 839L512 735L638 735L638 663L512 663L512 584L616 584L616 239L512 239L512 155ZM680 427L680 779L923 779L923 52C923 10 916-19 902-35C888-51 862-59 823-59L823-59C802-59 780-58 759-56L759-56L744 23C769 20 790 18 809 18L809 18C824 18 834 20 841 23C847 26 851 31 854 39C856 47 857 60 857 79L857 79L857 232L740 232C736 167 727 113 712 70C697 26 672-24 637-80L637-80L578-34C611 13 634 53 648 88C661 123 670 164 674 211C678 258 680 330 680 427L680 427ZM280 733L280 43L79 43L79 733L280 733ZM743 544L857 544L857 701L743 701L743 544ZM218 121L218 655L144 655L144 121L218 121ZM404 445L554 445L554 516L404 516L404 445ZM742 309L857 309L857 468L743 468L743 388C743 351 743 325 742 309L742 309ZM554 306L554 378L404 378L404 306L554 306Z"/>
    <glyph glyph-name="v" unicode="&#22134;"
      horiz-adv-x="1000" vert-adv-y="1172"
      d="M721 844L790 844L790 766L946 766L946 702L790 702L790 654L721 654L721 702L569 702L569 654L500 654L500 702L362 702L362 766L500 766L500 844L569 844L569 766L721 766L721 844ZM318 64L88 64L88 744L318 744L318 64ZM158 669L158 139L247 139L247 669L158 669ZM876 375L555 375C542 352 529 332 515 315L515 315L929 315C924 217 918 129 909 51L909 51C904 6 894-25 879-44C864-63 841-72 809-73L809-73C784-74 755-72 720-69L720-69L708-6C732-10 756-12 780-12L780-12C799-12 812-7 821 3C830 13 836 29 839 51L839 51C848 120 855 188 858 256L858 256L697 256C689 241 681 229 674 220L674 220L729 186C760 167 790 149 817 132L817 132L783 85C738 116 690 147 640 178L640 178C607 143 566 111 517 83L517 83L485 133C551 168 600 209 631 256L631 256L465 256C452 243 439 231 425 219L425 219L464 219L464 64L771 64L771 7L399 7L399 197C379 182 364 172 354 165L354 165L318 224C389 271 441 321 475 375L475 375L407 375L407 631L876 631L876 375ZM480 528L802 528L802 579L480 579L480 528ZM802 479L480 479L480 427L802 427L802 479Z"/>
    <glyph glyph-name="£" unicode="&#22179;"
      horiz-adv-x="1000" vert-adv-y="1172"
      d="M118 613L118 816L449 816L449 613L118 613ZM548 613L548 816L884 816L884 613L548 613ZM190 757L190 671L377 671L377 757L190 757ZM620 757L620 671L810 671L810 757L620 757ZM166 442L431 442C444 473 453 494 457 505L457 505L64 505L64 564L936 564L936 505L543 505L516 442L833 442L833 296L758 296L758 383L241 383L241 295L166 295L166 442ZM532 317C719 282 858 253 949 232L949 232L925 170C756 209 608 241 482 266L482 266C450 245 403 228 340 214C277 200 187 187 70 175L70 175L53 241C167 252 251 263 306 273C360 283 398 295 420 308C442 321 459 339 470 363L470 363L552 359C547 345 541 331 532 317L532 317ZM193-32L193-69L121-69L121 164L450 164L450-69L377-69L377-32L193-32ZM619-32L619-69L545-69L545 164L881 164L881-69L807-69L807-32L619-32ZM193 27L377 27L377 105L193 105L193 27ZM619 27L807 27L807 105L619 105L619 27Z"/>
    <glyph glyph-name="·" unicode="&#22199;"
      horiz-adv-x="1000" vert-adv-y="1172"
      d="M675 762L948 762L948 700L333 700L333 762L601 762C590 790 579 816 568 839L568 839L638 853C655 816 667 786 675 762L675 762ZM83 105L83 748L294 748L294 105L83 105ZM151 677L151 175L229 175L229 677L151 677ZM599 155C577 139 551 122 521 103L521 103L521 5L666 54L670-11C617-26 562-44 504-65L504-65C491-70 480-74 471-77C462-81 455-84 449-86L449-86L428-33C437-27 444-21 447-15C450-9 452-2 452 7L452 7L452 64C394 35 332 10 266-12L266-12L240 49C351 80 447 123 530 178L530 178L321 178L321 232L480 232L480 285L350 285L350 338L480 338L480 390L333 390L333 443L480 443L480 498L357 498L357 653L595 653L595 498L552 498L552 443L694 443L694 498L651 498L651 653L891 653L891 498L767 498L767 443L917 443L917 390L767 390L767 338L901 338L901 285L767 285L767 232L952 232L952 178L657 178C682 143 709 115 736 94L736 94C774 117 816 144 862 176L862 176L906 132C869 108 830 85 788 62L788 62C828 41 886 23 963 8L963 8L933-59C874-43 825-26 786-8C747 10 712 32 683 58C654 83 626 116 599 155L599 155ZM539 549L539 603L414 603L414 549L539 549ZM833 549L833 603L707 603L707 549L833 549ZM694 338L694 390L552 390L552 338L694 338ZM694 232L694 285L552 285L552 232L694 232Z"/>
    <glyph glyph-name="¼" unicode="&#22204;"
      horiz-adv-x="1000" vert-adv-y="1172"
      d="M397 698L446 722C412 720 381 719 352 719L352 719C347 718 340 718 331 718L331 718L327 786C404 787 502 791 623 799C744 806 839 813 909 821L909 821L919 750C882 747 847 744 812 742L812 742L860 727C848 698 831 664 810 625L810 625L905 625L905 440L342 440L342 625L436 625C428 644 415 669 397 698L397 698ZM291 749L291 45L88 45L88 749L291 749ZM623 625L746 625C765 664 781 702 796 741L796 741C762 738 711 735 642 731L642 731C654 712 667 685 681 650L681 650L623 625ZM459 723C472 703 485 676 500 642L500 642L462 625L617 625C604 658 591 685 578 708L578 708L632 731L459 723ZM228 113L228 680L155 680L155 113L228 113ZM514 495L514 571L408 571L408 495L514 495ZM572 495L677 495L677 571L572 571L572 495ZM735 571L735 495L837 495L837 571L735 571ZM866 331L949 331L949 260L866 260L866 27C866-9 859-33 846-46C832-59 808-65 773-65L773-65C757-65 734-64 703-61L703-61L689 10C714 6 739 4 763 4L763 4C776 4 786 8 791 17C796 26 799 39 799 57L799 57L799 260L624 260L624 331L799 331L799 413L866 413L866 331ZM494 107L545 127C558 108 575 82 595 48C614 13 629-16 640-39L640-39L587-64C582-53 571-33 556-3L556-3C503-15 456-28 413-42L413-42L357-61L330-2C343 9 349 20 349 33L349 33L349 387L606 387L606 131L414 131L414 25L524 56L494 107ZM414 283L545 283L545 337L414 337L414 283ZM545 236L414 236L414 181L545 181L545 236ZM767 107L715 73C705 92 691 116 674 143C656 170 641 191 629 204L629 204L677 235C687 223 701 204 720 178C738 151 754 128 767 107L767 107Z"/>
    <glyph glyph-name="Ú" unicode="&#22234;"
      horiz-adv-x="1000" vert-adv-y="1172"
      d="M192-72L112-72L112 782L892 782L892-72L812-72L812-19L192-19L192-72ZM812 704L192 704L192 58L812 58L812 704ZM784 200L723 137C664 207 587 292 494 392L494 392C475 347 447 304 412 263C377 222 330 178 271 131L271 131L220 198C284 248 333 293 366 334C399 375 422 420 437 469C452 518 462 582 467 661L467 661L550 661C545 590 536 530 524 481L524 481C564 439 610 390 661 335C712 280 753 235 784 200L784 200Z"/>
    <glyph glyph-name="ä" unicode="&#22244;"
      horiz-adv-x="1000" vert-adv-y="1172"
      d="M179-75L101-75L101 795L900 795L900-75L823-75L823-30L179-30L179-75ZM823 721L179 721L179 43L823 43L823 721ZM779 600L779 534L536 534L536 350L659 350L659 493L728 493L728 287L536 287L536 224C536 209 537 198 540 191C543 184 547 180 554 177C561 174 572 171 587 170L587 170C594 169 605 169 620 169L620 169C635 169 646 169 653 170L653 170C676 172 692 176 699 183C706 190 711 203 712 224L712 224L715 258L777 242C775 216 773 198 772 189L772 189C769 166 764 150 758 139C752 128 742 120 728 115C714 110 693 107 665 105L665 105C654 104 638 104 617 104L617 104C596 104 580 104 569 105L569 105C540 107 518 111 504 116C490 121 480 130 474 143C467 156 464 176 464 203L464 203L464 287L272 287L272 494L341 494L341 350L464 350L464 534L222 534L222 600L464 600L464 686L536 686L536 600L779 600Z"/>
    <glyph glyph-name="" unicode="&#22275;"
      horiz-adv-x="1000" vert-adv-y="1172"
      d="M172-73L95-73L95 804L902 804L902-73L826-73L826-26L172-26L172-73ZM826 735L172 735L172 41L826 41L826 735ZM779 647L779 588L530 588L530 526L736 526L736 173C736 138 730 114 717 101C704 88 682 82 651 82L651 82C637 82 616 83 588 86L588 86L577 141C600 137 622 135 645 135L645 135C655 135 662 139 667 147C672 154 674 167 674 184L674 184L674 225L530 225L530 92L467 92L467 225L324 225L324 82L261 82L261 526L467 526L467 588L217 588L217 647L467 647L467 714L530 714L530 647L636 647C628 667 622 682 617 691L617 691L674 708C681 691 688 671 696 647L696 647L779 647ZM324 399L467 399L467 466L324 466L324 399ZM530 399L674 399L674 466L530 466L530 399ZM467 346L324 346L324 279L467 279L467 346ZM674 346L530 346L530 279L674 279L674 346Z"/>
    <glyph glyph-name=")" unicode="&#22313;"
      horiz-adv-x="1000" vert-adv-y="1172"
      d="M265 499L265 182C346 204 392 217 403 220L403 220L410 138L51 39L37 122C55 126 105 139 186 160L186 160L186 499L50 499L50 579L186 579L186 837L265 837L265 579L389 579L389 499L265 499ZM728 470L953 470L953 390L728 390L728 74C728 28 718-5 697-25C676-46 641-56 592-56L592-56C553-56 515-54 477-50L477-50L461 33C506 27 543 24 572 24L572 24C594 24 610 26 621 31C632 36 639 43 643 54C646 65 648 80 648 100L648 100L648 390L396 390L396 470L648 470L648 690L426 690L426 769L910 769L910 690L728 690L728 470Z"/>
    <glyph glyph-name="B" unicode="&#22338;"
      horiz-adv-x="1000" vert-adv-y="1172"
      d="M338 236L350 154C314 141 264 124 200 103C135 81 85 64 48 52L48 52L29 134C38 136 86 151 173 180L173 180L173 508L61 508L61 589L173 589L173 831L250 831L250 589L357 589L357 508L250 508L250 206L338 236ZM746 156C803 97 877 45 967-2L967-2L920-77C829-26 754 32 693 97L693 97C634 36 555-24 458-83L458-83L410-16C505 37 583 95 643 157L643 157C580 242 533 346 502 468L502 468L476 468C476 377 472 301 464 240C456 179 442 124 422 75C402 26 374-25 337-78L337-78L260-37C299 16 329 65 348 110C367 155 381 205 388 261C395 317 399 391 399 483L399 483L399 748C475 753 560 762 655 774C750 785 832 798 903 812L903 812L920 729C784 702 636 682 476 671L476 671L476 548L893 548L893 468C876 405 856 348 832 297C808 246 779 199 746 156L746 156ZM813 468L577 468C603 369 642 285 694 216L694 216C747 286 787 370 813 468L813 468Z"/>
    <glyph glyph-name="^" unicode="&#22366;"
      horiz-adv-x="1000" vert-adv-y="1172"
      d="M504 674L504 377L920 377C920 281 915 189 904 101L904 101C898 55 890 22 881 1C871-20 854-34 831-42C808-50 771-54 720-54L720-54C678-54 636-52 594-48L594-48L580 28C623 23 671 20 725 20L725 20C751 20 771 23 784 28C797 33 806 42 811 55C816 67 821 85 824 110L824 110C831 172 836 237 837 305L837 305L424 305L424 747L550 747C567 788 579 823 587 852L587 852L676 835C669 813 658 784 643 747L643 747L866 747C864 683 860 624 853 569L853 569C850 538 844 515 837 498C829 481 817 468 800 460C783 451 759 447 728 447L728 447C684 447 646 449 615 452L615 452L602 523C643 518 678 516 707 516L707 516C730 516 747 522 757 535C766 547 773 564 776 586L776 586C780 610 783 639 784 674L784 674L504 674ZM175 830L254 830L254 582L363 582L363 502L254 502L254 185L355 217L362 140L219 93C150 70 95 52 55 40L55 40L37 119C66 127 112 141 175 161L175 161L175 502L62 502L62 582L175 582L175 830ZM390 132L390 204L776 204L776 132L390 132Z"/>
    <glyph glyph-name="¢" unicode="&#22434;"
      horiz-adv-x="1000" vert-adv-y="1172"
      d="M331 247L341 170L50 69L31 146C90 166 134 181 163 190L163 190L163 515L54 515L54 594L163 594L163 841L238 841L238 594L342 594L342 515L238 515L238 216C279 229 310 240 331 247L331 247ZM468 692L468 561L948 561L948 488L468 488L468 426C468 326 460 239 443 166C426 92 394 19 347-52L347-52L278-3C311 48 336 95 352 138C367 181 378 227 383 278C388 328 390 396 390 483L390 483L390 763C464 766 548 773 642 785C735 796 817 809 887 823L887 823L909 748C850 735 778 724 694 713C610 702 535 695 468 692L468 692ZM575 3L575-59L503-59L503 354L879 354L879-59L807-59L807 3L575 3ZM575 75L807 75L807 282L575 282L575 75Z"/>
    <glyph glyph-name="£" unicode="&#22435;"
      horiz-adv-x="1000" vert-adv-y="1172"
      d="M354 219L365 139C342 132 296 118 225 96C154 73 97 55 54 41L54 41L38 121L164 159L164 502L58 502L58 579L164 579L164 835L243 835L243 579L343 579L343 502L243 502L243 184L354 219ZM377 705L377 781L931 781L931 705L377 705ZM421 601L885 601L885 152L421 152L421 601ZM500 411L807 411L807 526L500 526L500 411ZM807 339L500 339L500 225L807 225L807 339ZM953-34L339-34L339 41L953 41L953-34Z"/>
    <glyph glyph-name="" unicode="&#22549;"
      horiz-adv-x="1000" vert-adv-y="1172"
      d="M640 752L942 752L942 686L607 686C595 664 582 643 568 623L568 623L880 623L880 332C880 295 874 270 862 257C849 244 826 237 793 237L793 237C774 237 745 239 705 243L705 243L693 303C726 298 752 296 771 296L771 296C784 296 794 301 800 310C805 319 808 332 808 350L808 350L808 352L556 352L556 260L486 260L486 527C467 508 447 488 424 468L424 468L387 534C442 581 487 632 522 686L522 686L418 686L418 752L559 752C574 780 587 811 598 846L598 846L672 830C663 805 653 779 640 752L640 752ZM312 722L188 722L188 230L116 230L116 792L392 792L392 725L317 567C346 534 366 507 376 484C386 461 391 436 391 411L391 411C391 374 384 348 371 333C358 318 336 309 306 308L306 308C279 307 253 308 227 311L227 311L216 374C233 371 255 369 280 369L280 369C293 369 302 374 309 385C316 396 319 411 319 431L319 431C319 446 313 464 301 484C288 503 267 528 236 559L236 559L312 722ZM556 564L556 515L808 515L808 564L556 564ZM808 460L556 460L556 409L808 409L808 460ZM854 181L854 111L539 111L539 25L937 25L937-44L63-44L63 25L461 25L461 111L147 111L147 181L461 181L461 231L539 231L539 181L854 181Z"/>
    <glyph glyph-name="" unicode="&#22687;"
      horiz-adv-x="1000" vert-adv-y="1172"
      d="M562 97L506 66C493 97 467 150 429 226L429 226C422 171 409 120 390 75C371 30 341-20 301-74L301-74L235-31C274 19 303 63 321 102C339 141 351 181 356 223C361 265 364 324 364 400L364 400L364 647L573 647L573 840L647 840L647 770L909 770L909 707L647 707L647 647L936 647L936 584L905 486L834 498L862 582L437 582L437 397C437 331 435 275 430 229L430 229L482 255C507 211 533 158 562 97L562 97ZM311 239L319 163C282 151 237 136 185 119C132 102 88 87 52 74L52 74L36 152C81 165 122 178 158 189L158 189L158 514L53 514L53 588L158 588L158 832L232 832L232 588L327 588L327 514L232 514L232 213L311 239ZM662 324C629 325 606 332 592 345C578 357 571 379 571 410L571 410L571 427L476 416L470 473L571 484L571 555L643 555L643 492L800 509L805 455L643 436L643 426C643 407 646 395 653 390C660 384 673 380 693 379L693 379C702 378 715 378 733 378L733 378C750 378 763 378 772 379L772 379C794 380 809 383 817 388C824 393 828 402 829 417L829 417C831 449 832 467 832 470L832 470L899 457L895 401C892 372 884 352 870 342C856 331 830 325 793 324L793 324C778 323 757 323 728 323L728 323C699 323 677 323 662 324L662 324ZM713 298L780 298L780 21L943 21L943-43L410-43L410 21L581 21L581 298L647 298L647 21L713 21L713 298ZM872 262L930 241C912 192 888 133 858 62L858 62L800 88C811 109 824 139 839 176C854 213 865 242 872 262L872 262Z"/>
    <glyph glyph-name="Ñ" unicode="&#22737;"
      horiz-adv-x="1000" vert-adv-y="1172"
      d="M481 568L481 655L146 655L146 569L77 569L77 707L266 707L266 851L338 851L338 798L513 798L513 749L338 749L338 707L551 707L551 568L481 568ZM716 406C665 487 628 588 607 707L607 707L587 707L587 775L910 775L910 707C898 644 883 589 865 540C847 491 824 445 797 404L797 404C840 352 894 305 960 262L960 262L918 202C854 247 800 296 756 350L756 350C711 297 655 249 589 205L589 205L546 261C617 306 673 355 716 406L716 406ZM756 462C777 495 794 532 808 572C822 612 834 657 843 707L843 707L670 707C686 612 715 530 756 462L756 462ZM435 562L192 562L192 612L435 612L435 562ZM189 562L220 518C167 478 116 449 68 432L68 432L45 482C71 491 95 501 116 514C137 526 162 542 189 562L189 562ZM592 480L563 434C493 477 445 505 418 517L418 517L444 562C478 546 527 519 592 480L592 480ZM156 222L156 353C124 335 95 321 69 310L69 310L42 368C91 385 139 410 186 443C233 476 276 513 313 555L313 555L360 521C349 508 344 502 343 501L343 501C435 452 506 411 556 378L556 378L523 330C512 338 495 349 473 363L473 363L473 222L156 222ZM305 463C270 430 238 404 207 384L207 384L440 384C389 416 344 442 305 463L305 463ZM223 336L223 270L407 270L407 336L223 336ZM860 154L860 93L537 93L537 20L940 20L940-44L57-44L57 20L459 20L459 93L133 93L133 154L459 154L459 207L537 207L537 154L860 154Z"/>
    <glyph glyph-name="" unicode="&#22809;"
      horiz-adv-x="1000" vert-adv-y="1172"
      d="M917 197L978 164C968 105 956 54 943 12L943 12C936-11 926-30 915-46C903-62 889-70 872-70L872-70C853-70 836-64 823-52C809-40 797-21 786 6L786 6C775 37 766 76 760 125C753 174 750 239 750 320L750 320L750 706L216 706L216 355C216 279 208 206 191 136C174 65 145-6 103-78L103-78L29-35C72 34 100 99 115 160C129 221 136 292 136 371L136 371L136 785L831 785L831 368C831 232 836 140 845 91L845 91C849 72 853 57 859 48C864 39 868 34 873 34L873 34C884 34 893 52 900 89L900 89C903 106 906 124 910 145C913 166 915 183 917 197L917 197ZM399 541L252 541L252 613L707 613L707 541L477 541C466 508 454 474 441 441L441 441L681 441L681 370C651 273 605 188 542 117C479 46 394-19 286-76L286-76L233-13C338 39 420 97 479 162L479 162C441 190 394 222 338 259L338 259C317 230 292 201 264 172L264 172L218 229C261 276 297 325 327 376C356 427 380 482 399 541L399 541ZM604 370L408 370C392 341 382 323 377 316L377 316C446 273 495 241 526 219L526 219C557 264 583 314 604 370L604 370Z"/>
    <glyph glyph-name="-" unicode="&#22829;"
      horiz-adv-x="1000" vert-adv-y="1172"
      d="M931 393L546 393C577 302 628 224 697 159C766 94 851 41 952 1L952 1L906-82C803-35 719 19 654 79C589 139 539 211 504 294L504 294C475 221 427 153 362 89C297 25 209-31 99-78L99-78L52 3C162 48 250 103 317 169C384 235 426 310 443 393L443 393L67 393L67 472L452 472C453 488 453 507 453 530C453 552 453 574 454 596L454 596L455 675C308 663 199 655 127 652L127 652L118 731C221 734 344 743 487 757C630 770 750 785 847 801L847 801L868 722C771 707 662 695 543 684L543 684L542 578C542 523 542 490 541 479L541 479L541 472L931 472L931 393Z"/>
    <glyph glyph-name="U" unicode="&#22869;"
      horiz-adv-x="1000" vert-adv-y="1172"
      d="M371 602L373 659L71 659L71 734L465 734C452 767 439 797 426 822L426 822L502 853C517 819 533 779 548 734L548 734L933 734L933 659L677 659L677 465C677 424 671 395 658 378C645 360 623 351 592 351L592 351C555 351 523 353 496 356L496 356L483 427C512 422 537 420 558 420L558 420C575 420 586 425 593 435C600 445 603 462 603 485L603 485L603 659L450 659C450 633 450 615 449 604L449 604C447 557 440 517 428 482C415 447 394 414 366 385C337 355 296 326 245 298L245 298L201 361C246 386 281 411 306 435C330 458 347 483 356 509C365 534 370 565 371 602L371 602ZM221 613L280 575C257 535 228 494 194 452C160 409 125 371 90 338L90 338L39 389C72 420 105 456 137 495C168 534 196 574 221 613L221 613ZM709 551L761 604C785 583 817 552 856 513C895 474 929 439 956 408L956 408L900 353C873 384 841 419 803 459C765 498 734 529 709 551L709 551ZM918 171L550 171C605 90 739 30 953-10L953-10L917-87C704-49 567 21 504 122L504 122C473 76 422 35 353-2C283-39 191-68 78-89L78-89L43-12C159 9 249 34 314 64C378 94 420 130 440 171L440 171L80 171L80 241L455 241L455 318L540 318L540 241L918 241L918 171Z"/>
    <glyph glyph-name="" unicode="&#22916;"
      horiz-adv-x="1000" vert-adv-y="1172"
      d="M870 451L177 451L177 652L61 652L61 725L475 725C467 741 455 763 439 791L439 791L422 822L499 851C510 833 534 791 569 725L569 725L935 725L935 652L258 652L258 524L870 524L870 451ZM941 266L765 266C748 229 729 196 708 168C687 139 662 113 631 90L631 90C740 51 834 17 913-14L913-14L878-85C779-45 669-3 547 40L547 40C498 16 436-6 363-25C289-45 199-64 92-81L92-81L61-6C236 20 363 47 443 76L443 76C340 111 256 138 192 158L192 158C221 195 245 231 266 266L266 266L56 266L56 339L308 339C323 369 338 400 352 432L352 432L435 410C426 387 415 363 403 339L403 339L941 339L941 266ZM316 194C370 179 445 154 542 121L542 121C572 139 597 160 617 183C636 206 654 234 669 266L669 266L363 266C357 256 341 232 316 194L316 194Z"/>
    <glyph glyph-name="å" unicode="&#23013;"
      horiz-adv-x="1000" vert-adv-y="1172"
      d="M954 418L716 418C675 374 627 332 572 291L572 291L572 218C620 234 670 252 722 274C773 295 820 316 862 338L862 338L891 270C846 247 795 224 737 202C679 179 624 159 572 142L572 142L572 88C572 61 576 42 583 31C590 20 604 14 625 11L625 11C656 8 679 7 694 7L694 7C709 7 732 8 763 11L763 11C784 14 798 20 807 30C816 40 821 57 822 80L822 80C823 107 824 138 824 175L824 175L898 160C898 145 898 127 897 106C896 85 894 68 893 54L893 54C890 11 881-19 866-36C850-53 822-63 782-66L782-66C755-69 723-70 687-70L687-70C652-70 621-69 592-66L592-66C557-63 532-52 517-32C501-13 493 19 493 64L493 64L493 236C464 217 426 194 381 168L381 168L342 236C449 294 539 355 610 418L610 418L396 418L396 491L556 491L556 631L426 631L426 704L556 704L556 833L630 833L630 704L767 704L767 631L630 631L630 491L683 491C753 568 811 661 857 770L857 770L926 740C881 643 832 560 779 491L779 491L954 491L954 418ZM371 640L371 564C363 469 353 393 342 334C330 275 313 221 290 173L290 173L404 55L349-2C313 36 280 70 249 101L249 101C214 47 161-14 92-81L92-81L32-24C103 38 157 98 193 157L193 157C148 202 108 239 75 266L75 266C98 356 116 455 131 563L131 563L50 563L50 640L141 640C149 703 155 767 159 832L159 832L234 830C229 759 224 695 217 640L217 640L371 640ZM159 300C186 277 210 254 232 232L232 232C250 273 265 321 276 375C287 428 295 491 301 563L301 563L207 563C193 468 177 380 159 300L159 300Z"/>
    <glyph glyph-name="" unicode="&#23044;"
      horiz-adv-x="1000" vert-adv-y="1172"
      d="M76 345L44 424C125 445 192 468 245 492C297 515 344 543 386 576L386 576L78 576L78 643L454 643L454 840L534 840L534 643L910 643L910 576L599 576C642 545 691 517 747 492C802 467 869 445 946 424L946 424L918 348C829 375 754 404 693 435C632 466 579 501 534 542L534 542L534 379L454 379L454 542C405 499 353 462 296 432C239 402 165 373 76 345L76 345ZM357 704L302 649C277 676 239 712 188 759L188 759L170 776L222 829C282 776 327 734 357 704L357 704ZM767 828L825 777C794 746 749 704 689 651L689 651L639 708C699 761 742 801 767 828L767 828ZM369 384L453 358L421 310L921 310L921 237L760 237C743 204 725 174 704 149C683 124 657 101 627 80L627 80L914-5L883-77C796-48 682-12 540 32L540 32C490 9 429-10 357-27C285-44 197-60 92-75L92-75L62 5C217 22 337 42 421 67L421 67C360 86 282 109 185 136L185 136C188 139 207 164 243 209L243 209L265 237L68 237L68 310L319 310C330 325 346 349 369 384L369 384ZM659 237L366 237L313 171L528 109C559 126 584 144 605 165C626 186 644 210 659 237L659 237Z"/>
    <glyph glyph-name="" unicode="&#23045;"
      horiz-adv-x="1000" vert-adv-y="1172"
      d="M394 91L346 27C327 46 294 77 249 120L249 120C212 59 159-6 90-75L90-75L30-18C68 17 100 49 127 80C153 110 175 141 192 172L192 172L168 193C118 238 87 265 75 274L75 274C96 357 116 458 133 575L133 575L49 575L49 650L142 650C149 717 155 779 159 835L159 835L234 832C230 787 223 726 214 650L214 650L359 650L359 574C351 482 342 407 331 349C320 290 305 238 285 191L285 191L394 91ZM938 709L771 709L771 47L954 47L954-27L364-27L364 47L540 47L540 709L384 709L384 785L938 785L938 709ZM698 47L698 709L612 709L612 47L698 47ZM859 204L789 226C804 279 820 339 836 407C851 474 863 532 872 579L872 579L944 559C935 514 922 455 905 384C888 312 872 252 859 204L859 204ZM521 222L445 210C439 249 429 306 417 379C404 452 392 513 383 560L383 560L451 577C458 548 470 494 485 416C500 338 512 273 521 222L521 222ZM155 306L227 243C243 285 256 332 265 384C274 436 282 500 288 575L288 575L204 575C189 471 172 381 155 306L155 306Z"/>
    <glyph glyph-name="%" unicode="&#23077;"
      horiz-adv-x="1000" vert-adv-y="1172"
      d="M901 203L966 182C964 137 959 93 952 51L952 51C939-27 907-66 858-66L858-66C837-66 819-58 804-41C789-25 772 4 753 45L753 45L735 91C703 56 667 23 628-7L628-7L587 57C636 93 678 132 714 175L714 175C699 247 689 348 682 478L682 478L557 478L557 347L636 372L650 296C602 282 571 273 557 268L557 268L557 53C557 13 551-15 539-30C527-46 505-55 474-56L474-56C446-57 420-56 395-52L395-52L380 23C403 19 427 17 450 17L450 17C463 17 473 22 478 31C483 40 486 56 486 78L486 78L486 246L381 213L364 289L486 325L486 478L376 478L376 554L486 554L486 684C458 678 429 673 398 669L398 669L389 741C454 749 531 766 620 792L620 792L635 721L557 700L557 554L678 554L675 640C670 757 668 822 668 837L668 837L739 837C739 829 740 792 743 727L743 727L746 637L749 554L942 554L942 478L753 478C758 395 764 320 773 255L773 255C804 301 838 362 875 438L875 438L933 397C886 302 839 223 791 158L791 158C800 122 808 95 817 77L817 77C826 57 834 43 841 36C847 28 853 24 860 24L860 24C867 24 873 29 878 39C883 49 888 68 892 96L892 96C895 115 898 151 901 203L901 203ZM272 181C306 148 336 118 363 90L363 90L314 33C282 66 256 92 236 111L236 111C205 59 154-3 85-75L85-75L34-21C69 14 99 46 123 75C147 104 167 132 184 161L184 161C149 194 112 227 74 260L74 260C93 351 110 455 124 571L124 571L50 571L50 647L133 647C141 737 146 800 148 836L148 836L220 834C215 765 210 702 204 647L204 647L344 647L344 572C338 478 330 401 320 342C309 282 293 228 272 181L272 181ZM945 654L887 606C874 627 855 653 830 686C805 718 782 744 763 764L763 764L819 808C840 785 863 758 888 728C913 698 932 673 945 654L945 654ZM153 292C173 275 195 256 218 233L218 233C233 273 245 319 254 372C263 424 270 490 276 571L276 571L196 571C184 470 170 377 153 292L153 292Z"/>
    <glyph glyph-name="4" unicode="&#23092;"
      horiz-adv-x="1000" vert-adv-y="1172"
      d="M561 705L509 652C479 694 439 742 390 795L390 795L441 842C460 823 481 800 505 773C529 746 548 723 561 705L561 705ZM266 177C296 148 329 116 365 79L365 79L318 20C298 41 269 71 231 109L231 109C200 58 152-4 86-75L86-75L33-22C101 46 150 106 179 159L179 159C143 193 108 224 75 253L75 253C94 348 110 454 124 573L124 573L52 573L52 648L132 648C138 711 143 774 147 836L147 836L217 834C214 771 209 709 202 648L202 648L338 648L338 572C332 476 324 398 313 338C302 278 287 224 266 177L266 177ZM592 705L592 781L918 781L918 46C918 15 915-9 909-25C903-41 893-52 879-58C864-65 843-68 816-68L816-68C799-68 773-67 740-64L740-64L726 8C758 4 782 2 797 2L797 2C816 2 828 6 835 16C842 25 845 42 845 67L845 67L845 705L592 705ZM459 659L459-67L387-67L387 659L459 659ZM835 242L788 188C759 227 725 268 687 312L687 312L687-13L621-13L621 365C606 320 591 278 574 240C557 202 536 163 513 123L513 123L465 173C523 262 568 357 599 456L599 456L496 456L496 529L621 529L621 654L687 654L687 529L800 529L800 456L687 456L687 401C740 350 790 297 835 242L835 242ZM148 284C163 272 184 253 212 228L212 228C229 270 241 317 250 369C258 421 265 489 272 573L272 573L194 573C183 474 167 377 148 284L148 284Z"/>
    <glyph glyph-name="6" unicode="&#23094;"
      horiz-adv-x="1000" vert-adv-y="1172"
      d="M465 362L391 362L391 399L98 372L60 368L56 433L141 441L141 737L81 737L81 801L511 801L511 737L465 737L465 469L508 473L509 409L465 405L465 362ZM568 341L526 410C592 437 646 468 687 502L687 502C665 529 646 559 630 592C614 625 599 663 586 706L586 706L552 706L552 779L909 779L909 706C879 622 841 554 795 502L795 502C836 472 890 445 959 421L959 421L927 347C849 376 787 410 741 448L741 448C695 408 637 372 568 341L568 341ZM215 681L391 681L391 737L215 737L215 681ZM828 706L655 706C678 641 706 590 739 552L739 552C776 595 806 646 828 706L828 706ZM391 567L391 621L215 621L215 567L391 567ZM391 508L215 508L215 447L391 463L391 508ZM368 349L452 333C441 314 431 296 421 281L421 281L941 281L941 211L763 211C745 181 726 155 705 132C684 109 661 89 634 71L634 71C736 42 828 14 910-13L910-13L881-84C768-45 656-9 545 24L545 24C496 4 436-14 364-31C291-48 201-64 94-81L94-81L65-7C230 16 351 38 426 59L426 59C369 76 293 96 199 121L199 121C228 152 254 182 276 211L276 211L61 211L61 281L327 281C344 306 357 329 368 349L368 349ZM667 211L374 211C358 189 343 170 328 153L328 153C379 141 449 123 536 99L536 99C566 113 591 129 611 147C631 165 650 186 667 211L667 211Z"/>
    <glyph glyph-name="w" unicode="&#23159;"
      horiz-adv-x="1000" vert-adv-y="1172"
      d="M708 745L945 745L945 678L376 678L376 745L625 745C618 762 606 790 587 830L587 830L663 850C679 816 694 781 708 745L708 745ZM361 648L361 573C354 476 344 397 333 336C321 275 303 221 280 174L280 174C319 139 361 98 408 53L408 53L359-4C310 45 271 83 243 109L243 109C208 56 156-5 86-74L86-74L32-21C68 12 99 42 125 71C150 99 172 128 190 158L190 158C137 207 100 240 77 258L77 258C96 343 114 448 129 574L129 574L50 574L50 648L138 648C146 719 152 782 155 837L155 837L225 832C221 769 216 707 210 648L210 648L361 648ZM879 440L440 440L440 617L879 617L879 440ZM152 292L225 226C243 269 258 318 269 374C280 429 289 496 295 574L295 574L201 574C189 476 173 382 152 292L152 292ZM511 562L511 497L809 497L809 562L511 562ZM453 312L453 209L383 209L383 381L933 381L933 208L863 208L863 312L453 312ZM637 169L469 169L469 235L846 235L846 169L710 169L710 42C710 3 703-24 688-41C673-58 645-66 606-66L606-66C578-66 545-64 506-59L506-59L492 11C531 5 564 2 590 2L590 2C608 2 620 7 627 16C634 25 637 40 637 60L637 60L637 169Z"/>
    <glyph glyph-name="" unicode="&#23195;"
      horiz-adv-x="1000" vert-adv-y="1172"
      d="M347 119L299 55L238 116C220 86 199 56 174 27C149-2 118-35 82-70L82-70L29-16C65 17 95 48 120 77C145 106 166 135 185 166L185 166C160 190 124 223 76 266L76 266C95 361 111 465 124 576L124 576L41 576L41 646L132 646C138 707 143 769 147 834L147 834L217 830C213 767 208 705 202 646L202 646L348 646L348 576C342 485 333 410 322 349C311 288 295 234 275 187L275 187L347 119ZM914 823L926 754C852 743 765 733 666 724C566 714 476 707 395 702L395 702L387 770C473 774 564 781 661 791C758 800 842 811 914 823L914 823ZM971 2L941-73C838-45 755-10 690 33L690 33C621-14 535-52 434-81L434-81L400-11C491 11 568 41 633 78L633 78C588 118 551 167 521 226L521 226C480 126 420 33 341-54L341-54L286 0C339 55 383 111 417 170C450 229 477 294 496 366L496 366L380 366L380 430L510 430C513 445 518 470 523 503L523 503L403 503L403 569L758 569C787 631 812 685 831 730L831 730L892 707C887 694 871 658 844 600L844 600L829 569L927 569L927 503L593 503C590 479 586 455 581 430L581 430L948 430L948 366L567 366C563 350 556 327 547 296L547 296L882 296L882 232C847 172 803 120 748 75L748 75C803 46 878 21 971 2L971 2ZM711 598L652 577C648 590 641 610 631 635C621 660 613 679 607 691L607 691L667 712C674 696 681 677 690 656C699 634 706 615 711 598L711 598ZM543 596L482 572C463 616 447 650 434 675L434 675L491 700C507 672 524 637 543 596L543 596ZM150 299C169 283 193 263 220 238L220 238C237 280 250 328 259 382C268 436 275 501 280 576L280 576L194 576C181 470 167 378 150 299L150 299ZM802 233L587 233C615 185 649 145 689 114L689 114C736 150 774 190 802 233L802 233Z"/>
    <glyph glyph-name="²" unicode="&#23218;"
      horiz-adv-x="1000" vert-adv-y="1172"
      d="M652 751L894 751L894 361L402 361L402 751L571 751C586 792 597 823 603 844L603 844L678 824L652 751ZM273 173C322 126 354 94 370 77L370 77L321 22C303 43 275 71 238 107L238 107C204 52 153-10 85-81L85-81L31-23C100 40 152 100 186 158L186 158C154 189 118 224 78 261L78 261C97 350 113 452 126 567L126 567L47 567L47 641L134 641C141 713 146 777 148 834L148 834L222 832C221 789 216 725 207 641L207 641L350 641L350 568C343 473 334 396 323 336C312 275 295 221 273 173L273 173ZM466 683L466 427L828 427L828 683L466 683ZM512 449L485 503C516 516 552 533 594 554L594 554L490 613L518 663C531 656 556 642 594 620L594 620L654 587C704 617 741 642 766 663L766 663L797 616C779 599 750 579 711 555L711 555C757 529 788 511 805 501L805 501L778 447C743 468 701 493 653 520L653 520C598 489 551 466 512 449L512 449ZM152 286L220 224C239 269 253 317 262 369C271 420 278 486 285 567L285 567L198 567C185 466 170 372 152 286L152 286ZM887 156L952 139C952 130 951 114 948 91L948 91C947 85 946 68 944 40L944 40C943 7 934-18 916-33C898-48 871-57 836-59L836-59C816-60 801-61 790-61L790-61C781-61 765-60 744-59L744-59C716-57 695-48 682-32C669-16 662 9 662 42L662 42L662 330L731 330L731 218C793 248 847 278 892 307L892 307L923 245C868 214 804 181 731 146L731 146L731 68C731 47 734 33 739 25C744 17 753 12 767 11L767 11C774 10 785 10 800 10L800 10C815 10 826 10 833 11L833 11C853 13 866 18 873 27C879 36 883 52 884 75L884 75L887 156ZM482 177L482 43L608 96L613 23C554 3 502-17 459-37L459-37C437-47 422-55 413-60L413-60L385 7C395 15 402 22 406 28C409 34 411 42 411 51L411 51L411 326L482 326L482 246L611 246L611 177L482 177Z"/>
    <glyph glyph-name="p" unicode="&#23408;"
      horiz-adv-x="1000" vert-adv-y="1172"
      d="M331 743L499 743L499 676L58 676L58 743L256 743C241 778 227 805 216 826L216 826L288 848C303 817 317 782 331 743L331 743ZM907 208L964 183C961 158 956 128 951 94C946 59 941 32 936 12L936 12C931-10 922-28 909-42C896-56 882-63 867-63L867-63C851-63 836-55 822-40C808-25 798-4 791 21L791 21C784 51 778 88 774 132C770 176 768 238 768 317L768 317L768 576L659 576L659 513C659 442 657 383 652 334L652 334L762 236L718 172L641 246C630 184 611 129 585 81C559 33 521-21 471-80L471-80L411-27C464 28 502 80 527 129C552 178 568 236 577 305L577 305C532 346 497 375 472 393L472 393L516 449C532 437 555 419 584 394L584 394C585 443 586 484 586 516L586 516L586 576L490 576L490 650L586 650L586 832L659 832L659 650L838 650L838 368C838 302 839 244 842 194C844 144 847 107 850 84L850 84C855 51 862 34 871 34L871 34C879 34 886 50 891 81L891 81C900 134 905 176 907 208L907 208ZM100 610L446 610L446 429L100 429L100 610ZM380 490L380 549L168 549L168 490L380 490ZM472 216L476 148L320 133L320 41C320 12 317-9 310-24C303-39 293-49 279-54C264-60 244-63 217-63L217-63C198-63 172-62 137-59L137-59L123 11C153 7 183 5 212 5L212 5C226 5 236 9 241 18C246 26 249 41 249 63L249 63L249 126L45 105L40 173C59 174 129 181 249 193L249 193L249 232L348 300L79 300L79 366L452 366L452 300L320 211L320 200L472 216Z"/>
    <glyph glyph-name="u" unicode="&#23413;"
      horiz-adv-x="1000" vert-adv-y="1172"
      d="M273 838L298 777C253 750 200 726 137 704L137 704L137 594L178 607C194 554 210 492 226 421L226 421L226 685L284 685L284 377C284 291 279 222 269 170C259 118 241 74 217 37C192 0 155-38 106-77L106-77L60-29C110 13 147 53 171 91C194 128 210 173 218 224L218 224C197 211 166 191 125 166L125 166L87 142L56 203C64 210 70 216 73 222C76 227 77 234 77 242L77 242L77 760C105 767 137 777 173 793C208 808 242 823 273 838L273 838ZM923 823L934 755C887 744 830 734 766 725C701 715 636 707 573 700L573 700L566 772C628 777 692 785 757 794C822 803 878 812 923 823L923 823ZM395-69L332-69L332 785L532 785L532 206C532 181 530 163 525 150C520 137 512 129 501 124C490 119 476 117 457 117L457 117C445 117 433 118 421 120L421 120L408 191C423 188 437 186 448 187L448 187C457 188 463 192 468 200C472 208 474 221 474 240L474 240L474 376L440 364C431 403 416 458 395 529L395 529L395-69ZM474 410L474 714L395 714L395 585L422 595C441 534 459 472 474 410L474 410ZM859 496L804 517C816 538 829 567 843 604C857 641 868 673 877 701L877 701L933 680C926 657 915 626 900 588C885 549 871 519 859 496L859 496ZM796 548L743 527C726 582 708 632 690 676L690 676L742 696C761 651 779 601 796 548L796 548ZM678 525L623 506C618 525 609 551 598 583C587 614 577 639 568 657L568 657L619 676C629 655 640 629 652 598C664 567 673 543 678 525L678 525ZM226 396L186 386C171 458 154 524 137 583L137 583L137 245L170 266C177 270 185 275 194 281C203 287 213 293 225 300L225 300C226 314 226 337 226 368L226 368L226 396ZM781 268L953 268L953 200L781 200L781 36C781 3 776-21 767-36C757-51 740-59 715-60L715-60C688-61 655-59 616-56L616-56L603 12C630 8 657 6 684 6L684 6C695 6 703 10 708 19C712 28 714 42 714 63L714 63L714 200L563 200L563 268L714 268L714 318L825 411L587 411L587 480L917 480L917 415L781 293L781 268Z"/>
    <glyph glyph-name="Ç" unicode="&#23495;"
      horiz-adv-x="1000" vert-adv-y="1172"
      d="M824 675L169 675L169 597L89 597L89 749L472 749L433 828L509 859L564 749L904 749L904 592L824 592L824 675ZM872 549L872 485L675 485L675 424L858 424L858 355C831 304 790 255 735 208L735 208C762 189 797 165 840 134L840 134L801 72C768 98 727 129 678 164L678 164C623 125 563 91 498 61L498 61L458 128C517 152 569 179 615 208L615 208C598 220 566 241 521 272L521 272L557 325C602 296 641 271 674 250L674 250C718 284 753 320 778 359L778 359L511 359L511 424L606 424L606 633L675 633L675 549L872 549ZM466 553L466 480L126 480L126 553L466 553ZM870 193L947 175C945 133 942 93 939 54L939 54C936 15 924-13 904-28C884-44 850-53 802-56L802-56C737-59 678-61 626-61L626-61C573-61 514-59 449-56L449-56C420-55 397-50 381-42C364-35 352-22 345-5C338 12 334 37 334 70L334 70L334 304L239 304C239 283 239 269 238 261L238 261C237 207 233 161 225 124C217 86 203 51 183 18C162-15 134-49 97-84L97-84L34-35C70 0 97 31 116 59C134 87 147 116 154 147C161 177 165 215 167 262L167 262C168 270 168 284 168 304L168 304L73 304L73 378L478 378L478 304L406 304L406 92C406 71 407 56 411 47C414 37 419 30 428 26C437 22 450 19 467 18L467 18C514 15 567 14 626 14L626 14C685 14 738 15 785 18L785 18C806 19 821 22 832 26C842 29 849 36 854 45C859 54 862 69 864 88L864 88C865 103 867 120 868 141C869 161 870 178 870 193L870 193Z"/>
    <glyph glyph-name="Ý" unicode="&#23517;"
      horiz-adv-x="1000" vert-adv-y="1172"
      d="M834 687L174 687L174 588L96 588L96 751L474 751C455 788 440 813 431 828L431 828L512 858L529 828C534 819 540 808 548 795C555 782 563 767 571 751L571 751L912 751L912 583L847 583L847 380L358 380L358 433L775 433L775 476L385 476L385 528L775 528L775 570L366 570L366 624L834 624L834 687ZM210 297L210 641L280 641L280-76L210-76L210 199L67 87L33 157C48 168 73 187 110 216C147 245 180 272 210 297L210 297ZM205 357L140 326C123 367 94 433 51 525L51 525L115 553C159 458 189 393 205 357L205 357ZM320 335L910 335L910 207L838 207L838 279L391 279L391 207L320 207L320 335ZM945-6L922-72C857-61 800-49 754-35C707-21 665-4 628 16L628 16C558-18 460-49 334-77L334-77L311-14C417 7 501 30 564 56L564 56C522 87 480 127 439 176L439 176L408 176L408 233L832 233L832 179C792 128 746 86 695 53L695 53C756 27 840 7 945-6L945-6ZM741 176L526 176C560 139 594 109 628 88L628 88C669 111 707 141 741 176L741 176Z"/>
    <glyph glyph-name="ð" unicode="&#23536;"
      horiz-adv-x="1000" vert-adv-y="1172"
      d="M836 697L164 697L164 602L89 602L89 757L471 757C451 797 437 823 430 835L430 835L512 851C521 837 537 806 560 757L560 757L910 757L910 600L836 600L836 697ZM183 636L818 636L818 470L183 470L183 636ZM373 519L373 588L256 588L256 519L373 519ZM561 588L439 588L439 519L561 519L561 588ZM626 588L626 519L745 519L745 588L626 588ZM57 365L57 421L942 421L942 365L57 365ZM724 53C778 30 856 13 959 1L959 1L938-67C856-56 789-40 737-21C684-2 640 22 604 51C568 80 532 118 496 166L496 166L495 166C456 137 409 110 354 84L354 84L354-3L549 46L551-14C467-32 394-50 331-67L331-67L264-87L244-38C256-34 264-29 269-22C273-15 275-7 275 3L275 3L275 49C210 22 138-2 59-21L59-21L37 43C118 62 186 81 242 101C298 121 347 143 389 166L389 166L175 166L175 318L822 318L822 166L571 166C598 133 627 107 657 87L657 87C731 115 801 143 866 172L866 172L896 119C840 96 783 74 724 53L724 53ZM748 217L748 268L250 268L250 217L748 217Z"/>
    <glyph glyph-name="A" unicode="&#23617;"
      horiz-adv-x="1000" vert-adv-y="1172"
      d="M890 792L890 519L233 519L233 495C233 390 230 308 224 247C217 186 206 131 189 83C172 34 145-20 109-80L109-80L34-37C67 18 92 68 109 111C125 154 136 204 143 259C149 314 152 387 152 479L152 479L152 792L890 792ZM233 594L812 594L812 717L233 717L233 594ZM865 200L938 184C938 167 937 146 936 120C935 93 933 70 931 50L931 50C928 14 919-12 902-29C885-46 857-55 819-58L819-58C805-59 783-60 754-60L754-60C725-60 704-59 689-58L689-58C630-54 601-17 601 53L601 53L601 473L678 473L678 296C715 315 754 338 796 363C837 388 870 409 895 428L895 428L931 357C900 336 860 312 811 284C761 255 717 232 678 213L678 213L678 76C678 57 681 43 688 34C695 24 705 18 720 17L720 17C740 16 755 15 764 15L764 15C775 15 789 16 808 17L808 17C827 19 840 25 848 35C855 44 859 61 860 85L860 85C861 102 863 122 864 145C865 168 865 187 865 200L865 200ZM388 257L388 48L538 111L547 33C488 13 430-9 371-34L371-34C343-46 323-55 310-61L310-61L280 9C292 18 300 25 305 32C309 38 311 46 311 57L311 57L311 466L388 466L388 329L544 329L544 257L388 257Z"/>
    <glyph glyph-name="Q" unicode="&#23633;"
      horiz-adv-x="1000" vert-adv-y="1172"
      d="M143 488L143 794L904 794L904 580L223 580L223 482C223 393 220 319 214 259C208 198 198 143 183 92C168 41 146-13 119-71L119-71L36-39C65 20 88 73 103 120C118 167 128 218 134 274C140 330 143 401 143 488L143 488ZM223 727L223 647L825 647L825 727L223 727ZM821 569L870 524C821 473 783 436 756 414L756 414L874 414L874 48C874 7 868-21 855-38C842-55 818-64 785-64L785-64C741-64 693-61 641-56L641-56L626 15C678 8 720 5 752 5L752 5C769 5 780 9 786 18C792 27 795 42 795 63L795 63L795 80L383 80L383-65L304-65L304 414L425 414C399 441 363 472 316 509L316 509L360 559C415 519 455 485 480 457L480 457L442 414L553 414L553 560L630 560L630 414L737 414L699 458C743 491 784 528 821 569L821 569ZM383 350L383 278L795 278L795 350L383 350ZM795 214L383 214L383 144L795 144L795 214Z"/>
    <glyph glyph-name="y" unicode="&#23673;"
      horiz-adv-x="1000" vert-adv-y="1172"
      d="M952 635L582 635C558 594 533 557 507 522L507 522L443 572C476 615 504 657 528 700C551 742 574 791 595 847L595 847L671 826C654 781 637 743 621 710L621 710L952 710L952 635ZM289 829L289 133L362 142L362 669L432 669L432 70L75 32L75 664L145 664L145 116L219 125L219 829L289 829ZM887 208L963 191L962 166C961 152 961 136 960 119C959 102 958 85 957 68L957 68C954 29 945 1 929-18C913-37 887-47 850-50L850-50C805-54 761-56 716-56L716-56C668-56 620-54 572-50L572-50C544-48 521-39 503-22C485-6 476 16 476 45L476 45C476 82 499 130 546 189C593 248 667 327 769 427L769 427L508 427L508 501L869 501L869 427C754 309 674 224 629 173C584 121 561 86 561 67L561 67C561 56 565 46 572 37C579 28 589 24 601 23L601 23C644 20 683 18 718 18L718 18C752 18 791 20 834 23L834 23C851 24 863 30 870 41C877 52 881 69 883 93L883 93C884 111 886 149 887 208L887 208Z"/>
    <glyph glyph-name="" unicode="&#23697;"
      horiz-adv-x="1000" vert-adv-y="1172"
      d="M863 602L552 602C596 555 654 510 725 469C796 427 877 391 966 360L966 360L931 280C844 312 762 352 685 401C608 449 547 499 500 550L500 550C455 502 394 454 319 406C244 358 160 316 69 280L69 280L34 360C207 420 347 501 453 602L453 602L141 602L141 796L218 796L218 674L460 674L460 837L543 837L543 674L785 674L785 797L863 797L863 602ZM396 388L440 450C461 438 486 422 516 403C545 384 570 366 592 350L592 350L549 286C528 302 503 320 473 340C442 360 417 376 396 388L396 388ZM689 184L171 184L171 259L806 259L806 182C775 145 729 99 669 46C609-7 555-50 506-82L506-82L442-21C483 6 527 38 574 77C620 116 658 151 689 184L689 184Z"/>
    <glyph glyph-name="" unicode="&#23700;"
      horiz-adv-x="1000" vert-adv-y="1172"
      d="M552 807L612 850C659 778 710 719 766 673C822 627 888 587 965 553L965 553L926 475C868 502 817 531 774 563L774 563C771 507 766 456 759 410L759 410C754 377 747 353 738 336C728 319 713 308 693 301C673 294 644 290 607 289L607 289L577 289C537 289 502 291 473 294L473 294L457 373C494 368 534 365 579 365L579 365C606 365 625 367 637 370C649 373 658 379 664 388C669 397 674 411 677 431L677 431C683 466 687 496 688 523L688 523L421 523C415 478 402 441 384 410C365 379 335 350 294 324C253 297 196 271 123 244L123 244L89 316C153 337 202 357 236 376C270 395 295 415 310 438C325 460 334 488 338 523L338 523L233 523L233 576C190 542 140 510 83 479L83 479L42 552C112 589 176 632 234 681C292 730 339 782 374 835L374 835L435 792C388 721 331 657 264 601L264 601L726 601C663 655 605 724 552 807L552 807ZM543 261L543 48L768 48L768 230L848 230L848-75L768-75L768-28L147-28L147 223L226 223L226 48L459 48L459 261L543 261Z"/>
    <glyph glyph-name="Ù" unicode="&#23769;"
      horiz-adv-x="1000" vert-adv-y="1172"
      d="M945 515L945 438L827 438L827 331L935 331L935 254L827 254L827 61C827 28 823 2 815-15C806-32 792-44 773-51C754-58 725-62 688-62L688-62C659-62 635-60 615-57L615-57L601 19C637 13 667 10 691 10L691 10C709 10 723 12 732 16C741 19 747 26 750 37C753 48 755 64 755 86L755 86L755 254L448 254L448 331L755 331L755 438L441 438L441 515L653 515L653 636L476 636L476 711L653 711L653 836L724 836L724 711L907 711L907 636L724 636L724 515L945 515ZM269 833L269 122L334 127L334 679L400 679L400 53L70 29L70 679L136 679L136 111L204 116L204 833L269 833ZM486 184L546 232C581 192 615 150 650 106L650 106L591 54C576 74 559 97 538 123C517 148 500 169 486 184L486 184Z"/>
    <glyph glyph-name="æ" unicode="&#23782;"
      horiz-adv-x="1000" vert-adv-y="1172"
      d="M421 340L345 340L345 656L71 656L71 732L471 732C457 765 442 797 426 828L426 828L505 857C525 815 543 773 558 732L558 732L929 732L929 656L656 656L656 340L580 340L580 656L421 656L421 340ZM249 584L310 535C283 500 250 462 209 421C168 380 128 343 87 310L87 310L39 376C78 408 117 442 154 479C191 515 223 550 249 584L249 584ZM689 522L738 581C765 560 802 529 849 489C896 449 933 417 960 392L960 392L910 331C884 356 849 387 805 425C761 463 722 495 689 522L689 522ZM539 304L539 39L775 39L775 268L853 268L853-82L775-82L775-37L147-37L147 265L225 265L225 39L460 39L460 304L539 304Z"/>
    <glyph glyph-name="í" unicode="&#23789;"
      horiz-adv-x="1000" vert-adv-y="1172"
      d="M657 851L729 851L729 561L910 561L910 28C910 0 907-21 901-35C894-50 884-60 871-65C857-70 837-73 811-73L811-73C792-73 765-72 729-69L729-69L716 3C745-1 774-3 802-3L802-3C815-3 825 1 830 9C835 17 837 30 837 49L837 49L837 132L554 132L554-73L480-73L480 561L657 561L657 851ZM277 829L277 94L337 100L337 669L406 669L406 31L80 3L80 669L148 669L148 80L210 87L210 829L277 829ZM622 643L566 599C550 624 530 654 505 688C480 721 458 748 441 767L441 767L496 811C528 774 570 718 622 643L622 643ZM890 808L945 768C930 742 910 713 886 680C862 647 840 619 819 596L819 596L765 639C786 662 808 690 831 722C854 753 874 782 890 808L890 808ZM554 486L554 382L837 382L837 486L554 486ZM837 309L554 309L554 203L837 203L837 309Z"/>
    <glyph glyph-name="" unicode="&#23822;"
      horiz-adv-x="1000" vert-adv-y="1172"
      d="M682 589C665 565 640 543 609 523C578 503 536 483 483 462L483 462L449 527C508 548 551 568 579 589C607 610 626 636 637 668L637 668L456 668L456 740L651 740L652 749C653 760 653 774 654 791C655 808 655 822 655 835L655 835L728 835C728 816 727 794 725 769L725 769L724 740L927 740L927 668L715 668C714 663 713 655 710 646L710 646L922 524L884 464C799 517 732 559 682 589L682 589ZM267 826L267 90L332 96L332 670L394 670L394 32L78 3L78 664L141 664L141 78L203 84L203 826L267 826ZM956 462L956 391L872 391L872 48C872 6 865-23 851-40C837-57 811-65 774-65L774-65C742-65 709-63 676-59L676-59L660 12C696 6 726 3 751 3L751 3C770 3 783 8 790 18C796 28 799 45 799 69L799 69L799 391L417 391L417 462L956 462ZM464 64L464 319L720 319L720 64L464 64ZM528 256L528 129L658 129L658 256L528 256Z"/>
    <glyph glyph-name="i" unicode="&#23913;"
      horiz-adv-x="1000" vert-adv-y="1172"
      d="M786 730L786 814L863 814L863 667L135 667L135 813L212 813L212 730L459 730L459 841L540 841L540 730L786 730ZM548 586L925 586L925 529L73 529L73 586L462 586L430 638L500 665C529 618 545 591 548 586L548 586ZM798 325L200 325L200 482L798 482L798 325ZM280 432L280 378L718 378L718 432L280 432ZM196-65L117-65L117 279L882 279L882 42C882 13 879-9 872-24C865-40 852-51 835-58C818-65 793-69 761-69L761-69C740-69 715-67 687-62L687-62L673 6C700 1 725-2 749-2L749-2C770-2 784 3 792 13C799 22 803 37 803 58L803 58L803 221L196 221L196-65ZM304 9L304 173L694 173L694 9L304 9ZM382 121L382 61L618 61L618 121L382 121Z"/>
    <glyph glyph-name="Å" unicode="&#24005;"
      horiz-adv-x="1000" vert-adv-y="1172"
      d="M784 731L784 811L860 811L860 669L140 669L140 810L217 810L217 731L462 731L462 838L541 838L541 731L784 731ZM323 539L323 484L456 484L456 137L508 137L508 83L62 83L62 137L119 137L119 484L253 484L253 539L73 539L73 593L253 593L253 646L323 646L323 593L496 593L496 539L323 539ZM533 539L533 598L936 598L936 539L758 539C752 510 745 483 737 457L737 457L895 457L895 117L830 117L830 399L619 399L619 114L553 114L553 457L664 457C673 487 680 514 685 539L685 539L533 539ZM181 395L395 395L395 436L181 436L181 395ZM757 359L757 239C757 197 754 161 747 132L747 132C819 77 878 29 923-11L923-11L878-71C828-24 776 21 723 66L723 66C708 39 686 14 659-9C631-32 594-55 548-79L548-79L512-15C563 8 601 30 626 52C651 73 669 99 678 128C687 157 691 196 691 245L691 245L691 359L757 359ZM181 350L181 309L395 309L395 350L181 350ZM181 223L395 223L395 265L181 265L181 223ZM395 137L395 178L181 178L181 137L395 137ZM315 27L348 79C415 44 459 20 482 6L482 6L449-49C444-46 426-34 395-15C364 4 338 18 315 27L315 27ZM84-82L51-26C110 4 161 36 205 70L205 70L243 22C196-15 143-49 84-82L84-82Z"/>
    <glyph glyph-name="ë" unicode="&#24043;"
      horiz-adv-x="1000" vert-adv-y="1172"
      d="M909 699L540 699L540 47L946 47L946-28L53-28L53 47L464 47L464 699L90 699L90 771L909 771L909 699ZM242 653L318 641C307 576 295 518 280 469L280 469C295 448 342 376 423 253L423 253L444 221L379 175C339 242 296 311 251 381L251 381C218 296 175 214 122 135L122 135L59 181C108 252 147 326 177 403C206 479 228 562 242 653L242 653ZM724 649L800 637C789 577 775 522 760 472L760 472C794 427 854 342 940 217L940 217L874 168L845 213L731 385C703 312 666 239 620 168L620 168L555 213C597 276 632 343 659 415C686 487 708 565 724 649L724 649Z"/>
    <glyph glyph-name="" unicode="&#24086;"
      horiz-adv-x="1000" vert-adv-y="1172"
      d="M224 839L296 839L296 665L437 665L437 189C437 158 431 138 420 127C408 116 387 111 358 111L358 111C346 111 333 112 319 114L319 114L307 182C312 180 320 178 331 177L331 177C354 174 366 186 366 213L366 213L366 588L296 588L296-72L224-72L224 588L154 588L154 111L82 111L82 665L224 665L224 839ZM713 669L948 669L948 593L713 593L713 400L894 400L894-70L818-70L818-12L572-12L572-70L497-70L497 400L634 400L634 837L713 837L713 669ZM572 320L572 66L818 66L818 320L572 320Z"/>
    <glyph glyph-name="'" unicode="&#24103;"
      horiz-adv-x="1000" vert-adv-y="1172"
      d="M817 154L817 491L538 491L538 154L467 154L467 565L627 565L627 844L699 844L699 745L931 745L931 672L699 672L699 565L889 565L889 154L817 154ZM403 667L403 186C403 159 399 140 390 129C381 118 366 113 344 113L344 113C326 113 308 114 291 116L291 116L277 190C288 188 300 187 311 187L311 187C320 187 327 190 330 195C333 200 334 210 334 226L334 226L334 591L273 591L273-69L205-69L205 591L146 591L146 113L76 113L76 667L205 667L205 843L275 843L275 667L403 667ZM955-8L905-68C879-44 843-13 799 26C754 64 713 97 677 126L677 126C657 87 626 52 585 21C543-11 485-43 411-75L411-75L375-7C451 24 508 54 545 83C582 111 607 142 620 176C633 209 640 254 641 310L641 310L641 442L711 442L711 293C710 252 706 218 700 191L700 191C741 162 786 127 837 88C887 49 926 17 955-8L955-8Z"/>
    <glyph glyph-name="<" unicode="&#24124;"
      horiz-adv-x="1000" vert-adv-y="1172"
      d="M192 838L255 838L255 664L374 664L374 183C374 157 371 139 364 130C357 121 344 116 325 116L325 116C305 116 288 118 274 121L274 121L263 185C276 181 286 179 292 179L292 179C306 179 313 191 313 216L313 216L313 600L254 600L254-75L193-75L193 600L134 600L134 115L72 115L72 664L192 664L192 838ZM491-73L423-73L423 792L918 792L918-73L852-73L852-16L491-16L491-73ZM852 721L491 721L491 55L852 55L852 721ZM809 377L696 377L696 215L827 215L827 146L515 146L515 215L637 215L637 377L534 377L534 443L637 443L637 559L530 559L530 628L814 628L814 559L696 559L696 443L809 443L809 377ZM713 334L757 359C769 342 789 307 818 256L818 256L772 231C751 272 732 306 713 334L713 334Z"/>
    <glyph glyph-name="" unicode="&#24199;"
      horiz-adv-x="1000" vert-adv-y="1172"
      d="M621 734L948 734L948 654L228 654L228 415C228 300 220 207 203 135C186 62 155-10 112-81L112-81L40-29C69 20 92 65 108 106C123 147 134 190 141 237C147 283 150 339 150 406L150 406L150 734L530 734C509 781 495 812 488 826L488 826L570 852C580 834 597 795 621 734L621 734ZM868 95L872 225L948 210L941 59C940 20 930-9 913-26C895-44 867-54 829-56L829-56C801-57 780-58 767-58L767-58C753-58 732-57 704-56L704-56C673-55 651-45 636-26C621-7 613 22 613 61L613 61L613 612L692 612L692 375C726 396 762 421 801 450C839 478 870 502 894 523L894 523L939 454C908 429 868 399 819 366C770 333 728 306 692 285L692 285L692 86C692 65 695 49 702 38C708 27 718 22 732 21L732 21C741 20 756 20 775 20L775 20C794 20 808 20 817 21L817 21C835 22 848 29 855 40C862 51 867 69 868 95L868 95ZM397 341L397 70L549 147L560 56C489 27 425-2 369-33L369-33C343-48 328-56 325-58L325-58L281 16C295 25 304 33 309 42C314 51 316 63 316 78L316 78L316 608L397 608L397 419L556 419L556 341L397 341Z"/>
    <glyph glyph-name="µ" unicode="&#24245;"
      horiz-adv-x="1000" vert-adv-y="1172"
      d="M871 69C872 80 873 92 874 106C875 120 875 133 875 144L875 144L944 127L937 47C935 20 931 1 924-12C917-25 905-35 889-40C873-46 849-50 817-52L817-52C786-54 755-55 724-55L724-55C693-55 662-54 631-52L631-52C592-49 565-41 550-27C535-14 528 10 528 45L528 45L528 94L293 94L293 338C283 332 274 327 267 323C259 318 252 315 247 312L247 312L228 301L201 354C199 260 191 182 178 121C165 60 140-3 105-68L105-68L35-29C62 20 82 65 96 107C109 149 118 194 123 242C128 289 130 350 130 425L130 425L130 747L503 747C488 778 473 803 460 823L460 823L534 857C549 835 568 798 593 747L593 747L948 747L948 682L202 682L202 433C202 402 202 380 201 365L201 365C250 390 293 416 329 442C365 467 397 496 424 527L424 527L230 527L230 589L470 589C485 613 500 640 513 671L513 671L580 651C570 630 560 609 549 589L549 589L920 589L920 527L708 527C765 459 851 404 967 361L967 361L936 299C899 314 864 331 831 350L831 350L831 94L599 94L599 65C599 44 603 30 611 24C618 17 634 12 658 10L658 10C682 8 706 7 730 7L730 7C754 7 778 8 802 10L802 10C829 12 846 17 855 24C864 31 869 46 871 69L871 69ZM623 527L509 527C475 480 432 437 381 398L381 398L528 398L528 482L599 482L599 398L756 398C701 438 657 481 623 527L623 527ZM365 338L365 275L528 275L528 338L365 338ZM763 275L763 338L599 338L599 275L763 275ZM528 217L365 217L365 154L528 154L528 217ZM763 217L599 217L599 154L763 154L763 217Z"/>
    <glyph glyph-name="Ó" unicode="&#24275;"
      horiz-adv-x="1000" vert-adv-y="1172"
      d="M586 757L941 757L941 684L197 684L197 431C197 341 194 268 189 213C184 158 175 109 163 68C150 26 132-20 108-70L108-70L35-33C59 15 77 59 90 98C102 137 111 182 116 231C121 280 123 343 123 422L123 422L123 757L502 757C485 788 469 814 456 835L456 835L535 858C552 827 569 794 586 757L586 757ZM374 653L437 673C453 643 466 618 475 597L475 597L623 597L623 537L232 537L232 597L408 597L374 653ZM929 542L857 342C890 299 912 263 925 234C938 205 944 175 944 146L944 146C944 100 935 68 918 51C900 34 870 25 829 25L829 25C816 25 796 26 768 29L768 29L755 97C778 93 801 91 824 91L824 91C842 91 855 96 863 107C870 118 874 136 874 162L874 162C874 185 867 209 853 235C839 260 816 292 785 329L785 329L856 542L725 542L725-72L658-72L658 608L929 608L929 542ZM580 333L268 333L268 491L580 491L580 333ZM335 440L335 386L515 386L515 440L335 440ZM617 158L623 99L469 87L469 28C469-8 462-32 449-44C436-57 413-63 380-63L380-63C365-63 343-62 314-59L314-59L301 2C325-2 349-4 372-4L372-4C383-4 390 0 395 9C399 17 401 30 401 47L401 47L401 81C370 78 348 77 334 76L334 76C259 70 218 67 213 67L213 67L206 127C205 127 254 130 354 137L354 137C364 138 380 140 401 141L401 141L401 178L494 231L249 231L249 288L587 288L587 226L469 157L469 146L617 158Z"/>
    <glyph glyph-name="" unicode="&#24339;"
      horiz-adv-x="1000" vert-adv-y="1172"
      d="M141 789L834 789L834 488L241 488L227 339L880 339L879 319C877 283 874 246 871 208C868 169 863 134 858 102L858 102C849 47 831 7 805-17C779-42 738-54 683-54L683-54C626-54 561-51 489-45L489-45L473 31C504 28 536 25 570 22C603 19 636 18 667 18L667 18C702 18 728 26 743 41C758 56 769 83 778 120L778 120C786 156 792 204 796 265L796 265L137 265L166 563L757 563L757 714L141 714L141 789Z"/>
    <glyph glyph-name="'" unicode="&#24359;"
      horiz-adv-x="1000" vert-adv-y="1172"
      d="M649 692L649 513C649 422 646 339 639 266C632 193 617 125 594 62L594 62L706 97C692 164 679 219 668 262L668 262L731 279C742 238 754 186 769 122C783 57 794 1 803-46L803-46L738-60C732-27 726 2 720 27L720 27L685 17L562-19L504-37L480 36C491 39 499 43 506 48C512 53 517 60 521 70L521 70C541 123 555 183 564 251C572 319 576 396 576 482L576 482L576 683C543 679 513 676 485 674L485 674L485 438C485 322 479 226 467 151C455 75 432 1 397-72L397-72L324-33C349 19 368 67 381 110C394 153 402 200 407 250C411 299 413 363 413 441L413 441L413 744C488 748 568 757 655 770C742 783 817 797 880 813L880 813L902 738L836 723C831 722 823 721 810 718L810 718C813 555 827 416 852 300C876 183 913 77 964-19L964-19L894-66C842 40 804 153 781 273C758 393 744 537 741 706L741 706C703 700 672 695 649 692L649 692ZM155 485L142 343L317 343L318 312C318 253 315 174 308 75L308 75C305 29 296-3 281-20C265-37 239-46 202-46L202-46C162-46 127-44 98-41L98-41L83 33C123 28 157 26 186 26L186 26C203 26 215 32 222 43C229 54 234 73 237 100L237 100C242 154 245 211 245 270L245 270L69 270L87 558L253 558L253 698L58 698L58 776L327 776L327 485L155 485Z"/>
    <glyph glyph-name="<" unicode="&#24380;"
      horiz-adv-x="1000" vert-adv-y="1172"
      d="M460 708L333 708L333 784L644 784L644 708L533 708C526 658 518 615 511 578L511 578L626 578L626-9L357-9L357 578L438 578C449 638 457 681 460 708L460 708ZM777 487L767 349L917 349C914 240 908 146 899 65L899 65C896 32 890 7 883-10C876-28 865-41 850-49C835-57 815-61 789-61L789-61C766-61 732-59 689-54L689-54L674 25C690 22 706 20 722 19C737 17 753 16 768 16L768 16C785 16 798 21 806 30C813 39 819 56 824 81L824 81C833 137 839 200 840 270L840 270L689 270L707 561L835 561L835 708L687 708L687 784L909 784L909 487L777 487ZM289 483L162 483L150 346L296 346L295 318C292 213 287 128 280 64L280 64C277 32 271 7 263-10C255-28 244-40 230-47C216-54 198-58 175-58L175-58C134-58 99-56 70-53L70-53L53 22C92 17 124 15 151 15L151 15C168 15 181 20 190 29C199 38 205 54 208 79L208 79C215 128 219 190 222 267L222 267L76 267L92 556L220 556L220 701L54 701L54 778L289 778L289 483ZM426 505L426 332L560 332L560 505L426 505ZM560 260L426 260L426 66L560 66L560 260Z"/>
    <glyph glyph-name="d" unicode="&#24420;"
      horiz-adv-x="1000" vert-adv-y="1172"
      d="M836 824L891 770C850 725 804 681 754 637C703 593 655 557 610 528L610 528L564 595C608 622 655 657 705 699C754 740 798 782 836 824L836 824ZM576 393L576 317L506 317L506 63C506 23 500-6 487-23C474-41 453-50 424-51L424-51C379-52 339-51 304-46L304-46L289 29C326 24 359 21 388 22L388 22C404 23 415 29 422 41C428 52 431 73 431 104L431 104L431 317L217 317C216 257 212 207 206 167C200 126 190 88 177 52C164 15 144-27 118-76L118-76L45-45C70 0 90 39 103 72C116 105 125 140 131 177C136 214 140 261 141 317L141 317L45 317L45 393L142 393L142 783L506 783L506 393L576 393ZM431 709L217 709L217 393L431 393L431 709ZM246 624L306 653C337 600 367 542 396 478L396 478L335 446C303 517 273 576 246 624L246 624ZM653 270L605 333C704 406 794 486 873 573L873 573L927 521C838 427 747 343 653 270L653 270ZM893 309L955 260C907 195 855 137 800 86C744 34 678-16 601-63L601-63L553 8C625 49 688 94 743 143C797 192 847 247 893 309L893 309Z"/>
    <glyph glyph-name="" unicode="&#24469;"
      horiz-adv-x="1000" vert-adv-y="1172"
      d="M947 321L712 321C783 216 870 128 975 56L975 56L924-13C870 28 823 72 782 119C741 166 704 218 671 275L671 275L671-75L589-75L589 275C517 152 431 55 331-18L331-18L278 48C385 119 474 210 547 321L547 321L319 321L319 394L589 394L589 644L353 644L353 719L589 719L589 843L671 843L671 719L922 719L922 644L671 644L671 394L947 394L947 321ZM276 837L338 789C312 749 276 703 229 650C182 597 138 552 95 515L95 515L54 587C92 620 133 661 177 710C221 759 254 801 276 837L276 837ZM369 578L430 623C444 606 463 581 486 550C509 518 527 491 540 469L540 469L481 419C466 446 448 475 426 506C403 537 384 561 369 578L369 578ZM779 415L722 462C741 484 762 510 783 541C804 572 820 599 833 623L833 623L896 585C883 560 865 531 842 498C819 465 798 438 779 415L779 415ZM269 588L331 546C310 509 283 465 248 415L248 415L248-72L169-72L169 314C132 271 99 237 68 210L68 210L27 281C66 315 110 362 158 423C205 484 242 539 269 588L269 588Z"/>
    <glyph glyph-name="û" unicode="&#24571;"
      horiz-adv-x="1000" vert-adv-y="1172"
      d="M423 525L368 468C345 500 312 540 269 589L269 589L269-71L192-71L192 840L269 840L269 690C294 665 323 636 354 603C385 569 408 543 423 525L423 525ZM521 492L953 492L953 411L790 411L790-70L711-70L711 411L521 411C520 328 515 260 507 207C499 154 486 106 468 63C450 20 424-26 390-76L390-76L319-27C356 24 383 69 400 108C417 146 428 190 434 239C439 288 442 357 442 448L442 448L442 740C519 746 597 755 675 768C752 781 823 795 887 812L887 812L907 732C855 718 794 705 724 694C654 682 586 673 521 667L521 667L521 492ZM106 305L30 316C40 361 50 418 61 487C71 556 79 621 85 680L85 680L159 673C154 620 146 555 135 479C124 402 115 344 106 305L106 305Z"/>
    <glyph glyph-name=" " unicode="&#24608;"
      horiz-adv-x="1000" vert-adv-y="1172"
      d="M181 562L101 558L86 631C107 633 123 635 133 638C143 640 153 644 162 649L162 649C199 670 248 705 309 752C370 799 416 837 447 867L447 867L503 817C471 787 435 756 395 724C355 691 317 663 281 638L281 638C380 643 453 647 498 649L498 649L715 660L602 750L648 804C683 778 726 743 778 700C830 656 875 617 914 582L914 582L868 527C831 560 806 583 793 594L793 594L181 562ZM166 255L166 499L832 499L832 255L166 255ZM245 429L245 325L753 325L753 429L245 429ZM428 188L475 243C494 230 517 212 544 191C571 169 591 150 606 135L606 135L558 77C542 93 521 112 496 134C470 155 447 173 428 188L428 188ZM752 181L815 225C855 174 904 103 961 12L961 12L895-33C839 60 791 131 752 181L752 181ZM661 70L667 136L738 116L730 37C727 2 719-22 707-35C695-48 673-55 641-57L641-57C593-60 550-62 513-62L513-62C475-62 432-60 384-57L384-57C360-55 341-51 328-44C314-37 304-26 298-10C291 5 288 28 288 58L288 58L288 215L364 215L364 78C364 56 368 41 375 32C382 23 393 18 410 17L410 17C440 14 474 13 511 13L511 13C548 13 582 14 611 17L611 17C628 18 641 23 648 30C655 37 659 51 661 70L661 70ZM109-50L38-10C59 22 79 57 100 96C120 135 137 171 151 206L151 206L224 179C210 142 193 102 172 61C151 20 130-17 109-50L109-50Z"/>
    <glyph glyph-name="M" unicode="&#24653;"
      horiz-adv-x="1000" vert-adv-y="1172"
      d="M378 566L331 508C308 538 281 569 250 600L250 600L250-70L174-70L174 841L250 841L250 688C285 657 328 616 378 566L378 566ZM884 194L954 177C954 158 953 136 951 110L951 110L949 67C948 37 945 15 938 0C931-15 921-25 907-31C893-37 872-41 845-44L845-44C835-45 820-46 799-46L799-46C779-46 764-45 753-44L753-44C730-42 712-38 699-31C686-25 677-14 671 2C665 17 662 40 662 69L662 69L662 371L552 371C551 366 551 357 551 346L551 346C551 256 537 178 508 113C479 47 429-16 356-77L356-77L298-16C345 20 380 55 404 90C428 125 445 162 455 201C464 240 471 289 475 348L475 348L476 371L335 371L335 447L589 447L589 835L667 835L667 447L934 447L934 371L738 371L738 85C738 64 741 50 746 43C751 36 761 32 776 30L776 30C789 29 799 28 806 28L806 28C813 28 823 29 836 30L836 30C848 32 857 34 862 37C867 39 871 43 874 50C877 57 879 67 880 82L880 82C881 99 882 118 883 139C884 160 884 179 884 194L884 194ZM842 767L908 734C891 700 869 661 843 617C817 573 793 534 770 499L770 499L708 533C732 566 757 605 782 649C807 692 827 732 842 767L842 767ZM541 528L477 497C462 532 443 573 418 621C393 668 371 706 353 734L353 734L417 763C435 734 457 696 483 648C509 599 528 559 541 528L541 528ZM98 307L29 317C39 362 49 419 58 489C67 558 74 623 78 682L78 682L147 674C143 617 136 552 126 478C116 403 107 346 98 307L98 307Z"/>
    <glyph glyph-name="U" unicode="&#24661;"
      horiz-adv-x="1000" vert-adv-y="1172"
      d="M88 273L54 343C146 374 214 404 259 432L259 432C204 461 152 486 104 509L104 509C124 550 143 595 162 645L162 645L63 645L63 719L188 719C203 768 214 812 222 849L222 849L299 836C288 793 277 754 265 719L265 719L483 719L483 645C472 599 459 560 446 529C433 498 416 470 395 446L395 446C424 431 456 413 490 393L490 393L450 323C411 347 372 370 334 391L334 391C307 372 273 353 234 334C195 315 146 295 88 273L88 273ZM548 340L548 756L885 756L885 340L548 340ZM626 681L626 413L809 413L809 681L626 681ZM405 645L240 645C226 606 213 572 200 542L200 542C243 522 285 502 325 482L325 482C344 502 360 525 373 551C385 576 396 608 405 645L405 645ZM625 160L563 110C550 130 530 157 505 190C480 223 460 247 446 263L446 263L503 310C522 289 544 264 569 234C594 203 612 179 625 160L625 160ZM666 80C667 94 668 111 669 130C670 149 670 165 669 178L669 178L747 161C747 156 745 128 742 78L742 78L740 49C737 14 727-13 709-30C690-47 659-58 616-62L616-62C577-65 541-67 507-67L507-67C472-67 436-65 397-62L397-62C360-59 334-47 317-28C300-9 292 20 292 59L292 59L292 277L371 277L371 88C371 60 374 41 381 31C388 21 402 15 424 12L424 12C457 9 489 7 518 7L518 7C545 7 574 9 604 12L604 12C621 14 633 17 641 22C649 26 655 32 658 41C661 49 664 62 666 80L666 80ZM729 227L792 271C817 242 846 203 880 157C913 110 941 69 963 35L963 35L898-13C875 24 846 66 813 114C780 162 752 200 729 227L729 227ZM115-25L40 9C61 43 83 82 104 125C125 168 143 209 157 248L157 248L232 223C216 180 198 137 177 92C156 47 136 8 115-25L115-25Z"/>
    <glyph glyph-name="j" unicode="&#24682;"
      horiz-adv-x="1000" vert-adv-y="1172"
      d="M707 475C777 436 862 405 962 382L962 382L936 308C819 339 721 379 642 429L642 429C561 378 463 336 348 304L348 304L317 374C419 403 505 438 575 478L575 478C537 510 502 547 469 589L469 589C442 554 413 522 384 493L384 493L332 550C375 592 415 640 451 695C486 749 514 802 535 855L535 855L614 830C595 791 583 765 576 753L576 753L879 753L879 682C832 599 775 530 707 475L707 475ZM358 636L318 573C297 599 274 626 249 653L249 653L249-62L175-62L175 847L249 847L249 739C286 708 323 673 358 636L358 636ZM91 312L21 324C31 370 41 428 51 498C60 567 67 631 72 688L72 688L141 683C137 634 130 571 120 494C109 417 100 356 91 312L91 312ZM513 650C547 601 589 557 638 520L638 520C697 563 748 617 790 682L790 682L534 682L513 650ZM488-14L488-69L415-69L415 297L856 297L856-69L782-69L782-14L488-14ZM488 56L782 56L782 226L488 226L488 56Z"/>
    </font>
</defs>
</svg>
