<svg xmlns="http://www.w3.org/2000/svg">
<!--
Copyright 2021 Huawei Device Co., Ltd. All Rights Reserved.
  -->

  <defs>
    <font name="HarmonyOS Sans SC Light"
      horiz-adv-x="1000" vert-adv-y="1000" >
    <font-face font-family="HarmonyOS Sans SC Light" font-weight="400"
      font-stretch="normal"
      units-per-em="1000"
      ascent="928"
      descent="-244"/>
    <glyph glyph-name="a" unicode="&#37985;"
      horiz-adv-x="1000" vert-adv-y="1172"
      d="M912 698L697 698L697 588L958 588L958 545L362 545L362 588L471 588L471 786L516 786L516 588L654 588L654 844L697 844L697 739L912 739L912 698ZM360 91L362 66L364 44C325 37 267 27 190 13C112-1 66-10 52-13L52-13L45 31L184 57L184 369L58 369L58 410L184 410L184 532L102 532L102 567C90 550 78 535 65 521L65 521L36 555C69 595 101 641 131 693C160 744 183 794 199 842L199 842L246 833L230 792C258 763 303 715 365 648L365 648L333 618L212 753C181 687 146 627 106 572L106 572L329 572L329 532L226 532L226 410L347 410L347 369L226 369L226 65C306 80 351 89 360 91L360 91ZM570 533L606 522C599 500 595 486 592 480L592 480C625 447 649 422 662 406L662 406C688 451 706 492 717 531L717 531L752 521C749 508 743 491 735 472L735 472C770 430 799 394 822 364L822 364L796 339C771 372 746 405 719 436L719 436C698 393 678 358 657 332L657 332L628 354L642 373C624 395 602 419 577 444L577 444C557 402 534 365 509 332L509 332L479 357C500 384 518 412 535 444C551 475 563 504 570 533L570 533ZM454 495L454 316L847 316L847 496L888 496L888-75L847-75L847-14L413-14L413 495L454 495ZM55 307L92 320C117 250 135 189 148 137L148 137L111 124C98 171 79 232 55 307L55 307ZM294 133L256 146C279 204 300 262 317 320L317 320L354 307C346 280 336 251 325 218C314 185 303 156 294 133L294 133ZM847 275L454 275L454 28L847 28L847 275ZM820 85L796 59C782 80 757 115 721 162L721 162C702 123 680 86 654 51L654 51L626 75L641 97L575 171C556 127 533 87 506 50L506 50L477 75C496 102 514 132 531 165C548 198 559 227 565 254L565 254L600 246C596 230 593 218 590 210L590 210L661 130C690 181 709 223 718 257L718 257L752 245C747 228 742 212 736 197L736 197C771 154 799 117 820 85L820 85Z"/>
    <glyph glyph-name="b" unicode="&#37986;"
      horiz-adv-x="1000" vert-adv-y="1172"
      d="M893 633L458 633L458 408C458 325 457 260 454 214C451 167 444 121 432 74C420 27 400-22 373-71L373-71L334-46C360 2 379 47 390 89C401 130 408 173 411 217C414 261 415 325 415 408L415 408L415 671L618 671L618 844L662 844L662 770L899 770L899 733L662 733L662 671L936 671L936 632L911 555L872 564L893 633ZM356 81L358 54L359 36C320 29 268 20 202 9C136-2 84-11 45-18L45-18L39 26C58 28 107 36 187 51L187 51L187 360L56 360L56 403L187 403L187 524L102 524L102 560C90 543 78 528 65 514L65 514L35 548C70 588 103 635 135 688C166 741 191 791 209 840L209 840L251 828L236 789L381 638L350 605C303 658 259 707 218 750L218 750C187 685 150 624 108 567L108 567L338 567L338 524L229 524L229 403L360 403L360 360L229 360L229 58L301 71C312 73 322 75 332 77C341 78 349 80 356 81L356 81ZM858 550L898 541L895 504C894 482 889 467 879 460C868 452 849 447 822 446L822 446C804 445 781 445 753 445L753 445C725 445 702 445 683 446L683 446C658 447 641 452 632 462C622 471 617 488 617 515L617 515L617 524L484 511L481 548L617 561L617 614L658 614L658 565L824 581L826 544L658 528L658 525C658 506 660 495 665 490C670 485 680 481 697 480L697 480C725 479 744 478 755 478L755 478C765 478 784 479 812 480L812 480C829 481 841 484 847 489C852 493 855 502 856 517L856 517L858 550ZM519 182L519 404L888 404L888 182L519 182ZM560 309L683 309L683 371L560 371L560 309ZM723 371L723 309L846 309L846 371L723 371ZM298 129L262 142C287 203 307 261 323 314L323 314L359 301C344 250 324 193 298 129L298 129ZM56 299L92 313C106 276 126 216 152 134L152 134L115 121C107 150 87 209 56 299L56 299ZM683 216L683 277L560 277L560 216L683 216ZM846 277L723 277L723 216L846 216L846 277ZM765 69L734 43L661 143L691 166C704 149 729 117 765 69L765 69ZM843 128L874 149C892 120 922 70 963-2L963-2L929-23C916 0 902 26 887 54C872 81 857 106 843 128L843 128ZM797 114L835 105C836 86 836 61 833 32L833 32C831 11 827-5 822-16C816-27 807-34 796-38C784-43 767-46 744-47L744-47C735-48 722-48 705-48L705-48C682-48 665-48 652-47L652-47C624-46 605-40 595-28C584-16 579 5 579 34L579 34L579 147L620 147L620 43C620 23 623 10 628 3C633-4 645-7 664-8L664-8C673-9 687-9 706-9L706-9C721-9 731-9 737-8L737-8C754-7 767-5 774-2C781 0 786 4 789 11C792 17 794 27 795 42L795 42C796 65 797 89 797 114L797 114ZM476-34L441-12C454 9 467 33 481 62C494 90 505 116 514 141L514 141L549 126C532 77 508 24 476-34L476-34Z"/>
    <glyph glyph-name="c" unicode="&#37987;"
      horiz-adv-x="1000" vert-adv-y="1172"
      d="M957 738L957 693L766 693L766 606L913 606L913 433L752 433L752 321C777 329 804 339 835 351C866 363 892 374 915 385L915 385L930 347C906 336 877 325 844 312C810 299 779 289 752 281L752 281L752 244C752 223 755 209 762 202C768 195 780 192 798 191L798 191L827 190C853 190 871 191 882 193C893 195 900 200 905 207C909 214 911 227 912 244L912 244C913 256 914 274 914 297L914 297L953 288C953 265 952 246 950 232L950 232C948 210 944 194 939 183C933 172 924 164 913 159C901 154 884 151 862 150L862 150C854 149 841 149 824 149L824 149C807 149 795 149 786 150L786 150C758 152 739 159 728 170C717 181 711 201 711 232L711 232L711 433L558 433L558 345L686 345L686 306L558 306L558 197L683 235L685 195L645 183C584 165 548 154 538 150L538 150C531 148 525 144 518 139L518 139L502 176C513 186 518 194 518 201L518 201L518 433L452 433L452 410C452 333 450 268 445 216C440 164 431 116 419 71C406 26 388-22 364-74L364-74L320-58C345-5 363 42 376 85C388 128 396 173 401 220C405 267 407 327 407 400L407 400L407 738L663 738C649 770 635 801 620 832L620 832L668 847C683 816 700 779 717 738L717 738L957 738ZM347 74L351 28L270 14C142-9 67-22 46-26L46-26L38 21C47 22 58 24 71 27L71 27L188 47L188 349L55 349L55 393L188 393L188 514L107 514L107 546C94 528 80 509 63 489L63 489L31 523C64 562 98 611 131 670C164 729 190 785 208 837L208 837L255 824C250 807 244 792 237 777L237 777L356 668L393 633L361 601C314 646 267 691 219 736L219 736C192 678 157 619 116 559L116 559L341 559L341 514L232 514L232 393L363 393L363 349L232 349L232 54L347 74ZM452 606L568 606L568 693L452 693L452 606ZM610 693L610 606L725 606L725 693L610 693ZM568 475L568 565L452 565L452 475L568 475ZM725 565L610 565L610 475L725 475L725 565ZM766 475L871 475L871 565L766 565L766 475ZM299 121L263 135C293 206 315 264 329 310L329 310L367 296C354 257 331 198 299 121L299 121ZM52 291L88 306L104 263C128 198 144 153 153 127L153 127L115 114C105 149 84 208 52 291L52 291ZM831 110L871 127C881 109 894 82 911 46C928 10 941-21 952-46L952-46L911-61C903-39 890-10 874 26C857 62 842 90 831 110L831 110ZM483-69L440-54C452-33 466-4 481 33C496 69 507 99 515 124L515 124L557 112C548 88 537 57 522 20C507-17 494-47 483-69L483-69ZM719 108L759 119C771 90 788 38 809-35L809-35L766-45C761-24 754 2 744 35C734 68 726 92 719 108L719 108ZM607 110L648 116C657 75 668 21 680-45L680-45L636-51C634-32 630-7 624 26C617 59 612 87 607 110L607 110Z"/>
    <glyph glyph-name="d" unicode="&#37988;"
      horiz-adv-x="1000" vert-adv-y="1172"
      d="M360 85L362 61L364 40C321 33 263 22 190 9C116-4 67-14 44-19L44-19L37 25C58 28 107 36 185 51L185 51L185 362L56 362L56 404L185 404L185 526L100 526L100 561L67 520L39 551C72 592 104 638 133 689C162 740 184 789 201 838L201 838L245 828L231 790L370 642L340 612L213 749C182 682 146 621 105 568L105 568L329 568L329 526L226 526L226 404L347 404L347 362L226 362L226 59L258 65L360 85ZM939 292L781 292C802 259 827 232 856 209C885 186 921 165 964 146L964 146L946 104C891 131 846 160 811 193L811 193C789 172 757 146 716 117L716 117L694 145C722 165 753 190 786 219L786 219C769 238 751 263 732 292L732 292L575 292C560 267 543 244 522 222L522 222L541 205L607 144L581 118L496 195C456 158 413 127 367 102L367 102L345 141C428 184 488 235 527 292L527 292L372 292L372 331L530 331L530 417L397 417L397 455L530 455L530 535L428 535L428 802L877 802L877 535L775 535L775 455L913 455L913 417L775 417L775 331L939 331L939 292ZM470 687L835 687L835 764L470 764L470 687ZM835 574L835 649L470 649L470 574L835 574ZM734 455L734 535L571 535L571 455L734 455ZM734 331L734 417L571 417L571 331L734 331ZM294 128L259 139C284 206 303 263 316 312L316 312L352 301C345 278 336 249 325 216C314 182 303 153 294 128L294 128ZM52 299L89 311C118 226 138 167 147 133L147 133L110 119C102 147 83 207 52 299L52 299ZM374 21L635 127L635 258L677 258L677 21C677-8 671-30 660-43C648-56 628-63 600-63L600-63C579-63 557-60 534-55L534-55L527-14C548-19 570-22 592-22L592-22C609-22 620-18 626-11C632-4 635 9 635 27L635 27L635 83L388-21L374 21ZM693 76L709 111C808 66 881 34 926 15L926 15L908-25C891-16 847 4 776 37L776 37L693 76Z"/>
    <glyph glyph-name="e" unicode="&#37989;"
      horiz-adv-x="1000" vert-adv-y="1172"
      d="M395 562L369 601C450 677 515 761 562 853L562 853L606 834C590 805 579 786 573 777L573 777L820 777L820 738L762 659L900 659L900 395L441 395L441 607L395 562ZM242 354L242 59L391 88L394 40L287 21C119-10 39-24 47-23L47-23L39 23L197 51L197 354L60 354L60 398L197 398L197 519L112 519L112 553C94 529 78 510 65 495L65 495L31 529C68 569 104 618 140 677C175 735 202 789 219 839L219 839L265 824C263 819 257 805 248 783L248 783C271 762 318 719 388 652L388 652L356 617L312 660L229 741C197 678 161 619 120 564L120 564L355 564L355 519L242 519L242 398L380 398L380 354L242 354ZM706 659L763 738L548 738C527 707 507 680 488 659L488 659L706 659ZM648 545L648 621L487 621L487 545L648 545ZM693 621L693 545L855 545L855 621L693 621ZM648 432L648 509L487 509L487 432L648 432ZM855 509L693 509L693 432L855 432L855 509ZM459 383L497 369C487 345 474 318 459 289C444 260 429 235 416 214L416 214L382 234C395 255 408 279 423 307C438 335 450 360 459 383L459 383ZM781 278L744 268L730 305C716 340 707 362 704 370L704 370L740 382C755 348 769 313 781 278L781 278ZM633 274L595 265C586 299 576 335 564 373L564 373L602 381L620 318L633 274ZM842 365L880 381C914 321 941 271 962 230L962 230L926 212C901 261 873 312 842 365L842 365ZM308 123L271 140C292 190 315 248 338 313L338 313L376 299C361 256 339 198 308 123L308 123ZM65 299L103 312C118 271 140 211 167 132L167 132L127 119C116 156 95 216 65 299L65 299ZM506-22L506-73L459-73L459 252L880 252L880-73L833-73L833-22L506-22ZM506 132L833 132L833 214L506 214L506 132ZM833 95L506 95L506 15L833 15L833 95Z"/>
    <glyph glyph-name="f" unicode="&#37990;"
      horiz-adv-x="1000" vert-adv-y="1172"
      d="M364 82L364 62L365 40C326 33 272 24 205 13C138 2 84-8 45-15L45-15L38 27C55 29 104 37 187 52L187 52L187 365L56 365L56 405L187 405L187 530L101 530L101 563C90 548 79 534 66 519L66 519L38 555C71 594 103 639 132 690C161 741 185 791 202 840L202 840L244 828C239 815 235 803 231 794L231 794C285 737 332 688 371 645L371 645L340 613L214 754C185 691 149 629 105 569L105 569L332 569L332 530L229 530L229 405L349 405L349 365L229 365L229 59C297 70 342 77 364 82L364 82ZM564 546L564 468L656 468L656 432L388 432L388 780L656 780L656 744L564 744L564 673L645 673L645 546L564 546ZM690 424L666 457C711 483 750 513 781 546L781 546C746 595 718 660 695 741L695 741L674 741L674 777L919 777L919 740C908 697 895 660 882 629C868 598 851 569 831 544L831 544C864 506 906 474 957 447L957 447L937 411C883 440 839 474 806 513L806 513C777 482 738 453 690 424L690 424ZM428 673L527 673L527 744L428 744L428 673ZM878 741L735 741C755 673 779 618 806 577L806 577C835 617 859 672 878 741L878 741ZM428 639L428 579L607 579L607 639L428 639ZM527 468L527 546L428 546L428 468L527 468ZM873 376L873 60L415 60L415 376L873 376ZM458 283L831 283L831 341L458 341L458 283ZM57 304L95 316C116 255 135 194 150 133L150 133L111 121C97 178 79 239 57 304L57 304ZM302 128L264 140C289 209 306 267 315 314L315 314L355 303C337 236 319 177 302 128L302 128ZM831 248L458 248L458 191L831 191L831 248ZM831 157L458 157L458 99L831 99L831 157ZM337-74L322-31C361-22 404-11 451 2C498 15 539 26 572 37L572 37L591-1C560-12 520-25 471-39C422-53 377-65 337-74L337-74ZM697-7L714 33C786 16 866-6 954-31L954-31L937-73C904-62 863-50 816-37C769-24 729-14 697-7L697-7Z"/>
    <glyph glyph-name="g" unicode="&#37991;"
      horiz-adv-x="1000" vert-adv-y="1172"
      d="M880 725L423 725L423 646L383 646L383 766L633 766L601 848L645 862L655 838C658 829 663 819 668 806C673 793 678 780 684 766L684 766L920 766L920 644L880 644L880 725ZM367 94L369 72L372 47L307 36C130 5 41-11 40-11L40-11L33 33C64 38 116 47 189 61L189 61L189 368L59 368L59 412L189 412L189 531L90 531L90 562L59 527L30 561C66 600 100 645 132 696C163 747 188 796 206 845L206 845L254 833L236 792L369 645L338 614C326 628 296 662 249 715L249 715C244 721 238 727 233 734C227 740 221 746 216 752L216 752C183 688 144 629 100 575L100 575L335 575L335 531L231 531L231 412L354 412L354 368L231 368L231 68C309 82 354 91 367 94L367 94ZM888 569L765 569L765 513L724 513L724 569L583 569L583 514L541 514L541 569L408 569L408 611L541 611L541 681L583 681L583 611L724 611L724 681L765 681L765 611L888 611L888 569ZM896 131L938 123C937 89 935 58 933 29L933 29C930-2 922-23 909-34C895-45 871-52 837-54L837-54C826-55 811-55 792-55L792-55C774-55 760-55 749-54L749-54C720-52 699-46 687-35C675-25 669-6 669 21L669 21L669 148L595 148L590 108C582 67 563 33 533 4C502-25 453-53 385-81L385-81L363-41C408-24 442-7 468 9C493 25 511 42 523 59C534 76 542 96 547 120L547 120L550 148L432 148L432 491L856 491L856 148L712 148L712 34C712 16 715 4 722-1C729-6 742-10 762-11L762-11C771-12 785-12 804-12L804-12C818-12 828-12 835-11L835-11C857-9 872-5 880 2C887 8 891 21 892 40L892 40L893 62L896 131ZM476 388L812 388L812 452L476 452L476 388ZM476 351L476 286L812 286L812 351L476 351ZM300 136L260 147C290 225 311 284 323 324L323 324L362 311C342 248 321 189 300 136L300 136ZM49 308L88 321C112 257 132 197 149 140L149 140L109 126C94 178 74 239 49 308L49 308ZM812 186L812 249L476 249L476 186L812 186ZM852 47L825 24C811 38 790 60 762 91L762 91L743 111L770 135C781 124 795 109 811 92C827 75 841 60 852 47L852 47Z"/>
    <glyph glyph-name="h" unicode="&#37992;"
      horiz-adv-x="1000" vert-adv-y="1172"
      d="M627 694L591 694C581 647 570 600 557 552L557 552L647 552L647 511L341 511L341 552L423 552L392 694L356 694L356 736L484 736C471 782 461 816 454 837L454 837L494 848C499 835 511 797 528 736L528 736L627 736L627 694ZM180 845L222 829C221 824 216 810 208 786L208 786C217 775 225 767 232 760L232 760C291 695 327 654 339 639L339 639L306 610C263 664 225 709 192 745L192 745C174 700 153 657 130 615C106 573 81 536 56 505L56 505L22 536C53 575 84 624 114 683C144 742 166 796 180 845L180 845ZM901 135L940 126L939 99L936 41C935 16 930-3 923-15C916-28 904-36 889-40C873-44 849-46 818-46L818-46C795-46 778-46 766-45L766-45C741-44 722-41 709-35C696-30 686-20 681-7C676 6 673 26 673 51L673 51L673 482L854 482L854 568L678 568L678 838L719 838L719 737L929 737L929 695L719 695L719 606L895 606L895 444L714 444L714 367L895 367L895 329L714 329L714 254L895 254L895 217L714 217L714 142L895 142L895 105L714 105L714 60C714 35 718 19 725 12C732 5 749 0 774-1L774-1C785-2 799-2 817-2L817-2C840-2 857-1 868 2C879 4 886 9 891 17C896 24 898 37 899 55L899 55C900 79 901 106 901 135L901 135ZM551 694L430 694L461 552L517 552C527 589 538 637 551 694L551 694ZM331 70L333 47L335 27L48-22L43 23L169 42L169 357L53 357L53 399L169 399L169 519L97 519L97 560L294 560L294 519L209 519L209 399L313 399L313 357L209 357L209 49C267 58 308 65 331 70L331 70ZM421-57L381-57L381 432L602 432L602 26C602-3 597-24 588-37C578-50 560-57 534-57L534-57C525-57 506-55 476-52L476-52L468-10C487-14 506-16 525-16L525-16C540-16 549-12 554-5C559 2 561 14 562 31L562 31L562 131L421 131L421-57ZM421 301L562 301L562 392L421 392L421 301ZM276 120L238 132C259 195 276 252 291 305L291 305L327 294C314 244 297 186 276 120L276 120ZM46 292L84 304L137 128L99 114C82 183 64 243 46 292L46 292ZM562 262L421 262L421 170L562 170L562 262Z"/>
    <glyph glyph-name="i" unicode="&#37993;"
      horiz-adv-x="1000" vert-adv-y="1172"
      d="M366 90L367 63L369 43L331 37C310 33 261 24 184 12C107-1 62-10 47-13L47-13L41 31C58 33 109 42 193 58L193 58L193 353L58 353L58 396L193 396L193 518L113 518L113 552C94 524 78 503 66 490L66 490L35 525C68 564 102 614 135 674C168 733 194 789 211 842L211 842L254 828C249 813 243 797 236 780L236 780C282 737 331 687 383 630L383 630L352 597L233 723L218 739C189 674 155 615 118 560L118 560L330 560L330 518L232 518L232 396L352 396L352 353L232 353L232 65L366 90ZM945 370L679 370L679 17L953 17L953-27L365-27L365 17L636 17L636 370L388 370L388 412L636 412L636 748L377 748L377 791L939 791L939 748L679 748L679 412L945 412L945 370ZM580 488L415 488L415 668L580 668L580 488ZM736 668L908 668L908 488L736 488L736 668ZM452 634L452 525L542 525L542 634L452 634ZM871 525L871 634L774 634L774 525L871 525ZM291 120L257 135C285 200 307 258 324 309L324 309L359 296C352 273 341 244 328 209C314 174 302 144 291 120L291 120ZM63 293L99 307C125 242 147 182 165 126L165 126L127 113C112 163 90 223 63 293L63 293ZM580 99L415 99L415 284L580 284L580 99ZM736 284L908 284L908 99L736 99L736 284ZM452 248L452 135L542 135L542 248L452 248ZM871 135L871 248L774 248L774 135L871 135Z"/>
    <glyph glyph-name="j" unicode="&#37994;"
      horiz-adv-x="1000" vert-adv-y="1172"
      d="M885 633L462 633L462 408C462 329 460 265 456 215C452 164 444 116 431 70C418 24 398-25 371-76L371-76L329-55C356-6 375 40 388 83C401 126 409 171 414 219C418 267 420 330 420 409L420 409L420 670L619 670L619 841L662 841L662 770L895 770L895 733L662 733L662 670L931 670L931 632L907 560L863 567L885 633ZM356 79L358 54L360 34L274 19C134-6 59-19 49-20L49-20L42 24C70 27 122 35 197 50L197 50L197 356L62 356L62 399L197 399L197 520L113 520L113 549C104 536 88 516 67 491L67 491L36 524C71 563 105 613 140 673C175 733 201 788 219 839L219 839L261 827L244 784L288 738L385 636L355 605C329 634 286 679 226 742L226 742C195 677 161 618 123 563L123 563L339 563L339 520L240 520L240 399L361 399L361 356L240 356L240 57C305 69 343 76 356 79L356 79ZM893 505C892 488 889 476 884 468C879 460 870 454 859 451C848 448 831 445 808 444L808 444L753 443L697 444C669 445 649 451 637 460C624 469 618 488 618 515L618 515L618 524L486 510L482 546L618 560L618 612L661 612L661 564L820 580L822 545L661 528L661 527C661 508 664 496 671 491C677 485 690 481 709 480L709 480C720 479 735 479 755 479L755 479C776 479 791 479 801 480L801 480C816 481 827 483 834 485C841 487 845 491 848 496C850 501 851 509 852 520L852 520L852 553L895 542C894 537 894 531 894 524C894 517 894 510 893 505L893 505ZM875 402L875 202L530 202L530 402L875 402ZM570 317L683 317L683 371L570 371L570 317ZM723 371L723 317L834 317L834 371L723 371ZM302 126L266 141C285 186 308 244 335 315L335 315L371 301C362 272 339 214 302 126L302 126ZM67 300L103 313C121 268 143 209 169 134L169 134L131 122C132 120 115 167 81 263L81 263L67 300ZM683 233L683 286L570 286L570 233L683 233ZM834 286L723 286L723 233L834 233L834 286ZM508 150L895 150L895 7L957 7L957-27L438-27L438 7L508 7L508 150ZM626 7L626 114L548 114L548 7L626 7ZM664 114L664 7L740 7L740 114L664 114ZM778 114L778 7L856 7L856 114L778 114Z"/>
    <glyph glyph-name="l" unicode="&#37996;"
      horiz-adv-x="1000" vert-adv-y="1172"
      d="M367 83L369 58L371 38C348 35 299 26 226 13C152 0 93-11 49-20L49-20L42 24L192 51L192 360L60 360L60 403L192 403L192 527L98 527L98 563C95 558 81 543 58 516L58 516L30 550C65 588 100 635 134 691C167 747 193 800 212 850L212 850L254 835L236 792C297 727 343 677 375 641L375 641L342 610C305 653 263 700 216 751L216 751C182 683 144 622 102 568L102 568L335 568L335 527L233 527L233 403L358 403L358 360L233 360L233 58L367 83ZM766 720L941 720L941 678L756 678C739 615 722 562 703 519L703 519L662 535C680 576 697 626 713 683C728 740 741 795 750 848L750 848L792 840C785 800 776 760 766 720L766 720ZM570 558L570 486L666 486L666 448L387 448L387 797L668 797L668 759L570 759L570 688L641 688L641 558L570 558ZM428 688L530 688L530 759L428 759L428 688ZM428 653L428 594L601 594L601 653L428 653ZM910 475L876 450C844 497 807 548 764 604L764 604L795 628C820 599 858 548 910 475L910 475ZM530 486L530 558L428 558L428 486L530 486ZM897 53L900 121L941 113C940 97 939 73 936 42L936 42C934 19 931 3 926-8C921-19 914-26 903-30C892-35 875-38 852-40L852-40C833-41 820-42 813-42L813-42C806-42 794-41 775-40L775-40C754-38 737-35 726-30C715-25 707-18 702-7C697 4 695 20 695 41L695 41L695 109L576 109L575 98C572 69 563 44 548 24C532 4 508-13 475-28C442-43 397-57 342-70L342-70L327-31C380-20 420-9 449 3C478 15 498 29 510 44C521 59 528 77 531 99L531 99L532 109L428 109L428 399L859 399L859 109L736 109L736 50C736 35 737 25 740 18C743 11 748 7 755 4C762 1 773-1 788-2L788-2C793-3 800-3 810-3L810-3C823-3 833-3 839-2L839-2C856 0 869 2 876 5C883 7 888 12 891 19C894 26 896 37 897 53L897 53ZM470 313L817 313L817 361L470 361L470 313ZM296 130L259 143C293 225 316 283 327 318L327 318L365 305C356 278 344 248 331 214C318 180 306 152 296 130L296 130ZM58 300L96 315C127 234 149 175 162 136L162 136L123 123C98 194 77 253 58 300L58 300ZM470 278L470 229L817 229L817 278L470 278ZM817 144L817 194L470 194L470 144L817 144Z"/>
    <glyph glyph-name="m" unicode="&#37997;"
      horiz-adv-x="1000" vert-adv-y="1172"
      d="M231 786C301 718 346 673 367 651L367 651L334 619L302 653L213 744C186 683 153 623 115 566L115 566L328 566L328 522L234 522L234 401L347 401L347 357L234 357L234 62L350 86L353 42L313 34C162 3 74-15 47-21L47-21L39 23L190 53L190 357L57 357L57 401L190 401L190 522L104 522L104 550C87 526 74 508 63 496L63 496L35 531C66 569 98 617 129 676C160 734 184 788 201 838L201 838L245 825C242 816 238 803 231 786L231 786ZM393 780L619 780L619 534L434 534L434-63L393-63L393 780ZM689 534L689 780L916 780L916 40C916 2 911-24 900-38C889-53 868-60 839-60L839-60C811-61 780-59 746-55L746-55L739-14C768-19 798-21 831-21L831-21C848-21 859-16 866-6C873 4 876 22 876 47L876 47L876 534L689 534ZM434 674L582 674L582 743L434 743L434 674ZM727 674L876 674L876 743L727 743L727 674ZM582 640L434 640L434 570L582 570L582 640ZM876 640L727 640L727 570L876 570L876 640ZM817 55L797 23C755 54 714 81 675 105L675 105L675-45L635-45L635 155C598 98 548 45 484-4L484-4L465 31C496 52 523 74 546 97C569 120 591 145 610 173L610 173L499 173L499 367L635 367L635 428L474 428L474 465L635 465L635 522L675 522L675 465L835 465L835 428L675 428L675 367L811 367L811 173L675 173L675 146C735 109 782 79 817 55L817 55ZM637 204L637 335L533 335L533 204L637 204ZM672 335L672 204L776 204L776 335L672 335ZM552 304L576 318C577 317 583 305 595 283L595 283C598 276 602 269 607 261C612 252 616 244 621 236L621 236L596 223C587 242 573 269 552 304L552 304ZM710 221L687 236C700 256 716 283 733 318L733 318L757 305C739 268 723 240 710 221L710 221ZM63 300L98 313L115 265C120 251 127 229 138 200C148 171 155 148 160 131L160 131L124 120C108 174 88 234 63 300L63 300ZM294 124L260 137C279 188 299 246 319 312L319 312L354 301C347 279 330 229 303 151L303 151L294 124Z"/>
    <glyph glyph-name="n" unicode="&#37998;"
      horiz-adv-x="1000" vert-adv-y="1172"
      d="M335 83L337 61L339 40C316 37 286 32 249 26C212 19 179 13 148 8L148 8C122 3 87-3 44-10L44-10L39 33C46 34 56 35 68 38C80 40 93 42 108 44L108 44C120 47 131 49 142 51C153 52 162 54 171 55L171 55L171 368L50 368L50 411L171 411L171 531L95 531L95 572C82 553 69 536 54 519L54 519L25 552C58 590 90 637 121 692C152 747 175 798 190 847L190 847L232 833L217 793C280 727 325 678 350 647L350 647L318 616C276 666 236 711 199 752L199 752C170 687 135 627 95 572L95 572L305 572L305 531L211 531L211 411L324 411L324 368L211 368L211 61C284 74 325 81 335 83L335 83ZM586 704L586 630L546 630L546 704L390 704L390 743L546 743L546 835L586 835L586 743L744 743L744 835L784 835L784 743L956 743L956 704L784 704L784 647L744 647L744 704L586 704ZM893 592L947 592L947 553L733 553L733 487L906 487L906 187L866 187L866 243L733 243L733 188L694 188L694 243L566 243L566 187L528 187L528 487L694 487L694 553L504 553L504 592L694 592L694 643L733 643L733 592L853 592L830 663L865 676L893 592ZM510 514L481 481L363 605L393 636C416 613 455 572 510 514L510 514ZM486 334L455 301C399 362 361 404 340 425L340 425L370 456C381 445 411 414 459 363L459 363L486 334ZM566 381L694 381L694 451L566 451L566 381ZM733 381L866 381L866 451L733 451L733 381ZM694 347L566 347L566 277L694 277L694 347ZM866 347L733 347L733 277L866 277L866 347ZM281 131L246 145C269 214 287 271 300 317L300 317L337 305C316 234 298 176 281 131L281 131ZM45 301L81 315C103 249 121 190 136 139L136 139L98 126C86 176 68 234 45 301L45 301ZM403-66L360-54L438 243L461 236L480 231L403-66ZM847 149L957 149L957 111L847 111L847 31C847-1 841-24 829-37C817-51 795-58 762-58L762-58C742-58 716-56 684-52L684-52L677-12C698-17 722-19 749-19L749-19C772-19 788-15 796-7C803 1 807 15 807 35L807 35L807 111L579 111L680 21L656-10L550 85L571 111L486 111L486 149L807 149L807 200L847 200L847 149Z"/>
    <glyph glyph-name="o" unicode="&#37999;"
      horiz-adv-x="1000" vert-adv-y="1172"
      d="M329 83L331 61L333 41C298 35 251 27 192 16C132 5 84-5 49-12L49-12L43 30C60 32 103 40 172 53L172 53L172 363L52 363L52 406L172 406L172 526L98 526L98 562L62 512L32 543C63 582 92 629 121 685C149 741 171 794 186 844L186 844L227 833C224 824 220 810 213 791L213 791C267 736 310 689 343 650L343 650L311 620C286 653 248 696 197 749L197 749C169 682 137 622 101 567L101 567L304 567L304 526L213 526L213 406L323 406L323 363L213 363L213 61C283 74 322 81 329 83L329 83ZM916 159L953 144C950 120 947 94 942 66C937 37 933 15 929 0L929 0C922-27 915-46 907-56C898-66 888-71 876-71L876-71C861-71 846-63 833-47C819-32 806-4 795 37L795 37C789 55 784 72 781 89L781 89C747 32 704-25 652-82L652-82L619-54C641-31 662-7 681 17L681 17L318-30L312 13L447 29L447 146L341 146L341 184L447 184L447 274L353 274L353 310L447 310L447 397L346 397L346 434L447 434L447 529L338 529L338 573L728 573C724 656 721 744 719 839L719 839L760 839C763 724 767 635 770 573L770 573L946 573L946 529L772 529C778 404 787 299 799 214L799 214C828 284 853 370 874 473L874 473L913 463C899 396 884 338 869 287C853 236 834 189 811 144L811 144C818 105 827 69 838 36L838 36C850 1 862-17 874-17L874-17C879-17 884-14 887-7C890-1 893 11 897 30L897 30C900 47 904 67 907 91C910 114 913 137 916 159L916 159ZM534 583L504 610C555 677 587 749 602 828L602 828L640 821C632 785 623 755 614 732L614 732C634 709 656 682 680 651L680 651L700 626L672 599C645 634 621 665 598 692L598 692C581 654 559 618 534 583L534 583ZM449 709C430 666 406 626 377 589L377 589L348 618C374 651 395 684 410 717C425 750 437 786 445 826L445 826L484 819C477 788 470 764 464 748L464 748L532 672L504 643L449 709ZM926 653L893 629C856 687 824 733 797 768L797 768L827 793C840 777 856 755 876 727C895 698 912 674 926 653L926 653ZM562 43L562 529L486 529L486 34L562 43ZM690 29C721 70 748 110 769 149L769 149C752 242 739 368 730 529L730 529L600 529L600 434L706 434L706 397L600 397L600 310L700 310L700 274L600 274L600 184L713 184L713 146L600 146L600 48L690 59L690 29ZM276 129L240 141C260 197 278 254 295 313L295 313L332 302C315 246 297 188 276 129L276 129ZM47 299L82 311C101 256 119 197 137 134L137 134L99 123C89 166 72 224 47 299L47 299Z"/>
    <glyph glyph-name="p" unicode="&#38000;"
      horiz-adv-x="1000" vert-adv-y="1172"
      d="M636 840L682 840C715 793 757 747 808 704C859 661 914 623 974 590L974 590L956 545C895 579 839 618 788 662C737 706 694 751 659 798L659 798C591 705 496 624 375 553L375 553L356 598C469 661 563 742 636 840L636 840ZM233 346L233 46C294 58 341 67 372 74L372 74L374 27L48-37L42 8L191 38L191 346L55 346L55 390L191 390L191 510L107 510L107 546C95 529 81 511 64 490L64 490L32 526C65 565 98 614 132 673C165 732 190 785 207 833L207 833L250 820L231 771C254 750 302 706 374 638L374 638L342 605C312 636 269 678 213 731L213 731C184 667 150 608 113 555L113 555L339 555L339 510L233 510L233 390L363 390L363 346L233 346ZM526 609L526 649L789 649L789 609L526 609ZM549 540L549 355L401 355L401 540L549 540ZM585 540L731 540L731 355L585 355L585 540ZM914 540L914 355L767 355L767 540L914 540ZM514 391L514 503L436 503L436 391L514 391ZM696 391L696 503L619 503L619 391L696 391ZM880 391L880 503L801 503L801 391L880 391ZM60 287L96 301C121 237 144 177 163 120L163 120L123 107C107 160 86 220 60 287L60 287ZM292 113L257 128C286 198 308 256 322 301L322 301L360 289C347 250 325 191 292 113L292 113ZM457-62L417-62L417 290L902 290L902 24C902-5 897-27 888-40C879-54 863-61 842-61L842-61C823-61 805-60 789-57L789-57L780-14C796-17 812-19 827-20L827-20C840-20 849-16 854-8C859 0 862 13 862 32L862 32L862 102L752 102L752-39L712-39L712 102L605 102L605-39L565-39L565 102L457 102L457-62ZM457 143L565 143L565 249L457 249L457 143ZM712 249L605 249L605 143L712 143L712 249ZM752 249L752 143L862 143L862 249L752 249Z"/>
    <glyph glyph-name="q" unicode="&#38001;"
      horiz-adv-x="1000" vert-adv-y="1172"
      d="M427 557L427 636L389 606L370 645C408 673 443 705 476 740C509 775 536 810 559 845L559 845L599 827C586 806 572 786 558 769L558 769L817 769L817 735L751 679L889 679L889 557L427 557ZM363 85L365 61L368 37L55-17L47 27L186 53L186 363L59 363L59 407L186 407L186 527L108 527L108 555C91 530 76 511 63 497L63 497L33 529C66 568 98 618 130 677C162 736 186 791 202 842L202 842L249 834L232 787C291 725 332 681 356 654L356 654L326 621C285 668 248 710 214 746L214 746C187 683 154 624 117 569L117 569L333 569L333 527L228 527L228 407L355 407L355 363L228 363L228 60L363 85ZM758 735L530 735C511 714 493 695 476 679L476 679L693 679L758 735ZM473 647L473 588L844 588L844 647L473 647ZM882 528L891 497C871 491 843 484 808 475C773 466 740 458 709 451L709 451C710 434 713 422 720 417C726 412 738 408 756 407L756 407C779 406 794 405 802 405L802 405C807 405 821 406 844 407L844 407C867 408 883 412 891 418C898 423 902 435 903 454L903 454C905 473 905 489 904 504L904 504L943 495C943 486 942 468 940 442L940 442C939 423 935 410 931 401C926 392 917 385 906 382C894 378 876 375 853 374L853 374C840 373 821 373 798 373L798 373C775 373 756 373 742 374L742 374C715 375 696 381 685 391C674 400 668 419 668 447L668 447L668 540L709 540L709 484C772 497 830 512 882 528L882 528ZM427 415L427 539L468 539L468 503L636 503L636 472L468 472L468 407L635 436L637 403C515 384 441 370 416 361L416 361L405 395C420 402 427 408 427 415L427 415ZM917 101L956 92C956 54 955 27 953 11L953 11C951-9 947-24 940-33C933-42 924-49 912-52C899-55 881-58 857-59L857-59C832-60 814-61 803-61L803-61C792-61 769-60 736-59L736-59C707-58 687-52 676-42C665-32 659-13 659 14L659 14L659 103C641 66 608 33 561 4C514-25 444-54 353-81L353-81L335-40C416-17 478 6 521 30C564 53 594 79 612 108L612 108L420 108L420 205C406 194 391 183 375 172L375 172L351 207C391 233 428 262 463 293C497 324 525 354 546 385L546 385L583 365C582 364 574 353 557 333L557 333L816 333L816 299L750 244L902 244L902 108L702 108L702 24C702 5 705-7 712-13C718-19 730-23 749-24L749-24C774-25 792-26 802-26L802-26C813-26 829-25 852-24L852-24C877-23 893-19 901-13C908-8 913 5 914 24L914 24C916 48 917 74 917 101L917 101ZM292 129L256 143C268 171 280 202 293 236C306 270 316 298 323 321L323 321L359 306C352 283 341 254 328 219C314 183 302 153 292 129L292 129ZM59 306L96 320C127 242 149 181 162 137L162 137L124 123C114 154 92 215 59 306L59 306ZM755 299L526 299C511 283 492 265 467 244L467 244L690 244L755 299ZM464 212L464 141L627 141C634 162 638 185 639 212L639 212L464 212ZM673 141L859 141L859 212L683 212C682 185 678 162 673 141L673 141ZM862 30L838 3L744 77L767 103C774 98 793 83 826 58L826 58C839 47 851 38 862 30L862 30Z"/>
    <glyph glyph-name="r" unicode="&#38002;"
      horiz-adv-x="1000" vert-adv-y="1172"
      d="M698 750L955 750L955 707L386 707L386 750L645 750L604 840L651 852C660 833 676 799 698 750L698 750ZM239 350L239 29C270 33 314 39 370 47L370 47L372 0C239-17 130-31 45-44L45-44L40 5C57 6 101 11 172 20L172 20L194 23L194 350L57 350L57 395L194 395L194 503L113 503L113 546C101 529 86 509 67 486L67 486L36 520C69 559 102 608 135 667C168 726 192 780 209 830L209 830L256 819C253 811 251 804 248 798C245 791 243 785 241 779L241 779C252 768 264 755 277 742C290 728 304 714 319 699L319 699C344 672 366 649 386 629L386 629L351 594C318 633 275 680 222 737L222 737C195 675 159 613 115 550L115 550L341 550L341 503L239 503L239 395L367 395L367 350L239 350ZM802 72C823 55 847 40 873 28C899 15 931 4 968-7L968-7L951-52C900-35 859-17 827 2C794 21 765 45 739 73C713 100 683 138 648 187L648 187L640 187C613 162 581 137 545 114L545 114L545-16L607 10C643 26 670 38 689 45L689 45L694 2C625-24 569-47 528-66L528-66C519-69 510-75 501-82L501-82L479-46C487-40 493-35 496-30C499-26 501-21 501-15L501-15L501 88C467 69 427 52 382 35L382 35L364 77C444 102 514 139 574 187L574 187L370 187L370 224L532 224L532 292L411 292L411 330L532 330L532 399L394 399L394 435L532 435L532 500L419 500L419 645L627 645L627 500L577 500L577 435L733 435L733 500L686 500L686 645L896 645L896 500L779 500L779 435L922 435L922 399L779 399L779 330L906 330L906 292L779 292L779 224L950 224L950 187L696 187C725 149 750 120 771 99L771 99C804 122 841 149 881 182L881 182L909 148C882 126 846 101 802 72L802 72ZM589 534L589 611L457 611L457 534L589 534ZM858 534L858 611L724 611L724 534L858 534ZM733 330L733 399L577 399L577 330L733 330ZM304 110L267 122C278 148 289 178 302 213C315 248 324 276 331 299L331 299L370 287C363 264 352 234 339 199C326 163 314 133 304 110L304 110ZM57 285L95 298C119 234 140 173 158 116L158 116L119 103C89 195 68 256 57 285L57 285ZM733 224L733 292L577 292L577 224L733 224Z"/>
    <glyph glyph-name="s" unicode="&#38003;"
      horiz-adv-x="1000" vert-adv-y="1172"
      d="M885 721L441 721L441 649L399 649L399 761L650 761C638 793 628 817 619 833L619 833L660 848L696 761L928 761L928 649L885 649L885 721ZM373 53L374 28L374 9L47-36L42 10L195 30L195 353L58 353L58 398L195 398L195 513L110 513L110 543C92 518 77 499 66 486L66 486L37 518C70 557 104 608 137 669C170 730 195 785 212 835L212 835L255 823C246 798 241 784 239 779L239 779L382 625L348 594C323 623 298 652 271 681L271 681C231 726 214 744 221 737L221 737C194 677 160 617 121 558L121 558L346 558L346 513L237 513L237 398L364 398L364 353L237 353L237 35L373 53ZM693-3C736-6 778-8 819-8L819-8C859-8 905-6 956-3L956-3L949-44C911-47 869-48 822-48L822-48C775-48 733-47 695-44L695-44C643-41 601-34 569-23C536-12 507 8 482 39L482 39C460-4 426-42 380-75L380-75L350-42C387-17 415 10 434 39C453 68 468 108 479 157L479 157L521 147C515 124 508 101 501 80L501 80C520 55 540 37 561 26C582 15 609 7 642 2L642 2L642 174L491 174L491 294C462 273 429 254 392 236L392 236L372 276C415 295 450 314 475 333C500 351 522 373 541 399L541 399L389 399L389 435L547 435L547 498L428 498L428 533L547 533L547 596L421 596L421 631L547 631L547 691L588 691L588 631L734 631L734 691L776 691L776 631L898 631L898 596L776 596L776 533L891 533L891 498L776 498L776 435L954 435L954 399L785 399C823 347 882 307 963 278L963 278L946 237C908 251 872 270 839 294L839 294L839 174L685 174L685 104L893 104L893 68L685 68L685-2C687-3 690-3 693-3L693-3ZM734 533L734 596L588 596L588 533L734 533ZM734 435L734 498L588 498L588 435L734 435ZM736 399L589 399C568 366 544 338 516 314L516 314L813 314C781 341 755 370 736 399L736 399ZM61 292L98 306C124 237 146 176 164 123L164 123L126 110C101 188 79 249 61 292L61 292ZM302 117L266 130C277 157 290 187 303 222C316 256 325 284 332 306L332 306L369 294C362 272 352 243 339 208C326 173 313 142 302 117L302 117ZM797 210L797 277L533 277L533 210L797 210Z"/>
    <glyph glyph-name="t" unicode="&#38004;"
      horiz-adv-x="1000" vert-adv-y="1172"
      d="M851 733L851 820L892 820L892 698L426 698L426 820L467 820L467 733L639 733L639 850L681 850L681 733L851 733ZM233 55L372 79L375 55L377 33L48-21L41 21L192 47L192 359L56 359L56 402L192 402L192 523L104 523L104 546C96 534 83 517 64 494L64 494L34 526C67 566 101 616 134 675C167 734 192 789 208 838L208 838L254 830C248 813 242 797 236 784L236 784C245 775 286 732 358 656L358 656L376 637L346 605C287 669 245 715 218 742L218 742C185 675 152 616 117 565L117 565L340 565L340 523L233 523L233 402L362 402L362 359L233 359L233 55ZM702 403L702 344L939 344L939 311L431 311L431 523C412 496 390 470 364 443L364 443L343 483C372 512 398 544 421 579C444 614 463 650 477 685L477 685L516 671C511 659 502 641 490 617L490 617L668 617C661 633 652 651 642 670L642 670L680 683L711 617L923 617L923 583L702 583L702 524L899 524L899 492L702 492L702 434L899 434L899 403L702 403ZM471 583L471 524L660 524L660 583L471 583ZM471 492L471 434L660 434L660 492L471 492ZM660 344L660 403L471 403L471 344L660 344ZM296 127L260 139C283 195 306 254 328 317L328 317L365 305C357 282 346 252 332 216C318 180 306 150 296 127L296 127ZM60 302L97 316C127 238 149 177 164 133L164 133L126 120C111 165 89 226 60 302L60 302ZM448-70L406-70L406 258L912 258L912 13C912-8 909-24 904-35C899-46 889-54 874-58C859-63 838-65 809-64L809-64C787-63 768-61 753-58L753-58L746-18C765-23 786-26 809-26L809-26C834-26 851-22 859-14C866-6 870 8 870 28L870 28L870 224L448 224L448-70ZM601 214L622 185C606 173 584 158 555 141C526 123 499 107 473 93L473 93L454 125C479 138 506 153 535 170C564 187 586 202 601 214L601 214ZM865 123L845 93C789 132 742 163 705 186L705 186L725 214C762 192 809 162 865 123L865 123ZM554 14L554 129L765 129L765 14L554 14ZM589 95L589 44L728 44L728 95L589 95Z"/>
    <glyph glyph-name="u" unicode="&#38005;"
      horiz-adv-x="1000" vert-adv-y="1172"
      d="M732 844L775 844L775 757L951 757L951 716L775 716L775 648L732 648L732 716L567 716L567 648L525 648L525 716L375 716L375 757L525 757L525 844L567 844L567 757L732 757L732 844ZM235 58L371 82L374 58L376 34L45-21L38 24L191 51L191 360L56 360L56 405L191 405L191 524L98 524L98 537C83 517 72 503 65 494L65 494L34 527C67 566 99 615 132 674C165 733 190 788 207 839L207 839L252 830L235 786C278 742 326 693 377 638L377 638L346 606C299 659 256 705 217 744L217 744C188 681 155 621 118 566L118 566L341 566L341 524L235 524L235 405L363 405L363 360L235 360L235 58ZM409 478L409 623L620 623L620 478L409 478ZM899 478L688 478L688 623L899 623L899 478ZM447 589L447 514L582 514L582 589L447 589ZM725 589L725 514L860 514L860 589L725 589ZM914 110L717 110L717 26L945 26L945-10L490-10L490-76L447-76L447 290C424 256 403 228 382 206L382 206L352 239C379 269 406 304 431 344C456 383 478 424 497 467L497 467L537 453C528 432 516 408 502 382L502 382L690 382C670 421 656 446 648 459L648 459L684 479C692 466 704 445 720 416L720 416C723 411 727 405 730 400C733 394 736 388 739 382L739 382L932 382L932 344L717 344L717 263L914 263L914 228L717 228L717 146L914 146L914 110ZM490 344L490 263L675 263L675 344L490 344ZM299 127L263 138C274 167 286 198 298 232C309 266 319 295 326 318L326 318L363 307C356 283 346 253 333 217C320 180 309 150 299 127L299 127ZM64 305L100 316C127 241 147 179 160 131L160 131L122 121C114 152 95 213 64 305L64 305ZM490 228L490 146L675 146L675 228L490 228ZM675 26L675 110L490 110L490 26L675 26Z"/>
    <glyph glyph-name="v" unicode="&#38006;"
      horiz-adv-x="1000" vert-adv-y="1172"
      d="M311 83L313 57L314 41L49-11L43 30L128 46L166 54L166 366L51 366L51 406L166 406L166 529L92 529L92 560C81 543 70 527 59 512L59 512L31 543C61 583 90 631 118 687C145 742 166 795 179 844L179 844L220 832L206 791C260 732 304 681 339 640L339 640L309 610C265 665 226 712 191 751L191 751C163 684 131 622 96 567L96 567L289 567L289 529L205 529L205 406L309 406L309 366L205 366L205 62L311 83ZM560 703L560 624L518 624L518 703L339 703L339 743L518 743L518 837L560 837L560 743L708 743L708 837L749 837L749 743L950 743L950 703L749 703L749 626L708 626L708 703L560 703ZM926 145L960 135C953 77 945 34 938 6L938 6C933-19 926-35 917-44C908-53 897-57 885-57L885-57C864-57 847-40 832-7L832-7C817 26 805 68 795 119L795 119C785 102 769 80 748 51L748 51L720 81C742 109 764 142 785 179L785 179C777 238 770 320 765 423L765 423L761 533L492 533L492 334C492 262 490 203 485 157C480 111 472 69 460 32C448-5 431-44 408-84L408-84L373-64C403-14 424 34 436 79C447 124 454 184 455 257L455 257L402 257C401 210 398 172 392 144C385 115 372 82 353 44L353 44L322 63C339 98 351 129 358 157C365 184 368 218 368 257L368 257L329 257L329 300L456 300L456 317L456 393L363 393L363 613L399 613L399 435L456 435L456 574L760 574L758 642L799 642L800 574L884 574C876 601 865 633 851 669L851 669L884 680L891 661C906 622 916 593 921 574L921 574L946 574L946 533L801 533C801 501 801 477 802 461L802 461C805 387 810 315 818 244L818 244C846 308 868 381 885 463L885 463L921 452C908 395 895 345 880 300C865 255 848 213 827 174L827 174C834 120 844 76 857 42L857 42C864 25 869 13 874 6C879-1 884-4 889-4L889-4C898-4 905 10 912 38L912 38C917 66 922 102 926 145L926 145ZM730 318L730 142L677 142L677 26L755 26L755-13L539-13L539 461L740 461L740 421L677 421L677 318L730 318ZM572 318L644 318L644 421L572 421L572 318ZM265 129L231 141C246 190 263 247 282 313L282 313L318 302C299 235 282 177 265 129L265 129ZM46 299L81 311C101 252 118 193 132 135L132 135L95 124C81 180 65 238 46 299L46 299ZM572 282L572 179L696 179L696 282L572 282ZM644 26L644 142L572 142L572 26L644 26Z"/>
    <glyph glyph-name="w" unicode="&#38007;"
      horiz-adv-x="1000" vert-adv-y="1172"
      d="M349 91L354 44C237 16 138-7 56-24L56-24L47 23L89 32C134 41 169 49 192 54L192 54L192 356L65 356L65 400L192 400L192 520L110 520L110 551C98 534 83 515 66 494L66 494L33 528C66 567 99 617 132 676C165 735 190 790 207 840L207 840L250 826C241 801 236 787 234 782L234 782C261 756 308 710 373 645L373 645L342 610C322 632 280 675 216 739L216 739C187 674 154 616 119 564L119 564L332 564L332 520L236 520L236 400L342 400L342 356L236 356L236 64L349 91ZM363 446L362 487L463 490L463 742L378 742L378 783L926 783L926 742L837 742L837 502L944 505L944 465L837 462L837 410L790 410L790 460L363 446ZM510 742L510 684L790 684L790 742L510 742ZM510 647L510 590L790 590L790 647L510 647ZM790 554L510 554L510 492L790 500L790 554ZM958 67L960 28L895 22L895-73L855-73L855 18L641-1L638 37L605 31L605-73L566-73L566 24C464 8 393-4 354-12L354-12L347 28L403 37L403 341L368 341L368 381L636 381L636 341L605 341L605 72L648 80L651 39L686 42L686 341L657 341L657 381L949 381L949 341L895 341L895 61L958 67ZM441 273L566 273L566 341L441 341L441 273ZM724 272L855 272L855 341L724 341L724 272ZM312 119L274 127C287 182 299 243 310 309L310 309L348 302C345 279 340 250 333 215C326 180 319 148 312 119L312 119ZM70 297L108 307C128 228 142 167 150 124L150 124L110 115C100 170 87 231 70 297L70 297ZM566 164L566 234L441 234L441 164L566 164ZM855 163L855 233L724 233L724 163L855 163ZM566 126L441 126L441 43L566 65L566 126ZM855 125L724 125L724 46L855 58L855 125Z"/>
    <glyph glyph-name="x" unicode="&#38008;"
      horiz-adv-x="1000" vert-adv-y="1172"
      d="M348 98L351 77L355 55L51-20L42 22L184 57L184 356L61 356L61 398L184 398L184 520L109 520L109 559C89 531 74 511 63 498L63 498L34 527C67 568 100 618 133 677C166 736 190 790 207 839L207 839L247 829L230 782C279 735 326 687 371 639L371 639L340 609C309 642 267 685 212 740L212 740C185 681 152 622 112 563L112 563L323 563L323 520L226 520L226 398L333 398L333 356L226 356L226 68L348 98ZM435 556L435 788L859 788L859 556L435 556ZM476 688L627 688L627 752L476 752L476 688ZM668 752L668 688L818 688L818 752L668 752ZM627 592L627 655L476 655L476 592L627 592ZM818 655L668 655L668 592L818 592L818 655ZM376 263L376 488L616 488L616 263L376 263ZM915 488L915 263L671 263L671 488L915 488ZM411 392L477 392L477 454L411 454L411 392ZM512 454L512 392L581 392L581 454L512 454ZM706 392L776 392L776 454L706 454L706 392ZM811 454L811 392L879 392L879 454L811 454ZM477 298L477 358L411 358L411 298L477 298ZM581 358L512 358L512 298L581 298L581 358ZM776 298L776 358L706 358L706 298L776 298ZM879 358L811 358L811 298L879 298L879 358ZM288 121L251 131C267 176 285 235 306 309L306 309L343 300C323 228 305 168 288 121L288 121ZM64 295L101 306C127 233 147 173 160 125L160 125L122 113C112 150 93 210 64 295L64 295ZM900 127L665 127L665 21L946 21L946-19L341-19L341 21L623 21L623 127L387 127L387 167L623 167L623 242L665 242L665 167L900 167L900 127Z"/>
    <glyph glyph-name="y" unicode="&#38009;"
      horiz-adv-x="1000" vert-adv-y="1172"
      d="M879 708L437 708L437 611L390 611L390 748L637 748L598 839L644 850L687 748L926 748L926 611L879 611L879 708ZM380 644L347 611C327 632 285 672 221 733L221 733C192 673 158 614 118 556L118 556L343 556L343 512L236 512L236 395L365 395L365 350L236 350L236 55L376 83L378 35C227 9 116-11 45-26L45-26L38 20C91 29 125 35 139 38L139 38L192 47L192 350L59 350L59 395L192 395L192 512L110 512L110 545C97 526 82 508 66 489L66 489L35 524C70 564 103 612 136 669C169 726 194 780 212 831L212 831L258 818C255 812 253 805 250 798C247 791 244 783 240 774L240 774C277 741 324 697 380 644L380 644ZM599 677L618 640C549 603 488 575 433 555L433 555L418 593C479 615 539 643 599 677L599 677ZM684 639L698 676C769 648 834 621 895 594L895 594L878 557C864 563 816 583 733 618L733 618C725 621 717 625 709 629C700 632 692 636 684 639L684 639ZM678 538L894 538L894 321L413 321L413 528C443 531 479 536 521 545C563 553 599 561 629 569L629 569L637 534C613 527 584 520 551 513C517 506 486 500 458 497L458 497L458 446L626 446L626 414L458 414L458 354L850 354L850 414L683 414L683 446L850 446L850 505L678 505L678 538ZM58 293L94 307C116 253 138 194 161 131L161 131L122 118C109 160 87 218 58 293L58 293ZM300 122L263 136C274 159 286 188 299 221C312 254 323 283 331 307L331 307L369 294C360 268 349 240 337 209C324 178 312 149 300 122L300 122ZM939 108L973 94C971 79 968 59 963 35C958 10 954-10 951-25L951-25C942-58 927-75 905-75L905-75C893-75 882-70 871-59C860-49 852-32 846-9L846-9C828 50 818 153 815 302L815 302L856 302C857 163 867 65 884 6L884 6C889-13 897-23 907-23L907-23C915-23 921-13 925 8L925 8C930 37 935 70 939 108L939 108ZM455 299L455-10L584 39L588-1C563-8 512-28 434-59L434-59L410-72L394-34C402-29 407-24 411-19C414-15 415-10 415-5L415-5L415 299L455 299ZM661 298L661-11C669-8 684-2 707 6L707 6C752 23 780 34 792 38L792 38L797-1C782-6 756-14 721-27C685-40 660-50 646-57L646-57C639-60 629-64 618-71L618-71L602-34C609-28 614-23 617-19C619-15 620-10 620-4L620-4L620 298L661 298ZM474 244L490 274C503 269 531 255 573 233L573 233L599 220L582 187C543 208 507 227 474 244L474 244ZM803 218L787 187C740 212 705 230 680 243L680 243L695 273C729 256 765 238 803 218L803 218ZM473 129L490 160C515 148 551 129 598 104L598 104L582 73L561 84C511 110 482 125 473 129L473 129ZM680 127L696 158L726 143L804 102L789 72C730 103 693 121 680 127L680 127Z"/>
    <glyph glyph-name="z" unicode="&#38010;"
      horiz-adv-x="1000" vert-adv-y="1172"
      d="M237 57L372 80L374 59L377 34L48-21L41 23L194 49L194 360L59 360L60 403L194 403L194 524L101 524L101 538C92 525 80 510 67 494L67 494L37 527C70 566 102 615 135 674C168 733 192 788 209 839L209 839L254 830L237 786C278 745 325 695 378 638L378 638L348 606C292 667 249 713 219 744L219 744C190 681 157 621 120 566L120 566L343 566L343 524L237 524L237 403L365 403L365 360L237 360L237 57ZM415 463L415 792L622 792L622 463L415 463ZM698 463L698 792L905 792L905 463L698 463ZM737 692L866 692L866 755L737 755L737 692ZM454 692L583 692L583 754L454 754L454 692ZM583 596L583 658L454 658L454 596L583 596ZM737 596L866 596L866 658L737 658L737 596ZM583 562L454 562L454 501L583 501L583 562ZM866 562L737 562L737 501L866 501L866 562ZM720 31L934 31L934-7L484-7L484-71L442-71L442 282C420 252 398 225 376 200L376 200L349 234C382 271 409 306 429 338C449 369 470 409 493 458L493 458L533 442L520 416C517 411 514 404 511 396C507 388 502 379 497 370L497 370L687 370C681 380 666 404 643 442L643 442L683 458C695 441 713 411 738 370L738 370L923 370L923 330L720 330L720 256L906 256L906 219L720 219L720 145L906 145L906 108L720 108L720 31ZM484 330L484 256L679 256L679 330L484 330ZM301 127L265 138C283 185 304 244 328 317L328 317L365 307C342 238 321 178 301 127L301 127ZM67 305L102 316C131 233 151 172 162 131L162 131L126 120C108 181 88 243 67 305L67 305ZM484 219L484 145L679 145L679 219L484 219ZM679 31L679 108L484 108L484 31L679 31Z"/>
    <glyph glyph-name="{" unicode="&#38011;"
      horiz-adv-x="1000" vert-adv-y="1172"
      d="M358 493L337 525C388 578 425 639 449 708L449 708L360 708L360 744L451 744L451 841L488 841L488 744L558 744L558 708L488 708L488 662C530 620 561 587 580 564L580 564L554 539C544 552 522 578 488 616L488 616L488 462L451 462L451 633C427 580 396 533 358 493L358 493ZM742 706L742 744L817 744L817 841L855 841L855 744L942 744L942 706L855 706L855 701C902 640 939 589 966 549L966 549L937 525L855 648L855 463L817 463L817 643C798 598 774 561 745 530L745 530L722 560C761 601 791 650 812 706L812 706L742 706ZM220 63L338 88L341 65L344 44L45-16L38 25L179 55L179 357L59 357L59 400L179 400L179 520L101 520L101 553C84 528 71 509 60 495L60 495L30 526C61 565 92 615 123 674C154 733 176 787 190 836L190 836L233 825C230 816 226 802 219 783L219 783L246 755L354 640L322 610C299 639 259 683 202 742L202 742C175 680 144 620 107 562L107 562L313 562L313 520L220 520L220 400L333 400L333 357L220 357L220 63ZM572 654L551 682C572 695 597 713 627 737L627 737C592 768 568 789 554 800L554 800L575 824L652 758C675 777 699 800 724 825L724 825L747 800C718 771 695 750 678 735L678 735C713 704 734 685 741 678L741 678L719 653C689 682 667 702 653 714L653 714C625 691 598 671 572 654L572 654ZM569 486L548 514C578 534 605 554 629 574L629 574L570 633L592 653C607 640 620 627 632 615L632 615L653 595C673 614 690 631 703 646L703 646L725 625C710 607 694 590 676 573L676 573C702 548 726 525 747 502L747 502L723 478L652 551C627 528 599 507 569 486L569 486ZM944 382L763 382C786 346 814 313 848 283C882 252 920 226 963 204L963 204L943 166C896 193 852 225 813 262C774 299 742 339 717 382L717 382L607 382C590 356 571 331 548 306L548 306C595 308 632 310 659 313C686 315 716 319 751 324L751 324L757 287C727 283 702 280 681 278L681 278L681 208L834 208L834 171L681 171L681 105L931 105L931 66L681 66L681 30C681-3 674-27 661-40C647-54 623-61 588-61L588-61C568-61 543-59 514-54L514-54L506-16C538-21 564-24 584-24L584-24C606-24 621-19 628-10C635-1 639 16 639 39L639 39L639 66L384 66L384 105L639 105L639 171L484 171L484 208L639 208L639 274L585 271L548 269L545 303C497 250 438 202 367 158L367 158L346 196C438 251 509 313 558 382L558 382L383 382L383 421L583 421C594 441 604 462 613 485L613 485L652 475C647 459 639 441 629 421L629 421L944 421L944 382ZM279 124L244 137C272 211 292 269 304 311L304 311L341 299C318 232 298 173 279 124L279 124ZM59 298L95 310C119 241 138 182 153 132L153 132L115 121C110 143 102 171 91 205C80 239 69 270 59 298L59 298Z"/>
    <glyph glyph-name="|" unicode="&#38012;"
      horiz-adv-x="1000" vert-adv-y="1172"
      d="M231 784C304 707 354 653 380 622L380 622L346 592C316 629 271 679 212 741L212 741C185 678 152 618 113 561L113 561L328 561L328 517L229 517L229 397L338 397L338 354L229 354L229 57L281 68C313 74 334 78 343 81L343 81L345 35L277 22C244 15 202 7 152-3C101-13 68-20 51-24L51-24L43 23L184 49L184 354L62 354L62 397L184 397L184 517L107 517L107 552C95 535 81 517 64 496L64 496L34 531C66 569 97 616 128 673C159 730 182 783 199 834L199 834L245 824C244 820 239 807 231 784L231 784ZM415 593L415 788L932 788L932 593L415 593ZM578 633L578 747L460 747L460 633L578 633ZM620 633L730 633L730 747L620 747L620 633ZM771 747L771 633L888 633L888 747L771 747ZM630 187L595 173L581 211L441 182L420 176C404 172 396 170 396 170L396 170L386 213C395 215 404 221 411 230L411 230C428 251 458 299 499 374L499 374L422 356C411 355 398 352 382 348L382 348L370 390C376 391 380 393 383 395C386 396 389 400 394 405L394 405C404 418 419 445 438 484C457 523 474 557 488 586L488 586L523 565C481 479 451 422 434 393L434 393C473 402 502 409 521 413L521 413C544 454 564 491 581 524L581 524L615 502L601 476C596 467 576 430 540 363C503 296 474 248 452 219L452 219C477 225 515 235 566 248L566 248C551 285 541 310 536 321L536 321L569 336C578 313 587 292 596 271C605 250 612 232 617 219L617 219L630 187ZM845 34L964 34L964-7L705-7L705-73L664-73L664 372C650 345 634 320 617 295L617 295L593 331C637 396 672 477 697 574L697 574L736 563C726 527 715 493 703 461L703 461L828 461L821 483C815 504 807 529 798 556L798 556L835 568C851 524 862 488 869 461L869 461L950 461L950 419L845 419L845 319L938 319L938 279L845 279L845 181L938 181L938 140L845 140L845 34ZM705 419L705 319L807 319L807 419L705 419ZM65 297L102 309C127 236 147 176 160 129L160 129L122 118C116 141 107 171 96 206C85 241 74 271 65 297L65 297ZM284 123L248 135C258 160 269 189 281 223C292 257 301 286 308 309L308 309L345 297C324 234 304 176 284 123L284 123ZM705 279L705 181L807 181L807 279L705 279ZM555 140L591 151C604 114 620 62 638-5L638-5L601-15C584 48 569 99 555 140L555 140ZM389-59L351-47C360-21 370 11 381 49C391 87 398 119 403 144L403 144L440 136C435 111 428 78 418 39C407 0 398-33 389-59L389-59ZM807 34L807 140L705 140L705 34L807 34ZM477 136L514 139L519 85C526 17 529-23 530-35L530-35L491-38C490-10 486 38 480 105L480 105L477 136Z"/>
    <glyph glyph-name="}" unicode="&#38013;"
      horiz-adv-x="1000" vert-adv-y="1172"
      d="M397 408L369 435C390 450 406 464 417 476C428 488 436 502 441 519C446 536 450 558 451 587L451 587L376 587L376 625L518 625L518 706L439 706C430 684 421 661 410 638L410 638L375 653C388 679 400 708 411 740C422 772 431 801 437 828L437 828L474 819C469 798 462 773 452 744L452 744L518 744L518 843L556 843L556 744L642 744L642 706L556 706L556 625L643 625L643 587L585 587L585 497L605 507C636 524 655 534 660 536L660 536L667 501C653 495 637 488 619 479C601 470 585 461 571 454L571 454C569 453 563 449 552 440L552 440L535 469C541 474 545 479 547 482C549 485 550 488 550 492L550 492L550 587L488 587C485 540 478 505 466 482C453 458 430 433 397 408L397 408ZM384 85L385 40C291 20 195 0 97-19L97-19L48-29L43 17L194 46L194 357L58 357L58 402L194 402L194 521L108 521L108 549C92 527 78 510 67 497L67 497L36 530C69 569 103 618 136 677C169 736 194 790 211 840L211 840L257 830L241 789C255 776 290 742 347 685L347 685L368 664L335 633L223 746C192 679 157 619 120 566L120 566L351 566L351 521L238 521L238 402L371 402L371 357L238 357L238 55C281 63 330 73 384 85L384 85ZM950 625L950 587L837 587L837 502C837 490 839 482 843 478C846 473 853 471 864 471L864 471L884 471C895 471 903 473 907 478C911 482 913 490 914 502L914 502C915 519 916 538 916 558L916 558L947 550L944 491C943 470 938 455 931 448C923 440 909 436 889 436L889 436L848 436C832 436 820 440 813 448C806 456 802 469 802 488L802 488L802 587L746 587C744 544 737 510 724 486C711 461 689 438 658 415L658 415L633 441C661 460 681 480 692 501C703 521 709 550 710 587L710 587L661 587L661 625L775 625L775 706L700 706C692 681 683 658 673 637L673 637L638 651C650 676 661 704 671 736C680 767 688 798 694 827L694 827L730 821C723 789 716 763 711 744L711 744L775 744L775 840L813 840L813 744L937 744L937 706L813 706L813 625L950 625ZM866 405L866 84L441 84L441 405L866 405ZM485 309L821 309L821 370L485 370L485 309ZM65 300L102 314C125 251 146 189 164 129L164 129L125 117C113 158 93 219 65 300L65 300ZM307 123L270 138C301 213 322 272 335 313L335 313L374 300C351 233 328 174 307 123L307 123ZM821 276L485 276L485 215L821 215L821 276ZM821 181L485 181L485 120L821 120L821 181ZM367-74L351-33C389-20 430-5 475 14C519 32 556 49 585 65L585 65L603 27C571 10 533-8 488-27C443-46 403-62 367-74L367-74ZM699 24L716 61L778 36L942-31L925-73C825-29 750 3 699 24L699 24Z"/>
    <glyph glyph-name="~" unicode="&#38014;"
      horiz-adv-x="1000" vert-adv-y="1172"
      d="M532 761L651 761L651 725L351 725L351 761L486 761C481 776 472 804 459 843L459 843L502 854C512 829 522 798 532 761L532 761ZM644 640L637 677C644 679 650 681 655 683C659 684 663 687 666 690L666 690C678 701 698 723 726 758C753 792 776 822 794 848L794 848L827 824C808 797 788 771 767 744C745 717 727 696 712 683L712 683C752 688 788 693 820 699L820 699C849 732 870 756 881 771L881 771L914 747C895 721 866 688 829 647C791 606 760 575 737 555L737 555C768 560 810 569 864 580L864 580L839 622L875 641L947 516L912 497L883 547C804 532 750 523 723 518L723 518L695 513L664 507L655 549C670 552 681 556 686 560L686 560C699 569 732 603 786 661L786 661C739 653 703 648 677 645L677 645C672 644 668 644 663 643C658 642 651 641 644 640L644 640ZM105 644L78 640L69 677C76 679 82 681 87 683C92 685 96 687 99 690L99 690C110 701 129 723 156 757C182 791 203 820 218 845L218 845L252 823C238 802 220 776 197 748C174 719 155 697 142 684L142 684C172 687 206 691 244 698L244 698C273 733 292 757 302 770L302 770L335 746C319 723 291 690 252 647C213 603 184 573 165 556L165 556C221 564 263 571 291 577L291 577L264 630L297 648C321 605 343 562 364 519L364 519L328 502C320 520 313 534 307 545L307 545C235 531 173 521 121 514L121 514L95 510L85 549C101 552 112 556 117 560L117 560C133 573 164 606 211 660L211 660C166 652 130 647 105 644L105 644ZM391 642L391 677L610 677L610 642L391 642ZM610 595L610 563L391 563L391 595L610 595ZM611 519L611 373L391 373L391 519L611 519ZM572 406L572 488L429 488L429 406L572 406ZM276 471L311 485C327 454 345 413 365 363L365 363L327 349C320 368 311 390 301 415C291 440 283 458 276 471L276 471ZM669 323L629 338C638 357 647 382 658 411C668 440 676 464 681 483L681 483L719 472C714 453 707 428 697 397C686 366 677 342 669 323L669 323ZM857 467L891 481C900 464 912 442 925 413C938 384 949 359 957 339L957 339L922 323C898 381 876 429 857 467L857 467ZM101 480L140 471C133 450 124 424 114 394C103 363 93 339 85 322L85 322L46 336C55 356 66 381 77 410C88 439 96 462 101 480L101 480ZM242 342L203 338C198 388 193 432 187 471L187 471L225 477C233 426 239 381 242 342L242 342ZM823 340L785 336L781 368C776 408 770 443 765 472L765 472L803 477C806 461 810 439 815 410C819 381 822 358 823 340L823 340ZM734 225L734 194L524 194L524 131L862 131L862 94L763 94C757 78 744 45 723-5L723-5L926-5L926-42L73-42L73-5L273-5L258 40C246 75 240 93 239 94L239 94L138 94L138 131L477 131L477 194L265 194L265 222C201 201 129 182 50 165L50 165L38 206C225 244 371 294 477 356L477 356L532 356C585 325 646 297 715 274C783 251 865 230 961 212L961 212L949 170C875 185 803 203 734 225L734 225ZM501 324C445 290 374 258 288 229L288 229L722 229C635 257 561 289 501 324L501 324ZM477 94L285 94C296 59 307 26 318-5L318-5L477-5L477 94ZM718 94L524 94L524-5L676-5C689 20 703 53 718 94L718 94Z"/>
    <glyph glyph-name="" unicode="&#38015;"
      horiz-adv-x="1000" vert-adv-y="1172"
      d="M736 203L736 172L527 172L527 115L864 115L864 82L760 82C742 45 726 13 711-12L711-12L928-12L928-48L75-48L75-12L278-12C268 21 257 52 245 82L245 82L139 82L139 115L475 115L475 172L266 172L266 198C193 176 121 158 52 144L52 144L39 183C206 216 344 258 455 309L455 309L93 309L93 474C146 481 194 489 239 497L239 497L246 466C214 459 177 453 136 448L136 448L136 410L237 410L237 382L136 382L136 340L286 340L286 518L65 518L65 548L286 548L286 592L92 592L92 622L214 622L194 679L55 679L55 710L225 710L225 835L266 835L266 710L352 710L352 835L393 835L393 710L559 710L559 679L417 679C412 663 405 644 396 622L396 622L521 622L521 592L328 592L328 548L550 548L550 518L328 518L328 340L480 340L480 381L375 381L375 410L480 410L480 448L371 448L371 480L521 480L521 320L533 320C587 293 649 270 718 249C787 228 870 208 966 190L966 190L954 150C867 167 794 185 736 203L736 203ZM509 818L535 795C508 768 481 743 456 720L456 720L431 745C448 758 474 783 509 818L509 818ZM195 747L170 720C163 727 151 739 134 755C117 771 103 783 93 792L93 792L116 816L158 780L195 747ZM584 598L556 626C577 639 592 650 602 661C612 671 619 681 622 692C625 702 626 715 626 731L626 731L626 793L855 793L855 704C855 691 858 682 863 677C868 672 877 669 891 669L891 669L946 669L939 634L872 634C849 634 834 638 825 647C816 655 811 670 811 691L811 691L811 756L670 756L670 718C670 695 664 674 651 656C638 637 616 618 584 598L584 598ZM379 679L231 679L238 660L252 622L358 622L379 679ZM581 313L560 351C614 369 662 390 705 414L705 414C689 425 674 434 661 442C648 450 636 457 625 464L625 464L587 488L606 517L637 499L740 437C784 466 820 502 847 545L847 545L575 545L575 582L896 582L896 543C866 492 827 449 778 414L778 414L947 310L924 275L744 390C695 360 641 334 581 313L581 313ZM503 289C438 258 369 230 295 207L295 207L721 207C637 232 564 260 503 289L503 289ZM475-12L475 82L290 82L323-12L475-12ZM714 82L527 82L527-12L663-12C682 15 699 46 714 82L714 82Z"/>
    <glyph glyph-name="" unicode="&#38016;"
      horiz-adv-x="1000" vert-adv-y="1172"
      d="M967-43L933-69C905-20 882 31 865 82C848 133 835 191 826 256L826 256C809 132 777 22 728-74L728-74L693-53C730 17 757 95 774 181C791 266 800 367 802 483L802 483L724 483L724 526L803 526L803 556L803 840L841 840L841 526L951 526L951 483L841 483C840 472 840 457 840 436L840 436C845 335 858 246 880 169C901 91 930 20 967-43L967-43ZM505 525L505 547L421 537L418 568L505 578L505 647L416 647L416 398C416 318 414 253 410 204C405 154 398 108 387 67C376 25 360-22 338-73L338-73L298-57C319-8 336 36 347 77C358 117 365 162 370 211C375 260 377 324 377 401L377 401L377 684L499 684L499 838L538 838L538 775L703 775L703 741L538 741L538 684L720 684L720 647L701 581L665 587L682 647L541 647L541 583L642 595L645 564L541 551L541 536C541 525 543 518 547 515C551 511 559 508 570 507L570 507C587 506 604 506 623 507L623 507C636 508 644 510 648 513C652 515 655 521 656 530L656 530C658 544 659 555 659 562L659 562L692 555L689 519C686 502 681 491 673 486C665 481 651 477 631 476L631 476L592 475L555 476C537 477 524 481 517 489C509 496 505 508 505 525L505 525ZM311 70L315 48L317 28L48-27L41 18L175 44L175 350L57 350L57 393L175 393L175 513L105 513L105 545C95 528 82 509 65 488L65 488L37 519C67 558 97 607 127 666C156 725 178 779 193 829L193 829L234 819C231 806 226 792 219 776L219 776C274 717 318 669 351 632L351 632L318 604C303 621 292 634 285 642L285 642C245 688 218 719 203 735L203 735C174 668 144 608 111 555L111 555L306 555L306 513L214 513L214 393L325 393L325 350L214 350L214 51L311 70ZM958 595L922 582C909 617 888 671 859 742L859 742L895 755C916 706 937 653 958 595L958 595ZM437 406L437 437L718 437L718 406L437 406ZM471 364L681 364L681 257L471 257L471 364ZM644 287L644 335L508 335L508 287L644 287ZM273 117L236 131C263 202 283 260 295 305L295 305L332 293C321 254 301 195 273 117L273 117ZM60 290L97 304L103 284C125 219 142 167 154 127L154 127L116 112C104 155 85 215 60 290L60 290ZM437 216L703 216L703 8C703-15 699-32 691-41C682-50 667-55 646-55L646-55C635-55 624-54 612-51L612-51L606-16C616-19 627-21 640-21L640-21C653-21 661-18 666-11C670-5 672 5 672 20L672 20L672 184L470 184L470-50L437-50L437 216ZM655 96L655 65L587 65L587-39L555-39L555 65L490 65L490 96L531 96C522 128 515 152 508 167L508 167L533 176C538 165 547 138 559 96L559 96L591 96C602 127 612 153 620 176L620 176L644 170C642 163 633 138 618 96L618 96L655 96Z"/>
    <glyph glyph-name="" unicode="&#38017;"
      horiz-adv-x="1000" vert-adv-y="1172"
      d="M352 85L354 62L358 39L48-25L40 19L183 49L183 352L57 352L57 395L183 395L183 516L96 516L96 531C86 517 75 503 63 488L63 488L34 521C65 560 97 609 128 667C159 725 183 779 199 829L199 829L245 820C242 810 236 795 228 775L228 775L326 675C335 664 348 651 365 634L365 634L335 602L211 734C179 664 147 605 114 557L114 557L326 557L326 516L224 516L224 395L338 395L338 352L224 352L224 58L352 85ZM404 538L404 809L617 809L617 538L404 538ZM690 538L690 809L902 809L902 538L690 538ZM442 726L579 726L579 777L442 777L442 726ZM726 726L865 726L865 777L726 777L726 726ZM442 649L579 649L579 697L442 697L442 649ZM726 649L865 649L865 697L726 697L726 649ZM579 619L442 619L442 569L579 569L579 619ZM865 619L726 619L726 569L865 569L865 619ZM371 336L352 375C406 423 446 477 471 537L471 537L511 524C504 509 496 494 487 478L487 478L672 478L646 526L633 549L672 564C688 537 704 509 719 478L719 478L924 478L924 447L706 447L706 399L894 399L894 368L706 368L706 319L894 319L894 289L706 289L706 236L934 236L934 205L435 205L435 402C415 378 394 356 371 336L371 336ZM477 447L477 399L663 399L663 447L477 447ZM477 368L477 319L663 319L663 368L477 368ZM283 120L247 133C264 176 286 235 311 310L311 310L347 297C328 239 307 180 283 120L283 120ZM61 296L96 309C125 229 145 169 158 128L158 128L121 115C112 146 92 206 61 296L61 296ZM477 289L477 236L663 236L663 289L477 289ZM958-31L947-71C822-52 721-28 643 1L643 1C562-30 464-56 350-75L350-75L338-33C435-18 519 1 590 24L590 24C533 51 487 84 452 121L452 121L389 121L389 154L857 154L857 119C806 82 753 50 696 24L696 24C756 5 843-13 958-31L958-31ZM793 121L503 121C541 90 587 63 641 42L641 42C701 66 752 92 793 121L793 121Z"/>
    <glyph glyph-name="" unicode="&#38018;"
      horiz-adv-x="1000" vert-adv-y="1172"
      d="M888 554L888 664L410 664L410 555L371 555L371 701L625 701L625 844L668 844L668 701L928 701L928 554L888 554ZM217 52L337 72L339 48L341 29L41-21L36 22L176 45L176 359L54 359L54 400L176 400L176 523L101 523L101 553C87 532 73 513 59 496L59 496L30 529C62 568 94 617 125 676C156 734 178 788 192 838L192 838L234 826C232 820 227 806 220 785L220 785C282 721 329 672 360 637L360 637L329 606C294 646 252 692 203 743L203 743C176 680 145 620 108 563L108 563L316 563L316 523L217 523L217 400L331 400L331 359L217 359L217 52ZM552 735L518 711C505 728 488 747 468 769L468 769C455 783 443 797 432 810L432 810L464 833C486 811 515 778 552 735L552 735ZM829 831L862 808C827 765 799 732 777 708L777 708L744 732C757 745 772 762 788 781C804 800 818 816 829 831L829 831ZM472 614L825 614L825 491L472 491L472 614ZM786 522L786 583L511 583L511 522L786 522ZM912 180L667 180L667 120L956 120L956 86L352 86L352 120L627 120L627 180L387 180L387 213L627 213L627 269L411 269L411 444L883 444L883 269L667 269L667 213L912 213L912 180ZM627 413L451 413L451 301L627 301L627 413ZM667 413L667 301L844 301L844 413L667 413ZM490 383L513 405C541 379 566 354 589 331L589 331L564 307C543 330 519 355 490 383L490 383ZM731 308L707 330C720 342 733 355 747 369C760 382 772 394 782 405L782 405L807 383C771 347 746 322 731 308L731 308ZM58 299L92 313C116 243 135 183 150 133L150 133L114 120C100 173 81 232 58 299L58 299ZM278 126L242 138C270 209 290 268 301 313L301 313L338 302C317 235 297 177 278 126L278 126ZM823 55L856 76C871 57 886 34 903 9C920-16 933-37 942-54L942-54L907-75C897-56 884-33 868-8C851 17 836 38 823 55L823 55ZM387-84L353-61C368-41 382-18 397 8C412 33 423 56 431 75L431 75L469 59C460 38 448 14 432-14C415-42 400-65 387-84L387-84ZM678 54L713 70C723 51 733 31 744 8C755-15 763-34 768-48L768-48L731-64C726-49 718-30 708-7C697 16 687 36 678 54L678 54ZM532 54L569 66C582 29 594-12 605-57L605-57L565-67C556-27 545 13 532 54L532 54Z"/>
    <glyph glyph-name="" unicode="&#38019;"
      horiz-adv-x="1000" vert-adv-y="1172"
      d="M206 739C187 696 165 655 140 615C115 575 89 539 63 508L63 508L36 539C68 577 99 623 128 677C157 730 180 782 197 833L197 833L240 823L223 779L241 760C258 741 278 719 300 696C321 673 342 650 362 628L362 628L329 599C270 668 229 714 206 739L206 739ZM918 636L430 636L430 448C430 353 428 278 424 222C420 165 412 114 399 68C386 22 367-25 340-73L340-73L301-55C328-6 347 41 360 84C372 127 380 176 384 229C387 282 389 356 389 452L389 452L389 786L918 786L918 636ZM430 671L876 671L876 751L430 751L430 671ZM920 514L912 483L728 530L734 557L728 581C787 594 841 609 892 625L892 625L901 593C861 580 812 568 753 555L753 555C806 543 861 529 920 514L920 514ZM636 527L458 483L449 516L613 553C592 560 544 573 469 593L469 593L478 623C507 616 559 601 634 580L634 580L628 557L630 557L633 540L636 527ZM665 621L703 621L703 498L665 498L665 621ZM221 59L326 79L329 53L332 37L49-18L43 24L180 51L180 355L60 355L60 397L180 397L180 519L104 519L104 560L324 560L324 519L221 519L221 397L339 397L339 355L221 355L221 59ZM892 349L590 349C584 337 574 320 561 299L561 299L916 299C916 203 913 111 908 23L908 23C905-12 898-36 886-50C873-64 851-71 819-71L819-71C796-71 765-68 725-63L725-63L719-28C750-34 780-37 807-37L807-37C830-37 845-32 854-22C862-13 867 4 868 29L868 29C873 90 875 156 875 227L875 227L875 266L660 266L660 209L800 209L800 95L660 95L660 39L763 44C752 56 745 65 741 70L741 70L769 89L809 41L838 5L810-13C803-4 795 5 788 14L788 14L451-4L448 30L624 38L624 95L485 95L485 204L452 172L429 199C476 241 516 291 549 349L549 349L479 349L479 475L892 475L892 349ZM606 380L606 444L515 444L515 380L606 380ZM731 444L640 444L640 380L731 380L731 444ZM765 444L765 380L856 380L856 444L765 444ZM279 122L243 134C271 209 291 268 303 309L303 309L339 300C313 217 293 158 279 122L279 122ZM62 294L100 307C115 264 135 204 158 128L158 128L119 116C101 181 82 240 62 294L62 294ZM624 209L624 266L538 266C523 245 507 226 490 209L490 209L624 209ZM624 178L518 178L518 126L624 126L624 178ZM660 126L767 126L767 178L660 178L660 126Z"/>
    <glyph glyph-name="" unicode="&#38020;"
      horiz-adv-x="1000" vert-adv-y="1172"
      d="M727 835L769 835L769 760L932 760L932 720L769 720L769 667L727 667L727 720L534 720L534 667L493 667L493 720L342 720L342 760L493 760L493 835L534 835L534 760L727 760L727 835ZM355 630L324 602C289 643 249 688 204 736L204 736C177 674 145 615 109 560L109 560L313 560L313 518L217 518L217 397L326 397L326 354L217 354L217 57L336 81L339 58L342 38L49-20L42 22L176 49L176 354L59 354L59 397L176 397L176 518L106 518L106 555C94 537 79 516 60 492L60 492L33 523C64 560 94 608 124 665C154 722 177 776 194 828L194 828L236 819L220 776C269 726 314 677 355 630L355 630ZM369 638L590 638L590 434L411 434L411-65L369-65L369 638ZM850 434L671 434L671 638L892 638L892 45C892 6 886-21 873-36C860-51 837-59 802-59L802-59C778-59 755-57 733-53L733-53L726-18C741-23 763-25 792-25L792-25C815-25 831-20 839-11C846-2 850 16 850 43L850 43L850 434ZM411 552L552 552L552 605L411 605L411 552ZM711 553L850 553L850 605L711 605L711 553ZM850 521L711 521L711 467L850 467L850 521ZM552 520L411 520L411 467L552 467L552 520ZM813 43L794 15C745 45 698 73 651 99L651 99L651-48L612-48L612 103C585 80 560 60 537 44C514 28 484 11 449-7L449-7L429 28C466 45 496 61 520 77C543 92 569 112 596 135L596 135L470 135L470 297L612 297L612 348L442 348L442 382L612 382L612 421L651 421L651 382L819 382L819 348L651 348L651 297L791 297L791 135L651 135C707 105 761 74 813 43L813 43ZM67 299L104 308C123 243 139 183 151 127L151 127L114 118C109 141 103 171 94 206C85 241 76 272 67 299L67 299ZM274 120L240 130C263 203 279 262 289 307L289 307L325 299C313 250 296 190 274 120L274 120ZM613 165L613 267L505 267L505 165L613 165ZM649 267L649 165L755 165L755 267L649 267ZM515 237L537 258C562 233 581 212 593 197L593 197L572 176C551 200 532 220 515 237L515 237ZM686 176L665 197C687 218 706 237 723 256L723 256L747 237C738 226 727 214 714 201C700 188 691 180 686 176L686 176Z"/>
    <glyph glyph-name="" unicode="&#38033;"
      horiz-adv-x="1000" vert-adv-y="1172"
      d="M392 653L171 653C140 586 107 527 72 477L72 477L39 510C68 555 97 608 126 671C154 733 176 793 192 850L192 850L241 838C226 787 210 742 192 701L192 701L392 701L392 653ZM734 154C790 87 864 27 955-24L955-24L927-67C835-12 760 50 703 117L703 117C643 51 560-11 455-69L455-69L429-30C533 26 614 88 673 155L673 155C642 197 616 243 595 293C574 342 555 398 540 460L540 460C532 358 516 268 491 189C466 110 427 29 374-54L374-54L333-30C388 54 428 139 453 224C478 309 493 412 499 534L499 534C500 561 502 623 504 720L504 720L420 720L420 768L830 768L830 723L751 515L888 515L888 468C867 401 844 343 820 292C795 241 767 195 734 154L734 154ZM548 612C567 519 588 440 612 373C636 306 667 246 704 193L704 193C732 230 757 270 778 315C799 360 819 410 838 467L838 467L698 467L698 510L777 720L551 720C551 711 550 690 549 658L549 658L548 612ZM227 45L358 130L372 86C342 69 307 48 266 21C225-6 196-27 179-41L179-41L154 0C165 7 173 15 177 22C180 29 182 38 182 50L182 50L182 283L56 283L56 330L182 330L182 480L105 480L105 525L359 525L359 480L227 480L227 330L380 330L380 283L227 283L227 45Z"/>
    <glyph glyph-name="" unicode="&#38038;"
      horiz-adv-x="1000" vert-adv-y="1172"
      d="M846 716L499 479L909 479C902 336 893 202 882 76L882 76C878 31 867 0 848-17C829-35 796-44 750-44L750-44C727-44 692-41 647-36L647-36L638 12C653 9 670 7 691 5C712 3 729 2 742 2L742 2C774 2 797 8 810 21C823 34 832 56 835 88L835 88C846 205 854 320 860 433L860 433L745 433C729 318 701 222 660 144C619 65 560-8 481-76L481-76L444-40C521 25 579 94 618 165C657 236 684 325 700 433L700 433L580 433C565 356 543 290 514 235C485 180 441 125 384 70L384 70L362 91L368 72C341 59 309 39 270 14C231-11 200-33 179-50L179-50L153-10C164-2 172 5 176 13C180 20 182 28 182 38L182 38L182 280L47 280L47 326L182 326L182 477L97 477L97 519C87 503 77 488 67 474L67 474L33 509C64 553 94 606 123 668C152 730 175 790 192 847L192 847L239 835C226 789 209 743 189 698L189 698L391 698L391 651L168 651C151 614 128 571 100 523L100 523L358 523L358 477L229 477L229 326L379 326L379 280L229 280L229 35L354 117L356 111C409 159 448 208 475 258C502 308 521 366 533 433L533 433L411 433L411 478L760 716L440 716L440 764L846 764L846 716Z"/>
    <glyph glyph-name="" unicode="&#38040;"
      horiz-adv-x="1000" vert-adv-y="1172"
      d="M383 655L165 655C138 603 107 552 71 502L71 502L36 537C69 584 100 635 128 689C155 743 178 798 195 853L195 853L243 840C228 793 210 747 189 702L189 702L383 702L383 655ZM814 398L954 398L954 349L814 349L814-73L765-73L765 349L579 349C577 274 572 215 563 170C554 125 540 84 519 48C498 11 466-31 424-79L424-79L381-47C422-2 453 38 473 72C493 106 507 144 516 185C524 226 529 281 530 349L530 349L404 349L404 398L531 398L531 424L531 714L422 714L422 762L931 762L931 714L814 714L814 398ZM580 428L580 398L765 398L765 714L580 714L580 428ZM241 35L386 129L398 78C371 63 334 41 287 11C240-20 208-43 190-58L190-58L163-13C175-3 183 5 187 12C191 18 193 26 193 36L193 36L193 273L58 273L58 321L193 321L193 473L100 473L100 521L368 521L368 473L241 473L241 321L396 321L396 273L241 273L241 35Z"/>
    <glyph glyph-name="" unicode="&#38087;"
      horiz-adv-x="1000" vert-adv-y="1172"
      d="M365 660L166 660C137 601 103 548 66 501L66 501L32 532C65 575 93 622 118 673C143 724 165 782 186 845L186 845L235 836C222 794 207 751 188 707L188 707L365 707L365 660ZM838 663L503 663C470 594 430 529 383 468L383 468L346 496C423 598 483 714 525 844L525 844L570 831C558 792 543 753 525 712L525 712L887 712C885 533 881 376 874 241L874 241C872 197 862 166 843 148C824 130 793 121 749 121L749 121C721 121 690 123 656 128L656 128L647 177C677 171 709 168 742 168L742 168C765 168 782 171 794 176C805 181 813 189 818 201C823 212 826 229 827 251L827 251C834 380 838 503 838 621L838 621L838 663ZM228 282L228 38L349 131L366 86C340 69 308 47 271 18C234-11 205-34 185-52L185-52L158-11C167-2 174 5 178 12C181 19 183 27 184 36L184 36L184 282L52 282L52 329L184 329L184 477L94 477L94 523L341 523L341 477L228 477L228 329L356 329L356 282L228 282ZM884 187L932 176L927 108L924 54C922 27 917 7 908-7C899-21 886-31 869-36C852-41 829-45 799-46L799-46C750-47 714-48 693-48L693-48C666-48 624-47 565-46L565-46C518-45 486-35 467-18C448-1 438 30 438 74L438 74L438 522L712 522L712 243L484 243L484 88C484 65 487 47 492 36C497 24 506 16 519 11C532 6 550 3 575 2L575 2C622 1 658 0 684 0L684 0C710 0 746 1 793 2L793 2C816 3 832 6 844 10C855 13 863 20 868 30C873 40 877 55 879 76L879 76C880 88 881 106 883 131C884 155 884 174 884 187L884 187ZM484 290L666 290L666 475L484 475L484 290Z"/>
    <glyph glyph-name="" unicode="&#38095;"
      horiz-adv-x="1000" vert-adv-y="1172"
      d="M325 656L143 656C119 601 93 550 66 505L66 505L34 535C58 577 82 627 107 684C131 741 150 794 163 842L163 842L207 830C198 797 183 754 162 702L162 702L325 702L325 656ZM852 56L852 821L894 821L894 43C894 10 887-14 872-29C857-44 833-51 800-51L800-51C769-51 744-49 725-44L725-44L716-3C745-8 771-10 792-10L792-10C815-10 830-5 839 5C848 15 852 32 852 56L852 56ZM680 719L612 719L612 408L687 408L687 361L612 361L612-62L568-62L568 361L458 361C456 256 448 174 434 113C419 52 395-8 360-68L360-68L319-47C343-6 362 33 375 68C388 103 397 144 404 190C411 235 415 292 416 361L416 361L340 361L340 408L417 408L417 429L417 719L355 719L355 765L680 765L680 719ZM732 147L732 721L774 721L774 147L732 147ZM459 433L459 408L568 408L568 719L459 719L459 433ZM203 49L309 131L329 88C302 70 271 48 236 22C201-5 177-25 162-40L162-40L134-2C143 7 149 14 153 20C156 26 158 33 158 41L158 41L158 282L48 282L48 328L158 328L158 478L83 478L83 523L308 523L308 478L203 478L203 328L321 328L321 282L203 282L203 49Z"/>
    <glyph glyph-name="" unicode="&#38099;"
      horiz-adv-x="1000" vert-adv-y="1172"
      d="M371 651L162 651C131 586 98 532 65 488L65 488L33 520C63 563 92 613 119 670C146 727 167 783 183 837L183 837L228 827C218 790 203 747 183 698L183 698L371 698L371 651ZM560 649L560 528L512 528L512 649L398 649L398 697L512 697L512 834L560 834L560 697L762 697L762 834L810 834L810 697L949 697L949 649L810 649L810 528L762 528L762 649L560 649ZM956 410L956 361L513 361L513 17L908 17L908-30L466-30L466 361L385 361L385 410L675 410L658 448C636 497 619 533 608 555L608 555L653 575C662 559 674 534 689 501C704 468 718 437 729 410L729 410L956 410ZM220 280L220 45L362 136L374 89C342 72 305 49 262 21C219-7 190-28 174-43L174-43L147-2C158 7 165 15 169 20C172 25 174 31 174 38L174 38L174 280L49 280L49 328L174 328L174 475L90 475L90 522L350 522L350 475L220 475L220 328L367 328L367 280L220 280Z"/>
    <glyph glyph-name="" unicode="&#38100;"
      horiz-adv-x="1000" vert-adv-y="1172"
      d="M361 659L170 659C135 590 102 535 70 492L70 492L35 524C66 567 96 618 125 676C154 734 176 789 193 842L193 842L239 829C226 788 211 748 192 707L192 707L361 707L361 659ZM936 724L764 724L764 23L957 23L957-23L353-23L353 23L557 23L557 724L390 724L390 771L936 771L936 724ZM716 23L716 724L604 724L604 23L716 23ZM383 560L426 575C480 394 515 276 530 219L530 219L484 205C469 262 435 380 383 560L383 560ZM832 197L786 214C805 265 825 325 847 395C868 465 885 523 897 570L897 570L941 556C927 503 909 442 888 371C867 300 848 242 832 197L832 197ZM225 47L357 145L373 99C348 84 314 61 273 30C231-2 200-27 180-44L180-44L150-5C161 5 168 13 172 19C175 25 177 32 177 40L177 40L177 290L52 290L52 337L177 337L177 483L99 483L99 529L342 529L342 483L225 483L225 337L361 337L361 290L225 290L225 47Z"/>
    <glyph glyph-name="" unicode="&#38106;"
      horiz-adv-x="1000" vert-adv-y="1172"
      d="M364 653L161 653C128 587 97 531 67 486L67 486L29 515C57 558 86 610 116 671C145 732 169 789 187 841L187 841L235 829C223 794 206 752 184 701L184 701L364 701L364 653ZM683 217L683 14L950 14L950-34L360-34L360 14L635 14L635 217L422 217L422 264L635 264L635 421C540 412 481 406 456 403L456 403C450 402 437 401 416 398L416 398L404 442C413 443 419 445 423 447C427 449 430 452 433 455L433 455C454 479 482 516 517 567C551 618 581 666 607 711L607 711L409 711L409 758L928 758L928 711L666 711C639 664 609 616 576 566C543 516 515 477 493 450L493 450L809 480C778 525 747 569 716 611L716 611L756 638C817 555 873 476 926 399L926 399L884 368L837 438L683 425L683 264L902 264L902 217L683 217ZM221 38L360 137L377 88C350 75 302 43 233-7L233-7L202-28C185-41 175-50 172-53L172-53L147-7C157 2 164 10 168 15C171 20 173 27 173 34L173 34L173 283L47 283L47 331L173 331L173 477L98 477L98 524L350 524L350 477L221 477L221 331L365 331L365 283L221 283L221 38Z"/>
    <glyph glyph-name="" unicode="&#38118;"
      horiz-adv-x="1000" vert-adv-y="1172"
      d="M196 842L241 827C228 787 211 743 189 694L189 694L377 694L377 646L165 646C140 597 116 555 91 518L91 518L358 518L358 471L226 471L226 324L373 324L373 277L226 277L226 37L355 136L369 86C354 77 330 60 297 35C264 10 236-12 214-29L214-29C201-38 190-49 180-60L180-60L153-20C163-10 170-2 173 5C176 11 177 19 178 28L178 28L178 277L50 277L50 324L178 324L178 471L90 471L90 517L63 479L28 512C61 557 93 611 124 672C155 733 179 789 196 842L196 842ZM953 524L953 472L701 472L701 297L886 297L886-78L837-78L837-16L514-16L514-78L465-78L465 297L651 297L651 472L409 472L409 524L651 524L651 707C570 698 495 693 424 690L424 690L420 739C497 742 579 749 666 759C753 768 832 779 904 791L904 791L912 742C833 729 763 720 701 713L701 713L701 524L953 524ZM514 247L514 32L837 32L837 247L514 247Z"/>
    <glyph glyph-name="" unicode="&#38139;"
      horiz-adv-x="1000" vert-adv-y="1172"
      d="M353 476L226 476L226 332L371 332L371 284L226 284L226 49L346 144L362 94C347 85 324 68 292 43C259 18 232-4 210-21L210-21C195-33 185-43 178-50L178-50L148-5C168 11 178 26 178 41L178 41L178 284L53 284L53 332L178 332L178 476L94 476L94 521C85 506 73 488 60 469L60 469L29 507C62 555 93 609 122 668C151 727 174 786 191 843L191 843L239 831C224 784 207 741 188 700L188 700L376 700L376 652L166 652C143 605 119 562 95 523L95 523L353 523L353 476ZM596 601L852 601L847 405L960 405L960 359L376 359L376 405L511 405L537 556L421 556L421 601L545 601L568 733L407 733L407 780L929 780L929 733L619 733L596 601ZM796 405L801 556L588 556L562 405L796 405ZM498-7L498-77L450-77L450 251L882 251L882-77L834-77L834-7L498-7ZM498 37L834 37L834 206L498 206L498 37Z"/>
    <glyph glyph-name="" unicode="&#38172;"
      horiz-adv-x="1000" vert-adv-y="1172"
      d="M378 656L164 656C134 592 103 537 71 492L71 492L38 525C67 570 96 621 124 680C151 739 172 794 187 845L187 845L232 835C218 790 202 745 184 702L184 702L378 702L378 656ZM422 475L406 518C476 542 527 566 560 590C593 614 614 645 625 683L625 683L409 683L409 729L633 729L634 749C634 766 635 796 636 840L636 840L685 840L684 810C683 779 682 757 682 744L682 744C682 737 682 732 681 729L681 729L918 729L918 683L675 683C672 668 667 655 662 643L662 643C691 628 731 608 780 581C829 554 867 533 895 516L895 516L870 476C835 499 759 542 642 607L642 607C623 582 596 559 561 538C526 517 480 496 422 475L422 475ZM351 482L227 482L227 330L372 330L372 282L227 282L227 40L357 120L371 74C348 62 322 47 292 29C261 11 235-5 212-19L212-19L179-44L154-6C165 4 173 12 176 17C179 22 181 29 181 37L181 37L181 282L55 282L55 330L181 330L181 482L96 482L96 527L351 527L351 482ZM366 447L955 447L955 401L862 401L862 49C862 9 855-19 841-36C826-53 799-61 760-61L760-61C733-61 697-57 650-50L650-50L642-4C684-13 719-17 746-17L746-17C773-17 792-11 802 2C811 14 816 34 816 62L816 62L816 401L366 401L366 447ZM434 66L434 298L692 298L692 66L434 66ZM477 254L477 110L649 110L649 254L477 254Z"/>
    <glyph glyph-name=" " unicode="&#38176;"
      horiz-adv-x="1000" vert-adv-y="1172"
      d="M189 847L237 835C224 792 207 748 187 704L187 704L382 704L382 658L166 658C136 595 105 539 74 492L74 492L36 520C67 567 97 619 124 678C151 737 172 793 189 847L189 847ZM450 438L450 772L862 772L862 438L450 438ZM497 626L815 626L815 728L497 728L497 626ZM815 584L497 584L497 482L815 482L815 584ZM224 288L224 44L357 128L374 83C364 78 355 72 347 66L347 66C270 19 224-10 207-23L207-23C203-26 194-33 180-46L180-46L151-6C161 4 168 12 172 18C175 23 177 30 177 37L177 37L177 288L53 288L53 336L177 336L177 481L99 481L99 528L358 528L358 481L224 481L224 336L373 336L373 288L224 288ZM464-67L417-67L417 335L896 335L896-65L848-65L848-13L464-13L464-67ZM464 182L848 182L848 293L464 293L464 182ZM848 140L464 140L464 28L848 28L848 140Z"/>
    <glyph glyph-name="'" unicode="&#38183;"
      horiz-adv-x="1000" vert-adv-y="1172"
      d="M364 650L158 650C129 589 99 537 69 494L69 494L34 528C65 573 93 623 120 679C146 734 166 787 180 838L180 838L227 824C218 791 202 749 180 697L180 697L364 697L364 650ZM692 540L458 540L458 464C458 365 455 287 449 228C443 169 432 117 416 73C400 28 376-19 344-69L344-69L300-43C332 5 356 49 372 88C387 127 398 175 405 231C411 287 414 364 414 461L414 461L414 752C484 755 568 761 666 771C763 780 847 791 918 802L918 802L928 756C873 747 809 738 736 731L736 731L736 584L958 584L958 540L736 540L736 418L889 418L889 122L846 122L846 373L585 373L585 121L542 121L542 418L692 418L692 540ZM692 584L692 726C597 716 519 710 458 708L458 708L458 584L692 584ZM213 55L348 153L362 106C349 98 326 83 294 60C261 37 235 17 214 2L214 2C195-11 180-23 171-33L171-33L144 5C155 14 162 21 165 26C168 31 169 37 169 45L169 45L169 285L47 285L47 329L169 329L169 478L94 478L94 523L341 523L341 478L213 478L213 329L351 329L351 285L213 285L213 55ZM961-16L933-56L832 13C779 48 737 76 708 97L708 97C691 64 665 37 630 14C594-9 541-34 472-59L472-59L452-16C522 7 574 30 608 53C642 76 665 104 676 135C687 166 693 209 693 263L693 263L693 328L737 328L737 266C737 215 733 172 724 138L724 138L961-16Z"/>
    <glyph glyph-name="3" unicode="&#38195;"
      horiz-adv-x="1000" vert-adv-y="1172"
      d="M339 657L155 657C132 606 104 554 71 500L71 500L34 532C101 640 149 744 179 845L179 845L225 834C212 790 196 747 178 706L178 706L339 706L339 657ZM557 662L557 564L509 564L509 662L371 662L371 711L509 711L509 827L557 827L557 711L758 711L758 827L805 827L805 711L951 711L951 662L805 662L805 564L758 564L758 662L557 662ZM953 205L697 205C716 149 746 103 785 67C824 31 882 1 958-22L958-22L938-69C863-44 805-13 763 24C721 61 688 107 665 162L665 162C648 111 615 66 567 29C519-9 452-43 365-73L365-73L343-27C434 1 501 34 545 71C589 108 616 153 627 205L627 205L360 205L360 253L435 253L435 494L633 494L633 597L681 597L681 494L886 494L886 253L953 253L953 205ZM218 46L351 124L365 79C348 71 321 57 286 36C250 15 220-2 197-16L197-16C186-24 177-32 169-39L169-39L146 6C155 14 162 21 165 26C168 31 170 36 170 43L170 43L170 287L56 287L56 335L170 335L170 479L94 479L94 528L330 528L330 479L218 479L218 335L344 335L344 287L218 287L218 46ZM633 447L482 447L482 253L633 253L633 271L633 447ZM681 253L838 253L838 447L681 447L681 270L681 253Z"/>
    <glyph glyph-name="=" unicode="&#38205;"
      horiz-adv-x="1000" vert-adv-y="1172"
      d="M640 737L867 737L867 405L426 405L426 737L587 737C602 781 614 819 621 850L621 850L670 841L640 737ZM350 655L155 655C124 593 93 541 62 498L62 498L36 539C63 579 90 626 116 681C142 735 163 788 180 841L180 841L229 830C216 789 198 746 177 701L177 701L350 701L350 655ZM474 591L820 591L820 695L474 695L474 591ZM820 550L474 550L474 446L820 446L820 550ZM210 286L210 54L323 149L343 108C330 99 308 81 277 56C246 31 220 9 199-9L199-9C186-20 177-30 170-38L170-38L143 0C152 11 158 19 161 24C164 28 165 34 165 42L165 42L165 286L51 286L51 333L165 333L165 481L91 481L91 526L335 526L335 481L210 481L210 333L354 333L354 286L210 286ZM887 119L671 119L671 12L944 12L944-30L346-30L346 12L624 12L624 119L407 119L407 161L624 161L624 270L382 270L382 312L912 312L912 270L671 270L671 161L887 161L887 119Z"/>
    <glyph glyph-name="C" unicode="&#38211;"
      horiz-adv-x="1000" vert-adv-y="1172"
      d="M606 703L565 677L470 819L512 844C519 833 535 809 559 774L559 774L606 703ZM169 843L216 833C202 789 185 745 166 701L166 701L341 701L341 654L144 654C115 595 86 544 57 503L57 503L31 543C58 581 83 627 108 681C133 735 153 789 169 843L169 843ZM945 629L809 629C794 588 773 539 748 480C722 421 701 377 686 348L686 348L811 369C832 416 851 461 868 506L868 506L906 490C881 425 847 344 804 248C760 152 724 80 696 31L696 31L866 54L813 205L852 221C889 118 919 31 943-40L943-40L903-57L879 15C854 12 800 5 718-7L718-7C701-10 688-12 677-13L677-13C672-14 668-15 663-16C658-17 653-19 648-20L648-20C649-24 652-33 655-46L655-46L614-59C609-36 601-8 591 23L591 23C523 13 460 3 403-7L403-7C389-10 380-13 375-14L375-14L359 33C367 37 373 41 377 44C380 47 383 50 386 55L386 55C399 75 419 111 445 163C471 215 497 270 522 327L522 327C472 321 430 314 396 307L396 307L371 303L357 340C364 343 370 347 374 350C377 353 381 358 384 365L384 365C397 388 415 426 438 479C460 532 480 582 497 629L497 629L371 629L371 674L697 674C742 745 777 801 801 843L801 843L843 820L750 674L945 674L945 629ZM792 326C740 319 695 313 658 306L658 306L628 300L616 341C624 344 630 347 634 350C637 353 641 358 644 365L644 365C657 387 676 426 701 482C725 537 745 586 760 629L760 629L547 629C531 584 511 533 487 478C463 422 443 379 427 350L427 350L542 371C567 431 586 477 598 510L598 510L640 493C611 420 575 338 532 245C489 152 453 83 424 38L424 38L580 61L537 206L578 218C605 129 624 65 635 26L635 26C644 31 650 37 655 44L655 44C670 69 690 108 716 161C741 213 767 268 792 326L792 326ZM204 284L204 49L319 133L335 89C314 75 289 58 262 39C235 20 211 3 190-12L190-12C181-19 172-28 162-37L162-37L137 2C146 10 151 17 154 22C157 27 158 33 158 40L158 40L158 284L44 284L44 330L158 330L158 479L79 479L79 524L317 524L317 479L204 479L204 330L333 330L333 284L204 284Z"/>
    <glyph glyph-name="H" unicode="&#38216;"
      horiz-adv-x="1000" vert-adv-y="1172"
      d="M167 839L215 829C199 780 182 736 164 696L164 696L336 696L336 649L142 649C116 596 87 545 54 498L54 498L28 535C55 574 81 622 106 677C131 732 152 786 167 839L167 839ZM405 604L624 604L624 688L371 688L371 731L624 731L624 838L666 838L666 731L804 731L756 816L792 834C798 823 807 808 819 788C830 767 841 748 850 731L850 731L940 731L940 688L666 688L666 604L884 604L884 240L839 240L839 317L666 317L666 248L624 248L624 317L450 317L450 240L405 240L405 604ZM450 479L624 479L624 564L450 564L450 479ZM666 479L839 479L839 564L666 564L666 479ZM206 279L206 44L317 122L336 80C313 65 287 46 256 24C225 2 202-15 187-27L187-27C180-32 172-38 163-47L163-47L136-6C153 9 161 22 161 33L161 33L161 279L45 279L45 326L161 326L161 475L78 475L78 520L319 520L319 475L206 475L206 326L334 326L334 279L206 279ZM624 440L450 440L450 355L624 355L624 440ZM839 440L666 440L666 355L839 355L839 440ZM814 194L956 194L956 151L814 151L814 47C814 8 807-19 793-35C779-52 753-60 716-60L716-60C681-60 645-57 608-50L608-50L599-6C631-14 665-18 701-18L701-18C727-18 745-12 754 0C763 12 768 32 768 60L768 60L768 151L348 151L348 194L768 194L768 262L814 262L814 194ZM446 110L472 143C513 109 554 73 595 35L595 35L567 3C528 38 488 74 446 110L446 110Z"/>
    <glyph glyph-name="K" unicode="&#38219;"
      horiz-adv-x="1000" vert-adv-y="1172"
      d="M873 450L873 597L403 597L403 450L360 450L360 643L611 643L611 844L656 844L656 643L916 643L916 450L873 450ZM338 649L149 649C118 584 89 534 64 498L64 498L31 531C59 572 86 620 112 677C138 734 159 787 174 838L174 838L220 826C203 777 187 734 171 697L171 697L338 697L338 649ZM544 687L509 659C484 692 447 735 400 788L400 788L434 815C447 802 465 783 488 756C511 729 529 706 544 687L544 687ZM831 814L866 789C853 770 835 748 813 722C791 695 773 674 758 658L758 658L724 687C741 705 760 726 781 751C802 775 818 796 831 814L831 814ZM217 35L346 122L362 74C343 64 316 47 279 24C242 0 214-18 197-31L197-31C192-35 184-41 175-49L175-49L149-9C157-2 163 4 166 9C169 14 170 19 170 26L170 26L170 280L45 280L45 328L170 328L170 474L86 474L86 522L329 522L329 474L217 474L217 328L344 328L344 280L217 280L217 35ZM894 167L936 158L932 32C931-1 923-23 910-35C896-47 871-53 834-53L834-53L774-53C740-53 717-47 705-34C692-21 686 2 686 35L686 35L686 223L562 223L557 181C553 138 545 103 533 76C521 49 501 23 474 0C446-23 406-49 353-76L353-76L326-36C377-11 415 11 440 32C465 52 483 74 493 97C502 120 509 151 514 190L514 190L518 223L438 223L438 476L838 476L838 223L729 223L729 46C729 24 733 10 740 4C747-3 763-6 786-6L786-6L826-6C852-6 869-3 877 4C885 11 889 25 890 47L890 47C891 66 892 87 893 112C894 136 894 154 894 167L894 167ZM794 268L794 431L482 431L482 268L794 268Z"/>
    <glyph glyph-name="U" unicode="&#38229;"
      horiz-adv-x="1000" vert-adv-y="1172"
      d="M875 680L442 680L442 560L395 560L395 727L646 727C633 766 620 799 608 828L608 828L654 842C661 827 670 805 681 774L681 774L700 727L923 727L923 559L875 559L875 680ZM340 649L146 649C119 592 89 541 58 497L58 497L31 537C58 576 84 624 109 679C134 734 155 787 171 840L171 840L220 829C206 785 189 741 168 696L168 696L340 696L340 649ZM701 574L729 610C752 593 785 569 827 536C869 503 906 474 938 448L938 448L911 409L701 574ZM574 608L602 573C537 513 466 458 389 408L389 408L365 448C438 497 508 550 574 608L574 608ZM222 277L222 45L264 76L333 126L353 81C276 28 227-8 206-25L206-25C195-33 187-40 180-47L180-47L153-2C161 4 167 10 171 16C174 21 176 29 176 38L176 38L176 277L53 277L53 324L176 324L176 474L93 474L93 521L323 521L323 474L222 474L222 324L338 324L338 277L222 277ZM629 492L674 492C707 439 748 391 796 349C843 307 901 268 968 231L968 231L944 188C878 224 821 263 774 304C726 345 685 390 652 440L652 440C619 391 580 347 534 308C488 269 430 229 360 190L360 190L336 232C405 269 463 308 510 350C557 391 596 439 629 492L629 492ZM493-25L493-74L447-74L447 236L855 236L855-74L808-74L808-25L493-25ZM493 20L808 20L808 191L493 191L493 20Z"/>
    <glyph glyph-name="Z" unicode="&#38234;"
      horiz-adv-x="1000" vert-adv-y="1172"
      d="M364 659L157 659C128 600 101 551 75 514L75 514L44 554C70 591 96 637 123 692C149 747 170 799 186 850L186 850L231 836C217 793 200 750 181 709L181 709L364 709L364 659ZM868 668L868 798L914 798L914 625L418 625L418 799L465 799L465 668L643 668L643 841L690 841L690 668L868 668ZM406 308L406 539L618 539L618 40C618 7 612-17 601-32C589-47 571-54 547-55L547-55C526-55 503-53 478-50L478-50L469-5C491-9 513-11 534-11L534-11C548-11 558-6 565 4C571 13 574 30 574 53L574 53L574 170L447 170C443 123 434 80 420 43C405 5 383-34 352-75L352-75L313-49C340-14 360 20 373 51C386 82 394 116 399 155C404 193 406 244 406 308L406 308ZM696 300L696 539L925 539L925 36C925-1 919-27 906-40C893-54 872-61 841-61L841-61C828-61 809-60 785-57L785-57L776-12C798-16 820-18 841-18L841-18C856-18 867-13 873-4C878 5 881 23 881 48L881 48L881 170L737 170C734 120 726 76 715 39C703 2 685-36 661-75L661-75L620-53C651-7 672 41 682 90C691 139 696 209 696 300L696 300ZM314 146L332 102C318 92 286 64 236 18L236 18L205-10C196-19 188-27 183-34L183-34L155 5C163 13 169 20 172 26C175 32 176 39 176 47L176 47L176 289L67 289L67 338L176 338L176 484L102 484L102 532L327 532L327 484L222 484L222 338L341 338L341 289L222 289L222 59L266 101L314 146ZM451 374L574 374L574 498L451 498L451 374ZM740 373L881 373L881 498L740 498L740 373ZM450 211L574 211L574 332L451 332L451 264C451 240 451 222 450 211L450 211ZM739 212L881 212L881 332L740 332L740 263C740 240 740 223 739 212L739 212Z"/>
    <glyph glyph-name="`" unicode="&#38240;"
      horiz-adv-x="1000" vert-adv-y="1172"
      d="M330 652L148 652C122 595 92 543 59 495L59 495L27 529C54 569 81 618 108 675C134 732 155 787 170 841L170 841L215 829C204 790 188 747 169 698L169 698L330 698L330 652ZM376 469L360 508L390 522L567 603L571 592L571 743L366 743L366 785L613 785L613 499L571 498L571 558C541 544 506 528 466 510C426 491 396 478 376 469L376 469ZM843 606L846 599L846 742L651 742L651 785L888 785L888 466L846 466L846 566L675 493L659 532C681 541 712 553 751 569C790 584 821 597 843 606L843 606ZM662 693L689 720L716 694C742 670 767 646 791 622L791 622L761 595L662 693ZM390 692L419 719L462 678C472 668 492 649 522 621L522 621L493 592C474 611 440 644 390 692L390 692ZM209 285L209 51L328 141L345 92C322 77 297 59 268 39C239 18 215 0 194-16L194-16C180-28 171-36 168-40L168-40L142 2C151 11 157 18 160 23C163 28 164 35 164 42L164 42L164 285L44 285L44 329L164 329L164 478L82 478L82 522L323 522L323 478L209 478L209 329L338 329L338 285L209 285ZM618 502L665 502C697 464 737 429 784 398C831 367 887 338 954 312L954 312L938 270C870 299 812 330 765 362C717 393 676 428 643 466L643 466C606 427 566 391 522 360C477 329 424 299 363 271L363 271L346 312C404 337 455 366 499 397C542 428 582 463 618 502L618 502ZM692 371L714 337C674 308 628 280 576 253C523 226 471 204 418 185L418 185L404 223C455 240 505 262 555 288C605 313 651 341 692 371L692 371ZM402 57L389 99C464 120 534 146 598 176C661 205 723 239 784 278L784 278L806 243C747 204 684 169 619 138C553 107 481 80 402 57L402 57ZM369-69L355-28C468-2 566 28 649 62C732 96 809 137 881 186L881 186L904 150C835 101 758 60 673 25C587-10 486-41 369-69L369-69Z"/>
    <glyph glyph-name="n" unicode="&#38254;"
      horiz-adv-x="1000" vert-adv-y="1172"
      d="M205 59L322 145L339 98C279 56 229 20 188-11L188-11C176-22 167-30 161-37L161-37L133 4C151 21 160 37 160 52L160 52L160 282L47 282L47 329L160 329L160 479L81 479L81 511L70 492L30 519C58 564 85 617 110 676C135 735 155 791 170 845L170 845L216 832C205 792 190 749 172 704L172 704L334 704L334 657L152 657C136 618 115 574 89 526L89 526L315 526L315 479L205 479L205 329L334 329L334 282L205 282L205 59ZM404 594L404 793L895 793L895 594L404 594ZM554 632L554 753L446 753L446 632L554 632ZM593 632L702 632L702 753L593 753L593 632ZM742 753L742 632L853 632L853 753L742 753ZM359 479L359 519L951 519L951 479L359 479ZM769 95C816 55 881 22 962-4L962-4L942-46C860-16 795 19 746 59C697 99 654 151 619 216L619 216C591 184 561 155 529 128L529 128L529-16L687 49L692 9C615-21 557-44 519-61L519-61C513-64 503-69 489-78L489-78L470-46C477-40 482-35 485-31C487-27 488-22 488-16L488-16L488 96C441 63 387 32 325 3L325 3L305 41C417 92 510 158 584 241L584 241L423 241L423 411L867 411L867 241L653 241C680 194 708 155 738 125L738 125C794 156 847 189 897 223L897 223L921 188C881 161 830 130 769 95L769 95ZM822 281L822 371L468 371L468 281L822 281Z"/>
    <glyph glyph-name="t" unicode="&#38260;"
      horiz-adv-x="1000" vert-adv-y="1172"
      d="M318 656L143 656C114 593 87 542 61 502L61 502L31 536C55 575 80 624 105 681C130 738 150 793 165 844L165 844L211 832C197 788 181 745 163 702L163 702L318 702L318 656ZM512 631L479 604C434 643 388 681 339 718L339 718C361 735 384 755 407 777C430 799 449 820 466 839L466 839L507 820C471 781 435 747 399 718L399 718C424 700 462 671 512 631L512 631ZM710 632L677 604C615 655 566 693 531 718L531 718C554 735 578 755 603 778C628 800 648 820 664 838L664 838L704 821C671 785 634 751 593 719L593 719C645 682 684 653 710 632L710 632ZM904 633L873 604C806 658 758 696 728 718L728 718C769 748 812 788 857 838L857 838L897 821C862 782 826 748 789 719L789 719L883 649C888 645 895 640 904 633L904 633ZM877 596L877 342L369 342L369 596L877 596ZM833 377L833 562L413 562L413 377L833 377ZM767 550L783 521C756 507 720 490 674 471L674 471C705 459 745 443 794 422L794 422L779 390L686 429L628 452C574 431 518 410 460 390L460 390L447 422C489 437 534 453 582 470L582 470C526 493 484 509 456 519L456 519L471 549C501 538 554 518 629 489L629 489C687 512 733 532 767 550L767 550ZM207 285L207 40L308 116L319 68C306 60 285 45 256 24C227 3 206-14 193-25L193-25C180-36 171-45 167-50L167-50L142-8C149 0 154 7 157 12C160 17 161 23 162 30L162 30L162 285L44 285L44 329L162 329L162 480L84 480L84 524L300 524L300 480L207 480L207 329L314 329L314 285L207 285ZM928 113L964 98L959 69C951 19 945-13 941-27L941-27C936-44 930-57 922-64C914-71 904-75 892-75L892-75C865-75 845-53 832-9L832-9C823 18 815 58 810 110C805 162 801 232 800 321L800 321L841 321C844 166 854 62 870 7L870 7C877-15 884-26 893-26L893-26C898-26 901-24 904-19C906-14 908-5 911 8L911 8C914 21 918 40 921 63C924 86 927 102 928 113L928 113ZM411 318L411-7L550 43L555 4C539-1 513-10 478-23C442-37 413-49 390-58L390-58C386-59 377-64 364-72L364-72L347-34C356-28 362-23 365-19C368-15 369-10 369-4L369-4L369 318L411 318ZM632 318L632-8L770 43L777 5C764 2 742-6 710-18C678-31 652-41 631-50L631-50C615-57 601-64 588-71L588-71L570-34C578-27 583-21 586-17C589-14 590-9 590-3L590-3L590 318L632 318ZM436 252L450 283C457 280 484 267 532 244L532 244L564 228L548 195C505 219 467 238 436 252L436 252ZM652 251L668 282C681 277 719 258 782 225L782 225L765 194C749 203 730 214 708 225C685 236 667 244 652 251L652 251ZM435 133L450 165C455 162 461 159 469 155C477 151 487 146 499 140L499 140L563 107L547 76C509 96 472 115 435 133L435 133ZM655 133L669 165L782 107L766 74C749 83 731 94 711 105C691 116 672 125 655 133L655 133Z"/>
    <glyph glyph-name="u" unicode="&#38261;"
      horiz-adv-x="1000" vert-adv-y="1172"
      d="M391 562L391 648C384 643 377 638 372 634C366 629 361 625 356 622L356 622L334 661C374 688 410 718 444 751C477 784 504 817 526 851L526 851L566 832C555 813 541 794 524 774L524 774L797 774L797 740L729 684L874 684L874 562L391 562ZM325 652L147 652C118 591 89 541 60 501L60 501L29 529C56 570 83 619 110 677C137 734 158 789 175 840L175 840L218 825C202 779 185 736 167 697L167 697L325 697L325 652ZM737 740L494 740C469 715 449 696 435 684L435 684L671 684L737 740ZM435 653L435 593L831 593L831 653L435 653ZM868 536L876 502C841 491 777 475 684 456L684 456C685 439 688 428 694 423C700 418 712 414 731 413L731 413C740 412 757 412 783 412L783 412C808 412 823 412 830 413L830 413C847 414 859 415 867 418C875 420 881 424 884 430C887 436 888 445 889 458L889 458C890 475 891 491 891 506L891 506L929 497L927 448C926 429 922 416 917 407C912 398 903 391 892 387C880 383 863 380 840 379L840 379L779 378L718 379C690 380 671 386 660 396C649 405 643 424 643 452L643 452L643 545L684 545L684 491C765 508 826 523 868 536L868 536ZM610 509L610 478L433 478L433 413L608 443L610 409C581 405 548 400 511 394C474 387 441 381 414 376L414 376C402 373 391 370 381 366L381 366L369 401C378 406 384 409 387 412C390 415 391 418 391 421L391 421L391 544L433 544L433 509L610 509ZM210 36L324 121L338 75C318 64 293 47 264 26C235 5 211-13 194-27L194-27C182-36 173-45 167-53L167-53L139-15C149-6 156 3 160 11C164 18 166 27 166 36L166 36L166 282L52 282L52 326L166 326L166 477L84 477L84 521L309 521L309 477L210 477L210 326L325 326L325 282L210 282L210 36ZM904 106L943 97C943 62 942 37 940 21L940 21C937-8 930-27 917-37C904-47 880-53 845-55L845-55C818-56 796-57 777-57L777-57C759-57 737-56 712-55L712-55C683-54 663-48 652-37C640-27 634-8 634 20L634 20L634 111C616 73 583 40 536 11C489-18 419-47 326-74L326-74L309-34C391-11 453 12 496 36C539 59 569 85 587 114L587 114L385 114L385 209C375 201 359 190 338 175L338 175L315 212C354 237 391 266 426 297C461 328 490 360 513 391L513 391L548 369C533 350 524 339 523 338L523 338L797 338L797 305L729 249L888 249L888 114L677 114L677 28C677 10 680-2 687-7C694-13 707-17 726-18L726-18C749-19 768-20 783-20L783-20C798-20 817-19 840-18L840-18C862-17 877-13 886-7C894-1 899 11 900 30L900 30C903 47 904 73 904 106L904 106ZM736 305L493 305C475 286 455 267 434 249L434 249L669 249L736 305ZM429 218L429 147L602 147C609 168 613 191 614 218L614 218L429 218ZM647 147L845 147L845 218L657 218C656 191 652 168 647 147L647 147ZM843 35L819 7C784 36 752 59 724 78L724 78L747 108C778 85 810 61 843 35L843 35Z"/>
    </font>
</defs>
</svg>
