<svg xmlns="http://www.w3.org/2000/svg">
<!--
Copyright 2021 Huawei Device Co., Ltd. All Rights Reserved.
  -->

  <defs>
    <font name="HarmonyOS Sans SC Medium"
      horiz-adv-x="1000" vert-adv-y="1000" >
    <font-face font-family="HarmonyOS Sans SC Medium" font-weight="400"
      font-stretch="normal"
      units-per-em="1000"
      ascent="928"
      descent="-244"/>
    <glyph glyph-name="
" unicode="&#35594;"
      horiz-adv-x="1000" vert-adv-y="1172"
      d="M261 708L363 708L363 627L45 627L45 708L175 708C164 744 152 782 138 822L138 822L218 842C231 809 245 764 261 708L261 708ZM567 672L567 603L486 603L486 672L376 672L376 753L486 753L486 834L567 834L567 753L740 753L740 835L820 835L820 753L941 753L941 672L820 672L820 603L740 603L740 672L567 672ZM901 306L424 306L424 475L368 475L368 552L623 552C609 588 599 613 592 628L592 628L670 649L709 552L943 552L943 475L508 475L508 383L901 383L901 306ZM80 562L337 562L337 484L80 484L80 562ZM80 341L80 421L337 421L337 341L80 341ZM337 276L337-17C370 11 394 37 409 60C424 83 433 109 437 138C440 167 442 210 442 268L442 268L524 268C524 201 521 149 514 112C507 74 494 40 475 10C455-20 424-53 381-90L381-90L319-32L328-25L81-25L81 276L337 276ZM680 268L680-63L600-63L600 268L680 268ZM903 162L968 149C968 130 967 108 967 83C966 57 964 35 963 16L963 16C960-15 953-36 941-47C929-58 911-64 888-64L888-64L828-64C804-64 786-57 775-43C763-29 757-8 757 20L757 20L757 268L835 268L835 46C835 36 837 29 841 25C844 20 851 18 860 18L860 18L872 18C883 18 891 20 895 24C898 28 900 36 901 49L901 49C902 66 903 86 904 107C904 128 904 146 903 162L903 162ZM157 197L157 57L262 57L262 197L157 197Z"/>
    <glyph glyph-name="" unicode="&#35595;"
      horiz-adv-x="1000" vert-adv-y="1172"
      d="M402 496L344 543C375 588 401 637 424 690C446 743 463 795 475 847L475 847L550 831C541 797 533 768 524 745L524 745L648 745L648 678C633 595 609 526 577 471C545 416 497 360 432 303L432 303L382 361C436 406 477 450 504 492L504 492C467 527 445 548 437 555L437 555C427 536 415 517 402 496L402 496ZM268 697L381 697L381 618L48 618L48 697L184 697C172 738 159 775 144 809L144 809L218 836C232 802 249 756 268 697L268 697ZM646 439L646 502L672 626L737 620L717 512L775 512L775 655L672 655L672 729L775 729L775 834L846 834L846 729L934 729L934 655L846 655L846 512L946 512L946 439L846 439L846 335L775 335L775 439L646 439ZM574 671L495 671C490 660 483 643 472 620L472 620L539 558C552 589 563 627 574 671L574 671ZM344 472L86 472L86 550L344 550L344 472ZM344 404L344 327L86 327L86 404L344 404ZM932 210L745 210C795 140 867 77 962 22L962 22L915-52C819 12 745 85 692 168L692 168L692-73L616-73L616 164C591 120 560 80 525 44C489 8 444-29 389-67L389-67L340 7C396 41 440 73 473 104C506 135 534 170 559 210L559 210L391 210L391 288L616 288L616 390L692 390L692 288L932 288L932 210ZM337 258L337-37L85-37L85 258L337 258ZM263 41L263 181L159 181L159 41L263 41Z"/>
    <glyph glyph-name="" unicode="&#35596;"
      horiz-adv-x="1000" vert-adv-y="1172"
      d="M289 703L410 703L410 622L61 622L61 703L203 703C189 745 176 782 164 815L164 815L240 839C253 808 270 763 289 703L289 703ZM869 720L869 436L787 436L787 720L418 720L418 797L934 797L934 720L869 720ZM459 655L713 655L713 468L459 468L459 655ZM639 532L639 594L533 594L533 532L639 532ZM372 555L372 478L97 478L97 555L372 555ZM406 411L949 411L949 335L868 335L868 53C868 10 859-22 840-42C821-63 790-73 747-73L747-73C717-73 683-69 645-62L645-62L629 15C665 6 698 2 728 2L728 2C751 2 767 8 775 20C782 31 786 50 786 76L786 76L786 335L406 335L406 411ZM371 410L371 332L98 332L98 410L371 410ZM455 55L455 268L711 268L711 55L455 55ZM361 262L361-33L100-33L100 262L361 262ZM529 206L529 120L637 120L637 206L529 206ZM285 44L285 185L176 185L176 44L285 44Z"/>
    <glyph glyph-name="" unicode="&#35597;"
      horiz-adv-x="1000" vert-adv-y="1172"
      d="M884 593L855 558L940 558L940 407L856 407L856 495L534 495C547 476 561 454 576 429L576 429L847 429L847 371L160 371L160 429L469 429L445 467L505 495L143 495L143 407L60 407L60 558L140 558L114 595C157 612 189 629 211 644C233 659 248 676 257 695C266 714 270 739 270 770L270 770L270 839L349 839L349 769C349 747 347 727 342 709L342 709L397 669L488 604L449 558L534 558L505 605C546 620 576 634 597 648C617 661 631 678 640 697C648 716 652 741 652 773L652 773L652 840L731 840L731 771C731 748 728 725 723 704L723 704L741 692C802 651 849 618 884 593L884 593ZM635 722L580 678L499 774L552 816L596 766L635 722ZM248 717L193 672C178 689 158 713 131 742L131 742C133 740 125 749 108 768L108 768L162 811L248 717ZM444 804L498 765C488 752 475 737 459 719C443 700 429 685 416 672L416 672L363 713C376 726 390 741 407 760C424 779 436 793 444 804L444 804ZM839 803L894 760C867 731 834 700 797 666L797 666L747 709C762 723 778 739 795 756C812 773 826 789 839 803L839 803ZM315 651C290 615 251 584 198 558L198 558L439 558C422 572 387 598 335 636L335 636L315 651ZM694 646C670 615 628 585 569 558L569 558L815 558C776 587 736 617 694 646L694 646ZM187 279L187 333L817 333L817 279L187 279ZM817 240L817 188L187 188L187 240L817 240ZM240-26L240-71L156-71L156 151L842 151L842-71L757-71L757-26L240-26ZM240 33L757 33L757 93L240 93L240 33Z"/>
    <glyph glyph-name="" unicode="&#35598;"
      horiz-adv-x="1000" vert-adv-y="1172"
      d="M253 705L360 705L360 625L42 625L42 705L166 705C155 741 143 779 129 818L129 818L211 837C223 804 237 760 253 705L253 705ZM552 431L552 515L697 515L697 834L774 834L774 515L934 515L934 431L774 431L774 412C839 341 899 271 954 200L954 200L894 145C885 156 877 166 871 176C864 186 857 195 851 203L851 203L774 305L774 67L697 67L697 307C662 244 621 183 572 124L572 124L526 208C557 239 587 274 615 313C642 352 665 391 683 431L683 431L552 431ZM526 602L453 576C440 610 426 647 410 687C393 726 380 757 369 780L369 780L438 804C459 759 488 692 526 602L526 602ZM688 584L621 553C592 620 562 685 532 748L532 748L598 780C638 699 668 633 688 584L688 584ZM867 778L935 752C926 727 913 695 895 654C877 613 861 580 848 553L848 553L781 582C793 607 808 639 826 679C843 718 857 751 867 778L867 778ZM323 555L323 478L81 478L81 555L323 555ZM695 34C754 31 798 30 829 30L829 30C861 30 906 31 963 34L963 34L946-45C909-48 867-49 819-49L819-49C771-49 728-48 691-45L691-45C638-42 594-29 558-8C522 13 492 45 469 88L469 88C465 83 439 47 392-18L392-18L372-47L332 31L430 158L430 415L354 415L354 495L507 495L507 171C537 86 600 41 695 34L695 34ZM323 409L323 335L81 335L81 409L323 409ZM323 264L323-37L80-37L80 264L323 264ZM247 40L247 185L157 185L157 40L247 40Z"/>
    <glyph glyph-name="" unicode="&#35599;"
      horiz-adv-x="1000" vert-adv-y="1172"
      d="M951 3L926-79C825-55 741-22 672 19L672 19C610-15 520-47 402-76L402-76L370 2C464 21 540 44 599 71L599 71C550 111 502 163 454 227L454 227L415 227L415 303L625 303L625 378L420 378L420 750C471 762 525 780 582 803L582 803L610 731C575 716 537 702 496 690L496 690L496 608L597 608L597 537L496 537L496 454L625 454L625 844L699 844L699 454L832 454L832 537L726 537L726 608L832 608L832 697L726 697L726 767L908 767L908 378L699 378L699 303L893 303L893 229C868 194 845 163 822 137C799 111 773 88 746 67L746 67C803 39 872 18 951 3L951 3ZM271 703L392 703L392 623L52 623L52 703L187 703C174 746 162 783 150 813L150 813L225 837C243 790 258 746 271 703L271 703ZM355 553L355 476L88 476L88 553L355 553ZM355 406L355 329L88 329L88 406L355 406ZM344 260L344-35L90-35L90 260L344 260ZM794 227L552 227C590 179 630 141 671 112L671 112C710 139 751 177 794 227L794 227ZM270 43L270 183L164 183L164 43L270 43Z"/>
    <glyph glyph-name="" unicode="&#35600;"
      horiz-adv-x="1000" vert-adv-y="1172"
      d="M733 728L680 672C665 692 645 715 622 740C598 765 577 786 560 802L560 802L612 852C629 837 650 817 675 792C699 767 718 746 733 728L733 728ZM265 708L376 708L376 628L43 628L43 708L178 708C169 740 158 774 144 811L144 811L226 828C236 802 249 762 265 708L265 708ZM539 399C501 376 460 354 416 333L416 333L378 403C433 428 484 456 532 487L532 487L532 724L609 724L609 544C690 610 765 695 832 799L832 799L895 756C852 691 807 633 762 583C716 532 666 487 612 448L612 448C614 437 618 430 624 427C630 423 639 421 652 420L652 420C660 419 672 419 687 419L687 419C703 419 715 419 722 420L722 420C737 421 748 423 755 426C762 429 766 434 769 441C771 448 772 460 773 477L773 477L776 541L849 523C849 516 847 490 844 447L844 447C842 420 838 399 831 386C824 372 813 362 799 357C784 351 763 347 734 344L734 344C716 342 697 341 678 341L678 341C659 341 640 342 621 344L621 344C598 346 580 351 567 359C554 367 545 380 539 399L539 399ZM445 704L513 685C499 620 475 546 440 463L440 463L371 494C386 524 400 559 414 599C427 638 438 673 445 704L445 704ZM827 635L890 666C901 644 915 614 930 576C945 538 957 504 967 475L967 475L899 445C891 472 880 505 866 544C851 583 838 613 827 635L827 635ZM341 556L341 481L83 481L83 556L341 556ZM341 412L341 338L83 338L83 412L341 412ZM426 22L426 292L898 292L898 22L952 22L952-54L381-54L381 22L426 22ZM339 269L339-35L82-35L82 269L339 269ZM562 22L562 217L499 217L499 22L562 22ZM631 217L631 22L694 22L694 217L631 217ZM762 217L762 22L826 22L826 217L762 217ZM265 39L265 193L156 193L156 39L265 39Z"/>
    <glyph glyph-name="" unicode="&#35601;"
      horiz-adv-x="1000" vert-adv-y="1172"
      d="M271 697L387 697L387 618L47 618L47 697L188 697C176 738 163 776 150 810L150 810L224 834C234 808 250 762 271 697L271 697ZM419 672L481 710C464 709 441 707 410 706L410 706L401 780C476 783 563 788 663 797C762 806 847 815 917 825L917 825L930 752C763 732 613 718 481 710L481 710C484 705 499 681 526 638L526 638C533 627 539 617 545 608C551 599 556 591 559 585L559 585L497 546C495 551 487 564 474 585C460 606 450 623 443 634L443 634L419 672ZM824 553L762 594C799 640 829 685 852 729L852 729L918 689C889 643 858 598 824 553L824 553ZM733 591L668 559C665 566 656 585 641 617C625 649 612 674 602 693L602 693L668 722L700 658C719 619 730 597 733 591L733 591ZM941 128L709 128C731 96 763 70 804 49C845 28 897 11 962-1L962-1L930-77C865-63 810-43 766-18C721 7 685 40 656 81L656 81C636 46 606 15 567-10C527-35 471-60 398-83L398-83L360-6C432 11 485 30 518 50C551 70 576 96 591 128L591 128L386 128L386 197L613 197C619 232 623 256 624 269L624 269C559 267 505 264 462 260L462 260C427 256 412 254 417 255L417 255L405 322C432 325 457 332 480 342L480 342C507 357 551 383 611 421L611 421C544 419 492 416 457 412L457 412L426 409L414 472C433 475 450 480 463 487L463 487C499 507 549 544 612 599L612 599L661 549C619 515 586 491 561 477L561 477L704 484C746 515 775 537 792 552L792 552L841 500C796 463 754 431 715 406C676 381 632 356 581 331L581 331L810 343L763 399L821 437C858 397 901 345 952 280L952 280L893 237L861 279L708 273C706 252 702 226 695 197L695 197L941 197L941 128ZM350 550L350 472L86 472L86 550L350 550ZM350 404L350 328L86 328L86 404L350 404ZM340 258L340-37L85-37L85 258L340 258ZM265 41L265 181L160 181L160 41L265 41Z"/>
    <glyph glyph-name="" unicode="&#35602;"
      horiz-adv-x="1000" vert-adv-y="1172"
      d="M871 539L871 263L523 263C522 246 519 225 515 202L515 202L879 202L879-70L802-70L802-30L565-30L565-70L489-70L489 105C468 49 436-9 392-68L392-68L337-22L337-35L74-35L74 260L337 260L337-3C368 38 392 77 409 114C425 151 436 193 443 239C449 285 452 343 452 414L452 414L452 527C442 519 426 508 405 493L405 493L361 564C472 637 559 729 622 840L622 840L696 840C724 790 762 742 811 696C859 650 914 608 977 569L977 569L935 494C906 514 884 529 871 539L871 539ZM265 698L388 698L388 618L35 618L35 698L178 698C160 754 147 792 139 812L139 812L216 837C232 798 248 751 265 698L265 698ZM662 758C623 691 571 628 506 571L506 571L634 571L612 653L678 669C685 648 695 616 706 571L706 571L830 571C759 630 703 693 662 758L662 758ZM74 473L74 550L347 550L347 473L74 473ZM527 450L794 450L794 500L527 500L527 450ZM347 406L347 329L74 329L74 406L347 406ZM527 364L527 332L794 332L794 384L527 384L527 364ZM151 183L151 43L260 43L260 183L151 183ZM565 40L802 40L802 130L565 130L565 40Z"/>
    <glyph glyph-name="" unicode="&#35603;"
      horiz-adv-x="1000" vert-adv-y="1172"
      d="M279 701L397 701L397 622L55 622L55 701L196 701L158 814L232 839C241 816 254 779 271 726L271 726L279 701ZM881 629L881 176L958 176L958 109L404 109L404 176L460 176L460 629L623 629L623 690L422 690L422 759L623 759L623 837L699 837L699 759L935 759L935 690L699 690L699 629L881 629ZM536 514L804 514L804 565L536 565L536 514ZM359 554L359 476L94 476L94 554L359 554ZM536 452L536 401L804 401L804 452L536 452ZM359 409L359 332L94 332L94 409L359 409ZM536 288L804 288L804 339L536 339L536 288ZM350 264L350-31L95-31L95 264L350 264ZM804 176L804 228L536 228L536 176L804 176ZM275 46L275 187L170 187L170 46L275 46ZM395-80L362-10C405 6 446 24 485 45C524 65 558 86 586 107L586 107L629 45C598 24 562 3 520-20C477-43 436-63 395-80L395-80ZM708 40L745 103L811 70C877 37 927 12 962-7L962-7L927-77C895-58 858-36 815-13C772 10 736 27 708 40L708 40Z"/>
    <glyph glyph-name="" unicode="&#35604;"
      horiz-adv-x="1000" vert-adv-y="1172"
      d="M504 516L608 527L608 599L486 599L486 392C486 280 480 190 469 121C458 52 438-14 411-79L411-79L336-38C357 7 373 48 383 85C393 122 400 163 403 208C406 253 408 314 408 393L408 393L408 670L600 670L600 840L690 840L690 788L909 788L909 720L690 720L690 670L954 670L954 602L921 515L844 530L872 599L688 599L688 535L826 550L832 486L688 470L688 449C688 434 691 423 697 418C702 413 713 409 729 408L729 408C736 407 747 407 761 407L761 407C776 407 786 407 793 408L793 408C812 409 824 412 831 417C837 421 840 430 841 444L841 444L843 489L918 475C916 446 914 426 913 416L913 416C911 397 907 382 901 372C895 362 885 355 872 350C858 345 838 342 812 340L812 340C799 339 780 339 755 339L755 339C730 339 711 339 698 340L698 340C666 343 643 350 629 363C615 375 608 396 608 426L608 426L608 461L510 450L504 516ZM265 711L374 711L374 630L43 630L43 711L179 711C170 742 159 776 145 812L145 812L226 829C239 795 252 756 265 711L265 711ZM82 484L82 562L342 562L342 484L82 484ZM342 418L342 341L82 341L82 418L342 418ZM625 162L960 162L960 89L625 89L625 14L911 14L911-57L547-57L547 89L491 89L491 162L547 162L547 299L898 299L898 228L625 228L625 162ZM82-21L82 273L340 273L340-21L82-21ZM158 197L158 53L265 53L265 197L158 197Z"/>
    <glyph glyph-name="" unicode="&#35605;"
      horiz-adv-x="1000" vert-adv-y="1172"
      d="M250 707L367 707L367 627L31 627L31 707L168 707C158 740 146 776 132 813L132 813L206 835C221 795 236 752 250 707L250 707ZM875 492L580 492L580 341C580 274 578 220 573 177C568 134 559 93 546 55C533 16 513-26 486-73L486-73L426-30C452 13 471 52 484 87C496 122 504 158 508 195C511 232 513 281 513 343L513 343L513 558L657 558L657 710C591 703 528 698 468 695L468 695L468 462C468 334 461 230 447 151C432 72 406-5 367-79L367-79L300-36L72-36L72 259L319 259L319 4C339 48 354 90 365 129C375 168 382 214 387 265C391 316 393 382 393 465L393 465L393 770C478 774 567 780 662 790C757 799 843 808 921 819L921 819L935 741C874 733 805 725 728 717L728 717L728 656L910 656L910 598L728 598L728 558L942 558L942 495L914 418L852 430L875 492ZM68 557L332 557L332 480L68 480L68 557ZM734 252C709 253 692 259 682 271C672 282 667 302 667 330L667 330L667 359L605 350L600 409L667 418L667 468L735 468L735 427L831 439L836 383L735 369L735 354C735 339 737 328 741 323C744 317 753 313 766 312L766 312C772 311 780 311 791 311L791 311C802 311 811 311 817 312L817 312C832 313 842 316 847 321C852 326 854 336 855 352L855 352C855 369 855 385 856 398L856 398L913 385C913 374 912 355 909 327L909 327C907 298 901 279 892 269C883 259 864 253 837 252L837 252C825 251 808 251 787 251L787 251C766 251 748 251 734 252L734 252ZM66 333L66 409L332 409L332 333L66 333ZM899 156L956 143C955 99 953 58 950 21L950 21C949-8 944-29 935-40C926-52 908-58 883-58L883-58L830-58C806-58 789-52 780-40C770-29 765-9 765 18L765 18L765 150L696 150L696 123C696 80 689 42 674 11C659-20 632-51 594-81L594-81L549-32C575-11 594 8 605 25C616 42 624 59 627 78C630 96 632 122 632 157L632 157L632 215L832 215L832 44C832 32 833 24 836 20C839 15 845 13 854 13L854 13L869 13C880 13 887 16 891 21C894 26 896 35 896 48L896 48C897 56 897 66 897 77C897 88 897 99 898 110L898 110L899 156ZM142 182L142 42L248 42L248 182L142 182Z"/>
    <glyph glyph-name="" unicode="&#35606;"
      horiz-adv-x="1000" vert-adv-y="1172"
      d="M271 711L381 711L381 630L43 630L43 711L183 711C175 740 164 774 151 811L151 811L233 827C247 790 260 752 271 711L271 711ZM559 449L600 400C575 377 544 352 508 327C472 302 435 279 397 258L397 258L361 325C395 342 428 361 460 383C492 405 520 427 544 449L544 449L429 449L429 797L910 797L910 449L775 449C848 407 914 367 972 330L972 330L934 264C905 285 869 309 828 336C787 362 753 381 726 394L726 394L763 449L559 449ZM508 658L633 658L633 726L508 726L508 658ZM708 726L708 658L833 658L833 726L708 726ZM633 522L633 587L508 587L508 522L633 522ZM833 587L708 587L708 522L833 522L833 587ZM84 562L345 562L345 484L84 484L84 562ZM84 341L84 419L345 419L345 341L84 341ZM870 301L870 230C833 168 791 118 744 79L744 79C799 53 873 30 966 9L966 9L931-76C820-44 734-9 672 29L672 29C609-10 517-46 398-80L398-80L364-4C465 23 544 51 601 79L601 79C568 106 540 138 515 174L515 174C484 147 452 122 418 98L418 98L373 156C414 183 454 216 492 253C530 290 559 326 580 360L580 360L653 345C644 329 635 314 626 301L626 301L870 301ZM346 275L346-30L85-30L85 275L346 275ZM569 227C596 185 630 149 672 120L672 120C714 149 750 186 780 230L780 230L571 230C570 229 569 228 569 227L569 227ZM266 50L266 196L165 196L165 50L266 50Z"/>
    <glyph glyph-name="" unicode="&#35607;"
      horiz-adv-x="1000" vert-adv-y="1172"
      d="M856 479L480 479L480 405L400 405L400 557L517 557C513 576 503 613 488 669L488 669L406 669L406 748L630 748L607 804L593 837L684 856L728 748L937 748L937 669L839 669C832 642 822 605 807 557L807 557L936 557L936 405L856 405L856 479ZM272 707L380 707L380 625L44 625L44 707L182 707C175 725 172 735 171 738L171 738C150 791 139 821 136 828L136 828L218 849C229 822 247 774 272 707L272 707ZM754 669L573 669L604 557L722 557C731 585 742 622 754 669L754 669ZM81 478L81 558L346 558L346 478L81 478ZM956 369L956 290L594 290C591 252 588 228 587 219L587 219L881 219C880 199 879 171 876 134C873 97 869 69 866 48L866 48C861 15 855-9 846-24C837-40 824-51 806-57C788-64 761-67 726-67L726-67C696-67 665-65 634-61L634-61L617 20C660 14 696 11 725 11L725 11C744 11 758 15 766 24C774 32 780 47 784 70L784 70C789 93 791 115 791 137L791 137L573 137C561 90 542 50 517 16C492-18 455-52 408-86L408-86L353-11C389 14 417 38 436 59C455 80 470 104 480 131C489 157 496 190 501 230L501 230L504 254L507 290L391 290L391 369L636 369C625 396 614 418 605 436L605 436L691 456L731 369L956 369ZM346 411L346 332L81 332L81 411L346 411ZM349 267L349-30L79-30L79 267L349 267ZM267 50L267 185L162 185L162 50L267 50Z"/>
    <glyph glyph-name="" unicode="&#35608;"
      horiz-adv-x="1000" vert-adv-y="1172"
      d="M251 710L364 710L364 630L33 630L33 710L169 710C159 743 146 780 131 823L131 823L205 847C219 810 234 765 251 710L251 710ZM929 785L929 564L470 564L470 456C470 368 468 296 463 240C458 184 450 133 438 87C425 40 407-10 383-65L383-65L308-32L313-22L68-22L68 273L321 273L321-3C342 44 357 88 366 129C375 170 382 214 385 262C388 310 389 377 389 463L389 463L389 785L929 785ZM470 638L846 638L846 708L470 708L470 638ZM69 485L69 562L328 562L328 485L69 485ZM955 291L955 218L749 218L749 133L934 133L934 57L749 57L749-75L668-75L668 57L492 57L492 133L668 133L668 218L472 218L472 291L588 291L560 400L509 400L509 473L676 473L667 495L655 528L726 550L754 473L921 473L921 400L855 400L829 291L955 291ZM328 418L328 340L69 340L69 418L328 418ZM784 400L633 400C634 397 635 393 636 388C637 383 639 378 640 371L640 371C651 330 657 303 660 291L660 291L759 291C769 328 777 364 784 400L784 400ZM142 196L142 55L247 55L247 196L142 196Z"/>
    <glyph glyph-name="" unicode="&#35609;"
      horiz-adv-x="1000" vert-adv-y="1172"
      d="M899 224L776 224C823 151 887 88 968 35L968 35L920-44C855 6 799 64 754 131L754 131L754-78L681-78L681 224L600 224L600-78L528-78L528 114C491 59 446 6 392-43L392-43L343 31C412 84 469 148 513 224L513 224L398 224L398 296L528 296L528 368L375 368L375 440L528 440L528 511L411 511L411 584L528 584L528 660L396 660L396 737L508 737C493 769 481 796 470 818L470 818L545 851L571 794L597 737L697 737C713 765 733 804 756 855L756 855L833 823C818 791 803 762 789 737L789 737L933 737L933 660L754 660L754 584L899 584L899 440L958 440L958 368L899 368L899 224ZM277 711L369 711L369 630L52 630L52 711L191 711C174 758 160 795 147 822L147 822L230 844C249 793 265 748 277 711L277 711ZM681 584L681 660L600 660L600 584L681 584ZM339 561L339 483L87 483L87 561L339 561ZM681 440L681 511L600 511L600 440L681 440ZM754 440L830 440L830 511L754 511L754 440ZM87 339L87 417L338 417L338 339L87 339ZM681 368L600 368L600 296L681 296L681 368ZM754 368L754 296L830 296L830 368L754 368ZM339 270L339-32L86-32L86 270L339 270ZM264 43L264 193L162 193L162 43L264 43Z"/>
    <glyph glyph-name="" unicode="&#35610;"
      horiz-adv-x="1000" vert-adv-y="1172"
      d="M784 661L936 661L936 577L411 577L411 661L541 661C530 681 516 706 498 736C479 765 465 787 454 801L454 801L524 842C574 764 605 715 617 694L617 694L563 661L691 661C728 720 762 782 794 846L794 846L867 809C851 778 823 728 784 661L784 661ZM272 711L386 711L386 630L46 630L46 711L184 711C173 749 162 782 150 810L150 810L233 828C242 805 255 766 272 711L272 711ZM353 559L353 482L84 482L84 559L353 559ZM889 320L889 34L948 34L948-46L378-46L378 34L432 34L432 318L421 310L375 377C406 400 440 427 475 459C510 490 542 522 572 555L572 555L629 499C586 450 530 398 463 342L463 342L866 342C805 400 747 451 692 496L692 496L744 558C782 527 855 463 962 368L962 368L908 302L889 320ZM353 412L353 335L84 335L84 412L353 412ZM350 267L350-37L85-37L85 267L350 267ZM564 34L564 262L504 262L504 34L564 34ZM631 262L631 34L691 34L691 262L631 262ZM757 262L757 34L816 34L816 262L757 262ZM273 42L273 188L163 188L163 42L273 42Z"/>
    <glyph glyph-name="" unicode="&#35611;"
      horiz-adv-x="1000" vert-adv-y="1172"
      d="M270 712L373 712L373 631L46 631L46 712L183 712C174 743 161 782 144 827L144 827L225 848C237 817 252 771 270 712L270 712ZM959 516L959 449L697 449L697 391L895 391L895 145L959 145L959 77L895 77L895 32C895 7 893-12 888-26C883-40 873-50 860-57C846-64 826-67 801-67L801-67C770-68 733-66 691-63L691-63L677 9C709 5 741 3 772 3L772 3C791 3 803 7 808 14C813 21 816 33 816 50L816 50L816 77L500 77L500-70L419-70L419 77L358 77L358 145L419 145L419 391L619 391L619 449L376 449L376 516L511 516L511 574L405 574L405 638L511 638L511 694L397 694L397 761L511 761L511 839L591 839L591 761L726 761L726 839L807 839L807 761L941 761L941 694L807 694L807 638L920 638L920 574L807 574L807 516L959 516ZM726 638L726 694L591 694L591 638L726 638ZM726 516L726 574L591 574L591 516L726 516ZM336 558L336 481L79 481L79 558L336 558ZM336 411L336 336L79 336L79 411L336 411ZM500 265L619 265L619 325L500 325L500 265ZM697 265L816 265L816 325L697 325L697 265ZM335 265L335-38L79-38L79 265L335 265ZM619 145L619 202L500 202L500 145L619 145ZM816 202L697 202L697 145L816 145L816 202ZM261 36L261 190L154 190L154 36L261 36Z"/>
    <glyph glyph-name="" unicode="&#35612;"
      horiz-adv-x="1000" vert-adv-y="1172"
      d="M267 703L385 703L385 623L47 623L47 703L185 703C169 753 156 791 146 817L146 817L220 841C227 822 243 776 267 703L267 703ZM905 611L905 237L756 237L756 47C756 6 749-24 736-42C722-60 698-69 663-69L663-69C639-69 614-66 587-61L587-61L572 16C599 11 620 8 635 8L635 8C652 8 663 14 670 25C677 36 680 53 680 77L680 77L680 237L540 237L540 611L666 611C676 656 683 688 686 708L686 708L489 708L489 457C489 366 487 293 482 236C477 179 468 127 455 79C442 30 422-22 395-77L395-77L324-40L329-31L83-31L83 265L337 265L337-14C360 34 377 80 388 123C399 166 406 211 409 259C412 307 414 372 414 454L414 454L414 790L958 790L958 708L769 708L745 611L905 611ZM85 477L85 555L345 555L345 477L85 477ZM614 460L831 460L831 535L614 535L614 460ZM345 409L345 333L85 333L85 409L345 409ZM831 312L831 387L614 387L614 312L831 312ZM574 198L639 163C623 129 603 93 580 54C556 15 533-19 510-49L510-49L449-5C473 26 496 59 518 95C540 131 559 165 574 198L574 198ZM788 157L848 194C898 119 940 53 975-4L975-4L911-44C899-19 881 12 857 52C832 91 809 126 788 157L788 157ZM158 187L158 47L263 47L263 187L158 187Z"/>
    <glyph glyph-name="" unicode="&#35613;"
      horiz-adv-x="1000" vert-adv-y="1172"
      d="M255 713L347 713L347 628L43 628L43 713L168 713C158 748 147 785 134 822L134 822L213 843C231 798 245 754 255 713L255 713ZM489 839L573 827C568 804 559 774 547 738L547 738L655 738L655 40C655-1 648-29 634-45C619-62 596-70 564-71L564-71C533-71 506-69 484-66L484-66L466 20C493 15 516 13 536 13L536 13C554 13 566 16 573 23C579 30 582 43 582 63L582 63L582 213L575 213C532 127 467 48 381-23L381-23L332 47C367 72 397 98 423 125C448 151 471 180 491 213L491 213L342 213L342 294L384 294L384 738L461 738C476 787 486 821 489 839L489 839ZM900 624L958 624L958 539L900 539L900 48C900 4 891-27 873-44C855-62 824-71 779-71L779-71C765-71 745-70 718-67L718-67L700 24C724 20 748 18 771 18L771 18C790 18 803 23 810 32C817 41 820 56 820 77L820 77L820 539L684 539L684 624L820 624L820 834L900 834L900 624ZM459 661L459 587L582 587L582 661L459 661ZM81 482L81 557L310 557L310 482L81 482ZM582 440L582 515L459 515L459 440L582 440ZM803 234L735 212C726 249 717 290 706 333C695 376 686 413 677 444L677 444L742 463C757 411 778 335 803 234L803 234ZM310 412L310 336L81 336L81 412L310 412ZM582 294L582 370L459 370L459 294L582 294ZM313 268L313-42L79-42L79 268L313 268ZM239 35L239 190L153 190L153 35L239 35Z"/>
    <glyph glyph-name="" unicode="&#35614;"
      horiz-adv-x="1000" vert-adv-y="1172"
      d="M727 754L947 754L947 680L404 680L404 754L631 754C627 765 620 781 611 802L611 802L599 830L686 853C692 840 702 815 717 780L717 780L727 754ZM139 821L214 845C231 803 246 757 261 707L261 707L377 707L377 627L40 627L40 707L177 707C166 746 153 784 139 821L139 821ZM878 424L460 424L460 625L878 625L878 424ZM339 559L339 483L78 483L78 559L339 559ZM535 554L535 493L803 493L803 554L535 554ZM339 414L339 337L78 337L78 414L339 414ZM490-68L416-68L416 368L926 368L926 47C926 4 920-26 907-43C894-60 871-69 837-69L837-69C811-69 788-66 769-61L769-61L754 12C772 7 792 4 814 4L814 4C828 4 838 9 843 20C848 31 851 47 851 69L851 69L851 295L490 295L490-68ZM331 268L331-27L76-27L76 268L331 268ZM551 38L551 238L791 238L791 38L551 38ZM257 50L257 191L151 191L151 50L257 50ZM621 175L621 103L722 103L722 175L621 175Z"/>
    <glyph glyph-name="" unicode="&#35615;"
      horiz-adv-x="1000" vert-adv-y="1172"
      d="M147 813L222 838C236 803 252 756 269 699L269 699L390 699L390 620L48 620L48 699L186 699C172 744 159 782 147 813L147 813ZM917 830L933 744C858 731 771 719 674 708C576 697 488 689 411 686L411 686L402 770C481 773 567 781 662 792C757 803 842 815 917 830L917 830ZM824 462L756 499C802 575 839 642 866 700L866 700L936 669C923 642 906 608 885 569C864 529 843 493 824 462L824 462ZM725 519L650 500C639 539 622 595 599 666L599 666L672 685L725 519ZM546 495L473 469C446 551 425 609 410 644L410 644L484 666C501 623 518 575 536 522L536 522L546 495ZM353 552L353 476L81 476L81 552L353 552ZM836 353L694 353L694 437L918 437L918-60L836-60L836-28L492-28L492-60L411-60L411 409C442 415 478 424 517 437C556 450 589 463 617 476L617 476L646 396C623 385 597 374 568 364C539 353 514 346 492 341L492 341L492 248L647 248L647 168L492 168L492 51L836 51L836 168L699 168L699 248L836 248L836 353ZM353 407L353 332L81 332L81 407L353 407ZM339 262L339-33L85-33L85 262L339 262ZM265 44L265 184L159 184L159 44L265 44Z"/>
    <glyph glyph-name=" " unicode="&#35616;"
      horiz-adv-x="1000" vert-adv-y="1172"
      d="M950 174L695 174L695 37L821 37L821 134L903 134L903-82L821-82L821-43L407-43L407 133L488 133L488 37L615 37L615 174L360 174L360 249L615 249L615 346L497 346C481 320 460 291 434 259L434 259L370 308C401 343 428 381 451 423L451 423L397 411L374 480C430 493 482 508 529 525L529 525C497 552 466 578 436 601L436 601C431 597 422 592 410 585L410 585L373 653L373 618L48 618L48 697L180 697C168 742 156 780 144 811L144 811L217 836C225 815 240 768 261 697L261 697L373 697L373 656C417 681 457 709 495 740C532 771 563 803 590 836L590 836L661 799C648 783 634 768 621 753L621 753L915 753L915 684C879 637 829 593 764 554C699 514 628 480 550 453L550 453C548 448 546 443 544 438C541 433 539 427 536 421L536 421L913 421L913 346L695 346L695 249L950 249L950 174ZM717 610C760 637 792 661 811 683L811 683L621 683L717 610ZM491 637C510 623 546 595 601 553L601 553C617 559 635 567 654 576L654 576C585 630 544 661 532 670L532 670C528 667 514 656 491 637L491 637ZM336 550L336 472L85 472L85 550L336 550ZM336 405L336 328L85 328L85 405L336 405ZM328 259L328-36L85-36L85 259L328 259ZM257 42L257 182L157 182L157 42L257 42Z"/>
    <glyph glyph-name="!" unicode="&#35617;"
      horiz-adv-x="1000" vert-adv-y="1172"
      d="M918 840L932 757C859 747 779 738 690 731C601 723 516 717 436 714L436 714L426 797C501 799 583 804 672 812C761 819 843 829 918 840L918 840ZM150 808L235 832C256 785 273 744 285 707L285 707L394 707L394 624L48 624L48 707L191 707C176 750 162 784 150 808L150 808ZM847 509L773 542C782 559 796 585 813 622C830 659 845 692 857 721L857 721L936 693C926 668 912 638 895 602C877 565 861 534 847 509L847 509ZM741 554L664 525C656 544 645 570 632 602C618 634 606 661 596 683L596 683L671 710C680 691 692 666 707 634C721 601 732 575 741 554L741 554ZM573 566L500 532C493 547 483 569 469 597C454 625 442 648 432 666L432 666L503 701C513 684 536 639 573 566L573 566ZM86 477L86 556L354 556L354 477L86 477ZM957 211L719 211L719 41L817 41L817 170L903 170L903-78L817-78L817-40L433-40L433 168L518 168L518 41L632 41L632 211L397 211L397 291L632 291L632 389L516 389C500 361 484 335 467 310L467 310L396 353C432 399 463 455 490 520L490 520L566 501L554 469L918 469L918 389L719 389L719 291L957 291L957 211ZM354 410L354 330L86 330L86 410L354 410ZM357 265L357-40L86-40L86 265L357 265ZM282 37L282 186L165 186L165 37L282 37Z"/>
    <glyph glyph-name=""" unicode="&#35618;"
      horiz-adv-x="1000" vert-adv-y="1172"
      d="M257 708L375 708L375 629L37 629L37 708L173 708C166 731 154 768 136 820L136 820L211 844C226 805 242 759 257 708L257 708ZM379 498L335 569C400 645 451 736 488 842L488 842L564 820C551 787 539 757 527 732L527 732L668 732C657 767 647 795 638 816L638 816L713 835C718 824 722 813 726 803C729 793 732 784 735 777L735 777C739 765 744 750 751 732L751 732L936 732L936 666L736 666L736 607L916 607L916 543L736 543L736 486L916 486L916 424L736 424L736 359L951 359L951 295L425 294L425 559C410 538 395 518 379 498L379 498ZM505 666L505 607L657 607L657 666L505 666ZM336 560L336 483L73 483L73 560L336 560ZM505 543L505 486L657 486L657 543L505 543ZM505 424L505 359L657 359L657 424L505 424ZM336 413L336 337L73 337L73 413L336 413ZM327 267L327-28L72-28L72 267L327 267ZM971 8L951-73C856-58 766-29 682 14L682 14C601-23 496-54 367-78L367-78L343-1C440 12 526 33 600 61L600 61C553 90 500 129 440 179L440 179L391 179L391 247L906 247L906 178C868 134 822 95 768 60L768 60C833 35 901 17 971 8L971 8ZM253 49L253 190L147 190L147 49L253 49ZM804 179L560 179C603 148 645 121 686 99L686 99C731 123 770 150 804 179L804 179Z"/>
    <glyph glyph-name="#" unicode="&#35619;"
      horiz-adv-x="1000" vert-adv-y="1172"
      d="M133 825L206 849C221 810 236 764 251 712L251 712L360 712L360 632L39 632L39 712L170 712C161 745 148 783 133 825L133 825ZM625 420L625 609L450 609L450 495L380 495L380 671L625 671L625 725L431 725L431 792L895 792L895 725L697 725L697 671L940 671L940 496L872 496L872 609L697 609L697 420L625 420ZM475 522L475 569L599 569L599 522L475 522ZM846 522L724 522L724 569L846 569L846 522ZM328 564L328 487L74 487L74 564L328 564ZM850 486L850 437L724 437L724 486L850 486ZM599 485L599 437L472 437L472 485L599 485ZM328 419L328 342L74 342L74 419L328 419ZM902 393L902 331L416 331L416 393L902 393ZM955 281L955 218L558 218L542 162L889 162C887 128 883 90 876 49L876 49C869 9 856-20 836-38C816-57 783-66 737-66L737-66C705-66 660-62 603-54L603-54L590 13C608 9 631 6 659 4C686 1 709 0 726 0L726 0C751 0 768 5 778 14C787 23 794 39 799 60L799 60C802 72 803 84 804 97L804 97L445 97L475 218L371 218L371 281L955 281ZM320 274L320-21L72-21L72 274L320 274ZM247 56L247 196L145 196L145 56L247 56Z"/>
    <glyph glyph-name="$" unicode="&#35620;"
      horiz-adv-x="1000" vert-adv-y="1172"
      d="M257 706L371 706L371 629L35 629L35 706L173 706C159 751 146 789 134 820L134 820L210 844C225 807 241 761 257 706L257 706ZM395 417L395 646L548 646L548 723L382 723L382 796L938 796L938 723L765 723L765 646L918 646L918 417L395 417ZM619 723L619 646L694 646L694 723L619 723ZM548 485L548 576L469 576L469 485L548 485ZM694 485L694 576L619 576L619 485L694 485ZM765 485L844 485L844 576L765 576L765 485ZM73 483L73 559L334 559L334 483L73 483ZM334 414L334 338L73 338L73 414L334 414ZM410 361L901 361L901 293L410 293L410 361ZM326 269L326-27L72-27L72 269L326 269ZM953 236L953 166L700 166L700 35C700-2 692-28 676-44C659-61 632-69 595-69L595-69C563-69 535-66 510-60L510-60L495 12C521 5 547 1 574 1L574 1C593 1 607 6 614 16C621 25 625 40 625 61L625 61L625 166L367 166L367 236L953 236ZM252 51L252 192L147 192L147 51L252 51ZM478 154L539 109C510 71 458 15 383-59L383-59L329-5C358 21 386 48 413 77C439 105 461 131 478 154L478 154ZM752 101L809 151C867 92 917 40 958-5L958-5L899-58C882-36 841 8 777 75L777 75L752 101Z"/>
    <glyph glyph-name="%" unicode="&#35621;"
      horiz-adv-x="1000" vert-adv-y="1172"
      d="M659 757L914 757L914 264L398 264L398 757L571 757C584 788 596 819 606 850L606 850L687 829C680 809 671 785 659 757L659 757ZM260 704L374 704L374 625L41 625L41 704L178 704C167 744 154 782 141 817L141 817L216 841C234 790 249 744 260 704L260 704ZM477 344L835 344L835 680L606 680L656 657L635 621L806 621L806 564C782 526 753 493 718 464L718 464C759 441 786 424 801 414L801 414L766 358C747 372 714 394 666 424L666 424C624 397 577 372 526 350L526 350L493 404C534 421 572 439 607 460L607 460C593 469 577 479 558 490L558 490L591 539C603 532 626 518 661 498L661 498C687 519 709 541 728 564L728 564L597 564C574 533 550 504 525 479L525 479L479 524C501 544 523 568 544 597C565 626 583 653 597 680L597 680L477 680L477 344ZM79 479L79 558L337 558L337 479L79 479ZM337 412L337 335L79 335L79 412L337 412ZM329-30L78-30L78 265L329 265L329-30ZM739 126L682 83C655 126 624 172 587 222L587 222L642 261C671 224 703 179 739 126L739 126ZM745 55C746 70 748 86 749 103C750 120 750 134 750 146L750 146L823 133C823 118 823 99 822 78C821 56 819 39 817 27L817 27C814 4 809-14 801-26C793-39 781-48 764-53C747-59 723-63 692-65L692-65C671-66 654-67 642-67L642-67C631-67 615-66 595-65L595-65C556-62 529-54 514-41C499-29 491-6 491 27L491 27L491 228L568 228L568 57C568 42 572 32 579 26C586 20 599 16 616 15L616 15C623 14 635 14 651 14L651 14C668 14 680 14 689 15L689 15C711 16 726 19 733 24C740 29 744 39 745 55L745 55ZM806 196L866 228C882 200 900 167 921 128C941 89 958 55 972 24L972 24L909-11L895 18C856 102 826 161 806 196L806 196ZM393-12L329 17C344 44 360 76 375 114C390 152 403 188 413 221L413 221L476 201C466 165 454 128 439 90C424 52 409 18 393-12L393-12ZM151 188L151 47L256 47L256 188L151 188Z"/>
    <glyph glyph-name="'" unicode="&#35623;"
      horiz-adv-x="1000" vert-adv-y="1172"
      d="M137 820L210 843C224 806 239 761 256 706L256 706L371 706L371 626L36 626L36 706L174 706C166 734 154 772 137 820L137 820ZM721 733L944 733L944 659L389 659L389 733L628 733C617 768 606 796 597 817L597 817L680 840C695 807 708 771 721 733L721 733ZM544 444L514 500C549 517 578 533 602 546L602 546C585 556 558 573 521 596L521 596L554 646C585 629 622 607 665 582L665 582C696 602 729 624 763 649L763 649L801 600C772 579 746 562 723 547L723 547L746 532C770 519 791 505 810 492L810 492L774 438C769 441 755 449 733 463L733 463C707 480 683 495 661 508L661 508C628 489 589 467 544 444L544 444ZM904 358L701 358C696 338 689 315 680 290L680 290L928 290L928 28C928-12 920-40 903-57C886-74 857-82 817-82L817-82C792-82 769-80 747-76L747-76L733-7C752-12 771-14 791-14L791-14C815-14 831-9 840 2C849 13 853 30 853 55L853 55L853 215L654 215C639 178 623 141 606 106L606 106L719 118C704 147 693 167 686 179L686 179L743 208C771 159 801 103 832 41L832 41L774 11L754 50C669 43 603 36 557 29L557 29C549 28 540 27 530 24L530 24L508 96C516 99 523 105 530 112C536 119 541 128 544 137L544 137C557 164 567 190 576 215L576 215L470 215L470-80L396-80L396 290L601 290L620 358L419 358L419 619L492 619L492 429L831 429L831 619L904 619L904 358ZM334 558L334 481L73 481L73 558L334 558ZM334 413L334 336L73 336L73 413L334 413ZM326 268L326-27L71-27L71 268L326 268ZM252 50L252 191L146 191L146 50L252 50Z"/>
    <glyph glyph-name="(" unicode="&#35624;"
      horiz-adv-x="1000" vert-adv-y="1172"
      d="M595 676L595 615L515 615L515 676L406 676L406 753L515 753L515 843L595 843L595 753L725 753L725 843L804 843L804 753L940 753L940 676L804 676L804 615L725 615L725 676L595 676ZM269 709L376 709L376 627L46 627L46 709L182 709C174 738 163 772 148 811L148 811L231 827C241 802 251 770 262 732L262 732C263 729 266 721 269 709L269 709ZM943 142L730 142C759 109 792 81 828 59C863 37 909 17 964-2L964-2L935-81C872-60 820-35 779-6C737 23 697 61 660 108L660 108C636 68 601 32 556 1C511-30 454-58 386-82L386-82L357-2C418 19 467 41 506 64C544 87 572 113 591 142L591 142L385 142L385 220L618 220C619 225 619 232 619 241L619 241L619 281L429 281L429 597L892 597L892 281L700 281C700 276 699 262 698 241L698 241C698 236 697 229 696 220L696 220L943 220L943 142ZM346 557L346 480L83 480L83 557L346 557ZM511 471L811 471L811 529L511 529L511 471ZM346 412L346 335L83 335L83 412L346 412ZM811 349L811 406L511 406L511 349L811 349ZM345 268L345-36L84-36L84 268L345 268ZM265 43L265 188L165 188L165 43L265 43Z"/>
    <glyph glyph-name=")" unicode="&#35625;"
      horiz-adv-x="1000" vert-adv-y="1172"
      d="M945 384L725 384C782 340 862 306 963 283L963 283L939 215C882 230 829 251 779 276L779 276L232 276C186 251 131 228 66 206L66 206L35 274C137 307 216 344 273 384L273 384L58 384L58 437L334 437C349 453 359 465 365 474L365 474L164 474L164 683L297 683L297 731L59 731L59 789L297 789L297 841L380 841L380 789L618 789L618 841L701 841L701 789L939 789L939 731L701 731L701 683L833 683L833 474L455 474C450 465 441 453 429 437L429 437L945 437L945 384ZM618 683L618 731L380 731L380 683L618 683ZM245 602L751 602L751 634L245 634L245 602ZM751 521L751 556L245 556L245 521L751 521ZM552 322L699 322C672 339 646 360 620 384L620 384L382 384C360 362 335 341 308 322L308 322L473 322C465 338 458 350 451 359L451 359L523 378C532 365 542 346 552 322L552 322ZM190 204L190 246L813 246L813 204L190 204ZM813 175L813 132L190 132L190 175L813 175ZM243-40L243-74L161-74L161 101L840 101L840-74L758-74L758-40L243-40ZM243 14L758 14L758 53L243 53L243 14Z"/>
    <glyph glyph-name="*" unicode="&#35626;"
      horiz-adv-x="1000" vert-adv-y="1172"
      d="M944 747L944 669L805 669C796 622 788 583 781 552L781 552L913 552L913 57C913 12 905-19 889-38C872-57 846-67 810-67L810-67C779-67 749-65 719-60L719-60L704 16C730 11 755 9 780 9L780 9C801 9 816 14 824 25C831 35 835 52 835 76L835 76L835 295L799 259L775 292L775 43L533 43L533 289L505 253L472 289L472-64L394-64L394 552L519 552C515 595 510 634 504 669L504 669L376 669L376 747L626 747L592 826L668 854C675 842 691 806 716 747L716 747L944 747ZM123 811L195 838C210 806 227 760 246 701L246 701L361 701L361 621L26 621L26 701L163 701C153 732 140 769 123 811L123 811ZM593 552L707 552C716 595 723 634 729 669L729 669L576 669L582 626L593 552ZM324 553L324 475L63 475L63 553L324 553ZM835 332L835 477L472 477L472 327C524 390 560 437 579 466L579 466L635 424C622 404 593 365 548 307L548 307L764 307C711 378 680 417 672 424L672 424L728 469L772 413L835 332ZM324 408L324 330L63 330L63 408L324 408ZM317 262L317-34L62-34L62 262L317 262ZM606 238L606 112L702 112L702 238L606 238ZM242 44L242 185L137 185L137 44L242 44Z"/>
    <glyph glyph-name="+" unicode="&#35627;"
      horiz-adv-x="1000" vert-adv-y="1172"
      d="M949 743L949 664L818 664C811 636 802 601 790 559L790 559L919 559L919 54C919 8 911-24 895-43C878-62 853-71 820-72L820-72C785-73 752-72 723-67L723-67L708 3C742-2 771-4 795-4L795-4C812-3 824 2 831 12C837 21 840 39 840 64L840 64L840 484L694 484L694 411L811 411L811 342L694 342L694 274L785 274L785 43L530 43L530 274L620 274L620 342L500 342L500 411L620 411L620 484L474 484L474-69L395-69L395 559L519 559C518 564 511 589 500 634L500 634L492 664L385 664L385 743L620 743L584 837L672 849L712 743L949 743ZM144 812L225 828C236 800 246 767 257 729L257 729L264 707L362 707L362 626L48 626L48 707L178 707C167 746 156 781 144 812L144 812ZM601 559L710 559C719 588 729 623 739 664L739 664L573 664C575 658 578 647 582 631L582 631L601 559ZM85 478L85 554L333 554L333 478L85 478ZM333 407L333 331L85 331L85 407L333 407ZM336 263L336-44L85-44L85 263L336 263ZM599 205L599 107L716 107L716 205L599 205ZM265 31L265 186L158 186L158 31L265 31Z"/>
    <glyph glyph-name="," unicode="&#35628;"
      horiz-adv-x="1000" vert-adv-y="1172"
      d="M269 711L371 711L371 630L44 630L44 711L182 711C173 742 160 781 143 826L143 826L226 845C235 821 249 776 269 711L269 711ZM382 259L355 332C406 351 454 375 499 402C543 429 581 459 612 490L612 490L566 490L566 532L533 516C481 489 436 468 398 451L398 451L369 518C439 547 505 577 566 608L566 608L566 720L449 720C464 705 493 675 537 629L537 629L487 584L400 677L447 720L381 720L381 795L642 795L642 500L690 500L671 540C693 549 723 563 762 581C800 598 827 612 843 621L843 621L843 720L721 720C740 703 768 674 806 632L806 632L757 588C724 626 696 657 674 681L674 681L719 720L671 720L671 794L919 794L919 456L843 456L843 549L716 483C745 453 780 425 822 400C863 374 909 352 959 333L959 333L932 258C877 282 826 310 780 341C734 372 696 403 665 436L665 436C632 403 592 372 545 342C497 311 443 284 382 259L382 259ZM81 482L81 559L341 559L341 482L81 482ZM341 414L341 338L81 338L81 414L341 414ZM707 375L743 322C704 295 659 268 608 243C556 218 503 196 450 177L450 177L425 240C522 272 616 317 707 375L707 375ZM438 49L415 119C488 140 554 164 615 191C676 218 737 250 799 287L799 287L837 228C774 190 711 157 648 128C584 99 514 72 438 49L438 49ZM345 269L345-36L76-36L76 269L345 269ZM395-86L369-12C478 12 575 41 658 74C741 107 820 147 895 194L895 194L934 128C866 81 788 41 700 6C611-29 510-60 395-86L395-86ZM268 45L268 189L153 189L153 45L268 45Z"/>
    <glyph glyph-name="-" unicode="&#35629;"
      horiz-adv-x="1000" vert-adv-y="1172"
      d="M807 739L955 739L955 664L382 664L382 739L533 739C516 779 502 808 492 827L492 827L568 851C598 789 616 752 621 739L621 739L719 739C741 778 759 814 774 848L774 848L852 829C841 804 829 781 818 760L818 760L807 739ZM260 706L360 706L360 625L42 625L42 706L176 706C167 742 155 777 142 811L142 811L222 827C235 792 247 751 260 706L260 706ZM846 375L846 635L918 635L918 365C918 336 915 313 910 298C904 282 895 271 882 264C869 257 852 254 829 254L829 254C798 254 773 256 752 259L752 259L739 327C766 322 789 320 809 320L809 320C824 320 834 324 839 332C844 340 846 354 846 375L846 375ZM561 307C573 307 581 310 586 317C590 324 592 334 592 349L592 349L592 366L470 366L470 255L400 255L400 618L661 618L661 349C661 312 655 286 643 272C630 257 607 250 574 250L574 250C563 250 547 251 526 254L526 254L513 312C532 309 548 307 561 307L561 307ZM719 363L719 606L785 606L785 363L719 363ZM80 559L330 559L330 481L80 481L80 559ZM470 516L592 516L592 559L470 559L470 516ZM592 464L470 464L470 419L592 419L592 464ZM80 338L80 416L330 416L330 338L80 338ZM331 272L331-29L81-29L81 272L331 272ZM538 139L391 139L391 215L918 215C914 153 908 100 900 55L900 55C895 24 888 1 879-16C870-33 858-45 841-52C824-60 801-64 772-65L772-65C735-66 701-65 672-60L672-60L656 20C695 15 727 13 754 13L754 13C775 14 790 18 799 26C808 34 815 48 819 67L819 67C826 94 829 118 830 139L830 139L625 139C616 99 603 66 586 41C569 16 545-6 514-25C483-44 440-62 386-81L386-81L355-2C413 17 455 36 482 56C508 75 527 103 538 139L538 139ZM256 52L256 191L158 191L158 52L256 52Z"/>
    <glyph glyph-name="." unicode="&#35630;"
      horiz-adv-x="1000" vert-adv-y="1172"
      d="M424 593L424 654L621 654L621 698L395 698L395 763L621 763L621 848L702 848L702 763L925 763L925 698L702 698L702 654L902 654L902 593L702 593L702 548L954 548L954 484L372 484L372 548L621 548L621 593L424 593ZM256 706L373 706L373 627L36 627L36 706L174 706C158 756 145 794 135 820L135 820L209 845C225 806 241 759 256 706L256 706ZM74 482L74 559L335 559L335 482L74 482ZM891 85L725 85C714 90 749 75 832 42L832 42C913 10 960-9 973-14L973-14L938-90C903-74 861-55 810-33C759-12 719 4 690 15L690 15L723 85L583 85L618 15C559-15 474-48 363-84L363-84L333-8C427 19 509 50 578 85L578 85L425 85L425 444L891 444L891 85ZM335 414L335 337L74 337L74 414L335 414ZM504 342L812 342L812 383L504 383L504 342ZM504 286L504 246L812 246L812 286L504 286ZM328 267L328-28L73-28L73 267L328 267ZM253 49L253 190L148 190L148 49L253 49ZM812 148L812 189L504 189L504 148L812 148Z"/>
    <glyph glyph-name="/" unicode="&#35631;"
      horiz-adv-x="1000" vert-adv-y="1172"
      d="M864 621L479 621L479 413C479 311 474 225 463 157C452 88 428 13 393-68L393-68L319-35L323-27L73-27L73 269L328 269L328-17C358 46 378 111 389 178C399 244 404 323 404 415L404 415L404 685L595 685L595 855L672 855L672 796L888 796L888 730L672 730L672 685L936 685L936 618L911 535L843 554L864 621ZM256 704L374 704L374 626L37 626L37 704L175 704C164 738 151 776 135 818L135 818L209 843C226 798 242 751 256 704L256 704ZM661 405C635 406 617 413 606 427C595 440 589 462 589 492L589 492L589 493L499 483L494 545L589 555L589 608L661 608L661 563L800 578L804 517L661 501C662 488 665 479 671 475C677 470 688 467 703 466L703 466C712 465 725 465 740 465L740 465C754 465 764 465 771 466L771 466C788 467 800 470 807 475C813 479 817 488 818 501L818 501L822 541L885 524L881 482C878 454 870 434 859 423C848 412 826 406 794 405L794 405L729 404L661 405ZM75 481L75 558L336 558L336 481L75 481ZM336 413L336 336L75 336L75 413L336 413ZM524 373L874 373L874 36L956 36L956-29L440-29L440 36L524 36L524 373ZM595 262L802 262L802 312L595 312L595 262ZM595 199L595 149L802 149L802 199L595 199ZM148 192L148 51L254 51L254 192L148 192ZM802 36L802 86L595 86L595 36L802 36Z"/>
    <glyph glyph-name="0" unicode="&#35632;"
      horiz-adv-x="1000" vert-adv-y="1172"
      d="M256 704L372 704L372 625L37 625L37 704L175 704C162 745 149 782 136 817L136 817L209 841C224 804 240 758 256 704L256 704ZM765 143L765 45L696 45L696 143L526 143L526 215L696 215L696 279L555 279L555 601L696 601L696 667L536 667L536 740L696 740L696 831L765 831L765 740L932 740L932 667L765 667L765 601L905 601L905 279L765 279L765 215L947 215L947 143L765 143ZM516 606L444 582C433 613 420 650 405 691C390 732 377 764 366 787L366 787L436 811C458 760 485 691 516 606L516 606ZM75 480L75 557L332 557L332 480L75 480ZM621 470L696 470L696 536L621 536L621 470ZM765 470L839 470L839 536L765 536L765 470ZM688 30C741 27 787 25 826 25L826 25C865 25 911 27 963 30L963 30L948-49C908-53 863-55 813-55L813-55C764-55 718-53 677-49L677-49C624-44 581-33 548-15C515 3 485 33 459 74L459 74L375-57L326 2L326-29L72-29L72 266L326 266L326 13L421 153L421 437L352 437L352 523L493 523L493 153C515 111 540 81 568 63C595 45 635 34 688 30L688 30ZM332 412L332 335L75 335L75 412L332 412ZM696 410L621 410L621 344L696 344L696 410ZM839 410L765 410L765 344L839 344L839 410ZM146 189L146 48L252 48L252 189L146 189Z"/>
    <glyph glyph-name="1" unicode="&#35633;"
      horiz-adv-x="1000" vert-adv-y="1172"
      d="M951 161L831 161C810 119 786 84 757 57L757 57C810 38 870 16 935-9L935-9L901-78C852-56 782-28 690 7L690 7C656-12 614-28 564-41C514-54 452-66 378-76L378-76L357-2C461 6 542 20 599 41L599 41L548 59L453 93C467 114 481 136 495 161L495 161L378 161L378 229L530 229L553 281L407 281L407 448L620 448L620 493L424 493L424 601L381 601L381 659L424 659L424 768L620 768L620 845L693 845L693 768L890 768L890 659L949 659L949 601L890 601L890 493L693 493L693 448L901 448L901 281L636 281C631 269 624 252 613 229L613 229L951 229L951 161ZM252 706L368 706L368 627L30 627L30 706L169 706C153 756 140 794 130 820L130 820L205 844C220 807 236 761 252 706L252 706ZM620 659L620 709L499 709L499 659L620 659ZM693 659L816 659L816 709L693 709L693 659ZM620 601L499 601L499 552L620 552L620 601ZM693 601L693 552L816 552L816 601L693 601ZM329 558L329 482L68 482L68 558L329 558ZM329 413L329 337L68 337L68 413L329 413ZM620 340L620 389L481 389L481 340L620 340ZM693 340L827 340L827 389L693 389L693 340ZM321 269L321-27L66-27L66 269L321 269ZM247 51L247 192L141 192L141 51L247 51ZM560 123C593 113 633 100 680 83L680 83C707 104 730 130 747 161L747 161L581 161L560 123Z"/>
    <glyph glyph-name="2" unicode="&#35634;"
      horiz-adv-x="1000" vert-adv-y="1172"
      d="M706 463C741 431 780 402 823 376C866 350 916 325 973 301L973 301L941 229C879 257 825 287 780 318C734 349 690 386 649 427L649 427C613 392 574 360 532 332C489 304 437 276 376 249L376 249L341 320C404 345 453 369 490 391C527 412 561 439 593 470L593 470C510 467 446 463 403 458L403 458C391 457 383 455 378 454L378 454L364 514C374 517 383 523 391 532L391 532C407 549 432 583 467 634L467 634L446 633L412 630L399 698C412 700 424 705 436 712L436 712C456 726 481 748 513 777C544 806 571 834 595 861L595 861L656 817C608 769 565 731 527 702L527 702L744 719L723 738C715 745 708 751 702 756C696 761 691 765 686 769L686 769L731 819C743 808 756 796 771 785L771 785C784 774 807 755 841 726C875 697 900 674 916 659L916 659L872 603C859 616 839 634 814 656L814 656L488 636L530 614C509 582 485 550 458 519L458 519L574 526L536 577L582 611L649 529L651 532C672 554 699 592 734 647L734 647L788 615C767 581 744 550 720 522L720 522L833 529L819 548L798 575L845 611C876 574 913 528 955 473L955 473L902 431C895 443 886 456 875 470L875 470C814 469 762 467 719 464L719 464L706 463ZM258 706L374 706L374 627L37 627L37 706L175 706C161 751 148 789 136 820L136 820L210 844C219 821 235 775 258 706L258 706ZM333 558L333 481L74 481L74 558L333 558ZM333 413L333 336L74 336L74 413L333 413ZM701 370L736 315C695 288 649 262 598 237C547 212 494 191 440 173L440 173L416 238C529 273 624 317 701 370L701 370ZM409 47L384 111C469 134 544 159 609 186C674 213 735 246 792 283L792 283L825 230C764 190 700 155 635 126C570 97 494 70 409 47L409 47ZM326 268L326-27L72-27L72 268L326 268ZM252 50L252 191L147 191L147 50L252 50ZM381-79L357-12C473 12 569 39 646 70C722 100 799 140 878 190L878 190L914 130C838 81 759 41 676 8C593-25 495-54 381-79L381-79Z"/>
    <glyph glyph-name="3" unicode="&#35635;"
      horiz-adv-x="1000" vert-adv-y="1172"
      d="M139 817L221 837C237 790 249 750 256 716L256 716L362 716L362 636L45 636L45 716L171 716C162 749 152 782 139 817L139 817ZM946 696L476 696L476 34L957 34L957-50L396-50L396 779L946 779L946 696ZM563 421L563 634L885 634L885 421L563 421ZM636 569L636 485L812 485L812 569L636 569ZM81 489L81 563L328 563L328 489L81 489ZM328 417L328 344L81 344L81 417L328 417ZM705 355L705 102L527 102L527 355L705 355ZM746 102L746 355L926 355L926 102L746 102ZM650 166L650 291L585 291L585 166L650 166ZM802 291L802 166L869 166L869 291L802 291ZM335 272L335-32L82-32L82 272L335 272ZM261 43L261 196L157 196L157 43L261 43Z"/>
    <glyph glyph-name="4" unicode="&#35636;"
      horiz-adv-x="1000" vert-adv-y="1172"
      d="M249 706L362 706L362 627L36 627L36 706L170 706C161 739 148 777 133 819L133 819L203 843C215 815 230 769 249 706L249 706ZM890 615L885 499L413 499L420 615L377 615L377 677L424 677L432 795L898 795L893 677L944 677L944 615L890 615ZM621 677L623 730L506 730L502 677L621 677ZM696 730L694 677L814 677L817 730L696 730ZM615 562L617 615L497 615L493 562L615 562ZM690 615L688 562L806 562L809 615L690 615ZM324 558L324 481L72 481L72 558L324 558ZM896 452L896 91L419 91L419 452L896 452ZM324 413L324 337L72 337L72 413L324 413ZM497 351L817 351L817 391L497 391L497 351ZM817 295L497 295L497 252L817 252L817 295ZM317 269L317-27L70-27L70 269L317 269ZM817 196L497 196L497 153L817 153L817 196ZM245 51L245 192L142 192L142 51L245 51ZM361-79L337-3C375 8 417 21 464 37C510 53 551 69 588 85L588 85L618 13C583-2 541-17 494-34C446-51 402-66 361-79L361-79ZM694 8L722 82C756 71 797 58 844 42C891 25 931 11 963-2L963-2L933-78C859-47 779-19 694 8L694 8Z"/>
    <glyph glyph-name="5" unicode="&#35637;"
      horiz-adv-x="1000" vert-adv-y="1172"
      d="M140 820L214 843C225 812 240 766 259 705L259 705L376 705L376 626L39 626L39 705L176 705C163 749 151 787 140 820L140 820ZM672 730L672 806L912 806L912 406L837 406L837 512C745 466 695 440 686 435L686 435L656 508C675 516 704 529 743 547C782 565 813 580 837 593L837 593L837 730L672 730ZM637 436L563 436L563 503L411 427L377 495C396 504 424 517 461 534C497 551 531 567 563 583L563 583L563 729L391 729L391 805L637 805L637 436ZM676 682L726 724C738 710 768 677 817 624L817 624L766 579C755 593 725 627 676 682L676 682ZM396 679L448 721L537 621L487 574L396 679ZM338 558L338 481L76 481L76 558L338 558ZM588 429L666 405C661 388 656 373 651 360L651 360L891 360L891-68L812-68L812-22L504-22L504-68L423-68L423 360L563 360L571 382L588 429ZM338 413L338 336L76 336L76 413L338 413ZM504 283L504 205L812 205L812 283L504 283ZM330 269L330-27L75-27L75 269L330 269ZM256 51L256 192L150 192L150 51L256 51ZM812 132L504 132L504 50L812 50L812 132Z"/>
    <glyph glyph-name="6" unicode="&#35638;"
      horiz-adv-x="1000" vert-adv-y="1172"
      d="M536 445L473 445L473 419C473 335 471 267 466 214C461 161 453 112 440 68C427 24 409-24 384-76L384-76L317-37L321-28L74-28L74 268L328 268L328-14C357 49 376 110 385 169C394 227 398 307 398 410L398 410L398 739L652 739L614 826L690 851L740 739L947 739L947 662L473 662L473 524L536 524L536 635L610 635L610 524L759 524L759 635L833 635L833 524L934 524L934 445L833 445L833 238L536 238L536 445ZM257 705L372 705L372 626L37 626L37 705L175 705C165 740 152 778 136 819L136 819L210 844C227 799 243 752 257 705L257 705ZM75 481L75 558L336 558L336 481L75 481ZM610 316L759 316L759 445L610 445L610 316ZM336 413L336 336L75 336L75 413L336 413ZM818 172L881 195L911 104L956-34L890-55C880-20 868 20 854 66C839 111 827 147 818 172L818 172ZM149 191L149 50L254 50L254 191L149 191ZM515-69L442-44C453-13 466 26 481 75C495 123 505 161 510 188L510 188L577 170C564 113 546 46 525-31L525-31L515-69ZM706 167L769 182C779 143 794 74 815-27L815-27L747-41C743-15 737 20 728 65C719 110 712 144 706 167L706 167ZM596 169L662 176C667 145 671 110 676 71C681 31 685-5 688-37L688-37L618-45C615-12 612 27 608 71C603 114 599 147 596 169L596 169Z"/>
    <glyph glyph-name="7" unicode="&#35639;"
      horiz-adv-x="1000" vert-adv-y="1172"
      d="M537 402C547 382 554 368 557 360L557 360L954 360L954 309L46 309L46 360L458 360C453 371 445 386 434 407L434 407L512 430L491 466C562 485 621 510 666 540L666 540C634 571 609 603 592 636L592 636L563 608L508 659C557 702 602 766 642 851L642 851L719 829C710 810 697 786 682 759L682 759L951 759L951 693L882 693C859 632 826 580 785 539L785 539C830 511 887 484 958 457L958 457L921 385C840 420 775 455 726 490L726 490C677 456 614 427 537 402L537 402ZM87 372L44 432C83 451 111 469 129 487C146 504 159 527 168 554L168 554C171 560 173 568 176 579L176 579L53 579L53 629L262 629L262 661L100 661L100 708L262 708L262 742L79 742L79 792L262 792L262 841L346 841L346 792L525 792L525 742L346 742L346 708L499 708L499 661L346 661L346 629L536 629L536 579L254 579C253 571 250 560 245 545L245 545L467 545C462 501 459 472 456 458L456 458C452 435 442 418 425 407C408 396 381 391 342 391L342 391C312 391 283 394 256 401L256 401L243 451C282 444 312 441 333 441L333 441C350 441 363 444 370 449C377 454 382 461 385 471L385 471C387 481 388 491 388 500L388 500L228 500C216 475 199 453 178 435C157 416 126 395 87 372L87 372ZM800 693L646 693C664 652 690 616 724 585L724 585C757 616 782 652 800 693L800 693ZM171 231L171 276L827 276L827 231L171 231ZM827 198L827 151L171 151L171 198L827 198ZM237-34L237-72L157-72L157 120L842 120L842-72L758-72L758-34L237-34ZM237 20L758 20L758 69L237 69L237 20Z"/>
    <glyph glyph-name="8" unicode="&#35640;"
      horiz-adv-x="1000" vert-adv-y="1172"
      d="M235 705L338 705L338 627L38 627L38 705L159 705C146 752 135 790 125 819L125 819L193 844C209 796 223 750 235 705L235 705ZM974-4L915-73C862-13 819 46 787 105L787 105C752 44 705-18 646-81L646-81L586-12C623 25 654 59 680 92C705 124 727 158 745 193L745 193C716 264 695 344 683 433L683 433L674 416L617 466C670 563 709 688 734 839L734 839L805 823C796 769 785 720 774 677L774 677L959 677L959 593L915 593C909 508 899 433 886 369C872 304 853 244 830 189L830 189C865 120 913 56 974-4L974-4ZM474 291L634 291C632 223 626 153 617 81L617 81C611 39 601 10 586-7C571-24 547-33 514-33L514-33C487-33 462-30 437-25L437-25L423 43C444 37 466 34 491 34L491 34C508 34 520 39 527 48C534 57 540 73 545 96L545 96C549 113 552 133 555 156C558 178 559 198 558 215L558 215L468 215C461 158 447 106 428 60C408 13 380-32 343-75L343-75L283-27L69-27L69 269L298 269L298-10C332 30 356 72 371 116C386 159 395 212 399 274L399 274C400 291 401 306 401 317L401 317L404 361L339 361L339 437L460 437L460 520L364 520L364 591L460 591L460 662L358 662L358 736L460 736L460 838L532 838L532 736L650 736L650 662L532 662L532 591L626 591L626 520L532 520L532 437L643 437L643 361L477 361L474 291ZM741 566C746 460 761 368 787 291L787 291C812 367 831 468 843 593L843 593L750 593L741 566ZM71 482L71 558L305 558L305 482L71 482ZM305 413L305 337L71 337L71 413L305 413ZM137 192L137 51L231 51L231 192L137 192Z"/>
    <glyph glyph-name="9" unicode="&#35641;"
      horiz-adv-x="1000" vert-adv-y="1172"
      d="M143 825L224 847C240 806 255 762 270 713L270 713L379 713L379 633L43 633L43 713L182 713C169 756 156 793 143 825L143 825ZM901 81L706 81L706 23L956 23L956-48L380-48L380 23L627 23L627 81L426 81L426 146L627 146L627 198L413 198L413 266L627 266L627 320L419 320L419 513L627 513L627 565L487 565L487 686L396 686L396 760L487 760L487 834L567 834L567 760L760 760L760 835L840 835L840 760L946 760L946 686L840 686L840 565L706 565L706 513L911 513L911 320L706 320L706 266L920 266L920 198L706 198L706 146L901 146L901 81ZM760 630L760 686L567 686L567 630L760 630ZM345 559L345 483L81 483L81 559L345 559ZM627 447L497 447L497 385L627 385L627 447ZM706 385L834 385L834 447L706 447L706 385ZM345 414L345 340L82 340L82 414L345 414ZM343 270L343-32L83-32L83 270L343 270ZM270 44L270 192L157 192L157 44L270 44Z"/>
    <glyph glyph-name=":" unicode="&#35642;"
      horiz-adv-x="1000" vert-adv-y="1172"
      d="M90 583L178 583C177 604 175 621 172 636L172 636L64 636L64 688L255 688L255 729L103 729L103 781L255 781L255 839L330 839L330 781L481 781L481 729L330 729L330 688L507 688L507 636L417 636C411 617 405 599 400 583L400 583L486 583L486 530L328 530L328 492L493 492L493 441L328 441L328 395L252 395L252 441L70 441L70 492L252 492L252 530L90 530L90 583ZM517 588L544 642C553 638 561 634 569 631C576 627 583 623 590 620L590 620L613 609C616 626 617 648 617 677L617 677L532 677L532 747L617 747L618 837L692 837L691 747L854 747L854 636C854 577 857 535 862 511L862 511C865 484 870 470 879 470L879 470C884 470 887 473 890 478C893 483 896 492 899 507L899 507L914 577L973 551C962 504 952 467 943 442L943 442C928 401 906 381 876 381L876 381C859 381 844 388 831 402C818 416 807 436 799 462L799 462C788 499 782 553 782 626L782 626L782 677L690 677C689 632 685 598 680 575L680 575L756 536C767 529 776 524 784 521L784 521L753 461C734 472 702 490 658 514L658 514C642 483 612 446 567 403L567 403L507 451C530 472 549 489 563 504C576 519 587 533 594 548L594 548L517 588ZM244 583L338 583C342 596 347 614 352 636L352 636L236 636C239 619 242 602 244 583L244 583ZM437 410L515 438C535 402 547 380 551 372L551 372L944 372L944 317L56 317L56 372L457 372C448 391 441 403 437 410L437 410ZM171 236L171 282L827 282L827 236L171 236ZM827 201L827 154L171 154L171 201L827 201ZM239-41L239-82L156-82L156 118L841 118L841-82L757-82L757-41L239-41ZM239 14L757 14L757 69L239 69L239 14Z"/>
    <glyph glyph-name=";" unicode="&#35643;"
      horiz-adv-x="1000" vert-adv-y="1172"
      d="M795 381L945 381L945 306C917 245 888 194 858 153C828 112 791 73 748 36C704-1 647-40 576-81L576-81L537-12C600 23 651 56 690 87C729 118 761 150 787 185C813 219 839 261 864 310L864 310L750 310C739 293 725 275 709 256L709 256L772 194L720 140C705 156 685 177 660 202L660 202C649 191 629 173 601 149L601 149L555 212C599 249 637 287 669 327C700 366 728 410 753 457L753 457C720 432 671 399 604 360L604 360L568 430C645 469 703 507 744 542C785 577 823 623 858 679L858 679L713 679C700 662 692 652 691 651L691 651C712 631 736 609 764 585L764 585L712 531C687 556 663 579 641 598L641 598C622 581 608 568 599 561L599 561L557 620C597 655 630 690 657 725C683 760 706 800 726 844L726 844L798 824C783 792 771 767 760 750L760 750L934 750L934 674C910 630 886 593 863 563C840 533 812 505 780 479L780 479L833 453C823 432 810 408 795 381L795 381ZM229 692L332 692L332 613L38 613L38 692L156 692C143 741 131 778 122 805L122 805L189 828C205 780 218 735 229 692L229 692ZM615 304L561 255C548 274 524 303 491 341L491 341L491-64L419-64L419 357C396 286 364 218 324 151L324 151L293 196L293-40L69-40L69 254L293 254L293 247C340 322 376 404 401 491L401 491L322 491L322 567L419 567L419 698C413 697 395 693 364 688L364 688C359 687 352 685 343 684L343 684L330 760C423 773 500 790 559 809L559 809L577 733L491 713L491 567L581 567L581 491L491 491L491 444L518 414C527 404 543 387 566 362C588 337 604 317 615 304L615 304ZM70 467L70 544L299 544L299 467L70 467ZM299 400L299 323L70 323L70 400L299 400ZM134 177L134 37L228 37L228 177L134 177Z"/>
    <glyph glyph-name="<" unicode="&#35644;"
      horiz-adv-x="1000" vert-adv-y="1172"
      d="M266 713L377 713L377 634L51 634L51 713L185 713C173 752 160 790 147 826L147 826L219 851C234 816 249 770 266 713L266 713ZM689 728L689 689L959 689L959 625L930 543L855 564L879 625L479 625L479 419C479 306 474 213 463 138C452 63 429-8 395-77L395-77L323-38L332-19L87-19L87 276L334 276L334-16C355 29 371 73 381 115C391 157 397 200 400 243C402 286 403 346 403 421L403 421L403 689L611 689L611 842L689 842L689 792L907 792L907 728L689 728ZM615 553L615 608L691 608L691 561L832 576L839 513L691 496C692 482 695 473 700 468C705 463 715 460 729 459L729 459C740 458 754 458 770 458L770 458C785 458 798 458 807 459L807 459C826 460 839 463 844 467C849 470 852 478 853 491L853 491C856 513 857 526 857 529L857 529L924 509L919 465C918 448 914 435 909 427C904 418 895 412 883 409C870 406 852 403 828 402L828 402C811 401 790 401 763 401L763 401C736 401 714 401 697 402L697 402C668 403 647 410 634 421C621 432 615 451 615 478L615 478L615 488L503 475L498 541L615 553ZM88 489L88 566L342 566L342 489L88 489ZM342 421L342 344L88 344L88 421L342 421ZM841 289L899 265C893 247 880 213 860 164L860 164L948 164L948 94L757 94L757 29C757-6 749-32 734-47C719-63 693-71 658-71L658-71C620-71 586-68 556-63L556-63L543 9C566 2 594-1 628-1L628-1C649-1 663 3 671 13C679 22 683 36 683 56L683 56L683 94L485 94L485 164L570 164C556 211 545 246 537 267L537 267L595 287L516 284L512 352C581 353 653 356 728 361C802 366 867 371 922 377L922 377L929 312C882 307 824 302 757 297L757 297L757 164L792 164L841 289ZM636 164L683 164L683 292C645 289 616 288 596 287L596 287C617 225 630 184 636 164L636 164ZM160 199L160 58L262 58L262 199L160 199Z"/>
    <glyph glyph-name="=" unicode="&#35645;"
      horiz-adv-x="1000" vert-adv-y="1172"
      d="M369 396L366 454L621 458L621 503L403 503L403 650L621 650L621 683L434 683L434 827L874 827L874 683L694 683L694 650L908 650L908 503L875 503C878 499 882 493 889 485L889 485C899 472 910 458 922 443C933 428 944 414 954 401L954 401L897 364L865 409L447 398L369 396ZM92 537L112 706L285 706L285 762L95 762L95 822L354 822L354 647L175 647L167 597L358 597C356 554 353 512 348 473L348 473C343 440 331 416 311 399C291 382 265 374 234 374L234 374C218 374 199 375 178 378C156 380 137 383 121 386L121 386L105 449C121 445 140 442 161 439C182 436 200 434 215 434L215 434C230 434 243 439 254 450C264 460 271 474 274 491L274 491C277 504 280 520 281 537L281 537L92 537ZM803 734L803 771L506 771L506 734L803 734ZM621 598L472 598L472 558L621 558L621 598ZM694 558L836 558L836 598L694 598L694 558ZM835 503L694 503L694 459L825 462L807 485L835 503ZM451 379L531 396C534 389 539 370 548 341L548 341L941 341L941 284L61 284L61 341L464 341C462 348 460 355 458 362C455 368 453 374 451 379L451 379ZM177 202L177 253L833 253L833 202L177 202ZM833 173L833 124L177 124L177 173L833 173ZM250-49L250-75L169-75L169 94L840 94L840-75L759-75L759-49L250-49ZM250 8L759 8L759 40L250 40L250 8Z"/>
    <glyph glyph-name=">" unicode="&#35646;"
      horiz-adv-x="1000" vert-adv-y="1172"
      d="M273 709L390 709L390 630L44 630L44 709L187 709C179 738 166 777 148 826L148 826L230 845C242 814 256 769 273 709L273 709ZM434 528L434 805L876 805L876 528L434 528ZM513 694L796 694L796 741L513 741L513 694ZM796 636L513 636L513 589L796 589L796 636ZM343 559L343 482L84 482L84 559L343 559ZM923 482L923 290L387 290L387 482L923 482ZM545 351L545 423L462 423L462 351L545 351ZM699 423L614 423L614 351L699 351L699 423ZM768 423L768 351L846 351L846 423L768 423ZM343 413L343 338L84 338L84 413L343 413ZM343 268L343-41L83-41L83 268L343 268ZM956 3L934-76C872-67 819-56 775-44C730-32 690-17 653 2L653 2C580-31 487-58 373-81L373-81L354-3C445 14 518 32 573 51L573 51C532 82 492 122 453 171L453 171L407 171L407 242L882 242L882 171C843 123 796 82 742 48L742 48C804 27 875 12 956 3L956 3ZM265 40L265 188L163 188L163 40L265 40ZM785 171L546 171C579 136 616 108 657 86L657 86C704 110 747 138 785 171L785 171Z"/>
    <glyph glyph-name="?" unicode="&#35647;"
      horiz-adv-x="1000" vert-adv-y="1172"
      d="M119 820L184 844C198 800 211 755 224 708L224 708L321 708L321 629L37 629L37 708L152 708C141 747 130 785 119 820L119 820ZM531 162L644 162L644 82L531 82L531-65L456-65L456 82L328 82L328 162L456 162L456 238L351 238L351 591L456 591L456 662L333 662L333 742L456 742L456 841L530 841L530 742L650 742L650 662L530 662L530 591L632 591L632 238L531 238L531 162ZM684 433L684 789L933 789L933 54C933 13 926-15 911-32C896-49 870-58 835-58L835-58C823-58 810-57 795-55C780-53 770-52 763-51L763-51L745 34C764 29 788 27 817 27L817 27C832 27 843 31 849 40C854 49 857 64 857 85L857 85L857 233L756 233C753 168 744 114 730 70C715 25 691-24 656-78L656-78L588-29C619 16 642 56 655 91C668 126 676 166 679 212C682 258 684 332 684 433L684 433ZM759 553L857 553L857 705L759 705L759 553ZM291 561L291 484L66 484L66 561L291 561ZM421 451L563 451L563 516L421 516L421 451ZM759 390L759 316L857 316L857 470L759 470L759 390ZM291 416L291 339L66 339L66 416L291 416ZM563 314L563 379L421 379L421 314L563 314ZM284 271L284-24L65-24L65 271L284 271ZM220 53L220 194L129 194L129 53L220 53Z"/>
    <glyph glyph-name="@" unicode="&#35648;"
      horiz-adv-x="1000" vert-adv-y="1172"
      d="M259 709L334 709L334 630L46 630L46 709L176 709C157 768 144 806 137 825L137 825L210 851L259 709ZM969-11L912-70C863-16 823 40 793 97L793 97C763 44 725-10 678-67L678-67L623-9C678 51 722 115 753 183L753 183C727 252 707 336 693 435L693 435C688 423 679 406 667 383L667 383L614 442C628 467 644 501 662 546L662 546L612 546L612 154L636 159C647 161 654 163 659 164C664 165 667 165 669 166L669 166L674 125L678 83L612 70L612-71L540-71L540 56C420 32 353 18 339 15L339 15L326 97L375 106L375 546L338 546L338 629L506 629L524 716L376 716L376 794L617 794L589 629L670 629L670 567C687 612 701 657 713 703C724 748 732 790 736 827L736 827L809 816C802 771 792 722 777 668L777 668L954 668L954 586L908 586C901 493 892 415 881 352C870 289 853 232 832 179L832 179C865 111 911 48 969-11L969-11ZM745 562C755 447 771 355 792 284L792 284C817 366 832 467 838 586L838 586L753 586L745 562ZM316 564L316 486L85 486L85 564L316 564ZM447 546L447 457L540 457L540 546L447 546ZM316 422L316 344L85 344L85 422L316 422ZM447 388L447 295L540 295L540 388L447 388ZM315 275L315-19L82-19L82 275L315 275ZM540 226L447 226L447 121L540 139L540 226ZM242 49L242 204L157 204L157 49L242 49Z"/>
    <glyph glyph-name="A" unicode="&#35649;"
      horiz-adv-x="1000" vert-adv-y="1172"
      d="M141 825L221 849C236 804 252 757 267 707L267 707L356 707L356 629L44 629L44 707L178 707C165 752 153 791 141 825L141 825ZM583 678L583 619L509 619L509 678L380 678L380 751L509 751L509 837L583 837L583 751L727 751L727 837L801 837L801 751L955 751L955 678L801 678L801 619L727 619L727 678L583 678ZM857 435L956 435L956 363L857 363L857 273L925 273L925 201L693 201L693 122L949 122L949 49L693 49L693-75L618-75L618 49L372 49L372 122L618 122L618 201L381 201L381 273L452 273L452 363L365 363L365 435L452 435L452 525L386 525L386 598L919 598L919 525L857 525L857 435ZM330 556L330 481L82 481L82 556L330 556ZM618 435L618 525L522 525L522 435L618 435ZM693 525L693 435L787 435L787 525L693 525ZM330 414L330 337L82 337L82 414L330 414ZM618 363L522 363L522 273L618 273L618 363ZM693 363L693 273L787 273L787 363L693 363ZM328 270L328-30L81-30L81 270L328 270ZM256 47L256 192L155 192L155 47L256 47Z"/>
    <glyph glyph-name="B" unicode="&#35650;"
      horiz-adv-x="1000" vert-adv-y="1172"
      d="M152 809L231 833C240 812 255 770 275 707L275 707L366 707L366 630L54 630L54 707L185 707C172 752 161 786 152 809L152 809ZM399 579L399 802L635 802L635 579L399 579ZM677 579L677 802L917 802L917 579L677 579ZM469 737L469 644L566 644L566 737L469 737ZM748 737L748 644L846 644L846 737L748 737ZM343 559L343 484L89 484L89 559L343 559ZM698 191L698 124L951 124L951 52L698 52L698-75L620-75L620 52L370 52L370 124L620 124L620 191L422 191L422 526L898 526L898 191L698 191ZM501 392L620 392L620 458L501 458L501 392ZM698 458L698 392L819 392L819 458L698 458ZM343 417L343 341L89 341L89 417L343 417ZM620 327L501 327L501 258L620 258L620 327ZM819 327L698 327L698 258L819 258L819 327ZM341 270L341-19L91-19L91 270L341 270ZM267 55L267 193L167 193L167 55L267 55Z"/>
    <glyph glyph-name="C" unicode="&#35651;"
      horiz-adv-x="1000" vert-adv-y="1172"
      d="M286 701L367 701L367 623L46 623L46 701L203 701C191 730 172 770 147 822L147 822L221 848C239 809 261 760 286 701L286 701ZM594 130L532 96C513 141 493 186 471 232L471 232C467 173 458 119 443 70C428 20 406-30 375-81L375-81L308-36L320-15L85-15L85 270L336 270L336 15C357 56 372 96 381 135C390 174 395 211 397 248C399 285 400 335 400 400L400 400L400 648L596 648L596 839L676 839L676 773L914 773L914 705L676 705L676 648L943 648L943 580L915 485L840 499L866 578L475 578L475 397C475 334 474 289 472 260L472 260L521 285C547 233 571 181 594 130L594 130ZM686 320C655 323 633 330 620 342C607 354 600 376 600 407L600 407L600 425L497 414L490 480L600 491L600 557L674 557L674 499L810 513L816 449L674 433L674 424C674 407 677 396 682 391C687 386 699 382 717 379L717 379C732 378 744 377 753 377L753 377C762 377 774 378 789 379L789 379C808 382 821 386 828 391C834 396 837 407 838 423L838 423L841 475L910 459L905 400C903 371 895 352 882 341C868 330 844 323 810 320L810 320C787 319 767 318 748 318L748 318C731 318 710 319 686 320L686 320ZM87 478L87 554L336 554L336 478L87 478ZM336 414L336 336L87 336L87 414L336 414ZM725 298L793 298L793 36L947 36L947-37L440-37L440 36L603 36L603 298L671 298L671 36L725 36L725 298ZM880 289L942 257C908 184 880 130 858 93L858 93L797 126C810 149 826 178 843 212C860 246 873 272 880 289L880 289ZM160 192L160 59L262 59L262 192L160 192Z"/>
    <glyph glyph-name="D" unicode="&#35652;"
      horiz-adv-x="1000" vert-adv-y="1172"
      d="M791 725L913 725L913 387L394 387L394 725L523 725C494 770 475 799 466 812L466 812L529 851C544 833 569 797 605 744L605 744L578 725L695 725C734 784 760 826 773 851L773 851L843 810C833 792 816 764 791 725L791 725ZM155 800L230 830C253 774 268 733 277 707L277 707L370 707L370 628L54 628L54 707L191 707C180 737 168 768 155 800L155 800ZM616 462L616 647L468 647L468 462L616 462ZM689 647L689 462L839 462L839 647L689 647ZM477 599L531 634C543 617 562 586 587 541L587 541L602 514L547 477L527 513C494 570 478 598 477 599L477 599ZM755 476L700 517C721 548 746 587 774 634L774 634L830 595C806 555 781 515 755 476L755 476ZM94 480L94 555L349 555L349 480L94 480ZM349 414L349 337L94 337L94 414L349 414ZM508-31L508-73L430-73L430 326L876 326L876-73L797-73L797-31L508-31ZM363 269L363-16L87-16L87 269L363 269ZM508 183L797 183L797 251L508 251L508 183ZM289 59L289 192L162 192L162 59L289 59ZM797 109L508 109L508 41L797 41L797 109Z"/>
    <glyph glyph-name="E" unicode="&#35653;"
      horiz-adv-x="1000" vert-adv-y="1172"
      d="M235 703L328 703L328 628L44 628L44 703L155 703C138 748 125 782 114 803L114 803L183 828C199 791 216 749 235 703L235 703ZM357 337L310 387C344 420 369 450 386 477C403 503 415 533 422 568C429 603 434 651 437 712L437 712L353 712L353 783L614 783L615 718C615 655 612 587 607 516L607 516C626 553 645 604 665 669L665 669L718 652C711 627 701 599 690 568C678 537 667 511 657 490L657 490L607 511L605 489C602 453 596 427 585 410C574 393 554 385 526 385L526 385C504 385 487 387 474 392L474 392L461 458C470 452 480 449 493 449L493 449C510 449 521 454 527 464C532 474 537 491 540 516L540 516C545 563 548 613 548 666L548 666L547 712L500 712C497 639 491 583 483 542C474 501 460 466 442 439C424 411 396 377 357 337L357 337ZM647 331L599 382C637 413 665 442 683 469C701 496 714 527 721 563C728 598 733 648 736 712L736 712L647 712L647 783L924 783C925 683 921 585 912 489L912 489C909 450 901 423 890 408C878 393 858 385 830 385L830 385C807 385 788 388 775 393L775 393L761 459C768 456 774 453 779 452C784 451 791 450 800 450L800 450C817 450 829 455 834 464C839 473 844 491 847 516L847 516C852 562 855 611 855 662L855 662C855 685 855 702 854 712L854 712L799 712C796 637 790 579 781 537C772 495 758 459 738 429C718 398 688 366 647 331L647 331ZM364 662L420 649C415 628 407 603 396 572C385 541 376 516 367 495L367 495L313 515C329 552 346 601 364 662L364 662ZM296 556L296 484L77 484L77 556L296 556ZM296 412L296 339L77 339L77 412L296 412ZM839 212L839 39L951 39L951-28L592-28L592 34C559 27 510 14 444-3C377-20 336-32 321-37L321-37L301 31C307 32 325 36 356 44L356 44L356 313L421 313L421 61L472 74L472 363L534 363L534 277L614 277L614 208L534 208L534 91C549 94 571 101 601 110L601 110L608 73L614 39L652 39L652 307L717 307L717 39L773 39L773 363L839 363L839 281L927 281L927 212L839 212ZM294 270L294-17L75-17L75 270L294 270ZM226 54L226 194L145 194L145 54L226 54Z"/>
    <glyph glyph-name="F" unicode="&#35654;"
      horiz-adv-x="1000" vert-adv-y="1172"
      d="M405 569L405 635L617 635L617 690L385 690L385 762L617 762L617 841L698 841L698 762L954 762L954 690L698 690L698 635L918 635L918 569L405 569ZM144 810L228 831C251 774 267 732 275 705L275 705L366 705L366 628L42 628L42 705L187 705C184 714 179 726 173 741C167 755 162 766 159 775L159 775L144 810ZM348 558L348 485L82 485L82 558L348 558ZM808 274L959 274L959 206L380 206L380 274L497 274C496 291 492 314 487 342L487 342L424 342L424 525L889 525L889 342L821 342L808 274ZM810 407L810 461L503 461L503 407L810 407ZM348 413L348 340L82 340L82 413L348 413ZM748 342L560 342L570 274L734 274L743 316L748 342ZM346 272L346-12L80-12L80 272L346 272ZM271 58L271 198L155 198L155 58L271 58ZM499-37L499-73L420-73L420 159L890 159L890-74L811-74L811-37L499-37ZM499 31L811 31L811 94L499 94L499 31Z"/>
    <glyph glyph-name="G" unicode="&#35655;"
      horiz-adv-x="1000" vert-adv-y="1172"
      d="M834 531L888 483C869 461 850 441 830 422L830 422L951 422L951 351L750 351C721 328 691 306 661 287L661 287L879 287L879-72L803-72L803-31L558-31L558-73L480-73L480 192C463 184 447 177 434 172C420 166 408 161 398 157L398 157L374 148L343 218C404 241 456 262 501 283C546 304 587 326 626 351L626 351L395 351L395 422L592 422L592 489L476 489L475 538C452 521 424 501 390 479L390 479L347 544C388 569 423 591 450 612C477 633 501 655 521 680L521 680L399 680L399 753L568 753C582 780 594 813 604 851L604 851L681 833C674 812 664 785 650 753L650 753L926 753L926 680L795 680C815 657 838 636 864 619C890 602 922 585 961 569L961 569L922 498C871 523 829 550 797 577C765 604 734 638 705 680L705 680L610 680C583 637 546 597 500 558L500 558L592 558L592 627L670 627L670 558L786 558L786 489L670 489L670 422L722 422C759 453 796 489 834 531L834 531ZM265 696L367 696L367 618L44 618L44 696L180 696C165 740 151 775 139 800L139 800L217 825C238 773 254 730 265 696L265 696ZM341 549L341 475L72 475L72 549L341 549ZM341 407L341 333L72 333L72 407L341 407ZM339 267L339-16L75-16L75 267L339 267ZM558 219L558 160L803 160L803 219L558 219ZM264 56L264 191L148 191L148 56L264 56ZM803 93L558 93L558 36L803 36L803 93Z"/>
    <glyph glyph-name="H" unicode="&#35656;"
      horiz-adv-x="1000" vert-adv-y="1172"
      d="M119 821L194 843C217 784 234 737 245 704L245 704L320 704L320 628L42 628L42 704L162 704C155 724 141 763 119 821L119 821ZM552 730L645 730L645 659L343 659L343 730L464 730C454 755 442 784 427 816L427 816L506 836C516 817 531 781 552 730L552 730ZM974-11L920-75C862-15 816 47 781 110L781 110C744 49 694-14 629-81L629-81L574-19C647 48 703 119 741 194L741 194C714 262 694 341 681 431L681 431C678 424 672 413 664 400L664 400L618 470C669 568 706 690 728 835L728 835L808 826C800 776 789 726 774 676L774 676L958 676L958 594L905 594C898 505 889 429 876 366C863 302 845 244 822 191L822 191C856 124 907 57 974-11L974-11ZM618 416L363 416L363 596L618 596L618 416ZM734 551C743 446 759 359 781 291L781 291C808 370 827 471 837 594L837 594L749 594L734 551ZM307 557L307 484L70 484L70 557L307 557ZM428 532L428 476L552 476L552 532L428 532ZM307 413L307 339L70 339L70 413L307 413ZM654 175L655 139L531 121L531 24C531-11 524-37 510-52C495-67 471-75 437-75L437-75C403-75 376-72 355-66L355-66L341 6C372-1 396-4 414-4L414-4C431-4 442 1 448 10C454 19 457 33 457 52L457 52L457 110L331 91L326 163L457 182L457 220L532 285L350 285L350 354L629 354L629 286L531 205L531 193L650 211L654 175ZM307 271L307-15L67-15L67 271L307 271ZM238 55L238 197L138 197L138 55L238 55Z"/>
    <glyph glyph-name="I" unicode="&#35657;"
      horiz-adv-x="1000" vert-adv-y="1172"
      d="M269 712L376 712L376 630L51 630L51 712L180 712C171 751 160 788 149 824L149 824L232 839C248 789 260 747 269 712L269 712ZM552 474L552 527C515 476 463 423 396 369L396 369L351 442C401 479 443 516 476 555L476 555C448 587 420 617 391 646L391 646L442 696C457 681 483 654 520 614L520 614C540 645 558 681 573 721L573 721L407 721L407 796L650 796L650 720C627 655 600 599 569 551L569 551L756 551C733 587 714 627 699 671C683 715 670 766 659 824L659 824L731 838C738 803 746 773 753 750L753 750C801 785 835 812 854 829L854 829L897 767C869 745 829 715 777 678L777 678C787 655 797 636 806 619L806 619C857 656 891 682 910 699L910 699L951 640C923 617 888 590 846 561L846 561C878 523 922 486 977 449L977 449L936 375C865 422 810 474 771 529L771 529L771 474L552 474ZM346 562L346 482L87 482L87 562L346 562ZM346 414L346 336L87 336L87 414L346 414ZM876 409L876 173L448 173L448 409L876 409ZM793 248L793 336L532 336L532 248L793 248ZM344 270L344-28L87-28L87 270L344 270ZM269 49L269 192L165 192L165 49L269 49ZM764 163L833 127C810 88 791 56 775 31L775 31L946 31L946-48L382-48L382 31L545 31C525 72 508 105 493 128L493 128L560 166C586 121 608 83 625 51L625 51L588 31L688 31C700 49 714 72 730 99C745 126 757 147 764 163L764 163Z"/>
    <glyph glyph-name="J" unicode="&#35658;"
      horiz-adv-x="1000" vert-adv-y="1172"
      d="M692 687L692 624L944 624L944 555L386 555L386 624L614 624L614 687L420 687L420 756L614 756L614 839L692 839L692 756L899 756L899 687L692 687ZM274 709L371 709L371 633L44 633L44 709L186 709C175 738 160 770 143 805L143 805L221 833C242 788 260 746 274 709L274 709ZM85 489L85 562L340 562L340 489L85 489ZM641 310L376 268L369 336L482 354L482 421L393 421L393 485L482 485L482 540L555 540L555 485L640 485L640 421L555 421L555 365L634 378L637 346L641 310ZM917 422L827 422L827 355L947 355L947 289L649 289L649 355L753 355L753 422L667 422L667 487L753 487L753 540L827 540L827 487L917 487L917 422ZM340 418L340 344L85 344L85 418L340 418ZM510 166L372 166L372 234L947 234L947 166L755 166L755 55C755 40 758 31 764 26C769 21 781 18 799 16L799 16C807 15 815 15 822 16L822 16C843 18 856 22 862 27C868 32 871 43 871 60L871 60C871 71 872 86 873 103L873 103L874 142L945 125L939 35C937 12 933-6 926-17C919-29 909-38 894-43C879-48 856-52 826-54L826-54C821-55 812-55 800-55L800-55C754-55 722-49 705-36C687-23 678 1 678 36L678 36L678 166L594 166C593 165 593 163 593 160L593 160C589 117 581 82 570 55C558 28 537 3 507-20C476-43 432-64 374-85L374-85L336-10L82-10L82 276L341 276L341-9C389 6 425 21 448 37C471 53 487 70 494 89C501 108 507 133 510 164L510 164L510 166ZM159 202L159 60L264 60L264 202L159 202Z"/>
    <glyph glyph-name="K" unicode="&#35659;"
      horiz-adv-x="1000" vert-adv-y="1172"
      d="M130 815L208 840C215 824 223 804 232 780C241 755 246 739 249 731L249 731L258 706L356 706L356 630L58 630L58 706L171 706C156 751 142 788 130 815L130 815ZM377 794L616 794L616 480L449 480L449-65L377-65L377 794ZM668 480L668 794L912 794L912 51C912 10 903-20 884-39C865-58 834-68 791-68L791-68C765-68 741-64 719-55L719-55L708 2C696-1 683-2 668-1L668-1C653 0 642 3 634 8L634 8L621 69C628 63 638 59 651 58L651 58C671 57 685 61 693 70C700 79 704 95 704 116L704 116L704 146L587 146C579 85 561 34 534-5L534-5L472 27C486 46 497 68 506 91C514 114 520 145 524 184C528 222 530 272 530 335L530 335L530 435L769 435L769 103C769 53 754 21 725 8L725 8C743 3 760 0 776 0L776 0C799 0 815 5 824 16C833 26 837 42 837 64L837 64L837 480L668 480ZM449 668L546 668L546 731L449 731L449 668ZM739 668L837 668L837 731L739 731L739 668ZM546 606L449 606L449 542L546 542L546 606ZM837 606L739 606L739 542L837 542L837 606ZM330 561L330 487L86 487L86 561L330 561ZM330 420L330 344L86 344L86 420L330 420ZM594 320L704 320L704 375L594 375L594 320ZM328 277L328-5L87-5L87 277L328 277ZM593 207L704 207L704 261L594 261L593 207ZM255 67L255 202L163 202L163 67L255 67Z"/>
    <glyph glyph-name="L" unicode="&#35660;"
      horiz-adv-x="1000" vert-adv-y="1172"
      d="M265 706L357 706L357 632L45 632L45 706L181 706C166 754 151 793 138 823L138 823L219 844C226 827 234 805 243 778C252 751 259 727 265 706L265 706ZM870 299L926 299C927 222 922 137 913 46L913 46C908 4 898-26 882-43C866-60 839-69 802-69L802-69C777-69 755-65 736-58L736-58L720 18C737 9 758 5 785 5L785 5C804 5 817 9 824 17C831 25 836 41 840 66L840 66L840 68L790 46C783 67 773 92 763 121C752 150 742 173 735 190L735 190L784 212C809 154 828 106 841 69L841 69C847 103 850 144 850 191L850 191L849 225L470 225C465 169 454 118 439 72C424 26 400-22 367-71L367-71L301-29L309-18L84-18L84 270L324 270L324 5C348 42 366 79 377 115C388 151 396 190 399 233C402 276 404 332 404 403L404 403L404 590L454 590C437 623 422 652 409 675L409 675L466 703L371 697L365 771C444 774 536 780 641 789C746 798 830 806 893 815L893 815L902 739C774 726 629 714 468 703L468 703L484 675C490 664 496 652 503 641C509 629 514 618 519 609L519 609L483 590L624 590L611 614L569 686L628 714L646 684L685 617L636 590L739 590L725 598C746 628 771 671 801 727L801 727L862 698C849 673 827 637 798 590L798 590L856 590L835 443L889 443L870 299ZM86 484L86 555L322 555L322 484L86 484ZM771 518L474 518L474 443L761 443L771 518ZM322 411L322 339L86 339L86 411L322 411ZM474 371L474 358C474 331 474 312 473 299L473 299L796 299L806 371L474 371ZM650 185L701 200C712 167 728 112 748 37L748 37L695 23C676 98 661 152 650 185L650 185ZM154 199L154 50L254 50L254 199L154 199ZM502-31L441-14C452 19 463 54 472 93C481 132 486 166 489 196L489 196L547 185C544 158 538 123 529 81C520 39 511 2 502-31L502-31ZM564 180L617 191C628 140 638 78 648 4L648 4L591-6C588 22 584 54 579 91C574 127 569 157 564 180L564 180Z"/>
    <glyph glyph-name="M" unicode="&#35661;"
      horiz-adv-x="1000" vert-adv-y="1172"
      d="M638 333L948 333L948 284L204 284C201 206 192 140 178 87C163 33 139-23 104-82L104-82L26-30C55 20 77 64 90 103C103 142 112 184 116 229C120 274 122 338 122 420L122 420L122 777L486 777C470 809 461 827 458 832L458 832L552 857C563 839 576 812 591 777L591 777L942 777L942 711L722 711C729 696 736 678 743 657L743 657L919 657L919 612L740 612L740 576L904 576L904 533L740 533L740 501L904 501L904 459L740 459L740 425L930 425L930 380L453 380L453 531C427 500 410 480 402 471L402 471L365 517L365 357L294 357L294 526C271 501 252 480 237 465L237 465L206 507L206 430C206 385 206 353 205 333L205 333L550 333C545 342 538 353 529 364L529 364L610 380L638 333ZM658 701L702 711L206 711L206 537C231 562 255 589 276 619C297 648 315 678 329 708L329 708L399 686C393 673 382 653 365 624L365 624L365 535C420 586 460 644 487 708L487 708L555 688L538 657L675 657C666 682 660 697 658 701L658 701ZM525 612L525 576L668 576L668 612L525 612ZM525 533L525 501L668 501L668 533L525 533ZM525 459L525 425L668 425L668 459L525 459ZM275 209L275 253L874 253L874 209L275 209ZM874 177L874 133L275 133L275 177L874 177ZM341-41L341-73L266-73L266 100L883 100L883-73L809-73L809-41L341-41ZM341 9L809 9L809 52L341 52L341 9Z"/>
    <glyph glyph-name="N" unicode="&#35662;"
      horiz-adv-x="1000" vert-adv-y="1172"
      d="M263 711L366 711L366 633L44 633L44 711L177 711C168 742 157 775 144 811L144 811L226 827C237 796 250 758 263 711L263 711ZM737 625L950 625L950 556C940 541 927 521 911 497C894 473 880 453 869 438L869 438L803 475C809 482 823 500 846 530L846 530C846 530 853 539 867 557L867 557L747 557L747 497C747 467 741 446 730 433C718 420 698 414 670 414L670 414C637 414 608 416 585 419L585 419L573 479C600 475 620 473 633 473L633 473C647 473 657 477 663 484C669 491 672 503 672 520L672 520L672 557L643 557C592 504 509 454 394 405L394 405L361 471C439 500 500 529 544 557L544 557L391 557L391 625L607 625L500 693L534 733L429 733L429 803L912 803L912 735C863 701 805 664 737 625L737 625ZM787 733L556 733L671 660C722 689 760 714 787 733L787 733ZM329 557L329 481L81 481L81 557L329 557ZM329 412L329 337L81 337L81 412L329 412ZM474-71L397-71L397 392L920 392L920 41C920-2 913-31 899-48C885-65 859-73 822-73L822-73C791-73 766-71 745-68L745-68L730-2C755-7 778-9 798-9L798-9C815-9 826-5 833 4C839 12 842 27 842 49L842 49L842 217L805 170C767 203 724 237 676 272L676 272L719 320L742 302C789 266 823 239 842 222L842 222L842 322L474 322L474-71ZM777 193L777 17L542 17L542 189C535 184 525 177 512 166L512 166L475 220C518 251 557 283 594 318L594 318L639 273C612 246 581 220 547 193L547 193L777 193ZM329 269L329-34L80-34L80 269L329 269ZM253 42L253 192L158 192L158 42L253 42ZM714 74L714 136L606 136L606 74L714 74Z"/>
    <glyph glyph-name="O" unicode="&#35663;"
      horiz-adv-x="1000" vert-adv-y="1172"
      d="M882 72C886 95 890 124 895 161L895 161L958 137C955 108 950 74 943 33L943 33C936-6 924-33 908-48C892-64 872-72 848-72L848-72C827-72 806-64 785-47C764-30 742-2 721 39L721 39C666 3 599-31 521-63L521-63L485 7C566 36 634 68 691 104L691 104C674 146 660 197 647 258L647 258L497 258L496 232C563 185 606 154 623 140L623 140L582 81C570 91 538 116 485 155L485 155C477 114 465 75 449 40C432 5 411-32 385-70L385-70L324-27L77-27L77 273L324 273L324-19C359 29 384 73 399 113C414 153 422 201 424 258L424 258L348 258L348 334L424 334L424 387L498 387L498 334L634 334C631 353 628 380 624 417L624 417L571 399C566 414 562 426 559 435L559 435L417 409C400 406 386 403 376 400L376 400L358 467C365 470 372 473 377 477C382 480 387 485 394 492L394 492C412 511 435 547 464 598L464 598L439 595C434 594 428 594 423 593C417 592 411 591 405 590L405 590C390 587 377 584 368 581L368 581L352 637L42 637L42 714L167 714C152 763 140 800 130 825L130 825L213 844C226 807 240 763 254 714L254 714L356 714L356 648C364 651 371 657 376 665L376 665C387 680 400 704 416 737C432 770 446 801 458 831L458 831L517 804C508 783 496 756 480 724C463 692 450 667 439 648L439 648C466 653 485 657 498 659L498 659C507 676 521 701 538 736L538 736L592 707C571 667 546 623 518 576C490 528 467 492 449 468L449 468L541 490C529 525 520 548 515 561L515 561L568 580C583 541 597 501 610 462L610 462L623 424C612 523 605 664 601 848L601 848L676 848C677 731 681 632 686 549C691 466 699 395 710 334L710 334L814 334L769 397L823 421C862 370 883 341 888 334L888 334L957 334L957 258L725 258C734 218 745 182 756 151L756 151C793 182 824 215 851 250L851 250L903 208C866 161 826 120 783 85L783 85C806 37 827 13 845 13L845 13C855 13 863 17 868 25C873 33 878 49 882 72L882 72ZM734 595C717 591 708 588 705 587L705 587L686 650C698 655 707 662 713 671L713 671C721 684 733 709 750 744C766 779 780 811 791 840L791 840L849 814C840 789 827 761 812 728C796 695 783 669 772 650L772 650C793 655 812 659 830 662L830 662C848 695 863 725 876 752L876 752L933 726C916 688 894 646 868 600C841 553 817 515 795 484L795 484L817 489L882 501C871 532 863 554 857 569L857 569L910 589C919 567 937 513 966 427L966 427L912 407L899 447C875 444 831 437 768 427L768 427L720 417L702 482C716 488 728 497 737 509L737 509C752 528 772 560 799 605L799 605C768 601 747 598 734 595L734 595ZM77 490L77 564L326 564L326 490L77 490ZM326 417L326 344L77 344L77 417L326 417ZM152 195L152 48L252 48L252 195L152 195Z"/>
    <glyph glyph-name="P" unicode="&#35664;"
      horiz-adv-x="1000" vert-adv-y="1172"
      d="M843 185L957 185L957 114L843 114L843 37C843-2 836-29 822-45C807-61 781-69 743-69L743-69C708-69 679-65 654-57L654-57L640 14C662 5 688 1 719 1L719 1C739 1 753 6 760 15C767 24 770 37 770 56L770 56L770 114L518 114C543 95 580 67 627 30L627 30L580-27C562-11 520 23 454 74L454 74L486 114L376 114L376 185L770 185L770 241L402 241L402 613L553 613L553 680L381 680L381 750L534 750C522 784 511 813 500 838L500 838L573 857L587 819C600 784 609 761 613 750L613 750L700 750L753 856L823 830C812 807 799 781 782 750L782 750L941 750L941 680L750 680L750 613L906 613L906 241L843 241L843 185ZM143 811L221 831C238 792 254 752 269 711L269 711L359 711L359 633L46 633L46 711L184 711C171 748 157 781 143 811L143 811ZM684 613L684 680L619 680L619 613L684 613ZM87 484L87 559L326 559L326 484L87 484ZM556 548L475 548L475 403L835 403L835 436L754 436C727 436 709 441 699 452C689 462 684 482 684 513L684 513L684 548L618 548C615 516 607 491 594 473C580 454 556 435 522 415L522 415L481 469C506 481 524 492 535 504C546 515 553 529 556 548L556 548ZM784 492L835 492L835 548L747 548L747 536C747 519 750 507 755 501C760 495 769 492 784 492L784 492ZM326 415L326 340L87 340L87 415L326 415ZM835 303L835 349L475 349L475 303L835 303ZM330 272L330-15L83-15L83 272L330 272ZM259 59L259 197L155 197L155 59L259 59Z"/>
    <glyph glyph-name="Q" unicode="&#35665;"
      horiz-adv-x="1000" vert-adv-y="1172"
      d="M279 694L368 694L368 618L76 618L76 694L194 694C181 731 165 772 144 817L144 817L223 843C234 818 252 768 279 694L279 694ZM948 577L778 577C823 515 889 464 975 424L975 424L939 352C889 375 845 404 806 440L806 440L806 351L501 351L501 438C473 415 437 389 393 361L393 361L349 430C393 455 429 480 458 503C487 526 511 551 530 577L530 577L394 577L394 646L569 646C576 661 584 684 593 714L593 714L565 712L410 704L404 773C471 776 555 782 654 790C753 798 833 806 894 814L894 814L905 739C842 732 767 726 679 720L679 720C673 699 665 674 654 646L654 646L948 646L948 577ZM695 577L621 577C610 557 596 537 581 518L581 518L734 518C721 535 708 555 695 577L695 577ZM92 475L92 549L347 549L347 475L92 475ZM573 457L573 410L734 410L734 457L573 457ZM347 407L347 332L92 332L92 407L347 407ZM478-74L406-74L406 309L905 309L905 32C905-6 897-33 882-49C867-66 841-74 805-74L805-74C769-74 740-70 719-63L719-63L705-1C714-5 726-8 741-10C755-13 767-14 778-14L778-14C797-14 811-9 820 1C828 10 832 25 832 46L832 46L832 244L478 244L478-74ZM348 266L348-18L91-18L91 266L348 266ZM541 24L541 202L770 202L770 24L541 24ZM275 58L275 189L166 189L166 58L275 58ZM605 143L605 80L706 80L706 143L605 143Z"/>
    <glyph glyph-name="R" unicode="&#35666;"
      horiz-adv-x="1000" vert-adv-y="1172"
      d="M958 371L922 298L883 318L883-76L804-76L804-29L498-29L498-76L418-76L418 314L393 300L350 373C430 410 494 454 541 503L541 503L384 503L384 576L506 576C495 593 473 626 438 673L438 673L482 705C467 704 441 702 406 701L406 701L402 778C475 781 561 786 659 796C756 805 835 814 894 824L894 824L906 746C838 737 767 729 692 722L692 722L692 576L791 576L737 608C762 645 786 685 809 727L809 727L870 692C848 653 825 614 802 576L802 576L932 576L932 503L758 503C808 452 875 408 958 371L958 371ZM257 696L355 696L355 619L47 619L47 696L173 696C166 715 154 750 135 799L135 799L214 822C229 781 243 739 257 696L257 696ZM502 706C513 692 534 662 567 615L567 615L512 576L612 576L612 715L502 706ZM72 475L72 551L329 551L329 475L72 475ZM446 331L860 331C791 372 735 418 692 471L692 471L692 357L612 357L612 475C573 424 517 376 446 331L446 331ZM329 410L329 332L72 332L72 410L329 410ZM334 267L334-18L69-18L69 267L334 267ZM498 255L498 186L614 186L614 255L498 255ZM692 255L692 186L804 186L804 255L692 255ZM257 58L257 189L147 189L147 58L257 58ZM614 45L614 115L498 115L498 45L614 45ZM804 115L692 115L692 45L804 45L804 115Z"/>
    <glyph glyph-name="S" unicode="&#35667;"
      horiz-adv-x="1000" vert-adv-y="1172"
      d="M413 634L624 634L624 685L392 685L392 754L624 754L624 833L696 833L696 754L952 754L952 685L696 685L696 634L911 634L911 341L865 341C891 308 924 262 965 205L965 205L905 159C896 174 880 198 856 233L856 233C821 231 720 224 554 211L554 211C463 204 410 200 395 199L395 199L394 272L624 287L624 341L413 341L413 634ZM267 696L360 696L360 619L56 619L56 696L182 696C173 725 160 760 143 799L143 799L222 823L267 696ZM489 518L624 518L624 570L489 570L489 518ZM696 518L835 518L835 570L696 570L696 518ZM80 476L80 551L338 551L338 476L80 476ZM624 458L489 458L489 406L624 406L624 458ZM835 406L835 458L696 458L696 406L835 406ZM338 409L338 333L80 333L80 409L338 409ZM809 299L801 309L849 341L696 341L696 292C717 293 742 294 773 297L773 297C782 297 794 298 809 299L809 299ZM339 266L339-18L78-18L78 266L339 266ZM745 109L693 64C684 77 674 89 665 101C655 113 646 124 638 135L638 135C634 140 624 152 608 172L608 172L657 215L690 175C719 142 737 120 745 109L745 109ZM264 56L264 191L154 191L154 56L264 56ZM815 144L875 182C900 143 935 83 978 3L978 3L914-36C893 8 860 68 815 144L815 144ZM411-40L345-4C370 39 396 98 423 175L423 175L488 151C467 80 442 17 411-40L411-40ZM752 56C754 84 755 108 755 129L755 129L827 112C827 93 826 64 823 24L823 24C822 1 819-16 812-27C805-38 794-46 781-50C767-54 745-58 716-61L716-61C698-63 679-64 658-64L658-64C637-64 617-63 599-61L599-61C574-58 556-54 543-49C530-44 521-36 515-23C508-11 505 7 505 30L505 30L505 171L580 171L580 55C580 40 583 31 589 26C595 21 607 17 624 14L624 14C635 12 648 11 663 11L663 11C678 11 690 12 701 14L701 14C722 17 735 22 742 27C748 32 751 41 752 56L752 56Z"/>
    <glyph glyph-name="T" unicode="&#35668;"
      horiz-adv-x="1000" vert-adv-y="1172"
      d="M280 702L371 702L371 626L61 626L61 702L197 702C185 737 169 777 149 822L149 822L224 846C254 772 273 724 280 702L280 702ZM763 434C741 436 724 440 713 445C702 450 694 459 689 472C684 485 681 503 681 527L681 527L681 797L913 797L913 589L748 589L748 546C748 529 751 518 756 513C761 508 772 504 789 501L789 501C793 500 799 500 808 500L808 500C817 500 823 500 826 501L826 501C841 503 852 505 859 508C866 510 870 513 873 518C876 523 877 530 878 540L878 540L880 580L945 566L940 514C939 493 935 477 929 467C922 456 913 449 900 445C887 440 867 437 842 434L842 434C835 433 822 433 803 433L803 433C784 433 771 433 763 434L763 434ZM486 433C464 435 447 439 435 445C422 450 413 459 408 472C402 485 399 503 399 527L399 527L399 795L623 795L623 587L465 587L465 543C465 526 468 516 474 511C479 506 490 502 507 501L507 501C516 500 526 500 535 501L535 501C556 502 570 505 576 510C581 515 585 525 586 541L586 541C587 544 587 556 587 576L587 576L654 560C651 530 650 514 650 513L650 513C648 484 640 464 626 453C612 442 587 436 552 433L552 433L519 432L486 433ZM748 656L847 656L847 729L748 729L748 656ZM465 654L557 654L557 727L465 727L465 654ZM97 484L97 557L343 557L343 484L97 484ZM343 416L343 342L97 342L97 416L343 416ZM810 278L810 189L955 189L955 116L376 116L376 189L508 189L508 278L397 278L397 350L508 350L508 415L585 415L585 350L733 350L733 415L810 415L810 350L920 350L920 278L810 278ZM733 189L733 278L585 278L585 189L733 189ZM347 275L347-12L94-12L94 275L347 275ZM272 58L272 201L170 201L170 58L272 58ZM392-77L354-5C448 34 524 73 582 114L582 114L624 45C521-13 444-54 392-77L392-77ZM693 38L727 108C837 58 913 22 956 1L956 1L918-70C886-53 848-33 804-12C760 9 723 26 693 38L693 38Z"/>
    <glyph glyph-name="U" unicode="&#35669;"
      horiz-adv-x="1000" vert-adv-y="1172"
      d="M876 413L876 254L957 254L957 177L367 177L367 254L438 254L438 413L379 413L379 489L438 489L438 609C421 584 403 558 383 532L383 532L326 595C393 673 444 759 479 852L479 852L554 823C542 792 527 760 510 729L510 729L940 729L940 652L876 652L876 489L935 489L935 413L876 413ZM271 702L350 702L350 628L43 628L43 702L180 702C165 743 148 782 130 819L130 819L208 844C220 821 241 774 271 702L271 702ZM561 489L561 652L508 652L508 489L561 489ZM683 652L631 652L631 489L683 489L683 652ZM753 652L753 489L805 489L805 652L753 652ZM323 552L323 481L86 481L86 552L323 552ZM561 254L561 413L508 413L508 254L561 254ZM631 254L683 254L683 413L631 413L631 254ZM753 413L753 254L805 254L805 413L753 413ZM323 410L323 338L86 338L86 410L323 410ZM323 268L323-18L82-18L82 268L323 268ZM249 49L249 199L156 199L156 49L249 49ZM809 133L878 161C906 94 932 28 955-37L955-37L885-64C859 8 834 74 809 133L809 133ZM405-75L334-43C371 34 397 101 412 158L412 158L481 136C473 104 462 68 448 29C433-10 419-45 405-75L405-75ZM670 135L738 151C751 101 766 39 781-34L781-34L709-47C698 14 685 75 670 135L670 135ZM528 135L597 145C607 91 617 27 627-46L627-46L551-56C548-12 540 52 528 135L528 135Z"/>
    <glyph glyph-name="V" unicode="&#35670;"
      horiz-adv-x="1000" vert-adv-y="1172"
      d="M264 711L368 711L368 630L46 630L46 711L177 711C171 736 161 769 146 812L146 812L227 827C237 803 249 764 264 711L264 711ZM527 436L527 515C515 481 499 451 478 424C457 397 429 368 396 337L396 337L347 394C380 421 405 446 424 469C443 492 457 519 468 550L468 550L382 550L382 612L399 695L459 695L444 620L486 620C491 653 495 688 497 724L497 724L385 724L385 794L640 794L640 724L561 724C560 686 557 651 552 620L552 620L643 620L643 550L586 550L586 452L652 499L666 437L646 424C615 405 587 387 562 368L562 368L538 349L507 401C520 411 527 423 527 436L527 436ZM905 510L960 497C960 475 959 454 956 433L956 433C953 404 947 384 939 374C931 364 916 358 894 356L894 356L864 355L833 356C816 357 803 364 795 375C787 386 783 403 783 428L783 428L783 460C759 422 723 383 675 344L675 344L636 402C666 425 691 448 710 471C729 494 743 521 753 550L753 550L666 550L666 612L678 694L739 694L727 620L771 620C776 647 779 681 781 724L781 724L674 724L674 794L944 794L944 724L846 724C844 683 841 648 836 620L836 620L949 620L949 550L844 550L844 454C844 441 846 433 849 429C852 424 856 421 862 420L862 420L882 420C888 421 893 424 896 429C899 434 901 442 902 453L902 453L905 510ZM335 560L335 483L84 483L84 560L335 560ZM335 414L335 337L84 337L84 414L335 414ZM500-29L500-74L414-74L414 327L883 327L883-74L798-74L798-29L500-29ZM334 268L334-35L83-35L83 268L334 268ZM500 183L798 183L798 250L500 250L500 183ZM259 45L259 188L159 188L159 45L259 45ZM798 113L500 113L500 45L798 45L798 113Z"/>
    <glyph glyph-name="W" unicode="&#35671;"
      horiz-adv-x="1000" vert-adv-y="1172"
      d="M286 702L366 702L366 626L61 626L61 702L203 702C191 739 175 782 156 831L156 831L230 854C238 837 248 813 259 782C270 751 279 724 286 702L286 702ZM700 576L637 616C660 653 678 687 691 718C704 749 718 792 734 847L734 847L806 829L779 745L954 745L954 668L868 668C888 640 902 620 909 608L909 608L849 571C835 596 813 628 783 668L783 668L748 668C737 644 721 613 700 576L700 576ZM412 548L349 591C395 660 435 744 469 844L469 844L542 825C531 793 522 766 513 745L513 745L655 745L655 668L575 668L615 606L554 569C533 604 512 637 491 668L491 668L478 668C459 628 437 588 412 548L412 548ZM601 574L683 574C714 529 753 489 798 454C843 419 899 387 966 356L966 356L930 278C889 298 850 320 815 343L815 343L815 284L478 284L478 335C446 312 412 290 376 269L376 269L338 342L97 342L97 415L343 415L343 349C399 380 449 414 494 453C539 491 574 531 601 574L601 574ZM97 557L343 557L343 484L97 484L97 557ZM509 359L792 359C731 402 682 449 645 499L645 499C610 450 565 404 509 359L509 359ZM347 275L347-12L94-12L94 275L347 275ZM502-26L502-63L423-63L423 213L873 213L873-64L794-64L794-26L502-26ZM272 58L272 201L169 201L169 58L272 58ZM502 46L794 46L794 136L502 136L502 46Z"/>
    <glyph glyph-name="X" unicode="&#35672;"
      horiz-adv-x="1000" vert-adv-y="1172"
      d="M896 187L958 163C955 124 948 82 938 35L938 35C925-38 898-74 857-74L857-74C836-74 817-66 802-51C787-36 772-10 758 28L758 28L750 52C716 6 680-36 642-75L642-75L588-18L611 6L388 6L388 399L647 399L647 46C674 78 701 113 727 152L727 152C715 225 708 325 705 450L705 450L355 450L355 527L426 527C423 571 418 617 412 666L412 666L371 666L371 742L486 742C473 784 465 811 461 824L461 824L539 834C546 814 555 783 567 742L567 742L679 742L679 666L637 666C634 633 629 586 622 527L622 527L704 527L704 590C704 723 703 807 702 840L702 840L780 839C780 712 780 628 781 586L781 586L782 527L946 527L946 450L784 450C786 376 789 313 793 261L793 261C822 314 846 367 863 418L863 418L930 385C891 288 850 206 809 140L809 140C814 116 820 95 825 77L825 77C837 42 848 25 858 25L858 25C867 25 875 45 882 84L882 84C889 119 893 154 896 187L896 187ZM146 821L226 835C236 802 247 762 259 714L259 714L351 714L351 633L52 633L52 714L175 714C169 744 159 780 146 821L146 821ZM930 601L859 575C844 626 824 686 797 757L797 757L864 782C879 745 901 684 930 601L930 601ZM572 666L476 666L491 527L556 527C561 560 567 606 572 666L572 666ZM80 487L80 564L327 564L327 487L80 487ZM327 419L327 344L80 344L80 419L327 419ZM458 243L577 243L577 328L458 328L458 243ZM329 272L329-27L81-27L81 272L329 272ZM256 45L256 198L154 198L154 45L256 45ZM577 174L458 174L458 76L577 76L577 174Z"/>
    </font>
</defs>
</svg>
