<svg xmlns="http://www.w3.org/2000/svg">
<!--
Copyright 2021 Huawei Device Co., Ltd. All Rights Reserved.
  -->

  <defs>
    <font name="HarmonyOS Sans SC Light"
      horiz-adv-x="1000" vert-adv-y="1000" >
    <font-face font-family="HarmonyOS Sans SC Light" font-weight="400"
      font-stretch="normal"
      units-per-em="1000"
      ascent="928"
      descent="-244"/>
    <glyph glyph-name="" unicode="&#19980;"
      horiz-adv-x="1000" vert-adv-y="1172"
      d="M47 748L949 748L949 693L714 693L714-59L659-59L659 693L338 693L338 506C338 403 331 320 317 255C303 190 279 133 246 84C213 35 164-16 101-69L101-69L60-28C121 23 167 70 198 115C229 159 251 210 264 269C277 328 283 405 283 500L283 500L283 693L47 693L47 748Z"/>
    <glyph glyph-name="(" unicode="&#20008;"
      horiz-adv-x="1000" vert-adv-y="1172"
      d="M470-69L470 836L528 836L528-69L470-69Z"/>
    <glyph glyph-name="6" unicode="&#20022;"
      horiz-adv-x="1000" vert-adv-y="1172"
      d="M329 527L372 569C410 531 461 478 524 410C587 341 636 287 671 248L671 248L624 202C589 242 541 296 480 364C419 431 368 486 329 527L329 527Z"/>
    <glyph glyph-name="?" unicode="&#20031;"
      horiz-adv-x="1000" vert-adv-y="1172"
      d="M252-77L212-32C306 34 376 92 421 142C466 192 497 251 516 319C535 386 544 478 543 595L543 595L543 836L599 836L599 595C598 472 588 373 568 300C547 227 513 163 466 108C419 53 347-8 252-77L252-77Z"/>
    <glyph glyph-name=" " unicode="&#20128;"
      horiz-adv-x="1000" vert-adv-y="1172"
      d="M571 621L948 621L948 564L51 564L51 621L506 621C487 663 457 724 418 804L418 804L470 827C511 748 545 679 571 621L571 621Z"/>
    <glyph glyph-name="Â" unicode="&#20162;"
      horiz-adv-x="1000" vert-adv-y="1172"
      d="M297 839L348 824C321 748 287 670 246 590L246 590L246-68L194-68L194 497C153 429 109 368 61 313L61 313L35 366C84 423 132 494 180 581C227 667 266 753 297 839L297 839ZM591 614L888 614C887 535 884 443 879 339C874 234 868 150 861 87L861 87C856 40 843 6 822-14C801-34 768-44 723-45L723-45C674-45 633-43 602-38L602-38L591 14C630 8 669 5 706 5L706 5C741 6 766 13 781 28C795 42 804 68 808 107L808 107C815 172 820 246 825 331C829 415 831 492 831 561L831 561L589 561C583 438 573 342 559 274C544 205 521 146 490 95C458 44 409-13 344-77L344-77L302-36C365 24 412 77 442 124C472 171 494 226 508 291C521 355 530 445 535 561L535 561L324 561L324 614L537 614L540 709L544 838L597 838C595 733 593 659 591 614L591 614Z"/>
    <glyph glyph-name="t" unicode="&#20340;"
      horiz-adv-x="1000" vert-adv-y="1172"
      d="M253 835L305 826C283 753 258 684 231 619L231 619L231-75L180-75L180 508C143 433 102 367 58 309L58 309L33 362C75 422 115 493 153 575C191 657 224 744 253 835L253 835ZM831 711L831 146L958 153L957 100L831 93L831-76L779-76L779 90L293 62L291 118L415 125L415 711L330 711L330 763L937 763L937 711L831 711ZM466 554L779 554L779 711L466 711L466 554ZM779 347L779 504L466 504L466 347L779 347ZM779 296L466 296L466 127L779 144L779 296Z"/>
    <glyph glyph-name="" unicode="&#20369;"
      horiz-adv-x="1000" vert-adv-y="1172"
      d="M951 709L951 659L572 659C551 615 526 572 499 530L499 530L882 530L882 48C882 8 875-20 862-35C848-50 824-58 790-58L790-58C751-58 717-56 688-53L688-53L679-3C716-8 749-10 776-10L776-10C797-10 812-5 819 6C826 16 830 35 830 62L830 62L830 138L484 138L484-64L434-64L434 441C400 398 359 355 311 310L311 310L280 355C332 403 377 451 415 501C453 550 486 602 514 659L514 659L337 659L337 709L537 709C554 747 571 790 586 839L586 839L639 827C627 792 612 752 595 709L595 709L951 709ZM266 835L316 819C291 737 263 661 232 592L232 592L232-80L180-80L180 486C141 415 103 354 64 305L64 305L29 349C73 406 117 480 161 570C205 659 240 748 266 835L266 835ZM484 478L484 358L830 358L830 478L484 478ZM830 310L484 310L484 186L830 186L830 310Z"/>
    <glyph glyph-name="" unicode="&#20372;"
      horiz-adv-x="1000" vert-adv-y="1172"
      d="M428 558C402 556 377 553 352 550L352 550L340 597C357 601 372 608 385 618L385 618C411 643 443 679 482 724C520 769 553 811 581 848L581 848L625 819C600 784 571 747 536 708C501 668 468 634 438 605L438 605C491 608 549 611 613 614C677 617 738 620 797 623L797 623L694 744L731 776C811 686 876 609 927 546L927 546L890 512C873 534 855 555 837 576L837 576C769 574 692 571 607 568C521 564 461 561 428 558L428 558ZM253 840L307 825C284 753 257 679 224 603L224 603L224-71L173-71L173 496C141 434 106 376 68 322L68 322L33 368C75 427 115 498 153 579C191 660 224 747 253 840L253 840ZM660 187L947 187L947 136L660 136L660-69L611-69L611 136L283 136L283 187L611 187L611 344L417 344C398 309 375 271 347 232L347 232L302 259C359 335 402 419 432 510L432 510L480 493C470 460 457 427 442 394L442 394L611 394L611 521L660 521L660 394L905 394L905 344L660 344L660 187Z"/>
    <glyph glyph-name="Å" unicode="&#20421;"
      horiz-adv-x="1000" vert-adv-y="1172"
      d="M746 313C801 218 873 135 964 62L964 62L925 20C857 79 800 142 755 209C709 276 671 351 641 434L641 434L641 44C641 5 634-22 619-37C604-52 579-60 542-60L542-60C505-60 467-58 430-54L430-54L420-2C462-7 498-9 527-9L527-9C551-9 567-4 576 7C585 17 589 34 589 59L589 59L589 294C548 261 502 226 449 189C396 151 349 118 306 91L306 91L278 138C325 166 377 201 436 243C495 284 546 322 589 357L589 357L589 606L310 606L310 657L589 657L589 842L641 842L641 657L938 657L938 606L641 606L641 586C660 503 688 426 723 357L723 357C749 382 776 411 805 444C834 477 859 509 880 538L880 538L921 503C898 473 870 440 838 405C805 369 774 338 746 313L746 313ZM865 713L829 677C814 694 794 715 769 740C744 765 722 785 703 801L703 801L737 836C755 821 777 801 802 777C827 752 848 731 865 713L865 713ZM260 832L311 818C289 747 262 674 229 600L229 600L229-66L178-66L178 497C145 435 107 376 66 321L66 321L31 367C74 421 116 491 159 578C202 665 235 749 260 832L260 832ZM326 508L364 541C380 523 403 495 432 456C461 417 484 386 499 363L499 363L460 329C445 353 423 384 394 423C365 462 342 490 326 508L326 508Z"/>
    <glyph glyph-name="." unicode="&#20526;"
      horiz-adv-x="1000" vert-adv-y="1172"
      d="M247 831L299 821C278 748 252 675 220 603L220 603L220-70L169-70L169 496C134 430 98 373 62 324L62 324L29 368C72 425 114 494 153 577C192 660 223 744 247 831L247 831ZM945 247L693 247C730 201 770 160 814 123C858 86 908 54 965 26L965 26L938-21C876 11 821 49 774 92C726 135 682 184 642 239L642 239L642-74L593-74L593 240C548 181 502 131 455 89C408 47 351 7 285-30L285-30L256 19C317 51 370 85 415 122C460 158 501 200 538 247L538 247L286 247L286 295L593 295L593 403L363 403L363 782L872 782L872 403L642 403L642 295L945 295L945 247ZM413 615L593 615L593 736L413 736L413 615ZM642 736L642 615L821 615L821 736L642 736ZM593 570L413 570L413 447L593 447L593 570ZM821 570L642 570L642 447L821 447L821 570Z"/>
    <glyph glyph-name="~" unicode="&#20606;"
      horiz-adv-x="1000" vert-adv-y="1172"
      d="M636 686L636 571L587 571L587 686L356 686L356 732L587 732L587 840L636 840L636 732L900 732L900 686L636 686ZM242 828L291 814C268 736 243 668 218 609L218 609L218-80L169-80L169 499C134 426 97 363 59 308L59 308L29 355C69 414 108 486 147 571C185 656 217 741 242 828L242 828ZM755 623L804 623L804 535L955 535L955 490L804 490L804 406L755 406L755 490L469 490L469 405L418 405L418 490L280 490L280 535L418 535L418 623L469 623L469 535L755 535L755 623ZM372 365L851 365L851 96L800 96L800 320L423 320L423 97L372 97L372 365ZM635 214C632 185 626 160 619 138L619 138C778 58 886 3 941-26L941-26L918-70C857-37 773 7 666 62L666 62L600 97C577 61 542 30 493 4C444-22 376-48 287-73L287-73L268-24C351-3 415 20 460 43C505 66 536 92 553 119C570 146 581 179 585 218L585 218L588 279L639 279L638 256L635 214Z"/>
    <glyph glyph-name="º" unicode="&#20666;"
      horiz-adv-x="1000" vert-adv-y="1172"
      d="M277 274L249 313C309 349 361 390 405 436L405 436C374 469 342 499 309 528L309 528C301 518 288 503 271 483L271 483L238 521C275 559 312 608 348 667C384 726 412 781 431 833L431 833L475 820C465 792 455 767 444 745L444 745L611 745L611 700C579 605 538 525 488 461C438 397 368 335 277 274L277 274ZM791 498C835 436 895 383 972 340L972 340L945 299C880 338 827 380 786 427C745 474 713 529 689 593C665 656 646 735 631 828L631 828L677 831C682 793 687 764 691 744L691 744L923 744L923 697C910 676 891 646 864 606C837 565 812 529 791 498L791 498ZM242 830L290 817C268 740 241 665 210 592L210 592L210-77L163-77L163 490C131 427 99 371 66 324L66 324L39 376C76 429 113 496 150 578C187 660 217 744 242 830L242 830ZM564 700L422 700L405 668C442 637 476 605 508 574L508 574C531 615 549 657 564 700L564 700ZM873 697L702 697C717 636 738 584 765 539L765 539C810 602 846 654 873 697L873 697ZM334 560C366 531 399 500 433 466L433 466C454 491 471 515 486 538L486 538C451 573 417 605 384 633L384 633C363 600 346 575 334 560L334 560ZM756 433L756 387L487 387L487 433L756 433ZM905 263L905 215L646 215L646 35C646 11 644-8 639-21C634-34 625-44 612-50C599-56 580-59 555-59L555-59C522-59 493-57 470-54L470-54L459-2C490-7 518-9 543-9L543-9C563-9 576-4 583 5C590 14 593 30 593 54L593 54L593 215L332 215L332 263L905 263ZM720 146L753 180C777 159 809 130 849 92C888 54 920 22 943-3L943-3L908-40C887-16 856 16 816 56C776 95 744 125 720 146L720 146ZM443 177L482 148C461 119 434 86 400 50C366 14 332-18 298-47L298-47L260-10C291 13 324 43 359 79C394 115 422 148 443 177L443 177Z"/>
    <glyph glyph-name="í" unicode="&#20717;"
      horiz-adv-x="1000" vert-adv-y="1172"
      d="M227 830L276 818C255 742 232 673 209 612L209 612L209-68L159-68L159 493C132 435 102 379 67 324L67 324L33 367C70 423 106 493 141 576C176 659 204 744 227 830L227 830ZM601 596L601 553L468 553C454 508 434 467 407 431C380 395 342 358 293 319L293 319L265 359C308 392 341 424 366 454C390 483 409 516 422 553L422 553L300 553L300 591L326 700L364 692L342 596L435 596C443 627 449 672 454 731L454 731L310 731L310 774L600 774L600 731L496 731C493 676 487 631 479 596L479 596L601 596ZM915 472L954 464C951 418 949 397 950 402L950 402C949 383 944 370 936 362C927 354 914 349 896 347L896 347C889 346 877 346 862 346L862 346C847 346 836 346 828 347L828 347C809 349 795 355 787 365C779 374 775 391 775 415L775 415L775 503C761 471 742 441 719 413C695 384 665 356 629 328L629 328L602 363C642 394 674 425 697 455C720 484 737 517 749 553L749 553L632 553L632 591L651 695L689 688L671 596L761 596C768 631 773 676 775 731L775 731L628 731L628 774L943 774L943 731L816 731C815 679 810 634 803 596L803 596L948 596L948 553L793 553C788 538 784 526 780 516L780 516L812 516L812 429C812 414 814 403 819 397C824 391 832 388 843 387L843 387C847 386 853 386 861 386L861 386C871 386 879 386 885 387L885 387C895 388 902 390 906 395C910 400 912 408 913 420L913 420C914 445 915 463 915 472L915 472ZM470 516L509 516L509 413L540 432L612 478L618 439C589 420 551 395 503 366L503 366C489 356 478 348 471 342L471 342L453 370C460 376 464 382 467 388C469 393 470 400 470 407L470 407L470 516ZM415-27L415-77L366-77L366 299L865 299L865-77L815-77L815-27L415-27ZM415 158L815 158L815 255L415 255L415 158ZM815 117L415 117L415 18L815 18L815 117Z"/>
    <glyph glyph-name="U" unicode="&#20821;"
      horiz-adv-x="1000" vert-adv-y="1172"
      d="M884 196L936 185C936 167 934 129 930 71L930 71C928 43 924 22 917 8C910-6 900-16 887-21C873-27 853-31 826-34L826-34C801-36 777-37 752-37L752-37C728-37 703-36 678-34L678-34C653-31 633-26 619-19C605-12 595-1 588 14C581 29 578 51 578 79L578 79L578 320L392 320C392 309 391 296 389 283L389 283C383 219 370 166 350 125C330 83 299 46 257 14C214-18 155-49 78-80L78-80L52-29C123-1 178 27 217 55C255 82 283 114 300 149C317 184 328 229 333 284L333 284C334 292 335 299 335 305C335 311 335 316 336 320L336 320L123 320L123 795L412 795L412 579L589 579L589 795L876 795L876 320L633 320L633 93C633 73 635 58 639 49C642 39 648 32 657 28C666 24 679 21 697 19L697 19C724 16 743 15 755 15L755 15C768 15 788 16 813 19L813 19C832 21 846 24 855 29C864 33 870 40 874 49C877 58 880 71 881 90L881 90C883 144 884 179 884 196L884 196ZM362 530L362 746L175 746L175 372L824 372L824 746L639 746L639 530L362 530Z"/>
    <glyph glyph-name="" unicode="&#20865;"
      horiz-adv-x="1000" vert-adv-y="1172"
      d="M446 167L446 120L276 120L276-71L232-71L232 120L51 120L51 167L232 167L232 277L92 277L92 673L266 673C281 696 299 724 318 756C337 787 352 814 364 837L364 837L406 819C383 777 354 728 318 673L318 673L415 673L415 277L276 277L276 167L446 167ZM223 710L186 688C147 751 120 794 105 815L105 815L142 837C164 804 191 762 223 710L223 710ZM832 88C866 50 908 19 957-5L957-5L934-50C873-15 825 25 788 71C751 117 725 175 708 245L708 245L639 245L639-5L754 55L766 13C719-9 672-33 625-60L625-60C611-68 601-74 596-77L596-77L575-39C583-34 589-29 592-25C595-21 597-16 597-10L597-10L597 245L529 245C524 180 514 124 499 78C484 31 460-20 427-75L427-75L383-53C413-4 435 40 450 79C465 118 475 164 481 215C487 266 490 335 490 421L490 421L490 778L912 778L912 580L534 580L534 455L636 455L636 549L677 549L677 455L789 455L789 549L830 549L830 455L919 455L919 411L830 411L830 288L947 288L947 245L750 245C763 196 782 155 807 120L807 120C851 153 887 182 915 208L915 208L940 174C910 148 874 119 832 88L832 88ZM534 624L867 624L867 734L534 734L534 624ZM133 498L233 498L233 625L133 625L133 498ZM275 625L275 498L375 498L375 625L275 625ZM233 323L233 452L133 452L133 323L233 323ZM375 452L275 452L275 323L375 323L375 452ZM534 411L534 398C534 369 533 332 532 288L532 288L636 288L636 411L534 411ZM677 288L789 288L789 411L677 411L677 288Z"/>
    <glyph glyph-name="" unicode="&#20866;"
      horiz-adv-x="1000" vert-adv-y="1172"
      d="M874 770L874 72C874 39 871 13 864-6C857-25 845-39 829-47C812-55 790-59 761-60L761-60C721-61 676-58 626-53L626-53L616-1C667-7 710-10 744-10L744-10C773-10 793-3 804 12C815 26 820 51 820 87L820 87L820 720L175 720L175-60L122-60L122 770L874 770Z"/>
    <glyph glyph-name="õ" unicode="&#20981;"
      horiz-adv-x="1000" vert-adv-y="1172"
      d="M174 58L824 58L824 796L877 796L877-68L824-68L824 7L122 7L122 796L174 796L174 58Z"/>
    <glyph glyph-name="-" unicode="&#21037;"
      horiz-adv-x="1000" vert-adv-y="1172"
      d="M836 74L836 824L887 824L887 57C887 29 884 7 877-8C870-24 859-35 842-42C825-49 802-53 771-54L771-54C730-54 688-52 647-48L647-48L638 4C683-1 723-4 760-4L760-4C790-4 810 1 821 12C831 23 836 43 836 74L836 74ZM484 771L484 723C444 666 401 615 355 570L355 570C429 524 498 478 562 433L562 433L534 389C504 412 468 437 427 465C386 493 349 517 318 537L318 537C245 471 163 416 71 371L71 371L41 414C116 450 186 494 251 547C316 599 371 656 416 719L416 719L78 719L78 771L484 771ZM635 155L635 739L685 739L685 155L635 155ZM327 277L327 60L537 82L560 85L561 34C484 25 394 16 289 5C184-6 104-14 48-19L48-19L42 32L275 55L275 277L76 277L76 329L521 329L521 277L327 277Z"/>
    <glyph glyph-name="^" unicode="&#21086;"
      horiz-adv-x="1000" vert-adv-y="1172"
      d="M106 472L85 515C154 538 205 562 237 587C269 611 290 642 301 681L301 681L101 681L101 729L311 729L312 744C313 765 314 795 314 834L314 834L364 834C364 817 363 785 361 739L361 739L361 729L591 729L591 681L355 681C354 672 350 660 345 646L345 646L578 515L552 473C469 524 393 568 326 607L326 607C308 580 282 556 247 535C212 514 165 493 106 472L106 472ZM846 70L846 825L896 825L896 58C896 17 888-12 872-31C855-50 829-60 794-60L794-60C749-60 703-58 658-54L658-54L649-5C702-10 746-12 783-12L783-12C805-12 821-5 831 9C841 22 846 43 846 70L846 70ZM670 147L670 724L717 724L717 147L670 147ZM474 406L59 406L59 453L614 453L614 406L523 406L523 46C523 7 516-20 502-35C487-51 463-59 428-59L428-59C402-59 364-57 313-53L313-53L304-5C355-10 392-13 417-13L417-13C437-13 452-7 461 4C470 15 474 33 474 58L474 58L474 406ZM119 75L119 314L369 314L369 75L119 75ZM161 271L161 119L327 119L327 271L161 271Z"/>
    <glyph glyph-name="" unicode="&#21121;"
      horiz-adv-x="1000" vert-adv-y="1172"
      d="M141 215L141 597C118 558 93 520 64 481L64 481L41 531C74 574 104 622 133 677C162 732 185 786 202 841L202 841L246 832C232 787 217 747 200 710L200 710L385 710L342 834L385 846L433 710L605 710L605 665L409 665L409 560L590 560L590 516L409 516L409 411L590 411L590 367L409 367L409 261L614 261L614 215L141 215ZM849 68L849 826L897 826L897 55C897 15 889-14 873-32C857-51 831-60 795-60L795-60C757-60 720-58 684-54L684-54L674-3C723-8 761-11 786-11L786-11C807-11 823-4 834 9C844 22 849 41 849 68L849 68ZM677 166L677 743L722 743L722 166L677 166ZM187 665L187 560L365 560L365 665L187 665ZM187 516L187 411L365 411L365 516L187 516ZM187 367L187 261L365 261L365 367L187 367ZM503 165L541 183C551 164 564 139 581 106C597 73 609 48 617 31L617 31L635-7L594-23C565 42 534 105 503 165L503 165ZM379 157L419 169C445 92 465 28 479-23L479-23L437-34C421 27 402 90 379 157L379 157ZM97-74L55-56C70-23 85 13 100 54C115 95 128 130 137 160L137 160L177 148C168 118 156 82 141 40C126-3 111-41 97-74L97-74ZM248 149L290 157C305 70 316 4 323-43L323-43L280-50C275-6 264 60 248 149L248 149Z"/>
    <glyph glyph-name="" unicode="&#21122;"
      horiz-adv-x="1000" vert-adv-y="1172"
      d="M861 55L861 808L906 808L906 45C906 8 900-19 888-35C876-51 856-59 828-59L828-59C794-59 760-57 726-53L726-53L717-8C756-13 789-15 817-15L817-15C834-15 845-10 852 1C858 12 861 30 861 55L861 55ZM97 766L669 766L669 720L141 720L141 413C141 321 139 249 135 198C130 147 122 102 111 64C99 26 81-18 56-67L56-67L12-46C37 2 55 45 67 83C78 121 86 166 91 217C95 268 97 340 97 432L97 432L97 766ZM725 152L725 703L767 703L767 152L725 152ZM425 450L425 189L325 189C320 134 307 88 287 51C266 13 233-28 187-71L187-71L156-42C200-3 232 34 252 67C271 100 284 141 289 189L289 189L195 189L195 450L232 450L232 232L292 232C293 241 293 256 293 277L293 277L293 501L177 501L177 545L321 545C346 592 369 641 390 694L390 694L426 681C410 641 388 596 361 545L361 545L439 545L439 501L329 501L329 278C329 257 329 242 328 232L328 232L390 232L390 450L425 450ZM289 581L256 564C233 613 214 651 199 676L199 676L232 694C254 656 273 618 289 581L289 581ZM667 517L630 358L594 372L630 517L515 517C506 471 491 419 472 362L472 362L437 379C472 481 494 583 503 686L503 686L542 683C538 642 532 601 524 561L524 561L667 561L667 517ZM561 318C561 279 559 247 556 222L556 222C589 165 628 94 673 7L673 7L638-19C602 56 571 118 546 166L546 166C535 123 518 83 493 46C468 9 434-30 389-70L389-70L359-38C404-1 438 35 462 71C485 107 501 145 510 184C519 223 523 268 522 321L522 321L522 440L560 440C561 425 561 384 561 318L561 318Z"/>
    <glyph glyph-name="" unicode="&#21136;"
      horiz-adv-x="1000" vert-adv-y="1172"
      d="M440 765L440 838L483 838L483 765L634 765L634 724L483 724L483 667L440 667L440 724L269 724L269 667L226 667L226 724L65 724L65 765L226 765L226 838L269 838L269 765L440 765ZM850 66L850 826L897 826L897 52C897 12 890-17 876-34C862-51 836-60 799-60L799-60C760-60 723-58 688-53L688-53L678-3C683-4 697-5 720-8C743-11 764-12 784-12L784-12C809-12 827-6 836 5C845 16 850 37 850 66L850 66ZM682 158L682 743L726 743L726 158L682 158ZM184 663L225 649C213 624 204 605 197 593L197 593L374 593C363 617 352 639 341 660L341 660L380 677L420 593L600 593L600 556L407 556L407 492L584 492L584 458L407 458L407 397L584 397L584 363L407 363L407 298L616 298L616 261L142 261L142 503C120 470 93 435 60 397L60 397L35 436C98 503 147 578 184 663L184 663ZM184 556L184 492L365 492L365 556L184 556ZM184 458L184 397L365 397L365 458L184 458ZM184 363L184 298L365 298L365 363L184 363ZM580 210L580 172C523 123 468 82 413 51L413 51L623-26L605-66C524-33 444-2 367 27L367 27C327 7 283-11 234-26C185-42 127-57 61-72L61-72L44-28C155-5 243 21 310 49L310 49L149 109L166 143L359 71C412 97 461 130 508 170L508 170L103 170L103 210L580 210Z"/>
    <glyph glyph-name="ù" unicode="&#21241;"
      horiz-adv-x="1000" vert-adv-y="1172"
      d="M300 691L868 691C868 486 860 290 844 103L844 103C840 62 832 31 820 10C808-12 789-28 763-37C737-46 700-51 651-51L651-51C612-51 563-49 504-44L504-44L494 10C550 4 604 1 656 1L656 1C690 1 716 5 734 14C751 22 764 35 772 52C779 69 784 93 787 124L787 124C802 301 810 471 810 636L810 636L271 636C220 546 162 465 96 394L96 394L51 432C103 487 151 550 195 621C238 692 276 768 307 847L307 847L361 830C344 785 324 738 300 691L300 691Z"/>
    <glyph glyph-name="&" unicode="&#21286;"
      horiz-adv-x="1000" vert-adv-y="1172"
      d="M930 743L171 743L171 18L947 18L947-30L122-30L122 791L930 791L930 743ZM435 228L435 57L391 57L391 221C308 207 251 198 219 193L219 193L212 239L391 266L391 364L240 364L240 408C261 449 286 504 313 573L313 573L214 573L214 617L330 617C344 656 354 689 361 715L361 715L405 707C397 680 387 650 376 617L376 617L536 617L536 573L359 573C336 511 312 456 288 409L288 409L391 409L391 530L435 530L435 409L535 409L535 364L435 364L435 273C483 280 520 285 546 290L546 290L550 247C526 244 488 237 435 228L435 228ZM829 89C792 90 774 111 774 152L774 152L774 505L674 505C673 499 673 491 673 480L673 480C672 407 667 348 660 303C652 258 639 218 621 184C603 149 576 109 541 65L541 65L502 97C537 139 564 177 581 210C598 243 610 279 617 320C624 360 628 413 629 480L629 480L629 505L540 505L540 550L630 550L632 707L676 707L674 550L819 550L819 166C819 155 821 148 824 143C827 138 833 136 841 135L841 135L855 134C868 134 878 136 884 141C889 146 892 155 893 168L893 168C893 177 894 192 895 215L895 215L897 305L938 297L933 154C932 131 927 114 919 105C910 95 895 90 874 89L874 89C859 88 844 88 829 89L829 89Z"/>
    <glyph glyph-name="i" unicode="&#21353;"
      horiz-adv-x="1000" vert-adv-y="1172"
      d="M746 760L746 278C746 238 742 207 733 186C724 165 708 149 685 140C662 131 629 126 586 126L586 126C553 126 513 128 466 133L466 133L455 192C495 185 538 182 583 182L583 182C611 182 633 186 648 194C663 201 673 213 679 229C684 245 687 267 687 296L687 296L687 704L356 704L356-77L298-77L298 760L746 760Z"/>
    <glyph glyph-name="z" unicode="&#21370;"
      horiz-adv-x="1000" vert-adv-y="1172"
      d="M719 541C750 520 785 501 824 484C863 467 909 451 963 435L963 435L941 386C852 414 778 447 719 486C660 525 607 575 559 638L559 638L530 626L530 512C530 482 525 461 515 448C505 435 488 429 463 428L463 428C421 428 381 430 343 435L343 435L335 479C376 473 409 470 435 470L435 470C450 470 460 475 467 484C473 493 476 506 476 523L476 523L476 647L690 736L173 736L173 780L802 780L802 742L599 656C627 621 654 592 681 570L681 570C754 614 819 657 875 699L875 699L903 661C846 620 785 580 719 541L719 541ZM382 643L382 597C316 510 208 435 57 374L57 374L35 418C106 445 165 474 212 505C259 536 295 566 322 596L322 596L70 596L70 643L382 643ZM137 339L137 380L850 380L850 339L137 339ZM828 69L832 132L834 168L887 155C886 145 885 130 884 110C883 90 882 72 881 55L881 55C879 25 873 2 865-13C856-29 841-40 820-46C799-53 769-56 729-57L729-57C682-58 612-59 518-59L518-59C424-59 353-58 306-57L306-57C271-56 245-53 227-46C209-40 196-29 189-12C181 5 177 29 177 62L177 62L177 258L759 258C756 226 752 196 747 169L747 169C741 131 731 105 718 91C704 77 680 70 647 69L647 69L611 69C544 69 486 72 437 77L437 77L430 117C488 110 555 106 632 106L632 106C651 106 665 111 674 121C683 130 690 146 695 169L695 169C699 186 702 201 704 216L704 216L230 216L230 71C230 48 232 31 237 20C242 9 250 1 263-4C276-9 295-11 322-12L322-12C366-13 432-14 519-14L519-14C607-14 673-13 716-12L716-12C747-11 771-9 786-4C801 1 812 9 818 20C823 31 827 47 828 69L828 69Z"/>
    <glyph glyph-name="£" unicode="&#21411;"
      horiz-adv-x="1000" vert-adv-y="1172"
      d="M151 782L952 782L952 733L202 733L202 456C202 366 199 293 193 237C186 181 175 130 160 85C145 40 121-11 90-68L90-68L41-46C71 9 94 58 109 103C124 147 135 196 142 250C148 304 151 373 151 456L151 456L151 782ZM956 404L937 358C913 365 893 371 876 377L876 377L857 383L857 86L610 86L610-72L562-72L562 86L313 86L313 382C291 373 267 364 241 355L241 355L223 400C296 423 354 448 397 475C440 501 474 532 497 568L497 568L246 568L246 611L520 611L529 634C536 652 543 677 549 708L549 708L600 702C596 686 590 663 582 634L582 634C580 627 577 620 574 611L574 611L757 611C734 641 714 667 695 689L695 689L732 711C747 694 773 660 808 611L808 611L936 611L936 568L650 568C678 530 716 498 763 474C810 449 874 425 956 404L956 404ZM363 404L802 404C752 425 711 449 678 475C645 501 617 532 593 568L593 568L555 568C538 535 514 505 483 479C452 452 412 427 363 404L363 404ZM360 363L360 263L562 263L562 363L360 363ZM610 363L610 263L810 263L810 363L610 363ZM562 223L360 223L360 128L562 128L562 223ZM810 223L610 223L610 128L810 128L810 223Z"/>
    <glyph glyph-name="¶" unicode="&#21430;"
      horiz-adv-x="1000" vert-adv-y="1172"
      d="M909-23L854-52C834-11 816 24 801 55L801 55C556 33 358 14 207-3L207-3L173-8C156-10 132-14 101-19L101-19L86 44C104 49 117 54 126 59C135 64 144 73 154 84L154 84C201 163 258 278 324 429C389 580 439 711 473 823L473 823L533 803C492 679 441 547 380 406C319 265 260 147 205 52L205 52C300 62 396 72 491 81C586 90 680 99 775 108L775 108C707 243 649 358 600 451L600 451L650 477C697 388 784 221 909-23L909-23Z"/>
    <glyph glyph-name="#" unicode="&#21539;"
      horiz-adv-x="1000" vert-adv-y="1172"
      d="M555 797L593 824C617 788 644 745 675 695C705 645 730 602 749 567L749 567L707 539C670 609 620 695 555 797L555 797ZM320 702L320 61L94 61L94 702L320 702ZM272 653L141 653L141 113L272 113L272 653ZM567 632L567 80C567 60 569 45 572 35C575 25 581 18 589 14C597 10 610 7 627 5L627 5C636 4 649 4 667 4L667 4C684 4 697 4 706 5L706 5C726 7 741 10 750 14C759 17 765 24 768 33C771 42 774 58 775 79L775 79C776 100 777 125 778 153C779 181 779 206 779 227L779 227L829 217L828 184L823 65C822 36 818 14 812-1C806-16 796-26 781-33C766-40 744-44 715-47L715-47C704-48 686-49 663-49L663-49C640-49 623-48 612-47L612-47C587-44 567-40 554-33C540-26 530-15 524 1C518 17 515 40 515 70L515 70L515 632L567 632ZM793 532L839 546C855 504 875 445 899 369C923 293 942 228 957 174L957 174L911 159C896 214 877 279 853 354C829 429 809 489 793 532L793 532ZM402 139L355 150C368 203 381 265 393 335C404 405 413 470 418 530L418 530L462 524C457 464 448 398 437 325C426 252 414 190 402 139L402 139Z"/>
    <glyph glyph-name="Y" unicode="&#21593;"
      horiz-adv-x="1000" vert-adv-y="1172"
      d="M524 402L872 402L872 57C872 14 864-15 847-32C830-49 800-58 757-58L757-58C713-58 672-56 634-52L634-52L624-2C673-7 715-9 750-9L750-9C777-9 795-3 805 9C815 21 820 42 820 71L820 71L820 354L519 354C514 327 509 308 505 295L505 295C547 269 595 239 650 204C704 169 746 142 776 121L776 121L748 77C710 103 667 132 620 164C572 195 528 224 487 250L487 250C467 211 438 177 400 148C361 119 308 88 239 55L239 55L214 103C273 130 318 154 351 176C384 197 409 222 428 250C447 278 459 313 466 354L466 354L178 354L178-62L126-62L126 402L472 402C473 412 473 428 473 451L473 451L473 524L197 524L197 784L801 784L801 524L525 524L525 451C525 429 525 413 524 402L524 402ZM749 570L749 737L249 737L249 570L749 570Z"/>
    <glyph glyph-name="´" unicode="&#21684;"
      horiz-adv-x="1000" vert-adv-y="1172"
      d="M626 291L584 271C566 319 540 381 506 456L506 456C491 362 466 276 432 197C398 118 352 40 295-38L295-38L251-9C321 80 373 175 408 276C442 376 464 496 473 636L473 636L475 662L367 662L367 712L478 712C481 763 482 807 482 844L482 844L532 845L528 712L948 712L948 662L526 662L524 631C521 578 516 531 511 490L511 490L535 501C548 475 563 441 582 399C600 356 615 320 626 291L626 291ZM98 117L98 743L319 743L319 117L98 117ZM146 693L146 168L271 168L271 693L146 693ZM726 411C735 316 759 234 798 167C836 99 890 39 961-12L961-12L932-58C816 27 741 138 706 276L706 276C688 207 658 145 616 90C574 34 518-18 448-67L448-67L416-26C506 35 573 103 616 179C659 254 680 345 680 451L680 451L680 607L727 607L727 451C727 433 727 420 726 411L726 411ZM828 273L786 295C817 357 847 430 876 513L876 513L922 496C897 423 865 349 828 273L828 273Z"/>
    <glyph glyph-name="Õ" unicode="&#21717;"
      horiz-adv-x="1000" vert-adv-y="1172"
      d="M919 779L919 555L638 555C620 511 600 469 578 429L578 429L905 429L905 383C860 283 795 196 710 122C625 48 513-18 374-76L374-76L343-30C474 21 580 81 661 148C742 215 804 293 849 382L849 382L551 382C546 373 532 352 510 319L510 319C571 280 620 246 659 216L659 216L628 176C583 212 534 247 482 282L482 282C452 243 420 207 387 175L387 175L354 214C449 307 525 421 583 555L583 555L422 555L422 780L469 780L469 606L645 606L645 840L694 840L694 606L870 606L870 779L919 779ZM323 732L323 111L94 111L94 732L323 732ZM275 162L275 682L143 682L143 162L275 162Z"/>
    <glyph glyph-name="Ù" unicode="&#21721;"
      horiz-adv-x="1000" vert-adv-y="1172"
      d="M643 819L688 819C718 755 757 696 805 641C853 586 906 540 965 501L965 501L937 457C881 494 830 539 784 591C737 642 698 699 665 761L665 761C640 710 602 656 553 599C504 542 450 491 391 448L391 448L360 488C420 532 476 585 528 646C579 707 618 764 643 819L643 819ZM341 732L341 80L103 80L103 732L341 732ZM293 128L293 684L150 684L150 128L293 128ZM835 440L474 440L474 488L835 488L835 440ZM571 256L375 256L375 304L937 304L937 256L628 256C607 215 584 172 558 129C531 86 506 47 482 12L482 12L642 30C718 38 775 44 813 49L813 49C780 101 749 147 721 188L721 188L761 212C781 185 808 146 841 95C874 44 902 1 923-33L923-33L881-60L855-17L840 7C780 1 720-5 661-11C602-17 542-23 482-30L482-30L407-39L398 5C407 9 413 13 418 16C422 19 426 24 430 29L430 29C481 97 528 173 571 256L571 256Z"/>
    <glyph glyph-name="Ü" unicode="&#21724;"
      horiz-adv-x="1000" vert-adv-y="1172"
      d="M679 454C745 409 836 373 953 344L953 344L935 293C870 310 813 330 766 351C718 372 675 396 638 423L638 423C568 374 477 332 364 297L364 297L345 346C450 377 535 413 598 455L598 455C567 482 539 514 514 549C488 584 463 626 439 673L439 673L365 673L365 723L631 723C608 776 590 813 578 835L578 835L628 850C646 817 665 774 686 723L686 723L933 723L933 673L836 673C797 583 745 510 679 454L679 454ZM85 97L85 734L322 734L322 97L85 97ZM133 683L133 148L273 148L273 683L133 683ZM784 673L495 673C517 632 539 596 562 566C585 535 610 508 639 484L639 484C698 531 747 594 784 673L784 673ZM484 254C484 258 484 267 485 282C485 297 485 307 484 313L484 313L535 313L534 256C533 202 528 157 517 120C506 83 487 49 459 19C431-12 391-44 339-76L339-76L305-37C355-7 393 21 418 48C443 74 461 103 470 134C479 165 483 205 484 254L484 254ZM791 311L791-67L741-67L741 311L791 311Z"/>
    <glyph glyph-name="ÿ" unicode="&#21759;"
      horiz-adv-x="1000" vert-adv-y="1172"
      d="M74 442L41 475C81 501 112 525 135 546C157 567 173 590 184 613C195 636 202 663 207 695L207 695L65 695L65 742L211 742C213 768 215 799 216 836L216 836L266 836C265 802 263 771 261 742L261 742L478 742C477 715 476 684 473 651C470 618 467 591 464 572L464 572C459 547 453 528 447 515C440 502 429 492 415 487C401 481 381 478 355 478L355 478C332 478 306 480 276 483L276 483L266 529C298 524 328 521 355 521L355 521C375 521 389 525 398 534C406 543 412 561 417 588L417 588C422 618 426 654 427 695L427 695L257 695C249 640 231 594 205 557C178 520 134 481 74 442L74 442ZM569 500L569 769L879 769L879 500L569 500ZM615 721L615 547L832 547L832 721L615 721ZM46 407L955 407L955 361L804 361L804 57C804 23 800-3 792-20C783-37 768-49 747-56C726-63 694-67 653-67L653-67C626-67 595-65 560-62L560-62L551-10C583-16 620-19 663-19L663-19C688-18 707-16 720-11C733-6 742 2 747 15C752 28 754 46 754 71L754 71L754 361L46 361L46 407ZM161 44L161 263L565 263L565 44L161 44ZM209 219L209 89L518 89L518 219L209 219Z"/>
    <glyph glyph-name="*" unicode="&#21802;"
      horiz-adv-x="1000" vert-adv-y="1172"
      d="M943 410L762 410C811 319 879 251 967 208L967 208L943 164C845 219 768 301 712 410L712 410L545 410C500 317 435 234 350 160L350 160L320 199C359 232 393 266 421 301C448 335 472 371 492 410L492 410L350 410L350 455L513 455C526 487 536 517 544 546L544 546L390 546L390 590L555 590C560 611 567 643 574 684L574 684L371 684L371 729L581 729C582 742 584 753 585 760L585 760C586 771 588 783 590 796C591 809 593 823 594 838L594 838L642 836L630 729L913 729L913 684L624 684C619 652 613 621 606 590L606 590L885 590L885 546L595 546C586 513 575 482 564 455L564 455L943 455L943 410ZM297 720L297 47L88 47L88 720L297 720ZM250 97L250 670L136 670L136 97L250 97ZM800 258L800 213L654 213L654 117L895 117L895 72L654 72L654-87L606-87L606 72L369 72L369 117L606 117L606 213L462 213L462 258L606 258L606 365L654 365L654 258L800 258Z"/>
    <glyph glyph-name="<" unicode="&#21820;"
      horiz-adv-x="1000" vert-adv-y="1172"
      d="M783 505L959 505L959 457L358 457L358 505L527 505C514 563 501 623 486 684L486 684L398 684L398 731L646 731C633 761 615 796 593 836L593 836L643 852C660 820 679 780 700 731L700 731L919 731L919 684L825 684C812 622 798 562 783 505L783 505ZM94 91L94 738L314 738L314 91L94 91ZM142 688L142 141L266 141L266 688L142 688ZM774 684L535 684C545 645 559 585 578 505L578 505L733 505C743 544 757 604 774 684L774 684ZM946 276L829 276C812 233 795 197 778 168C761 139 740 112 715 89L715 89C796 52 874 15 947-23L947-23L923-69C848-28 765 14 674 57L674 57C639 33 593 11 538-8C483-28 412-48 325-68L325-68L309-19C385-2 448 14 498 30C547 45 588 62 621 81L621 81C558 108 494 135 428 160L428 160C447 189 467 228 489 276L489 276L358 276L358 323L510 323C527 363 541 397 550 426L550 426L599 415C586 380 574 349 563 323L563 323L946 323L946 276ZM492 181C545 162 603 139 666 111L666 111C691 131 711 154 727 179C743 204 759 237 776 276L776 276L542 276C523 237 507 205 492 181L492 181Z"/>
    <glyph glyph-name="" unicode="&#21896;"
      horiz-adv-x="1000" vert-adv-y="1172"
      d="M903 625L947 616L943 526C941 494 933 472 919 460C905 447 881 440 846 439L846 439L803 438L760 439C727 440 705 448 692 461C679 474 672 497 672 530L672 530L672 838L717 838L717 662C749 681 782 701 817 723C852 745 879 764 899 779L899 779L921 738C898 721 867 700 827 675C787 650 750 628 717 611L717 611L717 543C717 520 721 505 729 498C736 490 751 485 772 484L772 484L807 483L841 484C864 485 880 490 888 498C895 505 900 521 901 545L901 545L903 625ZM618 547L626 498C595 489 536 470 449 440L449 440L411 426L392 470C401 475 407 479 411 484C414 488 415 494 415 503L415 503L415 834L461 834L461 700L626 700L626 653L461 653L461 496L618 547ZM313 732L313 81L95 81L95 732L313 732ZM267 130L267 684L142 684L142 130L267 130ZM609 443L658 436C655 424 644 393 627 342L627 342L874 342L874-72L828-72L828-17L472-17L472-73L426-73L426 342L576 342C595 396 606 430 609 443L609 443ZM472 298L472 185L828 185L828 298L472 298ZM828 142L472 142L472 26L828 26L828 142Z"/>
    <glyph glyph-name="µ" unicode="&#21941;"
      horiz-adv-x="1000" vert-adv-y="1172"
      d="M737 837L784 837L784 714L956 714L956 662L784 662L784 548L737 548L737 662L568 662L568 548L520 548L520 662L371 662L371 714L520 714L520 837L568 837L568 714L737 714L737 837ZM325 724L325 88L99 88L99 724L325 724ZM277 138L277 673L148 673L148 138L277 138ZM465-6L465-66L417-66L417 502L888 502L888-66L839-66L839-6L465-6ZM465 275L629 275L629 452L465 452L465 275ZM676 452L676 275L839 275L839 452L676 452ZM629 226L465 226L465 43L629 43L629 226ZM839 226L676 226L676 43L839 43L839 226Z"/>
    <glyph glyph-name="É" unicode="&#21961;"
      horiz-adv-x="1000" vert-adv-y="1172"
      d="M859 191L673 176L673 34C673-1 668-25 657-38C646-51 624-58 593-59L593-59C566-59 536-57 503-54L503-54L494-7C522-11 550-13 577-13L577-13C596-13 608-8 615 1C622 10 625 26 625 50L625 50L625 172L471 160C447 159 410 156 361 152L361 152L355 192C386 195 409 199 426 206L426 206C472 224 539 262 626 320L626 320L457 302L391 296L385 331C402 332 419 338 436 348L436 348C454 357 478 373 508 395C537 416 564 437 588 457L588 457L343 457L343 499L614 499L614 583L397 583L397 623L614 623L614 706L378 706L378 747L614 747L614 843L665 843L665 747L901 747L901 706L665 706L665 623L887 623L887 583L665 583L665 499L955 499L955 457L650 457C627 436 600 414 569 391C538 368 512 351 490 340L490 340C580 349 644 355 683 359L683 359C730 392 768 420 797 445L797 445L827 414C768 366 712 324 660 288C608 252 559 224 512 203L512 203C565 207 619 211 672 216C725 220 777 224 830 229L830 229C799 268 778 292 769 302L769 302L803 328C820 309 842 282 868 249C893 216 916 185 936 157L936 157L901 131L859 191ZM95 86L95 731L309 731L309 86L95 86ZM141 681L141 135L261 135L261 681L141 681ZM496 135L523 99C464 44 394-6 313-51L313-51L289-9C325 10 362 33 399 59C436 84 468 110 496 135L496 135ZM737 96L763 135C793 116 829 93 871 65C913 36 947 12 972-8L972-8L948-47C921-26 887-2 846 26C804 54 768 77 737 96L737 96Z"/>
    <glyph glyph-name="" unicode="&#22150;"
      horiz-adv-x="1000" vert-adv-y="1172"
      d="M745 846L791 846L791 756L957 756L957 714L791 714L791 640L745 640L745 714L547 714L547 639L501 639L501 714L347 714L347 756L501 756L501 846L547 846L547 756L745 756L745 846ZM296 728L296 76L95 76L95 728L296 728ZM605 671L649 688C661 664 674 635 687 600L687 600L941 600L941 561L357 561L357 600L637 600C626 628 615 652 605 671L605 671ZM251 126L251 678L141 678L141 126L251 126ZM855 346L443 346L443 500L855 500L855 346ZM490 462L490 384L807 384L807 462L490 462ZM427-62L381-62L381 288L915 288L915 35C915-1 909-26 896-39C883-52 859-59 823-59L823-59C795-59 767-57 739-53L739-53L731-11C736-12 748-13 766-15C784-17 800-18 815-18L815-18C835-18 849-14 856-5C863 4 867 19 867 42L867 42L867 249L427 249L427-62ZM518 30L518 188L774 188L774 30L518 30ZM561 151L561 66L730 66L730 151L561 151Z"/>
    <glyph glyph-name="
" unicode="&#22282;"
      horiz-adv-x="1000" vert-adv-y="1172"
      d="M157-78L109-78L109 788L895 788L895-78L847-78L847-36L157-36L157-78ZM847 743L157 743L157 8L847 8L847 743ZM744 527L525 527L525 470L804 470L804 435L197 435L197 470L478 470L478 527L260 527L260 562L478 562L478 620L228 620L228 656L478 656L478 720L525 720L525 656L776 656L776 620L525 620L525 562L744 562L744 527ZM331 60L286 60L286 377L717 377L717 137C717 110 711 90 699 78C687 65 667 59 639 59L639 59C606 59 569 61 528 64L528 64L522 100C564 95 600 93 630 93L630 93C647 93 659 97 665 104C670 111 673 123 673 139L673 139L673 162L331 162L331 60ZM331 287L673 287L673 340L331 340L331 287ZM673 252L331 252L331 196L673 196L673 252Z"/>
    <glyph glyph-name="v" unicode="&#22390;"
      horiz-adv-x="1000" vert-adv-y="1172"
      d="M332 518L220 518L220 158L340 192L340 142C310 133 257 117 180 95L180 95C135 82 92 70 52 58L52 58L40 108L171 144L171 518L52 518L52 568L171 568L171 834L220 834L220 568L332 568L332 518ZM957 456L957 404L864 404C861 313 857 224 852 136L852 136L946 136L946 83L850 83C849 80 849 77 849 72L849 72C846 23 835-12 817-32C798-53 766-63 721-63L721-63C686-63 640-60 583-54L583-54L574-4C613-9 657-12 705-14L705-14C737-15 760-9 774 5C787 19 795 43 797 77L797 77L797 83L373 83L391 404L303 404L303 456L393 456L411 776L874 776C871 633 869 527 866 456L866 456L957 456ZM823 724L459 724L444 456L816 456C818 514 820 603 823 724L823 724ZM555 644L589 676L723 539L688 504C653 542 608 589 555 644L555 644ZM427 136L800 136C804 194 809 283 814 404L814 404L442 404L427 136ZM715 223L680 189C664 208 642 233 613 264C584 295 561 320 544 337L544 337L577 370C608 338 654 289 715 223L715 223Z"/>
    <glyph glyph-name="" unicode="&#22406;"
      horiz-adv-x="1000" vert-adv-y="1172"
      d="M958 721L958 673L673 673L673 541L897 541L897 235L474 235C469 168 455 112 433 67C410 21 372-29 317-82L317-82L273-47C318-4 351 35 372 69C393 103 407 141 414 184C421 226 425 284 425 358L425 358L425 541L620 541L620 839L673 839L673 721L958 721ZM357 257L365 202C257 154 152 110 51 70L51 70L33 122C101 149 152 169 185 183L185 183L185 530L58 530L58 582L185 582L185 832L237 832L237 582L370 582L370 530L237 530L237 205C264 216 304 233 357 257L357 257ZM476 287L845 287L845 489L477 489L477 339C477 315 477 298 476 287L476 287Z"/>
    <glyph glyph-name="¤" unicode="&#22436;"
      horiz-adv-x="1000" vert-adv-y="1172"
      d="M347 172L354 117C312 105 225 82 93 47L93 47L38 32L27 83L174 124L174 505L45 505L45 557L174 557L174 826L225 826L225 557L345 557L345 505L225 505L225 138L347 172ZM674 206L674 13L956 13L956-36L330-36L330 13L619 13L619 206L394 206L394 256L619 256L619 412C538 405 479 400 443 396L443 396L422 394C406 393 393 391 384 390L384 390L373 436C389 440 400 445 407 452L407 452C428 476 457 514 492 566C527 617 558 666 585 711L585 711L373 711L373 760L936 760L936 711L648 711C619 664 588 615 553 563C518 510 488 470 465 442L465 442C482 444 552 450 675 461L675 461L818 474C787 528 759 575 734 614L734 614L780 636C799 607 824 566 855 513C886 460 911 414 931 376L931 376L885 352C870 381 855 407 842 431L842 431L674 417L674 256L906 256L906 206L674 206Z"/>
    <glyph glyph-name="ô" unicode="&#22516;"
      horiz-adv-x="1000" vert-adv-y="1172"
      d="M661 589L864 589L864 28L961 28L961-19L283-19L283 28L406 28L406 589L609 589L609 696L357 696L357 743L609 743L609 837L661 837L661 743L933 743L933 696L661 696L661 589ZM348 213L348 161C313 148 213 115 49 60L49 60L35 112C54 117 102 132 178 157L178 157L178 524L58 524L58 576L178 576L178 831L228 831L228 576L349 576L349 524L228 524L228 173C281 190 321 204 348 213L348 213ZM457 447L814 447L814 543L457 543L457 447ZM457 404L457 307L814 307L814 404L457 404ZM457 167L814 167L814 265L457 265L457 167ZM814 28L814 124L457 124L457 28L814 28Z"/>
    <glyph glyph-name="" unicode="&#22539;"
      horiz-adv-x="1000" vert-adv-y="1172"
      d="M300 224L304 174C221 143 135 112 45 83L45 83L35 136L150 172L150 511L51 511L51 562L150 562L150 832L200 832L200 562L299 562L299 511L200 511L200 189C222 196 246 205 273 215L273 215L300 224ZM343 432L343 782L569 782L569 41C569 8 563-14 552-25C541-37 518-43 485-43L485-43C460-43 438-42 417-39L417-39L409 9C431 6 451 4 470 4L470 4C492 4 507 7 514 14C521 20 524 33 524 54L524 54L524 243L385 243C381 181 371 127 355 82C339 36 312-14 275-69L275-69L232-44C266 2 291 44 306 83C321 122 331 166 336 216C341 265 343 337 343 432L343 432ZM661 428L661 782L905 782L905 38C905 13 902-5 898-18C893-31 884-40 871-45C858-50 840-53 815-53L815-53C790-53 766-52 745-49L745-49L738-1C759-4 780-6 801-6L801-6C825-6 841-2 849 6C856 13 860 29 860 52L860 52L860 243L705 243C702 170 696 112 686 69C675 25 658-22 634-73L634-73L591-51C612-12 627 25 637 60C646 95 653 139 656 192C659 245 661 324 661 428L661 428ZM388 533L524 533L524 734L388 734L388 533ZM707 530L860 530L860 734L707 734L707 530ZM387 290L524 290L524 487L388 487L388 365C388 330 388 305 387 290L387 290ZM706 290L860 290L860 484L707 484L707 362C707 329 707 305 706 290L706 290Z"/>
    <glyph glyph-name=" " unicode="&#22560;"
      horiz-adv-x="1000" vert-adv-y="1172"
      d="M458 831L505 822C486 743 463 668 436 598L436 598L436-70L390-70L390 489C367 438 339 387 308 337L308 337L281 390C314 441 346 506 378 586C410 666 437 748 458 831L458 831ZM322 525L211 525L211 153C246 164 278 176 308 188L308 188L328 195L328 144L45 40L33 91C52 97 96 112 163 136L163 136L163 525L47 525L47 574L163 574L163 815L211 815L211 574L322 574L322 525ZM484 545L484 593L792 593L801 728L551 728L551 775L852 775L840 593L952 593L952 545L484 545ZM944 204L749 204C765 152 791 107 827 70C862 32 908-1 963-29L963-29L940-72C887-44 844-13 809 21C774 55 746 95 726 140L726 140C711 98 686 59 651 24C616-11 567-46 505-79L505-79L481-37C551 0 602 38 634 76C665 113 685 156 693 204L693 204L484 204L484 249L697 249C699 272 700 317 700 382L700 382L577 382C561 349 542 316 521 283L521 283L480 308C523 371 558 442 584 522L584 522L628 507C615 470 605 444 598 428L598 428L912 428L912 382L749 382C749 371 749 363 748 358L748 358C748 311 747 276 745 254L745 254L745 249L944 249L944 204Z"/>
    <glyph glyph-name="e" unicode="&#22629;"
      horiz-adv-x="1000" vert-adv-y="1172"
      d="M334 511L218 511L218 152L335 185L335 132C217 97 120 70 45 51L45 51L35 103L127 127L170 139L170 511L51 511L51 562L170 562L170 841L218 841L218 562L334 562L334 511ZM939 741L361 741L361 787L939 787L939 741ZM857 471L433 471L433 658L857 658L857 471ZM482 616L482 513L808 513L808 616L482 616ZM420-60L375-60L375 387L918 387L918 40C918 2 911-25 897-40C883-56 859-64 825-64L825-64C800-64 769-62 733-57L733-57L725-13C766-18 797-21 817-21L817-21C837-21 851-16 859-5C867 6 871 24 871 50L871 50L871 344L420 344L420-60ZM499 298L532 324L616 217L581 192C555 228 528 263 499 298L499 298ZM821 179L821 135L665 135L665-44L620-44L620 135L465 135L465 179L664 179C713 242 746 290 764 322L764 322L803 304C777 262 747 220 714 179L714 179L821 179Z"/>
    <glyph glyph-name="¼" unicode="&#22716;"
      horiz-adv-x="1000" vert-adv-y="1172"
      d="M160 338L160 271L297 271L297 361L50 361L50 398L297 398L297 453L114 453L114 666L297 666L297 727L74 727L74 764L297 764L297 840L340 840L340 764L564 764L564 727L340 727L340 666L522 666L522 453L340 453L340 398L585 398L585 361L340 361L340 271L478 271L478 338L521 338L521 234L116 234L116 338L160 338ZM584 560L552 590C583 609 604 627 615 646C625 664 630 687 630 715L630 715L630 786L867 786L867 671C867 657 870 647 875 642C880 637 890 634 903 634L903 634L955 634L947 595L887 595C864 595 847 599 838 608C829 617 824 632 824 653L824 653L824 743L673 743L673 697C673 669 667 644 654 623C641 602 618 581 584 560L584 560ZM155 575L297 575L297 633L155 633L155 575ZM340 575L481 575L481 633L340 633L340 575ZM297 544L155 544L155 487L297 487L297 544ZM481 544L340 544L340 487L481 487L481 544ZM905 537L905 496C888 463 870 434 851 409C831 383 808 359 783 338L783 338C833 307 890 281 954 262L954 262L937 219C864 244 802 275 749 312L749 312C703 279 640 249 561 221L561 221L542 260C611 283 669 310 714 340L714 340C663 385 623 437 594 496L594 496L567 496L567 537L905 537ZM858 496L636 496C662 445 699 401 747 364L747 364C794 400 831 444 858 496L858 496ZM865 141L865 100L523 100L523 4L943 4L943-39L54-39L54 4L475 4L475 100L132 100L132 141L475 141L475 202L523 202L523 141L865 141Z"/>
    <glyph glyph-name="" unicode="&#22786;"
      horiz-adv-x="1000" vert-adv-y="1172"
      d="M950 7L923-49C750 19 612 98 509 187L509 187C459 146 400 107 332 68C264 29 184-12 91-53L91-53L63 0C152 38 229 76 295 113C360 150 417 188 466 227L466 227C380 311 309 415 253 538L253 538C209 474 162 417 113 366L113 366L72 405C131 466 187 537 240 618C292 699 331 774 356 845L356 845L413 831C396 786 374 738 346 687L346 687L812 687L812 634C776 543 738 465 699 401C660 337 611 278 553 225L553 225C653 142 785 69 950 7L950 7ZM290 592C345 459 418 350 509 264L509 264C562 313 608 367 646 426C683 485 718 554 751 633L751 633L315 633L290 592Z"/>
    <glyph glyph-name="%" unicode="&#22821;"
      horiz-adv-x="1000" vert-adv-y="1172"
      d="M587 609C566 588 544 568 521 549L521 549L493 584C537 620 577 660 612 703C647 746 675 791 698 837L698 837L741 821C726 790 708 761 689 733L689 733L921 733L921 687C872 610 816 546 754 497C692 447 612 403 514 366L514 366L494 409C582 441 655 479 713 523C771 567 823 622 870 689L870 689L657 689C642 670 629 653 616 640L616 640C652 612 682 586 706 563L706 563L675 530C657 548 628 574 587 609L587 609ZM471 91L442 50C397 93 349 135 300 175L300 175L300-71L255-71L255 233C207 142 143 61 63-10L63-10L35 32C75 64 112 102 147 145C182 188 210 233 233 280L233 280L50 280L50 326L255 326L255 429L92 429L92 785L461 785L461 429L300 429L300 326L488 326L488 280L300 280L300 227C363 182 420 136 471 91L471 91ZM136 628L255 628L255 741L136 741L136 628ZM300 741L300 628L419 628L419 741L300 741ZM255 584L136 584L136 471L255 471L255 584ZM419 584L300 584L300 471L419 471L419 584ZM714 358L941 358L941 313C907 248 870 193 829 148C788 103 739 62 680 26C621-10 548-45 459-78L459-78L437-36C522-5 592 27 647 59C702 91 748 127 785 167C822 206 858 255 891 314L891 314L680 314C669 301 652 281 628 256L628 256C661 231 695 201 730 168L730 168L699 134C667 165 633 195 596 225L596 225C564 196 536 172 513 155L513 155L484 193C589 269 670 359 729 463L729 463L769 444C750 411 731 382 714 358L714 358Z"/>
    <glyph glyph-name="" unicode="&#23048;"
      horiz-adv-x="1000" vert-adv-y="1172"
      d="M421 447L370 447L370 667L73 667L73 716L492 716C481 738 462 777 433 832L433 832L485 847C496 829 518 785 553 716L553 716L927 716L927 667L630 667L630 445L578 445L578 667L421 667L421 447ZM276 611L308 572C277 541 240 509 197 477C154 444 111 414 69 389L69 389L44 434C85 459 127 488 169 520C210 551 246 582 276 611L276 611ZM685 568L712 609C753 584 834 531 957 451L957 451L932 406C895 431 852 460 803 493C753 526 714 551 685 568L685 568ZM357 403L410 390C400 367 389 345 377 322L377 322L939 322L939 273L741 273C724 234 704 199 680 168C655 137 624 108 585 83L585 83C732 33 836-3 899-26L899-26L878-74C781-37 664 4 528 50L528 50C427-1 277-42 77-73L77-73L59-22C230 1 363 33 460 73L460 73L438 80C313 120 236 144 206 153L206 153C233 186 261 226 289 273L289 273L59 273L59 322L317 322C333 353 346 380 357 403L357 403ZM681 273L350 273C331 240 311 207 288 176L288 176C337 163 416 138 523 103L523 103C563 126 595 151 620 179C645 206 665 238 681 273L681 273Z"/>
    <glyph glyph-name="µ" unicode="&#23221;"
      horiz-adv-x="1000" vert-adv-y="1172"
      d="M948 427L777 427C800 398 826 373 856 353C885 333 920 315 963 299L963 299L941 251C888 276 845 302 810 330C775 357 745 390 718 427L718 427L579 427C558 394 531 364 498 335C465 306 422 274 370 240L370 240L342 281C385 309 421 334 449 357C477 380 501 403 521 427L521 427L359 427L359 472L552 472C569 503 584 539 595 578L595 578L390 578L390 624L606 624C619 687 629 759 634 840L634 840L684 834C677 751 668 681 655 624L655 624L925 624L925 578L644 578C632 535 619 499 605 472L605 472L948 472L948 427ZM548 676L510 647C492 674 458 719 409 783L409 783L447 809C496 746 529 702 548 676L548 676ZM851 809L887 782C861 744 825 698 780 643L780 643L742 670C781 717 818 763 851 809L851 809ZM113 418L113 781L333 781L333 37C333 3 327-21 315-35C302-50 281-57 252-57L252-57C228-57 206-56 187-53L187-53L178-4C198-8 219-10 241-10L241-10C260-10 272-6 278 3C284 11 287 27 287 52L287 52L287 258L157 258C154 177 147 113 136 66C124 19 105-29 79-78L79-78L35-54C57-13 73 24 84 59C95 94 102 138 107 192C111 246 113 321 113 418L113 418ZM159 540L287 540L287 730L159 730L159 540ZM159 361L159 307L287 307L287 491L159 491L159 361ZM896 218L803 218C790 184 777 155 762 130C747 105 729 83 709 64L709 64C743 49 799 24 876-11L876-11L917-29L895-73C802-28 727 8 670 33L670 33C639 12 601-6 554-22C507-38 447-55 374-72L374-72L358-26C423-12 476 1 517 14C558 27 593 41 620 56L620 56C583 72 528 95 455 126L455 126C474 150 495 181 517 218L517 218L412 218L412 261L541 261C560 295 576 330 591 367L591 367L635 353C622 320 608 289 593 261L593 261L896 261L896 218ZM522 142C545 133 592 114 663 84L663 84C683 100 700 119 713 140C726 161 739 187 751 218L751 218L570 218C557 195 541 169 522 142L522 142Z"/>
    <glyph glyph-name="2" unicode="&#23346;"
      horiz-adv-x="1000" vert-adv-y="1172"
      d="M609 86L577 53C563 72 541 101 512 140L512 140C488 85 452 26 403-39L403-39L365-8C418 55 456 117 480 180L480 180C451 216 423 250 394 281L394 281C410 346 425 449 439 589L439 589L387 589L387 639L444 639C451 714 455 780 458 837L458 837L499 835C495 760 491 695 486 639L486 639L591 639L591 588C584 489 577 410 568 349C559 288 547 234 530 187L530 187C561 149 588 115 609 86L609 86ZM356 405L208 405L206 304L361 304C360 261 359 217 356 170C353 123 349 85 345 56L345 56C341 29 336 9 330-4C323-17 314-25 301-30C288-35 268-38 241-38L241-38C220-38 199-36 179-32L179-32L171 14C196 9 218 6 239 6L239 6C259 6 273 10 282 19C290 27 296 42 301 65L301 65C306 89 309 119 312 156C314 192 315 226 314 259L314 259L204 259L204 256C200 185 189 127 171 80C153 33 120-15 72-65L72-65L38-33C69-1 92 29 109 58C126 87 138 116 145 147C152 178 157 215 160 259L160 259L53 259L53 304L162 304C163 351 164 384 164 405L164 405L89 405L89 783L356 783L356 405ZM754 304L920 304C917 193 911 105 902 39L902 39C898 8 890-13 878-25C865-38 845-44 816-45L816-45C793-45 768-43 739-40L739-40L730 7C755 2 776 0 794 0L794 0C815 0 831 4 840 12C849 20 855 34 858 55L858 55C867 121 873 189 874 259L874 259L752 259L752 254C749 205 743 164 732 129C721 94 704 60 681 29C658-3 625-37 584-72L584-72L553-37C592-4 623 27 645 56C666 85 682 114 691 145C700 176 705 213 708 257L708 257L708 259L613 259L613 304L710 304L714 405L633 405L633 780L909 780L909 405L758 405L757 378L754 304ZM130 615L204 615L204 738L130 738L130 615ZM241 738L241 615L317 615L317 738L241 738ZM671 615L752 615L752 736L671 736L671 615ZM790 736L790 615L869 615L869 736L790 736ZM440 297L497 228C510 272 521 323 529 381C537 438 544 508 549 589L549 589L481 589C471 478 457 380 440 297L440 297ZM204 448L204 573L130 573L130 448L204 448ZM317 573L241 573L241 448L317 448L317 573ZM752 449L752 572L671 572L671 449L752 449ZM869 572L790 572L790 449L869 449L869 572Z"/>
    <glyph glyph-name="e" unicode="&#23397;"
      horiz-adv-x="1000" vert-adv-y="1172"
      d="M462 475L441 432L325 493C267 454 179 418 61 386L61 386L46 430C149 458 227 487 279 517L279 517C222 546 170 571 124 591L124 591C141 623 158 658 175 696L175 696L49 696L49 741L193 741C209 783 221 820 229 851L229 851L277 841C268 810 256 776 243 741L243 741L469 741L469 698C456 659 441 626 425 599C409 571 389 546 365 524L365 524C378 518 404 505 444 484L444 484L462 475ZM747 544C800 506 870 472 957 443L957 443L940 397C845 430 767 469 707 514L707 514C660 481 601 452 528 426L528 426L508 470C572 492 626 517 670 544L670 544C614 594 571 655 541 726L541 726L506 726L506 772L886 772L886 726C849 651 803 590 747 544L747 544ZM830 726L588 726C619 665 659 614 709 572L709 572C759 611 799 663 830 726L830 726ZM185 609C235 587 281 566 322 546L322 546C346 565 366 587 382 611C397 635 410 663 421 696L421 696L225 696C211 661 198 632 185 609L185 609ZM804 328L533 207L533 176L932 176L932 129L533 129L534 44C534 13 531-10 524-25C517-40 505-51 488-56C471-62 445-65 410-65L410-65C367-65 326-63 289-58L289-58L279-10C335-17 377-20 406-20L406-20C435-20 454-15 465-4C475 6 480 25 480 54L480 54L480 129L67 129L67 176L480 176L480 231L694 326L178 326L178 371L804 371L804 328Z"/>
    <glyph glyph-name="" unicode="&#23428;"
      horiz-adv-x="1000" vert-adv-y="1172"
      d="M824 654L161 654L161 501L107 501L107 704L479 704C454 763 435 808 420 839L420 839L477 851L538 704L877 704L877 499L824 499L824 654ZM896 210L947 200C947 177 946 152 946 124C945 95 943 71 942 50L942 50C940 24 936 4 930-10C923-25 913-35 900-42C886-49 866-53 841-55L841-55C828-56 810-57 785-57L785-57C760-57 741-56 728-55L728-55C698-52 677-43 665-27C653-11 647 17 647 57L647 57L647 363L403 363C400 290 388 228 369 179C349 129 318 84 276 45C233 6 174-35 98-76L98-76L68-29C142 10 199 47 238 84C277 120 304 159 321 202C337 245 347 298 350 363L350 363L111 363L111 415L352 415L355 584L408 584C408 539 407 483 405 415L405 415L701 415L701 65C701 40 704 23 711 14C718 4 728-2 742-3L742-3C752-4 767-5 787-5L787-5C808-5 823-4 833-3L833-3C855-1 869 4 877 13C884 22 888 39 890 64L890 64C891 84 893 108 894 136C895 163 896 188 896 210L896 210Z"/>
    <glyph glyph-name="ä" unicode="&#23524;"
      horiz-adv-x="1000" vert-adv-y="1172"
      d="M862 691L145 691L145 595L96 595L96 737L487 737C473 775 459 810 444 843L444 843L495 858C512 817 527 777 540 737L540 737L912 737L912 618L862 618L862 691ZM190 426L307 426L307 629L357 629L357-76L307-76L307 229L204 229L204 186C203 128 193 80 176 43C159 5 129-34 86-73L86-73L49-44C91-9 120 25 136 58C151 91 159 134 160 187L160 187L160 229L59 229L59 273L307 273L307 382L143 382L143 579L190 579L190 426ZM603 464L844 464L839 312L945 312L945 271L399 271L399 312L520 312L545 425L440 425L440 464L553 464L572 553L426 553L426 594L892 594L892 553L622 553L603 464ZM791 312L794 425L594 425L569 312L791 312ZM514-24L514-76L465-76L465 193L870 193L870-76L820-76L820-24L514-24ZM514 18L820 18L820 151L514 151L514 18Z"/>
    <glyph glyph-name="" unicode="&#23580;"
      horiz-adv-x="1000" vert-adv-y="1172"
      d="M473 584L473 838L527 838L527 584L473 584ZM344 762L378 719C344 690 303 659 254 626C205 592 158 563 113 538L113 538L84 584C130 609 177 638 224 671C271 703 311 733 344 762L344 762ZM914 589L885 545C776 617 688 674 622 717L622 717L653 758C763 688 850 632 914 589L914 589ZM925 424L623 424C696 331 809 264 962 222L962 222L944 171C765 222 638 306 563 424L563 424L441 424C404 371 356 324 295 283C234 242 155 203 57 166L57 166L36 220C120 249 189 280 244 313C298 346 342 383 375 424L375 424L72 424L72 472L409 472C422 493 434 520 447 554L447 554L502 541C490 512 479 489 470 472L470 472L925 472L925 424ZM481 68L481 325L536 325L536 52C536 21 533-3 527-19C520-35 509-46 493-53C477-60 454-64 424-65L424-65C391-65 359-63 327-59L327-59L317-5C353-10 386-13 417-13L417-13C436-13 450-11 459-7C468-3 473 4 477 15C480 26 481 43 481 68L481 68ZM631 186L665 219C734 164 820 92 924 5L924 5L885-31L733 99L631 186ZM324 214L364 182C333 145 296 106 252 67C207 27 160-9 109-41L109-41L75 2C126 33 173 68 215 105C257 142 293 178 324 214L324 214Z"/>
    <glyph glyph-name=""" unicode="&#23586;"
      horiz-adv-x="1000" vert-adv-y="1172"
      d="M461 622L941 622L941 571L459 571C453 474 437 390 411 318C384 246 345 180 293 120C241 59 171-3 84-66L84-66L50-17C135 42 202 100 251 156C300 211 336 272 359 337C382 402 397 480 403 571L403 571L69 571L69 622L406 622L406 625C409 707 411 779 411 841L411 841L466 841C466 820 465 788 465 747C464 705 462 663 461 622L461 622ZM880 96L881 123C883 193 884 231 884 236L884 236L937 225C935 150 933 102 932 79L932 79C931 50 926 28 919 13C911-2 899-13 882-19C865-26 841-30 809-33L809-33C781-35 753-36 725-36L725-36C697-36 669-35 641-33L641-33C611-31 588-26 573-19C557-12 546-1 539 16C532 33 529 57 529 88L529 88L529 513L581 513L581 98C581 77 583 61 588 50C592 39 599 31 610 26C620 21 636 18 657 16L657 16C681 14 704 13 727 13L727 13C750 13 773 14 796 16L796 16C820 18 838 21 849 26C860 30 867 37 872 48C876 58 879 74 880 96L880 96Z"/>
    <glyph glyph-name="f" unicode="&#23654;"
      horiz-adv-x="1000" vert-adv-y="1172"
      d="M895 795L895 610L193 610L193 447C193 326 185 226 170 148C155 70 129-4 92-73L92-73L44-51C69-2 89 45 103 90C117 135 127 185 134 242C140 299 143 369 143 453L143 453L143 795L895 795ZM193 653L846 653L846 751L193 751L193 653ZM243 376L214 410C242 435 271 465 302 501C332 536 357 568 377 598L377 598L411 570C390 539 363 505 332 469C301 433 271 402 243 376L243 376ZM692 445L938 445L938 407L709 407C738 381 771 358 810 337C849 316 895 296 950 276L950 276L935 239C878 262 830 283 793 303C756 323 722 346 692 373L692 373L692 262L650 262L650 373C619 346 585 323 548 302C511 281 465 260 412 238L412 238L394 277C448 296 494 316 533 337C571 357 605 380 635 407L635 407L427 407L427 445L650 445L650 583L692 583L692 445ZM864 575L891 550C854 515 817 483 781 453L781 453L756 480C801 516 837 548 864 575L864 575ZM456 546L482 572C517 542 552 511 586 480L586 480L559 453C546 466 511 497 456 546L456 546ZM371 426L406 402C386 366 363 329 336 292L336 292L336-72L292-72L292 234C266 201 241 174 217 151L217 151L194 189C223 218 255 255 289 300C323 345 350 387 371 426L371 426ZM957 164L840 164C817 111 785 70 745 40L745 40C818 16 887-9 954-36L954-36L936-75C871-47 793-18 702 13L702 13C670-4 630-19 583-32C536-45 476-57 405-69L405-69L391-28C504-11 588 10 645 33L645 33C586 53 529 71 473 88L473 88C492 113 511 138 528 164L528 164L399 164L399 202L552 202C566 224 579 246 591 269L591 269L635 253C617 223 607 206 604 202L604 202L957 202L957 164ZM540 107C597 90 648 73 695 57L695 57C718 70 737 86 752 103C767 120 781 141 792 164L792 164L580 164L540 107Z"/>
    <glyph glyph-name="n" unicode="&#23662;"
      horiz-adv-x="1000" vert-adv-y="1172"
      d="M782 345L782 722L836 722L836 293L526 293L526-68L471-68L471 293L162 293L162 719L217 719L217 345L471 345L471 830L526 830L526 345L782 345Z"/>
    <glyph glyph-name="" unicode="&#23693;"
      horiz-adv-x="1000" vert-adv-y="1172"
      d="M264 826L264 123L352 129L352 675L399 675L399 79L82 59L82 670L129 670L129 113L217 119L217 826L264 826ZM828 404L959 404L959 352L828 352L828-72L779-72L779 352L607 352C605 279 600 220 591 175C582 130 568 90 547 53C526 16 495-26 454-74L454-74L411-43C451 3 481 43 501 77C521 111 535 149 544 190C552 231 557 285 558 352L558 352L440 352L440 404L559 404L559 427L559 716L457 716L457 767L938 767L938 716L828 716L828 404ZM608 431L608 404L779 404L779 716L608 716L608 431Z"/>
    <glyph glyph-name="µ" unicode="&#23733;"
      horiz-adv-x="1000" vert-adv-y="1172"
      d="M728 644L947 644L947 594L728 594L728 371L891 371L891-71L843-71L843 0L564 0L564-71L515-71L515 371L678 371L678 594L467 594L467 644L678 644L678 839L728 839L728 644ZM277 827L277 78L366 85L366 669L414 669L414 36L94 15L94 668L142 668L142 68L231 75L231 827L277 827ZM564 322L564 49L843 49L843 322L564 322Z"/>
    <glyph glyph-name="½" unicode="&#23741;"
      horiz-adv-x="1000" vert-adv-y="1172"
      d="M794 656L794 793L846 793L846 607L155 607L155 793L207 793L207 656L475 656L475 835L527 835L527 656L794 656ZM862 272L862 223L546 223L546 34C546-3 539-28 525-43C510-58 486-66 451-66L451-66C412-66 374-64 336-60L336-60L327-8C370-13 408-15 439-15L439-15C460-15 474-10 482 1C489 11 493 29 493 55L493 55L493 223L152 223L152 272C185 310 224 365 269 437L269 437L65 437L65 486L299 486C322 525 341 560 356 591L356 591L404 575C391 547 375 517 358 486L358 486L900 486L900 437L330 437C289 368 252 313 220 272L220 272L493 272L493 391L546 391L546 272L862 272ZM314 181L347 142C313 112 271 80 221 46C171 11 120-20 69-48L69-48L39 1C88 26 138 55 188 88C238 121 280 152 314 181L314 181ZM633 137L661 177C694 159 738 133 794 99C850 64 898 34 937 8L937 8L907-37C869-11 822 20 767 55C712 90 667 118 633 137L633 137Z"/>
    <glyph glyph-name=">" unicode="&#23870;"
      horiz-adv-x="1000" vert-adv-y="1172"
      d="M233 827L233 80L306 90L306 667L349 667L349 48L71 13L71 661L114 661L114 65L189 75L189 827L233 827ZM430 396L430 624L576 624L576 731L404 731L404 777L937 777L937 731L760 731L760 624L906 624L906 396L430 396ZM618 731L618 624L717 624L717 731L618 731ZM576 438L576 580L473 580L473 438L576 438ZM717 438L717 580L618 580L618 438L717 438ZM760 438L862 438L862 580L760 580L760 438ZM951 230L824 230C812 194 798 163 784 137C769 110 750 87 728 66L728 66C803 32 872-1 936-32L936-32L912-75C859-46 785-10 690 35L690 35C657 13 617-6 568-23C519-40 458-57 385-72L385-72L369-26C434-13 489 0 532 13C575 26 611 42 640 59L640 59C571 90 517 114 478 130L478 130C496 161 514 195 531 230L531 230L390 230L390 276L553 276C571 317 584 349 593 374L593 374L639 362C632 343 621 315 605 276L605 276L951 276L951 230ZM542 150C564 141 594 128 632 110L632 110L682 88C703 105 721 125 736 148C750 171 763 198 775 230L775 230L583 230C568 198 554 171 542 150L542 150Z"/>
    <glyph glyph-name="Û" unicode="&#24027;"
      horiz-adv-x="1000" vert-adv-y="1172"
      d="M81 388C118 446 156 514 193 591C230 668 260 739 281 802L281 802L334 783C313 723 284 656 247 581C210 506 174 442 140 388L140 388C240 215 313 82 360-10L360-10L309-33C279 27 242 97 198 178C154 259 115 329 81 388L81 388ZM348 388C385 445 421 511 458 587C495 663 524 734 547 800L547 800L599 782C576 719 547 650 512 577C477 503 442 440 409 388L409 388C442 332 480 264 524 185C567 105 601 41 626-7L626-7L575-31C545 28 509 98 466 177C423 256 383 326 348 388L348 388ZM617 388C654 445 692 512 729 589C766 665 795 735 817 800L817 800L869 782C847 720 818 652 782 578C746 504 711 441 678 388L678 388C710 332 748 264 793 184C837 104 871 40 896-9L896-9L846-32C813 33 775 105 732 184C689 263 650 331 617 388L617 388Z"/>
    <glyph glyph-name="1" unicode="&#24113;"
      horiz-adv-x="1000" vert-adv-y="1172"
      d="M956 425L956 378L833 378L833 270L951 270L951 223L833 223L833 44C833 7 826-20 813-37C799-54 777-63 748-63L748-63C720-63 686-60 645-54L645-54L636-7C673-13 705-16 734-17L734-17C752-17 765-11 773 1C780 12 784 30 784 54L784 54L784 223L518 223C475 139 422 62 358-8L358-8L323 25C417 130 487 247 533 378L533 378L406 378L406 425L548 425C555 448 564 481 574 522L574 522L442 522L442 569L584 569C591 612 597 647 601 674L601 674L427 674L427 721L606 721C609 748 613 789 617 844L617 844L667 841C663 788 659 748 656 721L656 721L936 721L936 674L650 674C643 627 638 592 633 569L633 569L905 569L905 522L623 522C616 487 607 454 598 425L598 425L956 425ZM376 662L376 202C376 175 372 157 364 146C355 135 341 129 321 129L321 129C303 129 287 130 273 133L273 133L264 178C275 175 289 174 305 174L305 174C315 174 322 178 326 185C330 192 332 203 332 218L332 218L332 611L251 611L251-69L207-69L207 611L128 611L128 133L83 133L83 662L207 662L207 843L252 843L252 662L376 662ZM541 270L784 270L784 378L583 378C571 341 557 305 541 270L541 270ZM678 72L643 39C630 54 610 76 584 105C558 133 541 151 532 159L532 159L567 192C580 179 597 160 619 137C640 114 660 92 678 72L678 72Z"/>
    <glyph glyph-name="^" unicode="&#24158;"
      horiz-adv-x="1000" vert-adv-y="1172"
      d="M201 841L243 841L243 658L363 658L363 191C363 164 358 146 349 136C340 126 324 121 302 121L302 121C292 121 281 122 270 124L270 124L262 171C274 168 285 166 296 166L296 166C305 166 312 169 316 176C319 182 321 193 321 209L321 209L321 608L242 608L242-69L202-69L202 608L125 608L125 127L82 127L82 658L201 658L201 841ZM937 151L689 151C733 66 824 8 961-23L961-23L945-69C877-54 820-31 774 0C727 31 690 70 662 117L662 117C643 73 612 36 568 6C524-25 462-52 382-76L382-76L365-29C446-6 507 19 547 47C587 75 614 110 627 151L627 151L393 151L393 194L637 194C640 213 642 237 642 266L642 266L642 280L439 280L439 320L642 320L642 406L419 406L419 447L552 447C545 482 535 524 522 572L522 572L397 572L397 614L572 614L572 839L615 839L615 614L714 614L714 839L756 839L756 614L931 614L931 572L814 572C803 527 792 486 780 447L780 447L910 447L910 406L687 406L687 320L891 320L891 280L687 280L687 269C687 238 685 213 682 194L682 194L937 194L937 151ZM544 676L512 649C483 690 446 734 402 781L402 781L431 806C449 788 469 767 490 743C511 718 529 696 544 676L544 676ZM898 804L929 778C915 758 897 736 876 711C854 686 834 665 816 647L816 647L786 674C825 715 863 758 898 804L898 804ZM769 572L565 572C578 521 587 480 594 447L594 447L736 447C749 489 760 531 769 572L769 572Z"/>
    <glyph glyph-name="" unicode="&#24192;"
      horiz-adv-x="1000" vert-adv-y="1172"
      d="M603 709L944 709L944 655L218 655L218 495C218 388 215 303 208 239C201 175 190 120 173 75C156 29 132-19 99-69L99-69L51-31C83 16 107 60 122 99C137 138 148 188 154 247C160 306 163 388 163 495L163 495L163 709L544 709L491 832L541 850C558 815 578 768 603 709L603 709ZM864 103C864 115 864 125 865 132L865 132C866 181 867 219 867 246L867 246L920 234C920 201 918 149 915 77L915 77C913 46 908 23 901 6C893-11 880-23 863-31C845-39 819-44 786-47L786-47C749-50 703-52 649-52L649-52C596-52 551-50 512-47L512-47C481-44 457-39 441-30C425-21 414-8 408 11C401 30 398 57 398 92L398 92L398 594L452 594L452 310C513 334 583 366 660 406C737 445 803 483 857 518L857 518L882 467C827 432 756 394 670 351C584 308 511 275 452 252L452 252L452 101C452 77 454 58 458 46C462 33 469 23 479 18C489 12 504 8 524 6L524 6C566 2 608 0 649 0L649 0C690 0 732 2 774 6L774 6C798 8 816 12 829 18C841 24 850 33 855 46C860 59 863 78 864 103L864 103Z"/>
    <glyph glyph-name="è" unicode="&#24296;"
      horiz-adv-x="1000" vert-adv-y="1172"
      d="M592 746L946 746L946 700L181 700L181 425C181 334 179 263 174 211C169 159 159 112 145 71C131 29 109-19 80-74L80-74L35-50C64 3 85 50 99 91C112 131 121 175 126 224C131 273 133 339 133 424L133 424L133 746L532 746L520 767L480 834L533 849C546 830 565 795 592 746L592 746ZM542 604L542 569L466 469L570 469L570 12C570-12 566-29 558-38C549-48 535-53 514-54L514-54C493-54 473-53 454-50L454-50L447-6C467-9 484-11 499-11L499-11C511-11 519-8 523-3C527 2 529 11 529 25L529 25L529 141L441 141L441-18L401-18L401 141L310 141C307 98 301 62 291 32C281 2 265-32 242-69L242-69L203-47C223-14 238 15 247 40C256 65 263 93 266 125C269 157 271 202 270 260L270 260L270 457C257 442 243 427 228 412L228 412L197 444C271 519 326 599 362 683L362 683L404 669C396 651 385 629 372 604L372 604L542 604ZM617 372L591 404C624 427 648 450 665 475C682 499 692 526 696 556L696 556L699 580L606 580L606 621L924 621C922 575 918 529 912 484L912 484C909 461 903 445 896 435C889 425 879 419 867 416C854 413 835 412 809 412L809 412C791 412 772 413 752 415L752 415L745 454C770 451 791 449 810 449L810 449C831 449 845 452 852 457C859 462 864 475 867 494L867 494C872 525 876 553 878 580L878 580L740 580C739 564 737 553 736 546L736 546C728 477 688 419 617 372L617 372ZM488 564L348 564C327 529 304 498 280 469L280 469L414 469L488 564ZM312 324L401 324L401 428L312 428L312 324ZM441 428L441 324L529 324L529 428L441 428ZM811 137L959 137L959 96L811 96L811-73L767-73L767 96L596 96L596 137L767 137L767 247L668 247C657 217 646 189 635 164L635 164L597 179C622 231 644 294 661 369L661 369L698 360C695 339 689 315 681 288L681 288L767 288L767 375L811 375L811 288L939 288L939 247L811 247L811 137ZM312 219L312 181L401 181L401 284L312 284L312 219ZM529 284L441 284L441 181L529 181L529 284Z"/>
    <glyph glyph-name="*" unicode="&#24362;"
      horiz-adv-x="1000" vert-adv-y="1172"
      d="M301 722L78 722L78 773L352 773L352 502L157 502L142 336L347 336C346 238 342 150 336 72L336 72C333 43 328 21 321 5C314-12 302-24 285-31C268-39 245-43 216-43L216-43C171-43 133-41 102-37L102-37L92 14C127 9 164 7 203 7L203 7C232 7 253 12 264 22C275 31 282 50 285 77L285 77C292 152 295 221 295 285L295 285L88 285L110 552L301 552L301 722ZM404 358L377 406C464 445 543 491 613 544C682 597 738 654 781 715L781 715L438 715L438 766L851 766L851 718C813 662 767 609 712 558L712 558C749 538 791 514 840 485C889 456 929 431 961 411L961 411L933 365C898 388 856 415 805 446C754 477 710 503 672 524L672 524C594 459 505 404 404 358L404 358ZM893 307L893 256L692 256L692 28L952 28L952-24L369-24L369 28L639 28L639 256L437 256L437 307L893 307Z"/>
    <glyph glyph-name="P" unicode="&#24400;"
      horiz-adv-x="1000" vert-adv-y="1172"
      d="M798 687L108 687L108 744L854 744L854-67L798-67L798 7L79 7L79 60L798 60L798 359L136 359L136 415L798 415L798 687Z"/>
    <glyph glyph-name="a" unicode="&#24417;"
      horiz-adv-x="1000" vert-adv-y="1172"
      d="M199 519L174 568C260 597 351 636 447 683C542 730 624 776 691 823L691 823L721 780C650 732 567 684 472 637C377 589 286 550 199 519L199 519ZM221 246L196 295C289 328 381 369 472 417C563 465 643 514 710 563L710 563L743 522C672 470 590 419 498 370C405 321 313 279 221 246L221 246ZM170-64L145-13C276 28 397 76 508 132C619 188 715 249 796 315L796 315L832 272C750 207 652 145 538 87C423 29 301-21 170-64L170-64Z"/>
    <glyph glyph-name="" unicode="&#24450;"
      horiz-adv-x="1000" vert-adv-y="1172"
      d="M295 834L338 803C307 754 268 704 222 651C175 598 128 550 81 508L81 508L53 556C98 595 142 639 186 689C229 739 266 787 295 834L295 834ZM429 780L854 780L854 20L958 20L958-30L308-30L308 20L429 20L429 780ZM482 527L802 527L802 729L482 729L482 527ZM298 593L340 565C315 517 280 463 235 404L235 404L235-69L185-69L185 340C142 289 100 244 61 206L61 206L39 260C84 303 132 357 181 420C230 483 269 540 298 593L298 593ZM482 476L482 277L802 277L802 476L482 476ZM802 20L802 227L482 227L482 20L802 20Z"/>
    <glyph glyph-name="É" unicode="&#24521;"
      horiz-adv-x="1000" vert-adv-y="1172"
      d="M412 497L376 459C335 506 294 549 255 590L255 590L255-73L203-73L203 841L255 841L255 655C275 636 302 610 335 577C368 544 394 517 412 497L412 497ZM373 698L373 751L895 751C895 655 892 542 885 413C878 283 871 177 862 95L862 95C857 56 850 27 839 7C828-14 812-28 789-37C766-46 733-50 690-50L690-50C648-50 613-48 586-43L586-43L576 10C621 4 659 1 689 1L689 1C718 1 741 4 757 11C772 17 784 28 792 44C799 59 805 82 809 112L809 112C818 191 826 286 832 396C837 506 840 607 840 698L840 698L584 698C583 670 582 646 582 626L582 626L578 528C575 422 566 337 553 272C540 207 518 150 489 99C459 48 414-11 355-77L355-77L311-41C368 21 410 76 439 125C468 174 488 229 501 290C514 351 522 432 526 534L526 534C526 543 527 562 528 591L528 591L531 698L373 698ZM93 298L42 308C52 350 63 406 74 477C85 548 93 613 100 674L100 674L150 668C143 609 134 542 123 468C112 393 102 337 93 298L93 298Z"/>
    <glyph glyph-name="í" unicode="&#24557;"
      horiz-adv-x="1000" vert-adv-y="1172"
      d="M696 667L648 646C625 694 593 755 554 828L554 828L602 848L626 802C663 734 686 689 696 667L696 667ZM199 841L252 841L252 655C272 638 297 614 328 585C359 556 385 530 406 509L406 509L374 471C335 510 294 550 252 590L252 590L252-69L199-69L199 841ZM89 310L40 321C49 363 59 419 70 488C81 557 89 621 96 678L96 678L145 670C140 619 131 558 120 487C109 415 98 356 89 310L89 310ZM957 645L957 594L646 594L646 466C687 437 737 399 798 354C858 308 903 273 933 248L933 248L900 203C871 227 832 259 781 299C730 338 685 373 646 402L646 402L646-72L592-72L592 594L370 594L370 645L957 645Z"/>
    <glyph glyph-name="
" unicode="&#24586;"
      horiz-adv-x="1000" vert-adv-y="1172"
      d="M385 550L353 510C330 538 293 577 244 628L244 628L244-69L193-69L193 837L244 837L244 697L265 676C328 611 368 569 385 550L385 550ZM372 720L372 771L910 771C909 738 907 700 904 658C900 615 895 578 890 545L890 545C884 512 876 487 868 470C859 452 846 439 829 432C812 424 789 420 759 419L759 419C712 418 670 420 634 425L634 425L626 477C668 471 703 468 732 468L732 468C758 468 777 470 790 475C803 479 812 487 820 500C827 513 832 533 837 560L837 560C846 616 851 669 854 720L854 720L581 720C580 716 580 709 579 700C578 690 576 681 574 673L574 673C565 620 552 574 536 537C519 500 497 466 469 436C440 406 402 376 355 345L355 345L319 387C366 416 402 444 429 471C455 497 476 527 491 560C506 593 517 634 525 685L525 685C527 692 529 704 530 720L530 720L372 720ZM93 312L44 319C54 361 64 417 75 486C86 555 94 619 101 677L101 677L150 672C143 618 134 554 123 481C112 407 102 351 93 312L93 312ZM467-12L467-71L416-71L416 323L890 323L890-71L840-71L840-12L467-12ZM467 37L840 37L840 273L467 273L467 37Z"/>
    <glyph glyph-name="]" unicode="&#24669;"
      horiz-adv-x="1000" vert-adv-y="1172"
      d="M470 398L301 398L301 289L251 289L251 398L56 398L56 444L251 444L251 543L91 543L91 587L251 587L251 686L73 686L73 730L251 730L251 839L301 839L301 730L472 730L472 686L301 686L301 587L460 587L460 543L301 543L301 444L470 444L470 398ZM864 441C857 399 847 370 833 354C818 337 795 329 762 328L762 328C726 328 695 330 669 333L669 333L660 381C688 377 716 375 745 375L745 375C767 375 783 381 794 393C804 405 811 426 816 456L816 456C830 552 838 640 841 720L841 720L666 720L662 668C652 583 637 514 616 461C595 407 561 357 514 310L514 310L475 342C518 385 551 433 572 484C593 535 607 597 612 668L612 668C613 680 614 690 615 699C615 707 615 714 615 720L615 720L522 720L522 767L894 767C892 716 888 660 883 598C877 536 871 484 864 441L864 441ZM594 138L552 110C516 168 483 217 452 256L452 256L492 283C526 241 560 193 594 138L594 138ZM775 228L818 252C836 223 858 185 884 138C910 90 931 50 946 19L946 19L900-5C885 28 864 68 839 116C814 163 792 201 775 228L775 228ZM88-21L42 4C62 35 83 74 104 119C125 164 143 205 156 244L156 244L204 227C191 188 174 146 152 99C130 52 109 12 88-21L88-21ZM668 65L672 154L721 141C720 105 718 73 715 45L715 45C714 21 710 3 703-10C696-23 686-32 673-37C659-43 639-47 614-48L614-48C581-51 544-52 503-52L503-52C462-52 425-51 392-48L392-48C366-46 346-42 332-35C317-28 307-17 301-2C294 13 291 34 291 63L291 63L291 236L344 236L344 73C344 54 346 40 350 31C354 22 360 15 369 11C378 7 391 4 409 3L409 3C446 0 478-2 506-2L506-2C535-2 568 0 603 3L603 3C628 5 645 10 654 18C663 25 667 41 668 65L668 65Z"/>
    <glyph glyph-name="g" unicode="&#24679;"
      horiz-adv-x="1000" vert-adv-y="1172"
      d="M137 617L412 617C430 661 446 704 459 747L459 747L64 747L64 793L923 793L923 747L518 747C507 714 492 670 471 617L471 617L852 617L852 397C852 361 845 336 832 321C818 306 795 298 764 297L764 297C733 297 708 298 687 301L687 301L678 350C699 346 720 344 743 344L743 344C764 344 778 349 787 360C796 370 800 387 800 410L800 410L800 569L630 569L630 319L579 319L579 569L409 569L409 319L358 319L358 569L189 569L189 288L137 288L137 617ZM440 277L475 304C518 254 559 202 598 148L598 148L557 119C518 175 479 228 440 277L440 277ZM668 74C670 93 672 121 673 159L673 159L722 145C721 110 719 80 717 56L717 56C714 21 706-2 691-15C676-28 649-36 612-39L612-39C579-42 542-43 499-43L499-43C458-43 420-42 386-39L386-39C350-37 325-28 310-13C295 2 288 28 288 65L288 65L288 257L341 257L341 81C341 54 345 35 354 26C362 17 378 11 401 10L401 10C446 7 480 6 503 6L503 6C525 6 559 7 604 10L604 10C628 11 644 16 653 24C662 32 667 49 668 74L668 74ZM762 229L802 253C849 188 898 112 948 25L948 25L901 1C858 80 812 156 762 229L762 229ZM88-9L42 19C64 52 86 89 107 130C128 171 146 211 159 248L159 248L208 228C193 190 175 149 153 106C131 63 109 24 88-9L88-9Z"/>
    <glyph glyph-name="" unicode="&#24731;"
      horiz-adv-x="1000" vert-adv-y="1172"
      d="M429 550C397 547 373 544 358 541L358 541L349 591C360 593 368 595 373 597C378 599 383 602 390 606L390 606C419 629 455 664 496 713C537 761 572 806 601 847L601 847L643 820C614 780 582 739 546 697C510 654 478 621 449 596L449 596L803 632C753 683 720 717 703 733L703 733L738 767C799 706 865 639 937 564L937 564L902 530L843 590C764 584 626 571 429 550L429 550ZM357 532L336 491C306 521 272 553 234 588L234 588L234-75L186-75L186 836L234 836L234 641C256 623 297 587 357 532L357 532ZM82 303L35 312C45 357 56 416 68 489C79 561 88 622 93 671L93 671L137 665C132 616 124 555 113 482C102 409 91 349 82 303L82 303ZM689 497L717 540C785 498 866 446 961 384L961 384L937 342C900 367 856 394 808 425C759 456 719 480 689 497L689 497ZM323 339L297 382C338 404 380 429 422 457C463 484 499 511 529 537L529 537L558 500C525 472 489 444 448 416C407 387 365 362 323 339L323 339ZM962-22L941-70C810-29 708 14 636 61L636 61C596 35 550 11 497-11C444-34 381-56 308-79L308-79L287-32C354-13 413 7 463 27C512 46 556 68 593 91L593 91C541 131 497 179 462 236L462 236C421 189 377 147 328 108L328 108L296 145C342 182 387 226 432 279C476 332 510 380 533 425L533 425L576 404C562 377 550 356 539 340L539 340L848 340L848 294C824 251 798 213 771 181C743 148 712 117 677 90L677 90C752 45 847 8 962-22L962-22ZM495 277C530 215 576 162 635 119L635 119C667 142 696 168 721 197C746 225 769 257 791 294L791 294L508 294L495 277Z"/>
    <glyph glyph-name="" unicode="&#24733;"
      horiz-adv-x="1000" vert-adv-y="1172"
      d="M362 520L326 478C298 526 269 572 239 616L239 616L239-71L190-71L190 835L239 835L239 681C285 626 326 572 362 520L362 520ZM914 151L664 151L664 20L952 20L952-28L312-28L312 20L615 20L615 151L357 151L357 199L615 199L615 329L389 329L389 776L892 776L892 329L664 329L664 199L914 199L914 151ZM438 577L615 577L615 726L438 726L438 577ZM664 726L664 577L842 577L842 726L664 726ZM84 306L37 316C48 362 58 419 70 487C81 555 89 615 94 666L94 666L140 659C135 609 127 550 116 482C105 414 94 355 84 306L84 306ZM615 529L438 529L438 377L615 377L615 529ZM842 529L664 529L664 377L842 377L842 529Z"/>
    <glyph glyph-name="Ý" unicode="&#24797;"
      horiz-adv-x="1000" vert-adv-y="1172"
      d="M611 832L665 832L665 544L911 544L911 53C911 22 908-2 902-17C895-32 884-43 867-49C850-56 825-59 790-59L790-59C763-59 736-57 710-53L710-53L700-3C733-8 760-10 783-10L783-10C807-10 824-8 835-4C846 0 853 7 856 17C859 26 861 42 861 64L861 64L861 494L415 494L415-60L365-60L365 544L611 544L611 832ZM235 828L235 676L251 661C259 653 273 639 294 618C314 597 331 579 345 562L345 562L319 520C295 550 267 582 235 616L235 616L235-67L186-67L186 828L235 828ZM536 624L498 590C481 613 458 641 429 674C400 707 377 734 358 755L358 755L395 789C413 770 437 744 466 710C495 676 518 647 536 624L536 624ZM877 787L916 755C901 736 880 709 851 675C822 641 796 612 774 587L774 587L735 623C754 642 779 669 809 704C838 738 861 766 877 787L877 787ZM78 313L32 320C42 361 52 416 63 483C73 550 81 610 87 664L87 664L133 661C126 608 118 546 107 477C96 407 87 352 78 313L78 313ZM521 98L521 378L755 378L755 98L521 98ZM563 329L563 148L712 148L712 329L563 329Z"/>
    <glyph glyph-name="J" unicode="&#24906;"
      horiz-adv-x="1000" vert-adv-y="1172"
      d="M883 237L761 237C814 156 880 81 961 14L961 14L936-31C894 6 856 44 823 83C789 122 758 166 729 213L729 213L729-79L684-79L684 237L570 237L570-79L524-79L524 209C477 122 416 41 341-32L341-32L312 11C389 81 449 156 494 237L494 237L384 237L384 281L524 281L524 379L356 379L356 424L524 424L524 521L402 521L402 565L524 565L524 671L363 671L363 716L507 716L492 743C469 786 454 811 449 820L449 820L493 835C503 820 519 792 542 751L542 751L561 716L694 716C717 753 740 793 761 838L761 838L807 823C790 787 771 751 749 716L749 716L924 716L924 671L729 671L729 565L883 565L883 424L954 424L954 379L883 379L883 237ZM359 546L336 505L240 592L240-74L192-74L192 835L240 835L240 646L359 546ZM684 565L684 671L570 671L570 565L684 565ZM98 306L53 313C62 356 70 412 79 481C88 550 94 611 98 664L98 664L142 661C138 610 132 548 123 475C114 402 105 345 98 306L98 306ZM684 424L684 521L570 521L570 424L684 424ZM729 424L838 424L838 521L729 521L729 424ZM684 379L570 379L570 281L684 281L684 379ZM729 379L729 281L838 281L838 379L729 379Z"/>
    <glyph glyph-name="]" unicode="&#24925;"
      horiz-adv-x="1000" vert-adv-y="1172"
      d="M466 181L488 195L130 195L130 798L923 798L923 756L179 756L179 237L939 237L939 195L513 195C541 154 560 126 571 111L571 111L596 75L556 46C514 109 484 154 466 181L466 181ZM228 674L396 674L396 730L443 730L443 674L686 674L686 730L731 730L731 674L901 674L901 637L731 637L731 593L686 593L686 637L443 637L443 592L396 592L396 637L228 637L228 674ZM914 518L485 518C465 495 443 473 420 454L420 454L803 454L803 305L361 305L361 409C325 384 283 361 236 340L236 340L216 377C303 414 375 461 430 518L430 518L231 518L231 556L462 556C475 571 486 588 495 606L495 606L536 590C529 577 521 566 514 556L514 556L914 556L914 518ZM410 419L410 340L755 340L755 419L410 419ZM780 144L819 172C861 117 902 61 941 4L941 4L897-24C854 43 815 99 780 144L780 144ZM685 48L686 86C687 94 687 102 687 110C687 118 687 125 688 130L688 130L738 118L732 35C730 13 726-4 719-15C712-27 700-35 685-40C669-45 646-48 617-49L617-49C572-50 536-51 510-51L510-51C485-51 450-50 403-49L403-49C377-48 357-45 342-40C327-35 317-26 310-13C303 0 299 20 299 46L299 46L299 168L350 168L350 55C350 32 355 16 365 8C375 0 394-5 422-6L422-6C462-7 493-8 514-8L514-8C537-8 567-7 606-6L606-6C627-5 643-3 654 0C665 3 672 8 677 15C681 22 684 33 685 48L685 48ZM101-39L56-13C76 11 96 40 117 73C137 106 154 137 168 167L168 167L213 146C200 117 183 86 163 53C142 20 122-11 101-39L101-39Z"/>
    <glyph glyph-name="" unicode="&#24989;"
      horiz-adv-x="1000" vert-adv-y="1172"
      d="M353 761L542 761L542 722L78 722L78 761L300 761C289 782 275 806 259 833L259 833L306 849C317 830 333 801 353 761L353 761ZM959 246L935 201C845 243 773 292 719 348L719 348C675 304 610 259 525 212L525 212L501 257C582 297 645 339 689 382L689 382C644 439 610 509 588 590L588 590C574 567 558 545 540 523L540 523L510 557C540 596 569 643 596 696C623 749 644 798 657 843L657 843L701 833C686 787 669 742 648 699L648 699L938 699L938 651L858 651C845 589 831 537 816 496C800 455 778 417 751 383L751 383C802 331 871 285 959 246L959 246ZM128 668L478 668L478 542L128 542L128 668ZM813 651L624 651L618 639C639 549 673 475 720 417L720 417C743 446 762 479 776 516C790 553 802 598 813 651L813 651ZM431 574L431 636L176 636L176 574L431 574ZM330 334L330 285C330 253 325 231 315 219C304 207 286 201 259 200L259 200C226 200 196 201 169 204L169 204L162 243C185 240 213 238 245 238L245 238C260 238 271 242 277 250C282 258 285 273 285 294L285 294L285 331L259 330C178 325 111 321 57 319L57 319L55 356C90 357 166 361 285 368L285 368L285 399L402 449L105 449L105 486L488 486L488 449L330 382L330 370L530 382L531 344L330 334ZM579 99L544 66C531 82 512 104 487 131C461 158 441 179 427 192L427 192L461 222C478 205 499 184 523 160C546 135 565 115 579 99L579 99ZM767 160L806 186C825 162 849 131 876 93C903 55 926 22 944-6L944-6L903-34C888-7 867 25 840 64C813 102 788 134 767 160L767 160ZM101-45L58-14C105 41 144 100 175 164L175 164L217 143C202 110 184 77 164 44C143 10 122-20 101-45L101-45ZM667 49L668 74L670 122L719 113L714 32C712 1 705-19 692-30C679-41 655-48 621-50L621-50C579-53 541-55 506-55L506-55C472-55 434-53 392-50L392-50C367-48 347-44 333-38C319-32 309-22 303-8C297 5 294 25 294 51L294 51L294 164L342 164L342 61C342 36 346 20 355 11C364 2 380-3 405-5L405-5C443-8 476-10 505-10L505-10C535-10 568-8 605-5L605-5C628-4 644 1 653 8C661 15 666 28 667 49L667 49Z"/>
    <glyph glyph-name="Ô" unicode="&#25044;"
      horiz-adv-x="1000" vert-adv-y="1172"
      d="M664 754L944 754L944 711L303 711L303 754L607 754L562 835L608 852L664 754ZM336 532L307 496C278 528 247 561 212 596L212 596L212-71L166-71L166 839L212 839L212 656C242 628 283 587 336 532L336 532ZM78 311L33 318C41 361 50 418 59 488C68 558 76 621 81 677L81 677L124 673C119 624 112 562 103 489C94 416 85 356 78 311L78 311ZM359 355L359 649L888 649L888 355L359 355ZM405 615L405 390L843 390L843 615L405 615ZM493 443L493 562L753 562L753 443L493 443ZM529 533L529 474L718 474L718 533L529 533ZM361 253L361 293L889 293L889 253L361 253ZM962 184L962 142L658 142L658 32C658-3 652-28 639-41C626-54 602-61 569-61L569-61C534-61 505-59 481-56L481-56L473-12C503-17 531-20 558-20L558-20C579-20 593-15 600-6C607 3 610 20 610 43L610 43L610 142L299 142L299 184L962 184ZM465 117L493 82C447 39 380-9 292-62L292-62L269-21C356 30 421 76 465 117L465 117ZM727 77L751 116C847 57 919 12 967-20L967-20L944-60C911-39 875-15 836 10C796 35 760 57 727 77L727 77Z"/>
    <glyph glyph-name="" unicode="&#25099;"
      horiz-adv-x="1000" vert-adv-y="1172"
      d="M856 79C861 96 868 126 876 168L876 168L885 208L932 186C929 169 923 146 916 116C909 85 903 62 898 45L898 45C887 8 873-17 856-32C839-47 817-55 790-55L790-55C763-55 737-50 711-39C685-28 658-11 630 13L630 13C592 45 558 82 529 124L529 124C402 64 254 13 87-29L87-29L69 23C233 64 377 114 500 171L500 171C469 226 443 291 421 368L421 368L65 326L61 380L408 420C398 460 389 506 380 559L380 559L90 527L85 579L373 610C370 634 361 709 346 834L346 834L402 838C404 818 408 787 413 745C418 702 423 659 429 616L429 616L875 664L880 613L436 565C444 516 453 470 463 426L463 426L927 480L932 429L477 375C497 304 521 244 550 195L550 195C649 244 735 298 808 357L808 357L839 316C764 255 678 200 580 149L580 149C603 115 632 84 667 56L667 56C690 36 712 22 731 14C750 6 770 2 789 2L789 2C806 2 819 8 830 19C840 30 849 50 856 79L856 79ZM729 709L699 672C649 710 591 749 526 789L526 789L555 825C624 782 682 744 729 709L729 709Z"/>
    <glyph glyph-name="$" unicode="&#25124;"
      horiz-adv-x="1000" vert-adv-y="1172"
      d="M913 168L954 152C952 131 949 108 944 83C939 57 935 35 930 16L930 16C922-16 912-38 899-51C886-64 870-71 851-71L851-71C832-71 816-65 802-53C787-42 773-21 760 8L760 8C743 42 727 91 714 155L714 155C687 127 657 100 626 75L626 75L597 113C632 141 667 174 702 212L702 212C687 297 677 390 672 491L672 491L672 497L604 485L597 534L669 546C666 605 663 700 659 833L659 833L705 833C708 724 712 631 715 554L715 554L938 592L945 543L716 504C717 501 717 496 717 490L717 490C722 401 730 324 741 257L741 257C797 326 841 396 873 468L873 468L914 443C875 357 820 275 751 196L751 196C767 119 783 64 800 32L800 32C817 1 834-14 851-14L851-14C861-14 869-9 876 0C882 9 887 23 892 43L892 43C899 74 906 116 913 168L913 168ZM917 665L885 634C871 651 851 675 824 706C797 737 774 761 757 779L757 779L789 808C808 789 830 764 857 735C883 706 903 682 917 665L917 665ZM78 291L43 321C82 370 111 418 129 467C146 516 157 574 160 641L160 641C161 651 162 681 164 730L164 730L90 730L90 776L483 776L459 652L577 652C577 611 575 567 572 519C568 470 563 429 558 396L558 396C553 364 545 342 534 330C523 318 505 312 480 312L480 312C459 311 439 312 418 315L418 315L409 360C428 356 448 354 468 354L468 354C483 354 494 358 501 366C507 374 512 390 516 414L516 414C525 469 531 533 532 606L532 606L433 606L433 569C409 514 379 467 344 429L344 429L408 366L378 336C366 349 345 370 315 400L315 400C282 370 238 340 183 309L183 309L158 344C209 371 251 399 284 430L284 430C261 453 237 474 213 494L213 494L242 522L313 458C340 488 365 524 386 567L386 567L198 567C191 515 179 467 160 423C141 379 114 335 78 291L78 291ZM408 609L432 730L208 730L204 643L202 609L408 609ZM550 274L550 28C564 28 582 29 605 30L605 30L607-15C521-18 427-21 325-25C223-29 129-33 43-36L43-36L43 9L111 11L111 274L550 274ZM245 16L245 230L155 230L155 13L245 16ZM376 21L376 230L287 230L287 17L376 21ZM507 26L507 230L416 230L416 22L507 26Z"/>
    <glyph glyph-name="%" unicode="&#25125;"
      horiz-adv-x="1000" vert-adv-y="1172"
      d="M906 177L948 160C945 145 941 124 935 95C928 66 923 44 918 29L918 29C909-2 898-25 885-38C872-52 855-59 835-59L835-59C815-59 797-53 781-40C765-27 749-7 733 22L733 22C724 37 714 58 704 85L704 85C674 48 639 9 598-31L598-31L562 5C607 48 648 93 685 141L685 141C658 230 639 351 628 502L628 502L530 486L523 536L625 553C616 673 611 768 609 837L609 837L659 837C660 780 665 688 674 561L674 561L934 603L940 553L677 510C686 387 701 282 722 193L722 193C770 266 811 352 846 451L846 451L892 437C871 379 849 325 825 276C800 226 772 178 739 132L739 132C751 95 764 66 778 43L778 43C788 26 797 15 806 8C815 1 824-3 835-3L835-3C844-3 853 1 860 9C867 17 873 32 880 55L880 55C885 74 889 95 895 119C900 143 903 162 906 177L906 177ZM896 675L862 641C847 659 825 682 796 709C767 736 742 759 719 778L719 778L751 810C771 793 796 770 826 743C855 716 879 693 896 675L896 675ZM94 466L94 785L496 785L496 466L94 466ZM142 646L448 646L448 742L142 742L142 646ZM448 605L142 605L142 508L448 508L448 605ZM334 152L334 37L537 51L539 6C381-5 215-17 40-30L40-30L37 17C106 20 189 26 286 33L286 33L286 152L104 152L104 196L286 196L286 302L127 302C109 262 89 224 67 188L67 188L30 214C71 279 104 353 130 436L130 436L174 424C163 392 154 366 146 346L146 346L286 346L286 441L334 441L334 346L528 346L528 302L334 302L334 196L514 196L514 152L334 152Z"/>
    <glyph glyph-name="C" unicode="&#25155;"
      horiz-adv-x="1000" vert-adv-y="1172"
      d="M565 751L883 751L883 537L190 537L190 455C190 375 187 308 180 254C173 200 162 151 147 106C132 61 109 12 80-40L80-40L34-13C63 38 85 84 100 127C115 169 125 216 131 268C137 319 140 386 140 469L140 469L140 751L507 751C490 787 473 820 456 849L456 849L510 865C533 820 552 782 565 751L565 751ZM190 704L190 585L833 585L833 704L190 704ZM321-46L271-46L271 438L874 438L874 64C874 25 867-3 852-20C837-37 813-46 779-47L779-47C742-48 707-47 674-43L674-43L665 5C699 0 733-2 768-1L768-1C788 0 802 6 811 17C820 28 824 45 824 70L824 70L824 390L321 390L321-46ZM436 72L436 291L708 291L708 72L436 72ZM483 248L483 117L663 117L663 248L483 248Z"/>
    <glyph glyph-name=""" unicode="&#25378;"
      horiz-adv-x="1000" vert-adv-y="1172"
      d="M348 436L354 384C350 382 346 380 341 379C336 377 330 375 324 372L324 372L239 341L239 36C239 3 233-21 221-35C208-49 189-56 162-57L162-57C138-58 109-56 76-53L76-53L66-2C93-6 120-8 146-8L146-8C161-8 172-3 179 6C185 15 188 30 188 52L188 52L188 323C132 302 85 286 47 274L47 274L35 328C84 343 135 360 188 378L188 378L188 591L52 591L52 642L188 642L188 831L239 831L239 642L353 642L353 591L239 591L239 396C278 410 315 423 348 436L348 436ZM937 506L706 506C735 454 769 411 808 376C846 341 897 307 962 274L962 274L937 226C867 261 811 300 768 343C725 386 687 440 654 506L654 506L612 506C589 447 556 396 513 352C470 307 410 260 331 210L331 210L303 256C373 299 427 339 466 377C504 414 534 457 556 506L556 506L367 506L367 556L575 556C590 603 602 660 612 725L612 725C528 716 456 710 397 706L397 706L391 758C469 763 555 770 650 781C745 792 822 803 883 815L883 815L889 764C846 756 771 745 666 731L666 731C655 657 642 599 629 556L629 556L937 556L937 506ZM777 324L777-69L726-69L726 324L777 324ZM485 235L485 323L537 323L537 234C537 185 532 143 523 110C513 77 495 45 471 16C446-14 409-46 360-81L360-81L325-41C370-10 403 19 426 46C449 72 464 99 473 128C481 157 485 192 485 235L485 235Z"/>
    <glyph glyph-name="C" unicode="&#25411;"
      horiz-adv-x="1000" vert-adv-y="1172"
      d="M327 422L334 370C286 348 251 332 229 323L229 323L229 29C229-6 223-31 212-44C200-58 179-66 150-67L150-67C121-67 97-65 76-62L76-62L66-11C89-15 113-17 136-17L136-17C152-17 163-12 170-3C176 6 179 22 179 45L179 45L179 302L39 243L31 295L112 329L179 357L179 594L52 594L52 646L179 646L179 834L229 834L229 646L332 646L332 594L229 594L229 379C250 388 283 402 327 422L327 422ZM866 555L866 384L544 384C531 339 514 298 493 261L493 261L879 261L879-80L827-80L827-16L517-16L517-80L465-80L465 216C432 167 388 115 333 58L333 58L298 100C351 152 393 200 423 245C453 289 476 335 491 384L491 384L383 384L383 430L504 430C511 462 517 504 522 555L522 555L358 555L358 603L526 603L532 728L397 728L397 775L866 775L866 603L958 603L958 555L866 555ZM815 728L585 728L579 603L815 603L815 728ZM815 555L575 555C571 509 565 467 556 430L556 430L815 430L815 555ZM517 32L827 32L827 215L517 215L517 32Z"/>
    <glyph glyph-name="­" unicode="&#25517;"
      horiz-adv-x="1000" vert-adv-y="1172"
      d="M322 434L331 383L288 368L222 343L222 44C222 9 215-17 202-32C188-47 165-55 133-55L133-55C116-55 91-54 58-51L58-51L48-1C77-6 102-8 123-8L123-8C142-8 155-3 163 8C170 18 174 35 174 58L174 58L174 326L47 280L35 333L174 381L174 591L52 591L52 641L174 641L174 831L222 831L222 641L331 641L331 591L222 591L222 398L322 434ZM679 514L589 514C561 455 525 402 480 355C435 308 380 263 313 220L313 220L282 264C342 299 392 337 433 378C474 419 507 464 533 514L533 514L348 514L348 563L556 563C574 609 589 662 600 723L600 723L390 723L390 772L901 772L901 723L654 723C641 660 626 606 609 563L609 563L943 563L943 514L733 514C760 461 792 416 829 379C866 342 913 310 969 283L969 283L944 234C824 296 736 389 679 514L679 514ZM588 57L588 387L637 387L637 42C637 5 631-20 618-35C605-50 584-58 553-58L553-58C528-58 500-56 468-53L468-53L458-4C492-9 518-11 537-11L537-11C556-11 570-6 577 5C584 15 588 32 588 57L588 57ZM801 240L841 258C866 204 893 143 922 74L922 74L948 15L905-3C876 68 842 149 801 240L801 240ZM448 255L493 239C477 198 458 155 436 110C414 65 393 26 372-6L372-6L328 17C351 52 374 90 395 132C416 174 433 215 448 255L448 255ZM685 237L727 251C756 167 781 88 803 14L803 14L760 2C749 38 737 79 722 126C707 173 695 210 685 237L685 237Z"/>
    <glyph glyph-name="Î" unicode="&#25550;"
      horiz-adv-x="1000" vert-adv-y="1172"
      d="M881 678L404 678L404 548L359 548L359 727L629 727C617 762 603 798 587 836L587 836L636 848C652 811 666 770 679 727L679 727L926 727L926 548L881 548L881 678ZM321 429L333 380L290 364L230 341L230 36C230-1 223-25 209-38C195-51 169-58 131-58L131-58C116-58 95-57 67-54L67-54L58-4C83-8 109-10 134-10L134-10C152-10 164-6 171 3C178 12 181 27 181 49L181 49L181 323L48 273L35 322C71 335 120 352 181 375L181 375L181 590L55 590L55 638L181 638L181 839L230 839L230 638L326 638L326 590L230 590L230 394L321 429ZM418 522L418 569L862 569L862 522L418 522ZM861 428L861 112L410 112L410 428L861 428ZM456 290L814 290L814 385L456 385L456 290ZM814 249L456 249L456 156L814 156L814 249ZM952-36L315-36L315 11L952 11L952-36Z"/>
    <glyph glyph-name="ò" unicode="&#25586;"
      horiz-adv-x="1000" vert-adv-y="1172"
      d="M323 447L329 396L233 352L233 41C233 16 230-3 224-16C217-29 207-37 192-42C177-47 155-50 126-50L126-50C113-50 94-49 67-46L67-46L58 4C83 1 105-1 125-1L125-1C149-1 165 3 172 10C179 17 183 32 183 56L183 56L183 330C130 307 85 288 48 273L48 273L36 321L183 383L183 593L56 593L56 642L183 642L183 843L233 843L233 642L333 642L333 593L233 593L233 406C278 426 308 440 323 447L323 447ZM939 207L690 207C761 134 852 71 962 19L962 19L940-28C827 29 732 100 655 186L655 186L655-76L605-76L605 191C518 95 416 18 297-39L297-39L272 6C387 60 484 127 564 207L564 207L317 207L317 255L605 255L605 353L403 353L403 647L340 647L340 693L403 693L403 810L453 810L453 693L580 693L580 834L629 834L629 693L777 693L777 833L826 833L826 693L956 693L956 647L826 647L826 489L580 489L580 647L453 647L453 400L924 400L924 353L655 353L655 255L939 255L939 207ZM629 536L777 536L777 647L629 647L629 536Z"/>
    <glyph glyph-name="" unicode="&#25611;"
      horiz-adv-x="1000" vert-adv-y="1172"
      d="M320 432L320 381L248 355C240 352 231 348 222 345L222 345L222 45C222 10 215-15 202-29C189-44 166-51 133-51L133-51C104-51 80-49 60-46L60-46L50 3C77-2 100-4 120-4L120-4C141-4 155 1 163 11C170 20 174 36 174 59L174 59L174 328C147 319 106 304 51 285L51 285L44 335C106 357 149 372 174 380L174 380L174 594L57 594L57 643L174 643L174 835L222 835L222 643L319 643L319 594L222 594L222 397L320 432ZM888 508L523 508L523 341C523 250 515 176 500 118C484 59 454-4 410-72L410-72L370-50C413 14 442 74 457 129C472 184 479 255 479 342L479 342L479 549L637 549L637 732C537 724 458 719 401 716L401 716L401 478C401 394 398 323 391 266C384 209 374 157 359 110C344 63 323 14 296-38L296-38L250-16C279 35 300 82 315 125C330 167 340 215 347 270C353 324 356 394 356 480L356 480L356 762C439 765 531 770 633 779C734 788 829 797 916 808L916 808L925 763C822 750 742 742 685 737L685 737L685 667L897 667L897 630L685 630L685 549L932 549L932 509L895 412L854 420L888 508ZM647 371L562 360L556 399L647 410L646 482L686 482L687 415L820 432L824 394L687 376L687 357C687 339 690 327 697 321C704 314 717 310 736 309L736 309L773 308L810 309C829 310 842 314 850 319C857 324 860 336 861 354L861 354L863 397L903 393C902 390 902 385 902 381C902 376 902 371 901 366L901 366L900 343C898 316 893 298 884 289C875 280 857 274 830 271L830 271C819 270 799 270 772 270L772 270C745 270 725 270 714 271L714 271C688 274 671 280 662 291C653 302 648 320 647 347L647 347L647 371ZM903 156L944 148C944 133 943 112 943 86C942 60 940 41 939 28L939 28C938 1 932-17 921-28C909-39 889-44 860-44L860-44L826-44C801-44 784-39 773-28C762-17 756 1 756 26L756 26L756 170L642 170L642 135C642 90 633 52 614 22C595-9 564-40 519-69L519-69L491-40C522-21 545-2 561 17C576 35 587 55 593 76C599 97 602 123 602 154L602 154L602 214L799 214L799 40C799 25 802 15 808 9C813 3 823 0 838 0L838 0L856 0C873 0 884 3 890 10C896 16 899 27 900 44L900 44C901 61 902 80 903 103C903 126 903 143 903 156L903 156Z"/>
    <glyph glyph-name="" unicode="&#25612;"
      horiz-adv-x="1000" vert-adv-y="1172"
      d="M357 423L357 372C322 361 283 349 240 336L240 336L240 37C240 1 233-24 220-38C207-53 183-60 149-60L149-60C122-60 96-58 70-54L70-54L60-6C65-7 77-8 94-10C111-12 126-13 141-13L141-13C160-13 173-8 180 1C187 10 191 26 191 49L191 49L191 322C123 302 76 288 51 280L51 280L39 329C62 336 88 344 117 352L117 352C126 355 137 358 150 362C162 365 176 369 191 374L191 374L191 588L56 588L56 637L191 637L191 830L240 830L240 637L364 637L364 588L240 588L240 388C290 403 329 414 357 423L357 423ZM808 81C851 41 901 12 960-5L960-5L938-49C868-24 810 12 765 60C719 107 682 169 653 245L653 245L570 245L570-7C631 20 677 39 708 52L708 52L716 9C702 4 678-6 645-20C612-35 585-47 564-56L564-56C545-64 530-71 519-76L519-76L500-39C517-31 526-21 526-9L526-9L526 245L439 245C433 188 422 135 407 86C392 37 370-14 341-67L341-67L296-41C324 9 345 56 360 101C375 145 385 195 391 251C397 307 400 379 400 466L400 466L400 778L905 778L905 580L447 580L447 455L584 455L584 555L630 555L630 455L766 455L766 555L811 555L811 455L925 455L925 409L811 409L811 289L952 289L952 245L699 245C720 192 747 147 779 110L779 110C817 137 855 167 893 202L893 202L923 171C888 139 850 109 808 81L808 81ZM447 624L857 624L857 734L447 734L447 624ZM584 409L447 409C446 354 444 314 442 289L442 289L584 289L584 409ZM630 289L766 289L766 409L630 409L630 289Z"/>
    <glyph glyph-name=" " unicode="&#25632;"
      horiz-adv-x="1000" vert-adv-y="1172"
      d="M267 434L279 385C248 371 221 359 197 349L197 349L197 21C197-8 192-29 182-41C172-53 154-59 129-60L129-60C101-61 74-60 49-56L49-56L40-5C65-10 91-12 117-11L117-11C130-11 138-7 143 0C148 7 150 18 150 35L150 35L150 328L93 303L42 281L29 329C64 343 104 360 150 381L150 381L150 598L39 598L39 649L150 649L150 843L197 843L197 649L278 649L278 598L197 598L197 402L267 434ZM609 528L609 211L486 211C482 166 475 127 464 96C453 65 438 36 417 9C396-18 367-48 329-82L329-82L294-50C345-7 381 32 402 69C423 106 436 153 442 211L442 211L330 211L330 528L371 528L371 259L445 259C446 274 446 298 446 331L446 331L446 603L313 603L313 651L482 651C513 714 539 774 560 830L560 830L600 814C573 749 548 694 527 651L527 651L628 651L628 603L490 603L490 329C490 297 490 274 489 259L489 259L566 259L566 528L609 528ZM445 686L407 666C386 713 362 761 335 808L335 808L373 824C394 789 418 743 445 686L445 686ZM676 429L676 765L912 765L912 44C912 11 907-13 896-28C885-43 865-50 837-51L837-51C805-51 778-49 755-46L755-46L745 3C773-1 800-3 827-3L827-3C842-3 853 2 859 12C864 21 867 38 867 63L867 63L867 250L716 250C711 175 701 114 684 67C667 20 638-28 599-76L599-76L557-46C592-5 618 34 635 69C651 104 662 148 668 201C673 253 676 329 676 429L676 429ZM720 527L867 527L867 714L720 714L720 527ZM718 299L867 299L867 478L720 478L720 407C720 357 719 321 718 299L718 299Z"/>
    <glyph glyph-name="4" unicode="&#25652;"
      horiz-adv-x="1000" vert-adv-y="1172"
      d="M611 382L385 382C368 360 344 336 315 310L315 310C447 311 563 316 664 324L664 324L672 285C653 284 638 283 627 283L627 283C589 280 559 279 536 278L536 278L536 214L763 214L763 177L536 177L536 111L896 111L896 73L536 73L536 34C536-4 529-30 514-45C499-60 473-67 434-67L434-67C395-67 356-65 316-61L316-61L308-17C349-22 387-25 423-25L423-25C448-25 464-20 474-9C483 2 487 20 487 45L487 45L487 73L101 73L101 111L487 111L487 177L235 177L235 214L487 214L487 276C404 273 346 272 311 272L311 272L309 305C236 242 151 190 56 150L56 150L36 194C95 218 150 247 201 281C252 314 292 348 323 382L323 382L68 382L68 421L338 421L338 486L156 486L156 523L338 523L338 595L179 595L179 631L338 631L338 717L145 717L145 596L95 596L95 757L487 757L477 777C466 802 456 822 449 835L449 835L499 851L546 757L901 757L901 605L851 605L851 717L658 717L658 631L817 631L817 595L658 595L658 523L840 523L840 486L658 486L658 421L928 421L928 382L673 382C704 345 744 312 793 281C842 250 898 224 959 204L959 204L944 159C874 184 810 217 751 256C692 295 646 337 611 382L611 382ZM609 631L609 717L386 717L386 631L609 631ZM609 523L609 595L386 595L386 523L609 523ZM609 421L609 486L386 486L386 421L609 421Z"/>
    </font>
</defs>
</svg>
