<svg xmlns="http://www.w3.org/2000/svg">
<!--
Copyright 2021 Huawei Device Co., Ltd. All Rights Reserved.
  -->

  <defs>
    <font name="HarmonyOS Sans SC"
      horiz-adv-x="1000" vert-adv-y="1000" >
    <font-face font-family="HarmonyOS Sans SC" font-weight="400"
      font-stretch="normal"
      units-per-em="1000"
      ascent="928"
      descent="-244"/>
    <glyph glyph-name="G" unicode="&#20039;"
      horiz-adv-x="1000" vert-adv-y="1172"
      d="M832 117C833 134 835 154 837 178C838 202 839 222 839 239L839 239L923 220L913 72C910 28 899-3 878-21C857-39 821-49 771-52L771-52C733-54 694-55 655-55L655-55C617-55 578-54 539-52L539-52C490-49 454-36 433-13C411 10 400 49 400 104L400 104L400 340L62 313L55 395L400 423L400 651C289 635 199 623 128 615L128 615L114 694C230 706 357 723 496 744C634 765 751 787 847 809L847 809L867 732C756 709 629 686 485 664L485 664L485 430L940 467L947 383L485 346L485 119C485 86 490 63 500 50C510 36 527 28 551 27L551 27C584 25 617 24 648 24L648 24C681 24 713 25 745 27L745 27C778 29 801 36 813 49C824 62 831 84 832 117L832 117Z"/>
    <glyph glyph-name="i" unicode="&#20073;"
      horiz-adv-x="1000" vert-adv-y="1172"
      d="M864 243L943 226C943 199 942 166 940 126L940 126L939 77C938 47 935 24 929 8C923-9 914-20 902-27C890-34 873-39 852-41L852-41C827-44 800-45 771-45L771-45C742-45 716-44 691-41L691-41C668-39 649-34 635-26C621-19 611-6 604 13C597 31 593 57 593 90L593 90L593 833L672 833L672 106C672 87 674 72 679 63C683 53 689 46 698 43C706 39 718 36 734 35L734 35C742 34 753 34 768 34L768 34C783 34 795 34 802 35L802 35C818 36 830 39 838 43C846 46 852 53 856 62C859 71 861 86 861 105L861 105C863 163 864 209 864 243L864 243ZM235 399L235 829L313 829L313 662L530 662L530 586L313 586L313 399L472 399L472-38L94-38L94 399L235 399ZM172 318L172 41L395 41L395 318L172 318Z"/>
    <glyph glyph-name="" unicode="&#20109;"
      horiz-adv-x="1000" vert-adv-y="1172"
      d="M141 700L141 780L858 780L858 700L141 700ZM62 507L936 507L936 425L561 425L561 79C561 28 549-7 525-26C500-46 459-56 401-56L401-56C368-56 327-54 279-49L279-49L262 33C312 25 356 21 395 21L395 21C417 21 433 23 444 27C455 31 462 39 467 51C472 62 474 81 474 106L474 106L474 425L62 425L62 507Z"/>
    <glyph glyph-name="e" unicode="&#20325;"
      horiz-adv-x="1000" vert-adv-y="1172"
      d="M254 454L254 528C201 491 143 456 79 421L79 421L32 496C224 593 366 707 459 840L459 840L539 840C587 771 646 708 716 652C785 596 868 544 965 496L965 496L920 421C861 451 806 484 754 520L754 520L754 454L254 454ZM500 756C440 677 359 602 257 530L257 530L740 530C641 600 561 675 500 756L500 756ZM582 154L502 122C492 157 477 202 457 256C437 310 419 355 404 390L404 390L480 419C496 384 514 341 535 288C555 235 571 191 582 154L582 154ZM151 374L226 410C243 375 265 329 290 271C315 212 334 164 348 126L348 126L267 92C255 129 237 176 214 234C190 291 169 338 151 374L151 374ZM766 409L845 374C825 326 800 271 771 208C741 145 713 91 688 44L688 44L925 44L925-32L69-32L69 44L593 44C624 97 655 158 687 226C719 293 745 354 766 409L766 409Z"/>
    <glyph glyph-name="g" unicode="&#20327;"
      horiz-adv-x="1000" vert-adv-y="1172"
      d="M959 465L959 387L629 387L629 321C689 291 785 237 917 159L917 159L873 86C841 107 802 131 755 159C708 187 666 211 629 231L629 231L629-71L547-71L547 387L307 387L307 465L547 465L547 841L626 841L626 686L912 686L912 610L626 610L626 465L959 465ZM282 840L362 814C337 743 307 674 273 605L273 605L273-69L193-69L193 462C157 404 118 351 77 304L77 304L38 385C85 442 131 512 176 595C221 678 256 760 282 840L282 840Z"/>
    <glyph glyph-name="" unicode="&#20361;"
      horiz-adv-x="1000" vert-adv-y="1172"
      d="M936 661L743 661C767 618 796 582 831 553C866 524 910 496 963 470L963 470L924 401C867 432 821 464 784 497L784 497L784 454L447 454L447 497C410 465 362 432 303 399L303 399L265 468C319 496 365 526 402 557C439 588 471 622 496 661L496 661L323 661L323 735L535 735C549 768 561 804 571 845L571 845L644 829C637 798 627 767 615 735L615 735L936 735L936 661ZM243 837L322 822C299 744 271 668 238 594L238 594L238-74L161-74L161 446C133 399 104 356 73 317L73 317L23 382C66 440 108 509 148 591C187 672 219 754 243 837L243 837ZM661 661L582 661C556 612 522 567 480 526L480 526L754 526C715 566 684 611 661 661L661 661ZM425 300L305 300L305 373L917 373L917 300L507 300L488 221L856 221C848 166 838 110 826 51L826 51C817 9 803-21 783-39C763-57 730-66 685-66L685-66C634-66 578-63 518-58L518-58L503 18C573 11 630 7 673 7L673 7C696 7 712 12 722 23C732 33 740 48 747 69L747 69C755 93 762 121 767 152L767 152L393 152L425 300Z"/>
    <glyph glyph-name="§" unicode="&#20647;"
      horiz-adv-x="1000" vert-adv-y="1172"
      d="M845 668L404 668L404 581L327 581L327 737L589 737C576 766 561 797 543 831L543 831L618 854C635 820 652 781 669 737L669 737L923 737L923 585L845 585L845 668ZM221 833L301 817C282 751 259 682 231 611L231 611L231-79L155-79L155 447C126 394 99 351 75 318L75 318L23 380C62 434 99 502 135 584C170 666 199 749 221 833L221 833ZM769 348L769 216L960 216L960 147L282 147L282 216L398 216L398 562C461 565 533 572 616 582C699 592 766 602 818 613L818 613L829 543C784 534 726 524 653 515C580 506 521 499 474 496L474 496L474 417L919 417L919 348L769 348ZM696 216L696 348L474 348L474 216L696 216ZM319-78L279-13C318 4 358 26 400 52C442 78 478 103 509 127L509 127L550 69C521 46 485 20 442-7C399-35 358-59 319-78L319-78ZM674 66L711 127C744 111 783 89 830 63C877 36 916 11 949-11L949-11L910-76C873-51 832-25 787 2C742 29 705 50 674 66L674 66Z"/>
    <glyph glyph-name="æ" unicode="&#20710;"
      horiz-adv-x="1000" vert-adv-y="1172"
      d="M268 644L268 717L420 717L374 827L443 850L458 814C481 758 494 726 497 717L497 717L608 717L608 644L268 644ZM949 591L949 518L740 518C738 413 732 327 723 259C713 191 697 131 675 79C653 27 621-24 580-75L580-75L523-29C564 22 594 71 615 117C635 163 649 216 658 276C666 335 671 416 674 518L674 518L605 518L605 591L675 591C676 612 676 653 676 713L676 713L677 838L741 838C740 777 740 695 740 591L740 591L949 591ZM205 837L275 811C254 731 232 662 209 605L209 605L209-69L139-69L139 450C118 410 95 373 71 340L71 340L24 399C97 508 158 654 205 837L205 837ZM935 682L879 646C855 687 825 734 789 787L789 787L841 819C872 777 904 731 935 682L935 682ZM581 563L581 314L476 314L476 58C476 16 469-13 455-30C440-47 417-56 385-56L385-56C364-56 342-54 320-50L320-50L306 25C329 20 350 17 371 17L371 17C386 17 396 22 402 32C407 41 410 57 410 79L410 79L410 314L305 314L305 563L581 563ZM513 375L513 500L373 500L373 375L513 375ZM895 222L951 213C949 141 948 80 948 30L948 30C945-22 918-48 866-48L866-48L842-48C816-48 797-42 785-30C773-19 767 1 767 29L767 29L767 482L829 482L829 65C829 50 831 39 834 34C837 29 844 26 853 27L853 27L867 27C876 26 883 29 887 35C891 41 893 52 894 67L894 67L895 222ZM300 281L360 266C341 177 317 100 290 35L290 35L230 54C258 120 281 196 300 281L300 281ZM611 128L549 110C543 138 530 189 510 262L510 262L570 278C586 223 600 173 611 128L611 128Z"/>
    <glyph glyph-name="@" unicode="&#21056;"
      horiz-adv-x="1000" vert-adv-y="1172"
      d="M347 841L347 628L467 628L467 776L538 776L538 553L84 553L84 776L155 776L155 628L276 628L276 841L347 841ZM823 86L823 827L899 827L899 59C899 30 895 6 888-11C881-28 868-41 850-49C832-58 806-62 773-62L773-62C729-62 692-60 661-57L661-57L643 27C690 21 729 18 761 18L761 18C786 18 802 23 811 33C819 42 823 60 823 86L823 86ZM633 158L633 742L707 742L707 158L633 158ZM189 220L189 39L533 108L534 28C406 5 298-16 210-35L210-35C200-37 180-42 151-49L151-49L117-57L86 17C98 25 106 33 111 40C115 47 117 57 117 68L117 68L117 291L436 291L436 400L87 400L87 473L511 473L511 220L189 220Z"/>
    <glyph glyph-name="a" unicode="&#21089;"
      horiz-adv-x="1000" vert-adv-y="1172"
      d="M332 541C311 508 280 477 240 450C200 422 147 394 81 366L81 366L44 434C108 458 158 483 195 508C231 533 257 560 273 590C288 620 296 656 296 698L296 698L296 839L372 839L372 698C372 664 368 632 360 603L360 603C433 558 516 503 609 440L609 440L566 377C499 427 421 482 332 541L332 541ZM830 96L830 827L901 827L901 70C901 37 898 12 893-5C887-22 876-35 861-43C846-51 824-56 795-57L795-57L766-58C749-58 719-56 676-53L676-53L661 24C698 19 736 17 773 17L773 17C796 17 811 22 819 33C826 44 830 65 830 96L830 96ZM250 626L195 586C160 639 119 692 73 746L73 746L125 788C166 742 207 688 250 626L250 626ZM538 786L593 744C558 693 513 638 460 579L460 579L407 622C430 647 454 675 479 706C503 737 523 763 538 786L538 786ZM660 156L660 751L730 751L730 156L660 156ZM372 446L372 318C372 275 368 236 360 201L360 201C436 148 519 86 610 14L610 14L559-50C490 9 416 70 335 133L335 133C314 92 284 54 243 22C202-11 147-43 79-74L79-74L41-3C109 26 161 55 198 86C235 117 260 150 275 187C289 223 296 267 296 318L296 318L296 446L372 446ZM255 219L199 179C154 244 117 293 90 326L90 326L142 368C166 340 204 290 255 219L255 219ZM462 179L407 218C452 271 489 320 518 367L518 367L575 328C541 277 503 227 462 179L462 179Z"/>
    <glyph glyph-name="¬" unicode="&#21164;"
      horiz-adv-x="1000" vert-adv-y="1172"
      d="M224 710L501 710L501 645C501 462 497 275 490 84L490 84C488 33 477-2 458-23C439-44 405-54 357-54L357-54C317-54 282-52 253-49L253-49L237 27C276 22 313 19 348 19L348 19C367 19 381 21 390 26C399 31 406 39 410 51C414 63 417 81 418 105L418 105C425 227 428 362 428 511L428 511L427 635L190 635C169 592 143 549 113 505L113 505L343 505L343 121L104 121L104 491C92 474 83 461 76 453L76 453L24 510C104 627 160 739 192 844L192 844L267 826C252 781 238 743 224 710L224 710ZM713 637L917 637C916 446 909 256 896 67L896 67C893 22 882-10 861-27C840-44 804-53 754-53L754-53C738-53 715-52 686-49L686-49L671 28C702 23 729 21 751 21L751 21C778 21 797 26 807 36C816 45 822 64 824 92L824 92C836 245 842 401 842 559L842 559L711 559C708 442 703 349 694 280C685 210 671 148 651 95C630 42 600-17 560-80L560-80L492-33C529 20 556 71 574 119C591 167 604 221 612 282C619 342 627 434 636 559L636 559L534 559L534 637L638 637L642 835L717 835C717 796 716 730 713 637L713 637ZM277 192L277 434L173 434L173 192L277 192Z"/>
    <glyph glyph-name="" unicode="&#21274;"
      horiz-adv-x="1000" vert-adv-y="1172"
      d="M119-36L119 779L901 779L901 696L203 696L203 46L911 46L911-36L119-36Z"/>
    <glyph glyph-name="c" unicode="&#21347;"
      horiz-adv-x="1000" vert-adv-y="1172"
      d="M505 762L942 762L942 689L505 689L505 600L872 600L872-72L791-72L791-23L207-23L207-72L125-72L125 600L418 600L418 836L505 836L505 762ZM207 158L207 52L791 52L791 524L207 524L207 419L658 419L658 158L207 158ZM576 231L576 343L207 343L207 231L576 231Z"/>
    <glyph glyph-name="" unicode="&#21526;"
      horiz-adv-x="1000" vert-adv-y="1172"
      d="M749 521L688 575C721 610 758 652 797 703C836 753 869 800 897 844L897 844L964 792C935 749 899 701 859 650C818 598 781 555 749 521L749 521ZM389 785L451 833C543 722 611 636 655 575L655 575L587 523C561 561 530 604 493 653C456 702 422 746 389 785L389 785ZM372 755L372 32L78 32L78 755L372 755ZM295 676L155 676L155 113L295 113L295 676ZM631-69L631 506L710 506L710-69L631-69Z"/>
    <glyph glyph-name="2" unicode="&#21554;"
      horiz-adv-x="1000" vert-adv-y="1172"
      d="M829-59L829 827L908 827L908-59L829-59ZM411 786L695 786L695 491L507 491L494 351L702 351C697 249 691 158 682 77L682 77C677 30 665-2 646-20C627-38 595-47 551-47L551-47C510-47 468-45 426-41L426-41L410 34C465 27 506 24 534 24L534 24C557 24 573 29 584 40C594 51 601 69 606 94L606 94C614 140 620 200 624 274L624 274L413 274L438 564L618 564L618 711L411 711L411 786ZM339 756L339 52L89 52L89 756L339 756ZM266 680L161 680L161 130L266 130L266 680Z"/>
    <glyph glyph-name="R" unicode="&#21586;"
      horiz-adv-x="1000" vert-adv-y="1172"
      d="M882 209L955 196C955 153 954 109 951 65L951 65C949 38 945 17 940 3C934-12 925-22 913-28C900-35 882-39 859-41L859-41C838-43 818-44 799-44L799-44C780-44 759-43 738-41L738-41C717-39 700-35 688-28C675-22 666-12 660 3C653 17 650 37 650 64L650 64L650 350C631 265 600 189 557 121C514 53 454-10 378-69L378-69L319-7C398 54 458 117 499 183C540 249 568 324 583 409L583 409L389 409L389 489L594 489C598 533 600 567 601 591L601 591C602 601 602 613 602 626C602 639 602 652 603 665L603 665L604 701L419 701L419 779L904 779L904 701L680 701C680 652 679 615 678 591L678 591C677 556 675 522 672 489L672 489L933 489L933 409L661 409L654 367L727 367L727 93C727 71 730 56 737 49C743 41 754 36 769 35L769 35C786 34 799 33 806 33L806 33C813 33 825 34 842 35L842 35C852 36 859 38 864 41C869 44 872 49 874 57C876 65 878 78 879 97L879 97C881 127 882 164 882 209L882 209ZM87 97L87 757L344 757L344 97L87 97ZM162 679L162 174L268 174L268 679L162 679Z"/>
    <glyph glyph-name="T" unicode="&#21588;"
      horiz-adv-x="1000" vert-adv-y="1172"
      d="M923 543L681 543C690 440 720 341 769 246C818 151 885 67 970-5L970-5L912-72C845-11 788 57 743 132C698 206 664 285 641 370L641 370C594 203 497 54 351-75L351-75L292-13C475 144 575 330 591 543L591 543L379 543L379 622L594 622L594 838L673 838L673 622L923 622L923 543ZM71 57L71 726L334 726L334 57L71 57ZM145 649L145 135L258 135L258 649L145 649ZM542 104L599 153L652 87L712 13L649-34C640-22 629-6 614 13C599 32 587 47 580 56L580 56L542 104Z"/>
    <glyph glyph-name="V" unicode="&#21590;"
      horiz-adv-x="1000" vert-adv-y="1172"
      d="M412 435L412 783L953 783L953 707L485 707L485 444C485 365 482 298 475 243C468 188 455 136 437 87C418 37 392-18 357-78L357-78L286-38C321 19 348 71 366 116C383 161 395 208 402 257C409 305 412 364 412 435L412 435ZM86 74L86 764L331 764L331 74L86 74ZM157 689L157 152L260 152L260 689L157 689ZM636 663L710 663L708 556L707 512L915 512C914 453 911 379 907 291C902 203 897 130 892 73L892 73C888 30 877-1 860-20C842-39 813-48 774-48L774-48C747-48 714-46 677-41L677-41L663 33C694 28 723 25 750 25L750 25C767 25 780 27 790 32C799 36 805 44 810 55C814 66 817 82 820 105L820 105C831 198 837 308 838 435L838 435L704 435C701 354 693 285 680 228C667 171 648 119 621 72C594 25 556-24 508-75L508-75L449-28C493 18 528 63 553 106C578 149 597 196 609 247C621 298 629 361 632 435L632 435L526 435L526 512L635 512C636 535 636 573 636 626L636 626L636 663Z"/>
    <glyph glyph-name="r" unicode="&#21618;"
      horiz-adv-x="1000" vert-adv-y="1172"
      d="M872 95C876 165 878 209 878 228L878 228L946 213C946 194 945 169 944 137C943 104 941 79 939 61L939 61C936 25 929-1 917-16C904-32 885-41 858-43L858-43C839-44 825-45 815-45L815-45C806-45 792-44 772-43L772-43C746-42 727-34 714-19C701-4 695 22 695 61L695 61L695 836L767 836L767 517C792 536 817 558 842 582C867 605 889 627 907 648L907 648L955 583C931 558 902 530 867 501C832 472 799 446 767 423L767 423L767 93C767 72 769 57 774 48C779 39 786 34 797 33L797 33C802 32 809 32 818 32L818 32C832 32 842 33 850 36C857 38 862 44 866 53C869 62 871 76 872 95L872 95ZM578 469L578 117L647 142L664 63C633 53 593 39 544 22C495 5 449-11 408-25L408-25L343-48L320 25L375 44L375 694L445 694L445 69L508 92L508 823L578 823L578 544L653 544L653 469L578 469ZM309 741L309 77L81 77L81 741L309 741ZM238 149L238 668L152 668L152 149L238 149Z"/>
    <glyph glyph-name="x" unicode="&#21624;"
      horiz-adv-x="1000" vert-adv-y="1172"
      d="M622 101L622 462C561 368 494 288 421 221L421 221L375 296C436 351 491 413 538 482C585 550 624 622 656 699L656 699L419 699L419 777L932 777L932 699L746 699C731 664 716 631 701 601L701 601L701 101L622 101ZM361 753L361 71L94 71L94 753L361 753ZM287 146L287 678L168 678L168 146L287 146ZM716 496L773 541C800 506 833 459 873 402C913 344 944 298 965 264L965 264L901 219C878 258 847 305 810 362C772 418 741 463 716 496L716 496ZM943 49L943-28L377-28L377 49L943 49Z"/>
    <glyph glyph-name="­" unicode="&#21677;"
      horiz-adv-x="1000" vert-adv-y="1172"
      d="M704 699L950 699L950 623L704 623L704 485L916 485L916 409L406 409L406 485L622 485L622 623L387 623L387 699L622 699L622 837L704 837L704 699ZM341 737L341 32L93 32L93 737L341 737ZM267 109L267 660L167 660L167 109L267 109ZM513-16L513-77L434-77L434 306L889 306L889-77L810-77L810-16L513-16ZM513 60L810 60L810 228L513 228L513 60Z"/>
    <glyph glyph-name="»" unicode="&#21691;"
      horiz-adv-x="1000" vert-adv-y="1172"
      d="M963 155L912 88C875 140 845 194 822 249C799 304 778 369 759 443L759 443L759-75L688-75L688 440C671 371 651 309 628 254C605 198 574 140 537 80L537 80L493 159C532 216 565 276 592 339C619 402 643 475 664 556L664 556L541 556L541 638L688 638L688 840L759 840L759 638L936 638L936 556L782 556C803 471 828 398 856 335C884 272 920 212 963 155L963 155ZM488 833L563 817C541 723 515 639 485 566L485 566L485-76L413-76L413 418C396 388 376 358 355 329L355 329L316 411L316 63L88 63L88 741L316 741L316 414C352 464 385 527 416 603C447 678 471 755 488 833L488 833ZM161 666L161 142L245 142L245 666L161 666Z"/>
    <glyph glyph-name="Â" unicode="&#21698;"
      horiz-adv-x="1000" vert-adv-y="1172"
      d="M353 790L946 790L946 714L750 714L750 572L909 572L909-69L837-69L837-1L451-1L451-69L379-69L379 572L530 572L530 714L353 714L353 790ZM309 748L309 53L85 53L85 748L309 748ZM599 714L599 572L680 572L680 714L599 714ZM238 130L238 670L156 670L156 130L238 130ZM451 496L451 74L837 74L837 221L771 221C740 221 717 229 702 244C687 259 680 285 680 320L680 320L680 496L599 496L599 491C599 411 593 347 581 300C568 253 543 207 506 163L506 163L452 209C476 237 494 263 505 288C516 312 523 339 526 369C529 399 531 441 531 496L531 496L451 496ZM795 291L837 291L837 496L750 496L750 347C750 326 753 311 759 303C764 295 776 291 795 291L795 291Z"/>
    <glyph glyph-name="Ó" unicode="&#21715;"
      horiz-adv-x="1000" vert-adv-y="1172"
      d="M536 634L385 611L375 684L515 705C504 746 493 790 482 837L482 837L560 845C571 792 582 749 591 716L591 716L902 762L912 690L613 645C624 617 638 587 654 554L654 554L660 543C731 578 792 616 843 659L843 659L882 606C830 559 769 518 700 483L700 483C717 462 735 447 752 437C769 426 785 421 799 421L799 421C816 421 830 424 840 431C849 438 856 449 861 466L861 466C867 484 872 505 877 530L877 530L942 500C937 481 929 457 917 427L917 427C906 398 892 378 874 366C855 354 832 348 803 348L803 348C777 348 749 356 718 373C687 389 658 415 630 451L630 451C565 424 490 399 406 378L406 378L384 448C461 465 529 487 590 512L590 512L585 521C566 557 550 595 536 634L536 634ZM76 77L76 743L327 743L327 77L76 77ZM149 665L149 156L256 156L256 665L149 665ZM882 146L949 131L943 55C941 29 937 9 932-4C927-18 919-28 910-33C900-39 886-43 868-44L868-44C845-45 828-46 816-46L816-46C805-46 787-45 763-44L763-44C734-43 714-35 703-20C691-5 685 21 685 58L685 58L685 242L575 242L574 228C569 173 560 128 547 93C534 58 513 26 484-1C455-29 414-55 361-80L361-80L315-20C362 3 398 26 422 49C446 72 463 97 474 124C484 151 492 187 499 233L499 233L500 242L373 242L373 315L932 315L932 242L756 242L756 79C756 58 758 45 763 38C768 31 776 26 788 25L788 25C795 24 806 24 819 24L819 24C833 24 843 24 850 25L850 25C860 26 867 31 872 38C876 45 879 58 880 79L880 79L882 146Z"/>
    <glyph glyph-name="Þ" unicode="&#21726;"
      horiz-adv-x="1000" vert-adv-y="1172"
      d="M530 553C472 549 430 545 404 541L404 541L385 615C399 617 410 620 417 624C424 628 431 633 437 640L437 640C458 663 485 696 518 738C550 780 577 818 600 853L600 853L670 815C642 772 593 707 522 620L522 620L782 639L703 741L759 783C804 728 865 652 940 553L940 553L881 507L835 568C690 563 588 558 530 553L530 553ZM336 737L336 19L79 19L79 737L336 737ZM258 99L258 656L155 656L155 99L258 99ZM712 198L946 198L946 123L712 123L712-71L638-71L638 123L373 123L373 198L638 198L638 333L492 333C481 304 467 277 452 251L452 251L383 286C402 319 418 353 432 388C445 423 457 463 469 510L469 510L542 488C530 445 522 419 519 408L519 408L638 408L638 521L712 521L712 408L908 408L908 333L712 333L712 198Z"/>
    <glyph glyph-name="?" unicode="&#21823;"
      horiz-adv-x="1000" vert-adv-y="1172"
      d="M717 675L642 675C623 600 595 535 558 480C521 425 473 373 412 325L412 325L363 381C419 422 464 465 497 512C530 558 556 612 575 675L575 675L506 675C479 629 441 578 391 523L391 523L338 573C380 617 414 660 440 702C465 744 487 793 506 849L506 849L578 836C570 811 558 781 543 746L543 746L921 746C921 706 918 648 912 573C905 498 899 445 893 416L893 416C886 387 879 365 872 351C864 336 852 326 837 320C821 313 798 310 767 310L767 310C754 310 734 311 706 314L706 314L692 384C715 379 739 377 764 377L764 377C784 377 798 382 807 391C816 400 823 419 828 447L828 447C834 479 839 516 844 558C848 600 850 639 851 675L851 675L780 675C767 588 745 515 714 458C683 401 637 344 576 287L576 287L527 331C584 380 627 431 656 483C684 535 704 599 717 675L717 675ZM79 65L79 742L314 742L314 65L79 65ZM150 668L150 138L245 138L245 668L150 668ZM598 258L653 291C671 263 695 222 725 169L725 169L670 136C647 179 623 219 598 258L598 258ZM740 73C742 92 743 120 743 155L743 155L805 144C805 120 804 89 801 50L801 50C799 23 795 3 788-10C781-24 771-34 756-40C741-47 719-52 690-55L690-55C671-57 652-58 633-58L633-58C614-58 595-57 576-55L576-55C552-52 534-47 521-40C508-33 498-22 493-7C487 8 484 30 484 59L484 59L484 267L552 267L552 76C552 53 555 37 560 29C565 20 576 15 593 13L593 13C609 11 625 10 641 10L641 10C656 10 672 11 688 13L688 13C709 16 722 21 729 28C736 35 739 50 740 73L740 73ZM799 235L858 262C894 187 931 105 969 15L969 15L906-8C865 92 829 173 799 235L799 235ZM376-14L312 11C337 61 367 142 402 253L402 253L461 237C431 125 403 41 376-14L376-14Z"/>
    <glyph glyph-name="u" unicode="&#21877;"
      horiz-adv-x="1000" vert-adv-y="1172"
      d="M796 129C842 75 900 28 970-12L970-12L927-75C857-32 798 16 751 71L751 71C708 21 649-28 573-75L573-75L530-14C604 32 663 80 706 131L706 131C663 195 627 279 598 382L598 382L587 382C586 277 578 193 564 129C549 64 523-4 486-75L486-75L421-42C448 8 469 55 483 100C496 144 506 193 511 247C516 301 518 372 518 460L518 460L518 709L692 709L692 840L762 840L762 709L936 709L936 636L898 516L833 530L867 636L762 636L762 454L897 454L897 380C884 328 869 282 853 241C837 200 818 163 796 129L796 129ZM499 678L451 620C434 639 412 661 385 687C358 712 335 732 318 745L318 745L367 799C386 784 408 765 435 742C461 718 482 697 499 678L499 678ZM291 727L291 79L72 79L72 727L291 727ZM221 156L221 650L143 650L143 156L221 156ZM587 454L692 454L692 636L587 636L587 454ZM488 442L441 386C424 406 402 429 378 455C353 480 331 501 314 517L314 517L361 570C379 554 400 534 425 510C449 485 470 463 488 442L488 442ZM827 382L662 382C685 308 715 244 750 190L750 190C783 242 808 306 827 382L827 382ZM388 318L455 299C425 156 394 36 363-61L363-61L297-41C332 69 362 189 388 318L388 318Z"/>
    <glyph glyph-name="" unicode="&#21889;"
      horiz-adv-x="1000" vert-adv-y="1172"
      d="M677 416L677 335L912 335L912 40C912 15 910-5 906-20C902-35 894-47 882-54C870-62 852-66 829-66L829-66C802-66 768-64 728-59L728-59L714 10C747 4 776 1 799 1L799 1C816 1 827 5 833 14C838 23 841 37 841 57L841 57L841 266L677 266L677 149C689 150 697 151 702 151L702 151L732 154L711 222L768 238C787 182 805 120 823 52L823 52L765 36L750 91C623 80 536 72 488 67L488 67L482 130L609 142L609 266L451 266L451-62L379-62L379 335L609 335L609 416L409 416L409 791L878 791L878 416L677 416ZM317 748L317 59L81 59L81 748L317 748ZM479 637L609 637L609 725L479 725L479 637ZM677 725L677 637L807 637L807 725L677 725ZM248 134L248 672L152 672L152 134L248 134ZM609 570L479 570L479 483L609 483L609 570ZM807 570L677 570L677 483L807 483L807 570Z"/>
    <glyph glyph-name="Ì" unicode="&#21964;"
      horiz-adv-x="1000" vert-adv-y="1172"
      d="M778 664L944 664L944 592L359 592L359 664L541 664C527 687 510 714 489 745C468 776 453 799 442 813L442 813L503 850C515 835 532 811 554 779C576 747 594 720 609 697L609 697L555 664L692 664C741 740 777 802 800 850L800 850L869 818C846 774 815 723 778 664L778 664ZM867 350L867 42L946 42L946-30L356-30L356 42L421 42L421 343L362 296L317 355L317 45L86 45L86 739L317 739L317 359C354 384 392 416 433 454C474 492 510 529 542 566L542 566L600 515C557 465 501 411 432 353L432 353L864 353C825 391 768 444 691 512L691 512L741 567C808 509 881 441 959 363L959 363L911 305L867 350ZM156 665L156 118L249 118L249 665L156 665ZM549 42L549 282L490 282L490 42L549 42ZM614 282L614 42L675 42L675 282L614 282ZM740 282L740 42L800 42L800 282L740 282Z"/>
    <glyph glyph-name="å" unicode="&#21989;"
      horiz-adv-x="1000" vert-adv-y="1172"
      d="M973 126L936 56C897 81 866 103 842 122L842 122L842 58L678 58L678-77L605-77L605 58L445 58L445 123L605 123L605 232L678 232L678 123L840 123C781 172 733 227 697 289L697 289L580 289C548 240 510 195 467 153C423 111 376 75 326 46L326 46L286 113L317 131L88 131L88 733L322 733L322 134C391 177 448 228 495 289L495 289L356 289L356 353L538 353C553 380 565 406 574 432L574 432L402 432L402 751L564 751C576 784 586 817 594 850L594 850L669 838C660 803 651 774 644 751L644 751L881 751L881 432L648 432C640 406 629 380 616 353L616 353L934 353L934 289L775 289C798 256 825 227 856 201C887 175 926 150 973 126L973 126ZM474 622L810 622L810 690L474 690L474 622ZM159 654L159 211L253 211L253 654L159 654ZM810 492L810 561L474 561L474 492L810 492Z"/>
    <glyph glyph-name="þ" unicode="&#22014;"
      horiz-adv-x="1000" vert-adv-y="1172"
      d="M573 622L429 622L426 489L567 489C565 356 559 211 548 54L548 54C545 15 538-11 526-24C514-38 494-45 467-45L467-45C445-45 423-44 401-42L401-42L386 30C391 29 400 28 414 26C427 24 440 23 452 23L452 23C464 23 472 27 477 35C481 42 484 58 486 83L486 83C496 203 501 314 502 416L502 416L424 416C421 331 416 262 409 207C401 152 388 103 371 59C354 14 329-32 296-79L296-79L237-43C271 6 296 50 313 90C329 129 341 175 348 227C355 279 359 352 362 446L362 446C363 463 364 522 365 622L365 622L312 622L312 696L419 696C404 753 391 799 380 833L380 833L450 849C466 795 480 744 491 696L491 696L573 696L573 622ZM616 529L558 568C606 647 644 740 673 847L673 847L739 832C728 795 718 761 708 731L708 731L956 731L956 658L680 658C662 616 641 573 616 529L616 529ZM71 88L71 739L275 739L275 88L71 88ZM136 664L136 166L212 166L212 664L136 664ZM951 244L819 244C841 139 892 56 972-5L972-5L924-74C860-21 813 47 784 128L784 128C769 93 748 59 721 28C694-4 658-38 615-74L615-74L569-9C620 33 660 73 689 110C718 147 737 192 747 244L747 244L609 244L609 315L753 315C754 327 754 351 754 387L754 387L755 461L712 461C697 426 681 392 664 360L664 360L606 393C643 456 673 532 696 621L696 621L758 609C749 573 741 547 736 530L736 530L929 530L929 461L824 461L821 335L821 315L951 315L951 244Z"/>
    <glyph glyph-name="" unicode="&#22017;"
      horiz-adv-x="1000" vert-adv-y="1172"
      d="M900 183L959 163C958 134 955 99 949 59L949 59C942 12 931-21 916-39C901-57 883-66 862-66L862-66C815-66 782-30 761 43L761 43C738 10 710-24 677-60L677-60L626-11C672 36 710 84 741 133L741 133C722 239 708 404 700 629L700 629L399 629L399 435C399 407 399 386 398 373L398 373L514 373L514 598L575 598L575 523L665 523L665 463L575 463L575 373L693 373L693 308L599 308L599 36C599 4 593-18 580-31C567-44 545-51 513-51L513-51C504-51 488-50 467-47L467-47L453 20C472 17 489 15 505 15L505 15C517 15 526 19 531 27C536 34 538 45 538 60L538 60L538 308L396 308C392 229 383 161 368 106C353 51 330-8 299-69L299-69L231-39C258 11 279 58 294 101C309 144 319 192 326 245C332 298 335 362 335 438L335 438L335 699L698 699L691 841L758 841C759 810 761 763 764 699L764 699L850 699C840 733 828 769 814 807L814 807L874 825C887 790 900 748 915 699L915 699L943 699L943 629L767 629L767 624C774 450 782 320 792 235L792 235C807 274 821 317 832 364C843 411 856 470 869 542L869 542L935 529C918 436 900 358 881 295C862 232 838 174 809 120L809 120C812 107 815 92 820 73L820 73C825 52 832 38 840 29C848 20 856 15 863 15L863 15C871 15 877 21 883 34C888 47 892 67 895 95L895 95C897 114 898 132 898 148L898 148L900 183ZM73 102L73 728L273 728L273 102L73 102ZM137 654L137 175L209 175L209 654L137 654ZM713 101L658 84C653 109 646 137 638 170C630 202 623 230 616 255L616 255L669 269C679 238 694 182 713 101L713 101ZM445 267L502 258C496 223 487 184 477 142C466 100 453 61 440 25L440 25L385 43C398 78 410 116 421 157C432 197 440 234 445 267L445 267Z"/>
    <glyph glyph-name="" unicode="&#22028;"
      horiz-adv-x="1000" vert-adv-y="1172"
      d="M372 425L372 648L525 648L525 727L347 727L347 792L928 792L928 727L746 727L746 648L901 648L901 425L372 425ZM77 74L77 748L297 748L297 74L77 74ZM593 727L593 648L677 648L677 727L593 727ZM144 670L144 153L232 153L232 670L144 670ZM525 487L525 585L437 585L437 487L525 487ZM677 487L677 585L593 585L593 487L677 487ZM746 487L834 487L834 585L746 585L746 487ZM381 359L892 359L892 298L381 298L381 359ZM941 235L941 172L682 172L682 37C682 0 675-26 660-41C645-56 620-64 584-64L584-64C552-64 522-62 493-59L493-59L480 8C515 3 542 1 559 1L559 1C578 1 591 5 599 14C606 23 610 38 610 60L610 60L610 172L343 172L343 235L941 235ZM459 156L510 111C454 47 398-8 341-54L341-54L293-4C324 19 354 45 383 74C412 103 437 130 459 156L459 156ZM742 105L794 151C869 76 922 22 951-10L951-10L898-59C880-38 855-11 824 21C793 53 773 73 766 80L766 80L742 105Z"/>
    <glyph glyph-name="" unicode="&#22046;"
      horiz-adv-x="1000" vert-adv-y="1172"
      d="M789 640L933 640L934 547C934 362 929 202 920 67L920 67C918 35 913 11 907-5C900-21 888-32 874-38C859-45 836-48 807-48L807-48C794-48 775-47 750-44L750-44L734 30C758 25 784 22 813 22L813 22C824 22 833 24 839 28C844 32 848 40 851 51C854 62 856 80 858 104L858 104C866 223 870 341 870 458L870 458C870 506 870 542 869 566L869 566L788 566L787 523C785 412 780 323 771 256C762 189 748 133 731 87C713 41 687-11 652-68L652-68L593-31C626 20 651 68 668 111C685 154 697 207 705 270C712 333 718 420 721 531L721 531C721 544 721 555 722 566L722 566L657 566L657 640L723 640L726 839L792 839C791 779 790 735 790 707L790 707L789 640ZM524 153L648 153L648 87L524 87L524-74L458-74L458 87L315 87L315 153L458 153L458 234L343 234L343 462L458 462L458 532L377 532L377 682L317 682L317 745L377 745L377 835L439 835L439 745L542 745L542 835L604 835L604 745L665 745L665 682L604 682L604 532L527 532L527 462L638 462L638 234L524 234L524 153ZM283 750L283 49L80 49L80 750L283 750ZM542 596L542 682L439 682L439 596L542 596ZM217 123L217 675L145 675L145 123L217 123ZM462 295L462 401L400 401L400 295L462 295ZM521 401L521 295L581 295L581 401L521 401Z"/>
    <glyph glyph-name="k" unicode="&#22123;"
      horiz-adv-x="1000" vert-adv-y="1172"
      d="M778 611L945 611L945 549L341 549L341 611L490 611L472 700L371 700L371 760L601 760C588 788 578 809 570 824L570 824L643 850C657 823 671 793 684 760L684 760L913 760L913 700L797 700C792 676 785 646 778 611L778 611ZM86 88L86 744L310 744L310 88L86 88ZM708 611L725 700L544 700L562 611L708 611ZM153 670L153 163L243 163L243 670L153 670ZM387 213L387 496L871 496L871 213L387 213ZM457 381L801 381L801 439L457 439L457 381ZM801 326L457 326L457 269L801 269L801 326ZM578 163L620 202C648 178 680 145 717 104L717 104L672 61C643 97 612 131 578 163L578 163ZM354-40L290-13C307 16 323 48 339 83C354 118 366 151 375 181L375 181L439 162C430 133 417 99 401 60C384 21 369-12 354-40L354-40ZM814 150L871 179C886 155 903 126 922 92C940 57 956 25 970-5L970-5L911-36C898-8 883 24 864 60C845 96 829 126 814 150L814 150ZM748 53C750 85 751 108 751 121L751 121L813 105L808 33C805 2 798-19 785-30C772-41 749-48 716-51L716-51C690-53 663-54 636-54L636-54C610-54 583-53 556-51L556-51C525-48 505-41 494-29C483-18 477 4 477 36L477 36L477 171L542 171L542 55C542 37 545 25 550 19C555 13 565 9 582 8L582 8C601 6 620 5 638 5L638 5C659 5 681 6 702 8L702 8C719 9 731 13 737 20C743 26 747 37 748 53L748 53Z"/>
    <glyph glyph-name="." unicode="&#22318;"
      horiz-adv-x="1000" vert-adv-y="1172"
      d="M261 500L261 169L400 212L406 132C299 97 180 61 48 25L48 25L32 106C99 123 149 137 182 146L182 146L182 500L53 500L53 580L182 580L182 831L261 831L261 580L393 580L393 500L261 500ZM858 236L936 219C936 180 934 135 929 84L929 84C926 47 920 21 912 4C903-13 890-25 872-32C853-39 825-44 787-46L787-46C763-47 727-48 679-48L679-48C631-48 595-47 571-46L571-46C532-44 503-39 485-31C466-23 454-9 448 10C441 29 438 58 438 99L438 99L438 466L797 466L797 698L411 698L411 777L876 777L876 386L519 386L519 120C519 94 521 75 525 64C528 53 536 45 547 41C558 36 577 33 603 32L603 32C639 31 666 30 685 30L685 30C703 30 730 31 766 32L766 32C789 33 807 36 818 41C829 45 837 52 842 63C847 74 850 91 852 114L852 114C853 129 855 149 856 173C857 196 858 217 858 236L858 236Z"/>
    <glyph glyph-name="i" unicode="&#22377;"
      horiz-adv-x="1000" vert-adv-y="1172"
      d="M244 474L244 171C300 187 342 199 370 208L370 208L379 125C266 91 159 61 56 35L56 35L40 116L84 128C112 134 139 141 164 149L164 149L164 474L53 474L53 554L164 554L164 828L244 828L244 554L356 554L356 474L244 474ZM855 828L855 664L957 664L957 583L855 583L855-72L775-72L775-13L513-13L513-72L432-72L432 583L333 583L333 664L432 664L432 828L513 828L513 664L775 664L775 828L855 828ZM513 583L513 372L775 372L775 583L513 583ZM775 292L513 292L513 66L775 66L775 292Z"/>
    <glyph glyph-name="" unicode="&#22412;"
      horiz-adv-x="1000" vert-adv-y="1172"
      d="M215 491L215 170L301 193L311 114C290 109 250 99 190 83C130 66 82 53 45 42L45 42L30 123C57 129 94 138 142 151L142 151L142 491L50 491L50 573L142 573L142 834L215 834L215 573L304 573L304 491L215 491ZM349-66L349 784L914 784L914 54C914 11 908-18 896-35C883-52 862-61 831-62L831-62C799-63 760-61 715-58L715-58L699 18C733 14 767 12 802 12L802 12C816 12 826 17 831 26C836 35 839 51 839 73L839 73L839 708L423 708L423-66L349-66ZM469 524L469 595L793 595L793 524L469 524ZM505 94L505 417L756 417L756 94L505 94ZM568 347L568 166L694 166L694 347L568 347Z"/>
    <glyph glyph-name="" unicode="&#22419;"
      horiz-adv-x="1000" vert-adv-y="1172"
      d="M710 698L952 698L952 624L650 624C631 589 609 554 585 517C560 480 538 451 519 428L519 428L694 451C727 492 758 537 785 585L785 585L852 549C795 454 731 371 661 303C591 234 509 175 416 127L416 127L376 197C479 254 563 314 628 379L628 379C578 372 525 365 469 358L469 358L409 350L388 420C401 423 411 426 419 430C426 434 433 439 439 445L439 445C455 461 474 486 497 519C519 552 540 587 560 624L560 624L358 624L358 698L629 698C610 747 592 789 575 824L575 824L654 847C677 793 695 743 710 698L710 698ZM163 823L240 823L240 571L344 571L344 494L240 494L240 187L321 220L342 138C315 129 244 101 131 55L131 55L56 25L36 108C45 111 88 127 163 156L163 156L163 494L56 494L56 571L163 571L163 823ZM857 394L917 351C865 272 809 203 749 146L749 146C822 85 885 31 937-18L937-18L881-85C813-16 751 44 694 97L694 97C617 33 521-27 406-84L406-84L358-12C475 41 570 97 644 157C718 217 789 296 857 394L857 394Z"/>
    <glyph glyph-name="Ò" unicode="&#22482;"
      horiz-adv-x="1000" vert-adv-y="1172"
      d="M241 505L241 183L271 192C319 206 346 214 353 217L353 217L361 134C340 129 294 115 222 93C150 71 94 54 54 41L54 41L31 123C45 126 89 139 163 161L163 161L163 505L48 505L48 585L163 585L163 835L241 835L241 585L332 585L332 505L241 505ZM910 826L923 750C844 737 752 726 645 716C538 705 444 698 361 695L361 695L353 774C440 777 535 784 639 794C742 803 833 814 910 826L910 826ZM802 456L732 490C750 521 769 556 789 594C808 632 824 665 836 693L836 693L905 658C862 570 828 503 802 456L802 456ZM696 510L626 477C616 504 604 536 589 571C574 606 562 634 551 654L551 654L620 688L696 510ZM518 484L447 447C436 474 423 505 407 542C390 578 377 606 366 627L366 627L433 660C446 635 456 614 463 597L463 597C491 541 509 503 518 484L518 484ZM804 380L950 380L950 306L804 306L804 55C804 16 796-12 779-29C762-46 732-54 691-55L691-55C644-56 601-55 564-50L564-50L548 25C593 19 631 16 662 16L662 16C687 16 704 21 712 30C720 39 724 56 724 83L724 83L724 306L346 306L346 380L724 380L724 431L804 431L804 380ZM613 128L555 74C520 117 477 167 425 226L425 226L479 279C544 206 589 156 613 128L613 128Z"/>
    <glyph glyph-name="ä" unicode="&#22500;"
      horiz-adv-x="1000" vert-adv-y="1172"
      d="M713 167L953 167L953 96L713 96L713-76L639-76L639 96L356 96L356 167L424 167L398 208C457 239 502 272 533 305L533 305L388 305L388 741L555 741C568 772 581 808 596 851L596 851L683 833C678 814 666 783 647 741L647 741L890 741L890 305L621 305C588 253 536 207 464 167L464 167L639 167L639 273L713 273L713 167ZM171 837L245 837L245 583L344 583L344 504L245 504L245 179L340 212L340 137C331 132 291 117 220 93C149 68 94 48 55 35L55 35L36 112C55 117 100 131 171 154L171 154L171 504L61 504L61 583L171 583L171 837ZM461 557L603 557L603 670L461 670L461 557ZM676 670L676 557L816 557L816 670L676 670ZM461 488L461 375L578 375C590 405 598 443 601 488L601 488L461 488ZM653 375L816 375L816 488L674 488C671 447 664 409 653 375L653 375Z"/>
    <glyph glyph-name="ï" unicode="&#22511;"
      horiz-adv-x="1000" vert-adv-y="1172"
      d="M903 169L973 153L971 106C970 82 969 64 969 52L969 52C968 24 963 3 956-12C948-27 936-37 919-43C902-49 878-53 847-54L847-54C815-55 791-56 776-56L776-56C760-56 736-55 704-54L704-54C665-53 637-44 621-29C604-14 596 11 596 46L596 46L596 113L403 113L403 430C374 407 353 391 339 381L339 381L298 443C347 477 390 511 425 545C460 579 489 616 513 655L513 655L371 655L371 725L550 725C565 760 579 800 590 845L590 845L669 828C660 795 648 760 634 725L634 725L914 725L914 655L769 655C822 570 889 504 970 455L970 455L929 396C900 416 878 432 865 443L865 443L865 113L670 113L670 65C670 45 674 31 683 24C691 17 706 12 729 11L729 11C740 10 758 10 781 10L781 10C804 10 821 10 832 11L832 11C859 12 877 17 887 26C897 35 902 51 902 75L902 75C902 128 902 160 903 169L903 169ZM344 510L242 510L242 171C267 179 305 190 356 205L356 205L356 127L59 35L43 113L168 150L168 510L56 510L56 587L168 587L168 839L242 839L242 587L344 587L344 510ZM688 655L600 655C566 594 518 534 456 476L456 476L596 476L596 585L670 585L670 476L828 476C773 529 726 589 688 655L688 655ZM475 412L475 326L596 326L596 412L475 412ZM791 326L791 412L670 412L670 326L791 326ZM596 264L475 264L475 177L596 177L596 264ZM791 264L670 264L670 177L791 177L791 264Z"/>
    <glyph glyph-name="" unicode="&#22558;"
      horiz-adv-x="1000" vert-adv-y="1172"
      d="M941 203L728 203C797 134 876 75 963 26L963 26L931-42C834 17 750 87 677 169L677 169L677-74L601-74L601 170C526 87 438 17 335-41L335-41L293 25C388 72 473 131 549 203L549 203L356 203L356 271L601 271L601 353L400 353L400 641L327 641L327 709L400 709L400 817L474 817L474 709L580 709L580 835L655 835L655 709L775 709L775 835L850 835L850 709L955 709L955 641L850 641L850 492L580 492L580 641L474 641L474 421L930 421L930 353L677 353L677 271L941 271L941 203ZM328 218L338 141C245 106 150 72 52 39L52 39L33 116L75 130C94 136 123 146 162 159L162 159L162 512L52 512L52 585L162 585L162 829L237 829L237 585L340 585L340 512L237 512L237 185L328 218ZM655 561L775 561L775 641L655 641L655 561Z"/>
    <glyph glyph-name="$" unicode="&#22820;"
      horiz-adv-x="1000" vert-adv-y="1172"
      d="M79 554L64 613C170 619 266 628 352 640L352 640L270 704C229 691 183 678 133 667L133 667L104 722C172 738 236 757 298 779C359 800 408 822 445 845L445 845L509 812C486 799 469 789 458 783L458 783L861 783L861 713C748 666 631 630 512 606L512 606L550 539L905 539L905 384L830 384L830 484L166 484L166 385L92 385L92 539L470 539C463 554 453 572 441 593L441 593C344 577 224 564 79 554L79 554ZM331 725L430 652C551 672 649 697 724 727L724 727L335 727L331 725ZM837 71L160 71L160 336L460 336L460 384L202 384L202 437L795 437L795 384L540 384L540 336L837 336L837 71ZM233 230L460 230L460 280L233 280L233 230ZM540 230L765 230L765 280L540 280L540 230ZM460 127L460 177L233 177L233 127L460 127ZM765 177L540 177L540 127L765 127L765 177ZM88-84L67-20C117-11 175 1 241 18C307 35 360 50 400 65L400 65L421 10C380-5 327-21 263-39C199-57 141-72 88-84L88-84ZM587 13L606 65L693 43C816 12 897-10 937-21L937-21L920-83C860-65 749-33 587 13L587 13Z"/>
    <glyph glyph-name="<" unicode="&#22844;"
      horiz-adv-x="1000" vert-adv-y="1172"
      d="M926 653L602 653C638 606 687 562 748 523C809 484 880 452 963 427L963 427L930 352C831 387 747 430 680 479C613 528 558 586 517 653L517 653L479 653C456 610 428 572 396 539C363 506 321 475 271 446C220 417 156 386 79 353L79 353L36 427C135 464 212 500 265 534C318 567 360 607 389 653L389 653L74 653L74 728L427 728C438 757 450 797 463 848L463 848L543 838C531 791 520 755 511 728L511 728L926 728L926 653ZM784 409L784-70L703-70L703 409L784 409ZM226 274L226 404L306 404L306 275C306 216 301 167 292 129C283 90 266 55 243 22C220-11 185-47 139-86L139-86L81-21C121 8 151 36 172 61C192 86 206 115 214 148C222 180 226 222 226 274L226 274ZM542 386L542-45L462-45L462 386L542 386Z"/>
    <glyph glyph-name="" unicode="&#22913;"
      horiz-adv-x="1000" vert-adv-y="1172"
      d="M614 682L907 682C904 469 895 267 881 77L881 77C878 42 872 15 862-3C851-21 835-34 813-41C791-48 759-52 718-52L718-52C694-52 658-51 610-48L610-48L594 34C641 29 680 27 713 27L713 27C736 27 754 29 766 34C778 39 787 47 792 58C797 69 800 86 802 108L802 108C814 259 821 422 822 599L822 599L583 599C560 543 534 494 507 452L507 452L436 487C499 591 545 709 575 842L575 842L653 827C643 778 630 729 614 682L614 682ZM322 180C388 121 435 76 464 44L464 44L410-19C373 22 330 64 281 109L281 109C241 50 182-14 105-81L105-81L38-27C119 41 180 105 219 164L219 164C172 207 128 242 88 271L88 271C113 358 135 456 154 563L154 563L54 563L54 643L166 643C175 706 182 770 187 835L187 835L266 831C261 764 253 701 244 643L244 643L414 643L414 567C403 476 391 400 378 341C364 282 345 228 322 180L322 180ZM175 301C196 286 224 264 259 235L259 235C279 278 295 325 307 377C318 428 328 490 336 563L336 563L232 563C213 455 194 368 175 301L175 301ZM728 250L663 203C644 234 620 271 592 312C563 353 539 386 519 411L519 411L581 455C603 428 628 395 656 356C684 317 708 281 728 250L728 250Z"/>
    <glyph glyph-name="" unicode="&#22935;"
      horiz-adv-x="1000" vert-adv-y="1172"
      d="M623 843L693 843C743 710 834 589 966 482L966 482L914 419C802 513 717 623 660 748L660 748C633 685 600 627 563 575C525 522 478 472 423 425L423 425L381 472C374 407 364 351 353 304C341 257 325 213 304 174L304 174C357 125 399 83 431 48L431 48L375-17C335 26 296 65 259 101L259 101C222 48 167-11 95-78L95-78L32-20C73 17 107 49 133 76C158 102 181 129 200 156L200 156C154 198 113 234 77 263L77 263C102 362 121 466 136 575L136 575L49 575L49 652L145 652C152 713 157 775 160 838L160 838L240 835C237 780 232 719 224 652L224 652L390 652L390 576C387 542 385 516 383 497L383 497C438 545 485 597 524 653C563 709 596 772 623 843L623 843ZM243 229C262 270 278 319 289 374C300 429 309 496 315 575L315 575L214 575C197 462 180 370 162 299L162 299L179 284C198 269 219 251 243 229L243 229ZM572 524L627 568C642 549 661 525 682 495C703 464 722 436 738 410L738 410L681 364C666 389 647 418 626 449C605 480 587 505 572 524L572 524ZM787 251L432 251L432 330L881 330L881 251C856 202 824 147 785 86C746 25 708-29 673-75L673-75L603-30C634 9 668 56 704 110C740 164 768 211 787 251L787 251Z"/>
    <glyph glyph-name="£" unicode="&#22947;"
      horiz-adv-x="1000" vert-adv-y="1172"
      d="M368 649L368 574C360 476 350 397 339 336C327 275 309 221 286 174L286 174L318 140C347 109 369 87 382 72L382 72L329 9C311 30 283 61 244 102L244 102C211 53 160-7 89-76L89-76L31-4C72 33 105 63 128 86C151 109 171 134 188 160L188 160C145 203 109 239 80 267L80 267C103 373 121 475 132 572L132 572L50 572L50 649L140 649C145 704 150 766 153 835L153 835L233 831C232 792 227 731 218 649L218 649L368 649ZM878 276L950 259C950 236 949 201 948 156C947 110 945 78 944 60L944 60C941 21 932-6 917-22C902-38 876-47 839-50L839-50C822-51 808-52 799-52L799-52C790-52 777-51 758-50L758-50C729-48 707-38 692-21C677-4 669 23 669 59L669 59L669 834L746 834L746 501C811 564 861 619 895 664L895 664L948 606C906 553 839 484 746 401L746 401L746 96C746 71 748 54 753 45C757 35 766 29 781 27L781 27C787 26 796 26 807 26L807 26C824 26 837 28 846 31C855 34 861 40 866 50C870 60 872 76 872 97L872 97L874 156C877 217 878 257 878 276L878 276ZM506 470L506 75L608 138L627 56L596 38C543 9 504-14 479-31L479-31C464-41 450-51 437-61L437-61L399 16C411 25 419 32 423 39C427 45 429 54 429 67L429 67L429 823L506 823L506 545L625 545L625 470L506 470ZM163 295C188 271 210 250 227 233L227 233C243 272 256 318 267 372C277 426 285 493 292 572L292 572L209 572C194 456 179 364 163 295L163 295Z"/>
    <glyph glyph-name="«" unicode="&#22955;"
      horiz-adv-x="1000" vert-adv-y="1172"
      d="M655 606L914 606C914 410 905 234 886 77L886 77C880 28 867-5 848-24C828-43 796-52 751-52L751-52C718-52 678-50 633-45L633-45L616 33C621 32 637 30 662 27C687 24 711 22 733 22L733 22C758 22 776 29 787 42C797 55 805 78 810 113L810 113C819 174 825 241 829 314C833 387 835 458 834 528L834 528L649 528C644 463 636 402 625 347L625 347L673 392C690 375 711 350 738 317C764 284 785 257 801 236L801 236L742 185C719 218 680 268 623 337L623 337C606 256 579 182 544 117C508 51 459-15 396-81L396-81L331-30C388 30 432 85 463 134C493 183 516 238 533 297C549 356 562 433 571 528L571 528L418 528L418 606L578 606C580 632 582 660 584 689C585 718 587 745 588 771L588 771L591 837L668 837L655 606ZM412 98L359 31C330 60 299 89 266 118L266 118C248 89 226 60 199 31C172 2 139-31 100-68L100-68L43-10C82 23 114 53 141 82C167 111 189 140 207 171L207 171C162 211 122 245 89 272L89 272C111 365 130 464 146 569L146 569L53 569L53 646L156 646C164 709 170 771 174 830L174 830L254 826C250 779 243 719 232 646L232 646L374 646L374 569C364 469 355 392 346 338C337 283 323 235 305 192L305 192C352 152 387 121 412 98L412 98ZM559 687L505 639C487 664 452 706 399 766L399 766L453 810C465 797 482 778 504 753C525 728 544 706 559 687L559 687ZM169 309C178 302 187 295 196 287C205 278 215 270 225 262L225 262L244 245C260 285 273 331 282 383C291 434 299 496 304 569L304 569L220 569C202 458 185 371 169 309L169 309Z"/>
    <glyph glyph-name="ª" unicode="&#23210;"
      horiz-adv-x="1000" vert-adv-y="1172"
      d="M265 183C314 140 346 111 361 96L361 96L304 36C279 63 253 88 228 111L228 111C194 57 146-3 83-69L83-69L27-16C62 21 92 54 115 81C138 108 157 135 173 162L173 162C127 205 90 237 63 259L63 259C82 352 99 458 113 577L113 577L36 577L36 650L121 650C128 725 132 789 134 840L134 840L209 837C205 774 199 712 191 650L191 650L342 650L342 575C336 485 327 409 315 348C303 287 286 232 265 183L265 183ZM425 428L425 796L860 796L860 428L425 428ZM498 646L790 646L790 727L498 727L498 646ZM790 579L498 579L498 497L790 497L790 579ZM138 294C167 270 191 249 210 232L210 232C228 274 242 322 253 377C263 431 271 498 276 577L276 577L183 577C168 466 153 372 138 294L138 294ZM399 339L888 339L888 31L962 31L962-40L317-40L317 31L399 31L399 339ZM541 31L541 268L468 268L468 31L541 31ZM607 268L607 31L680 31L680 268L607 268ZM745 268L745 31L820 31L820 268L745 268Z"/>
    <glyph glyph-name="¸" unicode="&#23224;"
      horiz-adv-x="1000" vert-adv-y="1172"
      d="M689 603L689 524L949 524L949 457L376 457L376 524L617 524L617 603L413 603L413 793L481 793L481 670L617 670L617 843L689 843L689 670L825 670L825 793L895 793L895 603L689 603ZM278 179C318 141 350 110 373 86L373 86L321 25C292 58 264 87 238 112L238 112C219 85 198 57 173 29C148 0 118-32 82-69L82-69L24-13C61 21 92 52 117 81C142 110 164 138 182 167L182 167C137 209 99 243 68 268L68 268C91 359 109 461 124 572L124 572L37 572L37 647L133 647C140 719 144 781 146 834L146 834L217 832C214 775 210 713 203 647L203 647L347 647L347 572C346 480 340 404 330 343C319 282 302 227 278 179L278 179ZM145 299C156 290 172 276 195 256L195 256L217 236C234 277 247 323 257 375C266 427 274 493 280 572L280 572L195 572C182 468 166 377 145 299L145 299ZM959-60L893-84C886-66 877-43 865-16L865-16C784-23 704-29 623-36C542-43 461-49 380-56L380-56L375 15C478 22 559 29 617 34L617 34L617 152L417 152L417 364L617 364L617 432L689 432L689 364L891 364L891 152L689 152L689 39L833 51C819 79 809 98 803 109L803 109L867 133C912 44 943-20 959-60L959-60ZM617 308L484 308L484 208L617 208L617 308ZM689 208L823 208L823 308L689 308L689 208Z"/>
    <glyph glyph-name="Ô" unicode="&#23252;"
      horiz-adv-x="1000" vert-adv-y="1172"
      d="M850 668L470 668L470 581L399 581L399 736L628 736C617 763 602 795 584 832L584 832L654 857C669 824 684 783 700 736L700 736L922 736L922 584L850 584L850 668ZM279 175C320 135 353 102 376 77L376 77L321 22C306 38 280 65 241 104L241 104C208 51 157-10 88-80L88-80L34-22C102 41 153 100 188 156L188 156C134 206 98 239 79 254L79 254C100 358 118 466 131 577L131 577L48 577L48 652L139 652C146 728 150 791 152 841L152 841L227 838C222 769 217 707 211 652L211 652L355 652L355 577C349 482 340 404 329 342C317 279 300 224 279 175L279 175ZM784 348L784 216L954 216L954 146L363 146L363 216L451 216L451 562C511 565 576 571 645 580C714 589 775 598 826 608L826 608L839 540C796 531 744 522 683 514C622 506 569 500 522 496L522 496L522 417L917 417L917 348L784 348ZM157 287C172 275 194 255 225 226L225 226C244 269 258 318 267 373C276 427 284 495 289 577L289 577L202 577C188 464 173 368 157 287L157 287ZM716 216L716 348L522 348L522 216L716 216ZM678 69L716 131C806 78 881 32 940-9L940-9L900-75C849-37 775 11 678 69L678 69ZM375-75L335-8C394 19 466 65 549 130L549 130L592 71C508 5 436-44 375-75L375-75Z"/>
    <glyph glyph-name="Ø" unicode="&#23256;"
      horiz-adv-x="1000" vert-adv-y="1172"
      d="M400 71L348 18L250 122C231 93 208 64 183 34C157 4 125-31 88-71L88-71L38-14C76 22 108 54 134 83C159 111 182 141 201 173L201 173C140 236 99 277 78 296L78 296C105 422 125 516 136 578L136 578L54 578L54 653L151 653C165 730 175 793 182 842L182 842L254 839C241 760 231 698 222 653L222 653L379 653L379 578C372 487 361 412 347 351C332 290 313 236 288 187L288 187C347 126 384 87 400 71L400 71ZM866 197C825 196 775 193 715 189L715 189L715 36C715-3 708-29 693-43C678-57 652-64 615-64L615-64C600-64 578-63 550-60L550-60L534 11C555 7 577 5 598 5L598 5C615 5 626 9 633 18C640 27 643 41 643 62L643 62L643 184L533 175C480 170 447 166 433 164L433 164L424 227C447 229 467 234 483 243L483 243C524 264 568 289 615 317L615 317L522 308L456 302L448 356C461 359 472 361 479 364C486 366 495 370 504 376L504 376C535 398 570 426 608 459L608 459L447 459L447 797L896 797L896 459L700 459C653 418 619 389 596 371L596 371L709 379C740 401 771 425 804 452L804 452L852 406C779 350 701 296 620 243L620 243L825 259L780 321L834 357C894 274 935 214 956 179L956 179L901 140C891 159 879 178 866 197L866 197ZM520 660L640 660L640 732L520 732L520 660ZM709 732L709 660L824 660L824 732L709 732ZM640 526L640 597L520 597L520 526L640 526ZM824 597L709 597L709 526L824 526L824 597ZM156 327C197 284 224 256 237 241L237 241C256 284 272 332 284 387C296 441 305 505 311 578L311 578L208 578L189 489C184 467 179 443 174 416C168 389 162 359 156 327L156 327ZM500 159L556 122C526 69 480 10 418-57L418-57L365-9C421 46 466 102 500 159L500 159ZM784 119L840 158C853 141 871 114 895 78L895 78C916 45 936 17 953-6L953-6L894-46L864 0C861 5 851 19 836 44C821 69 803 94 784 119L784 119Z"/>
    <glyph glyph-name="ñ" unicode="&#23281;"
      horiz-adv-x="1000" vert-adv-y="1172"
      d="M925 678L685 678L685 504L952 504L952 440L366 440L366 504L613 504L613 678L388 678L388 743L613 743L613 838L685 838L685 743L925 743L925 678ZM339 641L339 572C336 481 328 404 317 342C306 279 290 223 269 174L269 174C306 135 338 100 365 69L365 69L314 12C287 45 260 76 233 105L233 105C216 76 195 47 172 18C149-11 120-44 85-81L85-81L31-29C66 6 95 38 120 67C144 96 165 127 182 158L182 158C161 179 126 213 78 258L78 258C98 357 114 461 127 572L127 572L45 572L45 641L135 641C140 697 145 759 148 827L148 827L218 824C215 769 211 708 204 641L204 641L339 641ZM787 510L737 552C758 574 789 614 830 671L830 671L880 628C841 572 810 533 787 510L787 510ZM421 629L470 669C501 638 532 599 563 552L563 552L513 510C476 565 445 605 421 629L421 629ZM151 289L215 228C232 271 245 321 254 376C263 431 269 496 272 572L272 572L196 572C184 463 169 369 151 289L151 289ZM472-30L472-72L402-72L402 376L896 376L896-72L826-72L826-30L472-30ZM472 29L826 29L826 316L472 316L472 29ZM542 87L542 257L756 257L756 87L542 87ZM596 207L596 138L702 138L702 207L596 207Z"/>
    <glyph glyph-name="4" unicode="&#23348;"
      horiz-adv-x="1000" vert-adv-y="1172"
      d="M879 603L143 603L143 708L52 708L52 763L477 763C466 788 454 811 439 834L439 834L518 850C533 823 546 794 559 763L559 763L946 763L946 708L219 708L219 655L879 655L879 603ZM160 562L840 562L840 415L160 415L160 562ZM766 466L766 512L235 512L235 466L766 466ZM611 40L573-12C550 7 529 24 509 39L509 39C482 8 440-27 384-67L384-67L343-16C394 16 433 47 460 76L460 76C451 83 444 87 439 90L439 90C393 121 370 136 370 136L370 136C385 177 398 223 411 274L411 274L354 274L354 334L424 334C429 360 433 384 436 405L436 405L498 397C493 367 490 346 487 334L487 334L608 334L608 275C601 232 592 197 583 168C574 139 562 112 547 89L547 89C570 72 591 56 611 40L611 40ZM110 209L110 376L327 376L327 15C327-12 322-31 312-42C301-54 285-61 264-62L264-62C243-63 222-62 201-59L201-59L188 4C202 1 219-1 239-1L239-1C255-1 263 12 263 37L263 37L263 87L171 87C168 52 163 23 154-1C145-26 131-51 113-78L113-78L51-41C69-16 82 7 90 26C98 45 103 68 106 95C109 121 110 159 110 209L110 209ZM909 148L958 138C954 60 952 17 951 9L951 9C950-16 946-34 939-43C931-52 917-58 898-60L898-60C887-61 879-62 873-62L873-62C868-62 859-61 847-60L847-60C830-58 817-52 809-43C801-34 797-18 797 6L797 6L797 121L764 99C754 124 737 155 713 194L713 194L713 191C713 144 711 105 706 76C701 47 694 20 683-3C672-26 655-52 633-81L633-81L573-46C596-18 612 6 623 27C633 48 640 71 643 97C646 123 648 160 648 208L648 208L648 375L861 375L861 30C861 23 862 18 864 15C866 12 869 10 874 9L874 9C881 8 887 8 894 9L894 9C899 10 902 12 904 16C905 19 906 25 906 33L906 33C908 81 909 119 909 148L909 148ZM174 259L263 259L263 321L174 321L174 259ZM713 227L742 243C759 221 777 191 797 154L797 154L797 314L713 314L713 227ZM440 160L497 124C520 163 538 213 550 274L550 274L474 274C464 231 453 193 440 160L440 160ZM174 173L174 142L263 142L263 203L174 203L174 173Z"/>
    <glyph glyph-name="S" unicode="&#23379;"
      horiz-adv-x="1000" vert-adv-y="1172"
      d="M961 185L935 98C772 138 644 177 551 214L551 214L551 71C551 38 547 12 539-7C531-26 518-39 499-47C480-56 453-60 419-60L419-60C367-60 320-57 278-52L278-52L261 29C266 28 283 26 312 22C341 18 368 16 394 16L394 16C422 16 441 22 450 34C459 45 464 68 464 102L464 102L464 252C396 285 333 324 275 369C216 414 152 471 82 540L82 540L140 598C197 539 251 490 302 450C352 410 406 375 464 345L464 345L464 507L731 693L130 693L130 777L872 777L872 692L551 470L551 304C604 282 663 262 729 243C794 224 872 204 961 185L961 185Z"/>
    <glyph glyph-name="¥" unicode="&#23461;"
      horiz-adv-x="1000" vert-adv-y="1172"
      d="M826 669L182 669L182 595L105 595L105 742L466 742C447 775 429 803 414 826L414 826L497 852C524 804 543 767 555 742L555 742L903 742L903 596L826 596L826 669ZM942 563L942 491L395 491C377 462 359 436 340 413L340 413L832 413L832 33C832 0 825-25 812-40C799-56 778-64 750-65L750-65L718-65C673-65 636-63 605-60L605-60L589 16C594 15 609 14 635 11C661 8 685 6 707 6L707 6C724 6 737 10 744 17C751 24 754 36 754 53L754 53L754 82L296 82L296-66L217-66L217 282C174 243 126 206 75 171L75 171L40 243C148 315 235 398 302 491L302 491L61 491L61 563L348 563C366 593 382 624 395 655L395 655L470 630C461 609 450 586 437 563L437 563L942 563ZM296 342L296 278L754 278L754 342L296 342ZM754 211L296 211L296 147L754 147L754 211Z"/>
    <glyph glyph-name="Y" unicode="&#23641;"
      horiz-adv-x="1000" vert-adv-y="1172"
      d="M904 791L904 574L220 574L220 473C220 384 217 309 210 248C203 187 192 132 177 83C162 34 140-18 113-73L113-73L40-43C68 7 90 56 105 103C120 150 131 203 138 262C144 321 147 394 147 482L147 482L147 791L904 791ZM220 637L831 637L831 726L220 726L220 637ZM506 513L506 450L446 303C469 278 485 252 496 227C507 202 512 174 512 145L512 145C512 107 505 80 490 64C475 48 451 40 417 40L417 40C399 40 385 41 376 42L376 42L361 108C373 106 385 105 398 105L398 105C419 105 433 109 440 116C447 123 450 136 450 157L450 157C450 175 444 195 432 218C419 240 401 263 376 286L376 286L444 448L344 448L344-68L278-68L278 513L506 513ZM535 505L957 505L957 440L880 440L880 43C880 13 876-9 869-23C862-38 850-47 833-52C816-57 790-60 755-60L755-60C740-60 715-59 682-56L682-56L669 9C695 5 721 3 748 3L748 3C767 3 780 5 790 8C799 11 805 16 808 25C811 33 813 46 813 64L813 64L813 440L535 440L535 505ZM556 80L556 355L748 355L748 80L556 80ZM616 295L616 141L689 141L689 295L616 295Z"/>
    <glyph glyph-name="c" unicode="&#23651;"
      horiz-adv-x="1000" vert-adv-y="1172"
      d="M904 792L904 590L218 590L218 465C218 372 215 295 209 233C202 171 191 115 176 66C160 17 138-33 109-82L109-82L35-38C66 14 89 61 104 103C119 145 128 193 133 247C138 300 140 376 140 473L140 473L140 792L904 792ZM218 656L826 656L826 724L218 724L218 656ZM275 350L229 416C259 438 290 464 321 493C352 522 378 550 398 575L398 575L451 528C432 501 407 472 376 441C345 410 311 379 275 350L275 350ZM761 27C805 24 838 23 860 23L860 23C881 23 914 24 958 27L958 27L947-46C920-49 888-50 853-50L853-50C818-50 787-49 758-46L758-46C701-41 656-31 623-15C589 0 561 27 538 65L538 65C521 22 497-25 464-74L464-74L408-22C438 20 460 62 475 103C490 144 499 192 502 245L502 245L575 237C572 202 567 172 562 148L562 148C575 117 590 94 608 77C626 60 650 48 679 40L679 40L679 286L472 286L472 352L534 352L534 514L609 514L609 352L680 352L680 565L753 565L753 498L900 498L900 430L753 430L753 352L938 352L938 286L752 286L752 196L909 196L909 127L752 127L752 28C754 27 757 27 761 27L761 27ZM399 412L457 368C436 331 411 295 382 261L382 261L382-72L314-72L314 185C299 170 281 154 261 137L261 137L220 201C251 226 284 258 319 299C353 339 380 377 399 412L399 412Z"/>
    <glyph glyph-name="[" unicode="&#23899;"
      horiz-adv-x="1000" vert-adv-y="1172"
      d="M862 640L572 640C673 566 803 506 960 460L960 460L937 390C856 415 780 444 709 478L709 478L709 426L291 426L291 477C218 443 143 414 65 390L65 390L41 460C206 509 337 569 433 640L433 640L140 640L140 804L217 804L217 704L461 704L461 840L542 840L542 704L786 704L786 805L862 805L862 640ZM310 486L692 486C613 525 550 565 502 605L502 605C448 562 384 522 310 486L310 486ZM778 68L778 387L852 387L852 51C852 8 844-22 828-40C812-58 785-67 747-67L747-67C704-67 660-65 617-60L617-60L604 13C657 6 699 2 730 2L730 2C748 2 761 7 768 19C775 30 778 46 778 68L778 68ZM213-63L142-63L142 372L498 372L498 30C498-3 492-26 479-41C466-56 444-64 414-64L414-64C374-64 339-62 310-59L310-59L297 4C332-1 362-3 387-3L387-3C402-3 413 1 419 9C424 16 427 28 427 45L427 45L427 87L213 87L213-63ZM600 81L600 363L670 363L670 81L600 81ZM213 257L427 257L427 313L213 313L213 257ZM427 199L213 199L213 145L427 145L427 199Z"/>
    <glyph glyph-name="]" unicode="&#23901;"
      horiz-adv-x="1000" vert-adv-y="1172"
      d="M436 341L396 402C465 446 525 500 574 564L574 564L417 564L417 632L634 632L634 839L701 839L701 632L929 632L929 564L762 564C781 538 805 513 832 489C859 465 895 438 940 407L940 407L896 349C845 388 805 421 776 449C747 477 722 509 701 545L701 545L701 388L634 388L634 543C608 502 580 466 549 435C518 403 480 372 436 341L436 341ZM252 823L252 121L311 127L311 668L374 668L374 51L67 21L67 663L130 663L130 108L190 114L190 823L252 823ZM589 682L532 642C520 662 504 686 485 714C466 742 450 764 437 781L437 781L490 821C520 782 553 736 589 682L589 682ZM843 816L900 777C878 744 843 697 796 638L796 638L742 683C757 701 775 723 795 749C815 775 831 797 843 816L843 816ZM579 378L654 360L630 304L938 304L938 236L841 236C828 203 815 175 801 151C787 126 771 104 753 85L753 85L937 0L905-66C829-29 758 5 693 35L693 35C662 15 624-3 580-20C535-37 481-54 417-70L417-70L394 3C491 25 565 47 615 70L615 70C576 88 524 111 457 140L457 140C479 176 498 208 513 236L513 236L405 236L405 304L547 304C560 333 571 357 579 378L579 378ZM765 236L598 236C589 218 576 196 561 171L561 171L686 116C703 131 717 148 730 167C742 186 754 209 765 236L765 236Z"/>
    <glyph glyph-name="t" unicode="&#23924;"
      horiz-adv-x="1000" vert-adv-y="1172"
      d="M973 401L943 335C916 348 890 364 866 381L866 381L866 42C866 4 859-23 846-40C832-57 808-65 774-65L774-65C753-65 721-63 680-59L680-59L667 8C697 3 726 0 753 0L753 0C768 0 779 3 784 10C789 16 792 28 792 45L792 45L792 93L571 93L571-62L498-62L498 385C477 370 453 354 424 339L424 339L392 402C451 435 498 471 534 510C570 549 597 596 616 651C635 705 646 771 650 849L650 849L718 843C717 818 713 787 708 750L708 750C724 667 754 597 798 541C841 484 900 438 973 401L973 401ZM259 832L259 104L320 111L320 679L386 679L386 43L67 11L67 676L133 676L133 91L195 98L195 832L259 832ZM593 755L568 697C545 708 498 727 429 756L429 756L454 812L593 755ZM903 811L926 749C910 742 873 730 815 713L815 713L770 699L750 759C776 767 803 776 832 785C861 794 884 803 903 811L903 811ZM761 614L781 671L846 647C896 629 928 617 942 612L942 612L920 551C851 580 798 601 761 614L761 614ZM581 668L595 606C507 577 455 559 438 552L438 552L421 617C432 620 459 628 501 641C542 654 569 663 581 668L581 668ZM571 448L788 448C741 497 705 558 679 629L679 629C655 559 619 499 571 448L571 448ZM571 380L571 303L792 303L792 380L571 380ZM792 236L571 236L571 159L792 159L792 236Z"/>
    <glyph glyph-name="ï" unicode="&#24047;"
      horiz-adv-x="1000" vert-adv-y="1172"
      d="M437 474C455 494 476 520 500 553C523 585 546 617 567 650L567 650L420 650L420 723L626 723C609 764 594 799 580 828L580 828L658 850C677 809 695 766 712 723L712 723L924 723L924 650L655 650C634 617 612 582 587 547C562 511 540 482 522 460L522 460L780 490C757 519 734 547 709 576L709 576L766 617C788 593 814 562 845 524C876 486 903 450 928 417L928 417L870 372C857 390 843 409 827 430L827 430L516 397L411 386L396 449C413 455 427 463 437 474L437 474ZM66 381L22 444C75 478 124 518 169 564C214 609 247 654 269 697L269 697L64 697L64 770L356 770L356 697C336 657 310 616 278 575L278 575C327 542 367 514 398 490L398 490L354 430C319 461 279 493 234 525L234 525C187 475 131 427 66 381L66 381ZM459 269L459 357L529 357L529 234C529 183 524 141 515 106C506 71 491 38 470 9C449-21 420-54 382-89L382-89L325-43C364-10 393 19 412 45C430 70 442 100 449 133C456 166 459 211 459 269L459 269ZM901 167L962 157C962 128 961 85 959 27L959 27C958-4 952-26 941-37C930-49 909-56 878-57L878-57C872-58 863-58 851-58L851-58C824-58 804-56 791-52C778-49 768-41 763-29C757-18 754 1 754 26L754 26L754 357L822 357L822 48C822 36 823 28 826 24C828 19 833 17 841 16L841 16L856 15C872 15 883 17 889 22C894 27 897 37 898 53L898 53C900 79 901 117 901 167L901 167ZM674 356L674-53L606-53L606 356L674 356ZM389 123L395 46C284 22 168-1 49-23L49-23L34 51C85 60 136 70 187 81L187 81L187 282L53 282L53 354L388 354L388 282L260 282L260 95L389 123Z"/>
    <glyph glyph-name="" unicode="&#24079;"
      horiz-adv-x="1000" vert-adv-y="1172"
      d="M695 443L695 329L942 329C941 248 936 179 929 122L929 122C926 95 920 74 911 60C902 46 890 36 875 31C860 26 839 23 814 23L814 23C792 23 769 24 746 26L746 26L731 102C750 99 773 97 800 97L800 97C819 97 832 100 840 107C847 113 853 125 856 143L856 143C859 160 861 179 863 201C865 223 866 240 865 253L865 253L695 253L695-73L619-73L619 253L458 253L458 329L619 329L619 443L484 443L484 518L619 518L619 637L467 637L467 712L619 712L619 841L695 841L695 712L938 712L938 637L695 637L695 518L906 518L906 443L695 443ZM207 839L280 839L280 668L420 668L420 189C420 162 415 143 405 132C395 121 379 116 357 116L357 116C336 116 318 117 303 120L303 120L290 190C303 187 316 186 327 186L327 186C335 186 341 188 344 192C347 195 349 202 349 212L349 212L349 595L280 595L280-72L209-72L209 595L147 595L147 112L76 112L76 668L207 668L207 839Z"/>
    <glyph glyph-name="" unicode="&#24081;"
      horiz-adv-x="1000" vert-adv-y="1172"
      d="M475 456L431 388L356 433C352 435 348 437 343 441C338 444 332 447 327 450L327 450C270 410 185 372 72 337L72 337L41 404C134 432 206 461 255 490L255 490C190 523 142 547 111 561L111 561C125 587 142 624 162 673L162 673L54 673L54 743L189 743C204 788 215 823 222 849L222 849L298 839C289 806 279 774 268 743L268 743L479 743L479 673C468 637 455 605 441 578C427 551 410 526 389 504L389 504L408 493C445 473 467 461 475 456L475 456ZM773 526C824 491 887 462 960 439L960 439L930 365C841 396 768 434 711 477L711 477C670 449 619 422 556 396L556 396L512 463C565 484 611 506 652 530L652 530C607 577 570 636 543 705L543 705L518 705L518 776L892 776L892 702C861 631 822 573 773 526L773 526ZM811 705L618 705C643 654 674 611 713 574L713 574C754 610 786 654 811 705L811 705ZM205 592L321 537C360 572 388 618 406 673L406 673L242 673C225 633 212 606 205 592L205 592ZM459 373L538 373L538 298L835 298L835 100C835 58 827 28 811 12C794-5 766-14 727-14L727-14C694-14 660-12 626-8L626-8L613 63C641 57 669 54 697 54L697 54C718 54 734 59 743 69C752 79 757 95 757 118L757 118L757 227L538 227L538-76L459-76L459 227L242 227L242-12L165-12L165 298L459 298L459 373Z"/>
    <glyph glyph-name="" unicode="&#24084;"
      horiz-adv-x="1000" vert-adv-y="1172"
      d="M762 128C813 78 880 33 965-8L965-8L922-78C838-35 769 15 714 72L714 72C662 20 594-30 509-78L509-78L468-12C552 32 618 78 667 127L667 127C617 194 577 278 547 381L547 381L530 381C529 310 525 250 518 203C511 155 499 110 482 67C465 24 440-24 407-77L407-77L342-37C375 11 399 56 415 97C431 138 442 185 448 236C454 287 457 356 457 442L457 442L457 706L656 706L656 841L728 841L728 706L929 706L929 632L884 512L816 532L857 633L728 633L728 454L886 454L886 381C869 329 851 283 832 242C813 201 789 163 762 128L762 128ZM389 672L389 184C389 159 385 142 376 131C367 120 353 115 334 115L334 115C315 115 300 116 291 117L291 117L281 181C289 180 295 179 300 179L300 179C314 179 321 194 321 224L321 224L321 597L267 597L267-75L201-75L201 597L146 597L146 117L79 117L79 672L200 672L200 835L269 835L269 672L389 672ZM530 454L656 454L656 633L530 633L530 454ZM811 381L613 381C638 303 671 237 714 182L714 182C735 210 753 240 768 272C783 304 798 340 811 381L811 381Z"/>
    <glyph glyph-name="" unicode="&#24209;"
      horiz-adv-x="1000" vert-adv-y="1172"
      d="M599 742L939 742L939 667L217 667L217 432C217 313 209 216 192 141C175 66 145-9 104-82L104-82L31-46C72 24 100 94 117 164C133 234 141 320 141 423L141 423L141 742L513 742C499 772 484 801 468 829L468 829L550 858C566 825 582 787 599 742L599 742ZM929 357L929 282L579 282C560 201 525 132 474 75C423 18 349-35 252-82L252-82L208-9C295 34 360 77 403 121C446 164 476 218 493 282L493 282L252 282L252 357L507 357C509 372 511 394 514 425L514 425C515 435 517 458 518 494L518 494L296 494L296 567L883 567L883 494L602 494L599 425C596 396 594 374 592 357L592 357L929 357ZM855 91L856 111C858 151 859 171 859 170L859 170L934 152C934 146 931 115 926 60L926 60C925 32 920 11 913-4C905-19 894-30 879-36C864-42 844-46 818-47L818-47C783-48 759-49 745-49L745-49C731-49 708-48 676-47L676-47C641-46 616-37 601-20C585-3 577 27 577 71L577 71L577 248L651 248L651 95C651 70 654 53 661 45C667 36 679 31 697 30L697 30C709 29 726 29 748 29L748 29C771 29 789 29 802 30L802 30C822 31 836 36 843 43C850 50 854 66 855 91L855 91Z"/>
    <glyph glyph-name="Ñ" unicode="&#24273;"
      horiz-adv-x="1000" vert-adv-y="1172"
      d="M935 698L209 698L209 430C209 348 206 280 200 225C193 170 184 121 171 78C158 35 139-14 115-69L115-69L42-30C66 19 85 64 98 106C111 147 120 195 126 248C131 301 134 369 134 450L134 450L134 765L510 765L500 785C493 800 484 817 474 836L474 836L547 856C557 840 573 810 596 765L596 765L935 765L935 698ZM858 70L608 70L608 22L940 22L940-35L201-35L201 22L543 22L543 70L293 70L293 124L543 124L543 172L263 172L263 225L543 225L543 266L282 266L282 427L543 427L543 473L379 473L379 577L249 577L249 635L379 635L379 677L446 677L446 635L702 635L702 677L770 677L770 635L913 635L913 577L770 577L770 473L608 473L608 427L875 427L875 266L608 266L608 225L887 225L887 172L608 172L608 124L858 124L858 70ZM702 526L702 577L446 577L446 526L702 526ZM543 374L350 374L350 321L543 321L543 374ZM608 321L806 321L806 374L608 374L608 321Z"/>
    <glyph glyph-name="ô" unicode="&#24308;"
      horiz-adv-x="1000" vert-adv-y="1172"
      d="M559 38C611 35 673 33 744 33L744 33C823 33 896 35 964 40L964 40L947-38C882-42 817-44 752-44L752-44C687-44 621-42 556-38L556-38C487-33 426-22 373-4C320 13 274 40 234 76L234 76C201 27 158-24 105-77L105-77L45-23C98 30 142 83 179 136L179 136C134 195 98 274 69 374L69 374L135 398C159 317 187 252 220 203L220 203C239 238 256 274 269 311C282 348 293 388 303 432L303 432L78 432L78 507L277 706L76 706L76 786L382 786L382 706L180 507L377 507L377 433C356 320 321 222 273 139L273 139C308 106 348 82 395 67C441 52 496 42 559 38L559 38Z"/>
    <glyph glyph-name="@" unicode="&#24384;"
      horiz-adv-x="1000" vert-adv-y="1172"
      d="M95 599L95 653L252 653L252 713L64 713L64 770L252 770L252 840L328 840L328 770L515 770L515 713L328 713L328 653L486 653L486 599L95 599ZM659 721L659 657C659 618 653 584 640 555C627 525 606 491 577 453L577 453L525 498C551 531 569 560 579 585C588 610 593 643 593 684L593 684L593 790L850 790L850 602C850 585 853 574 859 568C864 561 875 558 890 558L890 558L946 558L932 490L862 490C834 490 814 496 802 508C789 520 783 541 783 572L783 572L783 721L659 721ZM446 422L446 499L127 499L127 422L59 422L59 552L513 552L513 422L446 422ZM151 452L423 452L423 398L151 398L151 452ZM775 126C824 79 886 40 963 9L963 9L927-64C846-27 780 19 727 74L727 74C676 23 609-25 525-71L525-71L484 0C567 43 632 86 679 131L679 131C636 189 600 264 571 355L571 355L529 355L529 425L891 425L891 355C864 264 825 188 775 126L775 126ZM815 355L641 355C662 288 691 230 727 182L727 182C764 230 794 288 815 355L815 355ZM460 194L176 194L172 143L471 143C468 112 463 75 456 31L456 31C449-5 438-30 423-43C408-57 384-64 353-65L353-65C314-66 267-63 212-58L212-58L201 0C255-6 297-9 326-9L326-9C342-9 354-6 363 1C371 7 377 18 382 35L382 35C383 38 384 44 387 55C390 66 392 77 393 89L393 89L96 89L108 248L388 248L388 299L106 299L106 353L460 353L460 194Z"/>
    <glyph glyph-name="¼" unicode="&#24508;"
      horiz-adv-x="1000" vert-adv-y="1172"
      d="M954-8L901-69C844-6 798 57 765 120L765 120C731 58 688-6 635-72L635-72L587-13C650 62 698 131 731 194L731 194C704 260 684 338 669 427L669 427L645 374L595 417C620 469 643 534 664 613C684 691 699 768 709 843L709 843L777 831C769 780 759 728 747 676L747 676L943 676L943 599L893 599C886 518 876 445 861 380C846 315 827 253 802 196L802 196C837 125 887 57 954-8L954-8ZM412 220L601 220C600 168 597 116 592 64L592 64C589 35 585 13 579-2C573-17 563-28 550-35C537-42 518-46 494-46L494-46C461-46 432-44 409-41L409-41L396 20C425 15 451 13 472 13L472 13C493 13 506 17 513 26C520 35 524 51 527 75L527 75C531 111 533 138 534 157L534 157L405 157C398 111 386 71 370 38C354 4 329-34 296-76L296-76L242-31C268 2 288 32 302 58C315 84 325 111 332 141C338 170 343 207 346 253L346 253C347 274 348 287 348 292L348 292L268 292L268 357L433 357C429 376 423 402 414 435L414 435L311 435L311 746L403 746C417 786 427 818 432 841L432 841L502 830C498 814 489 786 474 746L474 746L597 746L597 435L482 435L491 398C493 391 496 378 501 357L501 357L636 357L636 292L417 292C417 287 416 273 415 252L415 252L412 220ZM216 830L279 789C254 747 223 702 185 654C147 605 107 561 65 522L65 522L37 595C67 623 99 659 132 704C165 748 193 790 216 830L216 830ZM371 619L534 619L534 686L371 686L371 619ZM710 542C723 435 743 347 768 278L768 278C784 321 797 369 806 420C815 471 823 531 829 599L829 599L727 599C724 586 718 567 710 542L710 542ZM219 596L283 567C263 522 239 477 212 431L212 431L212-74L140-74L140 321C115 287 88 253 58 220L58 220L31 299C64 334 98 379 133 434C167 489 196 543 219 596L219 596ZM534 494L534 560L371 560L371 494L534 494Z"/>
    <glyph glyph-name="" unicode="&#24580;"
      horiz-adv-x="1000" vert-adv-y="1172"
      d="M178 840L255 840L255 646C294 617 337 583 386 543L386 543L355 478C323 507 290 535 255 562L255 562L255-69L178-69L178 840ZM944 705L469 705L469 34L952 34L952-41L394-41L394 783L944 783L944 705ZM96 304L25 316C34 362 44 420 54 490C63 559 71 623 76 680L76 680L146 673C141 616 133 550 124 477C114 404 105 346 96 304L96 304ZM560 87L503 137C562 204 620 282 677 370L677 370C616 465 564 541 523 600L523 600L580 642C621 583 668 516 719 439L719 439C760 508 797 580 830 657L830 657L897 626C860 540 816 455 765 371L765 371C842 255 895 176 922 133L922 133L857 90L844 111L722 302C671 224 617 152 560 87L560 87Z"/>
    <glyph glyph-name="" unicode="&#24589;"
      horiz-adv-x="1000" vert-adv-y="1172"
      d="M946 692L946 613L641 613L641 456L899 456L899 378L641 378L641 222L922 222L922 142L641 142L641-78L560-78L560 613L510 613C475 530 437 458 396 397L396 397L341 457C414 569 466 697 499 842L499 842L580 831C570 788 557 742 540 692L540 692L946 692ZM382 578L329 523C316 541 295 567 267 602L267 602L267-71L188-71L188 839L267 839L267 705C302 670 341 627 382 578L382 578ZM102 300L27 314C37 359 47 417 57 487C66 556 74 620 79 678L79 678L154 669C149 615 141 550 130 475C119 399 110 341 102 300L102 300Z"/>
    <glyph glyph-name="" unicode="&#24601;"
      horiz-adv-x="1000" vert-adv-y="1172"
      d="M263 839L263 660C314 612 359 566 400 521L400 521L345 465C320 500 292 535 263 571L263 571L263-71L186-71L186 839L263 839ZM699 654L945 654L945 578L699 578L699 377L892 377L892-76L813-76L813-13L509-13L509-76L429-76L429 377L618 377L618 578L386 578L386 654L618 654L618 836L699 836L699 654ZM103 300L31 314C42 365 53 425 64 494C74 562 81 622 85 673L85 673L158 666C154 620 146 559 135 482C124 405 113 345 103 300L103 300ZM509 303L509 59L813 59L813 303L509 303Z"/>
    <glyph glyph-name="" unicode="&#24603;"
      horiz-adv-x="1000" vert-adv-y="1172"
      d="M394 541L346 481C321 511 292 543 258 577L258 577L258-68L182-68L182 841L258 841L258 660C303 627 348 587 394 541L394 541ZM416 197L416 774L890 774L890 197L416 197ZM493 523L814 523L814 695L493 695L493 523ZM96 307L21 319C33 369 44 428 54 497C63 566 70 627 73 682L73 682L146 675C143 622 137 561 128 491C119 421 108 360 96 307L96 307ZM814 446L493 446L493 276L814 276L814 446ZM957-28L343-28L343 50L957 50L957-28Z"/>
    <glyph glyph-name="Z" unicode="&#24666;"
      horiz-adv-x="1000" vert-adv-y="1172"
      d="M539 687L539 603L924 603L924 535L72 535L72 603L459 603L459 687L139 687L139 752L459 752L459 841L539 841L539 752L859 752L859 687L539 687ZM539 378L539 301L929 301L929 232L68 232L68 301L459 301L459 378L139 378L139 444L459 444L459 502L539 502L539 444L859 444L859 378L539 378ZM611 119L569 58L436 158L474 213C464 220 501 194 586 137L586 137L611 119ZM748 172L808 211C828 186 853 152 882 111C911 70 937 32 959-1L959-1L894-41C874-9 850 28 822 69C793 110 769 145 748 172L748 172ZM106-48L40-8C62 20 84 52 106 89C127 126 146 162 161 198L161 198L230 168C213 131 194 94 172 55C150 16 128-18 106-48L106-48ZM656 62L661 155L736 135C733 90 731 56 728 31L728 31C725-4 715-29 698-44C681-59 653-68 613-71L613-71C572-74 535-76 503-76L503-76C470-76 433-74 392-71L392-71C355-68 328-57 312-39C296-22 288 8 288 49L288 49L288 195L361 195L361 69C361 44 365 26 372 17C379 7 393 1 414-1L414-1C447-4 477-6 504-6L504-6C531-6 561-4 594-1L594-1C618 1 634 6 642 14C650 22 655 38 656 62L656 62Z"/>
    <glyph glyph-name="" unicode="&#24722;"
      horiz-adv-x="1000" vert-adv-y="1172"
      d="M365 541L315 493C287 532 265 560 250 579L250 579L250-74L176-74L176 837L250 837L250 673C268 654 289 631 312 605C335 578 352 557 365 541L365 541ZM384 557L384 793L864 793L864 557L384 557ZM460 724L460 627L787 627L787 724L460 724ZM99 301L29 313C38 358 48 416 58 485C67 554 74 615 79 666L79 666L147 658C142 607 135 546 126 475C117 404 108 346 99 301L99 301ZM868 158L944 143C943 110 941 79 939 52L939 52C937 25 933 5 926-8C919-21 907-31 890-37C873-43 848-47 814-49L814-49C768-52 713-54 648-54L648-54C584-54 529-52 482-49L482-49C449-47 423-42 406-34C388-26 375-13 368 5C361 23 357 49 357 84L357 84L357 475L887 475L887 199L433 199L433 100C433 79 435 64 439 54C442 44 449 37 459 33C468 29 483 26 504 25L504 25C557 22 606 20 649 20L649 20C692 20 740 22 793 25L793 25C822 27 841 32 851 40C860 48 865 64 866 87L866 87L868 158ZM433 269L588 269L588 405L433 405L433 269ZM663 405L663 269L811 269L811 405L663 405Z"/>
    <glyph glyph-name="«" unicode="&#24747;"
      horiz-adv-x="1000" vert-adv-y="1172"
      d="M153 572L153 635L459 635L459 697L88 697L88 762L459 762L459 844L541 844L541 762L914 762L914 697L541 697L541 635L851 635L851 572L153 572ZM96 510L903 510L903 366L822 366L822 447L176 447L176 363L96 363L96 510ZM374 323L374 313C374 287 366 265 349 248C332 230 303 214 262 201C220 187 161 174 85 162L85 162L61 232C132 242 183 252 216 262C249 272 270 284 280 297C289 310 294 328 294 352L294 352L294 386L684 386L684 314C684 295 686 283 691 276C696 269 704 264 717 263L717 263C737 262 752 261 761 261L761 261C772 261 786 262 805 263L805 263C820 264 830 268 835 274C840 280 844 291 845 308L845 308C845 311 845 317 847 324C848 331 848 337 848 344L848 344L920 324L916 280C914 252 906 232 893 220C880 208 857 201 826 199L826 199C795 198 772 197 756 197L756 197C741 197 717 198 685 199L685 199C656 201 635 209 622 223C609 237 602 259 602 289L602 289L602 323L374 323ZM598 126L543 77C522 104 480 153 418 224L418 224L468 267C487 247 511 223 538 194C565 165 585 142 598 126L598 126ZM658 56L660 100C661 115 662 125 662 130L662 130L735 110C733 66 731 38 730 27L730 27C727-5 718-27 702-39C685-51 658-59 619-62L619-62C577-65 539-67 506-67L506-67C472-67 434-65 392-62L392-62C366-60 346-56 332-49C317-43 307-32 301-17C294-2 291 19 291 46L291 46L291 188L370 188L370 63C370 42 374 27 381 20C388 12 402 7 422 5L422 5C449 2 478 1 511 1L511 1C544 1 574 2 600 5L600 5C623 8 639 12 646 19C653 26 657 38 658 56L658 56ZM754 126L808 171C862 112 908 59 945 12L945 12L884-35C849 14 805 68 754 126L754 126ZM123-42L59 1C101 50 137 102 166 159L166 159L228 127C198 67 163 11 123-42L123-42Z"/>
    <glyph glyph-name="­" unicode="&#24749;"
      horiz-adv-x="1000" vert-adv-y="1172"
      d="M357 580L310 526C294 549 274 576 249 606L249 606L249-71L177-71L177 840L249 840L249 697C279 667 315 628 357 580L357 580ZM509 337L509 832L573 832L573 337L509 337ZM627 367L592 430C648 457 696 490 735 527L735 527C716 552 700 580 685 610C670 640 656 675 641 715L641 715L613 715L613 789L921 789L921 715C896 638 865 574 827 525L827 525C862 492 906 461 961 432L961 432L927 364C869 397 820 434 780 474L780 474C743 437 692 402 627 367L627 367ZM378 368L378 787L441 787L441 368L378 368ZM852 715L708 715C729 662 753 616 780 578L780 578C809 615 833 661 852 715L852 715ZM101 299L33 315C43 360 53 418 62 488C71 557 78 621 82 678L82 678L148 672C145 615 139 550 130 478C121 406 111 346 101 299L101 299ZM904 241L904 172L679 172L679 28L955 28L955-44L329-44L329 28L605 28L605 172L381 172L381 241L605 241L605 321L679 321L679 241L904 241Z"/>
    <glyph glyph-name="" unicode="&#24846;"
      horiz-adv-x="1000" vert-adv-y="1172"
      d="M957-6L936-75C824-50 729-16 650 25L650 25C560-18 456-52 339-76L339-76L315-9C412 9 501 34 580 66L580 66C535 96 492 132 451 175L451 175C416 140 378 108 337 78L337 78L299 129C379 189 444 255 493 326L493 326L411 326L411 607L381 568L331 619C388 688 432 765 463 849L463 849L535 827C527 806 516 782 503 755L503 755L937 755L937 687L465 687C450 662 434 638 417 615L417 615L879 615L879 326L573 326C564 311 548 289 527 261L527 261L881 261L881 200C844 149 791 104 723 63L723 63C795 32 873 9 957-6L957-6ZM371 538L331 479C300 516 273 549 248 576L248 576L248-74L176-74L176 838L248 838L248 665C278 636 319 593 371 538L371 538ZM100 301L32 313C42 358 52 416 62 485C71 554 79 618 84 676L84 676L150 669C145 614 137 549 127 473C116 396 107 339 100 301L100 301ZM484 499L808 499L808 555L484 555L484 499ZM808 386L808 441L484 441L484 386L808 386ZM792 199L516 199C555 160 600 127 651 99L651 99C710 129 757 162 792 199L792 199Z"/>
    <glyph glyph-name="·" unicode="&#25015;"
      horiz-adv-x="1000" vert-adv-y="1172"
      d="M337 600L297 544C282 560 260 580 233 604L233 604L233-74L161-74L161 840L233 840L233 680C276 649 311 622 337 600L337 600ZM312 437L281 494C334 539 379 595 416 660L416 660L331 660L331 730L443 730L443 836L509 836L509 730L606 730L606 660L509 660L509 654C544 627 577 600 608 571L608 571L571 523C548 547 527 567 509 584L509 584L509 429L443 429L443 600C410 541 367 487 312 437L312 437ZM609 432L573 485C634 534 683 592 719 660L719 660L643 660L643 730L742 730L742 836L809 836L809 730L923 730L923 660L809 660L809 633C852 602 903 561 963 510L963 510L928 457C898 487 858 522 809 563L809 563L809 429L742 429L742 597C709 536 664 481 609 432L609 432ZM90 309L22 318C31 367 39 426 48 496C57 566 63 628 67 681L67 681L134 674C129 621 122 557 114 482C105 407 97 350 90 309L90 309ZM660 27C705 24 756 23 811 23L811 23C867 23 916 24 959 27L959 27L945-46C896-49 851-51 809-51L809-51C768-51 721-49 669-46L669-46C608-42 557-29 518-8C479 13 446 45 421 87L421 87C402 30 374-25 337-77L337-77L278-37C316 15 343 64 358 109C373 154 384 212 390 283L390 283L456 278C453 245 449 214 444 183L444 183C459 144 477 112 500 90C522 67 550 50 585 39L585 39L585 328L317 328L317 396L915 396L915 327L872 241L806 258L842 328L657 328L657 209L889 209L889 140L657 140L657 27L660 27Z"/>
    <glyph glyph-name="" unicode="&#25111;"
      horiz-adv-x="1000" vert-adv-y="1172"
      d="M443 99C444 122 445 144 445 165L445 165L515 149L509 64C506 37 501 16 494 2C487-13 475-23 460-29C444-36 421-40 392-43L392-43C368-45 345-46 322-46L322-46C295-46 269-45 243-43L243-43C202-40 173-29 156-12C138 5 129 37 129 82L129 82L129 499C109 480 94 467 83 458L83 458L30 518C81 562 131 615 179 677C227 739 264 799 291 856L291 856L365 823C359 809 352 795 344 781L344 781C406 730 466 676 523 620L523 620L473 559C423 608 367 660 306 715L306 715C259 640 206 574 147 516L147 516L464 516C465 486 464 450 463 407C462 364 460 326 457 295L457 295C454 264 450 241 443 226C436 210 423 199 406 192C389 185 363 181 329 181L329 181C314 181 292 182 263 185L263 185L247 257C274 253 301 251 327 251L327 251C348 251 362 255 370 262C377 269 382 284 384 307L384 307C386 328 388 352 389 378C390 403 391 425 391 443L391 443L205 443L205 105C205 78 209 59 218 50C226 41 242 35 267 32L267 32C287 30 307 29 328 29L328 29C346 29 364 30 382 32L382 32C399 34 411 37 419 41C426 44 432 50 436 59C439 67 442 80 443 99L443 99ZM885 195L955 171C954 156 952 134 947 103C942 72 936 48 931 30L931 30C921-5 908-30 893-43C877-56 857-63 832-63L832-63C784-63 743-28 710 41L710 41C701 59 691 85 681 119L681 119C645 85 609 56 574 31L574 31L535 103C578 132 619 165 659 204L659 204C642 285 627 381 616 490L616 490L523 476L513 551L610 565L593 841L670 841C673 753 678 665 684 576L684 576L929 611L937 537L689 500C696 415 707 338 720 270L720 270C773 330 820 398 862 473L862 473L923 429C870 338 809 255 741 180L741 180C752 141 764 105 778 74L778 74C787 56 796 44 803 37C810 30 819 26 830 26L830 26C841 26 850 29 855 36C860 42 864 55 869 76L869 76C872 90 876 108 879 132C882 155 884 176 885 195L885 195ZM892 683L841 630C824 649 802 674 775 703C747 732 724 755 707 772L707 772L758 820C779 803 802 781 828 754C854 727 875 704 892 683L892 683Z"/>
    <glyph glyph-name="=" unicode="&#25149;"
      horiz-adv-x="1000" vert-adv-y="1172"
      d="M885 491L225 491L225 465C225 372 221 296 214 237C207 177 194 123 178 76C161 29 136-23 103-78L103-78L32-35C64 19 88 67 104 108C119 149 130 196 137 250C143 303 146 375 146 464L146 464L146 747L482 747C467 780 454 806 443 826L443 826L515 853C530 822 547 786 564 747L564 747L885 747L885 491ZM225 565L807 565L807 672L225 672L225 565ZM605 360L568 301C543 318 508 338 465 363C421 387 385 406 358 419L358 419L393 476C420 463 456 444 500 420C544 396 579 376 605 360L605 360ZM760 171L951 185L953 112L760 98L760-75L682-75L682 92L227 59L225 133L682 166L682 463L760 463L760 171ZM291 284L324 343C353 329 391 310 436 285C481 260 517 240 545 223L545 223L509 162C480 180 443 201 399 226C354 251 318 270 291 284L291 284Z"/>
    <glyph glyph-name="L" unicode="&#25164;"
      horiz-adv-x="1000" vert-adv-y="1172"
      d="M532 445L549 367C530 361 503 354 470 345C437 336 412 329 396 324L396 324L363 315L363 54C363 23 360-1 354-18C347-35 335-47 318-54C301-62 275-66 241-66L241-66C212-66 177-64 136-59L136-59L120 23C165 16 199 13 221 13L221 13C246 13 262 19 270 30C277 41 281 59 281 86L281 86L281 293C198 271 129 254 75 242L75 242L64 324C121 336 193 353 281 376L281 376L281 583L97 583L97 661L281 661L281 841L363 841L363 661L540 661L540 583L363 583L363 397L391 405C460 424 507 437 532 445L532 445Z"/>
    <glyph glyph-name="L" unicode="&#25420;"
      horiz-adv-x="1000" vert-adv-y="1172"
      d="M284 447L295 373C252 355 227 344 219 340L219 340L219 39C219 0 212-26 198-41C183-56 157-63 120-63L120-63C107-63 89-62 65-59L65-59L51 11C74 7 91 5 102 5L102 5C121 5 134 9 140 16C146 23 149 37 149 59L149 59L149 310C142 307 118 296 78 279L78 279C73 276 68 274 64 273C59 271 55 269 51 267L51 267L33 341C56 350 94 367 149 390L149 390L149 582L51 582L51 654L149 654L149 838L219 838L219 654L290 654L290 582L219 582L219 419L284 447ZM840 81L840 822L907 822L907 62C907 19 899-12 883-31C866-51 838-61 799-62L799-62C760-63 726-62 695-57L695-57L681 17C722 11 755 8 780 9L780 9C801 10 817 15 826 27C835 38 840 56 840 81L840 81ZM466 354L635 354C636 316 635 269 633 213C631 157 628 114 624 85L624 85C619 52 613 26 605 8C597-10 585-23 570-31C554-39 532-43 504-43L504-43C492-43 473-42 448-39L448-39L435 32C438 31 446 30 459 28C471 26 482 25 493 25L493 25C509 25 521 27 528 30C535 33 541 40 545 51C549 62 553 79 556 104L556 104C565 169 568 229 566 283L566 283L464 283C461 232 453 186 441 148C428 109 412 73 392 40C371 7 344-30 310-71L310-71L255-26C286 9 311 40 330 69C349 98 363 129 374 163C385 196 392 236 396 283L396 283L302 283L302 354L399 354L402 476L340 476L340 784L617 784L617 476L469 476L466 354ZM691 172L691 737L756 737L756 172L691 172ZM550 543L550 716L407 716L407 543L550 543Z"/>
    <glyph glyph-name="i" unicode="&#25449;"
      horiz-adv-x="1000" vert-adv-y="1172"
      d="M947 256L709 256C740 135 824 49 960-4L960-4L924-77C803-23 719 58 673 167L673 167C634 69 553-13 430-79L430-79L388-11C459 22 514 60 552 104C590 147 614 198 625 256L625 256L450 256C442 190 428 133 408 84C387 35 355-18 312-76L312-76L247-30C288 23 318 70 337 111C356 152 368 199 375 251C381 302 384 375 384 470L384 470L384 750L620 750C601 795 588 823 582 834L582 834L657 855C664 842 671 826 680 807C689 788 697 769 704 750L704 750L903 750L903 491L459 491L459 476C459 423 458 374 456 331L456 331L631 331L631 332L631 461L704 461L704 337L704 331L835 331C823 350 810 370 796 390C781 410 769 426 759 439L759 439L814 477C826 460 840 441 855 420C870 399 883 379 894 362L894 362L848 331L947 331L947 256ZM340 459L347 380C302 364 281 356 282 356L282 356L244 342L244 56C244 28 241 6 234-8C227-23 216-34 201-41C185-48 162-51 132-51L132-51C117-51 96-50 68-47L68-47L52 29C74 25 97 23 120 23L120 23C139 23 152 27 159 35C166 43 169 59 169 82L169 82L169 316C120 299 81 286 52 278L52 278L34 357L169 400L169 592L58 592L58 667L169 667L169 842L244 842L244 667L353 667L353 592L244 592L244 425L340 459ZM459 565L830 565L830 677L459 677L459 565Z"/>
    <glyph glyph-name="º" unicode="&#25786;"
      horiz-adv-x="1000" vert-adv-y="1172"
      d="M848 687L418 687L418 603L345 603L345 750L608 750C593 781 578 808 564 831L564 831L637 850L688 750L929 750L929 602L848 602L848 687ZM162 836L236 836L236 652L320 652L320 577L236 577L236 416L317 447L317 365C286 354 259 344 236 335L236 335L236 46C236 6 229-22 215-37C201-52 175-60 138-60L138-60C119-60 96-58 69-53L69-53L54 23C83 16 106 13 121 13L121 13C136 13 147 18 153 29C159 40 162 56 162 77L162 77L162 306L48 261L40 343C57 349 83 358 117 371L117 371L162 388L162 577L57 577L57 652L162 652L162 836ZM677 591L698 649C769 624 853 593 948 555L948 555L926 497C876 518 800 546 698 583L698 583L677 591ZM573 647L598 588C565 574 524 559 475 542C426 525 384 511 348 501L348 501L329 563C413 586 494 614 573 647L573 647ZM889 497L889 303L669 303L669 243L913 243L913 39L669 39L669-77L598-77L598 39L356 39L356 243L598 243L598 303L380 303L380 497L598 497L598 568L669 568L669 497L889 497ZM598 439L450 439L450 360L598 360L598 439ZM669 360L818 360L818 439L669 439L669 360ZM598 185L428 185L428 100L598 100L598 185ZM669 100L836 100L836 185L669 185L669 100Z"/>
    <glyph glyph-name="Ä" unicode="&#26052;"
      horiz-adv-x="1000" vert-adv-y="1172"
      d="M412 610L215 610L213 478L387 478C387 387 386 311 384 251C382 191 378 129 373 64L373 64C370 25 361-4 347-22C333-40 309-49 276-49L276-49C247-49 223-47 202-44L202-44L185 31C208 26 230 23 250 23L250 23C268 23 281 27 288 36C295 44 299 60 302 83L302 83C311 163 315 253 315 353L315 353L314 408L212 408C210 329 205 262 198 209C191 156 180 107 165 63C150 18 128-29 101-80L101-80L31-46C59 5 80 52 95 93C109 134 119 180 126 233C132 286 136 355 138 442L138 442L140 610L57 610L57 684L221 684C208 735 193 784 176 830L176 830L252 849C266 810 283 755 303 684L303 684L412 684L412 610ZM950 665L549 665C530 628 508 592 483 557L483 557L419 598C446 634 470 672 489 713C508 753 526 798 541 848L541 848L611 823C598 785 589 757 582 740L582 740L950 740L950 665ZM868 76C869 87 870 99 871 112C872 125 872 136 871 145L871 145L945 130C945 118 944 102 942 83L942 83C941 67 940 56 940 50L940 50C939 21 934-1 927-16C919-32 907-43 891-50C874-57 851-61 822-63L822-63C799-64 782-65 771-65L771-65C759-65 742-64 719-63L719-63C684-61 657-50 640-31C623-12 614 19 614 63L614 63L614 157L413 138L406 208L614 227L614 322L445 306L440 371L614 388L614 490C548 479 494 470 453 465L453 465L442 532C507 540 580 552 661 567C742 582 812 597 872 612L872 612L889 545C844 534 778 521 689 504L689 504L689 395L908 417L915 351L689 329L689 234L954 259L960 191L689 165L689 78C689 55 692 38 699 29C706 19 718 14 736 13L736 13C745 12 758 12 775 12L775 12C792 12 805 12 814 13L814 13C833 14 847 19 854 28C861 36 865 52 868 76L868 76Z"/>
    <glyph glyph-name="Ò" unicode="&#26066;"
      horiz-adv-x="1000" vert-adv-y="1172"
      d="M943 679L504 679C489 657 469 630 442 599L442 599L389 652C416 683 440 714 460 746C479 778 499 817 518 862L518 862L587 838C574 809 560 779 545 749L545 749L943 749L943 679ZM376 613L199 613L199 573L199 482L362 482C362 427 361 352 358 259C355 165 351 97 347 55L347 55C344 18 336-8 323-23C310-38 287-45 256-45L256-45C231-45 209-43 192-40L192-40L178 32C201 27 221 25 237 25L237 25C252 25 263 29 269 37C274 44 278 59 279 82L279 82C287 206 291 314 291 407L291 407L198 407C195 305 186 220 172 152C157 84 130 11 93-67L93-67L27-35C53 17 73 65 86 110C99 155 109 202 115 252C121 302 125 367 128 446L128 446C129 477 130 532 130 613L130 613L51 613L51 688L192 688C171 760 158 805 151 824L151 824L224 840L251 754L271 688L376 688L376 613ZM458 393C481 411 516 448 565 505L565 505L415 505L415 573L635 573L593 640L657 673C666 656 683 628 707 591L707 591L718 573L927 573L927 505L651 505C602 448 562 406 531 379L531 379L793 396C767 425 749 443 739 452L739 452L791 495C812 474 843 442 883 397L883 397C923 353 941 333 938 336L938 336L888 289L847 335L757 331C632 326 545 322 498 318L498 318L428 311L414 375C430 378 445 384 458 393L458 393ZM893 167L957 153C957 98 956 56 954 27L954 27C952-4 945-26 933-37C921-49 900-55 869-55L869-55L832-55C802-55 781-49 770-37C758-26 752-4 752 27L752 27L752 284L820 284L820 46C820 34 822 26 827 21C832 16 840 14 852 14L852 14L861 14C871 14 878 17 882 22C885 27 888 37 889 51L889 51C890 67 891 86 892 108C893 130 893 150 893 167L893 167ZM472 283L541 283C542 212 539 156 533 117C527 77 517 43 502 15C487-14 463-46 431-83L431-83L376-33C403-4 424 21 437 43C450 65 459 91 464 122C469 152 472 193 472 246L472 246L472 283ZM686 283L686-50L617-50L617 283L686 283Z"/>
    <glyph glyph-name="ð" unicode="&#26096;"
      horiz-adv-x="1000" vert-adv-y="1172"
      d="M735 689L735 423L958 423L958 342L735 342L735-67L651-67L651 342L433 342L433 423L651 423L651 689L470 689L470 767L924 767L924 689L735 689ZM378 762L378 5L90 5L90 762L378 762ZM167 411L299 411L299 683L167 683L167 411ZM299 331L167 331L167 86L299 86L299 331Z"/>
    <glyph glyph-name="a" unicode="&#26209;"
      horiz-adv-x="1000" vert-adv-y="1172"
      d="M953 715L953 647L693 647L693 547L904 547L904 40C904 1 897-25 884-40C871-55 847-62 814-62L814-62C800-62 779-61 751-58L751-58L737 17C760 12 781 10 798 10L798 10C810 10 819 14 824 23C829 32 831 47 831 68L831 68L831 130L693 130L693-49L622-49L622 130L484 130L484-64L412-64L412 547L622 547L622 647L392 647L392 715L622 715L622 841L693 841L693 715L829 715C798 748 768 778 739 804L739 804L790 853C828 819 864 783 898 745L898 745L867 715L953 715ZM336 759L336 35L88 35L88 759L336 759ZM159 446L267 446L267 682L159 682L159 446ZM484 373L622 373L622 475L484 475L484 373ZM693 373L831 373L831 475L693 475L693 373ZM267 371L159 371L159 112L267 112L267 371ZM622 302L484 302L484 202L622 202L622 302ZM831 302L693 302L693 202L831 202L831 302Z"/>
    <glyph glyph-name="÷" unicode="&#26359;"
      horiz-adv-x="1000" vert-adv-y="1172"
      d="M301 382L892 382C890 274 883 167 871 60L871 60C867 25 860-2 851-20C842-39 827-52 807-59C786-67 757-71 719-71L719-71C686-71 658-69 635-66L635-66L622 2C652-3 684-5 719-5L719-5C744-5 762 2 773 15C784 28 792 50 795 81L795 81C805 168 811 246 814 314L814 314L560 314C550 297 540 281 530 267L530 267C566 249 605 229 646 207C687 185 720 167 743 153L743 153L705 88C651 122 578 164 485 215L485 215C458 188 429 165 397 144C364 123 331 106 298 93L298 93L269 155C312 170 351 192 388 219C425 246 455 278 480 314L480 314L240 314L189 268L236 268L236 75L670 75L670 11L162 11L162 247C135 226 105 205 71 185L71 185L38 258C84 283 127 312 166 347C205 382 239 419 267 459L267 459L180 459L180 796L824 796L824 459L356 459C340 433 322 407 301 382L301 382ZM257 658L748 658L748 733L257 733L257 658ZM748 520L748 597L257 597L257 520L748 520Z"/>
    <glyph glyph-name="
" unicode="&#26378;"
      horiz-adv-x="1000" vert-adv-y="1172"
      d="M109 406L109 782L378 782L378 41C378 7 371-18 357-33C342-48 319-56 288-56L288-56C260-56 236-54 216-51L216-51L201 29C220 24 242 21 267 21L267 21C281 21 291 26 298 35C304 44 307 58 307 79L307 79L307 247L179 247C176 184 169 129 158 81C147 33 127-19 100-74L100-74L32-38C54 2 70 39 81 74C92 108 99 150 103 199C107 248 109 317 109 406L109 406ZM466 690L466 770L902 770L902 690L466 690ZM181 547L307 547L307 701L181 701L181 547ZM894 211L959 198C959 185 958 142 955 67L955 67C954 40 950 19 944 4C938-11 929-22 916-29C903-36 885-41 861-44L861-44C848-45 838-46 831-46L831-46C824-46 814-45 801-44L801-44C778-42 761-37 748-30C735-23 725-12 719 5C712 21 709 44 709 73L709 73L709 418L592 418L591 367C591 342 591 326 590 317L590 317C588 247 583 191 576 150C569 108 556 70 537 35C518 0 490-37 452-76L452-76L395-9C429 24 455 54 472 81C489 108 500 140 507 176C514 211 517 259 517 319L517 319L517 418L416 418L416 500L949 500L949 418L784 418L784 89C784 68 786 54 791 46C795 38 803 33 816 32L816 32C820 31 826 31 834 31L834 31C845 31 854 31 859 32L859 32C870 33 877 37 882 46C887 55 890 69 891 89L891 89C893 114 894 155 894 211L894 211ZM181 373L181 320L307 320L307 472L181 472L181 373Z"/>
    <glyph glyph-name="S" unicode="&#26451;"
      horiz-adv-x="1000" vert-adv-y="1172"
      d="M287 572L287 489C312 466 340 437 373 404C405 370 429 344 445 325L445 325L398 261C366 303 329 347 287 392L287 392L287-76L208-76L208 427C170 322 124 230 69 151L69 151L32 232C69 285 100 339 126 394C151 449 173 508 192 572L192 572L58 572L58 651L208 651L208 845L287 845L287 651L423 651L423 572L287 572ZM595 682L903 682C900 467 891 265 877 77L877 77C874 45 868 20 859 1C849-18 834-31 814-39C794-48 766-52 731-53L731-53L701-53C660-53 624-51 595-48L595-48L578 34C615 29 656 26 701 26L701 26C726 26 744 28 757 33C770 38 779 45 784 56C789 67 793 82 795 103L795 103C808 262 815 428 816 599L816 599L563 599C536 534 508 479 481 434L481 434L408 479C441 526 470 585 498 654C525 723 544 785 557 842L557 842L638 827C627 783 613 735 595 682L595 682ZM718 240L652 194C633 223 609 259 580 300C551 341 526 375 506 400L506 400L565 448C588 421 615 387 644 347C673 306 698 271 718 240L718 240Z"/>
    <glyph glyph-name="§" unicode="&#26535;"
      horiz-adv-x="1000" vert-adv-y="1172"
      d="M394 352L347 297C305 344 275 376 258 393L258 393L258-74L182-74L182 430C149 327 109 235 64 154L64 154L23 230C83 339 130 453 164 570L164 570L57 570L57 646L182 646L182 840L258 840L258 646L380 646L380 570L258 570L258 482C311 435 356 392 394 352L394 352ZM812 224L812 714L503 714L503 222L427 222L427 790L888 790L888 224L812 224ZM882 174L955 158C955 133 954 99 951 57L951 57C949 29 945 8 939-6C932-20 922-30 907-36C892-42 870-46 841-48L841-48C820-49 804-50 793-50L793-50C782-50 766-49 745-48L745-48C720-46 700-42 687-36C674-30 664-20 658-5C652 9 649 29 649 56L649 56L649 212C626 156 592 105 547 58C501 11 439-37 362-86L362-86L313-17C392 28 453 73 495 117C537 160 567 208 584 261C601 313 611 378 614 456L614 456C615 499 616 564 616 653L616 653L694 653C694 626 694 591 693 550C692 509 692 474 691 446L691 446C689 383 683 331 673 289L673 289L725 289L725 86C725 64 728 49 735 43C741 36 755 31 776 30L776 30L800 29C823 29 840 30 851 33C862 36 869 41 873 49C877 56 879 68 880 85L880 85C881 112 882 142 882 174L882 174Z"/>
    <glyph glyph-name="â" unicode="&#26594;"
      horiz-adv-x="1000" vert-adv-y="1172"
      d="M389 350L339 298C319 325 292 357 257 395L257 395L257-73L180-73L180 414C153 330 117 247 72 166L72 166L27 237C54 283 80 335 104 393C127 450 148 510 165 572L165 572L58 572L58 650L180 650L180 840L257 840L257 650L373 650L373 572L257 572L257 490C304 444 348 397 389 350L389 350ZM898 197L964 175C963 162 959 142 953 114C947 85 942 64 938 49L938 49C929 14 917-11 903-28C889-45 872-53 852-53L852-53C808-53 769-6 735 89L735 89C706 172 686 273 673 390L673 390L480 390L480 106L646 220L678 144L598 90C639 43 672 2 697-35L697-35L641-80C613-39 580 5 541 51L541 51L505 26C482 11 453-10 419-35L419-35L373 32C385 43 393 53 397 61C401 69 403 78 403 89L403 89L403 744C550 754 714 776 896 811L896 811L916 731C872 721 810 710 731 698L731 698C733 614 737 538 743 470L743 470L949 470L949 390L750 390C763 274 781 182 805 114L805 114C814 91 822 73 829 62C836 51 844 45 852 45L852 45C858 45 863 49 868 57C873 65 877 78 881 97L881 97C889 134 895 167 898 197L898 197ZM480 670L480 470L665 470C660 531 657 603 655 688L655 688C593 680 535 674 480 670L480 670Z"/>
    <glyph glyph-name="ð" unicode="&#26608;"
      horiz-adv-x="1000" vert-adv-y="1172"
      d="M68 392L35 470C164 514 276 578 370 661L370 661L72 661L72 735L456 735L456 834L539 834L539 735L924 735L924 661L616 661C716 577 831 513 962 470L962 470L929 391C843 425 769 463 708 506C647 548 590 596 539 651L539 651L539 461L456 461L456 658C405 602 349 552 289 509C228 465 155 426 68 392L68 392ZM804 430L804 357L194 357L194 430L804 430ZM930 275L930 201L554 201L554 39C554-2 546-32 529-49C512-66 482-75 441-75L441-75C398-75 362-73 332-70L332-70L316 9C358 3 392 0 419 0L419 0C440 0 455 5 462 15C469 25 473 44 473 71L473 71L473 201L65 201L65 275L930 275ZM312 177L358 116C325 90 283 61 234 29C184-3 136-31 89-56L89-56L50 18C95 40 142 66 190 95C238 124 279 152 312 177L312 177ZM631 104L666 171C733 139 828 91 952 26L952 26L917-49C873-24 825 2 774 30C722 57 674 82 631 104L631 104Z"/>
    <glyph glyph-name="" unicode="&#26636;"
      horiz-adv-x="1000" vert-adv-y="1172"
      d="M404 340L353 285C336 308 308 344 267 393L267 393L267-74L188-74L188 439C154 336 116 245 73 166L73 166L25 233C86 334 135 447 173 572L173 572L62 572L62 649L188 649L188 844L267 844L267 649L395 649L395 572L267 572L267 491C288 470 312 445 339 415C366 385 387 360 404 340L404 340ZM955 736L955 665L684 665L684 556L895 556L895 226L507 226C502 163 490 108 471 61C452 14 423-36 383-87L383-87L314-38C349 7 375 48 391 83C406 118 417 156 422 198C427 239 429 298 429 375L429 375L429 556L602 556L602 839L684 839L684 736L955 736ZM511 341L511 306L815 306L815 477L511 477L511 341Z"/>
    <glyph glyph-name="U" unicode="&#26709;"
      horiz-adv-x="1000" vert-adv-y="1172"
      d="M250 583L250 505C301 455 344 410 378 369L378 369L324 314C305 339 281 370 250 406L250 406L250-61L173-61L173 415C142 326 105 245 63 172L63 172L26 254C56 305 83 358 108 415C133 472 153 528 168 583L168 583L55 583L55 660L173 660L173 848L250 848L250 660L359 660L359 583L250 583ZM675 682L675 759L902 759L902-57L822-57L822 0L473 0L473-56L395-56L395 740C462 754 531 780 602 819L602 819L632 739C580 710 527 686 473 669L473 669L473 431L612 431L612 355L473 355L473 76L822 76L822 355L685 355L685 431L822 431L822 682L675 682Z"/>
    <glyph glyph-name="k" unicode="&#26731;"
      horiz-adv-x="1000" vert-adv-y="1172"
      d="M696 255L696 842L770 842L770 255L696 255ZM377 353L329 300C303 334 275 367 246 398L246 398L246-73L173-73L173 406C144 317 109 232 68 152L68 152L33 224C96 349 142 467 169 577L169 577L54 577L54 650L173 650L173 838L246 838L246 650L337 650L337 577L246 577L246 490C267 469 291 446 316 420C341 393 362 371 377 353L377 353ZM549 693L498 631C468 661 423 701 363 751L363 751L413 808C474 760 519 722 549 693L549 693ZM962 416L896 392C885 433 869 483 849 542C829 601 811 652 794 696L794 696L860 718C877 673 895 622 916 563C936 504 951 455 962 416L962 416ZM582 316L511 335C526 386 542 446 558 515C574 584 587 650 598 712L598 712L664 695C653 633 640 566 625 495C610 423 595 363 582 316L582 316ZM334 522L383 578C410 555 452 515 508 458L508 458L460 398C397 462 355 503 334 522L334 522ZM498-80L449-16C552 33 634 86 697 145C759 204 811 277 852 365L852 365L915 326C871 235 817 158 752 96C687 33 603-25 498-80L498-80ZM429 316L495 288C460 181 418 73 371-37L371-37L302-8C351 104 394 212 429 316L429 316Z"/>
    </font>
</defs>
</svg>
