<svg xmlns="http://www.w3.org/2000/svg">
<!--
Copyright 2021 Huawei Device Co., Ltd. All Rights Reserved.
  -->

  <defs>
    <font name="HarmonyOS Sans SC"
      horiz-adv-x="1000" vert-adv-y="1000" >
    <font-face font-family="HarmonyOS Sans SC" font-weight="400"
      font-stretch="normal"
      units-per-em="1000"
      ascent="928"
      descent="-244"/>
    <glyph glyph-name="" unicode="&#19980;"
      horiz-adv-x="1000" vert-adv-y="1172"
      d="M49 756L946 756L946 673L727 673L727-60L642-60L642 673L355 673L355 503C355 402 348 319 334 254C319 188 296 130 263 81C230 32 182-19 120-70L120-70L54-8C112 41 156 86 186 128C216 170 238 219 251 275C264 331 270 403 270 492L270 492L270 673L49 673L49 756Z"/>
    <glyph glyph-name="(" unicode="&#20008;"
      horiz-adv-x="1000" vert-adv-y="1172"
      d="M454-69L454 836L545 836L545-69L454-69Z"/>
    <glyph glyph-name="6" unicode="&#20022;"
      horiz-adv-x="1000" vert-adv-y="1172"
      d="M310 525L377 590C425 540 478 485 535 424C592 363 643 307 690 256L690 256L615 184C577 229 527 286 464 356C401 425 350 482 310 525L310 525Z"/>
    <glyph glyph-name="?" unicode="&#20031;"
      horiz-adv-x="1000" vert-adv-y="1172"
      d="M267-77L204-8C295 57 363 113 407 162C450 210 481 266 499 331C516 396 525 484 524 596L524 596L524 836L610 836L610 596C609 475 598 377 578 304C558 230 525 165 478 110C431 54 360-8 267-77L267-77Z"/>
    <glyph glyph-name=" " unicode="&#20128;"
      horiz-adv-x="1000" vert-adv-y="1172"
      d="M580 634L941 634L941 547L58 547L58 634L480 634L404 798L484 833C520 764 552 697 580 634L580 634Z"/>
    <glyph glyph-name="Â" unicode="&#20162;"
      horiz-adv-x="1000" vert-adv-y="1172"
      d="M281 842L359 819C330 739 297 662 260 589L260 589L260-69L182-69L182 455C147 400 109 349 67 301L67 301L30 386C77 441 123 510 168 593C213 676 251 759 281 842L281 842ZM606 633L896 633C896 562 893 469 888 354C882 239 876 151 869 90L869 90C864 40 850 5 829-16C807-37 772-48 724-48L724-48C678-48 638-46 605-43L605-43L588 37C624 31 660 28 695 28L695 28C718 28 736 31 749 37C761 42 770 52 776 65C781 78 785 98 788 124L788 124C803 261 810 403 810 552L810 552L603 552C598 434 588 341 574 273C559 204 536 144 505 93C473 41 425-17 361-82L361-82L293-20C354 39 400 91 430 137C460 182 482 236 495 298C508 359 517 444 521 552L521 552L332 552L332 633L524 633C527 750 529 818 529 838L529 838L611 838C611 778 609 710 606 633L606 633Z"/>
    <glyph glyph-name="" unicode="&#20369;"
      horiz-adv-x="1000" vert-adv-y="1172"
      d="M950 725L950 648L583 648C564 609 545 573 524 541L524 541L886 541L886 52C886 9 879-21 865-38C851-55 826-63 790-63L790-63C748-63 712-61 682-58L682-58L668 18C705 13 738 11 765 11L765 11C781 11 792 16 798 26C804 35 807 52 807 76L807 76L807 128L501 128L501-66L424-66L424 409C392 374 359 341 325 308L325 308L280 379C329 424 371 467 406 510C440 553 470 599 495 648L495 648L340 648L340 725L530 725C543 756 556 796 571 845L571 845L653 827C641 791 629 757 617 725L617 725L950 725ZM250 839L326 815C300 728 273 653 245 589L245 589L245-79L166-79L166 435C138 388 108 345 76 304L76 304L25 373C67 429 109 500 151 586C193 672 226 756 250 839L250 839ZM501 463L501 370L807 370L807 463L501 463ZM807 298L501 298L501 199L807 199L807 298Z"/>
    <glyph glyph-name="" unicode="&#20372;"
      horiz-adv-x="1000" vert-adv-y="1172"
      d="M459 551C424 548 388 545 352 541L352 541L332 611C350 615 369 625 388 640L388 640C411 663 441 696 477 739C512 782 542 820 567 854L567 854L634 810C600 759 545 696 468 619L468 619L764 640C734 677 707 710 683 738L683 738L739 786C834 673 898 595 930 554L930 554L873 502C851 531 833 554 820 570L820 570C703 567 582 560 459 551L459 551ZM236 844L320 822C294 740 266 666 237 599L237 599L237-74L159-74L159 445C130 396 103 354 76 317L76 317L25 391C68 450 107 517 143 594C179 671 210 754 236 844L236 844ZM671 200L946 200L946 123L671 123L671-73L597-73L597 123L287 123L287 200L597 200L597 332L425 332C410 304 392 274 370 241L370 241L302 281C329 320 351 358 370 395C389 432 404 472 417 515L417 515L490 489C479 455 470 428 461 408L461 408L597 408L597 519L671 519L671 408L905 408L905 332L671 332L671 200Z"/>
    <glyph glyph-name="Å" unicode="&#20421;"
      horiz-adv-x="1000" vert-adv-y="1172"
      d="M879 725L826 671C811 689 792 710 769 733C745 756 723 775 703 791L703 791L753 843C772 828 793 809 818 787C842 764 862 743 879 725L879 725ZM761 307C818 212 886 134 967 73L967 73L908 9C851 60 801 114 760 173C719 231 684 295 655 365L655 365L655 50C655 7 647-23 631-39C615-56 586-64 545-64L545-64C502-64 466-62 436-59L436-59L419 19C459 14 493 12 520 12L520 12C541 12 555 17 563 27C571 36 575 53 575 76L575 76L575 267C482 192 395 127 314 74L314 74L271 145C319 175 371 210 428 251C485 292 534 329 575 363L575 363L575 590L312 590L312 667L575 667L575 841L655 841L655 667L935 667L935 590L655 590L655 564C672 497 696 433 726 372L726 372C750 396 775 424 801 455C827 486 850 516 869 544L869 544L932 490C910 461 883 430 851 396C819 361 789 332 761 307L761 307ZM240 835L319 815C295 736 269 666 242 603L242 603L242-69L164-69L164 448C137 402 108 359 79 319L79 319L28 392C68 443 108 511 149 595C189 678 219 758 240 835L240 835ZM318 497L374 547C391 528 413 501 441 466C468 431 490 400 507 375L507 375L448 324C432 349 410 379 384 415C357 450 335 478 318 497L318 497Z"/>
    <glyph glyph-name="." unicode="&#20526;"
      horiz-adv-x="1000" vert-adv-y="1172"
      d="M229 834L308 819C287 743 263 672 235 607L235 607L235-72L158-72L158 451C135 410 106 366 72 320L72 320L25 390C69 447 109 515 144 592C179 669 207 749 229 834L229 834ZM944 239L731 239C794 163 873 98 967 43L967 43L924-28C821 35 732 119 656 224L656 224L656-74L582-74L582 227C539 170 497 122 455 82C413 42 362 2 302-37L302-37L256 37C311 69 358 101 397 132C436 163 471 199 503 239L503 239L291 239L291 311L582 311L582 400L357 400L357 790L880 790L880 400L656 400L656 311L944 311L944 239ZM433 627L582 627L582 722L433 722L433 627ZM656 722L656 627L804 627L804 722L656 722ZM582 560L433 560L433 464L582 464L582 560ZM804 560L656 560L656 464L804 464L804 560Z"/>
    <glyph glyph-name="º" unicode="&#20666;"
      horiz-adv-x="1000" vert-adv-y="1172"
      d="M288 275L246 333C297 359 345 395 390 440L390 440C365 467 340 491 314 514L314 514C302 499 293 489 286 482L286 482L238 539C271 570 305 615 340 674C375 733 402 787 421 837L421 837L486 817C481 803 474 783 463 756L463 756L610 756L610 689C579 596 540 518 491 455C442 392 375 332 288 275L288 275ZM227 834L299 816C274 728 247 650 218 581L218 581L218-76L147-76L147 436C126 398 103 362 80 327L80 327L42 410C75 457 108 519 143 598C177 677 205 755 227 834L227 834ZM978 352L936 290C871 329 818 372 778 420C738 468 707 524 684 589C661 654 643 733 630 828L630 828L699 832C702 799 704 773 707 756L707 756L927 756L927 686C883 613 843 550 808 499L808 499C853 438 910 389 978 352L978 352ZM541 689L431 689C429 684 425 677 420 668L420 668C441 651 467 626 500 593L500 593C517 624 531 656 541 689L541 689ZM854 686L722 686C733 640 749 598 770 559L770 559C812 620 840 663 854 686L854 686ZM350 560C373 539 400 514 429 485L429 485C440 498 453 516 469 539L469 539C439 570 412 596 389 616L389 616C376 595 363 577 350 560L350 560ZM754 450L754 380L490 380L490 450L754 450ZM903 282L903 209L655 209L655 43C655 16 653-5 648-20C643-35 633-46 618-53C603-60 580-64 551-64L551-64C518-64 489-62 466-59L466-59L449 20C484 15 510 12 528 12L528 12C547 12 559 17 565 27C571 36 574 52 574 75L574 75L574 209L334 209L334 282L903 282ZM712 140L762 189C787 168 818 139 855 104C892 69 923 38 947 12L947 12L894-43C872-18 842 13 805 51C767 88 736 118 712 140L712 140ZM435 188L493 145C472 116 446 83 413 48C380 12 347-21 314-50L314-50L256 6C286 28 318 56 352 91C385 126 413 158 435 188L435 188Z"/>
    <glyph glyph-name="í" unicode="&#20717;"
      horiz-adv-x="1000" vert-adv-y="1172"
      d="M213 833L287 816C266 739 244 671 222 614L222 614L222-71L147-71L147 446C127 407 103 367 76 326L76 326L28 394C63 446 98 512 132 593C165 673 192 753 213 833L213 833ZM600 547L479 547C465 502 445 461 419 426C393 391 357 355 312 319L312 319L271 379C308 407 337 434 359 460C381 486 398 515 411 547L411 547L295 547L295 601L320 699L375 687L356 609L429 609C435 636 440 673 443 720L443 720L307 720L307 783L600 783L600 720L506 720C503 676 498 639 493 609L493 609L600 609L600 547ZM899 480L955 467C954 462 954 454 954 441C953 428 952 416 951 405L951 405C949 386 943 372 934 364C925 355 910 350 890 348L890 348C883 347 872 347 857 347L857 347C842 347 830 347 823 348L823 348C804 349 789 355 781 366C772 376 767 393 767 417L767 417L767 470C740 421 698 375 643 332L643 332L603 383C637 410 665 436 686 463C707 489 723 517 734 547L734 547L626 547L626 601L644 692L698 682L683 609L751 609C757 638 761 675 762 720L762 720L624 720L624 783L941 783L941 720L823 720C822 678 818 641 813 609L813 609L946 609L946 547L799 547C796 538 793 527 788 515L788 515L821 515L821 441C821 428 823 419 828 414C832 408 839 405 849 405L849 405L870 405C879 405 886 408 890 413C894 418 896 425 897 436L897 436L899 480ZM470 516L527 516L527 436L611 489L616 431C568 400 532 378 508 363L508 363L476 342L452 382C459 387 464 393 467 400C469 406 470 413 470 422L470 422L470 516ZM429-33L429-77L356-77L356 313L873 313L873-77L798-77L798-33L429-33ZM429 172L798 172L798 248L429 248L429 172ZM798 112L429 112L429 32L798 32L798 112Z"/>
    <glyph glyph-name="" unicode="&#20743;"
      horiz-adv-x="1000" vert-adv-y="1172"
      d="M229 837L303 821C283 746 257 671 226 595L226 595L226-76L153-76L153 442C128 397 98 348 63 295L63 295L26 375C63 432 101 503 139 588C177 673 207 756 229 837L229 837ZM340 582L340 799L897 799L897 582L340 582ZM508 636L508 744L407 744L407 636L508 636ZM570 636L668 636L668 744L570 744L570 636ZM729 744L729 636L831 636L831 744L729 744ZM955 525L955 465L284 465L284 525L955 525ZM786 90C830 57 888 30 960 9L960 9L929-56C846-26 780 10 732 52C684 93 641 148 602 216L602 216C568 183 535 155 504 134L504 134L504 3L662 58L665-7C610-24 556-43 503-64L503-64L438-91L409-36C420-29 428-23 432-17C435-11 437-3 437 7L437 7L436 90C394 65 347 43 294 23L294 23L260 86C370 121 460 171 530 234L530 234L360 234L360 414L869 414L869 234L662 234C687 192 712 159 735 135L735 135C799 170 850 201 889 227L889 227L927 174C886 147 839 119 786 90L786 90ZM796 290L796 359L432 359L432 290L796 290Z"/>
    <glyph glyph-name="U" unicode="&#20821;"
      horiz-adv-x="1000" vert-adv-y="1172"
      d="M861 205L940 188C940 166 937 127 932 70L932 70C929 41 924 19 917 4C910-11 899-21 885-27C870-34 849-38 820-40L820-40C795-42 770-43 746-43L746-43C721-43 696-42 671-40L671-40C631-37 603-26 587-9C570 8 562 39 562 83L562 83L562 308L403 308C403 299 402 289 400 277L400 277C393 212 379 159 358 118C337 77 305 41 264 10C223-21 165-51 92-82L92-82L51-3C117 23 168 48 203 73C238 98 264 126 281 157C297 188 308 228 314 278L314 278C316 289 317 299 317 308L317 308L114 308L114 800L426 800L426 590L574 590L574 800L884 800L884 308L647 308L647 107C647 82 651 65 659 57C666 49 681 43 704 40L704 40C720 38 736 37 751 37L751 37C768 37 783 38 798 40L798 40C821 43 837 48 844 57C851 65 856 80 857 103L857 103C857 109 858 121 859 140L859 140L861 205ZM351 517L351 726L193 726L193 387L805 387L805 726L650 726L650 517L351 517Z"/>
    <glyph glyph-name="" unicode="&#20865;"
      horiz-adv-x="1000" vert-adv-y="1172"
      d="M229 722L173 691C164 707 151 729 134 757C116 785 104 804 97 813L97 813L151 845C158 835 171 816 188 789C205 761 219 739 229 722L229 722ZM445 173L445 103L287 103L287-71L223-71L223 103L54 103L54 173L223 173L223 264L83 264L83 684L264 684C279 706 295 732 312 762C329 792 343 819 354 842L354 842L418 816C396 776 370 732 339 684L339 684L426 684L426 264L287 264L287 173L445 173ZM858 86C889 53 924 28 963 11L963 11L928-56C871-24 826 16 793 63C759 110 735 168 721 237L721 237L659 237L659 23L758 70L774 6C704-25 658-46 635-59L635-59C621-66 610-73 601-79L601-79L571-22C580-17 586-11 591-5C595 0 597 7 597 16L597 16L597 237L547 237C542 174 532 119 518 73C503 26 481-23 452-75L452-75L385-44C414 4 435 48 449 89C463 129 473 176 479 229C484 282 487 352 487 439L487 439L487 786L912 786L912 568L552 568L552 464L627 464L627 545L687 545L687 464L778 464L778 545L838 545L838 464L916 464L916 401L838 401L838 300L947 300L947 237L782 237C789 202 803 168 822 135L822 135C854 160 885 185 914 212L914 212L951 161C919 134 888 109 858 86L858 86ZM552 632L846 632L846 721L552 721L552 632ZM143 507L224 507L224 612L143 612L143 507ZM286 612L286 507L367 507L367 612L286 612ZM224 334L224 440L143 440L143 334L224 334ZM367 440L286 440L286 334L367 334L367 440ZM552 401L552 399C552 373 551 340 550 300L550 300L627 300L627 401L552 401ZM687 300L778 300L778 401L687 401L687 300Z"/>
    <glyph glyph-name="" unicode="&#20866;"
      horiz-adv-x="1000" vert-adv-y="1172"
      d="M883 779L883 73C883 38 880 11 873-8C866-28 854-42 838-51C821-60 798-64 769-65L769-65C727-66 679-63 626-58L626-58L610 22C663 15 706 11 738 12L738 12C762 13 779 20 788 33C797 46 801 68 801 99L801 99L801 703L194 703L194-63L113-63L113 779L883 779Z"/>
    <glyph glyph-name="õ" unicode="&#20981;"
      horiz-adv-x="1000" vert-adv-y="1172"
      d="M194 83L804 83L804 798L884 798L884-66L804-66L804 4L115 4L115 798L194 798L194 83Z"/>
    <glyph glyph-name="-" unicode="&#21037;"
      horiz-adv-x="1000" vert-adv-y="1172"
      d="M821 88L821 824L899 824L899 60C899 30 895 7 888-10C881-27 868-40 849-47C830-55 803-59 768-59L768-59C725-59 687-57 655-54L655-54L641 25C676 20 714 17 757 17L757 17C783 17 800 22 809 31C817 40 821 59 821 88L821 88ZM493 779L493 707C456 656 416 610 375 571L375 571C450 525 515 483 568 446L568 446L524 379C467 422 399 469 319 520L319 520C250 463 171 411 81 366L81 366L34 431C107 464 174 504 235 551C296 597 347 647 388 701L388 701L79 701L79 779L493 779ZM628 154L628 743L705 743L705 154L628 154ZM341 262L341 77L465 90L557 99L559 23C491 16 398 6 279-6C160-19 84-26 51-28L51-28L43 48L262 69L262 262L77 262L77 340L523 340L523 262L341 262Z"/>
    <glyph glyph-name="^" unicode="&#21086;"
      horiz-adv-x="1000" vert-adv-y="1172"
      d="M116 464L83 527C145 548 191 569 222 590C253 611 274 638 285 670L285 670L101 670L101 740L300 740L301 749C302 760 302 774 303 791C304 808 304 822 304 835L304 835L379 835L375 740L591 740L591 670L368 670L362 648L584 526L544 463C478 504 407 546 331 590L331 590C312 566 286 544 252 525C218 505 173 485 116 464L116 464ZM829 82L829 825L904 825L904 61C904 17 895-15 877-35C859-55 829-65 788-65L788-65C752-65 709-63 659-58L659-58L645 15C696 9 737 6 769 6L769 6C791 6 807 12 816 25C825 38 829 57 829 82L829 82ZM661 147L661 732L731 732L731 147L661 147ZM463 392L65 392L65 462L611 462L611 392L537 392L537 49C537 8 530-21 515-38C500-55 473-64 435-64L435-64C412-64 377-62 330-58L330-58L316 13C348 9 379 6 408 4L408 4C428 3 442 7 451 19C459 30 463 47 463 70L463 70L463 392ZM119 69L119 326L379 326L379 69L119 69ZM181 262L181 133L318 133L318 262L181 262Z"/>
    <glyph glyph-name="" unicode="&#21121;"
      horiz-adv-x="1000" vert-adv-y="1172"
      d="M134 211L134 556C110 517 88 483 67 455L67 455L35 534C64 571 94 617 123 674C152 731 176 787 193 842L193 842L260 830C249 797 235 759 217 717L217 717L376 717L336 834L400 850L410 822L449 717L605 717L605 650L424 650L424 571L590 571L590 506L424 506L424 425L590 425L590 360L424 360L424 279L614 279L614 211L134 211ZM833 82L833 826L905 826L905 59C905 16 896-15 880-35C863-55 834-65 795-65L795-65C764-65 726-63 683-58L683-58L668 18C711 12 748 9 777 9L777 9C797 9 811 15 820 27C829 38 833 57 833 82L833 82ZM669 163L669 746L736 746L736 163L669 163ZM202 650L202 571L358 571L358 650L202 650ZM202 506L202 425L358 425L358 506L202 506ZM202 360L202 279L358 279L358 360L202 360ZM493 162L549 187C579 123 608 57 636-12L636-12L575-35C551 28 524 94 493 162L493 162ZM374 155L433 171C457 88 475 23 486-25L486-25L424-41C411 20 394 86 374 155L374 155ZM120-77L56-51C91 38 118 110 135 166L135 166L194 149C171 72 147-3 120-77L120-77ZM245 148L307 159C321 71 331 3 337-45L337-45L272-54C265 13 256 80 245 148L245 148Z"/>
    <glyph glyph-name="" unicode="&#21122;"
      horiz-adv-x="1000" vert-adv-y="1172"
      d="M849 69L849 813L915 813L915 52C915 12 909-17 897-35C885-53 865-62 837-62L837-62C794-62 758-60 728-57L728-57L714 11C754 6 788 4 817 4L817 4C829 4 837 9 842 19C847 29 849 46 849 69L849 69ZM91 777L666 777L666 708L156 708L156 398C156 308 154 238 150 188C146 137 139 94 129 58C119 21 103-21 82-68L82-68L15-38C37 7 53 49 64 87C74 124 81 168 85 219C89 270 91 340 91 431L91 431L91 777ZM719 146L719 716L782 716L782 146L719 146ZM298 584L250 560C233 601 217 636 200 665L200 665L248 688C265 657 282 623 298 584L298 584ZM431 384L431 178L335 178C330 126 319 82 300 45C281 8 250-32 208-76L208-76L162-34C201 3 230 37 248 68C266 99 278 135 283 178L283 178L191 178L191 442L243 442L243 240L287 240L287 258L287 484L185 484L185 549L321 549C336 581 355 627 378 686L378 686L430 668C415 631 397 592 376 549L376 549L436 549L436 484L338 484L338 259L338 240L381 240L381 442L431 442L431 387C464 483 485 581 493 681L493 681L550 676C546 639 541 603 535 568L535 568L673 568L673 503L643 352L592 371L621 503L521 503C509 450 495 402 480 359L480 359L431 384ZM569 294C569 269 568 244 566 221L566 221C608 146 646 74 681 7L681 7L631-32C604 29 577 86 550 138L550 138C539 101 522 66 500 33C477-1 447-36 409-72L409-72L364-26C409 13 442 51 465 90C487 128 501 170 508 217L508 217C508 217 508 217 508 218C507 218 507 218 507 218L507 218L508 219C511 241 513 268 513 299L513 299C513 341 512 386 511 434L511 434L567 434C568 403 569 357 569 294L569 294Z"/>
    <glyph glyph-name="" unicode="&#21136;"
      horiz-adv-x="1000" vert-adv-y="1172"
      d="M426 787L426 838L489 838L489 787L634 787L634 726L489 726L489 676L426 676L426 726L273 726L273 676L209 676L209 726L65 726L65 787L209 787L209 838L273 838L273 787L426 787ZM833 81L833 826L905 826L905 58C905 15 897-16 881-36C865-56 837-66 798-66L798-66C763-66 726-63 687-58L687-58L671 18C718 11 752 8 775 8L775 8C797 8 812 14 821 26C829 37 833 56 833 81L833 81ZM668 158L668 747L734 747L734 158L668 158ZM172 661L232 641L211 599L362 599C345 634 335 654 331 661L331 661L389 685C394 676 407 647 428 599L428 599L600 599L600 547L418 547L418 500L584 500L584 452L418 452L418 408L584 408L584 361L418 361L418 314L616 314L616 261L130 261L130 469C112 444 92 418 69 392L69 392L35 452C61 478 86 509 111 546C135 583 155 621 172 661L172 661ZM192 547L192 500L356 500L356 547L192 547ZM192 452L192 408L356 408L356 452L192 452ZM192 361L192 314L356 314L356 361L192 361ZM587 218L587 163C535 119 485 83 438 55L438 55L627-12L602-71C546-49 468-19 369 18L369 18C295-17 197-48 75-75L75-75L47-9C142 8 221 28 283 51L283 51L151 100L176 149L359 83C404 104 445 130 480 159L480 159L100 159L100 218L587 218Z"/>
    <glyph glyph-name="" unicode="&#21139;"
      horiz-adv-x="1000" vert-adv-y="1172"
      d="M348 769L545 769L545 460L118 460L118 769L264 769C275 799 284 826 289 849L289 849L370 838C363 811 355 788 348 769L348 769ZM828 79L828 827L902 827L902 55C902 13 895-17 881-34C867-52 842-61 805-62L805-62C768-63 731-61 692-57L692-57L678 18C714 13 745 11 771 11L771 11C787 11 799 13 807 16C814 19 820 25 823 34C826 43 828 58 828 79L828 79ZM662 165L662 731L731 731L731 165L662 165ZM180 677L485 677L485 718L180 718L180 677ZM180 593L485 593L485 631L180 631L180 593ZM485 547L180 547L180 509L485 509L485 547ZM95 194L95 421L569 421L569 194L95 194ZM157 330L305 330L305 374L157 374L157 330ZM366 374L366 330L509 330L509 374L366 374ZM305 242L305 284L157 284L157 242L305 242ZM509 284L366 284L366 242L509 242L509 284ZM185 87L40 87L40 145L632 145L632 87L485 87L485-71L414-71L414 87L251 87L251 85C251 56 247 31 238 11C229-10 214-28 192-44C169-60 138-75 98-88L98-88L62-27C95-18 121-8 138 2C155 11 167 22 174 35C181 48 184 64 185 84L185 84L185 87Z"/>
    <glyph glyph-name="ù" unicode="&#21241;"
      horiz-adv-x="1000" vert-adv-y="1172"
      d="M333 699L879 699L879 625C879 438 871 263 856 102L856 102C852 63 844 33 833 11C821-11 803-27 779-37C754-47 720-53 675-54L675-54L637-55C603-55 557-53 500-48L500-48L483 35C544 28 598 24 645 24L645 24C676 24 700 28 717 36C734 43 746 55 753 71C760 86 765 109 768 138L768 138C783 292 790 451 789 615L789 615L288 615C240 531 184 454 119 384L119 384L50 442C103 496 151 559 194 631C237 702 274 777 305 854L305 854L389 830C370 778 351 734 333 699L333 699Z"/>
    <glyph glyph-name="&" unicode="&#21286;"
      horiz-adv-x="1000" vert-adv-y="1172"
      d="M918 801L918 729L180 729L180 32L935 32L935-39L106-39L106 801L918 801ZM445 220L445 68L381 68L381 210L227 185L217 254C262 259 316 267 381 276L381 276L381 352L235 352L235 417C254 454 275 500 298 556L298 556L217 556L217 620L322 620C333 648 342 676 349 705L349 705L414 694C407 668 399 643 390 620L390 620L518 620L518 556L366 556C346 507 326 461 306 418L306 418L381 418L381 522L445 522L445 418L520 418L520 352L445 352L445 285L526 297L531 233L445 220ZM817 83C774 83 752 106 752 152L752 152L752 497L681 497L681 496C680 417 676 355 669 309C662 262 650 222 635 187C619 152 595 113 564 69L564 69L505 116C536 157 559 193 574 226C589 259 599 295 605 335C610 374 614 428 615 496L615 496L615 497L550 497L550 564L616 564L618 695L683 695C683 646 683 602 682 564L682 564L819 564L819 176C819 167 821 161 824 158C827 154 831 152 838 152L838 152L853 152C860 152 864 154 868 158C871 162 872 169 873 178L873 178C876 250 877 292 877 305L877 305L937 293C937 274 936 240 933 189L933 189L932 153C931 128 925 111 915 100C904 89 887 83 863 83L863 83L817 83Z"/>
    <glyph glyph-name="i" unicode="&#21353;"
      horiz-adv-x="1000" vert-adv-y="1172"
      d="M758 771L758 267C758 228 754 198 745 175C736 152 720 136 699 125C678 114 648 109 610 108L610 108C568 107 521 110 468 115L468 115L450 206C495 199 538 195 579 195L579 195C613 195 636 203 649 219C661 235 667 261 667 298L667 298L667 685L375 685L375-76L284-76L284 771L758 771Z"/>
    <glyph glyph-name="z" unicode="&#21370;"
      horiz-adv-x="1000" vert-adv-y="1172"
      d="M739 539C767 521 798 505 833 491C867 476 911 460 964 443L964 443L929 369C844 398 772 433 714 473C655 513 603 564 557 627L557 627L546 622L546 513C546 482 541 461 532 448C522 435 504 429 479 428L479 428C438 427 398 429 357 434L357 434L344 499C379 493 407 490 429 490L429 490C452 490 463 504 463 531L463 531L463 651L646 726L168 726L168 789L811 789L811 735L616 652C639 624 661 600 682 581L682 581C753 626 815 669 870 710L870 710L911 653C864 618 807 580 739 539L739 539ZM385 651L385 583C320 496 214 421 68 358L68 358L35 422C97 446 149 472 192 500C235 528 269 555 294 582L294 582L69 582L69 651L385 651ZM151 332L151 393L827 393L827 332L151 332ZM815 76L820 147L821 167L901 147L894 53C893 23 888 0 879-15C870-31 855-42 834-49C813-56 782-59 741-60L741-60C692-61 619-62 521-62L521-62C423-62 349-61 300-60L300-60C264-59 237-56 218-49C199-42 186-30 178-13C170 4 166 29 166 62L166 62L166 272L775 272C774 249 770 217 765 175L765 175C760 135 750 107 735 92C720 76 695 68 659 67L659 67L609 66C549 66 493 69 441 75L441 75L430 134C490 125 558 121 633 122L633 122C649 122 661 126 668 135C675 143 680 156 685 175L685 175C688 184 690 196 692 210L692 210L247 210L247 79C247 59 249 44 254 34C258 24 266 17 277 13C288 9 306 7 329 6L329 6C416 5 481 4 524 4L524 4C567 4 631 5 718 6L718 6C745 7 766 9 779 13C792 17 801 24 806 33C811 42 814 57 815 76L815 76Z"/>
    <glyph glyph-name="£" unicode="&#21411;"
      horiz-adv-x="1000" vert-adv-y="1172"
      d="M139 791L951 791L951 718L217 718L217 455C217 365 214 292 208 236C202 180 191 129 176 83C161 37 138-15 107-73L107-73L32-40C61 14 84 64 99 109C114 154 124 204 130 257C136 310 139 376 139 456L139 456L139 791ZM958 419L928 351L906 357C900 359 894 361 888 363C881 364 875 366 868 368L868 368L868 77L624 77L624-72L552-72L552 77L306 77L306 365L252 346L224 414C296 435 352 455 393 477C433 498 464 523 485 553L485 553L254 553L254 616L515 616L518 624C525 645 530 669 535 696L535 696L612 687L597 627L594 616L739 616C723 637 707 657 691 675L691 675L746 707C767 682 790 651 813 616L813 616L936 616L936 553L663 553C690 522 725 496 770 476C815 455 877 436 958 419L958 419ZM404 406L764 406C720 425 684 447 655 470C626 493 600 520 578 553L578 553L571 553C556 522 536 496 510 473C484 450 449 427 404 406L404 406ZM377 346L377 270L552 270L552 346L377 346ZM624 346L624 270L797 270L797 346L624 346ZM552 212L377 212L377 138L552 138L552 212ZM797 212L624 212L624 138L797 138L797 212Z"/>
    <glyph glyph-name="¶" unicode="&#21430;"
      horiz-adv-x="1000" vert-adv-y="1172"
      d="M919-11L834-55L786 47C591 32 410 14 244-6L244-6C176-14 129-20 103-25L103-25L80 72C105 80 123 88 132 95C141 102 151 114 162 131L162 131C206 204 258 312 319 454C380 595 426 721 459 830L459 830L552 800C513 682 465 555 407 420C348 285 293 171 241 79L241 79L745 129C693 236 640 342 585 447L585 447L663 486C730 360 816 194 919-11L919-11Z"/>
    <glyph glyph-name="#" unicode="&#21539;"
      horiz-adv-x="1000" vert-adv-y="1172"
      d="M546 786L604 828C630 791 658 749 687 702C716 655 741 615 760 580L760 580L696 537C677 572 653 614 625 661C596 708 570 749 546 786L546 786ZM331 713L331 50L85 50L85 713L331 713ZM259 639L156 639L156 127L259 127L259 639ZM587 628L587 91C587 74 588 61 591 53C594 44 599 38 606 35C613 31 623 28 638 27L638 27C645 26 654 26 667 26L667 26C680 26 690 26 696 27L696 27C713 29 725 32 733 35C740 38 746 44 749 53C752 61 754 74 755 92L755 92C756 114 758 139 759 166C760 193 760 216 760 233L760 233L835 218L828 69C826 38 822 15 815 0C808-16 796-28 780-35C764-42 740-48 709-51L709-51C699-52 683-53 662-53L662-53C641-53 626-52 615-51L615-51C588-48 568-43 553-36C538-29 527-17 520 0C513 17 509 41 509 73L509 73L509 628L587 628ZM777 528L846 548C863 503 884 444 907 371C930 298 950 233 965 177L965 177L894 153C879 210 860 275 838 348C815 421 794 481 777 528L777 528ZM421 136L350 152C363 207 374 269 385 337C396 405 404 470 409 531L409 531L476 522C471 459 463 392 453 320C443 248 432 187 421 136L421 136Z"/>
    <glyph glyph-name="Y" unicode="&#21593;"
      horiz-adv-x="1000" vert-adv-y="1172"
      d="M537 416L880 416L880 58C880 27 876 4 869-13C861-30 848-43 830-50C811-58 785-62 752-62L752-62C711-62 672-60 635-57L635-57L619 19C664 14 703 12 736 12L736 12C761 12 778 17 787 28C796 38 800 56 800 82L800 82L800 345L531 345C529 334 525 318 520 298L520 298C559 275 604 247 655 215C706 183 744 157 771 138L771 138L729 70C703 89 667 115 620 147C573 178 530 206 491 231L491 231C470 198 442 167 405 140C368 113 318 83 253 50L253 50L216 123C273 150 316 174 346 193C376 212 399 233 417 257C434 280 445 310 451 345L451 345L198 345L198-65L118-65L118 416L458 416C459 423 459 435 459 452L459 452L459 518L187 518L187 792L811 792L811 518L538 518L538 452C538 436 538 424 537 416L537 416ZM732 586L732 723L267 723L267 586L732 586Z"/>
    <glyph glyph-name="´" unicode="&#21684;"
      horiz-adv-x="1000" vert-adv-y="1172"
      d="M638 296L574 266C559 307 539 356 514 414L514 414C499 330 475 252 443 180C410 107 367 33 313-43L313-43L245 1C274 37 298 72 318 106L318 106L90 106L90 752L329 752L329 124C369 194 399 270 420 353C441 436 455 533 462 646L462 646L462 648L368 648L368 724L467 724L470 845L546 845L542 724L948 724L948 648L539 648C538 645 538 642 538 637L538 637C536 593 532 547 527 498L527 498L546 507C559 483 574 449 593 406C612 363 627 326 638 296L638 296ZM162 676L162 183L257 183L257 676L162 676ZM737 406C746 314 769 237 805 175C841 113 894 56 964 4L964 4L920-67C865-26 821 20 786 70C751 119 724 175 706 236L706 236C687 177 657 123 618 73C579 23 527-26 462-75L462-75L412-13C503 51 568 119 609 192C649 265 669 354 669 459L669 459L669 603L738 603L738 458C738 435 738 417 737 406L737 406ZM844 268L781 301C808 354 835 425 864 514L864 514L933 490C904 406 874 332 844 268L844 268Z"/>
    <glyph glyph-name="Õ" unicode="&#21717;"
      horiz-adv-x="1000" vert-adv-y="1172"
      d="M922 781L922 547L653 547C632 498 614 461 600 435L600 435L906 435L906 367C863 269 801 185 721 114C640 43 532-23 396-82L396-82L345-13C469 36 569 91 645 152C720 213 779 285 822 366L822 366L559 366C553 357 546 347 539 337L539 337C538 336 535 330 528 320L528 320C581 287 625 256 660 229L660 229L614 170C575 201 532 233 485 264L485 264C460 234 431 203 399 171L399 171L350 230C397 276 438 324 473 375C508 426 539 483 567 547L567 547L417 547L417 781L488 781L488 623L632 623L632 840L705 840L705 623L850 623L850 781L922 781ZM340 745L340 100L88 100L88 745L340 745ZM266 177L266 670L161 670L161 177L266 177Z"/>
    <glyph glyph-name="Ù" unicode="&#21721;"
      horiz-adv-x="1000" vert-adv-y="1172"
      d="M472 431L472 500C449 480 425 460 400 440L400 440L353 502C413 546 467 597 516 655C564 712 601 769 628 824L628 824L696 824C725 762 762 705 809 652C855 599 908 552 967 512L967 512L925 445C812 522 725 620 662 739L662 739C643 700 617 661 585 620C552 579 515 539 473 501L473 501L834 501L834 431L472 431ZM352 741L352 69L95 69L95 741L352 741ZM281 141L281 670L167 670L167 141L281 141ZM548 245L375 245L375 318L936 318L936 245L633 245C598 172 557 100 510 27L510 27C634 42 727 52 789 59L789 59C756 112 729 153 708 182L708 182L768 218C790 188 818 148 851 98C884 47 911 6 931-27L931-27L868-68C856-47 843-26 828-3L828-3C735-12 665-20 618-25L618-25L513-36L409-47L395 19C412 30 425 42 435 56L435 56C474 111 512 174 548 245L548 245Z"/>
    <glyph glyph-name="Ü" unicode="&#21724;"
      horiz-adv-x="1000" vert-adv-y="1172"
      d="M701 455C761 416 846 383 955 356L955 356L926 279C865 296 811 316 764 337C717 358 676 381 639 407L639 407C575 362 486 322 373 286L373 286L343 360C442 388 521 420 580 456L580 456C527 506 480 573 437 656L437 656L367 656L367 731L614 731L599 764C595 773 589 785 582 800C575 815 570 825 567 830L567 830L642 852C647 843 655 826 667 801C678 776 688 752 697 731L697 731L931 731L931 656L842 656C805 573 758 506 701 455L701 455ZM74 81L74 745L332 745L332 81L74 81ZM147 668L147 159L258 159L258 668L147 668ZM763 656L521 656C556 590 596 538 641 499L641 499C688 538 729 591 763 656L763 656ZM475 256C475 259 475 266 476 277C476 288 476 299 475 310L475 310L552 310L551 259C551 204 545 157 534 119C523 81 503 46 476 14C448-18 408-51 356-84L356-84L302-26C351 4 387 32 412 57C436 82 452 110 462 140C471 170 475 209 475 256L475 256ZM801 308L801-68L726-68L726 308L801 308Z"/>
    <glyph glyph-name="ÿ" unicode="&#21759;"
      horiz-adv-x="1000" vert-adv-y="1172"
      d="M91 437L39 486C91 521 128 552 149 580C170 607 184 641 191 681L191 681L65 681L65 750L199 750C201 776 202 805 202 837L202 837L277 837C277 814 276 785 275 750L275 750L490 750C490 728 488 698 485 659C482 620 478 591 475 574L475 574C468 538 458 512 445 497C431 482 408 474 375 473L375 473C349 472 317 474 280 477L280 477L265 546C295 541 323 538 348 538L348 538C366 538 379 542 386 550C393 557 399 574 404 599L404 599C410 632 413 659 414 681L414 681L267 681C258 630 240 586 214 550C187 513 146 476 91 437L91 437ZM561 491L561 779L888 779L888 491L561 491ZM630 707L630 561L818 561L818 707L630 707ZM44 413L957 413L957 343L820 343L820 57C820 22 815-4 806-23C797-42 781-55 758-62C735-69 703-73 661-73L661-73C639-73 607-72 566-69L566-69L552 9C586 4 624 1 665 1L665 1C686 1 703 3 714 7C725 11 732 19 737 30C742 41 744 58 744 81L744 81L744 343L44 343L44 413ZM154 37L154 266L582 266L582 37L154 37ZM225 201L225 103L511 103L511 201L225 201Z"/>
    <glyph glyph-name="*" unicode="&#21802;"
      horiz-adv-x="1000" vert-adv-y="1172"
      d="M802 263L802 202L668 202L668 127L900 127L900 61L668 61L668-84L596-84L596 61L371 61L371 127L596 127L596 202L464 202L464 260C434 224 400 190 362 158L362 158L318 218C387 275 439 336 476 400L476 400L352 400L352 467L508 467C514 482 522 505 533 537L533 537L389 537L389 602L550 602L565 675L370 675L370 741L575 741C578 764 582 796 585 838L585 838L658 837C655 805 652 773 648 741L648 741L910 741L910 675L640 675C637 658 633 634 626 602L626 602L885 602L885 537L609 537C602 514 594 491 585 467L585 467L937 467L937 400L781 400C827 323 888 264 965 225L965 225L928 158C881 187 839 222 802 263L802 263ZM307 735L307 31L80 31L80 735L307 735ZM237 108L237 660L152 660L152 108L237 108ZM471 269L596 269L596 362L668 362L668 269L796 269C761 309 731 353 706 400L706 400L556 400C529 349 501 305 471 269L471 269Z"/>
    <glyph glyph-name="<" unicode="&#21820;"
      horiz-adv-x="1000" vert-adv-y="1172"
      d="M793 517L957 517L957 446L360 446L360 517L516 517L478 671L394 671L394 742L633 742C621 767 605 797 585 834L585 834L663 857C682 816 700 778 716 742L716 742L922 742L922 671L833 671L793 517ZM85 76L85 750L321 750L321 76L85 76ZM158 675L158 152L249 152L249 675L158 675ZM757 671L553 671L565 625C568 613 572 598 577 580C582 562 587 541 592 517L592 517L717 517C727 552 738 595 750 645L750 645C753 652 755 661 757 671L757 671ZM945 267L839 267C824 228 808 195 793 169C778 142 760 117 740 96L740 96C810 65 879 33 948-2L948-2L913-72C829-27 751 13 679 46L679 46C643 23 598 3 545-16C491-35 423-53 341-71L341-71L315 4C382 18 439 31 484 44C529 57 566 70 596 84L596 84C523 115 464 140 419 157L419 157C439 190 458 226 477 267L477 267L362 267L362 338L509 338C517 357 527 386 540 423L540 423L615 407C608 384 599 361 589 338L589 338L945 338L945 267ZM514 188C556 173 607 153 667 127L667 127C687 144 704 163 718 185C731 207 745 234 759 267L759 267L557 267C544 240 529 214 514 188L514 188Z"/>
    <glyph glyph-name="" unicode="&#21896;"
      horiz-adv-x="1000" vert-adv-y="1172"
      d="M885 622L950 608C950 588 948 560 945 523L945 523C942 489 933 466 918 453C903 440 876 433 839 432L839 432L799 431L759 432C724 433 699 441 686 454C672 467 665 492 665 527L665 527L665 838L732 838L732 685C800 723 855 757 897 786L897 786L929 723C906 708 876 689 838 668C800 646 765 627 732 610L732 610L732 549C732 529 735 516 742 510C748 503 761 499 780 498L780 498L806 497C828 497 844 498 853 501C862 503 869 508 874 516C878 523 881 536 883 554L883 554C884 581 885 603 885 622L885 622ZM608 564L620 489C573 476 519 459 456 437L456 437L407 418L378 486C389 491 397 498 402 505C407 512 409 521 409 534L409 534L409 835L476 835L476 716L618 716L618 646L476 646L476 521L608 564ZM325 745L325 70L87 70L87 745L325 745ZM257 143L257 673L157 673L157 143L257 143ZM597 444L671 433C665 408 657 381 646 352L646 352L881 352L881-72L812-72L812-24L488-24L488-73L419-73L419 352L570 352C581 384 590 415 597 444L597 444ZM488 287L488 196L812 196L812 287L488 287ZM812 132L488 132L488 40L812 40L812 132Z"/>
    <glyph glyph-name="µ" unicode="&#21941;"
      horiz-adv-x="1000" vert-adv-y="1172"
      d="M726 837L798 837L798 727L953 727L953 649L798 649L798 555L726 555L726 649L579 649L579 555L506 555L506 649L372 649L372 727L506 727L506 837L579 837L579 727L726 727L726 837ZM338 738L338 72L93 72L93 738L338 738ZM266 147L266 662L165 662L165 147L266 147ZM483-19L483-68L411-68L411 514L894 514L894-68L821-68L821-19L483-19ZM483 288L617 288L617 438L483 438L483 288ZM688 438L688 288L821 288L821 438L688 438ZM617 57L617 214L483 214L483 57L617 57ZM821 214L688 214L688 57L821 57L821 214Z"/>
    <glyph glyph-name="É" unicode="&#21961;"
      horiz-adv-x="1000" vert-adv-y="1172"
      d="M857 183L684 169L684 35C684 7 682-14 677-27C672-40 662-50 649-55C636-60 615-63 587-63L587-63C570-63 545-62 510-59L510-59L496 11C522 7 548 5 575 5L575 5C590 5 600 9 605 18C610 26 613 41 613 62L613 62L613 164L456 151L366 144L357 202C390 205 412 208 424 213L424 213C460 227 519 260 600 312L600 312L476 298C471 298 464 297 453 296L453 296L394 290L385 339C400 341 415 346 432 355L432 355C450 364 472 378 497 396C522 413 545 430 565 446L565 446L347 446L347 507L602 507L602 574L397 574L397 633L602 633L602 698L384 698L384 758L602 758L602 842L678 842L678 758L896 758L896 698L678 698L678 633L891 633L891 574L678 574L678 507L952 507L952 446L797 446L840 402C786 359 737 322 692 292C647 261 604 237 563 218L563 218L816 238C803 255 787 274 769 295L769 295L820 332C857 289 898 235 943 169L943 169L892 131C881 148 870 166 857 183L857 183ZM85 65L85 744L317 744L317 65L85 65ZM155 669L155 139L247 139L247 669L155 669ZM524 352L684 367C733 400 769 426 793 446L793 446L655 446C604 402 560 371 524 352L524 352ZM494 141L533 86C464 26 396-22 331-57L331-57L296 5C330 22 364 42 399 67C434 91 465 116 494 141L494 141ZM734 80L773 138C802 121 837 99 877 73C916 46 949 23 975 3L975 3L939-56C912-35 879-11 840 15C801 40 766 62 734 80L734 80Z"/>
    <glyph glyph-name="" unicode="&#22150;"
      horiz-adv-x="1000" vert-adv-y="1172"
      d="M732 845L801 845L801 766L959 766L959 705L801 705L801 642L732 642L732 705L558 705L558 641L489 641L489 705L347 705L347 766L489 766L489 845L558 845L558 766L732 766L732 845ZM308 741L308 62L86 62L86 741L308 741ZM593 661L659 685C673 656 685 629 694 604L694 604L945 604L945 548L355 548L355 604L619 604C610 626 602 645 593 661L593 661ZM241 139L241 665L155 665L155 139L241 139ZM867 335L432 335L432 501L867 501L867 335ZM503 446L503 389L795 389L795 446L503 446ZM446-65L377-65L377 292L919 292L919 31C919 6 917-12 912-25C907-38 897-48 883-54C869-60 848-63 821-63L821-63C800-63 775-61 747-58L747-58L736 4C741 3 751 2 766 0C781-2 796-3 809-3L809-3C824-3 835 0 840 7C845 13 847 25 847 44L847 44L847 235L446 235L446-65ZM515 19L515 190L775 190L775 19L515 19ZM578 139L578 69L710 69L710 139L578 139Z"/>
    <glyph glyph-name="
" unicode="&#22282;"
      horiz-adv-x="1000" vert-adv-y="1172"
      d="M173-78L101-78L101 797L903 797L903-77L831-77L831-40L173-40L173-78ZM831 730L173 730L173 25L831 25L831 730ZM740 518L536 518L536 477L792 477L792 427L208 427L208 477L467 477L467 518L264 518L264 568L467 568L467 609L236 609L236 660L467 660L467 709L536 709L536 660L767 660L767 609L536 609L536 568L740 568L740 518ZM348 69L282 69L282 383L720 383L720 146C720 118 714 98 701 85C688 72 666 66 635 66L635 66C600 66 564 68 528 72L528 72L519 122C558 116 591 113 618 113L618 113C634 113 644 116 649 122C654 128 656 137 656 149L656 149L656 160L348 160L348 69ZM348 296L656 296L656 331L348 331L348 296ZM656 247L348 247L348 209L656 209L656 247Z"/>
    <glyph glyph-name="v" unicode="&#22390;"
      horiz-adv-x="1000" vert-adv-y="1172"
      d="M332 503L235 503L235 176L340 206L340 131C318 124 252 104 142 73L142 73L58 49L40 124C58 128 89 136 132 148L132 148L160 156L160 503L52 503L52 577L160 577L160 835L235 835L235 577L332 577L332 503ZM957 471L957 393L875 393C871 289 868 211 865 159L865 159L944 159L944 79L861 79C858 25 847-13 828-35C809-57 775-68 727-68L727-68C689-68 642-65 587-59L587-59L573 17C609 12 652 8 703 6L703 6C730 5 749 10 761 21C772 32 779 51 782 79L782 79L364 79L381 393L303 393L303 471L386 471L403 785L884 785C883 669 880 564 877 471L877 471L957 471ZM806 707L475 707L462 471L801 471C804 577 805 656 806 707L806 707ZM547 632L598 681C629 652 673 607 730 547L730 547L677 495C647 530 604 575 547 632L547 632ZM445 159L787 159C790 211 794 289 798 393L798 393L458 393L445 159ZM719 234L666 184C651 203 631 228 605 257C578 286 555 309 536 327L536 327L586 376C617 347 661 299 719 234L719 234Z"/>
    <glyph glyph-name="" unicode="&#22406;"
      horiz-adv-x="1000" vert-adv-y="1172"
      d="M957 737L957 665L683 665L683 556L905 556L905 226L493 226C487 161 473 106 450 60C427 14 389-37 336-92L336-92L266-40C311 6 345 46 366 81C387 115 400 153 408 196C415 238 418 297 418 373L418 373L418 556L603 556L603 839L683 839L683 737L957 737ZM353 264L363 179C250 130 148 88 57 55L57 55L31 135C62 146 110 165 174 190L174 190L174 514L59 514L59 593L174 593L174 834L253 834L253 593L370 593L370 514L253 514L253 222C291 237 324 251 353 264L353 264ZM497 340L497 305L825 305L825 477L497 477L497 340Z"/>
    <glyph glyph-name="¤" unicode="&#22436;"
      horiz-adv-x="1000" vert-adv-y="1172"
      d="M343 182L352 97C189 54 85 28 42 18L42 18L27 97C48 102 93 114 161 132L161 132L161 489L48 489L48 569L161 569L161 829L239 829L239 569L345 569L345 489L239 489L239 153C290 168 325 177 343 182L343 182ZM689 200L689 34L956 34L956-40L337-40L337 34L606 34L606 200L397 200L397 274L606 274L606 406L464 393C449 391 425 389 391 386L391 386L373 455C389 459 401 465 408 472L408 472C426 490 450 521 481 565C512 609 540 653 566 697L566 697L375 697L375 772L939 772L939 697L662 697C637 657 608 614 577 568C546 522 520 487 501 462L501 462L794 489C767 540 742 580 721 611L721 611L791 643C812 612 836 571 865 521C894 470 918 426 937 388L937 388L866 353L829 426L689 414L689 274L911 274L911 200L689 200Z"/>
    <glyph glyph-name="ô" unicode="&#22516;"
      horiz-adv-x="1000" vert-adv-y="1172"
      d="M672 596L874 596L874 42L958 42L958-28L286-28L286 42L392 42L392 596L594 596L594 684L351 684L351 754L594 754L594 838L672 838L672 754L932 754L932 684L672 684L672 596ZM348 220L348 142C338 137 262 111 119 64L119 64L55 42L34 120L165 161L165 504L58 504L58 583L165 583L165 832L242 832L242 583L349 583L349 504L242 504L242 186L327 213C327 213 334 215 348 220L348 220ZM470 453L798 453L798 527L470 527L470 453ZM470 391L470 315L798 315L798 391L470 391ZM470 179L798 179L798 254L470 254L470 179ZM798 42L798 117L470 117L470 42L798 42Z"/>
    <glyph glyph-name="" unicode="&#22539;"
      horiz-adv-x="1000" vert-adv-y="1172"
      d="M297 223L302 147C219 115 134 86 49 60L49 60L35 140C82 153 117 164 140 171L140 171L140 497L52 497L52 573L140 573L140 834L215 834L215 573L299 573L299 497L215 497L215 195C247 206 274 215 297 223L297 223ZM335 432L335 790L576 790L576 40C576 17 574-1 569-14C564-27 556-36 543-41C530-46 512-49 487-49L487-49C466-49 444-48 423-46L423-46L409 26C433 23 451 22 464 22L464 22C483 22 495 25 501 30C506 35 509 46 509 63L509 63L509 235L400 235C396 180 386 128 371 81C356 34 330-18 295-75L295-75L229-39C261 6 284 48 299 87C314 126 323 170 328 219C333 268 335 339 335 432L335 432ZM655 429L655 790L914 790L914 38C914 13 911-7 906-20C901-33 891-43 878-48C864-54 844-57 817-57L817-57C794-57 772-56 750-54L750-54L738 17C763 14 783 13 796 13L796 13C816 13 829 16 836 23C843 30 846 43 846 62L846 62L846 235L722 235C719 172 713 117 702 71C691 25 673-25 649-79L649-79L585-46C606-3 622 37 632 73C641 108 648 151 651 202C654 253 655 328 655 429L655 429ZM402 542L509 542L509 720L402 720L402 542ZM723 540L846 540L846 720L723 720L723 540ZM402 316L402 305L509 305L509 474L402 474L402 316ZM723 315L723 305L846 305L846 471L723 471L723 315Z"/>
    <glyph glyph-name="" unicode="&#22553;"
      horiz-adv-x="1000" vert-adv-y="1172"
      d="M327 210L327 131C292 118 197 85 44 33L44 33L27 111C40 114 70 124 118 140L118 140L151 151L151 502L44 502L44 580L151 580L151 825L224 825L224 580L322 580L322 502L224 502L224 175L327 210ZM384 342L384 599L522 599L522 711L357 711L357 783L938 783L938 711L750 711L750 599L906 599L906 342L384 342ZM592 711L592 599L680 599L680 711L592 711ZM524 404L524 535L453 535L453 404L524 404ZM680 404L680 535L592 535L592 404L680 404ZM748 535L748 404L835 404L835 535L748 535ZM900 157L691 157L691 40L952 40L952-31L313-31L313 40L616 40L616 157L388 157L388 228L616 228L616 319L691 319L691 228L900 228L900 157Z"/>
    <glyph glyph-name=" " unicode="&#22560;"
      horiz-adv-x="1000" vert-adv-y="1172"
      d="M441 834L512 821C495 742 473 667 448 598L448 598L448-65L379-65L379 440C364 409 344 374 320 334L320 334L281 420C312 467 341 527 369 601C397 675 421 753 441 834L441 834ZM322 510L223 510L223 177L246 185C285 198 313 207 328 213L328 213L328 137C291 123 197 89 48 36L48 36L31 114C62 123 102 136 152 153L152 153L152 510L46 510L46 584L152 584L152 820L223 820L223 584L322 584L322 510ZM489 534L489 604L781 604L788 714L548 714L548 783L865 783L853 604L952 604L952 534L489 534ZM945 195L765 195C782 151 806 113 838 81C870 48 913 17 966-14L966-14L931-77C880-46 839-16 806 15C773 45 747 79 727 118L727 118C710 79 684 44 650 12C615-21 570-52 514-82L514-82L477-17C540 15 587 48 618 83C649 117 669 154 678 195L678 195L487 195L487 262L686 262C687 270 687 288 687 315L687 315L688 369L588 369C578 349 564 324 545 294L545 294L484 331C505 362 523 392 537 421C550 450 563 483 575 522L575 522L642 500L619 437L912 437L912 369L760 369C760 324 759 289 758 262L758 262L945 262L945 195Z"/>
    <glyph glyph-name="e" unicode="&#22629;"
      horiz-adv-x="1000" vert-adv-y="1172"
      d="M158 847L229 847L229 576L336 576L336 499L229 499L229 174L335 204L335 123L310 116C163 73 75 49 46 42L46 42L31 123C46 126 88 137 158 155L158 155L158 499L50 499L50 576L158 576L158 847ZM941 732L353 732L353 800L941 800L941 732ZM867 466L424 466L424 666L867 666L867 466ZM497 605L497 528L794 528L794 605L497 605ZM436-66L368-66L368 400L926 400L926 40C926 0 919-28 905-45C890-62 866-70 831-70L831-70C801-70 771-68 741-64L741-64L729 1C766-4 794-7 813-7L813-7C829-7 840-2 847 8C853 18 856 34 856 56L856 56L856 336L436 336L436-66ZM498 289L547 327C574 292 599 258 622 225L622 225L570 189C563 200 552 216 537 238C522 259 509 276 498 289L498 289ZM811 187L811 122L675 122L675-49L607-49L607 122L477 122L477 187L663 187C680 208 697 232 714 259C731 285 744 307 753 324L753 324L811 298C792 267 767 230 736 187L736 187L811 187Z"/>
    <glyph glyph-name="¼" unicode="&#22716;"
      horiz-adv-x="1000" vert-adv-y="1172"
      d="M172 339L172 288L284 288L284 361L49 361L49 414L284 414L284 457L105 457L105 674L284 674L284 720L72 720L72 773L284 773L284 839L348 839L348 773L561 773L561 720L348 720L348 674L526 674L526 457L348 457L348 414L583 414L583 361L348 361L348 288L461 288L461 339L524 339L524 236L107 236L107 339L172 339ZM595 565L546 606C575 625 595 644 605 661C614 678 619 700 619 726L619 726L619 794L873 794L873 688C873 666 883 655 903 655L903 655L957 655L945 599L875 599C850 599 833 603 824 612C815 620 810 635 810 658L810 658L810 732L681 732L681 696C681 671 675 648 663 628C650 607 628 586 595 565L595 565ZM166 587L284 587L284 629L166 629L166 587ZM348 587L466 587L466 629L348 629L348 587ZM910 552L910 493C875 433 837 385 795 348L795 348C842 320 896 297 956 279L956 279L929 216C858 241 797 273 746 310L746 310C700 279 640 249 567 221L567 221L536 278C597 299 649 323 694 351L694 351C648 392 610 439 580 492L580 492L561 492L561 552L910 552ZM284 544L166 544L166 503L284 503L284 544ZM466 544L348 544L348 503L466 503L466 544ZM841 492L642 492C665 453 699 417 742 384L742 384C786 417 819 453 841 492L841 492ZM869 157L869 97L535 97L535 21L943 21L943-43L54-43L54 21L463 21L463 97L127 97L127 157L463 157L463 205L535 205L535 157L869 157Z"/>
    <glyph glyph-name="" unicode="&#22786;"
      horiz-adv-x="1000" vert-adv-y="1172"
      d="M955 33L912-54C741 12 606 85 507 165L507 165C414 94 281 20 108-57L108-57L63 25C223 90 348 157 439 226L439 226C364 300 300 391 249 498L249 498C206 443 166 395 127 355L127 355L64 415C124 476 180 545 231 624C282 703 320 778 345 849L345 849L433 828C420 790 400 747 375 699L375 699L821 699L821 618C786 529 751 453 714 392C677 330 631 274 576 223L576 223C669 153 796 90 955 33L955 33ZM305 579C356 460 423 361 507 282L507 282C555 327 596 376 631 429C665 482 697 545 727 616L727 616L328 616L305 579Z"/>
    <glyph glyph-name="%" unicode="&#22821;"
      horiz-adv-x="1000" vert-adv-y="1172"
      d="M742 370L944 370L944 302C913 241 878 189 838 144C797 99 748 59 690 23C632-13 560-48 475-81L475-81L440-19C519 10 585 40 638 71C691 102 735 135 772 172C808 209 841 253 870 304L870 304L692 304C677 286 661 268 644 250L644 250C668 232 694 209 723 182L723 182L676 131C651 156 625 181 597 205L597 205C575 185 552 166 528 148L528 148L484 205C539 243 585 283 624 325C662 367 695 413 723 462L723 462C669 427 602 393 522 362L522 362L492 426C577 456 647 491 703 531C759 570 808 619 850 677L850 677L660 677L627 638C652 618 676 597 699 575L699 575L653 526C629 551 606 573 583 592L583 592C566 575 548 559 529 544L529 544L488 598C531 631 569 668 603 711C637 754 665 798 687 845L687 845L752 822C741 799 726 773 708 743L708 743L926 743L926 673C899 630 870 593 839 560C808 527 774 497 735 470L735 470L789 446C772 416 756 391 742 370L742 370ZM475 104L433 42C421 53 411 62 404 69L404 69C359 112 326 141 306 157L306 157L306-71L241-71L241 197C220 157 197 120 170 85C143 50 110 14 72-21L72-21L31 43C68 73 102 108 134 148C166 187 192 229 213 272L213 272L50 272L50 341L241 341L241 421L81 421L81 793L463 793L463 421L306 421L306 341L482 341L482 272L306 272L306 233C331 216 359 196 391 172C422 147 450 125 475 104L475 104ZM145 636L241 636L241 728L145 728L145 636ZM306 728L306 636L402 636L402 728L306 728ZM241 573L145 573L145 484L241 484L241 573ZM402 573L306 573L306 484L402 484L402 573Z"/>
    <glyph glyph-name="" unicode="&#23048;"
      horiz-adv-x="1000" vert-adv-y="1172"
      d="M435 449L358 449L358 661L72 661L72 735L475 735L426 835L507 855C522 829 542 789 567 735L567 735L930 735L930 661L643 661L643 445L565 445L565 661L435 661L435 449ZM267 618L314 558C283 529 247 499 204 467C161 434 119 406 80 383L80 383L41 452C81 475 122 502 163 532C204 561 238 590 267 618L267 618ZM682 555L721 616C756 596 836 546 961 466L961 466L925 397C822 467 741 520 682 555L682 555ZM351 414L434 396L405 336L941 336L941 262L759 262C744 227 726 196 704 168C682 139 654 113 619 89L619 89C729 52 824 20 904-7L904-7L871-80C786-49 672-9 531 39L531 39C425-10 278-50 89-79L89-79L60-1C214 20 335 45 423 75L423 75C333 106 255 130 190 149L190 149C218 184 245 221 270 262L270 262L55 262L55 336L313 336C329 367 342 393 351 414L351 414ZM667 262L364 262C350 238 333 212 313 183L313 183C366 170 437 148 526 119L526 119C561 139 590 161 613 184C636 207 654 233 667 262L667 262Z"/>
    <glyph glyph-name="µ" unicode="&#23221;"
      horiz-adv-x="1000" vert-adv-y="1172"
      d="M890 268L890 214L816 214C793 153 766 107 735 74L735 74L925-8L891-75C826-42 755-8 678 27L678 27C648 8 610-10 565-25C519-41 461-57 391-73L391-73L366-4C475 18 553 40 602 61L602 61C571 75 521 97 450 127L450 127C471 152 492 181 511 214L511 214L429 214L429 262L387 234L345 295C384 320 417 343 442 362C467 381 488 401 505 420L505 420L369 420L369 487L551 487C563 512 573 539 581 569L581 569L395 569L395 637L596 637C611 714 620 784 625 845L625 845L699 835C688 743 679 677 671 637L671 637L927 637L927 569L655 569C646 534 637 507 628 487L628 487L948 487L948 420L812 420C830 397 851 378 875 362C899 346 929 331 964 318L964 318L930 245L890 268ZM560 687L503 644C486 669 461 704 428 748L428 748C422 755 414 766 403 781L403 781L459 820C497 771 531 727 560 687L560 687ZM842 817L898 778C870 737 835 691 792 640L792 640L736 680C779 730 814 776 842 817L842 817ZM104 417L104 789L344 789L344 36C344 1 338-25 325-40C312-55 291-63 260-63L260-63C245-63 224-62 196-59L196-59L182 14C209 10 228 8 241 8L241 8C255 8 264 12 269 19C274 26 276 41 276 62L276 62L276 245L172 245C169 173 162 113 150 64C138 15 120-33 97-81L97-81L32-45C52-4 67 33 77 68C86 103 93 147 98 200C102 253 104 325 104 417L104 417ZM173 548L276 548L276 712L173 712L173 548ZM276 475L173 475L173 319L276 319L276 475ZM451 278L547 278C564 310 580 344 595 381L595 381L660 360C651 337 639 309 623 278L623 278L874 278C813 317 763 365 725 420L725 420L594 420C577 395 558 371 535 348C512 325 484 302 451 278L451 278ZM668 102C684 116 697 132 708 150C719 167 729 189 738 214L738 214L589 214C573 186 560 165 549 150L549 150C574 141 614 125 668 102L668 102Z"/>
    <glyph glyph-name="2" unicode="&#23346;"
      horiz-adv-x="1000" vert-adv-y="1172"
      d="M612 101L564 50L517 117C496 68 464 12 423-50L423-50L366-3C413 56 448 117 471 180L471 180C446 213 419 246 389 281L389 281C405 354 419 453 431 578L431 578L390 578L390 653L438 653C443 706 447 768 451 838L451 838L512 835C509 772 505 712 500 653L500 653L597 653L597 577C591 483 584 407 577 349C569 290 558 238 544 192L544 192L612 101ZM362 399L221 399L219 320L365 320C365 281 364 234 361 179C358 124 355 84 351 58L351 58C346 27 341 4 335-9C329-23 320-33 307-38C294-43 274-46 246-46L246-46C233-46 213-45 188-42L188-42L176 26C198 21 217 19 233 19L233 19C250 19 262 23 269 30C276 37 281 51 285 71L285 71C289 92 292 120 294 153C296 186 297 220 296 253L296 253L217 253C214 204 208 163 200 129C191 94 178 61 159 30C140-2 114-35 80-69L80-69L28-23C59 8 82 36 99 63C116 90 128 117 135 147C142 176 148 211 151 253L151 253L51 253L51 320L154 320L156 399L83 399L83 792L362 792L362 399ZM768 319L924 319C924 282 922 235 919 177C916 119 912 73 908 40L908 40C904 7 895-16 883-30C870-45 848-52 819-52L819-52C803-52 778-51 745-48L745-48L732 21C755 16 775 14 792 14L792 14C807 14 819 18 827 27C834 35 839 48 842 66L842 66C851 135 856 196 856 251L856 251L765 251C762 202 754 160 743 125C732 90 714 57 690 27C665-4 631-37 588-73L588-73L541-21C582 12 614 41 636 67C657 92 673 119 682 147C691 175 697 210 700 251L700 251L611 251L611 319L703 319L706 399L628 399L628 789L915 789L915 399L771 399L768 319ZM142 626L195 626L195 725L142 725L142 626ZM249 725L249 626L306 626L306 725L249 725ZM682 627L743 627L743 724L682 724L682 627ZM798 724L798 627L857 627L857 724L798 724ZM457 306L494 257C513 332 527 439 536 578L536 578L493 578C483 469 471 378 457 306L457 306ZM195 463L195 564L142 564L142 463L195 463ZM306 564L249 564L249 463L306 463L306 564ZM743 465L743 564L682 564L682 465L743 465ZM857 564L798 564L798 465L857 465L857 564Z"/>
    <glyph glyph-name="e" unicode="&#23397;"
      horiz-adv-x="1000" vert-adv-y="1172"
      d="M465 492L433 427L320 487C291 468 255 451 214 435C172 418 121 402 62 386L62 386L39 451C131 475 201 499 250 524L250 524C194 552 147 574 110 591L110 591C125 618 141 649 156 683L156 683L50 683L50 749L184 749C197 782 209 818 220 855L220 855L292 840C283 810 273 780 260 749L260 749L472 749L472 687C459 654 446 625 432 601C417 576 400 554 380 535L380 535L465 492ZM530 424L499 490C562 510 614 532 656 557L656 557C611 602 573 654 543 715L543 715L512 715L512 782L890 782L890 715C857 650 817 596 770 555L770 555C821 522 884 493 958 468L958 468L933 399C844 428 770 465 711 510L711 510C662 477 601 449 530 424L530 424ZM807 715L615 715C644 670 677 630 714 597L714 597C751 630 782 669 807 715L807 715ZM201 617C244 599 282 582 317 565L317 565C355 595 383 634 401 683L401 683L233 683C224 662 213 640 201 617L201 617ZM815 324L550 209L550 195L935 195L935 126L550 126L550 51C550 21 547-2 541-19C534-36 523-48 508-55C492-63 469-67 440-68L440-68C391-69 341-67 291-62L291-62L276 10C332 3 377-1 412 0L412 0C431 1 446 7 455 18C464 29 468 46 468 69L468 69L468 126L64 126L64 195L468 195L468 243L652 321L176 321L176 387L815 387L815 324Z"/>
    <glyph glyph-name="" unicode="&#23428;"
      horiz-adv-x="1000" vert-adv-y="1172"
      d="M809 648L186 648L186 507L102 507L102 723L467 723C446 770 428 808 414 835L414 835L500 853L528 792L559 723L890 723L890 503L809 503L809 648ZM883 227L960 211C960 187 959 159 958 126C957 93 955 69 954 54L954 54C951 13 942-15 927-31C912-47 884-57 845-60L845-60C832-61 813-62 787-62L787-62C761-62 741-61 728-60L728-60C695-57 672-47 658-29C644-11 637 20 637 63L637 63L637 353L430 353C425 283 413 223 393 175C372 126 340 81 297 41C254 1 194-40 117-83L117-83L70-11C141 25 196 60 235 95C274 129 301 166 318 206C335 246 345 295 349 353L349 353L118 353L118 432L353 432L355 581L436 581C436 526 435 477 434 432L434 432L720 432L720 78C720 57 723 42 728 34C733 25 741 20 752 19L752 19C769 18 782 17 791 17L791 17C800 17 813 18 830 19L830 19C847 21 859 26 865 34C870 41 874 56 875 77L875 77C877 98 879 124 881 155C882 186 883 210 883 227L883 227Z"/>
    <glyph glyph-name="ä" unicode="&#23524;"
      horiz-adv-x="1000" vert-adv-y="1172"
      d="M844 681L162 681L162 595L89 595L89 749L470 749C457 786 445 815 435 837L435 837L513 859C528 822 540 785 551 749L551 749L918 749L918 620L844 620L844 681ZM197 441L290 441L290 629L365 629L365-76L290-76L290 223L207 223L207 183C206 125 198 77 183 40C168 2 142-37 105-77L105-77L47-36C84-1 109 32 123 62C136 92 142 133 142 184L142 184L142 223L57 223L57 287L290 287L290 376L126 376L126 568L197 568L197 441ZM626 472L853 472L847 324L943 324L943 264L402 264L402 324L518 324L538 414L440 414L440 472L551 472L566 539L427 539L427 600L895 600L895 539L641 539L626 472ZM774 324L777 414L612 414L592 324L774 324ZM528-30L528-76L453-76L453 200L880 200L880-76L804-76L804-30L528-30ZM528 32L804 32L804 138L528 138L528 32Z"/>
    <glyph glyph-name="" unicode="&#23580;"
      horiz-adv-x="1000" vert-adv-y="1172"
      d="M459 594L459 838L541 838L541 594L459 594ZM333 776L384 710C351 682 310 652 262 619C213 586 167 557 124 532L124 532L79 602C124 627 169 655 215 686C261 717 300 747 333 776L333 776ZM920 603L875 537C760 615 674 672 617 708L617 708L664 771C775 700 860 644 920 603L920 603ZM927 416L643 416C679 376 723 342 775 313C827 284 889 259 962 240L962 240L934 162C757 211 629 296 550 416L550 416L459 416C421 361 372 314 311 274C250 233 169 194 67 157L67 157L35 239C114 264 179 291 231 320C282 348 324 380 357 416L357 416L71 416L71 488L408 488C420 509 431 534 442 563L442 563L527 546C519 526 510 507 501 488L501 488L927 488L927 416ZM467 85L467 321L552 321L552 57C552 10 543-23 526-41C509-60 477-69 432-69L432-69C399-69 367-67 335-63L335-63L319 19C358 13 391 10 417 10L417 10C432 10 443 12 450 16C457 19 461 26 464 37C466 47 467 63 467 85L467 85ZM632 185L685 233C719 202 758 167 802 126C846 85 886 48 921 14L921 14L860-39C802 20 726 95 632 185L632 185ZM304 228L366 179C339 142 304 103 263 61C222 19 178-19 132-52L132-52L77 12C124 44 166 79 205 117C244 155 277 192 304 228L304 228Z"/>
    <glyph glyph-name=""" unicode="&#23586;"
      horiz-adv-x="1000" vert-adv-y="1172"
      d="M939 638L939 560L482 560C475 467 457 385 430 314C402 243 361 176 308 115C254 53 183-10 95-73L95-73L43 3C128 61 194 117 243 171C292 225 328 283 351 344C374 405 389 477 396 560L396 560L71 560L71 638L400 638C403 718 404 786 404 841L404 841L489 841C489 787 488 719 485 638L485 638L939 638ZM859 243L940 225C940 216 940 208 939 201L939 201C937 131 936 91 935 80L935 80C933 50 928 27 919 12C910-4 897-16 878-23C859-30 833-35 798-37L798-37C780-38 753-39 718-39L718-39C682-39 655-38 637-37L637-37C606-35 582-30 565-22C548-15 535-2 528 16C520 33 516 59 516 92L516 92L516 506L595 506L595 110C595 91 597 76 601 67C604 58 611 51 620 47C629 42 642 39 661 38L661 38C688 37 708 36 721 36L721 36C734 36 754 37 781 38L781 38C802 39 818 42 828 46C837 49 844 56 848 65C852 74 855 89 856 109L856 109C859 184 860 228 859 243L859 243Z"/>
    <glyph glyph-name="f" unicode="&#23654;"
      horiz-adv-x="1000" vert-adv-y="1172"
      d="M896 599L203 599L203 447C203 326 196 226 182 146C168 66 144-9 111-78L111-78L37-45C61 6 79 53 92 98C105 143 114 193 119 248C124 303 127 373 127 457L127 457L127 801L896 801L896 599ZM203 661L823 661L823 737L203 737L203 661ZM253 364L210 413C240 440 270 470 300 503C329 536 354 567 375 598L375 598L425 556C402 525 375 492 344 458C313 423 283 392 253 364L253 364ZM859 581L898 545C877 524 844 494 801 455L801 455L929 455L929 401L734 401C785 359 856 322 948 289L948 289L925 236C875 257 833 276 800 294C766 312 735 333 708 356L708 356L708 264L645 264L645 356C591 311 519 271 429 236L429 236L401 293C494 321 567 357 620 401L620 401L440 401L440 455L551 455C537 470 508 498 464 538L464 538L502 575C522 558 553 529 595 488L595 488L561 455L645 455L645 575L708 575L708 455L790 455L759 488C774 500 791 515 811 534C831 552 847 568 859 581L859 581ZM372 430L422 394C401 357 378 323 354 290L354 290L354-74L290-74L290 210C265 181 243 159 226 143L226 143L194 200C224 228 256 264 290 308C323 351 351 392 372 430L372 430ZM956-19L929-78C872-54 797-25 704 8L704 8C671-9 632-23 585-35C538-47 479-59 408-70L408-70L386-11C491 4 568 21 618 38L618 38C563 57 513 74 468 88L468 88C487 114 502 137 514 156L514 156L402 156L402 212L547 212C561 236 573 258 582 279L582 279L650 256L625 212L952 212L952 156L842 156C821 111 796 75 765 49L765 49C844 22 908-1 956-19L956-19ZM563 115C591 107 635 93 694 73L694 73C727 94 753 121 771 156L771 156L591 156C590 153 580 140 563 115L563 115Z"/>
    <glyph glyph-name="n" unicode="&#23662;"
      horiz-adv-x="1000" vert-adv-y="1172"
      d="M770 360L770 725L853 725L853 280L541 280L541-68L457-68L457 280L145 280L145 722L229 722L229 360L457 360L457 831L541 831L541 360L770 360Z"/>
    <glyph glyph-name="" unicode="&#23688;"
      horiz-adv-x="1000" vert-adv-y="1172"
      d="M342 149L342 700L409 700L409 71L73 51L73 700L141 700L141 134L208 139L208 841L275 841L275 144L342 149ZM831 461L946 461L946 384L831 384L831 61C831 28 828 4 821-13C814-30 803-43 786-50C769-57 743-61 710-61L710-61C667-61 630-59 599-56L599-56L583 21C623 16 657 14 685 14L685 14C706 14 722 16 732 20C742 23 749 30 753 40C757 49 759 64 759 84L759 84L759 384C724 307 683 237 637 173C591 108 530 47 455-10L455-10L397 53C466 101 522 152 563 205C604 258 642 317 675 384L675 384L482 384L482 459C487 475 495 505 507 549C518 592 525 622 528 639L528 639L605 634C604 629 595 593 579 526L579 526L563 461L759 461L759 700L461 700L461 778L945 778L945 700L831 700L831 461Z"/>
    <glyph glyph-name="" unicode="&#23693;"
      horiz-adv-x="1000" vert-adv-y="1172"
      d="M339 142L339 680L409 680L409 67L76 47L76 676L146 676L146 127L207 132L207 829L277 829L277 137L339 142ZM840 413L959 413L959 336L840 336L840-72L767-72L767 336L620 336C618 266 612 209 603 165C594 121 579 81 559 45C539 9 509-33 469-80L469-80L402-33C440 10 469 47 489 80C508 113 522 148 531 187C539 225 544 275 546 336L546 336L441 336L441 413L547 413L547 428L547 698L459 698L459 775L938 775L938 698L840 698L840 413ZM621 436L621 413L767 413L767 698L621 698L621 436Z"/>
    <glyph glyph-name="µ" unicode="&#23733;"
      horiz-adv-x="1000" vert-adv-y="1172"
      d="M741 666L945 666L945 591L741 591L741 391L899 391L899-66L826-66L826-3L581-3L581-66L508-66L508 391L666 391L666 591L468 591L468 666L666 666L666 844L741 844L741 666ZM291 829L291 94L354 99L354 676L425 676L425 25L88 5L88 675L160 675L160 85L222 89L222 829L291 829ZM581 317L581 71L826 71L826 317L581 317Z"/>
    <glyph glyph-name=">" unicode="&#23870;"
      horiz-adv-x="1000" vert-adv-y="1172"
      d="M243 830L243 102L297 110L297 675L360 675L360 46L60 8L60 670L123 670L123 85L179 93L179 830L243 830ZM428 389L428 626L568 626L568 717L408 717L408 786L936 786L936 717L768 717L768 626L907 626L907 389L428 389ZM630 717L630 626L704 626L704 717L630 717ZM568 451L568 562L492 562L492 451L568 451ZM704 451L704 562L630 562L630 451L704 451ZM768 451L842 451L842 562L768 562L768 451ZM950 288L950 220L830 220C809 159 783 112 750 77L750 77L942-12L905-75C867-54 797-19 695 30L695 30C664 9 625-9 579-25C533-42 475-58 406-73L406-73L380-5C490 16 570 39 620 64L620 64C554 95 504 116 471 129L471 129C484 151 501 181 520 220L520 220L391 220L391 288L552 288C567 321 578 351 587 376L587 376L658 359C655 348 646 324 631 288L631 288L950 288ZM684 107C701 122 715 138 726 156C737 174 748 195 757 220L757 220L599 220C582 186 571 166 566 159L566 159C593 148 622 135 653 121L653 121L684 107Z"/>
    <glyph glyph-name="Û" unicode="&#24027;"
      horiz-adv-x="1000" vert-adv-y="1172"
      d="M72 391C110 450 148 519 187 597C225 675 255 745 276 808L276 808L357 779C334 720 305 654 268 581C231 508 196 444 162 390L162 390C261 218 334 86 380-5L380-5L301-40C273 19 237 89 194 170C150 251 109 325 72 391L72 391ZM337 391C374 449 410 516 447 592C484 668 514 739 537 805L537 805L618 776C595 713 566 647 531 576C496 505 462 443 429 390L429 390C527 217 598 87 642 0L642 0L563-36C501 91 426 233 337 391L337 391ZM604 391C641 450 679 517 716 594C753 671 783 741 806 805L806 805L885 777C862 714 833 647 798 575C763 503 729 441 696 390L696 390C797 211 869 80 910-3L910-3L832-38C800 26 763 99 720 180C677 261 638 331 604 391L604 391Z"/>
    <glyph glyph-name="^" unicode="&#24158;"
      horiz-adv-x="1000" vert-adv-y="1172"
      d="M190 840L253 840L253 667L372 667L372 186C372 157 367 137 358 127C349 116 332 111 309 111L309 111C298 111 287 112 276 114L276 114L263 182C275 179 284 178 290 178L290 178C297 178 303 181 307 187C310 192 312 202 312 217L312 217L312 592L251 592L251-69L192-69L192 592L133 592L133 117L71 117L71 667L190 667L190 840ZM934 146L702 146C746 76 831 26 958-3L958-3L933-73C870-58 817-38 775-11C732 16 695 51 664 94L664 94C645 55 614 22 572-6C530-34 473-58 400-78L400-78L374-8C447 11 501 32 538 56C575 80 600 110 613 146L613 146L398 146L398 208L627 208C629 227 630 248 630 269L630 269L630 276L438 276L438 334L630 334L630 401L419 401L419 462L540 462C533 493 525 527 515 566L515 566L401 566L401 628L562 628L562 839L626 839L626 628L705 628L705 839L767 839L767 628L927 628L927 566L821 566C813 529 804 494 793 462L793 462L910 462L910 401L698 401L698 334L892 334L892 276L698 276L698 274C698 251 697 229 695 208L695 208L934 208L934 146ZM548 690L502 651C491 668 474 690 453 717C431 743 412 764 397 780L397 780L439 817C454 802 473 781 496 755C519 729 536 707 548 690L548 690ZM892 812L937 773C926 757 910 736 887 710C864 683 844 662 827 647L827 647L783 686C800 703 819 724 841 750C863 775 880 796 892 812L892 812ZM756 566L577 566L583 543C590 515 596 488 601 462L601 462L730 462C741 499 749 533 756 566L756 566Z"/>
    <glyph glyph-name="" unicode="&#24192;"
      horiz-adv-x="1000" vert-adv-y="1172"
      d="M615 729L944 729L944 646L236 646L236 498C236 395 233 310 226 244C219 178 208 121 192 74C176 26 154-22 125-70L125-70L51-13C79 32 100 75 114 115C128 154 138 203 144 261C149 319 152 398 152 498L152 498L152 729L525 729C508 766 493 798 479 826L479 826L555 854C574 817 594 776 615 729L615 729ZM841 119C843 179 844 223 844 250L844 250L926 231C926 206 925 178 924 147C923 115 921 90 919 73L919 73C916 42 911 17 902 0C893-17 879-30 860-39C841-48 815-53 782-56L782-56C732-59 687-61 646-61L646-61C606-61 560-59 509-56L509-56C476-53 450-47 433-37C416-28 404-13 397 8C390 29 387 58 387 96L387 96L387 591L470 591L470 341C530 363 595 391 665 425C734 459 797 493 854 527L854 527L891 449C836 417 767 382 684 344C601 305 530 275 470 253L470 253L470 112C470 80 474 58 482 46C490 33 506 26 530 24L530 24C565 21 603 20 645 20L645 20C688 20 726 21 760 24L760 24C791 27 811 35 823 48C834 61 840 84 841 119L841 119Z"/>
    <glyph glyph-name="è" unicode="&#24296;"
      horiz-adv-x="1000" vert-adv-y="1172"
      d="M552 611L552 560L490 475L576 475L576 15C576-14 570-34 559-44C548-54 527-59 498-59L498-59C483-59 467-58 452-56L452-56L445-16L392-16L392 129L324 129C321 90 315 55 306 25C296-5 281-38 261-75L261-75L202-43C221-10 235 19 244 44C253 69 258 98 261 130C264 162 265 208 265 268L265 268L265 429L241 404L197 451L197 436C197 345 194 272 189 218C184 163 174 114 161 72C148 29 127-21 99-77L99-77L31-40C58 15 79 63 92 104C105 145 113 190 118 239C123 288 125 353 125 435L125 435L125 757L511 757C493 789 479 814 468 831L468 831L551 851L602 757L946 757L946 689L197 689L197 453C268 524 320 599 353 679L353 679L415 659C407 640 399 624 392 611L392 611L552 611ZM626 365L587 412C618 434 641 455 655 475C668 494 677 518 682 545L682 545L686 567L604 567L604 626L927 626C925 576 921 527 915 478L915 478C912 455 907 438 899 427C891 416 880 410 868 407C855 404 834 403 807 403L807 403C788 403 770 404 752 406L752 406L741 462C763 459 783 457 800 457L800 457C818 457 830 459 836 464C842 468 846 478 849 494L849 494C853 517 856 541 858 567L858 567L747 567L741 527C731 464 693 410 626 365L626 365ZM474 553L359 553C338 521 320 495 304 475L304 475L414 475L474 553ZM326 330L392 330L392 415L326 415L326 330ZM450 415L450 330L517 330L517 415L450 415ZM820 144L958 144L958 85L820 85L820-73L756-73L756 85L596 85L596 144L756 144L756 238L676 238C667 210 657 184 646 161L646 161L589 182C614 231 636 294 653 369L653 369L708 355C702 327 698 308 695 299L695 299L756 299L756 370L820 370L820 299L938 299L938 238L820 238L820 144ZM326 197L326 187L392 187L392 273L326 273L326 197ZM450 273L450 187L517 187L517 273L450 273ZM486 4C499 3 507 5 511 10C515 14 517 23 517 36L517 36L517 129L450 129L450 7L486 4Z"/>
    <glyph glyph-name="*" unicode="&#24362;"
      horiz-adv-x="1000" vert-adv-y="1172"
      d="M358 487L176 487L163 347L360 347C359 246 355 155 349 72L349 72C346 41 341 17 333 0C325-17 312-30 294-38C275-47 249-51 216-51L216-51C172-51 135-49 104-46L104-46L88 31C131 26 171 23 208 23L208 23C231 23 246 27 255 35C263 43 268 59 271 82L271 82C278 147 281 210 281 271L281 271L82 271L104 563L279 563L279 706L76 706L76 782L358 782L358 487ZM414 351L373 424C456 459 531 501 598 548C665 595 718 645 757 697L757 697L436 697L436 775L865 775L865 702C830 653 787 604 736 557L736 557C819 513 895 469 966 425L966 425L922 356C843 407 761 457 674 505L674 505C595 444 508 392 414 351L414 351ZM896 320L896 242L706 242L706 42L950 42L950-35L371-35L371 42L625 42L625 242L434 242L434 320L896 320Z"/>
    <glyph glyph-name="P" unicode="&#24400;"
      horiz-adv-x="1000" vert-adv-y="1172"
      d="M783 670L111 670L111 756L868 756L868-68L783-68L783-1L87-1L87 81L783 81L783 344L141 344L141 429L783 429L783 670Z"/>
    <glyph glyph-name="a" unicode="&#24417;"
      horiz-adv-x="1000" vert-adv-y="1172"
      d="M207 509L167 583C257 612 349 649 444 694C539 739 620 784 689 830L689 830L735 764C662 717 578 670 484 625C390 579 298 540 207 509L207 509ZM229 236L189 312C286 345 379 385 470 431C560 476 639 524 708 573L708 573L759 511C686 458 603 408 511 360C418 312 324 271 229 236L229 236ZM181-70L140 9C408 89 624 195 787 328L787 328L843 263C760 198 662 137 549 80C436 23 313-27 181-70L181-70Z"/>
    <glyph glyph-name="í" unicode="&#24557;"
      horiz-adv-x="1000" vert-adv-y="1172"
      d="M954 650L954 573L672 573L672 461C709 434 754 401 807 361C859 321 904 286 941 256L941 256L890 187C835 236 762 295 672 364L672 364L672-74L590-74L590 573L384 573L384 650L641 650L585 763L554 825L626 853C662 787 693 727 719 674L719 674L662 650L954 650ZM273 841L273 650C320 607 367 561 414 514L414 514L366 457L342 481C296 527 273 550 273 550L273 550L273-70L192-70L192 841L273 841ZM105 301L31 318C41 363 51 419 60 488C69 557 77 621 82 680L82 680L157 668C152 616 144 554 134 482C124 410 114 350 105 301L105 301Z"/>
    <glyph glyph-name="]" unicode="&#24669;"
      horiz-adv-x="1000" vert-adv-y="1172"
      d="M464 389L315 389L315 298L240 298L240 389L59 389L59 457L240 457L240 535L92 535L92 601L240 601L240 680L74 680L74 745L240 745L240 840L315 840L315 745L472 745L472 680L315 680L315 601L461 601L461 535L315 535L315 457L464 457L464 389ZM876 445C871 415 865 392 858 376C850 359 840 347 827 340C814 333 796 329 773 328L773 328C745 327 712 329 673 332L673 332L659 404C688 400 716 398 745 398L745 398C762 398 776 404 785 415C794 426 800 444 803 469L803 469C814 547 821 626 823 706L823 706L679 706L676 673C666 584 651 513 632 458C613 403 583 354 542 311L542 311L480 358C518 399 546 444 565 492C584 540 596 600 601 671L601 671C602 690 603 701 603 706L603 706L518 706L518 778L902 778C901 733 898 675 893 606C888 537 882 483 876 445L876 445ZM608 149L543 107C530 129 515 154 497 181C478 208 462 230 447 248L447 248L507 289C523 270 541 247 561 220C580 193 596 169 608 149L608 149ZM756 233L821 269C840 240 864 201 891 152C918 103 940 62 955 29L955 29L885-6C869 29 848 70 822 119C796 168 774 206 756 233L756 233ZM107-23L37 14C57 46 78 85 99 132C120 178 136 220 149 258L149 258L222 233C209 192 191 148 170 99C148 50 127 10 107-23L107-23ZM655 81L659 160L734 140C733 107 730 77 726 48L726 48C724 22 719 2 711-11C703-25 692-35 677-40C662-46 640-50 613-51L613-51C578-53 543-54 507-54L507-54C472-54 436-53 400-51L400-51C371-49 348-44 333-37C317-30 306-19 299-2C292 14 288 38 288 69L288 69L288 253L368 253L368 87C368 63 372 47 380 40C388 32 404 27 429 25L429 25C466 22 494 21 512 21L512 21C531 21 558 22 594 25L594 25C617 27 632 31 641 39C649 46 654 60 655 81L655 81Z"/>
    <glyph glyph-name="g" unicode="&#24679;"
      horiz-adv-x="1000" vert-adv-y="1172"
      d="M127 624L404 624C412 645 424 680 441 730L441 730L65 730L65 799L923 799L923 730L531 730C520 695 507 659 493 624L493 624L863 624L863 400C863 361 856 334 842 318C828 302 805 293 772 292L772 292C741 291 714 292 691 295L691 295L676 368C693 365 713 363 736 363L736 363C754 363 767 368 774 377C781 386 785 401 785 422L785 422L785 553L644 553L644 321L566 321L566 553L424 553L424 321L347 321L347 553L206 553L206 288L127 288L127 624ZM432 271L484 311C530 260 571 210 607 162L607 162L546 118C510 171 472 222 432 271L432 271ZM651 85C655 119 657 146 657 165L657 165L732 143C731 124 729 94 725 55L725 55C721 20 711-5 694-18C677-32 647-41 606-44L606-44C575-47 539-48 499-48L499-48C460-48 424-47 392-44L392-44C353-41 326-32 310-16C293 0 285 27 285 65L285 65L285 267L364 267L364 92C364 68 368 52 376 44C383 35 397 30 418 29L418 29C457 26 486 25 505 25L505 25C524 25 552 26 591 29L591 29C614 31 629 36 637 43C644 50 649 64 651 85L651 85ZM747 223L808 258C852 197 901 122 954 35L954 35L884-3C834 86 788 161 747 223L747 223ZM106-16L35 25C57 59 78 97 99 138C120 179 137 218 151 257L151 257L225 228C210 189 192 148 171 104C150 60 128 20 106-16L106-16Z"/>
    <glyph glyph-name="" unicode="&#24731;"
      horiz-adv-x="1000" vert-adv-y="1172"
      d="M477 554C445 550 409 545 368 540L368 540L354 615C363 617 371 620 378 623C384 626 391 630 399 635L399 635C425 656 458 689 497 734C536 778 569 818 594 854L594 854L658 814C631 779 603 744 572 709C541 673 512 643 486 620L486 620L775 648L752 671C724 699 705 718 694 728L694 728L746 778C819 707 886 640 947 576L947 576L894 525L833 588C709 578 590 567 477 554L477 554ZM363 542L332 481C295 518 268 544 249 561L249 561L249-75L177-75L177 837L249 837L249 640C284 612 322 579 363 542L363 542ZM97 297L28 312C37 355 48 413 59 487C70 561 79 624 84 675L84 675L150 665C145 614 137 551 126 476C115 400 106 340 97 297L97 297ZM682 486L723 549C756 530 797 504 847 473C896 442 936 416 967 395L967 395L931 333C899 354 858 380 809 411C759 441 717 466 682 486L682 486ZM332 325L292 389C331 410 372 435 415 464C457 492 493 519 523 545L523 545L567 489C492 426 413 371 332 325L332 325ZM858 350L858 281C836 242 813 208 788 177C763 146 734 119 702 94L702 94C772 56 859 24 964-1L964-1L932-73C809-36 712 5 639 50L639 50C600 26 555 4 504-17C452-38 391-59 321-80L321-80L287-9C409 24 505 59 574 96L574 96C531 130 494 170 463 215L463 215C427 175 387 137 343 101L343 101L295 158C340 193 384 237 427 288C470 339 502 387 524 430L524 430L588 399L562 350L858 350ZM511 274C545 219 587 173 637 136L637 136C690 173 735 222 772 281L772 281L516 281L511 274Z"/>
    <glyph glyph-name="" unicode="&#24733;"
      horiz-adv-x="1000" vert-adv-y="1172"
      d="M372 541L319 475C291 523 270 558 255 581L255 581L255-71L181-71L181 837L255 837L255 680C290 641 329 595 372 541L372 541ZM911 146L677 146L677 38L952 38L952-34L316-34L316 38L603 38L603 146L362 146L362 219L603 219L603 326L385 326L385 785L896 785L896 326L677 326L677 219L911 219L911 146ZM460 591L603 591L603 711L460 711L460 591ZM677 711L677 591L820 591L820 711L677 711ZM100 299L29 314C40 365 51 423 62 490C72 557 80 617 85 670L85 670L154 659C143 555 125 435 100 299L100 299ZM603 519L460 519L460 398L603 398L603 519ZM820 519L677 519L677 398L820 398L820 519Z"/>
    <glyph glyph-name="J" unicode="&#24906;"
      horiz-adv-x="1000" vert-adv-y="1172"
      d="M889 226L781 226C804 191 829 157 858 126C887 95 920 62 959 29L959 29L920-38C881-2 847 33 818 68C789 103 762 140 738 180L738 180L738-78L671-78L671 226L585 226L585-78L517-78L517 176C476 99 420 27 351-39L351-39L306 25C381 90 438 157 477 226L477 226L383 226L383 291L517 291L517 369L358 369L358 435L517 435L517 512L402 512L402 577L517 577L517 662L366 662L366 730L492 730C469 779 455 809 448 821L448 821L515 841C522 829 541 792 572 730L572 730L685 730C709 773 728 811 743 845L743 845L813 823C800 794 784 763 765 730L765 730L921 730L921 662L738 662L738 577L889 577L889 435L954 435L954 369L889 369L889 226ZM359 559L326 496C303 519 279 542 252 567L252 567L252-74L181-74L181 836L252 836L252 647C291 616 326 587 359 559L359 559ZM112 301L46 310C55 357 63 415 72 484C81 552 87 613 91 668L91 668L156 664C152 613 145 550 136 474C127 398 119 340 112 301L112 301ZM671 577L671 662L585 662L585 577L671 577ZM671 435L671 512L585 512L585 435L671 435ZM738 435L822 435L822 512L738 512L738 435ZM671 369L585 369L585 291L671 291L671 369ZM738 369L738 291L822 291L822 369L738 369Z"/>
    <glyph glyph-name="]" unicode="&#24925;"
      horiz-adv-x="1000" vert-adv-y="1172"
      d="M462 176L490 194L122 194L122 803L924 803L924 742L194 742L194 256L939 256L939 194L533 194L607 89L546 47C511 104 483 147 462 176L462 176ZM239 678L393 678L393 718L463 718L463 678L677 678L677 718L744 718L744 678L895 678L895 626L744 626L744 590L677 590L677 626L463 626L463 590L393 590L393 626L239 626L239 678ZM910 509L496 509C484 495 469 479 450 461L450 461L819 461L819 308L360 308L360 394C328 374 292 355 252 337L252 337L221 391C302 423 367 462 414 509L414 509L241 509L241 562L460 562C471 579 480 594 489 609L489 609L551 587C546 578 540 569 535 562L535 562L910 562L910 509ZM433 411L433 357L746 357L746 411L433 411ZM763 142L822 183C869 120 911 62 947 10L947 10L880-32C865-7 846 21 824 55C802 88 782 117 763 142L763 142ZM118-43L49-5C69 20 89 49 110 83C131 116 148 148 162 178L162 178L231 147C217 116 200 84 180 50C159 15 139-16 118-43L118-43ZM670 59L674 136L750 117L747 92C743 54 741 35 741 35L741 35C739 12 734-6 727-17C719-29 707-37 691-42C674-47 650-51 619-52L619-52C574-53 538-54 511-54L511-54C485-54 449-53 402-52L402-52C375-51 353-48 338-43C323-38 311-28 304-13C297 1 293 22 293 49L293 49L293 171L372 171L372 65C372 44 376 30 385 24C394 17 411 12 436 11L436 11C453 10 481 10 518 10L518 10C556 10 583 10 600 11L600 11C627 12 646 16 655 22C664 28 669 40 670 59L670 59Z"/>
    <glyph glyph-name="" unicode="&#24989;"
      horiz-adv-x="1000" vert-adv-y="1172"
      d="M361 772L538 772L538 716L75 716L75 772L280 772C271 789 259 808 245 829L245 829L317 852C334 826 348 799 361 772L361 772ZM960 276L924 208C843 247 778 292 728 345L728 345C687 302 628 260 552 217L552 217L515 283C588 319 644 357 685 398L685 398C648 449 619 510 596 583L596 583C577 558 563 539 553 526L553 526L510 579C539 618 567 662 593 710C618 757 638 802 651 843L651 843L717 829C703 789 688 751 671 716L671 716L933 716L933 646L870 646C859 592 846 546 831 507C816 468 797 431 774 398L774 398C823 349 885 308 960 276L960 276ZM122 673L481 673L481 538L122 538L122 673ZM802 646L640 646C660 569 690 504 729 451L729 451C746 478 761 507 772 538C783 569 793 605 802 646L802 646ZM411 582L411 628L193 628L193 582L411 582ZM341 327L341 289C341 264 338 245 332 233C326 220 316 212 303 208C289 203 269 201 242 201L242 201C219 201 195 202 172 204L172 204L160 261C183 258 210 256 241 256L241 256C253 256 262 260 267 268C272 275 274 288 274 305L274 305L274 323L59 310L56 364C92 365 165 369 274 376L274 376L274 407L369 445L101 445L101 497L488 497L488 446L341 385L341 379L536 391L538 337C501 336 435 332 341 327L341 327ZM584 116L531 68C517 86 498 109 474 137C449 165 430 186 416 200L416 200L468 244C484 228 504 207 527 182C550 156 569 134 584 116L584 116ZM752 166L812 204C851 153 895 86 946 2L946 2L884-39C869-11 849 23 824 62C798 101 774 136 752 166L752 166ZM119-53L52-7C94 44 131 103 164 171L164 171L226 140C192 59 156-6 119-53L119-53ZM651 65C654 86 655 109 655 133L655 133L728 119C727 99 725 72 722 37L722 37C720 13 716-5 710-17C703-29 693-38 680-43C667-48 647-52 621-54L621-54C588-57 551-58 510-58L510-58C468-58 431-57 398-54L398-54C369-52 347-48 332-41C317-34 306-24 299-9C292 6 289 27 289 56L289 56L289 170L362 170L362 72C362 51 366 36 375 28C384 20 399 15 421 13L421 13C460 10 489 9 508 9L508 9C527 9 555 10 594 13L594 13C615 14 629 19 637 26C645 33 650 46 651 65L651 65Z"/>
    <glyph glyph-name="Ô" unicode="&#25044;"
      horiz-adv-x="1000" vert-adv-y="1172"
      d="M687 765L946 765L946 703L320 703L320 765L603 765L564 835L634 859C641 848 649 834 659 816C669 798 678 781 687 765L687 765ZM347 547L306 493C273 526 248 550 231 566L231 566L231-72L162-72L162 839L231 839L231 651C243 641 259 628 278 611C297 594 310 581 318 574L318 574L347 547ZM90 304L23 315C31 362 39 420 48 489C56 558 62 622 67 679L67 679L132 673C128 624 122 563 114 489C105 415 97 353 90 304L90 304ZM366 355L366 653L898 653L898 355L366 355ZM434 604L434 405L830 405L830 604L434 604ZM505 443L505 565L758 565L758 443L505 443ZM557 526L557 485L707 485L707 526L557 526ZM369 305L897 305L897 248L369 248L369 305ZM962 195L962 134L678 134L678 35C678-3 671-29 657-44C643-59 618-66 583-66L583-66C548-66 519-64 495-61L495-61L482 3C511-2 538-5 563-5L563-5C580-5 591 0 598 9C604 18 607 33 607 54L607 54L607 134L316 134L316 195L962 195ZM474 120L515 67C469 27 403-17 318-65L318-65L284-4C320 16 355 37 390 60C424 82 452 102 474 120L474 120ZM732 61L767 119C868 60 937 18 974-5L974-5L940-66C910-46 874-23 833 2C792 27 758 47 732 61L732 61Z"/>
    <glyph glyph-name="" unicode="&#25099;"
      horiz-adv-x="1000" vert-adv-y="1172"
      d="M868 215L939 180C934 160 928 136 920 109C912 81 905 58 898 39L898 39C885 2 869-23 849-38C828-53 803-61 773-61L773-61C744-61 715-55 688-42C660-30 631-10 602 17L602 17C573 44 546 75 523 109L523 109C397 53 254 7 93-30L93-30L64 50C224 87 362 131 479 181L479 181C454 230 431 288 411 355L411 355L68 317L61 399L391 433C383 468 376 505 370 544L370 544L90 516L84 593L359 621C344 734 336 805 334 834L334 834L421 838C422 827 425 800 430 756C435 712 440 670 445 629L445 629L873 672L880 595L455 553C464 498 471 461 476 442L476 442L922 489L929 412L496 364C514 305 534 255 556 215L556 215C654 261 737 311 806 366L806 366L852 304C771 242 687 189 600 145L600 145C619 121 638 100 658 82L658 82C681 61 701 47 719 39C736 31 754 27 771 27L771 27C786 27 799 32 809 42C819 52 828 70 836 96L836 96C845 127 856 166 868 215L868 215ZM730 722L684 668C655 694 604 733 533 786L533 786L577 838L603 819C658 780 701 747 730 722L730 722Z"/>
    <glyph glyph-name="$" unicode="&#25124;"
      horiz-adv-x="1000" vert-adv-y="1172"
      d="M896 184L957 159C955 140 952 117 947 89C942 61 937 39 932 23L932 23C923-11 911-35 897-50C882-65 865-73 845-73L845-73C824-73 805-66 789-51C773-37 757-12 742 25L742 25C731 52 719 92 708 143L708 143C684 120 658 97 631 75L631 75L587 132C620 159 655 191 692 229L692 229C681 303 673 388 666 484L666 484L616 475L606 547L662 557C657 680 654 773 653 836L653 836L721 836C722 789 724 700 729 569L729 569L931 604L942 532L732 495C735 433 741 366 750 294L750 294C800 353 839 414 868 475L868 475L929 436C888 354 833 276 765 201L765 201C777 136 790 89 803 61L803 61C811 44 818 33 825 26C831 19 837 15 844 15L844 15C859 15 870 32 877 67L877 67C880 82 884 102 888 125C891 148 894 168 896 184L896 184ZM924 677L876 629C855 656 813 703 750 770L750 770L796 814C843 767 885 722 924 677L924 677ZM92 288L39 332C77 379 105 427 122 475C139 522 150 576 153 637L153 637C154 650 155 670 155 695L155 695C156 700 156 708 156 718L156 718L89 718L89 786L500 786L478 658L585 658C585 623 583 578 579 525C574 471 570 430 566 401L566 401C561 368 554 346 543 334C532 321 514 315 488 315L488 315C471 315 453 316 435 318L435 318L422 383C431 381 438 380 445 379C452 378 457 378 461 377L461 377C475 376 485 379 492 386C498 393 502 408 505 431L505 431C514 494 518 548 519 591L519 591L429 591L429 561C407 506 381 461 352 424L352 424C368 407 387 386 408 360L408 360L362 318C346 339 329 359 311 379L311 379C279 350 246 324 211 302L211 302L172 353C207 373 240 398 269 427L269 427L219 479L261 518L307 471C326 495 343 524 360 557L360 557L211 557C204 509 192 463 174 419C155 374 128 331 92 288L92 288ZM408 620L425 718L221 718L218 640L217 620L408 620ZM560 282L560 44L605 46L607-20C526-22 431-25 324-28C216-32 121-36 40-39L40-39L40 28L105 29L105 282L560 282ZM238 217L170 217L170 31C185 31 207 32 238 33L238 33L238 217ZM299 34L368 37L368 217L299 217L299 34ZM496 41L496 217L427 217L427 39C444 39 467 40 496 41L496 41Z"/>
    <glyph glyph-name="%" unicode="&#25125;"
      horiz-adv-x="1000" vert-adv-y="1172"
      d="M891 189L954 164C943 104 933 60 924 32L924 32C913-1 900-25 886-40C871-55 852-63 829-63L829-63C806-63 785-55 767-39C748-23 730 3 713 39L713 39C709 47 706 53 705 57L705 57C676 23 647-9 616-40L616-40L562 15C608 60 646 102 676 140L676 140C653 224 635 339 624 486L624 486L540 473L530 547L619 561C616 600 614 645 611 696C608 747 606 794 605 837L605 837L680 837C681 808 683 758 687 686L687 686L692 573L934 611L943 536L697 498C705 391 717 300 734 224L734 224C773 289 808 365 839 453L839 453L908 430C886 369 863 315 840 267C816 218 789 172 759 128L759 128C766 106 773 86 782 69L782 69C791 52 799 40 806 33C813 26 820 23 829 23L829 23C837 23 844 27 851 34C857 41 863 55 868 75L868 75C875 98 882 136 891 189L891 189ZM911 688L860 638C844 657 823 680 798 707C772 733 748 756 727 776L727 776L776 822C818 783 863 739 911 688L911 688ZM91 462L91 794L508 794L508 462L91 462ZM162 657L437 657L437 731L162 731L162 657ZM437 597L162 597L162 523L437 523L437 597ZM351 144L351 51C409 54 453 57 482 60L482 60L539 64L541-4C472-8 389-13 291-20C193-27 111-32 46-37L46-37L42 33C77 33 156 37 280 46L280 46L280 144L121 144L121 209L280 209L280 296L142 296C125 255 107 219 88 187L88 187L33 226C68 289 99 361 124 442L124 442L189 424L168 362L280 362L280 436L351 436L351 362L532 362L532 296L351 296L351 209L515 209L515 144L351 144Z"/>
    <glyph glyph-name="C" unicode="&#25155;"
      horiz-adv-x="1000" vert-adv-y="1172"
      d="M572 761L891 761L891 521L210 521L210 458C210 343 202 250 187 178C171 105 143 30 103-49L103-49L33-7C61 45 82 92 96 135C110 177 120 224 126 277C131 330 134 398 134 483L134 483L134 761L482 761C465 797 451 823 441 840L441 840L525 862C542 827 558 794 572 761L572 761ZM210 690L210 593L815 593L815 690L210 690ZM344-52L268-52L268 441L882 441L882 66C882 24 874-6 859-25C844-44 818-53 783-54L783-54C753-55 717-53 675-50L675-50L661 21C695 17 729 15 764 15L764 15C779 15 790 20 797 29C803 38 806 54 806 76L806 76L806 370L344 370L344-52ZM435 61L435 293L715 293L715 61L435 61ZM504 229L504 126L647 126L647 229L504 229Z"/>
    <glyph glyph-name=""" unicode="&#25378;"
      horiz-adv-x="1000" vert-adv-y="1172"
      d="M344 444L351 365L249 327L249 42C249 5 242-21 229-36C216-51 195-60 166-61L166-61C141-62 111-60 76-57L76-57L60 20C86 16 112 14 137 14L137 14C149 14 158 18 163 27C168 35 171 49 171 69L171 69L171 299C132 285 92 272 51 259L51 259L35 339C60 346 105 361 171 383L171 383L171 578L52 578L52 656L171 656L171 833L249 833L249 656L352 656L352 578L249 578L249 410L344 444ZM956 284L919 212C869 236 826 263 789 294L789 294L789-69L712-69L712 318L762 318C718 361 678 418 643 490L643 490L625 490C600 427 560 369 505 317L505 317L553 317L553 233C553 184 549 144 541 111C532 78 517 46 494 16C471-15 436-47 391-82L391-82L337-23C376 7 406 35 425 60C444 85 457 111 464 137C471 163 474 195 474 234L474 234L474 290C444 265 402 234 347 199L347 199L304 268C368 307 418 343 455 377C491 410 519 448 539 490L539 490L369 490L369 565L567 565C578 605 587 652 595 707L595 707C522 700 457 696 400 693L400 693L390 771C469 774 556 780 649 790C742 799 820 808 882 818L882 818L891 741C834 732 762 724 677 715L677 715C670 658 660 608 649 565L649 565L933 565L933 490L720 490C747 444 777 406 812 376C847 345 895 315 956 284L956 284Z"/>
    <glyph glyph-name="C" unicode="&#25411;"
      horiz-adv-x="1000" vert-adv-y="1172"
      d="M324 427L331 346L239 308L239 30C239 1 236-20 230-35C223-50 213-60 199-66C184-72 163-75 136-75L136-75C125-75 107-74 83-71L83-71L67 6C86 2 105 0 124 0L124 0C139 0 149 4 155 13C160 22 163 36 163 57L163 57L163 278L39 227L29 308L163 362L163 563L54 563L54 643L163 643L163 820L239 820L239 643L331 643L331 563L239 563L239 393C284 411 313 422 324 427L324 427ZM875 543L875 373L557 373C548 340 534 306 516 271L516 271L885 271L885-79L807-79L807-22L538-22L538-79L458-79L458 180C428 139 393 99 353 58L353 58L301 122C348 168 386 211 414 251C441 290 462 331 476 373L476 373L383 373L383 441L495 441C502 477 506 511 509 543L509 543L359 543L359 614L514 614C517 661 519 695 519 716L519 716L391 716L391 785L875 785L875 614L956 614L956 543L875 543ZM798 716L601 716C600 687 598 653 595 614L595 614L798 614L798 716ZM798 543L590 543C586 507 581 473 575 441L575 441L798 441L798 543ZM538 50L807 50L807 203L538 203L538 50Z"/>
    <glyph glyph-name="­" unicode="&#25517;"
      horiz-adv-x="1000" vert-adv-y="1172"
      d="M320 447L333 369L234 334L234 47C234 8 227-19 213-35C198-52 174-60 139-60L139-60C122-60 98-59 66-56L66-56L51 19C78 14 101 12 121 12L121 12C136 12 147 17 153 26C159 35 162 50 162 71L162 71L162 308L51 268L34 347L162 391L162 579L53 579L53 654L162 654L162 833L234 833L234 654L331 654L331 579L234 579L234 416C247 420 267 427 294 438L294 438L320 447ZM672 510L598 510C570 453 535 402 492 357C449 312 396 268 332 225L332 225L284 291C339 323 385 357 422 392C459 427 490 467 514 510L514 510L349 510L349 583L547 583C561 618 573 660 582 709L582 709L390 709L390 782L901 782L901 709L664 709C653 659 641 617 629 583L629 583L943 583L943 510L755 510C780 463 810 423 845 391C879 359 922 330 974 304L974 304L936 230C818 297 730 390 672 510L672 510ZM573 72L573 390L648 390L648 47C648 8 641-20 627-37C613-54 590-63 559-63L559-63C534-63 505-61 473-58L473-58L457 16C486 12 508 9 525 8L525 8C542 7 555 11 562 22C569 32 573 49 573 72L573 72ZM787 245L847 272C868 229 905 144 959 17L959 17L895-10C872 51 836 136 787 245L787 245ZM434 262L501 239C484 196 465 151 442 104C419 56 398 15 378-18L378-18L311 17C358 87 399 169 434 262L434 262ZM674 240L735 260C762 181 788 97 813 10L813 10L749-9C735 46 710 129 674 240L674 240Z"/>
    <glyph glyph-name="Î" unicode="&#25550;"
      horiz-adv-x="1000" vert-adv-y="1172"
      d="M867 510L417 510L417 548L357 548L357 741L616 741C605 768 592 799 575 834L575 834L648 852C664 819 679 782 692 741L692 741L929 741L929 548L867 548L867 510ZM318 440L334 365L241 331L241 43C241 15 238-7 231-22C224-37 213-48 197-54C181-60 159-63 130-63L130-63C117-63 97-62 70-59L70-59L55 17C78 13 101 11 123 11L123 11C140 11 151 15 158 24C164 32 167 46 167 66L167 66L167 304L54 262L35 335C58 342 102 358 167 382L167 382L167 579L55 579L55 652L167 652L167 839L241 839L241 652L328 652L328 579L241 579L241 410L279 425C286 428 292 430 299 433C305 436 311 438 318 440L318 440ZM424 580L861 580L861 669L424 669L424 580ZM869 436L869 112L404 112L404 436L869 436ZM474 304L798 304L798 372L474 372L474 304ZM798 243L474 243L474 176L798 176L798 243ZM947-44L319-44L319 25L947 25L947-44Z"/>
    <glyph glyph-name="ò" unicode="&#25586;"
      horiz-adv-x="1000" vert-adv-y="1172"
      d="M323 447L330 371L245 336L245 44C245 18 242-2 236-15C229-29 219-39 204-45C189-51 167-55 138-56L138-56C115-57 93-56 71-53L71-53L56 23C83 20 102 19 115 19L115 19C138 19 152 22 159 29C166 35 169 49 169 70L169 70L169 307C110 284 72 270 54 264L54 264L37 338C50 342 78 352 120 368L120 368C127 371 134 374 142 377C150 380 159 384 169 387L169 387L169 581L56 581L56 655L169 655L169 842L245 842L245 655L331 655L331 581L245 581L245 416L323 447ZM939 202L715 202C780 141 863 87 966 38L966 38L931-34C828 20 741 87 668 166L668 166L668-76L593-76L593 175C507 79 412 6 307-45L307-45L268 23C362 66 450 125 533 202L533 202L318 202L318 272L593 272L593 352L393 352L393 640L343 640L343 709L393 709L393 815L469 815L469 709L573 709L573 835L647 835L647 709L765 709L765 834L840 834L840 709L952 709L952 640L840 640L840 492L573 492L573 640L469 640L469 421L923 421L923 352L668 352L668 272L939 272L939 202ZM647 561L765 561L765 640L647 640L647 561Z"/>
    <glyph glyph-name="" unicode="&#25611;"
      horiz-adv-x="1000" vert-adv-y="1172"
      d="M320 445L320 368L235 337L235 48C235 9 228-19 214-34C200-49 176-57 141-57L141-57C113-57 89-55 69-52L69-52L54 21C80 16 102 14 119 14L119 14C135 14 146 18 153 27C160 36 163 50 163 71L163 71L163 312C108 292 71 279 54 274L54 274L42 352C78 363 118 376 163 391L163 391L163 581L58 581L58 655L163 655L163 836L235 836L235 655L319 655L319 581L235 581L235 415L320 445ZM870 494L555 494L555 337C555 250 547 176 531 117C515 57 488-7 449-74L449-74L389-42C427 19 453 77 468 134C483 190 490 258 490 339L490 339L490 554L629 554L629 713C548 706 481 702 430 699L430 699L430 463C430 358 421 266 405 185C388 104 361 27 326-46L326-46L257-15C296 58 324 129 340 198C356 267 364 357 364 466L364 466L364 769C524 773 707 788 912 814L912 814L928 747L878 741C863 739 837 736 800 732C763 727 731 724 702 721L702 721L702 673L897 673L897 619L702 619L702 554L935 554L935 497L901 411L841 422L870 494ZM650 360L586 352L577 408L649 416L648 475L706 475L707 423L813 435L820 381L708 367L708 357C709 341 712 330 718 325C723 320 734 316 751 315L751 315L784 314L816 315C832 316 843 320 850 325C856 330 860 339 861 354L861 354L863 397L921 391C920 386 920 376 919 362C918 348 918 339 917 334L917 334C916 315 913 301 910 292C906 283 900 276 891 272C882 267 868 264 850 262L850 262C832 260 809 259 782 259L782 259C755 259 733 260 714 262L714 262C688 265 671 271 663 282C655 292 651 311 650 338L650 338L650 360ZM891 159L950 147C950 101 948 61 945 28L945 28C944-1 938-20 925-31C912-42 891-48 860-48L860-48L822-48C796-48 777-42 766-31C755-20 749-1 749 26L749 26L749 159L670 159L670 129C670 52 632-15 555-72L555-72L512-31C549-6 576 22 591 51C606 80 613 117 613 162L613 162L613 222L812 222L812 51C812 38 814 30 819 25C824 20 832 17 843 17L843 17L853 17C866 17 875 20 880 26C885 31 888 41 888 55L888 55C890 74 891 109 891 159L891 159Z"/>
    <glyph glyph-name="" unicode="&#25612;"
      horiz-adv-x="1000" vert-adv-y="1172"
      d="M357 436L357 359C349 356 323 347 280 334L280 334C277 333 267 331 252 326L252 326L252 41C252 1 245-27 231-42C216-57 191-65 154-65L154-65C126-65 102-63 82-60L82-60L67 14C72 13 82 12 97 10C112 8 126 7 139 7L139 7C154 7 164 11 170 20C176 29 179 43 179 63L179 63L179 306C133 293 91 281 53 269L53 269L36 343L106 363L179 383L179 574L56 574L56 648L179 648L179 831L252 831L252 648L369 648L369 574L252 574L252 404C286 413 321 424 357 436L357 436ZM830 83C865 50 909 26 960 11L960 11L924-55C858-29 805 7 765 53C725 98 691 160 664 237L664 237L593 237L593 20L706 65L716-1C711-3 704-5 695-8L695-8C640-29 602-43 582-52L582-52C555-64 536-73 525-78L525-78L497-24C506-19 514-13 519-6C524 1 527 9 527 16L527 16L527 237L463 237C456 180 445 128 430 80C415 31 393-19 365-70L365-70L296-32C324 18 346 65 361 109C376 152 386 202 392 258C398 314 401 386 401 474L401 474L401 786L902 786L902 568L472 568L472 464L581 464L581 545L650 545L650 464L756 464L756 545L823 545L823 464L922 464L922 398L823 398L823 302L949 302L949 237L732 237C747 198 767 161 791 128L791 128C824 153 854 178 880 204L880 204L925 159C902 137 870 112 830 83L830 83ZM472 632L831 632L831 721L472 721L472 632ZM581 398L472 398C471 355 469 323 468 302L468 302L581 302L581 398ZM650 302L756 302L756 398L650 398L650 302Z"/>
    <glyph glyph-name=" " unicode="&#25632;"
      horiz-adv-x="1000" vert-adv-y="1172"
      d="M267 447L283 372L241 354C235 351 229 349 224 347C219 344 214 342 209 340L209 340L209 28C209 2 206-17 201-30C195-43 185-52 172-57C159-62 139-65 114-65L114-65C97-65 77-63 55-60L55-60L40 15C65 10 89 8 114 9L114 9C123 10 130 13 134 20C137 26 139 37 139 52L139 52L139 310L48 271L29 345C49 352 86 367 139 390L139 390L139 583L42 583L42 660L139 660L139 842L209 842L209 660L279 660L279 583L209 583L209 421L267 447ZM618 526L618 205L497 205C494 160 487 121 477 90C466 59 451 30 432 4C413-23 386-52 351-85L351-85L297-37C342-1 374 35 394 71C413 106 426 151 431 205L431 205L324 205L324 526L385 526L385 277L436 277L436 316L436 592L311 592L311 665L479 665C504 720 528 776 549 833L549 833L608 810C591 769 569 721 542 665L542 665L627 665L627 592L501 592L501 313L501 277L554 277L554 526L618 526ZM450 699L394 670C374 717 352 762 328 805L328 805L385 828C406 792 428 749 450 699L450 699ZM669 444L669 777L919 777L919 45C919 11 913-14 902-29C890-45 870-53 841-54L841-54C818-55 791-53 760-50L760-50L744 25C771 21 798 19 824 19L824 19C835 19 842 24 846 33C850 42 852 57 852 79L852 79L852 238L731 238C726 167 715 108 700 61C685 14 660-31 627-76L627-76L563-32C596 7 619 44 634 78C648 112 657 155 662 208C667 260 669 339 669 444L669 444ZM735 539L852 539L852 700L735 700L735 539ZM734 312L852 312L852 465L735 465L735 407C735 363 735 331 734 312L734 312Z"/>
    <glyph glyph-name="4" unicode="&#25652;"
      horiz-adv-x="1000" vert-adv-y="1172"
      d="M960 227L937 159C886 178 837 201 791 228C745 254 704 282 669 312L669 312L676 282C650 280 608 278 549 275L549 275L549 227L773 227L773 174L549 174L549 123L904 123L904 69L549 69L549 36C549-4 541-32 525-47C509-63 481-71 440-71L440-71C400-71 359-69 318-65L318-65L305 0C346-5 384-8 420-8L420-8C441-8 456-3 464 7C472 16 476 32 476 54L476 54L476 69L94 69L94 123L476 123L476 174L226 174L226 227L476 227L476 272L419 271C371 270 337 269 316 269L316 269L314 298C241 238 158 189 65 151L65 151L36 218C90 238 140 262 185 291C230 319 268 348 298 377L298 377L67 377L67 433L327 433L327 480L151 480L151 533L327 533L327 584L182 584L182 637L327 637L327 706L165 706L165 597L88 597L88 765L467 765L435 829L513 853C528 825 543 796 557 765L557 765L908 765L908 604L832 604L832 706L669 706L669 637L815 637L815 584L669 584L669 533L846 533L846 480L669 480L669 433L929 433L929 377L697 377C760 313 848 263 960 227L960 227ZM596 637L596 706L400 706L400 637L596 637ZM596 533L596 584L400 584L400 533L596 533ZM596 433L596 480L400 480L400 433L596 433ZM342 323C461 326 561 330 641 336L641 336C623 354 610 368 603 377L603 377L394 377C376 357 359 339 342 323L342 323Z"/>
    <glyph glyph-name="?" unicode="&#25663;"
      horiz-adv-x="1000" vert-adv-y="1172"
      d="M519 773C585 693 634 630 667 583L667 583L615 539C580 591 538 648 489 710L489 710C458 651 412 587 351 520L351 520L308 580C345 617 377 657 402 698C427 739 450 786 471 839L471 839L538 821C533 805 526 789 519 773L519 773ZM940 469L843 469L843 310L953 310L953 238L843 238L843 48C843 21 840 0 834-14C828-29 818-39 804-44C789-50 768-53 739-53L739-53C724-53 701-52 672-49L672-49L656 25C680 21 704 19 729 19L729 19C758 19 772 36 772 71L772 71L772 238L660 238L660 310L772 310L772 469L672 469L672 541L772 541L772 708C737 701 702 695 668 690L668 690L657 764C768 781 860 802 933 827L933 827L953 755C921 744 884 734 843 723L843 723L843 541L940 541L940 469ZM231 472L231 435C231 402 230 361 229 312L229 312L324 312L324 239L225 239C219 169 208 112 191 68C174 24 146-23 108-73L108-73L44-32C80 13 106 55 122 92C137 129 148 178 154 239L154 239L41 239L41 312L158 312C159 365 160 412 160 451L160 451L160 472L62 472L62 543L160 543L160 695C131 688 95 680 54 673L54 673L43 747C147 766 237 791 314 820L314 820L341 747C306 734 270 723 231 713L231 713L231 543L311 543L311 472L231 472ZM607 446L375 446L375 515L607 515L607 446ZM615 343L615-1L354-1L354 343L615 343ZM547 65L547 276L423 276L423 65L547 65Z"/>
    <glyph glyph-name="E" unicode="&#25669;"
      horiz-adv-x="1000" vert-adv-y="1172"
      d="M861 584L434 584L434 398C434 299 426 215 410 148C394 81 365 8 322-70L322-70L253-32C283 19 306 65 322 107C337 149 348 192 354 237C359 282 362 336 362 400L362 400L362 648L580 648L580 841L656 841L656 771L922 771L922 707L656 707L656 648L935 648L935 585L904 487L832 499L861 584ZM329 451L329 372C282 355 252 345 238 340L238 340L238 44C238 3 231-25 217-40C202-56 176-64 139-64L139-64C124-64 102-63 71-60L71-60L55 15C86 11 108 9 122 9L122 9C138 9 149 14 156 23C163 32 166 48 166 69L166 69L166 314L51 275L34 355C45 358 60 362 79 369C98 375 113 380 124 383L124 383C151 391 165 395 166 396L166 396L166 580L59 580L59 656L166 656L166 833L238 833L238 656L326 656L326 580L238 580L238 420L329 451ZM892 399C891 378 888 363 884 352C880 341 873 334 864 330C855 325 840 322 821 321L821 321C785 320 757 319 738 319L738 319C720 319 692 320 655 321L655 321C634 322 618 326 607 331C596 336 589 344 586 356C582 367 580 384 580 407L580 407L580 433L461 419L455 477L580 492L580 563L650 563L650 501L789 518L796 459L650 442L650 422C650 404 653 392 659 387C664 381 677 377 697 376L697 376C708 375 723 375 743 375L743 375C764 375 779 375 789 376L789 376C804 377 813 380 818 386C822 391 825 403 826 421L826 421L829 466L898 453C894 417 892 399 892 399L892 399ZM641 263L690 297C723 247 751 202 775 163L775 163L723 127C680 200 653 245 641 263L641 263ZM814 215L871 241C918 140 953 64 974 13L974 13L913-15C872 88 839 165 814 215L814 215ZM773 58C774 69 774 99 774 148L774 148L834 134C834 109 832 74 829 31L829 31C827 8 823-9 818-20C813-31 803-40 789-46C774-52 752-56 723-57L723-57C715-58 703-58 688-58L688-58C672-58 660-58 652-57L652-57C616-56 591-49 578-36C564-23 557 1 557 36L557 36L557 234L623 234L623 58C623 41 626 29 633 24C639 18 651 14 669 13L669 13L696 12C727 12 747 15 757 22C766 28 772 40 773 58L773 58ZM463-20L402 2C417 32 429 64 441 99C452 134 464 176 477 227L477 227L535 213L525 176C513 131 502 93 493 63C484 33 474 5 463-20L463-20Z"/>
    <glyph glyph-name="" unicode="&#25750;"
      horiz-adv-x="1000" vert-adv-y="1172"
      d="M967-15L919-75C861-15 814 47 778 111L778 111C744 52 700-9 646-70L646-70L593-17C656 48 706 116 741 187L741 187C708 262 686 345 673 436L673 436C665 420 656 404 647 389L647 389L603 451C630 496 654 554 677 627C700 699 715 767 723 831L723 831L793 822C786 777 775 724 759 664L759 664L953 664L953 590L900 590C894 505 884 430 871 365C858 300 839 240 815 185L815 185C851 116 902 50 967-15L967-15ZM307 436L315 363L224 328L224 49C224 20 221-1 216-16C211-31 201-42 186-48C171-55 150-58 121-58L121-58C108-58 87-57 59-54L59-54L44 16C70 11 93 9 112 9L112 9C130 9 142 13 148 22C153 30 156 46 156 70L156 70L156 302C125 291 97 280 74 271L74 271C55 264 46 260 47 261L47 261L33 336L156 380L156 576L54 576L54 648L156 648L156 828L224 828L224 648L292 648L292 576L224 576L224 405L284 427L307 436ZM649 158L657 88L587 76L587-74L521-74L521 64L272 19L260 89C269 90 295 94 338 102L338 102L338 555L309 555L309 623L484 623L501 722L333 722L333 790L586 790L555 623L641 623L641 555L587 555L587 146L619 152L649 158ZM723 552C732 440 750 347 777 272L777 272C808 359 828 465 836 590L836 590L736 590L723 552ZM404 454L521 454L521 555L404 555L404 454ZM521 294L521 392L404 392L404 294L521 294ZM404 232L404 113L521 134L521 232L404 232Z"/>
    </font>
</defs>
</svg>
