<svg xmlns="http://www.w3.org/2000/svg">
<!--
Copyright 2021 Huawei Device Co., Ltd. All Rights Reserved.
  -->

  <defs>
    <font name="HarmonyOS Sans SC Bold"
      horiz-adv-x="1000" vert-adv-y="1000" >
    <font-face font-family="HarmonyOS Sans SC" font-weight="400"
      font-stretch="normal"
      units-per-em="1000"
      ascent="928"
      descent="-244"/>
    <glyph glyph-name="" unicode="&#19984;"
      horiz-adv-x="1000" vert-adv-y="1172"
      d="M936 798L936 685L557 685L557 589L889 589L889 477L557 477L557 383L895 383C890 286 880 187 867 84L867 84C862 46 852 16 839-5C826-26 806-42 781-51C755-60 720-66 676-67L676-67L646-67C590-67 537-65 488-60L488-60L466 54C526 47 589 44 654 44L654 44C676 44 692 46 703 50C714 54 722 61 728 72C733 82 738 98 742 120L742 120C746 141 749 165 752 194C755 223 756 248 757 270L757 270L112 270L143 638L268 634L247 383L431 383L431 685L64 685L64 798L936 798Z"/>
    <glyph glyph-name="¢" unicode="&#20130;"
      horiz-adv-x="1000" vert-adv-y="1172"
      d="M584 716L939 716L939 596L69 596L69 716L446 716C440 729 424 763 398 818L398 818L522 848C533 827 554 783 584 716L584 716ZM838 239L956 215C954 151 951 100 948 62L948 62C943 19 933-12 916-31C899-51 876-62 846-65L846-65C831-66 808-67 778-67L778-67C749-67 726-66 711-65L711-65C669-62 639-50 622-30C605-11 596 22 596 69L596 69L596 385L372 385L372 323C372 247 366 186 354 142C341 97 319 57 286 22C253-13 204-50 138-91L138-91L47 11C108 48 153 80 180 107C207 134 226 164 235 198C244 231 249 279 249 342L249 342L249 505L720 505L720 106C720 84 724 70 731 64C738 57 753 54 776 54L776 54C783 54 794 55 807 56L807 56C816 57 823 61 827 68C831 74 833 85 834 100L834 100L838 239Z"/>
    <glyph glyph-name="¥" unicode="&#20133;"
      horiz-adv-x="1000" vert-adv-y="1172"
      d="M582 725L936 725L936 613L471 613C447 581 422 550 395 519C368 488 345 464 326 447L326 447L539 470C570 502 608 546 651 602L651 602L754 533C683 435 597 351 496 280C394 209 265 143 108 83L108 83L49 190C128 215 198 242 257 271C316 299 368 330 415 363L415 363C371 358 298 351 195 341L195 341C184 340 168 339 149 336L149 336L118 441C139 446 153 451 162 454C171 457 178 460 183 464L183 464C195 473 214 493 241 522C267 551 292 582 316 613L316 613L62 613L62 725L446 725L434 750C419 783 407 806 399 821L399 821L525 860C545 821 564 776 582 725L582 725ZM778 444L870 373C805 294 734 224 657 163L657 163C697 143 743 119 794 92C845 64 890 39 927 18L927 18L856-94C817-69 768-37 709 0C649 37 598 67 555 90L555 90C451 21 323-42 170-101L170-101L104 11C261 66 393 128 498 196C603 264 696 347 778 444L778 444Z"/>
    <glyph glyph-name="Ã" unicode="&#20163;"
      horiz-adv-x="1000" vert-adv-y="1172"
      d="M244 845L370 801C347 736 321 672 292 609L292 609L292-79L168-79L168 393C137 350 107 310 78 274L78 274L21 405C63 458 104 524 144 603C184 681 217 762 244 845L244 845ZM399 785L958 785L958 655L776 655L776 70C776 17 765-20 743-41C720-63 682-74 629-75L629-75L598-75C561-75 528-74 499-71L499-71L474 55C518 50 560 47 599 47L599 47C618 47 631 52 638 61C645 70 648 85 648 108L648 108L648 655L399 655L399 785Z"/>
    <glyph glyph-name="6" unicode="&#20278;"
      horiz-adv-x="1000" vert-adv-y="1172"
      d="M561 854L659 854C692 786 735 725 788 671C841 617 904 567 978 520L978 520L904 417C840 457 783 503 733 555C682 606 642 659 611 712L611 712C585 668 548 621 500 570C451 519 395 469 332 420L332 420L266 513L266-76L150-76L150 385C123 344 94 304 65 267L65 267L21 403C61 458 101 526 141 609C180 692 212 773 237 853L237 853L356 822C330 741 300 665 266 594L266 594L266 529C334 576 392 626 441 679C489 732 529 790 561 854L561 854ZM711 451L625 384L892 384L892 273C830 206 766 141 700 79L700 79L810 7L742-98C693-64 632-23 559 24C486 71 423 109 372 140L372 140L441 237C488 210 541 178 600 142L600 142C648 187 693 231 735 276L735 276L330 276L330 384L615 384C584 428 548 473 509 520L509 520L594 590C641 539 680 493 711 451L711 451Z"/>
    <glyph glyph-name="" unicode="&#20356;"
      horiz-adv-x="1000" vert-adv-y="1172"
      d="M221 842L341 813C314 724 286 647 256 582L256 582L256-87L140-87L140 373C115 334 84 294 49 251L49 251L17 411C56 462 94 526 129 601C164 676 195 756 221 842L221 842ZM895 173L687 173L687 55L943 55L943-58L307-58L307 55L569 55L569 173L359 173L359 285L569 285L569 389L484 381C434 376 394 372 365 368L365 368L332 470C350 474 362 481 369 490L369 490C383 507 404 533 431 570C458 606 482 641 505 676L505 676L353 676L353 789L924 789L924 676L649 676C594 592 547 528 508 484L508 484L751 506C728 541 707 571 689 596L689 596L788 655C811 623 838 582 869 533C900 484 927 440 950 402L950 402L848 340C831 371 818 395 809 411L809 411C784 409 744 405 687 400L687 400L687 285L895 285L895 173Z"/>
    <glyph glyph-name="" unicode="&#20360;"
      horiz-adv-x="1000" vert-adv-y="1172"
      d="M700 385L954 385L954 286C913 228 867 177 817 133C766 89 701 48 623 11C544-26 447-61 331-92L331-92L287 3C388 30 471 57 537 85C602 113 656 143 699 174C741 205 782 243 821 286L821 286L605 286C591 273 576 260 560 247L560 247C591 226 617 207 640 188L640 188L564 118C542 137 513 160 477 187L477 187C437 160 396 135 354 113L354 113L289 202C355 236 412 271 461 306C509 341 552 378 590 419L590 419C508 382 422 350 333 325L333 325L294 426C397 450 490 483 576 524C661 565 732 611 789 662L789 662L547 662L524 640C559 619 588 599 613 580L613 580L531 507C501 532 472 553 445 572L445 572C419 552 392 533 365 516L365 516L299 600C355 633 406 670 452 713C497 756 535 800 566 845L566 845L674 817C665 804 652 785 633 760L633 760L927 760L927 662C846 575 754 505 652 450L652 450L726 419L700 385ZM225 840L345 815C316 724 286 645 255 580L255 580L255-84L140-84L140 381C113 341 86 305 60 273L60 273L19 406C58 461 96 528 135 607C173 685 203 763 225 840L225 840Z"/>
    <glyph glyph-name="" unicode="&#20365;"
      horiz-adv-x="1000" vert-adv-y="1172"
      d="M247 843L365 804C332 715 300 641 269 580L269 580L269-81L151-81L151 379C128 345 102 308 72 269L72 269L28 423C69 474 109 536 148 611C187 685 220 762 247 843L247 843ZM960 533L960 418L836 418L836 344L948 344L948 231L836 231L836 54C836 17 831-10 821-29C810-48 793-61 769-68C744-75 709-79 663-79L663-79C632-79 605-78 580-75L580-75L559 37C599 32 628 29 646 29L646 29C664 29 678 31 687 34C696 37 702 43 706 52C709 61 711 74 711 93L711 93L711 231L478 231C528 182 568 142 599 111L599 111L509 23C498 36 467 69 418 122L418 122L376 166L448 231L335 231L335 344L711 344L711 418L313 418L313 533L574 533L574 613L367 613L367 728L574 728L574 842L695 842L695 728L913 728L913 613L695 613L695 533L960 533Z"/>
    <glyph glyph-name="" unicode="&#20375;"
      horiz-adv-x="1000" vert-adv-y="1172"
      d="M184 841L298 818C278 736 258 668 239 614L239 614L239-82L128-82L128 373C105 334 84 300 66 273L66 273L20 423C53 470 84 530 112 603C140 675 164 754 184 841L184 841ZM318-76L318 800L928 800L928 49C928 16 924-10 917-28C910-47 898-60 882-67C866-75 844-79 817-80L817-80C785-81 747-79 702-76L702-76L679 35C715 30 746 28 771 28L771 28C788 28 800 32 806 40C811 47 814 60 814 78L814 78L814 686L428 686L428-76L318-76ZM464 504L464 611L781 611L781 504L464 504ZM484 81L484 432L762 432L762 81L484 81ZM577 329L577 188L669 188L669 329L577 329Z"/>
    <glyph glyph-name="£" unicode="&#20387;"
      horiz-adv-x="1000" vert-adv-y="1172"
      d="M226 853L346 818C319 734 291 660 261 595L261 595L261-78L141-78L141 380C112 337 85 300 61 269L61 269L14 420C52 469 90 532 129 611C167 690 199 770 226 853L226 853ZM379 438L379 795L886 795L886 438L379 438ZM497 685L497 549L772 549L772 685L497 685ZM467-77L349-77L349 357L918 357L918-78L800-78L800-22L467-22L467-77ZM800 239L467 239L467 92L800 92L800 239Z"/>
    <glyph glyph-name="®" unicode="&#20398;"
      horiz-adv-x="1000" vert-adv-y="1172"
      d="M962 385L962 278L880 278L874 165L940 165L940 61L867 61C866 59 866 56 866 53L866 53C862 2 850-35 830-56C810-77 776-88 728-88L728-88C677-88 625-85 573-79L573-79L553 23C599 15 646 11 693 11L693 11C710 11 722 15 731 24C739 33 745 45 748 61L748 61L316 61L340 278L275 278L275 385L351 385L366 514C350 497 333 480 316 464L316 464L263 564C300 605 334 650 367 701C400 751 426 799 446 845L446 845L560 820L536 763L937 763L937 658L478 658C463 635 450 616 438 601L438 601L893 601C890 505 888 433 886 385L886 385L962 385ZM206 843L328 821C303 740 276 668 249 605L249 605L249-86L134-86L134 392C106 350 81 313 58 282L58 282L19 428C52 479 87 542 122 618C157 694 185 769 206 843L206 843ZM569 500L474 500L462 385L619 385C579 418 550 441 531 455L531 455L569 500ZM706 430L668 385L776 385L782 500L616 500L706 430ZM547 278L451 278L440 165L598 165C580 179 550 201 509 231L509 231L547 278ZM659 165L760 165L769 278L602 278C626 261 657 237 695 207L695 207L659 165Z"/>
    <glyph glyph-name="Ø" unicode="&#20440;"
      horiz-adv-x="1000" vert-adv-y="1172"
      d="M226 844L343 814C320 738 291 663 257 589L257 589L257-75L139-75L139 373C113 332 88 295 63 262L63 262L19 406C58 461 96 530 135 611C174 692 204 769 226 844L226 844ZM355 668L342 778C434 782 533 789 639 800C744 810 836 822 913 836L913 836L935 727C858 713 764 701 654 690C543 679 444 672 355 668L355 668ZM709 267L964 267L964 158L700 158L700 49C700 4 691-28 672-47C653-66 621-76 576-76L576-76C531-76 492-74 459-71L459-71L437 41C476 34 511 31 542 31L542 31C556 31 566 34 571 41C576 48 578 61 578 80L578 80L578 158L307 158L307 267L578 267L578 306L717 382L362 382L362 487L817 487L728 530C771 597 804 653 826 697L826 697L920 654C889 596 856 540 822 487L822 487L915 487L915 385L709 267ZM709 545L612 503C607 518 597 539 584 567C570 595 557 621 544 645L544 645L638 687C649 666 661 643 675 616C688 589 700 566 709 545L709 545ZM523 536L433 489C406 540 380 585 355 624L355 624L446 672L461 646C490 595 511 559 523 536L523 536Z"/>
    <glyph glyph-name="" unicode="&#20506;"
      horiz-adv-x="1000" vert-adv-y="1172"
      d="M212 842L331 816C310 743 285 675 258 610L258 610L258-77L144-77L144 386C124 352 97 310 62 261L62 261L15 402C51 451 88 518 127 603C166 688 194 768 212 842L212 842ZM856 481L955 481L955 373L882 373L882 52C882 3 873-32 854-51C835-71 802-81 755-81L755-81C711-81 674-79 643-76L643-76L622 31C656 26 687 24 716 23L716 23C735 23 749 28 756 37C763 46 766 62 766 85L766 85L766 373L296 373L296 481L370 481L338 545C395 562 439 578 468 593C497 608 519 626 532 649L532 649L349 649L349 755L558 755L559 796C559 817 559 830 560 837L560 837L679 837L679 800C679 779 679 764 678 755L678 755L910 755L910 649L680 649C788 597 859 561 894 542L894 542L856 481ZM618 572C589 540 540 510 472 481L472 481L784 481C730 512 675 543 618 572L618 572ZM346 38L346 317L685 317L685 38L346 38ZM444 223L444 133L589 133L589 223L444 223Z"/>
    <glyph glyph-name=")" unicode="&#20521;"
      horiz-adv-x="1000" vert-adv-y="1172"
      d="M213 844L325 822C301 737 275 662 247 597L247 597L247-84L136-84L136 376C104 324 80 286 65 263L65 263L17 412C52 457 89 522 128 606C166 690 194 769 213 844L213 844ZM904 562L681 562L681 521L961 521L961 437L292 437L292 521L564 521L564 562L348 562L348 642L564 642L564 683L328 683L328 771L564 771L564 832L681 832L681 771L929 771L929 683L681 683L681 642L904 642L904 562ZM464-75L348-75L348 396L892 396L892 33C892-7 884-36 868-54C851-72 825-81 790-81L790-81C755-81 712-79 663-74L663-74L646 16C687 11 718 8 739 8L739 8C764 8 776 23 776 54L776 54L776 64L464 64L464-75ZM464 269L776 269L776 310L464 310L464 269ZM776 190L464 190L464 146L776 146L776 190Z"/>
    <glyph glyph-name="L" unicode="&#20556;"
      horiz-adv-x="1000" vert-adv-y="1172"
      d="M954 512L954 397L591 397C573 363 557 336 544 317L544 317L897 317L897-80L785-80L785-27L522-27L522-80L406-80L406 166C382 145 351 121 314 94L314 94L252 194L252-84L136-84L136 368C113 333 89 301 66 272L66 272L21 418C61 475 99 541 134 615C169 689 196 763 215 837L215 837L333 810C308 724 281 648 252 583L252 583L252 198C341 258 408 324 453 397L453 397L310 397L310 512L509 512C515 527 521 547 528 570L528 570L437 570L437 632L319 632L319 749L437 749L437 830L553 830L553 749L710 749L710 830L825 830L825 749L953 749L953 632L825 632L825 571L710 571L710 632L553 632L553 591L658 570C656 563 650 544 639 512L639 512L954 512ZM522 207L522 84L785 84L785 207L522 207Z"/>
    <glyph glyph-name="n" unicode="&#20846;"
      horiz-adv-x="1000" vert-adv-y="1172"
      d="M771 481L771 445L385 445L365 340L805 340C800 253 790 168 776 86L776 86C769 39 758 5 744-18C729-41 708-56 681-65C653-74 612-78 559-78L559-78C514-78 458-76 391-71L391-71L368 50C445 43 506 39 552 39L552 39C582 39 603 43 615 52C626 61 635 78 641 103L641 103C651 149 657 191 659 229L659 229L215 229L256 445L216 445L216 483C173 446 130 415 88 390L88 390L22 496C92 538 154 588 209 647C264 706 309 769 344 838L344 838L455 787C415 705 362 629 295 558L295 558L690 558C624 630 569 711 525 801L525 801L638 846C676 770 722 704 776 649C829 594 896 543 976 496L976 496L902 388C857 415 813 446 771 481L771 481Z"/>
    <glyph glyph-name="" unicode="&#20873;"
      horiz-adv-x="1000" vert-adv-y="1172"
      d="M876 290L959 290L959 175L876 175L876 57C876 4 867-32 849-53C831-74 799-85 753-85L753-85C710-85 667-83 624-79L624-79L601 43C640 38 677 35 712 35L712 35C729 35 740 40 747 50C754 59 757 74 757 95L757 95L757 175L241 175L241-84L124-84L124 175L40 175L40 290L124 290L124 734L441 734L441 835L559 835L559 734L876 734L876 290ZM241 510L441 510L441 619L241 619L241 510ZM559 510L757 510L757 619L559 619L559 510ZM441 290L441 400L241 400L241 290L441 290ZM757 400L559 400L559 290L757 290L757 400Z"/>
    <glyph glyph-name="" unicode="&#20885;"
      horiz-adv-x="1000" vert-adv-y="1172"
      d="M779 519L779 727L218 727L218 519L104 519L104 811L893 811L893 519L779 519ZM272 697L725 697L725 632L272 632L272 697ZM844 128L954 102L947 35C944 10 939-9 931-21C923-34 911-42 894-47C877-52 852-56 818-58L818-58C797-59 765-60 722-60L722-60C679-60 646-59 625-58L625-58C594-57 570-53 553-47C536-41 523-30 515-15C506 0 502 21 502 49L502 49L502 105C469 61 420 24 357-7C293-38 207-65 99-88L99-88L57 15C152 34 226 53 278 74C330 94 369 119 394 148L394 148L148 148L148 281C129 270 115 263 106 258L106 258L58 350C109 377 156 406 200 438C244 469 281 501 311 533L311 533L272 533L272 600L725 600L725 533L346 533L428 506L412 489L778 489L778 421L710 372L876 372L876 148L610 148L610 85C610 67 613 55 620 50C626 44 638 40 657 39L657 39C685 38 706 37 720 37L720 37C733 37 754 38 782 39L782 39C806 40 822 44 830 50C837 56 841 68 842 87L842 87L844 128ZM618 413L335 413C314 394 297 381 286 372L286 372L556 372L618 413ZM256 291L256 228L436 228C442 247 446 268 448 291L448 291L256 291ZM559 228L768 228L768 291L571 291C568 269 564 248 559 228L559 228Z"/>
    <glyph glyph-name="¥" unicode="&#20901;"
      horiz-adv-x="1000" vert-adv-y="1172"
      d="M581 235L941 235L941 132L654 132C711 107 801 66 923 10L923 10L873-97C825-72 771-46 711-17C651 12 602 34 563 49L563 49L598 132L399 132L443 52C399 29 346 3 285-26C223-55 167-79 118-99L118-99L71 10C110 23 155 42 208 65C261 88 307 111 347 132L347 132L57 132L57 235L453 235C446 260 440 279 435 292L435 292L179 292L179 623L76 623L76 801L922 801L922 623L820 623L820 292L563 292L569 273C574 258 578 245 581 235L581 235ZM190 638L809 638L809 697L190 697L190 638ZM289 544L289 503L709 503L709 544L289 544ZM709 385L709 427L289 427L289 385L709 385Z"/>
    <glyph glyph-name="Ä" unicode="&#20932;"
      horiz-adv-x="1000" vert-adv-y="1172"
      d="M888 443L888 321L583 321C571 299 562 283 556 272L556 272L954 272L954 185L816 185C790 139 763 103 735 76L735 76C828 46 899 23 947 6L947 6L907-90C833-60 743-27 638 10L638 10C599-9 550-27 493-42C435-57 363-73 276-88L276-88L239 16C346 30 429 45 488 60L488 60C439 76 393 91 349 104L349 104C344 105 340 107 336 108C331 109 327 111 323 112L323 112C335 127 353 152 377 185L377 185L246 185L246 272L433 272L461 321L318 321L318 403L535 403L535 443L257 443L257 518L535 518L535 560L322 560L322 642L535 642L535 687L286 687L286 776L535 776L535 840L646 840L646 776L928 776L928 687L646 687L646 642L888 642L888 518L959 518L959 443L888 443ZM256 544L149 507C139 539 123 585 101 646C79 706 62 749 51 776L51 776L151 811C165 780 183 736 205 681C227 626 244 580 256 544L256 544ZM783 518L783 560L646 560L646 518L783 518ZM783 403L783 443L646 443L646 403L783 403ZM140 423L247 397C210 242 173 102 134-25L134-25L27 6C68 143 106 282 140 423L140 423ZM692 185L504 185L483 152C514 145 559 132 619 113L619 113C649 132 673 156 692 185L692 185Z"/>
    <glyph glyph-name="Û" unicode="&#20955;"
      horiz-adv-x="1000" vert-adv-y="1172"
      d="M664 780L944 780L944 699L266 699L266 780L535 780L526 809C522 820 519 828 518 833L518 833L639 852C650 821 659 797 664 780L664 780ZM264 546L159 510C148 542 130 586 107 643C84 699 65 741 52 769L52 769L152 805C168 775 187 734 210 682C232 629 250 584 264 546L264 546ZM297 343L297 662L908 662L908 343L297 343ZM403 592L403 405L801 405L801 592L403 592ZM454 435L454 563L750 563L750 435L454 435ZM534 521L534 483L670 483L670 521L534 521ZM154 411L263 383C228 242 188 112 145-7L145-7L33 26C80 154 120 282 154 411L154 411ZM319 311L890 311L890 239L319 239L319 311ZM957 122L761 122C794 106 831 87 872 64C913 41 947 21 973 5L973 5L920-80C892-61 856-38 812-11C768 15 731 36 701 51L701 51L741 122L671 122L671 30C671 2 668-20 661-35C654-50 642-61 625-68C608-75 585-78 555-78L555-78C526-78 495-76 462-73L462-73L443 25C471 20 495 18 514 18L514 18C530 18 541 21 546 27C551 33 553 45 553 63L553 63L553 122L432 122L477 57C409 8 332-38 245-81L245-81L198 5C275 42 343 81 400 122L400 122L247 122L247 202L957 202L957 122Z"/>
    <glyph glyph-name="ø" unicode="&#20984;"
      horiz-adv-x="1000" vert-adv-y="1172"
      d="M274 813L727 813L727 515L914 515L914-81L791-81L791-28L210-28L210-81L87-81L87 515L274 515L274 813ZM397 393L210 393L210 94L791 94L791 393L603 393L603 688L397 688L397 393Z"/>
    <glyph glyph-name="" unicode="&#20993;"
      horiz-adv-x="1000" vert-adv-y="1172"
      d="M106 793L899 793C898 702 894 590 888 458C882 325 875 214 867 125L867 125C863 77 855 40 842 14C829-13 809-32 782-44C755-56 717-62 669-63L669-63L639-63C595-63 546-61 491-58L491-58L464 66C525 59 580 56 628 56L628 56C658 57 680 60 694 65C707 70 717 79 724 94C730 108 735 132 738 165L738 165C746 233 752 312 757 403C762 494 764 582 765 667L765 667L106 667L106 793ZM98 137L45 265C140 306 243 354 353 409C463 464 559 516 641 565L641 565L683 436C598 389 501 339 394 284C287 229 188 180 98 137L98 137Z"/>
    <glyph glyph-name=" " unicode="&#21024;"
      horiz-adv-x="1000" vert-adv-y="1172"
      d="M824 85L824 822L923 822L923 57C923 10 914-24 896-47C877-70 847-81 805-81L805-81C763-80 726-77 695-73L695-73L676 28C721 21 756 18 779 18L779 18C796 18 807 23 814 34C821 45 824 62 824 85L824 85ZM377 802L622 802L622 461L660 461L660 353L622 353L622 39C622 0 616-27 604-44C591-61 571-69 542-69L542-69C534-69 512-67 475-64L475-64L459 42C478 38 493 36 504 36L504 36C513 36 520 39 523 45C526 51 528 61 528 76L528 76L528 353L471 353C470 241 465 156 456 99C447 41 430-18 405-77L405-77L315-35C303-51 283-59 255-59L255-59C245-59 222-57 185-54L185-54L168 52C185 47 200 45 212 45L212 45C229 45 237 57 237 81L237 81L237 353L185 353C184 273 182 210 179 164C175 117 168 76 158 41C147 5 131-34 110-76L110-76L22-25C41 14 56 48 65 78C74 108 81 143 85 184C89 225 91 281 92 353L92 353L45 353L45 461L93 461L93 463L93 802L332 802L332 461L377 461L377 463L377 802ZM679 151L679 736L771 736L771 151L679 151ZM237 694L185 694L185 461L237 461L237 694ZM528 694L471 694L471 461L528 461L528 694ZM327-6C348 42 361 89 367 136C373 182 376 254 377 353L377 353L332 353L332 52C332 27 330 7 327-6L327-6Z"/>
    <glyph glyph-name="(" unicode="&#21032;"
      horiz-adv-x="1000" vert-adv-y="1172"
      d="M555 263C554 236 550 213 544 196C537 178 528 164 515 154L515 154L610 131C607 91 605 61 602 42L602 42C599 13 592-8 583-23C574-38 560-48 541-54C522-61 496-65 462-66L462-66C436-67 397-68 344-68L344-68C292-68 253-67 227-66L227-66C194-65 169-60 150-51C131-43 116-29 107-10C97 9 92 35 92 70L92 70L92 439L18 508C55 559 87 613 116 670C145 727 167 783 183 839L183 839L298 819C291 798 283 775 272 748L272 748L565 748L566 656C566 529 562 398 555 263L555 263ZM809 86L809 824L914 824L914 52C914 6 905-27 888-47C871-68 840-78 796-79L796-79C756-79 721-77 692-74L692-74L672 36C711 31 743 29 770 29L770 29C785 29 795 33 801 42C806 51 809 65 809 86L809 86ZM634 159L634 741L740 741L740 159L634 159ZM455 635L221 635C202 600 186 571 172 548L172 548L396 548L396 226L405 226C419 226 429 231 435 242C441 252 445 269 446 293L446 293C452 372 455 464 455 569L455 569L455 635ZM198 318L289 318L289 446L198 446L198 318ZM498 97C499 118 500 134 500 144L500 144C482 135 455 130 419 130L419 130C404 130 382 131 354 134L354 134L337 213L198 213L198 103C198 80 202 64 210 56C218 48 234 43 257 42L257 42C284 39 315 38 349 38L349 38C387 38 421 39 450 42L450 42C468 43 480 48 487 55C494 62 497 76 498 97L498 97Z"/>
    <glyph glyph-name="" unicode="&#21119;"
      horiz-adv-x="1000" vert-adv-y="1172"
      d="M620 236L620 144L416 144C503 100 573 61 624 28L624 28L582-68C535-35 470 10 386 67L386 67L386-83L291-83L291 72C230 18 159-31 77-74L77-74L23 27C102 58 169 97 226 144L226 144L53 144L53 236L291 236L291 276L86 276L86 607L146 607L109 645L35 718C54 733 84 763 125 806L125 806L165 847L250 799C219 767 192 740 167 719L167 719C166 720 174 713 190 699L190 699C209 682 227 666 244 650L244 650L198 607L344 607L216 719C259 754 304 796 353 846L353 846L431 795C392 756 363 730 344 715L344 715C369 696 396 675 424 651L424 651L377 607L520 607C474 652 433 689 397 718L397 718C435 747 480 789 533 844L533 844L614 794L599 780C561 745 537 724 527 716L527 716L555 694C572 679 590 665 607 652L607 652L563 607L591 607L591 276L386 276L386 236L620 236ZM819 89L819 823L927 823L927 54C927 7 918-28 901-50C884-72 853-83 810-83L810-83C775-83 734-81 686-76L686-76L664 36C712 29 748 26 772 26L772 26C789 26 802 31 809 42C816 52 819 68 819 89L819 89ZM656 163L656 740L756 740L756 163L656 163ZM186 518L186 477L291 477L291 518L186 518ZM386 518L386 477L492 477L492 518L386 518ZM291 401L186 401L186 360L291 360L291 401ZM492 401L386 401L386 360L492 360L492 401Z"/>
    <glyph glyph-name="" unicode="&#21128;"
      horiz-adv-x="1000" vert-adv-y="1172"
      d="M947 590L947 498L771 498L771 449L928 449L928 357L771 357L771 293L657 293L657 357L512 357L512 449L657 449L657 498L500 498L500 590L581 590L561 682L509 682L509 774L662 774L640 833L748 854C759 831 769 804 779 774L779 774L932 774L932 682L874 682L853 590L947 590ZM163 306L163 420C144 389 123 360 98 332L98 332L24 408C57 439 80 474 95 511C109 548 116 595 116 654L116 654L116 804L474 804L474 576L214 576C213 561 211 545 206 527L206 527L473 527L473 306L163 306ZM217 658L371 658L371 721L217 721L217 658ZM773 682L664 682C667 668 672 647 677 619L677 619C678 614 679 604 682 590L682 590L753 590L773 682ZM378 388L378 450L258 450L258 388L378 388ZM341 175L85 175L85 268L870 268C867 197 860 127 849 57L849 57C844 24 837-2 828-19C819-36 806-48 789-55C772-62 748-66 717-67L717-67C662-67 607-64 552-59L552-59L532 42C589 37 633 34 663 34L663 34C684 34 699 37 707 44C714 51 720 64 724 84L724 84C730 115 734 146 737 175L737 175L468 175C458 130 439 92 412 61C385 30 345 2 293-23C241-48 171-72 83-96L83-96L45 12C143 34 214 58 257 83C300 108 328 139 341 175L341 175Z"/>
    <glyph glyph-name="ú" unicode="&#21242;"
      horiz-adv-x="1000" vert-adv-y="1172"
      d="M369 724L905 724C903 520 894 310 877 94L877 94C874 53 866 20 855-4C844-28 826-46 803-57C779-69 747-75 706-76L706-76C641-76 579-74 521-69L521-69L495 57C560 50 617 47 668 47L668 47C689 47 706 50 717 55C728 60 737 70 742 83C747 96 750 115 752 140L752 140C759 215 764 295 768 378C772 461 774 536 774 601L774 601L306 601C259 515 202 435 136 361L136 361L29 446C82 503 131 569 178 645C225 720 258 791 279 857L279 857L409 820C394 781 380 749 369 724L369 724ZM603 272L514 168C482 201 441 241 391 288C341 335 297 374 260 405L260 405L342 499C377 472 421 437 472 392C523 347 567 307 603 272L603 272Z"/>
    <glyph glyph-name="!" unicode="&#21281;"
      horiz-adv-x="1000" vert-adv-y="1172"
      d="M917 687L215 687L215 66L926 66L926-56L92-56L92 807L917 807L917 687ZM893 126L258 126L258 234L515 234L515 328L302 328L302 434L515 434L515 520L276 520L276 627L873 627L873 520L636 520L636 434L847 434L847 328L636 328L636 234L893 234L893 126Z"/>
    <glyph glyph-name="." unicode="&#21294;"
      horiz-adv-x="1000" vert-adv-y="1172"
      d="M874 129L843 46L929 46L929-56L80-56L80 810L919 810L919 715L609 715L609 670L849 670L849 493L609 493L609 465L910 465L910 397L222 397L222 465L503 465L503 493L265 493L265 670L503 670L503 715L191 715L191 46L819 46L563 133C508 87 407 59 258 49L258 49L237 133C309 140 364 149 402 159C440 168 466 179 479 190C492 201 500 214 501 230L501 230C504 248 505 265 506 282L506 282L611 282L607 215L607 213C698 186 787 158 874 129L874 129ZM503 602L372 602L372 560L503 560L503 602ZM609 560L742 560L742 602L609 602L609 560ZM286 370L825 370L825 186L719 186L719 297L392 297L392 183L286 183L286 370Z"/>
    <glyph glyph-name="R" unicode="&#21330;"
      horiz-adv-x="1000" vert-adv-y="1172"
      d="M163 266L75 352C126 393 168 436 201 481C233 525 259 576 279 634L279 634L88 634L88 744L444 744C436 770 426 800 413 835L413 835L532 859C545 827 559 789 572 744L572 744L917 744L917 634L760 634C749 600 736 566 721 533L721 533C772 490 839 433 921 363L921 363L848 270C763 347 702 401 666 432L666 432C641 393 611 353 578 314L578 314L492 393L415 321L399 339L313 434C274 374 224 318 163 266L163 266ZM635 634L404 634C393 599 381 567 368 538L368 538L398 507C409 495 424 480 441 462C458 444 477 424 498 401L498 401C530 437 557 473 580 510C602 547 620 588 635 634L635 634ZM559 312L559 238L944 235L944 120L559 120L559-86L441-86L441 120L54 120L54 241L441 238L441 312L559 312Z"/>
    <glyph glyph-name="f" unicode="&#21350;"
      horiz-adv-x="1000" vert-adv-y="1172"
      d="M363 619L363 531L560 531L560 416L49 416L49 531L245 531L245 619L76 619L76 732L245 732L245 838L363 838L363 732L534 732L534 619L363 619ZM979 372L915 256C897 273 848 316 768 385L768 385L738 411L738-83L620-83L620 836L738 836L738 569C827 498 908 433 979 372L979 372ZM535 204L363 204L363 100L563 119L563 1C500-4 406-13 280-24C154-35 79-43 54-46L54-46L42 73C71 74 139 80 245 90L245 90L245 204L79 204L79 317L245 317L245 389L363 389L363 317L535 317L535 204Z"/>
    <glyph glyph-name="é" unicode="&#21481;"
      horiz-adv-x="1000" vert-adv-y="1172"
      d="M914 798L914 211C914 172 910 142 901 121C892 100 878 85 859 77C839 69 811 65 775 65L775 65C756 65 726 66 686 69L686 69L661 193C690 189 719 187 748 187L748 187C765 187 777 193 784 204C790 215 793 236 793 267L793 267L793 675L619 675L619-83L499-83L499 798L914 798ZM427 778L427 62L86 62L86 778L427 778ZM311 654L203 654L203 183L311 183L311 654Z"/>
    <glyph glyph-name="<" unicode="&#21564;"
      horiz-adv-x="1000" vert-adv-y="1172"
      d="M870 240L969 218L960 56C959 23 954-2 947-19C940-37 928-50 912-57C895-64 872-69 842-70L842-70L789-70C748-69 719-59 702-41C684-23 675 10 675 57L675 57L675 823L786 823L786 83C786 70 788 60 792 55C796 49 803 46 812 45L812 45C822 44 831 44 840 45L840 45C849 46 855 49 858 56C861 63 863 75 864 92L864 92C865 113 867 138 868 168C869 197 870 221 870 240L870 240ZM636 459L646 349L548 323L548 61C548 24 545-5 539-24C533-43 522-57 507-65C491-73 468-77 438-78L438-78C405-78 375-76 346-71L346-71L325 36C358 31 382 28 397 28L397 28C412 28 423 32 429 41C434 49 437 64 437 87L437 87L437 293L400 283L361 273L342 383L437 407L437 529L524 679L367 679L367 790L636 790L636 674L548 512L548 436L636 459ZM324 765L324 51L54 51L54 765L324 765ZM224 164L224 653L153 653L153 164L224 164Z"/>
    <glyph glyph-name="P" unicode="&#21584;"
      horiz-adv-x="1000" vert-adv-y="1172"
      d="M718 833L718 701L930 701L930 45C930 13 927-11 920-28C913-45 902-58 885-65C868-72 842-76 808-77L808-77C788-77 759-76 720-73L720-73L697 37C732 33 759 31 779 31L779 31C796 31 808 36 814 45C819 54 822 72 822 99L822 99L822 197L762 158C732 215 702 270 672 323L672 323C659 291 643 261 625 232C607 203 585 170 558 135L558 135L500 208L500-79L392-79L392 701L611 701L611 833L718 833ZM340 739L340 31L72 31L72 739L340 739ZM244 145L244 626L172 626L172 145L244 145ZM500 586L500 242C530 280 553 316 569 349C584 382 595 416 601 452C607 488 610 533 611 586L611 586L500 586ZM707 456C742 403 780 341 822 268L822 268L822 586L718 586C717 540 714 497 707 456L707 456Z"/>
    <glyph glyph-name="\" unicode="&#21596;"
      horiz-adv-x="1000" vert-adv-y="1172"
      d="M541 650L541 390L936 390C936 301 931 204 920 100L920 100C915 54 908 19 898-5C887-30 871-47 849-58C827-69 795-74 752-75L752-75C703-75 657-73 614-68L614-68L592 46C637 41 682 38 728 38L728 38C754 38 772 43 782 54C792 64 799 83 803 111L803 111C810 162 814 220 815 286L815 286L432 286L432 758L553 758C567 796 577 827 583 852L583 852L707 835C701 814 693 789 682 758L682 758L882 758C881 688 877 623 872 564L872 564C869 530 863 504 855 485C847 466 834 452 816 443C798 434 773 429 741 428L741 428C712 427 677 429 636 432L636 432L616 538C648 534 680 532 711 532L711 532C727 532 739 536 746 543C753 550 757 562 759 580L759 580C762 605 764 628 764 650L764 650L541 650ZM373 763L373 56L69 56L69 763L373 763ZM264 167L264 653L178 653L178 167L264 167ZM405 116L405 224L764 224L764 116L405 116Z"/>
    <glyph glyph-name="" unicode="&#21632;"
      horiz-adv-x="1000" vert-adv-y="1172"
      d="M432 816L892 816L892 60L957 60L957-55L354-55L354 29L61 29L61 763L362 763L362 60L432 60L432 816ZM544 564L779 564L779 699L544 699L544 564ZM174 648L174 145L250 145L250 648L174 648ZM544 449L544 316L779 316L779 449L544 449ZM779 60L779 198L544 198L544 60L779 60Z"/>
    <glyph glyph-name="" unicode="&#21636;"
      horiz-adv-x="1000" vert-adv-y="1172"
      d="M722 72L821 72L821 329L928 329L928-81L821-81L821-42L405-42L405 327L511 327L511 72L610 72L610 382L419 382L419 749L527 749L527 495L610 495L610 839L722 839L722 495L807 495L807 749L914 749L914 382L722 382L722 72ZM354 755L354 27L69 27L69 755L354 755ZM249 140L249 640L180 640L180 140L249 140Z"/>
    <glyph glyph-name="" unicode="&#21648;"
      horiz-adv-x="1000" vert-adv-y="1172"
      d="M493 845L606 819C591 759 571 697 547 634L547 634L547-82L437-82L437 406C417 373 401 348 390 331L390 331L347 404L347 18L73 18L73 758L347 758L347 478C374 526 402 584 429 652C456 719 478 784 493 845L493 845ZM886 650L964 650L964 531L886 531L886 42C886-3 876-35 857-53C838-72 804-81 757-82L757-82C722-82 687-80 652-76L652-76L631 37C662 32 693 29 725 28L725 28C744 28 756 32 763 41C770 50 773 66 773 91L773 91L773 531L592 531L592 650L773 650L773 823L886 823L886 650ZM179 639L179 137L245 137L245 639L179 639ZM766 242L669 201C656 238 641 278 624 321C607 364 592 403 578 437L578 437L672 478C710 389 741 310 766 242L766 242Z"/>
    <glyph glyph-name="" unicode="&#21653;"
      horiz-adv-x="1000" vert-adv-y="1172"
      d="M740 673L956 673L956 556L740 556L740 398L918 398L918-83L801-83L801-32L560-32L560-83L444-83L444 398L621 398L621 556L423 556L423 673L621 673L621 832L740 832L740 673ZM382 741L382 13L72 13L72 741L382 741ZM271 136L271 619L183 619L183 136L271 136ZM560 281L560 83L801 83L801 281L560 281Z"/>
    <glyph glyph-name="³" unicode="&#21683;"
      horiz-adv-x="1000" vert-adv-y="1172"
      d="M451 120L390 217C483 268 556 318 609 367L609 367L512 349L446 337L414 447C433 454 447 463 456 472L456 472C483 505 512 550 543 607L543 607L404 607L404 720L624 720C615 743 601 776 581 820L581 820L697 852C716 807 731 763 744 720L744 720L959 720L959 607L669 607C628 529 596 479 574 456L574 456C639 467 683 475 708 479L708 479C730 508 755 548 783 599L783 599L878 540C823 448 762 368 694 301C625 233 544 173 451 120L451 120ZM72 45L72 754L370 754L370 45L72 45ZM185 631L185 169L257 169L257 631L185 631ZM965 2L891-100C824-38 760 19 699 70L699 70C623 10 530-48 420-103L420-103L357 3C472 54 568 109 644 168C720 227 791 303 858 395L858 395L942 335C893 261 839 197 781 142L781 142C850 92 911 45 965 2L965 2Z"/>
    <glyph glyph-name="Ç" unicode="&#21703;"
      horiz-adv-x="1000" vert-adv-y="1172"
      d="M718 605L718 511L948 511L948 394L388 394L388 511L597 511L597 605L410 605L410 717L597 717L597 832L718 832L718 717L904 717L904 605L718 605ZM352 745L352-1L69-1L69 745L352 745ZM245 115L245 631L180 631L180 115L245 115ZM903 175L717 175L717 61L955 61L955-54L357-54L357 61L597 61L597 175L410 175L410 288L597 288L597 365L717 365L717 288L903 288L903 175Z"/>
    <glyph glyph-name="É" unicode="&#21705;"
      horiz-adv-x="1000" vert-adv-y="1172"
      d="M845 205L953 172C950 142 944 100 935 45L935 45C926-7 912-43 892-63C872-83 847-93 817-93L817-93C789-93 765-84 744-67C723-50 701-22 679 19L679 19C677 23 675 27 673 31C671 35 669 39 668 42L668 42C618-2 561-45 496-86L496-86L427 4L101 4L101 373L495 373L495 57C546 91 591 126 628 161L628 161C609 233 593 325 579 437L579 437L45 437L45 549L252 549L252 633L86 633L86 740L252 740L252 836L366 836L366 740L522 740L522 633L366 633L366 549L568 549L562 641C557 736 555 803 554 842L554 842L671 842C672 801 675 727 680 620L680 620L684 549L944 549L944 437L695 437C704 369 713 313 724 268L724 268C759 316 789 369 816 428L816 428L916 376C867 281 815 202 760 137L760 137C763 127 770 110 779 87L779 87C792 56 805 41 816 41L816 41C821 41 826 46 829 56C832 65 835 83 838 109L838 109L840 141L845 205ZM926 646L835 579C815 610 793 643 768 680C743 716 723 743 708 762L708 762L796 825C812 805 834 777 861 740C888 703 909 671 926 646L926 646ZM212 256L212 117L386 117L386 256L212 256Z"/>
    <glyph glyph-name="ß" unicode="&#21727;"
      horiz-adv-x="1000" vert-adv-y="1172"
      d="M386 429C367 426 351 422 340 419L340 419L312 526C329 534 339 544 344 557L344 557C383 648 417 742 445 839L445 839L543 813C518 730 480 636 429 530L429 530C450 536 467 541 482 544L482 544C505 601 521 641 529 665L529 665L612 631C564 498 515 385 466 290L466 290L597 327L599 223L414 174C407 172 390 168 364 161L364 161L332 270C340 273 346 277 351 282C356 287 361 294 367 305L367 305C388 342 411 387 436 441L436 441L386 429ZM757 696L938 696C936 472 928 260 915 60L915 60C912 25 906-2 898-20C889-39 874-52 855-59C835-66 806-70 769-70L769-70C744-70 716-68 685-65L685-65L660 50C693 45 725 42 754 42L754 42C769 42 781 44 789 47C796 50 802 56 806 65C809 74 812 88 813 107L813 107C825 251 831 409 831 581L831 581L719 581C702 536 684 493 663 450L663 450L578 494C601 539 622 590 641 646C660 702 679 766 698 838L698 838L790 815L757 696ZM310 766L310 24L59 24L59 766L310 766ZM213 140L213 651L157 651L157 140L213 140ZM796 240L708 196C673 278 641 344 612 395L612 395L696 440C733 378 766 311 796 240L796 240ZM347-39L328 72C418 89 516 112 622 141L622 141L627 27C526 0 433-22 347-39L347-39Z"/>
    <glyph glyph-name="é" unicode="&#21737;"
      horiz-adv-x="1000" vert-adv-y="1172"
      d="M927 126L718 126L718 56L966 56L966-53L365-53L365 56L612 56L612 126L400 126L400 236L612 236L612 307L404 307L404 799L919 799L919 307L718 307L718 236L927 236L927 126ZM345 764L345 12L70 12L70 764L345 764ZM510 602L612 602L612 690L510 690L510 602ZM718 690L718 602L813 602L813 690L718 690ZM243 129L243 648L176 648L176 129L243 129ZM612 503L510 503L510 415L612 415L612 503ZM813 503L718 503L718 415L813 415L813 503Z"/>
    <glyph glyph-name="" unicode="&#21761;"
      horiz-adv-x="1000" vert-adv-y="1172"
      d="M741 738L961 738L961 628L394 628L394 738L614 738C603 771 591 800 580 824L580 824L701 847C719 803 732 767 741 738L741 738ZM363 753L363 34L75 34L75 753L363 753ZM257 151L257 638L184 638L184 151L257 151ZM436 476L436 576L895 576L895 476L436 476ZM895 427L895 328L436 328L436 427L895 427ZM538-32L538-83L420-83L420 276L916 276L916-82L795-82L795-32L538-32ZM538 76L795 76L795 168L538 168L538 76Z"/>
    <glyph glyph-name="2" unicode="&#22066;"
      horiz-adv-x="1000" vert-adv-y="1172"
      d="M668 436L668 796L936 796L936 45C936 12 933-12 926-29C919-46 908-58 892-65C875-72 851-76 820-76L820-76C801-76 781-75 761-73L761-73L738 46C760 42 782 40 803 40L803 40C817 40 826 43 832 49C837 55 839 67 839 86L839 86L839 217L754 217C751 157 743 105 730 60C717 15 695-36 666-94L666-94L576-28C601 17 618 49 626 69L626 69L525 69L525-82L429-82L429 69L317 69L317 170L429 170L429 222L334 222L334 599L429 599L429 654L321 654L321 753L429 753L429 837L525 837L525 753L634 753L634 654L525 654L525 599L623 599L623 222L525 222L525 170L627 170L627 71C644 111 655 156 660 205C665 254 668 331 668 436L668 436ZM288 750L288 25L64 25L64 750L288 750ZM758 559L839 559L839 679L758 679L758 559ZM205 142L205 634L153 634L153 142L205 142ZM419 453L536 453L536 504L419 504L419 453ZM758 378L758 324L839 324L839 451L758 451L758 378ZM536 316L536 368L419 368L419 316L536 316Z"/>
    <glyph glyph-name="l" unicode="&#22124;"
      horiz-adv-x="1000" vert-adv-y="1172"
      d="M749 83L701 123L701 56L948 56L948-53L314-53L314 56L71 56L71 744L328 744L328 607C347 638 367 675 386 720C405 765 420 807 432 846L432 846L534 826C525 798 516 771 507 746L507 746L640 746L640 646L557 646L597 568L515 526L483 590L460 637C440 596 422 561 406 534L406 534L328 587L328 141C357 184 380 225 397 265C413 304 425 348 432 395L432 395L528 379C523 346 516 314 507 285L507 285C532 256 560 220 590 178L590 178L590 408L364 408L364 516L922 516L922 408L701 408L701 188C738 246 764 314 780 393L780 393L876 376C865 333 857 304 853 290L853 290C906 222 944 172 967 140L967 140L892 81L814 191C797 154 776 118 749 83L749 83ZM697 536L611 588C647 642 680 726 710 840L710 840L811 824C802 792 793 766 786 746L786 746L958 746L958 646L855 646L902 567L820 523C808 548 785 589 751 646L751 646L749 646C730 601 712 565 697 536L697 536ZM170 630L170 166L233 166L233 630L170 630ZM400 74L328 128L328 56L590 56L590 145L532 99C523 114 509 135 490 163L490 163L472 191C455 155 431 116 400 74L400 74Z"/>
    <glyph glyph-name="v" unicode="&#22134;"
      horiz-adv-x="1000" vert-adv-y="1172"
      d="M699 841L801 841L801 780L940 780L940 693L801 693L801 655L699 655L699 693L583 693L583 655L481 655L481 693L363 693L363 780L481 780L481 841L583 841L583 780L699 780L699 841ZM889 358L565 358C557 344 549 331 541 319L541 319L940 319C934 207 927 115 919 44L919 44C914-3 904-37 887-57C870-77 842-87 803-88L803-88C773-88 745-87 719-84L719-84L702-3L387-3L387 166L357 148L330 203L330 54L73 54L73 760L330 760L330 247C377 279 416 316 446 358L446 358L390 358L390 637L889 637L889 358ZM177 647L177 165L234 165L234 647L177 647ZM498 527L780 527L780 563L498 563L498 527ZM780 466L498 466L498 430L780 430L780 466ZM606 237L475 237L446 210L480 210L480 77L770 77L770-1C785 0 796 5 803 14C810 23 814 38 817 58L817 58C824 112 830 172 834 237L834 237L694 237L685 219C689 217 695 213 703 208L703 208C752 178 788 157 809 145L809 145L762 80L727 103C697 124 668 143 640 160L640 160C616 135 581 109 534 82L534 82L489 151C518 164 541 178 559 191C577 204 593 220 606 237L606 237Z"/>
    <glyph glyph-name="£" unicode="&#22179;"
      horiz-adv-x="1000" vert-adv-y="1172"
      d="M101 602L101 818L467 818L467 602L101 602ZM530 602L530 818L901 818L901 602L530 602ZM210 735L210 678L359 678L359 735L210 735ZM638 735L638 678L789 678L789 735L638 735ZM969 232L934 147L898 155L898-83L786-83L786-56L637-56L637-83L526-83L526 160L876 160C691 201 561 229 485 244L485 244C455 226 416 210 368 197C319 183 257 171 181 160L181 160L469 160L469-83L359-83L359-56L214-56L214-83L104-83L104 150L63 145L38 237C141 248 220 259 277 270C333 281 373 294 398 307C423 320 440 337 450 357L450 357L254 357L254 279L143 279L143 440L410 440C418 459 424 473 427 482L427 482L54 482L54 567L946 567L946 482L555 482L537 440L857 440L857 280L744 280L744 357L577 357C574 347 567 333 558 316L558 316C752 277 889 249 969 232L969 232ZM214 22L359 22L359 78L214 78L214 22ZM786 78L637 78L637 22L786 22L786 78Z"/>
    <glyph glyph-name="·" unicode="&#22199;"
      horiz-adv-x="1000" vert-adv-y="1172"
      d="M692 775L947 775L947 691L328 691L328 775L573 775C563 800 554 820 545 835L545 835L658 852C672 824 683 798 692 775L692 775ZM67 96L67 763L296 763L296 96L67 96ZM976 25L932-74C871-57 821-39 781-19C740 0 705 24 674 52L674 52L679-26C622-41 568-57 517-75L517-75C506-78 493-83 479-89L479-89L458-97L427-20C438-7 444 7 444 24L444 24L444 37C390 10 336-14 283-33L283-33L244 61C333 87 415 122 490 165L490 165L320 165L320 241L465 241L465 275L360 275L360 347L465 347L465 381L343 381L343 453L465 453L465 491L350 491L350 660L611 660L611 491L572 491L572 453L692 453L692 491L651 491L651 660L915 660L915 491L801 491L801 453L924 453L924 381L801 381L801 347L908 347L908 275L801 275L801 241L959 241L959 165L880 165L931 119C916 109 885 90 838 61L838 61C871 49 917 37 976 25L976 25ZM158 656L158 193L212 193L212 656L158 656ZM531 556L531 598L437 598L437 556L531 556ZM829 556L829 598L732 598L732 556L829 556ZM692 347L692 381L572 381L572 347L692 347ZM692 241L692 275L572 275L572 241L692 241ZM756 105C785 123 815 143 847 165L847 165L694 165C713 142 733 122 756 105L756 105ZM547 94L547 30L659 67C643 83 625 105 606 132L606 132C581 115 561 102 547 94L547 94Z"/>
    <glyph glyph-name="¼" unicode="&#22204;"
      horiz-adv-x="1000" vert-adv-y="1172"
      d="M380 691L438 718L333 715L328 800C401 801 498 805 619 812C740 819 835 826 905 835L905 835L919 748C881 744 846 741 815 740L815 740L880 720C863 683 848 653 835 630L835 630L925 630L925 424L334 424L334 630L411 630C400 655 389 675 380 691L380 691ZM300 763L300 35L71 35L71 763L300 763ZM644 630L732 630C750 665 767 701 783 737L783 737C759 736 717 733 658 729L658 729C671 706 682 681 693 652L693 652L644 630ZM476 720C491 693 504 668 515 644L515 644L485 630L593 630C589 641 578 664 560 701L560 701L625 728C556 724 506 721 476 720L476 720ZM212 136L212 661L162 661L162 136L212 136ZM500 497L500 553L425 553L425 497L500 497ZM587 497L665 497L665 553L587 553L587 497ZM753 553L753 497L825 497L825 553L753 553ZM884 335L948 335L948 234L884 234L884 21C884-17 877-43 864-58C851-73 827-81 792-82L792-82C769-83 740-81 706-78L706-78L685 27C710 23 734 21 755 21L755 21C766 21 773 24 778 30C782 36 784 46 784 59L784 59L784 234L639 234L639 335L784 335L784 401L884 401L884 335ZM621 391L621 114L570 114C583 95 598 70 616 39C633 8 647-19 658-41L658-41L578-77L552-26C505-37 461-49 420-62L420-62C397-69 378-75 362-81L362-81L321 5C333 19 339 33 339 47L339 47L339 391L621 391ZM431 280L528 280L528 321L431 321L431 280ZM632 183L701 225C711 214 725 196 742 172C759 147 773 126 784 108L784 108L711 60C701 79 688 101 673 126C657 151 643 170 632 183L632 183ZM528 183L528 220L431 220L431 183L528 183ZM431 40L506 61L487 94L538 114L431 114L431 40Z"/>
    <glyph glyph-name="Ú" unicode="&#22234;"
      horiz-adv-x="1000" vert-adv-y="1172"
      d="M215-82L94-82L94 799L910 799L910-82L789-82L789-36L215-36L215-82ZM215 223L215 79L789 79L789 681L215 681L215 225C275 270 320 310 351 347C382 384 404 424 418 469C431 514 441 573 446 646L446 646L571 646C566 581 558 526 547 482L547 482C656 371 737 288 788 232L788 232L703 132C674 166 627 218 562 287L562 287L500 354C479 315 451 277 418 241C385 205 342 167 291 127L291 127L215 223Z"/>
    <glyph glyph-name="ä" unicode="&#22244;"
      horiz-adv-x="1000" vert-adv-y="1172"
      d="M195-86L78-86L78 810L924 810L924-86L809-86L809-48L195-48L195-86ZM809 700L195 700L195 55L809 55L809 700ZM693 262L783 238C781 212 779 193 778 180L778 180C775 157 771 140 764 129C757 117 746 108 731 103C716 98 695 94 667 92L667 92C655 91 636 91 611 91L611 91C586 91 567 91 554 92L554 92C523 94 500 98 485 103C470 108 459 118 452 133C445 147 442 169 442 198L442 198L442 270L256 270L256 482L357 482L357 362L442 362L442 515L228 515L228 613L442 613L442 677L549 677L549 613L771 613L771 515L549 515L549 362L636 362L636 481L736 481L736 270L549 270L549 230C549 213 552 202 557 197C562 192 572 188 587 187L587 187C594 186 604 186 617 186L617 186C630 186 640 186 647 187L647 187C663 188 674 192 680 198C686 204 690 216 691 233L691 233C692 246 693 256 693 262L693 262Z"/>
    <glyph glyph-name="" unicode="&#22275;"
      horiz-adv-x="1000" vert-adv-y="1172"
      d="M192-86L77-86L77 811L920 811L920-86L805-86L805-47L192-47L192-86ZM805 714L192 714L192 50L805 50L805 714ZM775 648L775 569L546 569L546 527L748 527L748 174C748 147 745 127 739 114C733 100 723 91 710 86C696 81 677 78 652 78L652 78C639 78 618 79 590 82L590 82L575 158C591 155 610 153 632 153L632 153C641 153 647 156 651 162C654 168 656 177 656 190L656 190L656 213L546 213L546 91L452 91L452 213L343 213L343 81L250 81L250 527L452 527L452 569L222 569L222 648L452 648L452 696L546 696L546 648L616 648C613 659 608 670 602 683L602 683L687 699C692 686 697 669 703 648L703 648L775 648ZM343 400L452 400L452 448L343 448L343 400ZM546 400L656 400L656 448L546 448L546 400ZM452 333L343 333L343 283L452 283L452 333ZM656 333L546 333L546 283L656 283L656 333Z"/>
    <glyph glyph-name=")" unicode="&#22313;"
      horiz-adv-x="1000" vert-adv-y="1172"
      d="M282 488L282 196L403 229L413 107C367 94 306 76 229 55C152 34 91 17 45 4L45 4L24 128C49 133 95 145 162 163L162 163L162 488L41 488L41 608L162 608L162 835L282 835L282 608L392 608L392 488L282 488ZM753 468L960 468L960 347L753 347L753 68C753 17 741-19 718-41C694-63 654-74 597-75L597-75C561-76 523-74 482-70L482-70L458 56C497 51 533 48 566 48L566 48C591 48 608 52 616 60C623 68 627 84 627 108L627 108L627 347L393 347L393 468L627 468L627 666L427 666L427 786L927 786L927 666L753 666L753 468Z"/>
    <glyph glyph-name="B" unicode="&#22338;"
      horiz-adv-x="1000" vert-adv-y="1172"
      d="M778 151C826 106 892 63 976 20L976 20L907-91C822-41 753 11 700 64L700 64C649 15 580-36 495-89L495-89L423 10C506 58 573 106 625 154L625 154C572 231 531 328 502 445L502 445C501 356 497 283 489 225C481 166 467 113 448 65C428 16 399-33 362-84L362-84L251-20C294 35 326 85 346 131L346 131C168 70 71 38 54 33L54 33L27 157C35 158 74 170 145 193L145 193L145 485L54 485L54 609L145 609L145 829L260 829L260 609L347 609L347 485L260 485L260 231L334 256L350 142C365 182 375 227 380 277C385 326 387 395 387 484L387 484L387 765C464 770 551 779 648 791C745 803 830 816 901 830L901 830L925 706C806 681 665 662 502 648L502 648L502 567L911 567L911 447C895 385 876 330 856 283C835 235 809 191 778 151L778 151ZM701 241C741 297 771 366 792 447L792 447L613 447C634 366 663 298 701 241L701 241Z"/>
    <glyph glyph-name="^" unicode="&#22366;"
      horiz-adv-x="1000" vert-adv-y="1172"
      d="M524 654L524 392L939 392C938 298 933 201 922 100L922 100C917 51 909 15 899-8C889-31 873-48 851-57C828-66 794-71 749-72L749-72C698-72 647-70 596-66L596-66L574 46C624 40 674 37 723 37L723 37C743 37 758 39 769 44C779 49 787 56 792 67C797 77 800 92 803 112L803 112C809 165 813 223 814 287L814 287L404 287L404 762L534 762C549 797 559 828 566 855L566 855L699 833C697 825 695 817 692 810C689 802 686 794 683 787L683 787C681 784 678 775 673 762L673 762L884 762C882 700 877 634 870 564L870 564C866 530 860 504 852 485C843 466 830 452 811 444C792 435 766 430 732 430L732 430C689 430 651 431 617 434L617 434L598 540C631 536 665 534 698 534L698 534C717 534 730 538 738 545C746 552 751 564 754 580L754 580C757 601 760 625 761 654L761 654L524 654ZM265 481L265 211L348 238L358 120C226 75 123 41 49 20L49 20L22 139C64 150 105 162 146 175L146 175L146 481L52 481L52 600L146 600L146 828L265 828L265 600L354 600L354 481L265 481ZM383 114L383 222L767 222L767 114L383 114Z"/>
    <glyph glyph-name="¢" unicode="&#22434;"
      horiz-adv-x="1000" vert-adv-y="1172"
      d="M485 671L485 578L956 578L956 468L485 468L485 410C485 321 475 238 454 160C433 82 399 6 352-67L352-67L247 10C282 61 308 104 324 141L324 141L236 112L49 51L21 166L139 202L139 495L46 495L46 612L139 612L139 838L250 838L250 612L335 612L335 495L250 495L250 237L321 260L334 164C349 203 358 247 363 295C368 342 370 409 370 496L370 496L370 778C444 781 529 788 626 800C722 811 811 824 894 839L894 839L926 725C858 713 783 702 701 692C619 681 547 674 485 671L485 671ZM606-20L606-78L502-78L502 366L906 366L906-78L799-78L799-20L606-20ZM606 87L799 87L799 258L606 258L606 87Z"/>
    <glyph glyph-name="£" unicode="&#22435;"
      horiz-adv-x="1000" vert-adv-y="1172"
      d="M340 237L356 117C318 107 219 76 58 23L58 23L34 142C49 145 84 155 138 172L138 172L138 482L52 482L52 597L138 597L138 833L257 833L257 597L336 597L336 482L257 482L257 210L340 237ZM358 683L358 798L937 798L937 683L358 683ZM395 618L902 618L902 134L395 134L395 618ZM512 427L784 427L784 506L512 506L512 427ZM784 322L512 322L512 244L784 244L784 322ZM956-53L323-53L323 62L956 62L956-53Z"/>
    <glyph glyph-name="" unicode="&#22549;"
      horiz-adv-x="1000" vert-adv-y="1172"
      d="M662 769L940 769L940 680L618 680C612 669 602 654 589 634L589 634L896 634L896 329C896 301 893 280 888 266C882 251 872 241 858 236C843 230 822 227 794 227L794 227C767 227 736 229 703 232L703 232L685 312C709 308 732 306 755 306L755 306C767 306 776 309 781 315C786 321 789 331 790 344L790 344L562 344L562 255L459 255L459 481L420 443L375 553C422 593 461 635 492 680L492 680L425 680L425 769L544 769C552 786 562 810 573 841L573 841L685 828C674 797 666 778 662 769L662 769ZM276 702L201 702L201 225L93 225L93 806L396 806L396 706L332 567C356 532 372 504 379 481C386 458 390 433 390 405L390 405C390 366 383 338 369 320C355 302 332 292 300 291L300 291C276 290 252 291 228 294L228 294L212 391C223 388 237 386 254 386L254 386C274 386 284 401 284 430L284 430C284 447 280 465 271 484C262 503 245 527 220 557L220 557L276 702ZM562 557L562 520L790 520L790 557L562 557ZM790 415L790 451L562 451L562 415L790 415ZM852 191L852 98L559 98L559 42L935 42L935-59L65-59L65 42L443 42L443 98L148 98L148 191L443 191L443 231L559 231L559 191L852 191Z"/>
    <glyph glyph-name="" unicode="&#22687;"
      horiz-adv-x="1000" vert-adv-y="1172"
      d="M886 69L809 104L809 40L955 40L955-58L416-58L416 40L572 40L572 119L497 78C487 101 467 142 438 201L438 201C430 150 416 102 397 60C378 17 349-31 310-84L310-84L209-19C248 31 277 75 296 112C314 149 326 189 332 231C338 272 341 329 341 400L341 400L341 657L558 657L558 838L668 838L668 789L925 789L925 703L668 703L668 657L957 657L957 566L924 482L821 500L847 566L449 566L449 396C449 332 447 282 443 247L443 247L498 275C519 239 544 191 572 132L572 132L572 289L663 289L663 40L717 40L717 289L809 289L809 116C822 143 835 172 848 204C861 236 871 260 876 276L876 276L959 247C944 208 920 149 886 69L886 69ZM293 257L304 143C267 131 223 117 174 100C124 83 81 68 46 55L46 55L23 172C40 176 74 186 124 202L124 202L124 494L43 494L43 605L124 605L124 829L234 829L234 605L305 605L305 494L234 494L234 237L293 257ZM647 310C612 311 588 319 573 333C558 346 551 370 551 404L551 404L551 416L481 408L474 487L551 495L551 548L658 548L658 506L794 520L801 444L658 428C658 413 661 403 668 397C674 391 685 387 701 386L701 386C708 385 721 385 738 385L738 385C755 385 767 385 774 386L774 386C789 387 800 391 807 397C814 402 817 412 818 425L818 425C819 436 820 445 821 454C821 462 821 468 822 472L822 472L920 453C918 424 916 403 913 388L913 388C909 366 904 350 897 339C890 328 880 321 867 317C853 313 832 311 805 310L805 310L726 309L647 310Z"/>
    <glyph glyph-name="Ñ" unicode="&#22737;"
      horiz-adv-x="1000" vert-adv-y="1172"
      d="M461 580L461 649L163 649L163 581L62 581L62 715L252 715L252 844L357 844L357 810L517 810L517 743L357 743L357 715L563 715L563 580L461 580ZM702 408C659 483 627 575 606 684L606 684L591 684L591 785L925 785L925 684C902 572 868 479 821 405L821 405C858 360 907 319 968 284L968 284L906 193C847 233 798 277 760 325L760 325C717 278 666 235 607 195L607 195L544 280C608 319 661 361 702 408L702 408ZM762 494C792 548 814 611 828 684L828 684L700 684C714 611 735 548 762 494L762 494ZM203 556L235 511C181 471 128 439 75 416L75 416L39 489C67 500 92 513 115 526C138 539 163 555 190 575L190 575L203 557L203 621L425 621L425 556L203 556ZM416 508L452 572C487 556 537 528 602 487L602 487L561 422C540 437 515 452 488 469C461 485 437 498 416 508L416 508ZM858 81L557 81L557 33L938 33L938-56L59-56L59 33L441 33L441 81L135 81L135 167L441 167L441 212L143 212L143 321C108 302 82 289 63 281L63 281L32 361C86 382 137 409 184 442C231 474 271 511 305 552L305 552L380 515L362 495C441 454 508 415 563 380L563 380L522 317L490 338L490 216L557 216L557 167L858 167L858 81ZM314 445C293 425 269 405 244 386L244 386L414 386L391 400C348 425 322 440 314 445L314 445ZM237 324L237 277L397 277L397 324L237 324Z"/>
    <glyph glyph-name="" unicode="&#22809;"
      horiz-adv-x="1000" vert-adv-y="1172"
      d="M912 206L984 160C974 94 961 39 946-4L946-4C938-29 927-50 914-68C900-87 884-96 865-96L865-96C844-96 825-89 811-76C796-63 782-43 771-15L771-15C758 18 747 59 740 108C732 157 728 223 728 308L728 308L728 686L233 686L233 351C233 326 232 300 230 274L230 274C296 351 344 433 374 521L374 521L263 521L263 628L698 628L698 521L490 521L466 456L688 456L688 353C657 257 612 174 553 104C494 33 413-30 310-85L310-85L231 7C316 49 387 99 443 156L443 156C418 176 383 201 340 231L340 231C319 204 299 181 281 163L281 163L226 230C211 117 177 11 124-88L124-88L18-29C57 43 83 109 96 168C109 227 115 296 115 375L115 375L115 803L851 803L851 380C851 251 853 163 856 114L856 114C859 82 865 66 874 66L874 66C883 66 891 81 897 112L897 112C902 136 906 160 909 185L909 185L912 206ZM573 353L419 353C415 344 411 337 407 331C403 324 400 318 397 313L397 313C431 292 468 266 509 236L509 236C534 273 556 312 573 353L573 353Z"/>
    <glyph glyph-name="-" unicode="&#22829;"
      horiz-adv-x="1000" vert-adv-y="1172"
      d="M929 367L577 367C641 218 769 107 961 35L961 35L894-90C794-42 713 8 652 61C590 113 541 175 505 247L505 247C433 108 302-3 112-86L112-86L43 35C138 74 217 121 282 177C346 233 390 296 413 367L413 367L69 367L69 485L431 485C432 498 432 526 432 567L432 567L433 651C314 640 213 633 131 629L131 629L118 749C221 752 344 761 485 774C626 787 745 802 841 818L841 818L871 700C789 687 687 675 564 663L564 663L563 572C563 526 563 497 562 485L562 485L929 485L929 367Z"/>
    <glyph glyph-name="U" unicode="&#22869;"
      horiz-adv-x="1000" vert-adv-y="1172"
      d="M352 603L353 641L73 641L73 751L446 751C436 780 426 806 415 831L415 831L541 857C552 830 564 794 576 751L576 751L931 751L931 641L689 641L689 464C689 421 682 389 667 370C652 351 627 341 594 340L594 340C566 339 532 341 492 344L492 344L472 447C495 443 518 441 539 441L539 441C553 441 563 445 569 453C574 460 577 473 577 491L577 491L577 641L470 641L469 605C467 552 460 507 448 471C435 434 415 402 386 373C357 344 316 316 263 288L263 288L198 381C240 406 272 430 294 451C315 472 330 495 338 518C346 541 351 569 352 603L352 603ZM202 612L286 551C221 460 158 387 99 331L99 331L23 406C74 453 134 522 202 612L202 612ZM707 525L785 603C810 582 840 554 875 520C910 485 941 454 967 426L967 426L884 344C839 397 780 457 707 525L707 525ZM928 257L928 151L585 151C650 90 775 47 960 22L960 22L905-93C710-60 577 1 505 88L505 88C432 5 294-56 90-95L90-95L36 20C230 44 353 88 404 151L404 151L70 151L70 257L434 257L434 315L562 315L562 257L928 257Z"/>
    <glyph glyph-name="" unicode="&#22916;"
      horiz-adv-x="1000" vert-adv-y="1172"
      d="M939 246L795 246C764 187 724 139 675 101L675 101C764 72 846 43 920 14L920 14L867-92C767-55 658-16 541 25L541 25C438-20 291-58 102-90L102-90L55 23C187 42 292 62 370 82L370 82C319 99 250 122 162 149L162 149C185 180 208 212 230 246L230 246L58 246L58 356L293 356C307 383 319 408 330 433L330 433L158 433L158 637L63 637L63 746L444 746L422 793L407 824L539 850C551 829 567 794 588 746L588 746L933 746L933 637L281 637L281 541L868 541L868 433L366 433L456 408C452 398 445 381 434 356L434 356L939 356L939 246ZM349 204C410 187 473 167 540 146L540 146C586 171 622 205 649 246L649 246L376 246L349 204Z"/>
    <glyph glyph-name="å" unicode="&#23013;"
      horiz-adv-x="1000" vert-adv-y="1172"
      d="M952 405L735 405C695 362 650 321 600 282L600 282L600 247C698 282 785 320 861 361L861 361L913 264C866 240 815 216 758 193C701 170 649 150 600 135L600 135L600 108C600 86 603 71 609 62C614 53 625 47 640 45L640 45C659 43 680 42 703 42L703 42C730 42 753 43 774 45L774 45C789 46 800 51 806 60C812 68 816 81 817 100L817 100L820 187L928 164C928 155 928 148 927 142L927 142C925 97 924 70 923 61L923 61C920 29 915 4 907-14C898-32 886-45 870-54C853-63 831-68 802-70L802-70C773-73 738-74 697-74L697-74C656-74 620-73 591-70L591-70C554-67 527-55 510-34C493-13 485 22 485 71L485 71L485 200C473 193 446 176 404 150L404 150L348 251C439 300 516 352 578 405L578 405L406 405L406 515L547 515L547 615L435 615L435 724L547 724L547 831L654 831L654 724L775 724L775 640C800 684 822 729 841 774L841 774L944 728C905 645 864 574 823 515L823 515L952 515L952 405ZM312 183C362 134 402 95 431 65L431 65L348-22L312 15C299 30 279 50 253 76L253 76C218 25 170-31 109-93L109-93L20-9C88 49 139 104 172 155L172 155C129 196 91 230 56 258L56 258C77 341 95 436 111 543L111 543L40 543L40 658L127 658C135 737 140 795 142 830L142 830L255 828C251 777 245 721 237 658L237 658L385 658L385 544C376 454 366 382 357 330C347 277 332 228 312 183L312 183ZM760 615L654 615L654 515L687 515C717 552 741 585 760 615L760 615ZM177 308L229 262C258 337 278 431 287 543L287 543L220 543C208 466 194 388 177 308L177 308Z"/>
    <glyph glyph-name="" unicode="&#23044;"
      horiz-adv-x="1000" vert-adv-y="1172"
      d="M87 328L38 445C110 463 170 480 218 497C265 514 308 533 346 555L346 555L80 555L80 655L268 655C234 690 198 726 159 761L159 761L237 839C297 786 344 742 378 708L378 708L325 655L435 655L435 838L554 838L554 655L672 655L620 713C678 764 722 806 752 838L752 838L838 762C810 733 772 698 725 655L725 655L908 655L908 555L646 555C720 514 821 477 950 444L950 444L909 332C831 357 764 382 707 409C650 436 599 465 554 498L554 498L554 378L435 378L435 497C390 464 340 434 286 407C231 380 165 354 87 328L87 328ZM919 214L774 214C745 162 712 120 673 89L673 89L931 19L886-86C785-55 672-21 549 15L549 15C497-7 434-26 360-43C286-60 196-76 91-89L91-89L47 27C176 39 280 53 359 69L359 69C300 86 232 105 155 126L155 126C173 147 196 177 224 214L224 214L70 214L70 319L300 319C315 341 329 364 343 388L343 388L470 355C465 347 457 335 448 319L448 319L919 319L919 214ZM346 175L531 127C570 149 601 178 624 214L624 214L376 214C376 214 366 201 346 175L346 175Z"/>
    <glyph glyph-name="" unicode="&#23045;"
      horiz-adv-x="1000" vert-adv-y="1172"
      d="M400 109L329 14L248 91C216 38 169-21 107-87L107-87L18-3C81 54 131 110 167 166L167 166C120 209 81 243 51 267L51 267C74 350 93 445 108 554L108 554L38 554L38 667L123 667C128 716 133 772 136 833L136 833L248 830L230 667L367 667L367 553C360 470 351 401 342 346C332 291 318 242 301 197L301 197L400 109ZM881 201L797 228L797 62L953 62L953-50L366-50L366 62L522 62L522 688L390 688L390 801L936 801L936 688L797 688L797 266C826 383 849 489 866 583L866 583L962 556C953 509 940 450 924 379C907 307 893 248 881 201L881 201ZM688 62L688 688L630 688L630 62L688 62ZM369 557L457 581C464 548 475 492 490 414C504 335 515 271 522 223L522 223L425 207C421 236 414 282 404 345C394 408 386 455 381 486L381 486L369 557ZM171 313L218 271C231 307 242 348 250 393C258 438 265 491 271 554L271 554L215 554C201 460 186 380 171 313L171 313Z"/>
    <glyph glyph-name="" unicode="&#23059;"
      horiz-adv-x="1000" vert-adv-y="1172"
      d="M351 127L284 45L238 90C209 42 164-15 105-82L105-82L18-1C51 34 79 64 102 91C125 117 144 143 159 168L159 168C105 221 69 255 52 271L52 271C68 345 83 439 98 552L98 552L29 552L29 658L111 658C119 733 124 792 127 835L127 835L233 824C229 773 223 718 216 658L216 658L364 658L364 557C355 468 345 396 334 339C323 282 307 231 288 186L288 186L351 127ZM927 537L514 537L514 477C514 353 505 246 486 157C467 67 439-15 402-90L402-90L295-33C323 20 345 67 360 107C375 146 386 195 394 253C402 311 406 386 406 478L406 478L406 801L927 801L927 537ZM514 631L817 631L817 702L514 702L514 631ZM155 307L207 261C221 297 232 338 241 383C250 428 257 485 264 552L264 552L202 552C185 446 170 364 155 307L155 307ZM857 121L952 96C951 85 950 62 947 28L947 28C945-9 936-35 922-50C907-66 882-76 848-79L848-79C834-80 814-81 787-81L787-81C760-81 740-80 726-79L726-79C691-76 666-66 651-49C636-32 628-4 628 37L628 37L628 106L514 95L509 186L628 197L628 247L541 239L532 331L628 340L628 390C614 387 593 385 566 382L566 382L546 379L535 470C596 476 658 484 721 495C783 505 835 516 877 528L877 528L894 438C839 425 786 415 733 406L733 406L733 350L890 364L898 273L733 257L733 207L939 227L946 136L733 116L733 73C733 55 735 42 740 35C744 28 752 23 764 22L764 22C777 21 787 20 793 20L793 20C810 20 823 21 832 24C840 26 846 31 849 39C852 46 854 58 855 74L855 74C856 95 857 111 857 121L857 121Z"/>
    <glyph glyph-name="%" unicode="&#23077;"
      horiz-adv-x="1000" vert-adv-y="1172"
      d="M896 219L982 186C979 143 973 96 965 45L965 45C953-39 920-81 865-81L865-81C840-81 818-71 801-51C783-32 765 2 746 49L746 49C741 62 737 72 735 79L735 79C702 46 667 16 632-11L632-11L572 86C624 124 668 163 705 204L705 204C696 261 687 345 678 458L678 458L569 458L569 369L638 391L657 279C630 271 614 266 608 264L608 264L569 252L569 47C569 15 566-9 559-26C552-43 540-56 524-63C508-70 486-74 457-74L457-74C444-74 423-73 395-70L395-70L374 41C394 37 414 35 435 35L435 35C446 35 453 39 458 48C463 56 465 68 465 85L465 85L465 218L383 190L359 305C374 308 409 319 465 337L465 337L465 458L382 458L382 572L465 572L465 663C442 658 417 653 390 650L390 650L377 757C413 762 453 769 498 780C543 790 582 800 616 811L616 811L638 704C622 699 599 693 569 686L569 686L569 572L671 572L668 640C663 731 660 796 660 836L660 836L766 836C766 811 766 787 767 765L767 765L837 821C856 800 877 774 902 744C926 713 945 688 958 669L958 669L874 599C862 618 846 641 825 669C804 697 785 722 767 744L767 744C768 693 770 657 771 636L771 636L774 572L946 572L946 458L780 458C781 447 784 408 790 341L790 341L793 313C816 346 840 384 867 428L867 428L951 368C910 297 865 232 817 171L817 171C822 152 827 133 832 116L832 116C839 95 844 80 850 70C855 59 859 54 864 54L864 54C869 54 874 58 878 67C881 76 885 92 888 116L888 116C891 137 893 171 896 219L896 219ZM287 182C328 143 355 115 370 100L370 100L298 13L233 79C202 31 158-23 101-84L101-84L26-3C57 28 83 56 104 80C125 104 142 128 157 152L157 152C115 191 79 224 48 251L48 251C67 341 84 441 98 552L98 552L38 552L38 665L110 665C115 716 120 772 123 834L123 834L229 832C226 782 222 726 215 665L215 665L350 665L350 553C345 466 338 394 329 337C320 280 306 228 287 182L287 182ZM160 299C170 290 186 276 207 256L207 256C219 291 229 332 236 378C243 423 249 481 255 552L255 552L201 552C188 458 174 374 160 299L160 299Z"/>
    <glyph glyph-name="4" unicode="&#23092;"
      horiz-adv-x="1000" vert-adv-y="1172"
      d="M570 728L494 649C459 694 422 738 381 780L381 780L456 852C503 806 541 765 570 728L570 728ZM284 176C313 149 340 121 366 94L366 94L297 7L231 77C201 32 157-23 99-87L99-87L21-7C78 48 123 101 155 151L155 151C123 182 88 214 51 246L51 246C70 348 86 450 98 553L98 553L39 553L39 665L110 665C117 741 121 797 123 833L123 833L227 831C225 790 221 735 214 665L214 665L346 665L346 551C342 462 335 388 326 331C317 273 303 221 284 176L284 176ZM602 683L602 796L933 796L933 45C933 10 930-16 923-34C916-52 904-64 887-71C870-78 845-81 812-81L812-81C799-81 778-80 750-77L750-77L731 29C758 25 778 23 793 23L793 23C806 23 815 27 820 34C825 41 827 54 827 73L827 73L827 241L768 175C746 206 724 233 702 258L702 258L702-11L605-11L605 273C584 216 561 164 534 116L534 116L484 170L484-79L379-79L379 636L484 636L484 221C531 295 567 367 590 438L590 438L508 438L508 540L605 540L605 643L702 643L702 540L795 540L795 438L702 438L702 390C751 344 793 302 827 263L827 263L827 683L602 683ZM157 291L203 251C217 288 228 330 235 376C242 421 249 480 255 553L255 553L201 553C188 461 174 374 157 291L157 291Z"/>
    <glyph glyph-name="6" unicode="&#23094;"
      horiz-adv-x="1000" vert-adv-y="1172"
      d="M61 354L57 440L121 446L121 721L68 721L68 808L517 808L517 721L477 721L477 476L514 479L515 394L477 391L477 352L370 352L370 382L61 354ZM575 326L525 425C580 446 627 470 668 499L668 499C633 546 603 605 579 678L579 678L549 678L549 783L928 783L928 676C899 605 865 546 826 500L826 500C863 475 908 453 963 432L963 432L917 324C849 352 792 384 745 421L745 421C700 385 643 353 575 326L575 326ZM229 683L370 683L370 721L229 721L229 683ZM814 678L684 678C701 637 722 601 747 570L747 570C774 603 797 639 814 678L814 678ZM370 573L370 617L229 617L229 573L370 573ZM370 467L370 504L229 504L229 455L370 467ZM348 348L475 325L454 291L939 291L939 191L774 191C743 144 710 106 673 78L673 78C774 49 854 24 915 4L915 4L872-96C765-59 656-25 546 8L546 8C497-11 438-29 367-45C296-62 208-78 103-94L103-94L61 14C192 32 290 48 356 62L356 62L168 113C191 136 214 162 238 191L238 191L63 191L63 291L314 291C325 306 336 325 348 348L348 348ZM627 191L385 191L360 159C394 152 451 138 531 117L531 117C570 136 602 160 627 191L627 191Z"/>
    <glyph glyph-name="w" unicode="&#23159;"
      horiz-adv-x="1000" vert-adv-y="1172"
      d="M731 757L941 757L941 669L389 669L389 757L610 757L582 832L695 855C708 822 720 790 731 757L731 757ZM367 664L367 552C360 460 351 386 341 330C330 273 315 222 295 177L295 177C348 128 386 92 410 69L410 69L338-17L240 79C208 32 162-23 102-86L102-86L22-8C85 51 132 105 163 153L163 153C112 198 75 231 52 250L52 250C70 333 87 434 103 554L103 554L38 554L38 664L116 664C122 720 127 777 131 835L131 835L234 828C230 772 225 717 219 664L219 664L367 664ZM430 627L898 627L898 421L430 421L430 627ZM162 300L213 253C227 291 239 334 248 382C257 430 264 487 269 554L269 554L206 554C195 469 180 384 162 300L162 300ZM800 501L800 549L528 549L528 501L800 501ZM376 203L376 382L952 382L952 202L853 202L853 289L474 289L474 231L852 231L852 135L731 135L731 40C731-3 723-34 707-53C691-72 662-81 620-81L620-81C598-81 564-79 519-75L519-75L499 28C533 23 562 21 587 20L587 20C601 20 611 24 617 31C622 38 625 49 625 64L625 64L625 135L472 135L472 203L376 203Z"/>
    <glyph glyph-name="" unicode="&#23195;"
      horiz-adv-x="1000" vert-adv-y="1172"
      d="M969 18L925-90C826-63 745-29 682 10L682 10C609-34 526-69 431-96L431-96L390-14C381-26 367-43 347-66L347-66L267 12C320 66 362 120 394 173C425 226 450 287 468 354L468 354L373 354L373 443L488 443C492 464 495 480 496 491L496 491L390 491L390 586L454 586C445 609 433 636 418 666L418 666L501 699L410 693L385 692L375 784C464 788 557 795 656 804C755 813 839 824 910 836L910 836L927 744C804 726 663 711 506 700L506 700C525 664 539 633 550 608L550 608L493 586L628 586C618 615 605 647 589 681L589 681L680 710C686 696 693 680 700 661C707 642 714 625 719 610L719 610L639 586L751 586C777 637 797 682 812 720L812 720L905 693C896 670 879 634 856 586L856 586L926 586L926 491L601 491L593 443L946 443L946 354L573 354C570 343 566 326 559 305L559 305L895 305L895 212C863 162 822 116 773 75L773 75C823 52 888 33 969 18L969 18ZM346 148L278 49L237 89C206 38 159-19 98-82L98-82L19-1C50 29 77 57 100 83C122 108 142 135 159 163L159 163C126 194 90 225 52 258L52 258C71 347 87 447 100 557L100 557L35 557L35 662L112 662C117 717 121 774 124 832L124 832L223 828C218 758 214 703 210 662L210 662L354 662L354 557C347 472 338 402 329 347C319 291 306 241 290 198L290 198L346 148ZM159 309L192 282L208 268C235 343 252 439 259 557L259 557L198 557C188 472 175 389 159 309L159 309ZM681 127C718 153 749 182 774 213L774 213L599 213C624 178 651 150 681 127L681 127ZM412 13C482 31 543 52 594 77L594 77C561 108 534 142 511 179L511 179C486 125 453 70 412 13L412 13Z"/>
    <glyph glyph-name="²" unicode="&#23218;"
      horiz-adv-x="1000" vert-adv-y="1172"
      d="M678 764L908 764L908 343L391 343L391 764L552 764L558 790C565 821 569 840 570 846L570 846L693 828C691 822 686 801 678 764L678 764ZM359 657L359 548C352 459 343 386 332 329C321 271 306 219 286 173L286 173L367 94L294 10C282 23 262 45 234 74L234 74C205 29 161-27 102-94L102-94L24-4C82 46 127 97 160 148L160 148C124 184 87 219 49 254L49 254C66 330 82 428 97 547L97 547L37 547L37 657L108 657C114 718 118 776 120 832L120 832L229 829C226 788 221 730 213 657L213 657L359 657ZM543 670L486 670L486 438L539 438L493 512C523 525 550 539 575 554L575 554L499 601L543 670ZM762 438L811 438L811 670L547 670C571 657 607 635 656 604L656 604C689 627 717 649 740 669L740 669L804 610C787 594 765 575 737 554L737 554L804 512L762 438ZM159 292L209 246C225 287 236 329 243 373C249 417 255 475 261 547L261 547L200 547C187 452 173 367 159 292L159 292ZM659 501C613 472 577 451 550 438L550 438L754 438C735 452 703 473 659 501L659 501ZM876 158L972 132L968 83L963 33C960-4 949-30 929-46C909-63 879-72 838-75L838-75C819-76 805-77 795-77L795-77C786-77 771-76 751-75L751-75C716-72 691-62 676-45C660-28 652 0 652 37L652 37L652 317L755 317L755 241C810 269 857 296 896 322L896 322L947 236C866 191 802 157 755 134L755 134L755 75C755 60 757 49 762 42C766 35 773 30 784 29L784 29C790 28 798 28 809 28L809 28C828 28 841 29 850 33C859 36 865 41 868 49C871 56 873 68 874 85L874 85C875 109 876 133 876 158L876 158ZM392 313L497 313L497 263L609 263L609 160L497 160L497 69L601 113L607 2C544-19 493-38 454-57L454-57C441-62 428-69 413-77L413-77L372 22C380 29 385 35 388 42C391 48 392 58 392 72L392 72L392 313Z"/>
    <glyph glyph-name="p" unicode="&#23408;"
      horiz-adv-x="1000" vert-adv-y="1172"
      d="M344 758L492 758L492 665L44 665L44 758L221 758C208 787 197 811 187 830L187 830L305 855C320 823 333 791 344 758L344 758ZM904 216L976 178C965 97 954 36 945-5L945-5C940-27 929-46 914-62C899-78 882-86 865-86L865-86C846-86 829-77 813-60C796-43 784-21 777 6L777 6C770 33 765 63 761 96C757 129 754 174 753 231L753 231L708 163C685 186 667 203 654 215L654 215C641 159 622 108 597 63C572 17 536-35 490-92L490-92L404-14C455 40 493 90 517 135C540 180 556 234 565 298L565 298L548 313C501 352 474 373 469 378L469 378L532 462L574 429C575 446 575 475 575 515L575 515L575 556L497 556L497 666L575 666L575 829L680 829L680 666L854 666L854 380C854 319 854 266 855 221C855 175 856 143 858 125L858 125C861 83 867 61 874 60L874 60C881 59 887 76 892 112L892 112L895 141C898 164 901 189 904 216L904 216ZM75 622L456 622L456 417L75 417L75 622ZM674 344C713 311 739 289 752 276L752 276L752 304L752 556L680 556L680 511C680 449 678 393 674 344L674 344ZM358 495L358 543L175 543L175 495L358 495ZM472 215L477 120C424 115 374 111 327 106L327 106L327 37C327 6 323-18 316-35C309-52 297-63 281-69C264-76 241-79 211-79L211-79C192-79 166-78 131-75L131-75L112 28C138 24 164 22 189 22L189 22C201 22 209 26 214 33C219 40 221 52 221 69L221 69L221 95L38 76L32 172L221 190L221 231L292 277L71 277L71 374L458 374L458 277L328 201C409 208 457 213 472 215L472 215Z"/>
    <glyph glyph-name="u" unicode="&#23413;"
      horiz-adv-x="1000" vert-adv-y="1172"
      d="M267 850L304 759C281 745 256 732 228 720C200 707 174 697 149 689L149 689L149 587L189 601C202 552 211 519 216 501L216 501L216 683L297 683L297 379C297 286 292 213 281 158C270 103 253 57 230 21C206-15 171-51 126-87L126-87L59-19C102 14 135 47 158 82C180 116 195 154 204 196L204 196L137 154C125 146 119 142 119 142L119 142C104 132 95 126 92 124L92 124L46 216C57 228 63 242 63 259L63 259L63 770C109 781 177 808 267 850L267 850ZM934 836L950 736C901 726 844 716 779 707C714 697 650 689 588 682L588 682L579 788C639 793 702 799 767 808C832 817 888 826 934 836L934 836ZM414-81L331-81L331 800L554 800L554 197C554 161 550 136 542 123C534 110 521 102 503 101L503 101C492 100 480 100 467 101C454 102 443 103 434 104L434 104L414 211C420 210 427 209 436 208C444 207 451 207 456 208L456 208C471 208 478 222 478 249L478 249L478 381L449 365C438 410 427 454 414 497L414 497L414-81ZM875 704L957 673C931 596 906 533 883 484L883 484L810 509C835 567 856 632 875 704L875 704ZM694 669L766 694C774 675 783 651 792 623C801 594 808 570 813 550L813 550L739 524C734 547 727 573 718 601C709 628 701 651 694 669L694 669ZM478 450L478 693L414 693L414 574L437 587C447 560 461 514 478 450L478 450ZM699 531L624 506C619 525 611 550 601 579C590 608 581 631 574 646L574 646L643 672C670 611 689 564 699 531L699 531ZM216 406L185 397C178 431 166 480 149 545L149 545L149 268C164 277 186 292 215 312L215 312C216 323 216 341 216 366L216 366L216 406ZM938 478L938 386L817 272L954 272L954 171L810 171L810 29C810-7 804-33 792-50C780-67 758-76 727-77L727-77C698-78 665-76 628-73L628-73L607 25C632 22 655 20 675 20L675 20C686 20 694 24 699 31C704 38 706 50 706 67L706 67L706 171L580 171L580 272L706 272L706 296L805 382L594 382L594 478L938 478Z"/>
    <glyph glyph-name="Ç" unicode="&#23495;"
      horiz-adv-x="1000" vert-adv-y="1172"
      d="M802 650L191 650L191 598L71 598L71 760L425 760L402 832L540 858L563 790L573 760L923 760L923 596L802 596L802 650ZM877 431L877 335C852 291 816 248 769 206L769 206C788 194 812 178 841 157L841 157L783 69C760 88 727 112 685 142L685 142C642 113 590 83 529 54L529 54L471 152C515 170 554 188 587 207L587 207C561 224 546 234 543 236L543 236L509 259L564 338L679 265C711 290 737 314 758 339L758 339L512 339L512 431L594 431L594 620L694 620L694 557L870 557L870 470L694 470L694 431L877 431ZM458 563L458 459L115 459L115 563L458 563ZM850 197L965 169L956 46C953 17 947-6 937-22C926-39 911-51 891-58C870-66 842-71 806-74L806-74C750-79 689-81 624-81L624-81C559-81 499-79 442-74L442-74C409-71 384-66 366-58C348-50 335-36 327-17C318 2 314 29 314 64L314 64L314 283L257 283L256 258C256 203 252 156 243 117C234 78 220 41 200 8C179-25 151-60 114-95L114-95L22-22C57 12 84 42 101 69C118 96 130 123 137 151C144 179 148 215 150 259L150 259C150 269 150 277 151 283L151 283L64 283L64 393L486 393L486 283L423 283L423 97C423 73 426 57 432 49C438 41 450 36 469 35L469 35C518 30 570 28 625 28L625 28C680 28 732 30 781 35L781 35C805 36 821 41 829 49C837 57 842 73 844 96L844 96C846 115 848 148 850 197L850 197Z"/>
    <glyph glyph-name="Ð" unicode="&#23504;"
      horiz-adv-x="1000" vert-adv-y="1172"
      d="M809 647L190 647L190 580L70 580L70 754L452 754C441 781 429 806 417 829L417 829L546 857C559 828 573 793 589 754L589 754L930 754L930 572L809 572L809 647ZM929 239L767 239C820 171 888 110 973 57L973 57L914-43C844 10 782 77 728 159L728 159L728-84L615-84L615 143C569 73 518 12 461-41L461-41L399 49L399-87L287-87L287 185L229 185L229 183C228 127 221 78 208 37C195-4 172-46 140-89L140-89L38-31C62-4 80 20 91 40C102 59 109 80 114 101C118 122 120 149 121 184L121 184L121 185L45 185L45 293L287 293L287 361L102 361L102 549L214 549L214 464L287 464L287 614L399 614L399 62C466 109 526 168 579 239L579 239L427 239L427 349L615 349L615 426L448 426L448 530L615 530L615 614L728 614L728 530L897 530L897 426L728 426L728 349L929 349L929 239Z"/>
    <glyph glyph-name="Ý" unicode="&#23517;"
      horiz-adv-x="1000" vert-adv-y="1172"
      d="M812 675L173 675L173 589L72 589L72 767L444 767L432 796L415 836L551 862C565 832 578 800 591 767L591 767L930 767L930 584L876 584L876 370L353 370L353 436L768 436L768 469L380 469L380 530L768 530L768 563L361 563L361 632L812 632L812 675ZM198 398L198 635L293 635L293-86L198-86L198 163L168 140C134 112 104 89 79 70L79 70L27 174C53 191 110 235 198 308L198 308L198 351L126 315C109 357 80 423 38 513L38 513L127 554C152 499 176 447 198 398L198 398ZM948 6L914-87C795-68 700-40 628-3L628-3C553-37 457-67 340-92L340-92L306-1C392 14 468 32 533 55L533 55C495 84 459 116 424 153L424 153L395 153L395 193L320 193L320 338L926 338L926 193L845 193L845 156C810 115 771 81 729 53L729 53C788 32 861 17 948 6L948 6ZM414 227L818 227L818 264L414 264L414 227ZM713 153L550 153C577 130 604 111 630 97L630 97C665 116 692 134 713 153L713 153Z"/>
    <glyph glyph-name="ð" unicode="&#23536;"
      horiz-adv-x="1000" vert-adv-y="1172"
      d="M835 692L164 692L164 603L72 603L72 778L441 778L409 841L552 857C558 848 571 821 590 778L590 778L927 778L927 601L835 601L835 692ZM185 654L815 654L815 466L185 466L185 654ZM357 533L357 585L276 585L276 533L357 533ZM544 585L455 585L455 533L544 533L544 585ZM642 585L642 533L725 533L725 585L642 585ZM59 359L59 436L940 436L940 359L59 359ZM962 18L930-82C839-69 764-52 705-29C645-6 593 24 548 62L548 62L550-27C448-50 375-67 331-78L331-78C305-85 282-91 263-97L263-97L234-32C243-26 249-20 252-13C255-7 256 0 256 8L256 8L256 25C203 4 140-17 67-36L67-36L34 61C174 91 281 122 354 155L354 155L158 155L158 325L839 325L839 169C843 170 847 172 852 174C856 176 860 178 865 180L865 180L901 112C850 91 800 73 753 56L753 56C812 39 882 27 962 18L962 18ZM728 224L728 258L270 258L270 224L728 224ZM653 98C712 119 763 138 805 155L805 155L578 155C601 132 626 113 653 98L653 98ZM374 75L374 20C422 33 480 47 547 63L547 63C522 85 499 108 480 132L480 132C452 114 417 95 374 75L374 75Z"/>
    <glyph glyph-name="A" unicode="&#23617;"
      horiz-adv-x="1000" vert-adv-y="1172"
      d="M913 808L913 499L256 499L256 494C256 387 253 303 247 242C240 180 229 125 212 77C195 28 168-27 132-90L132-90L20-25C52 30 76 78 92 120C107 162 118 210 125 263C131 316 134 387 134 474L134 474L134 808L913 808ZM256 606L796 606L796 696L256 696L256 606ZM854 205L959 180C957 113 955 67 952 43L952 43C949 5 939-22 921-38C902-55 872-65 829-70L829-70C811-72 792-73 773-73L773-73C756-73 731-72 696-69L696-69C663-66 638-55 622-38C605-21 597 8 597 48L597 48L597 456L712 456L712 329C786 371 844 408 885 440L885 440L944 336C915 316 878 293 835 268C791 243 750 221 712 202L712 202L712 82C712 57 722 43 742 41L742 41C751 40 765 39 784 39L784 39C798 39 808 39 814 40L814 40C826 41 835 46 841 54C846 61 849 75 850 94L850 94C851 109 852 128 853 149C854 170 854 189 854 205L854 205ZM414 233L414 72C429 79 454 88 489 100L489 100L546 121L558 5L534-3C523-6 500-14 465-26C429-39 396-51 367-63L367-63C348-70 332-77 318-84L318-84L274 21C285 28 292 36 296 44C299 51 301 62 301 76L301 76L301 454L414 454L414 341L554 341L554 233L414 233Z"/>
    <glyph glyph-name="Q" unicode="&#23633;"
      horiz-adv-x="1000" vert-adv-y="1172"
      d="M126 807L924 807L924 549L826 549L888 498C857 467 827 439 798 415L798 415L894 415L894 41C894-3 886-34 869-53C852-72 822-81 779-81L779-81C735-81 690-79 645-75L645-75L623 24C664 19 701 16 736 15L736 15C751 15 761 18 767 25C772 32 775 43 775 59L775 59L775 68L409 68L409-80L292-80L292 415L390 415C363 439 333 464 298 489L298 489L358 549L247 549L247 480C247 391 244 316 238 255C232 194 222 137 208 86C194 34 174-21 148-79L148-79L24-30C52 29 73 81 88 127C102 173 112 223 118 278C123 333 126 403 126 488L126 488L126 807ZM805 646L805 708L247 708L247 646L805 646ZM739 415L695 459C733 486 768 516 801 549L801 549L380 549C425 518 463 487 492 458L492 458L447 415L537 415L537 534L652 534L652 415L739 415ZM409 277L775 277L775 328L409 328L409 277ZM775 197L409 197L409 147L775 147L775 197Z"/>
    <glyph glyph-name="y" unicode="&#23673;"
      horiz-adv-x="1000" vert-adv-y="1172"
      d="M854 218L966 186L959 63C956 20 945-11 927-31C908-51 877-63 833-67L833-67C796-70 754-72 705-72L705-72C656-72 613-70 576-67L576-67C541-64 513-53 492-36C471-19 461 7 461 40L461 40C461 72 470 104 488 136C506 167 531 199 562 232C593 265 642 313 708 376L708 376L724 391L513 391L513 505L497 485L430 555L430 39L63 12L63 674L152 674L152 139L199 143L199 839L298 839L298 152L341 156L341 679L430 679L430 581C459 622 485 663 507 706C529 749 550 798 569 853L569 853L689 833C674 790 660 754 647 726L647 726L942 726L942 613L588 613C567 577 543 541 514 506L514 506L885 506L885 396C774 291 697 216 654 171C611 125 589 95 588 80L588 80C587 72 590 65 596 59C601 53 609 50 620 49L620 49C658 46 691 44 718 44L718 44C743 44 773 46 808 49L808 49C824 51 835 56 841 65C846 73 850 87 851 106L851 106C852 127 853 151 853 178L853 178L854 218Z"/>
    <glyph glyph-name="" unicode="&#23697;"
      horiz-adv-x="1000" vert-adv-y="1172"
      d="M887 580L576 580C623 543 681 507 749 472C817 436 892 404 973 377L973 377L919 257C837 288 758 327 682 374C606 420 546 465 502 508L502 508C463 469 405 427 329 381C253 335 170 294 81 257L81 257L27 377C181 429 315 497 429 580L429 580L117 580L117 794L239 794L239 690L438 690L438 835L563 835L563 690L764 690L764 795L887 795L887 580ZM605 352L552 278L834 278L834 164C789 120 739 74 682 27C625-20 572-61 523-95L523-95L425-4C502 41 580 98 659 166L659 166L173 166L173 278L516 278C476 308 435 335 394 359L394 359L460 448C509 421 557 389 605 352L605 352Z"/>
    <glyph glyph-name="" unicode="&#23700;"
      horiz-adv-x="1000" vert-adv-y="1172"
      d="M536 793L627 858C672 789 721 734 775 694C829 653 895 618 973 588L973 588L913 471C871 489 830 510 791 534L791 534C788 489 783 449 778 414L778 414C773 379 766 352 756 333C745 314 729 300 708 292C687 283 657 279 619 279L619 279L588 279C547 279 511 281 482 284L482 284L458 397C503 392 543 390 577 390L577 390C596 390 611 391 621 394C631 397 639 402 644 409C649 416 653 426 656 441L656 441C661 461 665 483 666 506L666 506L437 506C430 463 417 426 397 396C376 365 345 336 304 311C263 286 206 261 135 237L135 237L83 342C141 359 186 374 217 389C248 403 270 419 285 437C299 455 308 478 313 506L313 506L235 506L235 559C190 528 144 501 96 476L96 476L34 586C104 619 167 658 224 702C281 745 326 792 359 843L359 843L451 778C413 719 367 667 314 620L314 620L677 620C627 666 580 724 536 793L536 793ZM562 250L562 68L745 68L745 231L866 231L866-87L745-87L745-48L129-48L129 218L248 218L248 68L436 68L436 250L562 250Z"/>
    <glyph glyph-name="Ù" unicode="&#23769;"
      horiz-adv-x="1000" vert-adv-y="1172"
      d="M954 534L954 417L858 417L858 343L944 343L944 228L858 228L858 55C858 20 854-6 847-25C839-44 826-58 808-66C789-74 763-78 730-79L730-79C692-80 658-79 627-75L627-75L606 37C612 36 624 35 643 33C661 31 678 30 693 30L693 30C712 30 724 34 731 43C738 52 741 68 741 93L741 93L741 228L582 228C622 179 652 142 672 116L672 116L585 39C570 60 552 85 531 112C510 139 492 160 479 175L479 175L544 228L454 228L454 343L741 343L741 417L445 417L445 534L633 534L633 615L476 615L476 728L633 728L633 834L752 834L752 728L916 728L916 615L752 615L752 534L954 534ZM284 831L284 142L330 145L330 677L413 677L413 32L63 10L63 677L147 677L147 132L194 135L194 831L284 831Z"/>
    <glyph glyph-name="æ" unicode="&#23782;"
      horiz-adv-x="1000" vert-adv-y="1172"
      d="M441 330L326 330L326 629L54 629L54 742L450 742C435 779 423 809 413 831L413 831L543 858C556 827 570 788 584 742L584 742L946 742L946 629L675 629L675 330L560 330L560 629L441 629L441 330ZM688 499L759 585C797 555 866 497 966 410L966 410L894 321C868 346 835 375 795 410C755 445 719 474 688 499L688 499ZM221 580L309 511C282 475 250 438 214 401C178 364 141 330 103 300L103 300L35 394C112 457 174 519 221 580L221 580ZM559 301L559 60L754 60L754 267L871 267L871-88L754-88L754-53L129-53L129 264L246 264L246 60L441 60L441 301L559 301Z"/>
    <glyph glyph-name="í" unicode="&#23789;"
      horiz-adv-x="1000" vert-adv-y="1172"
      d="M637 848L753 848L753 579L931 579L931 23C931-6 928-28 921-43C914-59 904-70 890-76C876-83 856-86 831-87L831-87C788-87 751-85 720-82L720-82L699 21C732 16 760 14 783 14L783 14C796 14 805 18 810 26C815 33 817 44 817 59L817 59L817 114L580 114L580-84L467-84L467 579L637 579L637 848ZM290 826L290 114L334 118L334 667L423 667L423 11L65-17L65 667L154 667L154 102L200 106L200 826L290 826ZM631 656L551 592C508 653 468 707 430 754L430 754L508 817C533 788 574 734 631 656L631 656ZM877 812L957 757C920 698 880 642 838 590L838 590L761 649C799 696 838 751 877 812L877 812ZM580 466L580 394L817 394L817 466L580 466ZM817 289L580 289L580 217L817 217L817 289Z"/>
    <glyph glyph-name="" unicode="&#23822;"
      horiz-adv-x="1000" vert-adv-y="1172"
      d="M889 475L965 475L965 373L897 373L897 50C897 4 889-28 874-46C859-65 830-74 789-75L789-75C755-76 718-75 677-71L677-71L654 33C681 28 715 26 756 26L756 26C769 26 778 29 783 36C788 43 790 54 790 70L790 70L790 373L419 373L419 475L470 475L428 555C485 571 527 587 554 604C581 620 601 639 612 661L612 661L444 661L444 755L630 755L633 833L742 833C741 810 740 784 740 755L740 755L933 755L933 661L728 661C727 657 726 653 724 650L724 650L764 631C860 586 916 559 932 552L932 552L889 475ZM270 823L270 109L314 113L314 667L393 667L393 15L64-15L64 662L143 662L143 97L187 101L187 823L270 823ZM677 572C645 538 591 506 514 475L514 475L858 475L677 572ZM446 40L446 318L733 318L733 40L446 40ZM543 226L543 134L635 134L635 226L543 226Z"/>
    <glyph glyph-name="i" unicode="&#23913;"
      horiz-adv-x="1000" vert-adv-y="1172"
      d="M765 747L765 817L883 817L883 661L111 661L111 816L233 816L233 747L436 747L436 844L563 844L563 747L765 747ZM562 599L923 599L923 520L75 520L75 599L431 599L415 638L538 658L562 599ZM823 322L175 322L175 486L823 486L823 322ZM295 422L295 385L703 385L703 422L295 422ZM219-78L98-78L98 285L902 285L902 41C902 8 898-18 891-35C883-53 870-66 852-73C834-80 809-84 776-84L776-84C754-84 723-82 683-78L683-78L668-4L284-4L284 175L711 175L711 17C718 16 728 16 741 16L741 16C756 16 767 20 773 27C778 34 781 44 781 59L781 59L781 214L219 214L219-78ZM400 109L400 65L597 65L597 109L400 109Z"/>
    <glyph glyph-name="Å" unicode="&#24005;"
      horiz-adv-x="1000" vert-adv-y="1172"
      d="M769 749L769 815L884 815L884 667L116 667L116 814L232 814L232 749L442 749L442 842L560 842L560 749L769 749ZM504 128L504 56L372 56C415 35 452 14 485-6L485-6L436-80L396-55C379-44 363-34 346-24C329-14 314-7 303-2L303-2L345 56L216 56L255-2C208-35 149-66 77-95L77-95L36-14C95 9 144 33 185 56L185 56L41 56L41 128L86 128L86 492L224 492L224 535L54 535L54 611L224 611L224 646L329 646L329 611L490 611L490 535L329 535L329 492L460 492L460 128L504 128ZM949 618L949 530L771 530L754 464L921 464L921 116L826 116L826 380L630 380L630 113L533 113L533 464L646 464C653 492 659 514 662 530L662 530L518 530L518 618L949 618ZM180 396L365 396L365 425L180 425L180 396ZM951 0L887-88C813-29 759 12 726 36L726 36C709 13 686-9 657-29C628-50 591-70 546-91L546-91L494 5C548 25 588 45 614 64C640 83 658 106 667 132C676 158 681 194 681 240L681 240L681 349L778 349L778 233C778 190 774 154 767 125L767 125C803 102 864 60 951 0L951 0ZM180 340L180 309L365 309L365 340L180 340ZM365 220L365 254L180 254L180 220L365 220ZM365 128L365 162L180 162L180 128L365 128Z"/>
    <glyph glyph-name="ë" unicode="&#24043;"
      horiz-adv-x="1000" vert-adv-y="1172"
      d="M563 209L563 73L956 73L956-48L43-48L43 73L441 73L441 219L363 165L254 343C223 269 182 196 133 125L133 125L40 191C87 258 126 328 155 401C184 474 205 553 218 638L218 638L331 621C321 563 310 514 299 474L299 474C337 420 384 349 441 261L441 261L441 675L80 675L80 787L919 787L919 675L563 675L563 248C632 355 681 484 711 634L711 634L824 617C813 559 800 508 787 463L787 463C826 410 882 333 953 230L953 230L856 157C814 222 775 281 740 334L740 334C716 279 684 220 643 157L643 157L563 209Z"/>
    <glyph glyph-name="" unicode="&#24086;"
      horiz-adv-x="1000" vert-adv-y="1172"
      d="M201 836L314 836L314 682L448 682L448 182C448 150 444 128 435 116C426 104 411 97 388 96L388 96C366 95 347 95 330 98L330 98L311 199C318 197 328 196 341 196L341 196C353 196 359 205 359 222L359 222L359 567L305 567L305-82L207-82L207 567L160 567L160 96L66 96L66 682L201 682L201 836ZM738 686L946 686L946 572L738 572L738 420L918 420L918-82L805-82L805-31L602-31L602-82L492-82L492 420L620 420L620 834L738 834L738 686ZM602 299L602 87L805 87L805 299L602 299Z"/>
    <glyph glyph-name="'" unicode="&#24103;"
      horiz-adv-x="1000" vert-adv-y="1172"
      d="M806 155L806 471L564 471L564 155L463 155L463 582L610 582L610 845L724 845L724 760L951 760L951 654L724 654L724 582L912 582L912 155L806 155ZM415 684L415 188C415 157 410 136 401 123C391 110 375 103 352 103L352 103C333 103 317 104 302 106L302 106L285 191L285-81L193-81L193 571L151 571L151 102L59 102L59 684L185 684L185 844L292 844L292 684L415 684ZM327 242L327 571L285 571L285 215C288 214 293 214 300 214L300 214C309 214 315 216 320 220C325 223 327 231 327 242L327 242ZM967 7L893-82C868-59 836-30 797 4C757 38 720 68 687 95L687 95C665 61 633 29 592 0C551-30 496-60 429-90L429-90L375 11C450 41 506 69 542 96C577 123 601 152 613 184C624 216 630 259 631 314L631 314L631 428L735 428L735 289C735 256 732 224 726 194L726 194C765 167 807 135 854 99C901 62 938 32 967 7L967 7Z"/>
    <glyph glyph-name="<" unicode="&#24124;"
      horiz-adv-x="1000" vert-adv-y="1172"
      d="M172 835L267 835L267 677L372 677L372 182C372 153 368 132 361 120C353 108 340 102 321 102L321 102C306 102 291 103 278 106L278 106L261 202C272 199 279 198 282 198L282 198C291 198 296 208 296 229L296 229L296 582L260 582L260-79L180-79L180 582L141 582L141 103L59 103L59 677L172 677L172 835ZM509-79L410-79L410 807L940 807L940-79L844-79L844-33L509-33L509-79ZM844 700L509 700L509 73L844 73L844 700ZM808 456L808 359L713 359L713 230L821 230L821 130L533 130L533 230L624 230L624 359L546 359L546 456L624 456L624 541L539 541L539 641L816 641L816 541L713 541L713 456L808 456ZM719 322L771 352C786 329 803 300 822 265L822 265L770 233C752 268 735 298 719 322L719 322Z"/>
    <glyph glyph-name="" unicode="&#24199;"
      horiz-adv-x="1000" vert-adv-y="1172"
      d="M646 747L954 747L954 635L250 635L250 415C250 298 241 202 224 127C206 52 175-22 132-93L132-93L25-16C54 34 77 79 92 118C107 157 117 198 123 242C129 285 132 339 132 404L132 404L132 747L496 747C483 790 475 817 470 828L470 828L614 850C623 827 633 793 646 747L646 747ZM860 219L965 197L958 42C957 2 946-27 928-44C909-62 879-73 839-77L839-77C817-79 795-80 773-80L773-80C752-80 729-79 706-77L706-77C670-74 644-63 628-44C611-26 603 5 603 48L603 48L603 592L726 592L726 403C796 450 851 491 892 528L892 528L959 428C926 402 888 374 844 343C800 312 761 287 726 267L726 267L726 85C726 55 735 39 753 37L753 37C770 36 782 35 788 35L788 35C795 35 807 36 823 37L823 37C834 38 843 44 848 53C853 62 856 77 857 98L857 98C858 107 858 117 858 129C858 141 858 153 859 164L859 164L860 219ZM436 307L436 98L557 156L572 24C495-8 436-35 395-56L395-56L366-71L347-81L283 27C296 36 305 45 309 55C313 65 315 79 315 98L315 98L315 590L436 590L436 423L568 423L568 307L436 307Z"/>
    <glyph glyph-name="µ" unicode="&#24245;"
      horiz-adv-x="1000" vert-adv-y="1172"
      d="M853 75L856 146L958 121L955 89C954 82 954 75 953 67C952 59 951 51 950 43L950 43C947 14 942-8 934-23C926-38 913-48 896-54C879-61 853-65 818-67L818-67C798-68 767-69 726-69L726-69C685-69 655-68 634-67L634-67C591-64 561-55 545-39C528-24 520 4 520 43L520 43L520 80L292 80L292 310C287 307 281 303 274 299C267 294 258 290 249 285L249 285L221 341C218 252 210 177 197 116C183 55 159-7 125-70L125-70L20-12C47 35 67 79 80 120C93 161 101 204 105 250C109 295 111 355 111 429L111 429L111 767L473 767C462 796 452 817 445 831L445 831L582 851C595 821 606 793 615 767L615 767L958 767L958 670L517 670L608 644C605 639 602 633 599 626C596 619 592 611 588 603L588 603L927 603L927 517L736 517C787 460 866 414 972 377L972 377L926 283C905 292 880 304 851 318L851 318L851 80L627 80L627 71C627 54 630 42 636 37C642 31 654 27 673 26L673 26C701 25 722 24 736 24L736 24C749 24 770 25 798 26L798 26C817 27 831 31 839 38C847 45 852 57 853 75L853 75ZM222 389C261 410 295 430 325 451C355 471 382 493 405 517L405 517L246 517L246 603L472 603C487 629 498 651 506 670L506 670L222 670L222 440L222 389ZM613 517L534 517C508 481 476 446 437 412L437 412L520 412L520 476L627 476L627 412L712 412C673 446 640 481 613 517L613 517ZM399 332L399 282L520 282L520 332L399 332ZM748 282L748 332L627 332L627 282L748 282ZM520 210L399 210L399 160L520 160L520 210ZM748 210L627 210L627 160L748 160L748 210Z"/>
    <glyph glyph-name="Ó" unicode="&#24275;"
      horiz-adv-x="1000" vert-adv-y="1172"
      d="M959 666L215 666L215 432C215 338 213 263 208 207C203 150 195 101 183 59C171 17 153-28 130-77L130-77L21-23C45 24 63 67 75 106C86 145 94 187 99 234C103 280 105 342 105 419L105 419L105 769L478 769C463 798 452 820 444 834L444 834L586 855C598 832 611 804 625 769L625 769L959 769L959 666ZM365 642L472 655C477 644 484 626 492 602L492 602L627 602L627 519L238 519L238 602L384 602C377 617 371 631 365 642L365 642ZM949 514L878 337C910 295 932 259 944 230C956 200 962 170 962 139L962 139C962 92 953 60 935 41C916 22 885 11 842 8L842 8C825 7 805 9 781 12L781 12L764 111C782 107 800 105 819 105L819 105C834 105 844 110 851 119C858 128 861 142 861 163L861 163C861 183 854 205 840 229C825 253 802 283 771 319L771 319L841 514L746 514L746-85L648-85L648 611L949 611L949 514ZM597 315L259 315L259 485L597 485L597 315ZM356 421L356 380L502 380L502 421L356 421ZM617 154L624 79L488 68L488 21C488-18 481-44 466-57C451-71 425-78 389-78L389-78C374-78 350-77 318-74L318-74L299 13C320 9 341 7 362 7L362 7C372 7 379 10 383 17C387 23 389 33 389 46L389 46L389 60C375 59 360 58 343 57C326 56 309 54 291 52L291 52L223 47L213 123L389 137L389 174L468 207L257 207L257 282L599 282L599 202L488 145L617 154Z"/>
    <glyph glyph-name="" unicode="&#24339;"
      horiz-adv-x="1000" vert-adv-y="1172"
      d="M137 806L855 806L855 467L256 467L245 354L902 354C895 268 886 183 873 98L873 98C864 38 845-5 818-32C790-59 748-73 691-73L691-73C642-73 570-70 477-63L477-63L453 52L477 50C485 49 509 47 550 44C590 41 629 39 667 39L667 39C694 39 714 45 727 58C740 71 749 92 756 122L756 122C763 155 769 194 774 239L774 239L110 239L143 581L735 581L735 690L137 690L137 806Z"/>
    <glyph glyph-name="'" unicode="&#24359;"
      horiz-adv-x="1000" vert-adv-y="1172"
      d="M670 680L670 525C670 447 666 369 658 291C649 212 635 145 614 88L614 88C639 98 665 108 692 117L692 117C682 160 671 206 659 254L659 254L732 280C744 238 758 185 773 122C788 58 800 3 809-42L809-42L731-65L714 16C654-5 608-21 576-32L576-32C569-34 549-41 517-53L517-53L483 57C502 64 514 78 521 98L521 98C535 139 546 192 555 259C563 326 567 399 567 480L567 480L567 667C554 665 534 663 505 660L505 660L505 443C505 330 498 234 484 155C469 76 444-1 409-74L409-74L305-16C334 37 355 85 369 126C382 167 391 212 396 260C401 307 403 370 403 447L403 447L403 765C476 769 555 778 641 791C727 804 805 818 876 835L876 835L906 723L876 717C865 714 849 711 828 707L828 707C831 552 845 418 870 307C894 195 930 93 979 1L979 1L876-69C826 36 790 147 768 264C745 381 732 523 728 689L728 689L670 680ZM159 360L334 360C334 275 330 179 323 70L323 70C320 35 315 8 306-11C297-31 283-45 266-53C249-61 225-65 195-65L195-65C157-65 124-63 97-60L97-60L74 53C113 48 145 46 172 46L172 46C187 46 197 51 204 60C210 69 214 85 217 106L217 106C222 151 225 199 225 250L225 250L48 250L69 575L232 575L232 676L56 676L56 793L342 793L342 466L169 466L159 360Z"/>
    <glyph glyph-name="<" unicode="&#24380;"
      horiz-adv-x="1000" vert-adv-y="1172"
      d="M436 686L333 686L333 801L652 801L652 686L545 686C537 637 532 606 529 595L529 595L640 595L640-22L344-22L344 595L420 595C427 632 433 663 436 686L436 686ZM800 468L792 368L937 368C935 269 929 166 920 59L920 59C917 24 912-4 904-23C895-43 883-57 866-66C849-75 825-79 795-79L795-79C774-79 739-77 691-73L691-73L667 46C700 41 730 38 757 38L757 38C773 38 785 42 793 51C801 60 807 75 810 96L810 96C817 139 821 191 824 250L824 250L676 250L695 578L818 578L818 686L690 686L690 801L929 801L929 468L800 468ZM300 464L180 464L170 365L312 365C307 242 301 140 294 58L294 58C291 22 285-6 277-25C269-44 257-58 241-66C225-74 203-78 176-78L176-78C137-78 103-76 76-73L76-73L50 46C85 41 114 39 138 39L138 39C153 39 164 43 172 51C179 59 185 73 188 94L188 94C193 133 198 184 202 247L202 247L58 247L77 573L199 573L199 679L55 679L55 795L300 795L300 464ZM443 485L443 350L542 350L542 485L443 485ZM542 242L443 242L443 90L542 90L542 242Z"/>
    <glyph glyph-name="d" unicode="&#24420;"
      horiz-adv-x="1000" vert-adv-y="1172"
      d="M823 836L904 755C863 710 816 665 765 620C714 575 665 539 620 510L620 510L553 610C596 636 643 670 693 712C742 753 786 795 823 836L823 836ZM582 411L582 298L531 298L531 54C531 11 523-20 508-39C492-58 465-67 428-68L428-68C385-69 346-68 310-64L310-64L287 49C314 44 343 42 373 42L373 42C390 43 401 48 408 59C415 70 418 88 418 115L418 115L418 298L237 298C235 217 227 150 214 99C201 48 176-13 139-83L139-83L30-36C65 25 88 78 101 123C114 167 121 225 124 298L124 298L47 298L47 411L125 411L125 799L531 799L531 411L582 411ZM238 611L238 411L418 411L418 688L238 688L238 615L326 659C364 591 393 535 413 492L413 492L322 445C295 505 267 560 238 611L238 611ZM662 257L591 352C696 429 786 506 860 585L860 585L939 508C857 421 765 337 662 257L662 257ZM876 321L968 248C920 183 868 125 811 73C754 20 688-30 611-79L611-79L540 25C610 66 672 110 726 159C780 207 830 261 876 321L876 321Z"/>
    <glyph glyph-name="" unicode="&#24469;"
      horiz-adv-x="1000" vert-adv-y="1172"
      d="M261 845L354 774C327 733 291 686 244 633C197 580 151 534 107 495L107 495L46 604C83 635 123 674 166 722C209 770 240 811 261 845L261 845ZM950 301L728 301C761 258 799 216 842 177C885 138 929 103 975 74L975 74L905-29C826 30 755 105 692 195L692 195L692-74L571-74L571 191C508 96 436 22 355-33L355-33L277 66C376 129 461 208 532 301L532 301L318 301L318 411L571 411L571 623L352 623L352 735L571 735L571 839L692 839L692 735L925 735L925 623L819 623L903 564C890 541 874 515 855 488C835 461 816 436 797 414L797 414L716 480C757 528 790 576 817 623L817 623L692 623L692 411L950 411L950 301ZM364 561L449 622C463 605 480 582 500 555C520 528 536 505 547 486L547 486L464 417C450 443 433 470 414 497C395 524 378 546 364 561L364 561ZM254 596L348 534C328 497 302 456 270 411L270 411L270-71L151-71L151 262C128 237 104 213 81 192L81 192L19 301C57 333 99 378 146 437C193 496 229 549 254 596L254 596Z"/>
    <glyph glyph-name="û" unicode="&#24571;"
      horiz-adv-x="1000" vert-adv-y="1172"
      d="M545 505L965 505L965 385L817 385L817-81L698-81L698 385L545 385C544 308 539 243 532 191C524 139 512 92 495 49C478 6 455-41 425-91L425-91L319-17C350 32 372 75 386 112C400 149 409 192 414 241C419 289 421 358 421 447L421 447L421 548L369 466C339 493 311 518 286 540L286 540L286-81L171-81L171 842L286 842L286 675C338 638 383 603 421 572L421 572L421 756C583 769 740 794 891 830L891 830L920 709C862 695 799 682 733 671C666 659 603 651 545 646L545 646L545 505ZM105 301L20 318C28 367 37 425 46 493C55 560 62 622 67 679L67 679L151 669C146 610 139 543 130 469C121 394 112 338 105 301L105 301Z"/>
    <glyph glyph-name=" " unicode="&#24608;"
      horiz-adv-x="1000" vert-adv-y="1172"
      d="M212 557L107 552L85 658C104 659 118 661 127 664C136 667 145 670 156 675L156 675C183 689 226 718 284 761C342 804 386 839 416 868L416 868L527 815C496 788 461 759 422 729C383 699 350 677 324 662L324 662C381 664 438 666 495 669C552 671 610 673 668 676L668 676L585 739L657 820C692 795 736 761 789 720C841 678 887 640 926 606L926 606L859 520L791 578L535 569C476 567 420 565 366 563C312 561 261 559 212 557L212 557ZM148 505L851 505L851 245L515 245C566 208 603 177 627 153L627 153L559 70C544 85 522 104 495 127C468 150 443 169 422 186L422 186L472 245L148 245L148 505ZM267 412L267 340L732 340L732 412L267 412ZM737 164L832 229C853 202 877 169 905 130C932 91 956 55 975 24L975 24L877-43C826 41 780 110 737 164L737 164ZM129-60L23 0C63 62 99 130 130 205L130 205L237 166C208 87 172 11 129-60L129-60ZM643 80L649 140L755 115L747 30C744 2 740-19 733-33C726-47 715-57 701-63C686-69 666-73 640-74L640-74C603-77 562-78 515-78L515-78C469-78 427-77 390-74L390-74C359-72 335-67 318-60C301-53 289-40 282-23C274-6 270 20 270 54L270 54L270 203L384 203L384 83C384 66 387 54 394 47C400 40 411 35 427 34L427 34C467 31 497 30 516 30L516 30C536 30 565 31 604 34L604 34C618 35 628 39 633 46C638 52 642 63 643 80L643 80Z"/>
    <glyph glyph-name="M" unicode="&#24653;"
      horiz-adv-x="1000" vert-adv-y="1172"
      d="M390 591L341 509C324 526 300 545 270 568L270 568L270-85L160-85L160 840L270 840L270 672C311 646 351 619 390 591L390 591ZM882 192L972 167C972 136 970 98 967 51L967 51C965 22 961-1 954-16C947-32 937-43 925-49C912-56 895-60 874-62L874-62C856-64 838-65 819-65L819-65C800-65 778-64 754-62L754-62C731-60 714-55 702-48C689-41 680-28 675-10C669 7 666 33 666 67L666 67L666 348L580 348L580 345C580 278 574 220 563 172C552 124 532 79 503 37C474-5 432-47 378-89L378-89L291 4C339 39 375 71 398 100C421 129 438 162 447 198C456 234 463 284 467 347L467 347L467 348L333 348L333 464L579 464L579 839L698 839L698 464L953 464L953 348L777 348L777 89C777 74 779 64 784 59C789 54 796 50 807 49L807 49C812 48 820 48 830 48L830 48C840 48 847 48 852 49L852 49C861 50 868 54 872 59C876 64 878 73 879 86L879 86C881 136 882 171 882 192L882 192ZM846 773L944 725C927 692 906 655 882 615C858 575 835 539 812 506L812 506L719 555C742 587 765 623 788 662C811 701 830 738 846 773L846 773ZM557 552L461 505C445 539 425 577 401 620C377 663 356 697 338 724L338 724L432 768C449 742 471 707 497 663C522 619 542 582 557 552L557 552ZM102 303L20 319C28 364 36 421 45 488C53 555 59 618 64 676L64 676L145 665C140 605 134 539 126 466C117 393 109 339 102 303L102 303Z"/>
    </font>
</defs>
</svg>
