<svg xmlns="http://www.w3.org/2000/svg">
<!--
Copyright 2021 Huawei Device Co., Ltd. All Rights Reserved.
  -->

  <defs>
    <font name="HarmonyOS Sans SC Bold"
      horiz-adv-x="1000" vert-adv-y="1000" >
    <font-face font-family="HarmonyOS Sans SC" font-weight="400"
      font-stretch="normal"
      units-per-em="1000"
      ascent="928"
      descent="-244"/>
    <glyph glyph-name="D" unicode="&#24388;"
      horiz-adv-x="1000" vert-adv-y="1172"
      d="M46 688L46 798L297 798L297 469L169 469L159 361L295 361C296 328 295 275 292 202C289 129 286 83 284 62L284 62C280 27 273-1 263-20C253-39 239-53 221-61C203-69 178-73 147-73L147-73C112-72 85-69 66-65L66-65L44 46C70 40 99 37 130 37L130 37C146 37 158 42 165 52C172 62 177 79 181 103L181 103C184 122 186 147 187 177C188 206 189 232 189 254L189 254L50 254L69 575L198 575L198 688L46 688ZM956-49L336-49L336 797L938 797L938 696L437 696L437 52L956 52L956-49ZM877 416L519 416L519 652L877 652L877 416ZM780 504L780 563L616 563L616 504L780 504ZM683 101L476 101L476 373L683 373L683 101ZM929 101L719 101L719 373L929 373L929 101ZM604 188L604 287L555 287L555 188L604 188ZM849 188L849 287L799 287L799 188L849 188Z"/>
    <glyph glyph-name="E" unicode="&#24389;"
      horiz-adv-x="1000" vert-adv-y="1172"
      d="M798 750L950 750L950 664L346 664L346 750L481 750C474 761 461 782 441 813L441 813L529 858C556 821 576 791 589 768L589 768L549 750L683 750C701 779 721 814 743 855L743 855L841 822C828 800 814 776 798 750L798 750ZM184 469L175 361L310 361C311 328 310 275 307 202C304 129 301 83 299 62L299 62C295 27 289 0 280-19C271-38 258-51 241-58C224-66 199-71 168-72L168-72C133-72 104-70 82-65L82-65L60 46C83 40 110 37 139 37L139 37C157 37 170 42 179 52C188 62 194 79 197 103L197 103C199 127 201 154 203 184C204 213 205 237 204 254L204 254L66 254L85 575L214 575L214 688L61 688L61 798L312 798L312 469L184 469ZM527 318C542 318 551 321 556 327C561 332 563 341 563 353L563 353L563 363L457 363L457 251L366 251L366 627L650 627L650 352C650 313 644 286 631 271C618 255 594 247 558 246L558 246C543 246 525 248 505 251L505 251L489 324C502 320 514 318 527 318L527 318ZM821 382L821 626L912 626L912 369C912 338 909 314 902 297C895 280 884 267 869 260C854 253 832 249 803 248L803 248C787 248 774 248 763 250C752 251 740 253 727 257L727 257L709 340C727 334 751 331 780 331L780 331C797 331 808 335 813 344C818 352 821 365 821 382L821 382ZM692 369L692 607L778 607L778 369L692 369ZM457 523L563 523L563 557L457 557L457 523ZM563 460L457 460L457 426L563 426L563 460ZM503 134L348 134L348 219L912 219C911 199 909 173 906 140C903 107 899 80 895 59L895 59C888 26 880 1 871-17C861-36 847-49 828-58C809-67 782-72 748-72L748-72C709-72 674-69 643-62L643-62L623 32C652 25 686 21 723 21L723 21C742 21 755 26 764 35C773 44 781 57 788 76L788 76C794 90 798 109 799 134L799 134L612 134C603 92 590 58 573 33C556 8 530-14 497-32C463-50 415-69 353-88L353-88L312 8C374 24 419 41 447 59C474 77 493 102 503 134L503 134Z"/>
    <glyph glyph-name="F" unicode="&#24390;"
      horiz-adv-x="1000" vert-adv-y="1172"
      d="M818 529C859 505 909 484 968 465L968 465L917 373C847 397 788 427 741 462L741 462C701 435 649 408 584 380L584 380L552 442L552 389L454 389L454 446L408 424C388 470 370 510 355 543L355 543L355 399L277 399L277 542C259 496 242 456 225 421L225 421L175 447L175 388L80 388L80 698L154 698L80 783L148 840L243 736L201 698L270 698L270 841L361 841L361 698L423 698L385 733C418 768 449 805 480 844L480 844L552 789L476 698L552 698L552 678C571 703 591 731 610 762C629 793 645 822 656 849L656 849L753 831C743 803 733 779 722 760L722 760L952 760L952 674L899 674C881 617 854 569 818 529L818 529ZM745 584C767 608 785 638 799 674L799 674L678 674C695 641 718 611 745 584L745 584ZM552 614L552 474C603 493 643 511 670 526L670 526C649 550 630 576 615 604L615 604C606 593 597 583 587 573L587 573L552 614ZM219 590L277 568L277 610L175 610L175 489C194 524 208 557 219 590L219 590ZM355 564L412 593C423 571 437 542 454 506L454 506L454 610L355 610L355 564ZM840 178L256 178L251 144L876 144C873 107 868 71 860 35L860 35C853 3 843-22 830-39C817-56 799-68 777-75C755-82 726-86 690-86L690-86C619-86 555-82 499-74L499-74L472 13C502 8 536 5 575 2C613-1 648-2 681-2L681-2C700-2 715 1 726 6C737 11 744 20 748 33L748 33C751 40 753 50 755 64L755 64L130 64L160 251L736 251L736 283L159 283L159 363L840 363L840 178Z"/>
    <glyph glyph-name="G" unicode="&#24391;"
      horiz-adv-x="1000" vert-adv-y="1172"
      d="M678 471L678 275L829 275L829 311L713 311L713 450L787 450L787 392L829 392L829 447L920 447L920-73L829-73L829 76L790 76L790-43L713-43L713 158L829 158L829 196L678 196L678-66L600-66L600 196L453 196L450 159L565 159L565-43L484-43L484 77L438 77C431 47 421 19 408-7C395-34 377-61 355-90L355-90L276-29C303 6 323 37 336 66C349 94 357 124 361 156C364 188 366 232 366 289L366 289L366 448L454 448L454 392L493 392L493 450L566 450L566 311L454 311L454 275L600 275L600 471L368 471L368 550L589 550L589 587L344 587L344 659L589 659L589 696L374 696L374 777L589 777L589 842L689 842L689 777L907 777L907 664L959 664L959 583L907 583L907 471L678 471ZM173 361L310 361C311 324 310 271 307 204C304 137 301 89 298 62L298 62C294 27 287-1 277-20C267-39 253-53 235-61C217-69 192-73 161-74L161-74C132-74 105-71 80-66L80-66L58 45C80 40 107 37 140 37L140 37C157 37 170 42 179 52C187 62 192 79 195 102L195 102C202 164 205 215 204 254L204 254L64 254L83 575L212 575L212 688L60 688L60 798L311 798L311 469L183 469L173 361ZM811 659L811 696L689 696L689 659L811 659ZM811 550L811 587L689 587L689 550L811 550Z"/>
    <glyph glyph-name="H" unicode="&#24392;"
      horiz-adv-x="1000" vert-adv-y="1172"
      d="M362 578L362 807L630 807L630 578L362 578ZM667 578L667 807L944 807L944 578L667 578ZM317 473L177 473L169 370L321 370C321 265 317 163 310 66L310 66C307 31 302 4 293-15C284-34 271-47 252-55C233-63 205-67 169-67L169-67C141-67 113-66 84-63L84-63L62 49C94 45 123 43 148 43L148 43C167 43 181 47 189 56C196 64 201 78 203 99L203 99C208 145 211 198 211 258L211 258L55 258L76 585L214 585L214 692L67 692L67 805L317 805L317 473ZM456 722L456 656L536 656L536 722L456 722ZM761 722L761 656L847 656L847 722L761 722ZM707 171L707 118L959 118L959 22L707 22L707-82L593-82L593 22L346 22L346 118L593 118L593 171L387 171L387 534L914 534L914 171L707 171ZM496 390L593 390L593 447L496 447L496 390ZM707 447L707 390L805 390L805 447L707 447ZM593 313L496 313L496 261L593 261L593 313ZM805 313L707 313L707 261L805 261L805 313Z"/>
    <glyph glyph-name="I" unicode="&#24393;"
      horiz-adv-x="1000" vert-adv-y="1172"
      d="M905 101L768 101C824 76 891 43 968 3L968 3L916-90L849-55C828-44 799-29 762-10C725 9 696 22 677 31L677 31L717 101L570 101L610 33C573 10 531-13 484-37C437-62 395-81 359-96L359-96L308 3C339 14 375 29 416 48C457 67 494 84 525 101L525 101L382 101L382 465L590 465L590 509L356 509L356 607L478 607L478 662L377 662L377 760L478 760L478 836L581 836L581 760L707 760L707 836L812 836L812 760L932 760L932 662L812 662L812 607L959 607L959 509L696 509L696 465L905 465L905 101ZM190 469L181 361L317 361C317 326 316 272 313 200C310 127 308 81 306 62L306 62C301 25 294-2 284-21C274-40 259-54 240-61C221-68 193-72 158-72L158-72C130-72 105-70 84-65L84-65L62 46C88 40 117 37 150 37L150 37C167 37 179 42 187 53C195 63 200 80 203 103L203 103C205 127 207 154 209 184C210 213 211 237 210 254L210 254L68 254L87 575L224 575L224 688L64 688L64 798L323 798L323 469L190 469ZM707 607L707 662L581 662L581 607L707 607ZM489 328L590 328L590 370L489 370L489 328ZM696 328L800 328L800 370L696 370L696 328ZM590 194L590 237L489 237L489 194L590 194ZM696 237L696 194L800 194L800 237L696 237Z"/>
    <glyph glyph-name="J" unicode="&#24394;"
      horiz-adv-x="1000" vert-adv-y="1172"
      d="M342 735L342 815L937 815L937 735L342 735ZM215 688L63 688L63 798L314 798L314 469L186 469L176 361L312 361C313 328 312 275 309 202C306 129 303 83 301 62L301 62C297 28 291 2 282-17C273-36 260-50 242-59C224-68 199-73 166-73L166-73C129-72 102-69 83-65L83-65L61 46C86 40 112 37 139 37L139 37C158 37 173 43 182 54C191 65 196 81 198 103L198 103C200 127 202 154 204 183C205 212 206 236 206 254L206 254L67 254L86 575L215 575L215 688ZM365 700L912 700L912 450L365 450L365 700ZM472 605L587 605L587 635L472 635L472 605ZM690 635L690 605L806 605L806 635L690 635ZM587 515L587 545L472 545L472 515L587 515ZM806 545L690 545L690 515L806 515L806 545ZM338 352L338 418L954 418L954 352L338 352ZM365 319L917 319L917 61L365 61L365 319ZM471 221L589 221L589 254L471 254L471 221ZM692 254L692 221L809 221L809 254L692 254ZM589 128L589 160L471 160L471 128L589 128ZM809 160L692 160L692 128L809 128L809 160ZM958-51L327-51L327 29L958 29L958-51Z"/>
    <glyph glyph-name="K" unicode="&#24395;"
      horiz-adv-x="1000" vert-adv-y="1172"
      d="M356 572L356 809L919 809L919 572L356 572ZM163 361L299 361C300 328 299 275 296 202C293 129 290 83 288 62L288 62C284 27 278-1 269-20C260-39 246-53 229-61C211-69 187-73 156-73L156-73C117-72 89-69 70-65L70-65L48 46C73 40 101 37 133 37L133 37C150 37 162 42 169 52C176 62 182 79 185 103L185 103C188 122 190 147 191 177C192 206 193 232 193 254L193 254L54 254L74 575L202 575L202 688L50 688L50 798L301 798L301 469L173 469L163 361ZM524 653L524 725L450 725L450 653L524 653ZM605 653L677 653L677 725L605 725L605 653ZM758 725L758 653L826 653L826 725L758 725ZM329 462L329 535L947 535L947 462L329 462ZM813 93C849 71 899 51 962 34L962 34L918-63C839-32 776 2 727 40C678 78 637 126 603 185L603 185C580 164 563 148 550 139L550 139L550 28L670 78L675-19C621-36 584-47 564-54L564-54C527-68 496-81 473-92L473-92L433-19C446-5 453 8 453 21L453 21L453 73C418 52 379 33 337 14L337 14L295 107C386 138 459 176 516 223L516 223L372 223L372 422L895 422L895 223L881 223L922 163C904 150 868 127 813 93L813 93ZM799 301L799 347L468 347L468 301L799 301ZM849 223L680 223C701 192 721 167 740 149L740 149C771 168 808 192 849 223L849 223Z"/>
    <glyph glyph-name="L" unicode="&#24396;"
      horiz-adv-x="1000" vert-adv-y="1172"
      d="M974 590L935 517L924 524L924 25C924-13 918-40 905-57C892-74 867-82 832-82L832-82C812-82 783-80 744-76L744-76L727 14C758 9 780 6 795 6L795 6C808 6 817 10 823 18C828 26 830 39 830 57L830 57L830 73L794 44L754 108C735 79 720 56 707 39L707 39L678 64L678-60L587-60L587 68L553 39C540 61 527 83 514 104L514 104C500 82 484 59 466 34L466 34L440 57L440-80L345-80L345 526L328 517L291 591L291 476L172 476L162 362L294 362C293 263 288 164 281 66L281 66C278 30 274 3 268-16C261-35 251-49 236-57C221-66 200-70 173-70L173-70C142-70 112-68 82-64L82-64L59 49C88 43 112 40 131 40L131 40C146 40 157 45 164 54C171 63 175 79 178 101L178 101C185 166 188 218 189 256L189 256L55 256L73 581L189 581L189 689L51 689L51 802L291 802L291 594C354 626 414 662 473 702L473 702L330 702L330 801L943 801L943 702L790 702C847 668 909 631 974 590L974 590ZM582 702L518 702L551 659C516 632 483 609 453 590L453 590L582 590L582 702ZM681 702L681 590L818 590L712 653L747 702L681 702ZM544 476L587 453L587 496L440 496L440 451L477 476L513 423C528 447 538 465 544 476L544 476ZM830 308L830 496L678 496L678 452L718 480L754 426C767 448 776 466 783 480L783 480L829 455C818 431 804 405 786 376L786 376L830 308ZM678 446L678 319C691 335 706 355 723 378L723 378L678 446ZM587 309L587 439C576 420 563 397 547 372L547 372C550 367 555 360 560 351L560 351C570 337 579 323 587 309L587 309ZM440 436L440 313C449 326 463 346 482 374L482 374L440 436ZM784 158C805 127 820 103 830 87L830 87L830 299L788 269C776 292 765 311 754 327L754 327C743 310 728 290 709 266L709 266L678 293L678 230L717 261L751 209C758 222 768 241 779 264L779 264L827 239C812 206 797 179 784 158L784 158ZM546 156C566 124 580 103 587 92L587 92L587 289L554 260C539 285 527 306 516 322L516 322C496 293 481 271 471 258L471 258L440 286L440 228L479 259L512 208C525 233 533 250 538 260L538 260L586 234C575 211 562 185 546 156L546 156ZM678 225L678 96C691 113 706 134 722 159L722 159L710 178C693 204 682 220 678 225L678 225ZM440 219L440 96C453 112 466 132 481 156L481 156C466 181 452 202 440 219L440 219Z"/>
    <glyph glyph-name="M" unicode="&#24397;"
      horiz-adv-x="1000" vert-adv-y="1172"
      d="M965 497L965 411L745 411L745 378L914 378L914 78L801 78L823 68C895 36 941 15 962 4L962 4L918-90C845-53 780-22 723 5L723 5L757 78L636 78L673 7C645-10 611-28 572-47C533-66 495-83 460-97L460-97L418-5C443 4 473 17 508 33C543 48 574 63 601 78L601 78L490 78L490 378L653 378L653 411L457 411C456 328 454 260 449 208C444 156 435 108 422 64C408 20 387-27 360-78L360-78L276-20C266-39 251-53 232-60C213-68 185-72 150-72L150-72C124-72 100-70 79-65L79-65L57 46C80 40 107 37 138 37L138 37C156 37 169 42 177 52C185 62 191 79 194 103L194 103C196 127 198 154 200 184C201 213 202 237 201 254L201 254L59 254L78 575L211 575L211 688L58 688L58 798L309 798L309 469L177 469L168 361L307 361C308 328 307 275 304 202C301 129 298 83 296 62L296 62C293 42 291 27 289 17L289 17C310 58 325 97 335 134C345 171 352 213 356 259C359 305 361 365 361 439L361 439L361 774L611 774L587 833L694 858C705 834 718 806 732 774L732 774L951 774L951 676L839 676L839 625L933 625L933 541L839 541L839 497L965 497ZM480 625L560 625L560 676L457 676L457 497L560 497L560 541L480 541L480 625ZM651 676L651 625L748 625L748 676L651 676ZM651 541L651 497L748 497L748 541L651 541ZM574 267L653 267L653 304L574 304L574 267ZM745 267L824 267L824 304L745 304L745 267ZM653 161L653 197L574 197L574 161L653 161ZM824 197L745 197L745 161L824 161L824 197Z"/>
    <glyph glyph-name="N" unicode="&#24398;"
      horiz-adv-x="1000" vert-adv-y="1172"
      d="M555 787L652 787L652 718L348 718L348 787L452 787C447 807 443 823 438 835L438 835L537 849C542 832 548 812 555 787L555 787ZM107 641L70 636L51 706C64 709 75 714 84 723L84 723C93 732 107 750 129 778C150 806 166 829 178 848L178 848L254 808L218 766C193 735 176 716 167 707L167 707L221 715C249 746 266 767 273 777L273 777L339 728C324 711 300 686 267 654C234 622 208 596 187 577L187 577L227 585L257 591L242 626L304 648C313 629 322 608 332 585C342 562 351 540 358 519L358 519L291 497L280 530L124 504C127 505 114 502 83 497L83 497L59 568C74 573 89 580 103 591L103 591C113 599 132 618 161 649L161 649C149 648 131 645 107 641L107 641ZM666 637L647 708C660 712 671 717 679 724L679 724C688 733 703 750 724 776C744 802 760 825 773 846L773 846L851 806L764 706L816 715C847 750 867 773 875 784L875 784L942 735C919 710 891 682 859 649C826 616 800 592 781 576L781 576C789 578 802 580 819 583L819 583C827 585 838 587 853 590L853 590C850 597 848 604 846 610C844 616 842 622 840 627L840 627L909 650C929 605 946 561 960 520L960 520L885 495L874 530L716 504C711 503 698 501 676 497L676 497L653 568C670 575 685 582 696 591L696 591C706 598 726 618 757 651L757 651L703 643L666 637ZM368 632L368 689L631 689L631 632L368 632ZM631 605L631 551L368 551L368 605L631 605ZM635 521L635 368L367 368L367 521L635 521ZM860 476L927 495C945 454 960 410 972 363L972 363L900 342C894 370 881 415 860 476L860 476ZM354 379L288 362C281 395 271 434 257 477L257 477L318 491C333 451 345 414 354 379L354 379ZM66 485L140 476C133 418 123 371 111 336L111 336L34 354C49 400 60 444 66 485L66 485ZM850 361L778 357C775 410 771 450 766 476L766 476L834 485C841 444 846 402 850 361L850 361ZM717 347L645 360C660 405 670 447 675 484L675 484L744 475C736 419 727 376 717 347L717 347ZM244 361L172 356C171 411 168 450 163 475L163 475L227 482C235 433 241 393 244 361L244 361ZM553 424L553 467L451 467L451 424L553 424ZM855 158L265 158L257 122L892 122L882 25C877-5 870-28 861-44C851-60 837-71 818-78C799-85 772-88 738-88L738-88C672-88 593-86 501-81L501-81L484 0C558-5 631-8 704-9L704-9C723-9 736-7 743-2C750 2 755 10 758 21L758 21C761 30 763 39 763 49L763 49L123 49L157 230L744 230L744 263L150 263L150 333L855 333L855 158Z"/>
    <glyph glyph-name="O" unicode="&#24399;"
      horiz-adv-x="1000" vert-adv-y="1172"
      d="M969 2L942-87C817-72 708-50 617-21L617-21C523-49 414-72 289-90L289-90L266-26C256-44 242-57 225-64C207-72 183-76 153-76L153-76C119-76 91-74 69-69L69-69L47 42C69 37 98 34 133 34L133 34C150 34 162 39 169 49C176 58 181 75 184 99L184 99C187 118 189 143 190 173C191 202 192 228 192 250L192 250L53 250L73 572L201 572L201 684L49 684L49 794L300 794L300 465L172 465L162 358L277 358L276 359C333 416 374 472 397 526L397 526L338 526L338 821L611 821L611 538L646 546L646 820L926 820L926 526L692 526C701 507 707 493 710 485L710 485L926 485L926 433L706 433L706 402L890 402L890 354L706 354L706 322L890 322L890 273L706 273L706 242L931 242L931 190L365 190L365 314L326 274L298 322C297 282 296 235 294 182C291 128 289 87 287 58L287 58C284 31 280 10 276-3L276-3C362 8 433 18 490 29L490 29C449 48 408 72 366 101L366 101L329 101L329 165L900 165L900 99C846 70 798 46 756 29L756 29C810 19 881 10 969 2L969 2ZM430 733L524 733L524 762L430 762L430 733ZM734 733L831 733L831 761L734 761L734 733ZM831 657L831 685L734 685L734 657L831 657ZM430 684L430 657L524 657L524 684L430 684ZM524 581L524 608L430 608L430 581L524 581ZM831 607L734 607L734 581L831 581L831 607ZM587 526L425 526L493 510L481 485L605 485C595 508 589 522 587 526L587 526ZM462 433L462 402L609 402L609 433L462 433ZM462 354L462 322L609 322L609 354L462 354ZM462 273L462 242L609 242L609 273L462 273ZM747 101L526 101C565 83 599 70 628 61L628 61C669 72 708 86 747 101L747 101Z"/>
    <glyph glyph-name="Q" unicode="&#24401;"
      horiz-adv-x="1000" vert-adv-y="1172"
      d="M326 656L831 656L783 77L955 77L955-39L44-39L44 77L660 77L673 229L138 229L228 826L348 811L326 656ZM700 537L308 537L281 348L683 348L700 537Z"/>
    <glyph glyph-name="T" unicode="&#24404;"
      horiz-adv-x="1000" vert-adv-y="1172"
      d="M723 191C784 147 863 107 962 71L962 71L906-38C821-1 752 35 698 70C643 105 596 147 557 195L557 195L557 45C557-2 547-35 527-54C507-74 472-84 422-84L422-84C382-84 341-81 299-74L299-74L276 38C290 35 306 32 325 30C344 28 360 27 374 27L374 27C401 27 419 32 429 41C438 50 442 67 442 90L442 90L442 160L112-25L55 79C77 88 139 120 240 175C341 230 408 268 442 289L442 289L442 383L216 383C240 365 274 340 319 307L319 307L346 287L271 198C253 213 228 233 197 258C165 283 137 304 112 322L112 322L162 383L59 383L59 486L658 486L666 535L163 535L227 849L343 842L333 792L818 792L776 486L952 486L952 383L835 383L894 310C844 273 787 234 723 191L723 191ZM689 688L312 688L302 637L681 637L689 688ZM634 271C696 312 749 349 792 383L792 383L558 383C578 342 603 304 634 271L634 271Z"/>
    <glyph glyph-name="Y" unicode="&#24409;"
      horiz-adv-x="1000" vert-adv-y="1172"
      d="M808 808L777 633L908 633L908 573L89 573L89 633L664 633L670 662L159 662L213 847L324 845L314 808L808 808ZM686 748L298 748L290 718L680 718L686 748ZM848 394L848 479L153 479L153 395L63 395L63 542L937 542L937 394L848 394ZM949 13L927-77C848-58 778-38 717-17C656 4 601 27 551 54L551 54L551-83L450-83L450 53C401 26 346 3 287-18C227-39 156-59 75-78L75-78L50 14C160 33 256 59 338 91L338 91L69 91L69 163L450 163L450 195L180 195L180 450L821 450L821 195L551 195L551 163L932 163L932 91L651 91C737 57 836 31 949 13L949 13ZM273 354L450 354L450 388L273 388L273 354ZM551 388L551 354L730 354L730 388L551 388ZM450 293L273 293L273 258L450 258L450 293ZM730 293L551 293L551 258L730 258L730 293Z"/>
    <glyph glyph-name="Z" unicode="&#24410;"
      horiz-adv-x="1000" vert-adv-y="1172"
      d="M808 826L808 636L891 636L891 574L111 574L111 636L697 636L697 664L199 664L199 725L697 725L697 752L174 752L174 826L808 826ZM848 396L848 481L153 481L153 397L63 397L63 544L937 544L937 396L848 396ZM953 13L924-75C845-56 776-35 717-12C657 11 601 37 550 67L550 67L550-80L453-80L453 59C400 30 344 5 284-16C223-38 154-58 75-77L75-77L45 16C164 35 264 60 344 93L344 93L69 93L69 166L453 166L453 201L180 201L180 450L821 450L821 201L550 201L550 166L932 166L932 93L658 93C750 55 848 28 953 13L953 13ZM273 357L453 357L453 388L273 388L273 357ZM550 388L550 357L730 357L730 388L550 388ZM453 295L273 295L273 262L453 262L453 295ZM730 295L550 295L550 262L730 262L730 295Z"/>
    <glyph glyph-name="[" unicode="&#24411;"
      horiz-adv-x="1000" vert-adv-y="1172"
      d="M709 496L774 537L54 537L54 607L717 607L717 644L168 644L168 710L717 710L717 747L144 747L144 816L828 816L828 607L944 607L944 537L778 537C801 498 826 467 851 447C876 426 911 405 954 384L954 384L912 307C890 318 871 330 854 341L854 341L847 281C842 248 833 226 820 213C807 200 785 194 754 194L754 194C732 194 712 196 695 200L695 200L680 276C691 273 706 270 725 269L725 269C745 269 757 280 762 301L762 301C765 314 767 326 768 335L768 335L676 335C672 308 665 285 656 268C646 250 631 233 612 218C592 202 564 184 527 165L527 165L476 226C518 245 547 261 563 276C579 291 589 310 593 335L593 335L564 335L564 355C552 346 534 333 510 317L510 317L469 367L469 340L357 340C406 309 439 287 455 274L455 274L408 212L338 262L338 202L243 202L243 269C212 240 170 208 116 175L116 175L69 254C130 281 177 309 210 340L210 340L89 340L89 415L174 415C157 435 133 459 103 488L103 488L155 535C190 504 215 480 232 461L232 461L182 415L243 415L243 514L338 514L338 415L391 415L347 460C382 494 408 520 424 537L424 537L478 488C454 462 429 438 402 415L402 415L469 415L469 389C499 411 524 433 545 456C565 478 584 504 601 534L601 534L673 489C655 457 637 430 619 409L619 409L771 409C750 431 729 460 709 496L709 496ZM629 180L740 180L740 136L952 136L952 46L740 46L740-77L629-77L629 46L371 46C362 16 343-11 316-34C289-58 249-82 196-106L196-106L136-17C171-4 198 8 215 17C232 26 245 35 253 46L253 46L45 46L45 136L274 136C275 158 276 174 275 183L275 183L386 183C387 177 386 161 385 136L385 136L629 136L629 180Z"/>
    <glyph glyph-name="\" unicode="&#24412;"
      horiz-adv-x="1000" vert-adv-y="1172"
      d="M422 538L54 538L54 607L678 607L683 642L173 642L223 853L334 848L325 805L826 805L794 607L944 607L944 538L779 538C802 499 827 469 852 448C877 427 911 406 954 387L954 387L912 309C896 317 876 328 853 343L853 343C852 328 850 310 847 287L847 287C842 254 834 232 821 219C808 206 787 200 758 200L758 200C738 200 717 202 695 206L695 206L680 281C694 276 709 274 725 274L725 274C736 274 744 277 750 283C755 288 759 296 762 307L762 307C765 317 767 328 768 341L768 341L675 341C672 313 665 290 656 272C647 253 632 236 613 220C593 204 564 186 527 166L527 166L476 227C519 246 549 264 565 279C580 294 590 315 593 341L593 341L564 341L564 356C548 343 530 331 510 318L510 318L469 368L469 342L383 342C423 314 450 296 463 287L463 287L415 224L338 283L338 207L243 207L243 271C210 240 168 208 116 176L116 176L69 255C128 281 175 310 210 342L210 342L89 342L89 416L176 416C147 447 123 472 103 489L103 489L155 538C176 519 202 495 233 464L233 464L182 416L243 416L243 516L338 516L338 416L391 416L345 462C373 487 399 512 422 538L422 538ZM699 741L310 741L302 703L693 703L699 741ZM624 415L767 415C746 438 726 466 709 498L709 498L771 538L426 538L478 489C455 464 429 440 400 416L400 416L469 416L469 391C500 412 525 434 545 456C564 478 583 505 601 536L601 536L673 491C656 461 640 436 624 415L624 415ZM629 181L740 181L740 139L952 139L952 47L740 47L740-78L629-78L629 47L372 47C361 18 342-9 315-32C288-56 248-80 196-104L196-104L136-14C169-2 194 9 212 18C230 27 243 37 252 47L252 47L45 47L45 139L274 139C275 160 276 176 275 186L275 186L386 186C386 165 386 149 385 139L385 139L629 139L629 181Z"/>
    <glyph glyph-name="^" unicode="&#24414;"
      horiz-adv-x="1000" vert-adv-y="1172"
      d="M531 472C548 481 577 502 618 535L618 535L54 535L54 608L717 608L717 646L168 646L168 710L717 710L717 747L144 747L144 816L828 816L828 608L944 608L944 535L666 535L696 511C665 486 640 470 623 464L623 464L717 472C754 495 784 516 807 535L807 535L859 484C813 453 775 428 744 410C713 391 684 377 657 367L657 367L794 377L773 401L827 440C862 402 897 362 930 321L930 321L877 280L845 318C818 317 781 316 736 313L736 313L736 207L642 207L642 307L617 305L588 302L625 256C594 233 548 202 488 165L488 165L447 225C494 249 533 274 566 300L566 300C531 297 506 295 492 293L492 293L481 360C512 364 533 368 546 373L546 373C568 382 596 397 630 417L630 417L579 414L542 411L494 406L480 459C499 461 516 465 531 472L531 472ZM332 273L332 205L238 205L238 267C205 236 163 204 111 172L111 172L65 251C122 276 168 304 203 336L203 336L88 336L88 410L170 410L98 483L151 530C161 521 187 496 229 454L229 454L179 410L238 410L238 513L332 513L332 410L382 410L338 454C361 475 388 501 418 532L418 532L471 483C454 464 429 439 395 410L395 410L463 410L463 336L374 336C406 315 433 296 454 280L454 280L406 219C379 239 355 257 332 273L332 273ZM754 254L792 311C829 290 875 261 932 224L932 224L893 167C872 180 849 195 824 212C798 228 775 242 754 254L754 254ZM740 141L952 141L952 46L740 46L740-77L629-77L629 46L372 46C362 17 343-10 316-33C289-57 249-81 196-106L196-106L136-16C169-4 194 7 212 17C229 26 242 36 251 46L251 46L45 46L45 141L274 141C275 152 275 166 275 183L275 183L386 183C386 165 386 151 385 141L385 141L629 141L629 184L740 184L740 141Z"/>
    <glyph glyph-name="_" unicode="&#24415;"
      horiz-adv-x="1000" vert-adv-y="1172"
      d="M420 399L374 450L374 387L75 387L75 485L277 485L277 544L101 544L101 641L277 641L277 702L83 702L83 800L374 800L374 495C411 539 441 594 464 660L464 660L501 648L501 688L400 688L400 779L501 779L501 834L598 834L598 779L726 779L726 834L824 834L824 779L951 779L951 688L824 688L824 644L736 644L752 600L929 600L929 531L756 531L756 498L910 498L910 439L756 439L756 405L910 405L910 345L756 345L756 313L944 313L944 248L444 248L444 431L420 399ZM598 688L598 644L513 644L553 631C548 619 544 609 540 600L540 600L660 600C652 623 645 641 640 652L640 652L725 670L726 668L726 688L598 688ZM541 531L541 498L662 498L662 531L541 531ZM541 439L541 405L662 405L662 439L541 439ZM400 316L400 218L335 218L335 47C335 16 331-7 324-24C316-41 303-54 285-61C266-69 239-74 204-75L204-75C192-76 178-75 163-72C147-70 137-69 134-68L134-68L113 27C133 22 154 19 176 19L176 19C201 19 217 23 226 30C234 37 238 51 238 72L238 72L238 218L136 218C171 185 202 153 228 120L228 120L160 53C123 95 91 131 63 160L63 160L121 218L55 218L55 316L238 316L238 368L335 368L335 316L400 316ZM541 345L541 313L662 313L662 345L541 345ZM966 10L939-89C832-69 740-43 662-11L662-11C585-40 492-64 385-84L385-84L349 12C439 26 505 38 547 49L547 49C509 72 472 101 437 134L437 134L412 134L412 216L919 216L919 139C876 102 830 71 782 44L782 44C838 29 899 18 966 10L966 10ZM759 134L583 134C610 116 638 100 667 86L667 86C699 100 730 116 759 134L759 134Z"/>
    <glyph glyph-name="`" unicode="&#24416;"
      horiz-adv-x="1000" vert-adv-y="1172"
      d="M643 659L549 659L549 693L453 693L453 781L549 781L549 844L643 844L643 781L746 781L746 844L840 844L840 781L950 781L950 693L840 693L840 658L755 658C763 643 771 625 780 604L780 604L934 604L934 538L785 538L785 503L915 503L915 441L785 441L785 406L915 406L915 343L785 343L785 309L949 309L949 244L503 244L503 453C493 439 483 426 473 414L473 414L446 456L446 270L243 270L243 483L428 483L420 496C466 547 501 603 524 666L524 666L612 636C607 625 602 614 597 604L597 604L684 604C674 626 668 639 665 643L665 643L746 668L746 693L643 693L643 659ZM73 734L73 814L428 814L428 517L65 517L65 592L334 592L334 625L90 625L90 700L334 700L334 734L73 734ZM593 538L593 503L694 503L694 538L593 538ZM43 248L35 335C38 336 44 337 54 338C63 339 79 341 101 344L101 344L101 403L49 403L49 482L223 482L223 403L172 403L172 353L225 361L224 315L224 276C213 273 180 268 124 261L124 261L43 248ZM593 441L593 406L694 406L694 441L593 441ZM315 404L315 353L376 353L376 404L315 404ZM593 343L593 309L694 309L694 343L593 343ZM448 217L448 131L391 131L391 44C391 12 388-13 384-31C379-49 369-62 356-71C342-80 322-84 297-85L297-85C264-85 232-82 200-76L200-76L186 2L180-4C157 23 125 56 84 97L84 97L114 131L41 131L41 217L298 217L298 255L391 255L391 217L448 217ZM972 13L943-80C847-64 765-40 696-7L696-7C633-34 548-60 442-84L442-84L409 10C479 21 541 35 595 52L595 52C557 79 523 107 492 136L492 136L471 136L471 214L925 214L925 136C877 99 835 69 799 47L799 47C850 30 907 19 972 13L972 13ZM780 136L623 136C648 119 673 103 697 90L697 90C730 105 757 120 780 136L780 136ZM298 67L298 131L169 131C204 96 228 71 241 56L241 56L197 12C215 8 234 6 253 6L253 6C270 6 281 11 288 20C295 29 298 45 298 67L298 67Z"/>
    <glyph glyph-name="c" unicode="&#24419;"
      horiz-adv-x="1000" vert-adv-y="1172"
      d="M702 49C731 47 766 46 806 45C846 44 885 43 922 43L922 43L955 43L935-69C883-69 791-66 660-61L660-61C506-52 383-1 291 93L291 93C240 30 179-29 106-84L106-84L26 10C110 67 174 125 219 184L219 184C154 285 112 418 92 584L92 584L51 584L51 699L239 699C226 748 214 790 202 825L202 825L314 845C320 826 327 803 336 774C344 745 351 720 356 699L356 699L533 699L533 584L480 584C468 504 453 432 434 369C415 306 390 248 360 195L360 195C414 137 481 96 560 72L560 72L501 163C565 188 635 225 711 274C786 322 845 369 887 414L887 414L962 339C923 293 866 244 791 193C716 142 645 100 576 68L576 68C613 59 655 52 702 49L702 49ZM837 835L917 755C888 722 843 684 783 641C723 598 668 563 617 535L617 535L555 638C601 661 653 691 710 730C767 769 809 804 837 835L837 835ZM855 617L932 540C897 501 846 458 780 412C713 365 654 330 601 305L601 305L543 404C594 429 651 462 713 504C775 545 822 583 855 617L855 617ZM364 584L205 584C221 469 249 374 288 300L288 300C321 373 347 467 364 584L364 584Z"/>
    <glyph glyph-name="e" unicode="&#24421;"
      horiz-adv-x="1000" vert-adv-y="1172"
      d="M587 773L946 773L946 676L769 676L798 633C765 618 731 604 694 590L694 590C753 573 801 559 838 546L838 546L812 489L933 489L933 392L775 392L796 329C669 287 499 250 285 217L285 217L261 308C334 318 410 331 488 346C566 361 635 376 694 392L694 392L236 392L236 308C236 226 227 156 210 97C192 38 161-22 118-83L118-83L17-28C48 13 71 49 86 82C101 115 112 151 118 190C124 229 127 279 127 341L127 341L127 489L218 489L196 552C271 562 342 574 408 589L408 589C329 610 276 623 249 629L249 629L270 676L91 676L91 773L451 773C437 804 428 823 424 831L424 831L547 859L587 773ZM560 628C606 642 650 658 692 676L692 676L383 676L560 628ZM314 489L742 489C702 502 641 521 558 546L558 546C480 524 399 505 314 489L314 489ZM817 292L851 207C776 179 688 153 585 128C482 103 380 83 279 68L279 68L252 160C349 173 450 192 554 217C657 242 745 267 817 292L817 292ZM229-91L200 4C323 19 445 42 564 71C683 100 789 131 881 166L881 166L924 79C840 47 736 15 612-15C488-46 360-72 229-91L229-91Z"/>
    <glyph glyph-name="g" unicode="&#24423;"
      horiz-adv-x="1000" vert-adv-y="1172"
      d="M882 188L962 151C957 123 949 88 938 47L938 47C927-3 910-39 889-60C868-81 841-92 810-92L810-92C780-92 753-82 730-63C707-44 683-14 659 29L659 29C593-10 521-48 443-84L443-84L393 11L430 28L454 39C314 20 188 0 77-20L77-20L65 99C116 106 185 115 274 128C362 141 423 150 456 156L456 156L468 46C521 71 571 98 619 126L619 126C614 143 609 159 605 175L605 175C573 157 543 141 516 128L516 128L465 219C506 239 545 260 582 282L582 282C578 305 575 322 574 335L574 335C542 316 519 304 506 297L506 297L459 379L459 193L104 193L104 530L459 530L459 388C497 407 531 426 560 445L560 445L548 595L64 595L64 703L542 703C538 766 536 811 535 837L535 837L654 837L661 703L785 703C760 728 730 757 694 790L694 790L764 862C767 859 797 831 854 778L854 778L888 745L843 703L942 703L942 595L778 595L835 527C796 491 746 451 685 408L685 408C688 383 690 364 692 353L692 353C739 386 784 422 827 463L827 463L895 392C839 338 778 288 711 242L711 242L723 193C785 236 841 282 890 332L890 332L960 265C934 237 908 211 882 188L882 188ZM766 595L668 595C669 576 670 551 673 522L673 522C708 548 739 572 766 595L766 595ZM214 422L214 302L349 302L349 422L214 422ZM810 46C824 46 835 68 843 112L843 112C847 130 850 147 852 163L852 163C827 141 796 118 761 94L761 94L766 85C783 59 797 46 810 46L810 46Z"/>
    <glyph glyph-name="h" unicode="&#24424;"
      horiz-adv-x="1000" vert-adv-y="1172"
      d="M677 483L607 571C653 609 697 651 739 696C780 741 817 786 848 831L848 831L934 763C900 715 860 666 815 617C770 568 724 523 677 483L677 483ZM60 687L60 799L622 799L622 687L60 687ZM162-64L72-64L72 620L316 620L316 16C316-15 311-36 300-48C289-60 268-66 238-66L238-66C229-66 216-65 199-62L199-62L175 54C184 51 195 49 207 49L207 49C217 49 224 52 228 58C231 63 233 73 233 86L233 86L233 216L198 202C189 234 180 265 170 296L170 296C169 302 166 311 162 323L162 323L162-64ZM895 312L981 245C939 182 890 122 833 65C776 7 714-46 646-94L646-94L594-25C583-52 557-66 516-66L516-66C496-66 481-64 471-61L471-61L449 54C458 50 471 48 487 48L487 48C498 48 505 51 508 57C511 63 513 73 513 86L513 86L513 217L478 202L435 327L435-64L352-64L352 620L601 620L601 300C650 338 698 381 745 428C791 475 832 523 867 572L867 572L950 499C910 446 865 393 815 340C765 287 716 242 668 203L668 203L601 298L601 19C713 96 811 193 895 312L895 312ZM233 329L233 513L162 513L162 426L198 439C209 410 220 373 233 329L233 329ZM435 425L471 439C480 414 494 375 513 320L513 320L513 513L435 513L435 425Z"/>
    <glyph glyph-name="k" unicode="&#24427;"
      horiz-adv-x="1000" vert-adv-y="1172"
      d="M861 836L936 758C903 715 863 670 816 621C768 572 725 533 686 503L686 503L625 601C661 626 701 661 746 706C791 751 829 794 861 836L861 836ZM906 317L982 248C943 183 898 123 845 67C792 10 729-45 658-98L658-98L603-7C597-33 584-52 565-64C546-77 519-83 484-83L484-83C464-83 448-82 437-81C425-80 411-77 394-73L394-73L373 23C395 17 418 14 441 14L441 14C468 14 485 18 495 26C504 34 508 49 508 72L508 72L508 692L201 692L201 400C201 311 199 240 194 187C189 134 181 87 169 47C156 6 138-37 114-83L114-83L21-36C46 10 64 51 75 88C86 125 93 167 97 216C101 265 103 334 103 424L103 424L103 801L608 801L608 44C608 30 607 17 605 6L605 6C670 49 726 97 774 148C821 199 865 255 906 317L906 317ZM481 366L225 366L225 460L305 460L305 524L237 524L237 615L305 615L305 673L402 673L402 615L469 615L469 524L402 524L402 460L481 460L481 366ZM875 571L949 495C915 446 875 398 828 349C781 300 732 257 683 218L683 218L619 316C666 350 713 390 759 435C804 480 843 526 875 571L875 571ZM241 58L241 322L463 322L463 58L241 58ZM321 239L321 144L384 144L384 239L321 239Z"/>
    <glyph glyph-name="n" unicode="&#24430;"
      horiz-adv-x="1000" vert-adv-y="1172"
      d="M97 393L39 481C78 507 117 534 155 563L155 563L61 563L61 755L275 755L267 779C262 797 256 815 249 833L249 833L361 855C370 836 382 802 398 755L398 755L604 755L604 606C639 630 678 663 721 705C764 747 802 789 836 831L836 831L922 762C885 715 843 668 798 621C752 574 709 537 670 509L670 509L604 598L604 562L512 562L609 480L540 401C487 448 425 499 354 556L354 556L421 635L496 575L496 651L169 651L169 574C192 591 215 611 240 632L240 632L303 557C241 502 172 447 97 393L97 393ZM659 247L590 343C634 372 681 410 730 455C779 500 821 543 856 585L856 585L940 510C831 389 738 302 659 247L659 247ZM611 288L542 198L530 209L530-61L121-61L121 195C114 190 104 182 91 173L91 173L33 268C88 307 139 352 188 401C237 450 271 497 292 540L292 540L391 504C388 497 384 487 377 474L377 474C481 395 559 333 611 288L611 288ZM207 265L468 265C422 306 374 347 324 389L324 389C294 348 255 307 207 265L207 265ZM874 322L964 249C864 115 745 4 608-84L608-84L537 15C606 57 668 103 723 154C778 204 828 260 874 322L874 322ZM228 163L228 41L423 41L423 163L228 163Z"/>
    <glyph glyph-name="o" unicode="&#24431;"
      horiz-adv-x="1000" vert-adv-y="1172"
      d="M845 827L932 761C899 717 861 672 817 627C773 581 732 543 693 512L693 512L620 598C655 623 693 656 735 699C776 742 813 784 845 827L845 827ZM73 414L73 661L212 661L212 709L62 709L62 804L600 804L600 709L452 709L452 661L590 661L590 414L73 414ZM308 709L308 661L357 661L357 709L308 709ZM220 501L220 569L171 569L171 501L220 501ZM357 501L357 569L308 569L308 501L357 501ZM444 569L444 501L494 501L494 569L444 569ZM669 238L597 330C640 358 685 394 732 439C779 483 819 526 852 568L852 568L937 495C902 452 860 408 811 361C762 314 715 273 669 238L669 238ZM100 376L564 376L564 292L100 292L100 376ZM881 312L972 243C925 177 875 117 821 62C766 7 705-44 637-91L637-91L566 0C628 39 684 85 735 136C785 187 834 246 881 312L881 312ZM613 164L503 164C537 127 571 87 606 46L606 46L528-22C503 11 467 55 418 108L418 108L482 164L393 164L393 33C393-6 385-35 368-53C351-72 323-81 284-81L284-81C249-81 219-78 195-72L195-72L176 22C193 15 218 12 249 12L249 12C267 12 279 17 285 26C291 35 294 49 294 68L294 68L294 164L170 164L240 119C210 74 161 16 94-57L94-57L18 10C66 56 109 107 146 164L146 164L45 164L45 253L613 253L613 164Z"/>
    <glyph glyph-name="r" unicode="&#24434;"
      horiz-adv-x="1000" vert-adv-y="1172"
      d="M712 487L641 564C726 644 797 731 855 825L855 825L942 765C910 717 874 669 835 621C795 572 754 528 712 487L712 487ZM77 725L77 802L349 802L349 725L77 725ZM381 725L381 802L648 802L648 725L381 725ZM900 306L985 245C910 122 815 10 699-89L699-89L637-10C632-28 624-40 612-47C600-54 579-59 549-62L549-62C545-63 535-63 519-63L519-63C502-63 492-63 488-62L488-62C455-59 433-51 421-38C408-26 402-3 402 32L402 32L402 185L294 185L294 151L383 151L383 77L294 77L294 35L381 56L386-21C347-30 317-37 296-44L296-44C281-48 257-56 225-68L225-68L191 10C199 15 205 19 208 24C211 29 213 34 213 41L213 41L213 185L188 185C185 132 177 86 165 47C153 7 134-35 109-78L109-78L19-34C42 3 60 36 71 67C82 98 89 131 92 166C95 201 97 250 97 311L97 311L97 499L325 499L314 527L268 527L268 547L223 530C214 552 202 575 187 599L187 599L236 617C252 591 263 572 268 559L268 559L268 627L184 627L184 526L96 526L96 697L347 697L347 545L383 551L383 697L636 697L636 527L548 527L548 627L461 627L461 527L412 527L423 499L647 499L647 419L492 419L492 381L636 381L636 185L607 185L640 123L589 103L647 88C647 74 646 55 643 31L643 31L640 3C691 45 738 91 781 141C823 190 863 245 900 306L900 306ZM546 551L499 532C483 563 470 586 461 599L461 599L509 619C525 594 537 571 546 551L546 551ZM705 211L638 297C725 369 803 458 872 564L872 564L956 502C873 382 790 285 705 211L705 211ZM191 381L250 381L250 419L191 419L191 381ZM342 419L342 381L402 381L402 419L342 419ZM250 304L191 304L191 283L191 262L250 262L250 304ZM402 304L342 304L342 262L402 262L402 304ZM492 262L545 262L545 304L492 304L492 262ZM604 185L487 185L487 139C519 150 558 165 604 185L604 185ZM538 20C549 21 556 25 561 30C566 35 569 45 571 60L571 60L574 98C556 91 527 81 487 67L487 67L487 58C487 44 489 34 493 29C496 24 503 21 514 20L514 20L538 20Z"/>
    <glyph glyph-name="t" unicode="&#24436;"
      horiz-adv-x="1000" vert-adv-y="1172"
      d="M230 861L336 810C311 765 278 717 237 666C196 615 152 567 107 522L107 522L30 607C70 643 108 684 145 731C181 777 209 820 230 861L230 861ZM582 697L920 697C918 620 915 515 910 380C905 245 902 145 899 78L899 78C896 25 881-14 853-38C824-62 782-74 726-75L726-75C672-76 621-73 572-66L572-66L551 47C584 40 634 36 700 36L700 36C731 36 752 42 765 54C777 66 784 88 787 119L787 119C789 173 792 249 795 347C798 445 800 523 801 582L801 582L531 582C495 507 460 447 426 401L426 401L334 464C371 519 407 583 440 655C473 726 498 789 515 843L515 843L626 819C615 781 600 740 582 697L582 697ZM258 617L357 560C334 516 304 469 267 418L267 418L267-73L155-73L155 280C128 251 101 224 75 200L75 200L28 322C66 355 108 401 153 459C198 516 233 569 258 617L258 617ZM713 261L613 193C594 224 568 261 537 306C505 351 479 386 458 412L458 412L549 480C572 451 601 415 634 371C667 326 694 290 713 261L713 261Z"/>
    <glyph glyph-name="u" unicode="&#24437;"
      horiz-adv-x="1000" vert-adv-y="1172"
      d="M246 844L337 770C307 726 270 680 226 633C182 585 138 542 93 505L93 505L30 612C70 645 110 683 150 726C189 768 221 807 246 844L246 844ZM860 215L970 186C966 115 963 72 961 56L961 56C959 26 953 3 943-12C933-28 918-39 898-45C877-52 848-56 811-59L811-59C753-63 706-65 670-65L670-65C637-65 595-63 544-59L544-59C507-56 479-51 458-42C437-33 421-19 411 1C400 21 395 49 395 86L395 86L395 396L334 375L306 478C285 447 266 421 251 401L251 401L251-77L141-77L141 268C126 252 105 230 76 201L76 201L18 306C63 347 108 397 153 455C197 512 232 565 257 614L257 614L351 555C342 537 329 516 314 491L314 491L395 519L395 732L507 732L507 557L597 588L597 834L711 834L711 627L921 699C919 586 913 455 902 306L902 306C900 281 896 261 890 247C883 232 873 222 860 215L860 215ZM778 55C799 56 815 57 826 61C836 64 844 69 849 78C854 87 856 100 857 119L857 119C859 146 860 178 860 215L860 215C843 205 815 200 777 200L777 200C760 200 747 201 736 203L736 203L714 314C723 312 736 311 752 311L752 311C767 311 778 314 784 321C790 327 794 339 796 357L796 357C798 378 800 409 802 450C804 490 805 520 804 540L804 540L711 507L711 111L597 111L597 467L507 436L507 119C507 100 509 87 513 78C516 69 523 64 532 61C541 58 555 56 576 55L576 55C617 52 649 50 670 50L670 50C693 50 729 52 778 55L778 55Z"/>
    <glyph glyph-name="v" unicode="&#24438;"
      horiz-adv-x="1000" vert-adv-y="1172"
      d="M277 836L371 780C341 734 301 684 251 630C200 575 150 529 101 490L101 490L42 588C83 619 126 658 173 707C219 755 254 798 277 836L277 836ZM774 163C829 110 895 62 974 19L974 19L906-86C822-31 752 24 697 79L697 79C638 22 559-35 460-92L460-92L397-10C382-31 366-52 347-75L347-75L273-21L273-80L161-80L161 294C131 264 102 238 74 216L74 216L30 329C71 358 116 402 167 461C217 520 256 573 284 621L284 621L380 563C350 516 314 467 273 416L273 416L273 12C317 67 351 120 375 173C398 225 415 279 425 336C435 393 441 460 444 538L444 538L448 650L450 690L397 690L397 797L864 797L864 687L793 541L918 541L918 435C879 327 831 236 774 163L774 163ZM670 534L748 690L556 690L553 587C586 447 636 333 703 244L703 244C744 297 779 361 807 435L807 435L670 435L670 534ZM414 14C500 59 571 108 626 160L626 160C589 208 557 262 532 322L532 322C523 263 509 210 491 161C472 112 447 63 414 14L414 14Z"/>
    <glyph glyph-name="x" unicode="&#24440;"
      horiz-adv-x="1000" vert-adv-y="1172"
      d="M977 412L888 339C833 402 787 472 751 547C714 622 683 712 657 817L657 817L763 843C785 751 813 671 847 604C880 536 924 472 977 412L977 412ZM267 842L362 778C330 733 291 686 246 637C201 588 156 545 112 508L112 508L49 615C90 649 131 687 171 728C210 769 242 807 267 842L267 842ZM527 805L634 780C612 703 581 624 541 543C501 462 459 395 414 341L414 341L323 414C368 465 409 525 445 595C481 665 508 735 527 805L527 805ZM285 622L387 562C359 515 320 461 269 399L269 399L269-68L161-68L161 279C130 248 108 226 93 213L93 213L26 308C72 351 120 402 169 462C218 521 256 575 285 622L285 622ZM676 263L777 304C796 266 821 214 852 147C882 80 908 21 930-31L930-31L820-75L792-5C699-13 614-22 538-31L538-31C497-36 456-41 413-48L413-48L381 64C394 71 404 78 412 87C420 96 427 106 434 118L434 118C453 147 475 196 502 265C529 334 555 409 582 492L582 492L693 458C670 385 643 312 614 240C585 168 559 114 538 78L538 78L747 102C727 149 703 203 676 263L676 263Z"/>
    <glyph glyph-name="z" unicode="&#24442;"
      horiz-adv-x="1000" vert-adv-y="1172"
      d="M286 852L375 786C343 739 303 689 254 638C205 586 156 542 107 506L107 506L43 605C83 634 127 672 175 721C223 769 260 813 286 852L286 852ZM893 331L705 331L705 64L949 64L949-46L345-46L345 64L592 64L592 331L404 331L404 444L592 444L592 682L393 682L393 795L914 795L914 682L705 682L705 444L893 444L893 331ZM284 599L376 539C343 486 307 436 270 389L270 389L270-67L158-67L158 263C142 246 119 225 88 198L88 198L26 296C65 327 111 374 164 437C217 500 257 554 284 599L284 599Z"/>
    <glyph glyph-name="}" unicode="&#24445;"
      horiz-adv-x="1000" vert-adv-y="1172"
      d="M264 845L358 777C327 734 288 689 243 642C197 595 151 552 105 514L105 514L38 616C81 647 122 684 163 726C203 767 237 807 264 845L264 845ZM876 203L972 169C969 149 965 125 960 98C954 70 948 49 943 34L943 34C933-3 920-30 904-49C888-68 868-77 844-77L844-77C821-77 797-63 773-36C748-9 727 31 709 84L709 84C684 155 665 250 651 371L651 371L495 371L495 164L627 256L656 136L608 105C639 66 673 21 710-29L710-29L622-90C603-59 570-12 524 49L524 49L502 34C465 8 437-13 418-28L418-28L353 69C363 76 370 84 375 94C379 104 381 116 381 130L381 130L381 759C552 771 721 795 887 830L887 830L913 713C882 706 825 695 744 682L744 682C745 631 748 566 753 487L753 487L943 487L943 371L764 371C777 261 794 175 815 113L815 113C820 101 824 92 829 86C834 79 838 76 841 76L841 76C845 76 849 79 853 86C856 92 859 101 861 113L861 113C863 121 868 151 876 203L876 203ZM495 649L495 487L640 487C636 543 633 603 631 666L631 666C575 658 530 652 495 649L495 649ZM272 611L373 557C349 512 314 460 267 401L267 401L267-74L154-74L154 272C135 251 111 228 84 203L84 203L24 308C70 350 115 399 160 454C205 509 242 562 272 611L272 611Z"/>
    <glyph glyph-name="~" unicode="&#24446;"
      horiz-adv-x="1000" vert-adv-y="1172"
      d="M595 850L689 850C752 712 849 599 980 512L980 512L912 410C853 451 800 497 755 548C710 599 673 650 646 703L646 703C621 658 587 610 544 559C501 508 451 460 394 413L394 413L323 502C310 482 289 454 262 418L262 418L262-76L149-76L149 287C136 272 115 252 88 227L88 227L26 333C74 378 121 427 166 482C211 536 245 586 270 631L270 631L366 574C355 553 344 535 335 521L335 521C395 568 446 619 488 673C530 727 566 786 595 850L595 850ZM255 847L349 776C318 733 279 687 234 639C189 591 143 548 97 510L97 510L32 615C73 647 114 684 155 727C195 769 228 809 255 847L255 847ZM739 439L661 384L897 384L897 272C882 257 855 227 816 184L816 184L716 75C773 37 811 12 830-1L830-1L758-97C708-62 648-20 577 28C506 76 450 114 407 141L407 141L470 237L620 139C633 153 666 187 719 242L719 242L751 275L410 275L410 384L641 384L619 413C578 470 551 505 538 520L538 520L622 586C652 551 691 502 739 439L739 439Z"/>
    <glyph glyph-name="" unicode="&#24447;"
      horiz-adv-x="1000" vert-adv-y="1172"
      d="M237 839L328 774C301 729 266 681 224 629C182 576 141 530 100 490L100 490L31 582C66 617 104 660 144 709C183 758 214 801 237 839L237 839ZM752 343L942 343C943 317 941 280 938 232C935 183 931 143 927 110L927 110C923 83 917 63 910 49C903 35 892 25 878 20C864 15 845 13 821 14L821 14C804 14 791 16 780 19L780 19L758 122C765 119 775 117 788 117L788 117C801 117 810 120 815 125C820 130 823 140 826 153L826 153C829 165 831 179 832 194C833 209 833 222 832 233L832 233L752 233L752-76L654-76L654 233L572 233C567 181 558 137 544 100C530 63 509 29 482-2C455-33 418-65 372-98L372-98L299-3C354 33 395 70 421 107C447 144 464 186 471 233L471 233L314 233L336 541L477 541L477 629L344 629L344 738L477 738L477 838L576 838L576 738L654 738L654 839L752 839L752 738L911 738L911 432L752 432L752 343ZM654 541L654 629L576 629L576 541L654 541ZM752 541L809 541L809 629L752 629L752 541ZM228 583L316 527C298 489 274 447 244 401L244 401L244-82L137-82L137 257C116 232 96 211 79 194L79 194L15 288C50 325 88 372 131 431C174 489 206 540 228 583L228 583ZM477 343L477 432L428 432L423 343L477 343ZM654 432L576 432L576 343L654 343L654 432Z"/>
    <glyph glyph-name="" unicode="&#24451;"
      horiz-adv-x="1000" vert-adv-y="1172"
      d="M246 840L338 778C309 733 271 684 226 633C181 582 138 539 98 505L98 505L31 604C67 635 106 673 149 720C192 767 224 807 246 840L246 840ZM723 263L723 72L957 72L957-40L360-40L360 72L614 72L614 263L401 263L401 375L614 375L614 538L483 538C465 484 445 433 424 386L424 386L324 435C377 549 414 665 437 782L437 782L540 760C533 724 525 689 516 654L516 654L614 654L614 833L723 833L723 654L938 654L938 538L723 538L723 375L915 375L915 263L723 263ZM259 617L352 553C328 510 295 460 254 405L254 405L254-74L148-74L148 276C119 244 93 218 70 197L70 197L19 313C57 345 100 391 147 452C194 513 232 568 259 617L259 617Z"/>
    <glyph glyph-name="" unicode="&#24454;"
      horiz-adv-x="1000" vert-adv-y="1172"
      d="M936 808L936 693L764 693L764 590L919 590L919-63L817-63L817-17L455-17L455-64L353-64L353 590L505 590L505 693L347 693L347 780C318 737 282 691 237 642C192 593 147 549 102 512L102 512L38 616C81 649 121 687 160 728C198 769 228 809 251 846L251 846L347 782L347 808L936 808ZM607 693L607 590L663 590L663 693L607 693ZM250 606L348 549C327 507 298 460 260 407L260 407L260-66L148-66L148 267C117 234 92 208 71 189L71 189L25 310C62 344 103 390 148 448C192 505 226 558 250 606L250 606ZM511 477L455 477L455 265C478 293 493 321 500 349C507 377 510 420 511 477L511 477ZM455 201L455 95L817 95L817 206L763 206C738 206 718 209 704 216C690 222 680 233 673 249C666 265 663 288 663 318L663 318L663 477L607 477C606 419 604 373 599 339C594 304 584 273 569 246C554 219 532 190 503 160L503 160L455 201ZM795 315L817 315L817 477L759 477L759 362C759 343 761 331 766 325C771 318 780 315 795 315L795 315Z"/>
    <glyph glyph-name="" unicode="&#24461;"
      horiz-adv-x="1000" vert-adv-y="1172"
      d="M260 847L353 783C328 745 292 700 247 648C201 596 158 552 118 515L118 515L50 609C85 638 124 677 166 725C207 772 239 813 260 847L260 847ZM902 608L699 608L699 505L941 505L941 395L363 395L363 505L590 505L590 608L390 608L390 716L590 716L590 831L699 831L699 716L902 716L902 608ZM253 609L349 552C327 513 300 470 268 424L268 424L268-61L158-61L158 288C133 261 110 239 89 220L89 220L31 323C65 354 104 397 148 454C192 511 227 562 253 609L253 609ZM899 288L899 178L695 178L695 65L938 65L938-47L342-47L342 65L586 65L586 178L386 178L386 288L586 288L586 366L695 366L695 288L899 288Z"/>
    <glyph glyph-name="" unicode="&#24462;"
      horiz-adv-x="1000" vert-adv-y="1172"
      d="M262 846L360 778C281 677 198 584 110 501L110 501L41 607C79 637 121 676 166 725C211 773 243 813 262 846L262 846ZM382 489L382 800L902 800L902 489L382 489ZM495 693L495 595L787 595L787 693L495 693ZM261 601L357 545C335 501 305 452 266 398L266 398L266-70L154-70L154 257C127 227 102 201 78 179L78 179L18 288C56 320 100 368 149 432C198 495 235 552 261 601L261 601ZM898 144L703 144L703 60L954 60L954-45L325-45L325 60L590 60L590 144L385 144L385 249L590 249L590 326L369 326L369 435L923 435L923 326L703 326L703 249L898 249L898 144Z"/>
    <glyph glyph-name="" unicode="&#24463;"
      horiz-adv-x="1000" vert-adv-y="1172"
      d="M246 842L338 775C313 738 278 694 232 643C185 592 142 547 101 509L101 509L32 602C67 630 106 668 148 717C190 765 223 807 246 842L246 842ZM946 424L333 424L333 533L409 533L409 742L517 742L517 533L605 533L605 832L713 832L713 726L894 726L894 617L713 617L713 533L946 533L946 424ZM248 613L342 553C320 510 291 462 255 411L255 411L255-75L146-75L146 274C129 255 110 236 89 216L89 216L33 317C66 350 104 395 147 453C189 511 223 564 248 613L248 613ZM847 351L948 294C906 221 858 161 805 114C752 66 690 26 619-6C548-38 460-68 355-96L355-96L309 12C392 31 463 52 522 75C581 98 631 124 674 153L674 153L605 153L605 403L714 403L714 183C766 227 810 283 847 351L847 351ZM398 88L310 163C342 199 372 236 399 275C426 313 447 349 463 383L463 383L560 326C541 289 517 250 488 207C458 164 428 124 398 88L398 88Z"/>
    <glyph glyph-name="" unicode="&#24465;"
      horiz-adv-x="1000" vert-adv-y="1172"
      d="M250 847L342 775C271 678 189 586 98 497L98 497L28 604C63 632 102 669 143 716C184 762 219 806 250 847L250 847ZM352 686L352 794L941 794L941 686L352 686ZM327 485C308 455 286 423 261 390L261 390L261-84L141-84L141 246C115 218 90 194 67 173L67 173L23 293C58 324 100 370 149 433C198 495 234 548 258 592L258 592L355 531C350 522 346 516 345 515L345 515C378 561 411 613 444 672L444 672L547 633C514 577 484 528 455 487L455 487C468 470 484 449 503 423C522 397 537 374 550 355L550 355L450 306C403 380 362 440 327 485L327 485ZM637 668L740 630C715 588 684 540 647 487L647 487C671 458 702 415 741 358L741 358L641 309C596 381 554 440 516 487L516 487C556 537 596 597 637 668L637 668ZM934 358L834 307C798 368 757 427 710 486L710 486C747 531 787 592 831 668L831 668L932 630C914 597 883 550 839 487L839 487C882 432 913 389 934 358L934 358ZM933 181L701 181L701 55L962 55L962-57L308-57L308 55L573 55L573 181L348 181L348 293L933 293L933 181Z"/>
    <glyph glyph-name="" unicode="&#24467;"
      horiz-adv-x="1000" vert-adv-y="1172"
      d="M715 51C763 44 817 41 876 41L876 41C913 41 943 42 966 45L966 45L943-63C916-64 896-65 881-65L881-65C837-65 782-62 715-57L715-57C654-51 602-36 558-13C514 10 477 42 447 83L447 83C421 20 384-37 337-86L337-86L263-10L263-77L155-77L155 252C133 228 111 206 90 187L90 187L25 303C66 335 109 379 156 436C203 492 240 545 268 595L268 595L365 532C340 487 306 437 263 380L263 380L263 7C310 59 344 112 363 167C382 221 394 290 401 375L401 375L509 363C505 311 498 262 488 216L488 216C514 157 550 115 597 89L597 89L597 485L370 485L370 594L516 594C506 618 489 654 466 701C443 748 426 780 416 796L416 796L524 850C535 831 555 796 583 745C610 694 627 660 634 644L634 644L533 594L678 594C697 630 718 674 741 726C764 777 780 818 791 849L791 849L901 799C886 764 857 695 812 594L812 594L945 594L945 485L704 485L704 333L908 333L908 222L704 222L704 53L715 51ZM272 843L365 777C336 734 297 685 248 631C199 577 152 532 107 496L107 496L36 599C79 630 122 669 167 716C211 763 246 805 272 843L272 843Z"/>
    <glyph glyph-name="" unicode="&#24468;"
      horiz-adv-x="1000" vert-adv-y="1172"
      d="M273 846L364 770C335 728 297 681 248 629C199 576 152 532 107 496L107 496L36 600C79 630 122 669 167 716C211 763 246 807 273 846L273 846ZM456 629L353 629L353 737L456 737L456 824L561 824L561 737L724 737L724 824L830 824L830 737L940 737L940 629L830 629L830 560L724 560L724 629L561 629L561 560L456 560L456 629ZM708 50C741 47 791 45 859 45L859 45C891 45 925 46 961 47L961 47L938-61C924-62 899-62 864-62L864-62C795-62 742-61 705-58L705-58C641-53 593-47 560-38C527-29 503-13 486 12L486 12C474 29 465 37 460 37L460 37C455 37 447 29 434 12L434 12C426 2 407-24 377-65L377-65L286 10C297 24 332 64 389 129L389 129C414 158 437 172 458 172L458 172C473 172 486 169 497 162L497 162C546 189 594 221 642 256C690 291 730 324 761 355L761 355L393 355L393 464L608 464C595 499 583 530 570 559L570 559L671 598C693 547 710 502 722 464L722 464L918 464L918 355C826 256 713 163 578 78L578 78C592 69 608 63 627 60C645 56 672 53 708 50L708 50ZM268 596L361 527C336 482 305 435 267 385L267 385L267-76L155-76L155 251C136 231 115 210 90 187L90 187L25 302C66 334 109 379 156 436C202 493 239 546 268 596L268 596Z"/>
    <glyph glyph-name="" unicode="&#24470;"
      horiz-adv-x="1000" vert-adv-y="1172"
      d="M335 554L335 755L579 755C579 755 572 772 559 805L559 805L549 830L668 856C681 827 695 793 709 755L709 755L955 755L955 554L844 554L844 645L446 645L446 554L335 554ZM246 844L340 782C313 738 278 690 235 638C192 586 149 540 108 501L108 501L31 587C68 622 108 664 151 715C194 765 225 808 246 844L246 844ZM248 594L340 534C317 493 290 452 260 411L260 411L260-75L150-75L150 274C128 249 106 227 83 207L83 207L19 307C56 340 99 385 146 443C193 500 227 551 248 594L248 594ZM875 545L875 433L412 433L412 545L875 545ZM940 357L940 246L703 246L703 37C703-6 694-37 675-56C656-75 626-84 583-84L583-84C541-84 508-81 483-75L483-75L460 34C471 31 484 29 499 27C514 25 528 24 539 24L539 24C559 24 573 29 581 39C588 48 592 64 592 85L592 85L592 246L356 246L356 357L940 357ZM377-37L293 42C346 93 401 161 457 246L457 246L554 181C533 150 506 114 474 73C441 32 408-4 377-37L377-37ZM731 177L824 243C879 171 929 102 976 37L976 37L882-34C861-1 836 36 807 77C777 118 752 152 731 177L731 177Z"/>
    <glyph glyph-name="" unicode="&#24474;"
      horiz-adv-x="1000" vert-adv-y="1172"
      d="M913 243L739 243C802 167 881 105 976 57L976 57L920-39C828 15 751 77 689 147L689 147L689-77L584-77L584 150C519 73 437 7 340-49L340-49L282 50C379 101 461 166 529 243L529 243L364 243L364 599L584 599L584 651L350 651L350 754L584 754L584 837L689 837L689 754L940 754L940 651L689 651L689 599L913 599L913 243ZM249 827L341 770C314 729 277 682 230 629C183 576 138 531 95 496L95 496L35 589C71 618 110 657 152 704C194 751 226 792 249 827L249 827ZM252 586L346 534C322 490 292 443 256 394L256 394L256-74L153-74L153 272C128 247 106 225 87 207L87 207L29 308C66 341 106 385 150 439C193 492 227 541 252 586L252 586ZM584 500L461 500L461 340L584 340L584 500ZM689 340L815 340L815 500L689 500L689 340ZM581 385L523 348C500 393 480 428 461 455L461 455L520 490L543 450C548 441 554 432 560 421C566 410 573 398 581 385L581 385ZM752 348L695 379C719 413 739 449 754 488L754 488L814 459C800 428 779 391 752 348L752 348Z"/>
    <glyph glyph-name="" unicode="&#24475;"
      horiz-adv-x="1000" vert-adv-y="1172"
      d="M255 846L350 781C320 736 283 689 239 640C194 591 150 548 105 512L105 512L41 616C84 649 124 687 163 728C202 769 232 809 255 846L255 846ZM864 480L951 480L951 373L887 373L887 48C887 1 877-33 857-53C837-73 802-83 753-83L753-83C722-83 690-79 657-72L657-72L635 29C660 22 688 19 719 19L719 19C742 19 757 24 766 33C774 42 778 58 778 80L778 80L778 373L342 373L342 480L402 480L366 545C419 561 459 577 488 593C516 608 537 627 550 650L550 650L375 650L375 755L575 755C577 773 578 799 578 833L578 833L697 833C697 814 696 788 694 755L694 755L912 755L912 650L705 650L904 541L864 480ZM266 617L360 556C337 512 307 465 268 414L268 414L268-72L162-72L162 288C133 257 105 230 77 206L77 206L33 327C71 360 113 405 160 462C206 519 241 570 266 617L266 617ZM635 571C606 539 560 509 496 480L496 480L790 480C743 509 692 540 635 571L635 571ZM371 38L371 326L701 326L701 38L371 38ZM468 224L468 138L605 138L605 224L468 224Z"/>
    <glyph glyph-name="" unicode="&#24477;"
      horiz-adv-x="1000" vert-adv-y="1172"
      d="M262 841L358 777C331 734 294 685 245 629C196 572 150 524 105 484L105 484L33 582C71 614 113 656 160 709C206 761 240 805 262 841L262 841ZM695 604L900 604L900 48L956 48L956-50L311-50L311 48L380 48L380 604L583 604L583 658L357 658L357 762L583 762L583 829L695 829L695 762L930 762L930 658L695 658L695 604ZM268 603L366 548C337 495 303 443 265 391L265 391L265-70L155-70L155 258C135 236 111 212 82 186L82 186L24 291C65 327 110 376 159 437C207 498 243 554 268 603L268 603ZM493 462L788 462L788 504L493 504L493 462ZM493 366L493 324L788 324L788 366L493 366ZM493 187L788 187L788 228L493 228L493 187ZM788 48L788 90L493 90L493 48L788 48Z"/>
    <glyph glyph-name="" unicode="&#24478;"
      horiz-adv-x="1000" vert-adv-y="1172"
      d="M247 837L345 772C319 730 282 681 234 626C186 570 140 521 95 479L95 479L27 583C63 615 103 657 148 708C193 759 226 802 247 837L247 837ZM400 403L321 472C300 441 280 412 261 386L261 386L261-82L146-82L146 246C120 217 93 190 65 165L65 165L27 288C65 321 107 368 153 428C198 487 234 542 259 593L259 593L352 534C415 620 457 716 476 822L476 822L588 811C580 765 569 721 555 679L555 679C570 665 591 643 620 613L620 613L635 597C656 631 673 666 686 701C699 736 709 777 718 822L718 822L837 810C828 763 817 721 804 683L804 683C883 598 934 541 957 512L957 512L881 420C841 471 800 521 759 568L759 568C740 527 717 486 688 444L688 444L607 508L587 486C560 518 535 547 512 572L512 572C484 513 447 457 400 403L400 403ZM714 58C751 55 792 54 837 54L837 54C884 54 927 55 968 58L968 58L947-54C912-57 873-59 829-59L829-59C786-59 749-57 719-54L719-54C653-49 599-35 556-13C513 8 476 41 447 85L447 85C430 36 401-20 362-85L362-85L266-6C305 49 334 105 353 164C372 222 383 296 386 385L386 385L501 381C497 323 492 274 485 234L485 234C508 169 544 122 592 93L592 93L592 425L710 425L710 318L930 318L930 215L710 215L710 58L714 58Z"/>
    <glyph glyph-name="" unicode="&#24479;"
      horiz-adv-x="1000" vert-adv-y="1172"
      d="M236 853L330 783C303 740 266 692 221 637C176 582 133 534 93 495L93 495L30 597C65 628 102 669 143 720C183 771 214 815 236 853L236 853ZM356 445L356 800L922 800L922 50C922 17 917-8 908-27C899-46 884-59 863-67C842-76 812-80 775-81L775-81C749-81 723-79 698-74L698-74L677 20C700 13 728 10 761 10L761 10C784 10 799 15 807 25C815 34 819 51 819 76L819 76L819 693L459 693L459 407C459 317 456 245 451 191C445 137 435 90 421 49C406 8 385-37 356-85L356-85L254-30C284 19 306 63 320 100C333 137 343 180 348 231C353 282 356 353 356 445L356 445ZM795 363L483 363L483 460L587 460L587 519L497 519L497 614L587 614L587 675L688 675L688 614L781 614L781 519L688 519L688 460L795 460L795 363ZM236 607L333 551C306 500 276 451 244 404L244 404L244-76L136-76L136 262C122 245 101 222 72 192L72 192L23 306C71 356 111 403 143 448C174 492 205 545 236 607L236 607ZM501 49L501 315L766 315L766 49L501 49ZM589 227L589 137L678 137L678 227L589 227Z"/>
    <glyph glyph-name=" " unicode="&#24480;"
      horiz-adv-x="1000" vert-adv-y="1172"
      d="M258 844L355 777C330 738 294 693 247 640C200 587 156 542 114 504L114 504L47 606C81 636 119 675 162 723C205 771 237 811 258 844L258 844ZM680 386L680 358C713 305 756 254 807 205C858 156 913 113 971 75L971 75L904-32C813 29 739 99 680 177L680 177L680-83L567-83L567 178C513 108 437 38 338-33L338-33L269 71C332 111 390 156 441 205C492 254 534 307 567 364L567 364L567 619L345 619L345 732L567 732L567 835L680 835L680 732L933 732L933 619L680 619L680 408C701 439 717 468 730 498C742 527 754 561 766 602L766 602L862 575C855 549 847 523 838 497L838 497C894 438 934 395 958 367L958 367L890 290C860 329 829 365 796 400L796 400C780 371 764 344 747 320L747 320L680 386ZM258 606L351 544C329 503 300 458 265 409L265 409L265-83L152-83L152 270C127 242 104 219 84 200L84 200L28 307C62 340 102 386 149 446C195 506 231 559 258 606L258 606ZM414 600L512 581C505 550 496 516 483 479L483 479C502 461 529 433 565 394L565 394L499 315C484 334 464 355 441 380L441 380C422 341 400 303 376 268L376 268L288 324C346 405 388 497 414 600L414 600Z"/>
    <glyph glyph-name="¢" unicode="&#24482;"
      horiz-adv-x="1000" vert-adv-y="1172"
      d="M251 846L349 781C318 737 280 689 233 636C186 583 142 536 101 497L101 497L30 590C71 624 112 665 153 713C194 760 226 805 251 846L251 846ZM721 44C771 41 840 39 928 39L928 39L962 39L942-57C932-58 915-58 890-58L890-58C831-58 770-56 709-52L709-52C650-49 599-39 556-24C513-9 474 15 441 47L441 47C417 0 380-44 330-85L330-85L260-26L260-75L154-75L154 270C127 240 102 213 78 189L78 189L29 300C66 334 106 379 149 435C192 491 224 542 247 588L247 588L339 537C314 491 287 448 260 407L260 407L260-1C301 32 331 66 348 102C365 138 375 184 378 239L378 239L489 227C487 199 483 173 477 149L477 149C503 118 536 93 575 76L575 76L575 253L368 253L368 347L575 347L575 392L347 392L347 482L575 482L575 528L374 528L374 622L575 622L575 667L360 667L360 764L575 764L575 838L679 838L679 764L926 764L926 667L679 667L679 622L896 622L896 486L954 486L954 389L896 389L896 253L679 253L679 205L913 205L913 111L679 111L679 48C688 47 702 45 721 44L721 44ZM793 482L793 528L679 528L679 482L793 482ZM793 347L793 392L679 392L679 347L793 347Z"/>
    <glyph glyph-name="£" unicode="&#24483;"
      horiz-adv-x="1000" vert-adv-y="1172"
      d="M257 847L354 781C326 738 289 691 244 642C198 593 152 549 105 512L105 512L40 616C83 649 125 687 164 728C203 769 234 809 257 847L257 847ZM823 628L823 539L956 539L956 432L336 432L336 516C318 484 294 448 264 407L264 407L264-74L152-74L152 272C125 243 99 216 73 193L73 193L27 310C66 345 108 390 154 447C199 504 234 555 258 602L258 602L355 551L349 539L462 539L462 628L376 628L376 732L462 732L462 831L575 831L575 732L710 732L710 831L823 831L823 732L914 732L914 628L823 628ZM710 539L710 628L575 628L575 539L710 539ZM497-37L497-76L384-76L384 381L901 381L901-73L789-73L789-37L497-37ZM497 217L789 217L789 279L497 279L497 217ZM789 124L497 124L497 63L789 63L789 124Z"/>
    <glyph glyph-name="¤" unicode="&#24484;"
      horiz-adv-x="1000" vert-adv-y="1172"
      d="M207 845L299 798C275 753 242 701 200 642C157 583 117 535 80 497L80 497L38 612C70 646 102 684 133 727C164 770 189 809 207 845L207 845ZM762 771L910 771L910 632L953 632L953 545L910 545L910 406L762 406L762 357L906 357L906 269L762 269L762 223L935 223L935 134L762 134L762 66L670 66L670 134L514 134L514 223L670 223L670 269L547 269L547 357L670 357L670 406L559 406L559 494L670 494L670 545L532 545L532 632L670 632L670 683L560 683L560 771L670 771L670 838L762 838L762 771ZM652 57C715 52 794 49 891 49L891 49L945 50L927-46L872-47C785-47 708-44 641-39L641-39C550-33 474-2 412 53L412 53C391 14 361-29 324-77L324-77L241-6C283 38 318 85 345 134L345 134C309 191 283 262 266 347L266 347L359 368C368 325 380 287 395 252L395 252C409 301 418 354 422 409L422 409L294 409L294 505L415 682L305 682L305 782L521 782L521 681L401 505L515 505L515 405C508 351 500 304 492 264C483 223 471 185 458 150L458 150C509 93 574 62 652 57L652 57ZM817 632L817 683L762 683L762 632L817 632ZM207 594L300 547C281 505 256 459 225 408L225 408L225-70L127-70L127 266C100 233 78 207 61 188L61 188L28 307C57 340 88 384 123 439C157 494 185 545 207 594L207 594ZM762 545L762 494L817 494L817 545L762 545Z"/>
    <glyph glyph-name="¥" unicode="&#24485;"
      horiz-adv-x="1000" vert-adv-y="1172"
      d="M237 843L337 785C308 740 271 690 228 637C185 584 143 537 102 497L102 497L32 586C69 623 107 665 146 714C185 762 215 805 237 843L237 843ZM398 436L398 813L880 813L880 436L398 436ZM506 671L773 671L773 715L506 715L506 671ZM236 590L333 547C312 507 286 463 255 416L255 416L255-71L149-71L149 274C127 249 107 227 88 208L88 208L23 300C59 336 98 383 141 440C183 497 215 547 236 590L236 590ZM773 577L506 577L506 532L773 532L773 577ZM707 47C763 42 822 40 883 40L883 40C920 40 945 41 960 42L960 42L937-65L889-66C841-66 780-64 707-60L707-60C650-57 601-44 560-23C519-2 483 28 454 67L454 67C433 27 397-20 348-74L348-74L257-7C292 28 319 58 338 84C356 109 370 137 379 167C388 196 395 234 400 281L400 281L508 267C504 236 500 210 495 190L495 190C520 141 552 105 591 82L591 82L591 292L337 292L337 393L935 393L935 292L699 292L699 224L889 224L889 122L699 122L699 48L707 47Z"/>
    <glyph glyph-name="¦" unicode="&#24486;"
      horiz-adv-x="1000" vert-adv-y="1172"
      d="M598 222L598 113L420 113L420-75L317-75L317 763C292 720 260 675 219 627C178 578 136 535 94 498L94 498L40 602C75 633 111 670 148 715C185 760 214 799 235 833L235 833L317 770L317 806L607 806L607 490L420 490L420 412L581 412L581 304L420 304L420 222L598 222ZM640 695L640 805L915 805L915 491L639 491L639 603L811 603L811 695L640 695ZM420 598L505 598L505 696L420 696L420 598ZM213 570L302 515C282 475 261 437 239 402L239 402L239-75L135-75L135 261C110 232 86 206 62 183L62 183L17 297C53 332 88 374 123 423C158 472 188 521 213 570L213 570ZM828 124C864 90 913 58 976 28L976 28L917-82C854-47 800-5 755 46L755 46C704 0 639-44 562-85L562-85L499 12C582 54 646 94 691 133L691 133C658 186 632 250 613 325L613 325L603 325L603 432L925 432L925 322C902 245 869 179 828 124L828 124ZM822 325L714 325C725 280 741 241 761 207L761 207C787 240 807 280 822 325L822 325Z"/>
    <glyph glyph-name="§" unicode="&#24487;"
      horiz-adv-x="1000" vert-adv-y="1172"
      d="M453 428L921 428L921 32C921-6 914-33 900-50C886-67 863-75 830-75L830-75C821-75 806-74 786-71L786-71L774-19L692-19L692 135L646 135L646-19L557-19L557 135L511 135L511-73L417-73L417 163C396 80 365 3 324-67L324-67L260-28L260-77L154-77L154 269C135 246 110 220 79 189L79 189L30 300C66 333 106 378 149 434C192 489 224 540 247 587L247 587L339 536C314 490 287 447 260 406L260 406L260 56C293 119 315 187 328 259C341 331 347 418 347 521L347 521L347 751L580 751L546 834L658 858L671 828C686 793 697 768 703 751L703 751L914 751L914 486L454 486L453 428ZM251 845L349 781C318 736 280 687 233 634C186 581 142 535 101 497L101 497L31 590C71 624 112 665 153 713C194 760 226 804 251 845L251 845ZM454 584L804 584L804 654L454 654L454 584ZM557 330L511 330L511 231L557 231L557 330ZM692 330L646 330L646 231L692 231L692 330ZM781 330L781 231L826 231L826 330L781 330ZM799 16C808 16 815 20 820 27C824 34 826 42 826 53L826 53L826 135L781 135L781 17L799 16Z"/>
    <glyph glyph-name="©" unicode="&#24489;"
      horiz-adv-x="1000" vert-adv-y="1172"
      d="M963 15L926-87C806-56 713-26 646 3L646 3C560-32 454-61 327-86L327-86L294 9C377 20 456 38 532 62L532 62C496 85 464 109 435 136L435 136C401 105 369 80 340 60L340 60L280 145C339 184 396 237 451 306L451 306L388 306L388 534C389 535 384 530 375 518L375 518L296 594C323 625 352 665 381 716C410 767 431 813 446 855L446 855L559 826C552 809 544 791 535 772L535 772L945 772L945 679L485 679L455 629L901 629L901 306L578 306C567 288 557 274 548 263L548 263L901 263L901 183C866 136 819 95 762 60L762 60C824 41 891 26 963 15L963 15ZM246 852L344 787C314 744 276 695 230 642C184 588 140 541 99 502L99 502L27 597C67 631 107 672 148 719C189 766 221 811 246 852L246 852ZM241 580L332 525C309 482 283 440 256 400L256 400L256-85L149-85L149 262C124 233 99 207 74 182L74 182L26 294C61 327 99 371 142 427C185 482 218 533 241 580L241 580ZM497 500L794 500L794 548L497 548L497 500ZM794 431L497 431L497 384L794 384L794 431ZM763 181L526 181C559 154 599 129 645 106L645 106C696 130 736 155 763 181L763 181Z"/>
    <glyph glyph-name="«" unicode="&#24491;"
      horiz-adv-x="1000" vert-adv-y="1172"
      d="M867 767L867 624L958 624L958 539L333 539L338 536C315 492 287 447 256 402L256 402L256-78L150-78L150 267C132 246 108 220 79 191L79 191L23 293C58 326 97 371 142 430C186 489 220 542 243 589L243 589L332 539L332 624L473 624L486 676L383 676L383 767L508 767L528 847L631 829L616 767L867 767ZM249 845L342 781C312 737 274 688 228 635C182 582 139 535 98 496L98 496L34 595C75 630 115 670 154 716C193 761 225 804 249 845L249 845ZM758 624L758 676L595 676L583 624L758 624ZM934 262L934 176L704 176L704 112L946 112L946 22L704 22L704-79L597-79L597 22L344 22L344 113L379 171L481 158L456 112L597 112L597 176L325 176L325 262L597 262L597 302L381 302L381 504L896 504L896 302L704 302L704 262L934 262ZM785 381L785 423L490 423L490 381L785 381Z"/>
    <glyph glyph-name="¬" unicode="&#24492;"
      horiz-adv-x="1000" vert-adv-y="1172"
      d="M333 411L333 527C310 487 285 446 257 404L257 404L257-74L153-74L153 270C126 240 101 213 77 189L77 189L29 300C65 335 105 380 148 436C191 491 223 542 246 587L246 587L333 539L333 569L459 569C456 596 452 625 447 657L447 657L349 657L349 759L570 759C559 792 549 818 540 837L540 837L658 859C672 826 685 792 696 759L696 759L922 759L922 657L805 657C801 628 796 599 789 569L789 569L928 569L928 411L828 411L828 470L432 470L432 411L333 411ZM250 843L351 783C320 738 281 689 234 636C187 582 142 536 101 497L101 497L31 590C72 624 112 665 153 712C194 759 226 802 250 843L250 843ZM701 657L550 657C552 647 557 618 564 569L564 569L683 569C690 601 696 630 701 657L701 657ZM939 379L939 280L559 280C558 265 556 248 553 229L553 229L871 229C870 196 869 167 867 142C864 117 860 85 855 47L855 47C848 4 835-28 815-47C794-67 763-77 720-77L720-77C663-77 617-74 581-67L581-67L560 32C597 25 639 22 688 22L688 22C705 22 719 26 728 34C737 41 743 53 748 70L748 70C752 86 755 105 756 128L756 128L530 128C515 84 491 44 460 7C428-30 384-65 329-99L329-99L265-2C323 29 365 60 392 93C419 126 436 169 443 223L443 223C444 229 446 248 450 280L450 280L343 280L343 379L579 379C564 412 555 433 550 441L550 441L662 467C670 451 683 422 700 379L700 379L939 379Z"/>
    <glyph glyph-name="¯" unicode="&#24495;"
      horiz-adv-x="1000" vert-adv-y="1172"
      d="M253 846L348 782C318 738 280 689 234 636C187 583 143 536 101 497L101 497L30 590C71 625 113 666 155 714C196 761 229 805 253 846L253 846ZM367 660L427 699L367 696L356 785C435 788 527 793 634 802C740 811 831 820 908 829L908 829L922 739C891 735 864 732 839 731L839 731L915 678C892 642 859 599 816 549L816 549L742 610C783 661 813 701 831 730L831 730L789 726L655 714C685 662 707 622 721 594L721 594L639 549C630 566 619 589 604 616C589 643 576 665 567 680L567 680L634 713C591 709 548 706 505 704L505 704C494 703 477 701 454 700L454 700C467 683 482 664 499 641C515 618 525 602 530 593L530 593L451 538C434 564 406 605 367 660L367 660ZM937 117L713 117C738 93 770 73 810 57C850 41 900 28 960 18L960 18L924-81C792-55 693-4 627 73L627 73C602 38 566 8 519-16C472-41 407-63 326-84L326-84L285 14C358 29 413 44 452 60C490 75 518 94 535 117L535 117L327 117L327 203L570 203C573 220 575 238 576 259L576 259L510 254L375 242L358 327C375 329 389 332 401 335C412 338 425 342 439 348L439 348C470 362 510 383 558 412L558 412L475 406L383 395L369 472C393 475 411 480 423 486L423 486C439 495 462 510 492 534C521 557 549 580 574 603L574 603L636 538C610 514 584 494 559 478L559 478L676 488C715 515 748 539 775 562L775 562L837 494C785 455 739 423 698 399C657 374 615 352 572 334L572 334L776 347C754 372 742 386 740 388L740 388L811 444C879 369 924 318 947 291L947 291L873 230C862 245 849 260 836 275L836 275C797 274 747 271 686 267L686 267C685 249 682 228 678 203L678 203L937 203L937 117ZM246 584L340 538C319 498 292 454 260 407L260 407L260-82L154-82L154 270C127 240 102 213 78 189L78 189L29 300C66 335 105 379 148 434C190 488 223 538 246 584L246 584Z"/>
    <glyph glyph-name="°" unicode="&#24496;"
      horiz-adv-x="1000" vert-adv-y="1172"
      d="M239 843L337 790C308 744 273 694 230 640C187 585 146 538 106 499L106 499L38 592C74 628 111 670 150 717C188 764 218 806 239 843L239 843ZM512 661L512 503L602 503L602 712L362 712L362 812L920 812L920 712L706 712L706 656L891 656L891 559L706 559L706 503L938 503L938 402L331 402L331 503L406 503L406 661L512 661ZM231 587L321 535C301 494 277 452 250 408L250 408L250-80L144-80L144 262C125 240 107 220 90 203L90 203L28 296C62 333 99 379 139 436C179 492 210 542 231 587L231 587ZM891 103L706 103L706 47L945 47L945-54L308-54L308 47L406 47L406 204L512 204L512 47L602 47L602 256L354 256L354 356L920 356L920 256L706 256L706 199L891 199L891 103Z"/>
    <glyph glyph-name="±" unicode="&#24497;"
      horiz-adv-x="1000" vert-adv-y="1172"
      d="M241 840L337 785C307 738 271 689 229 637C186 584 145 538 105 499L105 499L34 590C73 627 111 669 150 716C189 762 219 803 241 840L241 840ZM351 409L351 657L501 657L501 710L342 710L342 805L921 805L921 710L760 710L760 657L911 657L911 409L351 409ZM603 710L603 657L659 657L659 710L603 710ZM232 584L326 538C302 491 277 448 250 409L250 409L250-77L145-77L145 270C127 249 106 227 83 204L83 204L19 297C56 335 96 382 138 438C180 493 211 542 232 584L232 584ZM507 498L507 566L449 566L449 498L507 498ZM659 498L659 566L603 566L603 498L659 498ZM754 566L754 498L812 498L812 566L754 566ZM378 369L884 369L884 284L378 284L378 369ZM935 154L805 154C877 82 927 32 954 3L954 3L874-66C857-45 833-19 804 12C775 43 748 70 724 94L724 94L790 154L688 154L688 33C688-8 679-37 662-54C644-72 613-81 570-82L570-82C540-82 510-79 481-74L481-74L463 22C482 15 507 11 538 11L538 11C558 11 572 15 579 24C586 33 590 47 590 66L590 66L590 154L455 154L521 102C485 57 429 0 353-68L353-68L280 4C309 27 338 52 365 79C392 106 414 131 432 154L432 154L331 154L331 245L935 245L935 154Z"/>
    <glyph glyph-name="²" unicode="&#24498;"
      horiz-adv-x="1000" vert-adv-y="1172"
      d="M242 829L332 764C306 720 271 673 228 624C185 574 141 530 97 493L97 493L41 597C77 627 114 665 153 710C192 755 221 794 242 829L242 829ZM753 124L957 124L957 26L753 26L753-77L655-77L655 26L437 26L437 124L524 124L445 164C462 189 476 214 488 238C499 261 510 288 520 317L520 317C501 308 489 302 483 298L483 298L455 372C497 391 545 410 600 431L600 431L474 488L504 560L455 560L455 514C455 409 453 327 449 268C444 209 435 153 422 102C408 51 386-9 357-77L357-77L254-34C285 29 307 84 320 131C333 178 342 228 346 282C350 335 352 413 352 514L352 514L352 802L926 802L926 560L506 560C561 539 607 519 644 501L644 501L617 438L618 438L631 397L644 365C609 353 570 338 529 321L529 321L610 294L600 262L655 262L655 315L753 315L753 262L917 262L917 171L753 171L753 124ZM822 657L822 705L455 705L455 657L822 657ZM220 566L312 510C295 473 272 434 245 393L245 393L245-75L142-75L142 260C117 232 91 205 64 179L64 179L16 291C53 327 90 369 126 418C162 467 193 516 220 566L220 566ZM760 369L785 433L759 499C797 514 844 534 900 560L900 560L932 486C886 464 843 446 804 433L804 433C855 414 905 393 954 371L954 371L919 300C874 321 821 344 760 369L760 369ZM653 535L753 535L753 334L653 334L653 535ZM534 124L655 124L655 171L561 171C552 154 543 138 534 124L534 124Z"/>
    <glyph glyph-name="³" unicode="&#24499;"
      horiz-adv-x="1000" vert-adv-y="1172"
      d="M233 851L329 796C301 748 267 696 226 641C185 586 146 538 108 497L108 497L35 588C70 626 107 670 145 720C183 770 212 814 233 851L233 851ZM911 297L629 297C650 266 679 222 716 164L716 164L632 108C612 143 583 189 544 245L544 245L619 297L324 297L324 616L564 616L564 669L321 669L321 768L564 768L564 839L674 839L674 768L932 768L932 669L674 669L674 616L911 616L911 297ZM248 411L248 57C283 127 311 192 331 252L331 252L425 222C404 148 371 68 328-17L328-17L248 21L248-78L139-78L139 268C122 249 103 228 80 205L80 205L16 300C51 336 90 383 133 442C176 500 208 551 230 595L230 595L320 536C303 501 279 459 248 411L248 411ZM488 393L488 519L428 519L428 393L488 393ZM587 393L650 393L650 519L587 519L587 393ZM747 519L747 393L808 393L808 519L747 519ZM976 32L879-15C860 32 837 83 811 138L811 138C811 123 809 93 806 46L806 46C804 18 799-4 790-19C781-34 769-45 752-51C735-58 711-62 680-63L680-63C648-64 624-65 608-65L608-65C591-65 567-64 535-63L535-63C509-62 488-58 473-51C457-44 445-33 438-16C430 1 426 25 426 56L426 56L426 245L533 245L533 81C533 64 536 53 542 47C548 41 559 38 574 37L574 37C585 36 600 36 620 36L620 36C640 36 655 36 665 37L665 37C682 38 693 41 700 47C706 53 709 64 710 79L710 79L713 162L809 141C804 152 793 175 776 209L776 209L869 255C904 187 940 113 976 32L976 32Z"/>
    <glyph glyph-name="´" unicode="&#24500;"
      horiz-adv-x="1000" vert-adv-y="1172"
      d="M981 1L905-80C856-26 816 27 785 79L785 79C754 27 713-28 662-86L662-86L591-11L254-11L254 93L396 93L396 174L285 174L285 278L396 278L396 348L280 348L280 451L597 451L586 469C594 482 600 493 604 501L604 501L270 501L270 529C254 494 236 460 217 426L217 426L217-75L120-75L120 279C103 258 86 238 69 219L69 219L24 321C51 350 83 392 119 449C154 506 182 555 201 597L201 597L270 564L270 756C245 712 216 668 184 625C152 581 120 543 89 512L89 512L31 603C62 635 93 672 125 715C156 757 182 798 201 837L201 837L286 784L276 767L359 767L359 598L399 598L399 840L492 840L492 598L529 598L529 767L620 767L620 535C641 582 661 634 678 690C695 746 706 796 711 839L711 839L808 825C799 778 790 736 780 699L780 699L962 699L962 596L923 596C916 508 907 431 894 366C881 300 862 240 839 185L839 185C873 124 920 63 981 1L981 1ZM827 596L748 596L737 565C746 463 762 379 784 312L784 312C805 385 819 479 827 596L827 596ZM622 93L622 29C669 81 705 132 732 182L732 182C702 253 681 330 668 414L668 414C659 397 651 384 646 375L646 375L606 438L606 348L493 348L493 278L598 278L598 174L493 174L493 93L622 93Z"/>
    <glyph glyph-name="¶" unicode="&#24502;"
      horiz-adv-x="1000" vert-adv-y="1172"
      d="M981 9L908-84C866-33 831 19 803 72L803 72C776 24 739-26 694-78L694-78L647-24C642-39 633-50 622-57C611-64 595-67 574-67L574-67C556-67 542-65 532-62L532-62L511 35C520 32 529 30 539 30L539 30C551 30 559 33 563 38C566 43 568 51 568 63L568 63L568 136L525 126C524 145 514 197 496 282L496 282L496-47L426-47L426 281L394 116L353 128L353-64L268-64L268 519C253 489 235 458 215 425L215 425L215-76L123-76L123 288C106 266 87 242 64 216L64 216L20 322C51 361 84 406 118 459C151 512 177 559 194 600L194 600L268 561L268 570L417 570L417 618L340 584C333 604 310 661 270 754L270 754C211 666 147 590 77 525L77 525L33 631C63 657 94 689 126 728C157 766 185 805 208 844L208 844L290 785L286 778L344 804C353 785 364 760 378 729C392 697 405 667 417 638L417 638L417 826L505 826L505 627C538 688 566 748 589 806L589 806L673 767C649 713 619 651 582 582L582 582L505 617L505 570L653 570L653 533C670 575 686 623 700 676C714 729 724 779 730 826L730 826L826 818C818 767 810 722 801 685L801 685L953 685L953 577L921 577C914 490 906 416 897 355C887 293 873 237 855 187L855 187C885 127 927 68 981 9L981 9ZM835 577L771 577L764 557C773 470 786 395 802 333L802 333C817 398 828 480 835 577L835 577ZM383 399L426 389L426 469L353 469L353 229C366 291 376 348 383 399L383 399ZM496 387L540 397C545 371 554 323 568 254L568 254L568 469L496 469L496 387ZM653 453L653 38C694 85 727 135 753 190L753 190C730 258 713 332 702 412L702 412L686 384L653 453Z"/>
    <glyph glyph-name="¸" unicode="&#24504;"
      horiz-adv-x="1000" vert-adv-y="1172"
      d="M328 615L467 615C459 651 455 669 455 669L455 669L354 669L354 769L574 769C568 783 559 804 546 831L546 831L669 856C678 836 691 807 708 769L708 769L910 769L910 669L806 669C803 652 800 634 795 615L795 615L943 615L943 523L328 523L328 615ZM241 851L333 787C306 743 271 695 229 643C186 590 144 543 103 502L103 502L33 594C68 628 106 670 146 720C186 769 218 813 241 851L241 851ZM571 615L694 615C695 622 699 640 704 669L704 669L559 669C567 633 571 615 571 615L571 615ZM232 583L322 526C304 489 282 452 257 414L257 414L257-80L151-80L151 270C129 244 106 219 81 194L81 194L17 287C52 324 92 371 135 430C178 489 210 540 232 583L232 583ZM900 57L688 57L688 22L946 22L946-65L307-65L307 22L583 22L583 57L368 57L368 142L583 142L583 182L366 182L366 486L902 486L902 182L688 182L688 142L900 142L900 57ZM473 368L583 368L583 405L473 405L473 368ZM688 405L688 368L794 368L794 405L688 405ZM583 299L473 299L473 262L583 262L583 299ZM794 299L688 299L688 262L794 262L794 299Z"/>
    <glyph glyph-name="¹" unicode="&#24505;"
      horiz-adv-x="1000" vert-adv-y="1172"
      d="M848 179C881 125 924 74 975 27L975 27L913-81C862-32 821 18 788 67L788 67C758 20 718-30 669-85L669-85L614-12C611-37 602-54 589-65C575-76 554-81 527-81L527-81C509-81 484-80 452-77L452-77L434 20C457 17 475 16 488 16L488 16C508 16 518 27 518 49L518 49L518 89L400 89L400-78L303-78L303 437L616 437L616 29C663 75 701 123 730 173L730 173C705 230 685 297 670 376L670 376L667 370L600 461L606 473L569 453L553 487L384 468C362 465 345 463 332 461L332 461L308 458L292 523C277 489 255 450 228 407L228 407L228-84L123-84L123 258C100 228 77 202 55 179L55 179L28 308C55 341 86 384 121 439C155 494 181 541 199 580L199 580L289 536L284 554C299 559 312 569 323 584L323 584C336 605 350 629 363 657L363 657L286 657L286 753L411 753L384 834L486 852C499 819 510 786 520 753L520 753L651 753L651 657L566 657C587 620 609 578 632 530L632 530C652 578 669 630 684 685C699 740 709 791 715 838L715 838L819 830C810 775 799 725 788 682L788 682L967 682L967 576L932 576C925 490 916 416 903 353C890 290 871 232 848 179L848 179ZM205 848L295 793C269 746 235 695 194 638C153 581 113 534 74 496L74 496L30 613C62 646 94 684 126 727C158 770 184 810 205 848L205 848ZM409 553L512 569C506 581 496 599 483 622L483 622L558 657L468 657C448 615 428 580 409 553L409 553ZM739 525C748 444 764 370 789 303L789 303C814 378 831 469 840 576L840 576L757 576L739 525ZM400 302L518 302L518 352L400 352L400 302ZM518 223L400 223L400 169L518 169L518 223Z"/>
    <glyph glyph-name="º" unicode="&#24506;"
      horiz-adv-x="1000" vert-adv-y="1172"
      d="M253 843L348 782C318 738 280 689 233 636C186 583 142 536 101 497L101 497L30 590C71 625 113 666 155 713C196 760 229 803 253 843L253 843ZM339 547L339 635L576 635L576 677L378 677L378 765L576 765L576 838L680 838L680 765L895 765L895 677L680 677L680 635L943 635L943 547L339 547ZM249 590L339 537C318 497 291 453 259 406L259 406L259-74L155-74L155 272C130 242 104 215 78 190L78 190L29 300C65 334 105 379 148 436C191 492 225 543 249 590L249 590ZM615 486L615 407L535 407L535 368L608 374L610 327L611 287C576 284 529 281 472 276C415 271 367 266 329 263L329 263L326 354L385 357L431 360L431 407L346 407L346 486L431 486L431 530L535 530L535 486L615 486ZM947 280L629 280L629 365L725 365L725 407L642 407L642 486L725 486L725 530L827 530L827 486L913 486L913 407L827 407L827 365L947 365L947 280ZM856 145L957 123C955 85 953 55 950 33L950 33C947 6 943-13 937-26C931-39 921-49 907-54C893-59 871-63 842-66L842-66L802-67C780-67 761-66 745-65L745-65C718-63 698-59 684-52C669-46 659-36 653-22C647-9 644 11 644 36L644 36L644 154L571 154C566 111 555 75 538 47C521 19 494-6 458-27C422-48 371-70 306-92L306-92L263 7C314 20 354 33 381 47C408 61 426 76 438 93C449 109 456 129 460 154L460 154L322 154L322 238L947 238L947 154L750 154L750 62C750 48 753 39 758 35C763 30 774 28 789 27L789 27L810 27C825 28 836 31 842 36C848 41 851 52 852 68L852 68C855 92 856 118 856 145L856 145Z"/>
    <glyph glyph-name="»" unicode="&#24507;"
      horiz-adv-x="1000" vert-adv-y="1172"
      d="M247 849L340 783C309 739 271 690 226 637C181 583 138 536 98 497L98 497L30 590C71 625 111 667 152 715C193 763 224 808 247 849L247 849ZM973 625L925 529L916 534L916 301L358 301L358 532L348 527L298 619C432 688 530 764 592 849L592 849L674 849C735 766 835 692 973 625L973 625ZM633 742C609 714 581 687 549 660L549 660L723 660C689 686 659 713 633 742L633 742ZM391 551L885 551C838 578 800 602 771 624L771 624L771 586L503 586L503 624C471 599 434 575 391 551L391 551ZM236 593L329 535C301 482 275 438 251 402L251 402L251-77L150-77L150 267C129 243 107 218 82 193L82 193L23 302C57 334 95 379 138 437C181 494 213 546 236 593L236 593ZM575 409L522 374C506 399 489 424 470 447L470 447L518 480L454 480L454 373L592 373L592 480L523 480C544 454 561 430 575 409L575 409ZM755 373L820 373L820 480L686 480L686 373L753 373L704 406C723 430 741 454 756 479L756 479L807 448C798 431 780 406 755 373L755 373ZM502-44L502-80L393-80L393 262L881 262L881-80L775-80L775-44L502-44ZM502 145L775 145L775 186L502 186L502 145ZM775 70L502 70L502 30L775 30L775 70Z"/>
    <glyph glyph-name="¾" unicode="&#24510;"
      horiz-adv-x="1000" vert-adv-y="1172"
      d="M981-1L914-75C865-18 825 36 795 89L795 89C766 36 725-22 673-83L673-83L619-27L619-39L292-39L292 193L619 193L619 5C676 70 719 131 747 189L747 189C722 248 702 317 689 394L689 394L670 357L604 440L605 442L281 442L281 524L411 524C403 545 397 560 393 567L393 567L478 589L278 589L278 760C252 716 222 672 189 627C156 582 123 544 91 512L91 512L33 602C64 633 95 670 126 712C157 754 183 795 203 835L203 835L292 784L368 784L368 679L409 679L409 840L502 840L502 679L544 679L544 783L633 783L633 589L495 589C509 554 518 533 521 524L521 524L621 524L621 475C645 527 668 589 690 660C712 731 726 791 731 839L731 839L828 825C821 783 811 740 799 695L799 695L960 695L960 595L929 595C922 510 911 434 898 369C885 304 867 244 844 189L844 189C877 124 923 61 981-1L981-1ZM204 601L293 561C272 511 248 463 221 418L221 418L221-71L125-71L125 279C107 257 89 236 71 216L71 216L21 315C52 346 85 391 122 448C158 505 185 556 204 601L204 601ZM753 546C762 453 776 377 794 316L794 316C813 387 828 480 838 595L838 595L770 595C760 567 754 551 753 546L753 546ZM313 334L313 408L597 408L597 334L313 334ZM597 301L597 227L313 227L313 301L597 301ZM389 112L389 48L522 48L522 112L389 112Z"/>
    <glyph glyph-name="¿" unicode="&#24511;"
      horiz-adv-x="1000" vert-adv-y="1172"
      d="M596 666L562 666C558 637 553 609 548 580L548 580L608 580L608 490L285 490L285 532C268 499 247 459 221 413L221 413L221-77L126-77L126 273C111 254 94 233 73 210L73 210L21 308C51 339 85 383 122 440C159 496 189 546 210 589L210 589L285 553L285 580L343 580C340 619 337 647 334 666L334 666L293 666L293 760L403 760C396 783 388 808 378 833L378 833L474 856C487 824 499 792 508 760L508 760L596 760L596 666ZM899 162L899 123L964 110C964 105 962 81 958 38L958 38C955 10 951-11 944-24C937-38 925-48 910-54C894-60 870-64 838-67L838-67C821-68 805-69 790-69L790-69C775-69 759-68 742-67L742-67C710-64 687-59 672-52C657-46 646-35 641-20C635-5 632 18 632 50L632 50L632 503L818 503L818 546L632 546L632 836L730 836L730 765L932 765L932 671L730 671L730 628L917 628L917 421L725 421L725 383L899 383L899 309L725 309L725 273L899 273L899 198L725 198L725 162L899 162ZM204 833L293 782C266 733 235 685 199 637C163 589 127 548 92 515L92 515L34 605C62 632 92 667 123 709C154 750 181 792 204 833L204 833ZM475 666L419 666L422 638C426 612 428 593 429 580L429 580L461 580C468 615 472 643 475 666L475 666ZM395-71L300-71L300 450L588 450L588 28C588-9 582-36 569-51C556-66 532-74 498-74L498-74C485-74 466-72 442-68L442-68L421 26C435 22 449 20 464 20L464 20C475 21 483 24 488 29C493 34 495 43 495 54L495 54L495 106L395 106L395-71ZM395 320L495 320L495 363L395 363L395 320ZM495 234L395 234L395 191L495 191L495 234ZM797 31C824 31 843 34 853 39C862 44 867 55 868 73L868 73L870 87L725 87L725 75C725 58 728 47 735 42C741 37 753 33 771 32L771 32C776 31 785 31 797 31L797 31Z"/>
    <glyph glyph-name="À" unicode="&#24512;"
      horiz-adv-x="1000" vert-adv-y="1172"
      d="M683 775L949 775L949 696L320 696L320 775L565 775C556 800 546 822 537 842L537 842L651 855C662 830 672 803 683 775L683 775ZM232 845L319 788C290 743 255 694 213 641C171 588 131 542 94 504L94 504L31 590C68 625 106 666 144 714C182 761 211 805 232 845L232 845ZM815 64C850 49 902 36 971 23L971 23L924-70C865-54 816-37 778-19C739-1 706 21 679 46C651 71 623 103 596 142L596 142C573 124 552 108 533 95L533 95L533 19L648 61L658-27C620-38 578-52 531-67L531-67L455-96L416-22C431-11 438 2 438 18L438 18L438 37C399 15 356-4 307-21L307-21L266 68C343 93 415 125 481 165L481 165L306 165L306 236L463 236L463 273L345 273L345 341L463 341L463 378L334 378L334 445L463 445L463 480L341 480L341 659L600 659L600 480L562 480L562 445L686 445L686 480L643 480L643 658L906 658L906 480L786 480L786 445L913 445L913 378L786 378L786 341L902 341L902 273L786 273L786 236L950 236L950 165L877 165L917 127C882 106 848 85 815 64L815 64ZM510 546L510 594L432 594L432 546L510 546ZM814 546L814 593L734 593L734 546L814 546ZM225 589L312 543C290 498 265 452 237 407L237 407L237-75L142-75L142 270C123 246 101 219 74 189L74 189L29 301C61 334 96 378 135 434C173 489 203 541 225 589L225 589ZM686 341L686 378L562 378L562 341L686 341ZM686 236L686 273L562 273L562 236L686 236ZM735 111C750 120 777 138 818 165L818 165L682 165C697 144 715 126 735 111L735 111Z"/>
    <glyph glyph-name="Á" unicode="&#24513;"
      horiz-adv-x="1000" vert-adv-y="1172"
      d="M221 846L314 791C287 746 254 696 213 642C172 587 133 540 95 500L95 500L31 593C66 631 101 674 137 721C173 768 201 809 221 846L221 846ZM343 593L343 816L886 816L886 593L343 593ZM441 732L788 732L788 760L441 760L441 732ZM788 682L441 682L441 654L788 654L788 682ZM216 593L304 545C281 499 256 454 229 409L229 409L229-76L133-76L133 273C112 248 92 226 75 207L75 207L17 300C50 337 86 384 126 442C166 500 196 550 216 593L216 593ZM792 147L806 127C789 115 769 103 744 91L744 91L931 30L892-43C858-30 821-15 781 0C741 15 705 28 674 39L674 39L703 101L679 142C701 151 723 163 746 176L746 176C716 196 687 220 659 249L659 249L575 249C545 220 514 194 482 172L482 172C502 164 524 154 548 142L548 142L517 94C524 96 540 101 566 110L566 110L566 225L664 225L664 11C664-23 657-47 642-61C627-76 600-83 561-84L561-84C533-84 507-82 483-77L483-77L464 4C483-1 504-4 529-5L529-5C554-5 566 8 566 33L566 33L566 39C528 27 489 14 450 1C411-12 381-23 361-30L361-30L331 38C336 39 382 53 468 78L468 78L491 85C475 94 451 105 420 118L420 118L437 145C396 121 351 100 302 82L302 82L256 170C327 191 388 217 438 249L438 249L280 249L280 322L522 322C532 333 542 347 553 363L553 363L313 363L313 461L406 461L406 428L564 428L564 478L344 478L344 572L438 572L438 537L564 537L564 577L661 577L661 537L791 537L791 572L885 572L885 478L661 478L661 428L819 428L819 461L913 461L913 363L588 363L652 343L637 322L939 322L939 249L783 249C830 219 888 197 957 182L957 182L925 94C877 107 833 125 792 147L792 147Z"/>
    <glyph glyph-name="Â" unicode="&#24514;"
      horiz-adv-x="1000" vert-adv-y="1172"
      d="M722 51L942 51L942-31L464-31L464-70L358-70L358 206L306 149L252 232L252-76L143-76L143 264C126 245 106 223 83 200L83 200L19 293C55 330 95 378 138 436C181 494 213 544 234 586L234 586L328 540C308 501 283 457 252 410L252 410L252 245C315 311 364 377 399 443L399 443L333 443L333 775C304 730 269 683 228 632C186 581 145 535 105 496L105 496L33 580C70 617 109 660 149 709C188 757 219 800 241 837L241 837L333 783L333 811L608 811L608 445L647 456L647 810L926 810L926 443L692 443L718 394L920 394L920 310L722 310L722 274L900 274L900 199L722 199L722 163L900 163L900 87L722 87L722 51ZM738 705L830 705L830 736L738 736L738 705ZM426 705L519 705L519 735L426 735L426 705ZM426 641L426 610L519 610L519 641L426 641ZM830 641L738 641L738 610L830 610L830 641ZM519 516L519 547L426 547L426 516L519 516ZM830 547L738 547L738 516L830 516L830 547ZM583 438L601 443L464 443L506 426L490 394L606 394L583 438ZM464 310L464 274L617 274L617 310L464 310ZM464 199L464 163L617 163L617 199L464 199ZM617 51L617 87L464 87L464 51L617 51Z"/>
    <glyph glyph-name="Ç" unicode="&#24519;"
      horiz-adv-x="1000" vert-adv-y="1172"
      d="M640 657L920 657C917 558 913 450 908 332C902 214 897 138 893 105L893 105C888 58 879 23 868 0C857-24 839-41 815-52C791-63 755-68 708-69L708-69C673-69 637-66 602-60L602-60L578 54C590 51 606 48 625 46C644 44 660 43 674 43L674 43C701 43 721 46 734 53C747 59 756 69 761 83C766 97 771 118 775 147L775 147C781 186 786 244 789 319C792 394 794 468 795 540L795 540L636 540C631 421 622 328 609 261C595 193 571 133 538 80C504 27 453-31 384-94L384-94L292-11C355 42 401 92 430 137C459 182 480 234 491 293C502 351 510 433 514 540L514 540L421 540L421 657L518 657L523 842L643 842C644 823 643 761 640 657L640 657ZM442 521L371 433C346 458 318 484 286 512L286 512L286-74L175-74L175 840L286 840L286 649L415 543L442 521ZM121 298L20 317C28 358 38 415 49 490C60 564 68 626 74 677L74 677L175 666C165 573 147 450 121 298L121 298Z"/>
    <glyph glyph-name="È" unicode="&#24520;"
      horiz-adv-x="1000" vert-adv-y="1172"
      d="M819 673L160 673L160 785L819 785L819 673ZM931 413L72 413L72 525L931 525L931 413ZM414 323L507 389C560 320 602 262 634 217L634 217L540 145C521 174 500 206 475 241C450 276 430 304 414 323L414 323ZM714 264L817 319C836 286 860 245 889 195C918 144 943 98 965 57L965 57L861-3C843 33 819 78 790 131C761 184 735 228 714 264L714 264ZM135-19L27 37C48 74 70 117 93 168C115 218 133 265 146 310L146 310L256 273C241 228 222 178 200 125C178 72 156 24 135-19L135-19ZM266 56L266 305L379 305L379 101C379 79 382 64 389 57C395 49 407 44 426 43L426 43C470 40 498 39 509 39L509 39C520 39 547 40 591 43L591 43C612 44 627 48 635 55C642 61 646 74 647 93L647 93C648 106 649 122 650 143C651 164 651 182 650 199L650 199L766 167C765 150 764 130 762 108C760 85 758 65 756 46L756 46C752 15 746-8 738-23C730-38 717-48 700-54C683-60 655-65 618-68L618-68C576-71 539-73 507-73L507-73C474-73 437-71 395-68L395-68C348-64 314-53 295-34C276-16 266 14 266 56L266 56Z"/>
    <glyph glyph-name="Ê" unicode="&#24522;"
      horiz-adv-x="1000" vert-adv-y="1172"
      d="M183 842L297 842L297 672C318 657 345 638 378 613C410 588 436 567 455 550L455 550L393 460L327 516L297 541L297-77L183-77L183 842ZM404 782L954 782L954 663L781 663L781 71C781 18 769-20 745-43C721-66 680-78 623-79L623-79C572-79 532-75 503-68L503-68L479 52C507 44 548 40 601 40L601 40C624 40 641 45 651 56C660 66 665 82 665 105L665 105L665 663L404 663L404 782ZM126 293L19 320C28 369 38 428 49 497C59 566 66 627 70 678L70 678L177 662C171 608 163 544 153 471C143 398 134 338 126 293L126 293Z"/>
    <glyph glyph-name="Ë" unicode="&#24523;"
      horiz-adv-x="1000" vert-adv-y="1172"
      d="M431 563L366 476C344 497 317 521 286 548L286 548L286-76L180-76L180 840L286 840L286 676C345 628 394 590 431 563L431 563ZM846 241L965 216C964 175 961 129 956 80L956 80C953 39 947 10 940-8C932-27 919-40 901-47C882-54 853-60 813-63L813-63C758-66 717-68 689-68L689-68C662-68 623-66 572-63L572-63C533-60 503-55 483-46C463-37 449-23 441-2C432 18 428 48 428 89L428 89L428 481L790 481L790 678L424 678L424 793L906 793L906 367L544 367L544 127C544 106 546 91 550 82C553 72 560 65 571 61C582 57 598 54 620 52L620 52C644 49 669 48 694 48L694 48C715 48 737 49 762 51L762 51C784 53 801 56 812 61C823 65 830 72 835 81C839 90 841 104 842 122L842 122C845 161 846 200 846 241L846 241ZM127 297L20 318C28 357 37 411 47 482C57 553 66 618 73 677L73 677L178 664C173 615 166 554 156 481C145 408 136 346 127 297L127 297Z"/>
    <glyph glyph-name="Î" unicode="&#24526;"
      horiz-adv-x="1000" vert-adv-y="1172"
      d="M562 351L440 351L440 465L54 465L54 579L440 579L440 695C325 688 224 682 135 678L135 678L125 794C225 797 347 804 490 815C633 826 751 837 845 848L845 848L865 730C779 721 678 713 562 704L562 704L562 579L945 579L945 465L562 465L562 351ZM643 188L643 189L759 162C757 108 754 67 751 38L751 38C748 10 743-11 734-24C725-38 710-48 691-54C672-61 643-65 604-68L604-68C569-71 532-72 492-72L492-72C455-72 419-71 385-68L385-68C354-65 331-60 314-53C297-46 286-34 279-18C272-3 268 19 268 47L268 47L268 310L393 310L393 94C393 75 396 62 401 56C406 50 418 46 437 45L437 45C470 42 494 41 507 41L507 41C522 41 545 42 577 45L577 45C601 47 617 51 625 57C633 63 637 74 638 91L638 91C639 100 641 114 642 134C643 153 643 171 643 188L643 188L554 115C539 134 518 160 489 194C460 228 435 257 414 281L414 281L495 350C516 328 542 300 573 267C604 233 627 207 643 188L643 188ZM130-16L24 38C45 73 66 116 87 167C108 218 127 268 143 318L143 318L256 281C240 232 220 179 196 122C172 65 150 19 130-16L130-16ZM714 251L810 313C835 278 864 234 898 183C931 132 958 89 978 55L978 55L879-8C813 102 758 188 714 251L714 251Z"/>
    <glyph glyph-name="Ó" unicode="&#24531;"
      horiz-adv-x="1000" vert-adv-y="1172"
      d="M453 560L394 471C373 488 340 516 293 553L293 553L293-76L178-76L178 840L293 840L293 679C366 628 419 588 453 560L453 560ZM723 673L723 436L957 436L957 317L723 317L723-74L607-74L607 317L363 317L363 436L607 436L607 673L413 673L413 790L921 790L921 673L723 673ZM120 293L18 320C28 369 38 429 49 498C59 567 66 628 71 679L71 679L173 662C167 609 159 545 149 472C138 399 129 339 120 293L120 293Z"/>
    <glyph glyph-name="Ô" unicode="&#24532;"
      horiz-adv-x="1000" vert-adv-y="1172"
      d="M832 198L943 173C940 122 937 79 934 44L934 44C933 16 928-5 919-20C910-35 897-46 880-53C863-60 838-65 807-68L807-68C750-73 702-76 662-76L662-76C623-76 574-73 517-68L517-68C478-64 448-54 427-37C406-21 396 6 396 44L396 44C396 124 504 240 721 393L721 393L461 393L461 488C448 469 440 459 439 457L439 457L379 506L349 462C338 471 315 489 282 514L282 514L282-80L174-80L174 837L282 837L282 636L374 566C433 649 479 740 514 839L514 839L626 807C614 774 601 742 587 711L587 711L932 711L932 601L532 601C514 569 494 536 471 503L471 503L877 503L877 393C798 333 731 280 677 233C622 186 582 149 556 121C530 93 517 75 517 66L517 66C517 58 520 53 525 50C530 47 538 45 549 44L549 44C592 40 633 38 670 38L670 38C706 38 744 40 784 44L784 44C801 45 812 49 818 54C824 59 827 70 828 87L828 87C829 98 830 115 832 138C833 161 833 181 832 198L832 198ZM121 289L23 305C33 358 43 418 52 486C61 553 67 613 71 666L71 666L168 658C162 595 154 527 145 453C136 378 128 324 121 289L121 289Z"/>
    <glyph glyph-name="Õ" unicode="&#24533;"
      horiz-adv-x="1000" vert-adv-y="1172"
      d="M938 478L718 478C733 382 763 294 807 214C851 133 907 65 976 8L976 8L890-94C832-37 783 24 744 87C704 150 673 219 652 293L652 293C606 146 522 19 400-88L400-88L318 7C392 70 451 140 495 217C538 294 566 381 578 478L578 478L410 478L410 590L585 590L585 606L585 839L697 839L697 611L697 590L938 590L938 478ZM403 535L346 450L298 493L272 516L272-86L162-86L162 621C156 572 148 516 139 451C129 386 120 334 113 295L113 295L22 313C33 366 43 425 54 492C64 558 71 616 75 667L75 667L162 657L162 838L272 838L272 643C327 601 370 565 403 535L403 535Z"/>
    <glyph glyph-name="Ú" unicode="&#24538;"
      horiz-adv-x="1000" vert-adv-y="1172"
      d="M399 595L347 511C327 528 300 547 265 570L265 570L265-79L160-79L160 842L265 842L265 680L399 595ZM870 211L968 190C965 134 963 89 960 54L960 54C958 25 952 4 942-11C931-26 916-37 896-44C876-51 847-56 810-59L810-59C763-64 719-66 680-66L680-66C641-66 597-64 550-59L550-59C513-56 484-51 463-43C442-35 427-22 417-3C406 16 401 42 401 77L401 77L401 399L330 375L301 488L401 521L401 746L507 746L507 557L597 587L597 837L701 837L701 622L914 693L914 646C914 531 909 415 899 299L899 299C896 258 887 229 870 211L870 211ZM111 303L18 320C27 369 36 427 45 495C54 562 60 623 64 678L64 678L159 671C138 488 122 365 111 303L111 303ZM769 51C793 53 811 56 823 60C834 63 843 69 848 78C853 86 856 98 857 115L857 115L860 180L861 202C844 189 817 182 782 182L782 182C759 183 742 185 732 188L732 188L709 302C718 299 729 297 742 297L742 297C756 297 767 301 775 310C783 319 789 332 792 350L792 350C799 383 802 444 802 535L802 535L701 501L701 123L597 123L597 466L507 435L507 124C507 105 509 90 513 81C516 71 523 64 532 60C541 56 554 53 573 51L573 51C610 47 643 45 671 45L671 45C700 45 733 47 769 51L769 51Z"/>
    <glyph glyph-name="Û" unicode="&#24539;"
      horiz-adv-x="1000" vert-adv-y="1172"
      d="M863 265L968 241C968 216 967 183 967 142C966 101 964 67 963 40L963 40C962 13 958-8 953-22C948-36 938-46 925-52C911-59 890-62 862-63L862-63L786-62C753-63 730-54 717-37C704-20 697 8 697 47L697 47L697 297L622 256C595 313 558 384 509 469L509 469L509 443L509 397C509 318 505 251 497 199C488 146 474 97 453 54C432 11 403-35 364-84L364-84L282-17L282-74L171-74L171 842L282 842L282 679C327 648 366 619 399 594L399 594L399 804L810 804L810 78C810 69 811 63 813 60C814 56 819 54 826 54L826 54L842 54C849 54 853 56 856 61C858 65 859 72 860 82L860 82C861 109 862 140 863 174C864 207 864 238 863 265L863 265ZM509 526L576 564C593 535 614 499 637 458C660 417 680 379 697 346L697 346L697 684L509 684L509 526ZM120 302L24 317C33 366 41 424 50 492C58 559 64 620 68 676L68 676L166 670C161 608 154 541 145 468C136 395 127 339 120 302L120 302ZM282 550L282-1C317 44 343 86 360 126C376 166 387 209 392 255C397 301 399 364 399 443L399 443L399 547L361 489C324 518 298 538 282 550L282 550Z"/>
    </font>
</defs>
</svg>
